<svg xmlns="http://www.w3.org/2000/svg" width="84.412" height="64.522" viewBox="0 0 84.412 64.522">
  <g id="Grupo_152659" data-name="Grupo 152659" transform="translate(-180.588 -433.825)">
    <rect id="Rectángulo_45220" data-name="Rectángulo 45220" width="53.228" height="48.731" transform="translate(229.319 433.825) rotate(90)" fill="#e8e8e8"/>
    <g id="Grupo_152660" data-name="Grupo 152660">
      <rect id="Rectángulo_45221" data-name="Rectángulo 45221" width="4.203" height="4.203" transform="translate(260.797 453.696) rotate(-90)" fill="#2194e5"/>
      <rect id="Rectángulo_45222" data-name="Rectángulo 45222" width="4.203" height="4.203" transform="translate(260.797 462.627) rotate(-90)" fill="#2194e5"/>
      <rect id="Rectángulo_45223" data-name="Rectángulo 45223" width="4.203" height="4.203" transform="translate(260.797 471.557) rotate(-90)" fill="#2194e5"/>
      <rect id="Rectángulo_45224" data-name="Rectángulo 45224" width="4.202" height="4.203" transform="translate(260.797 480.487) rotate(-90)" fill="#2194e5"/>
      <rect id="Rectángulo_45225" data-name="Rectángulo 45225" width="4.203" height="4.203" transform="translate(260.797 489.418) rotate(-90)" fill="#2194e5"/>
      <rect id="Rectángulo_45226" data-name="Rectángulo 45226" width="4.202" height="4.203" transform="translate(260.797 498.348) rotate(-90)" fill="#2194e5"/>
      <rect id="Rectángulo_45232" data-name="Rectángulo 45232" width="4.203" height="4.203" transform="translate(251.867 453.696) rotate(-90)" fill="#2194e5"/>
      <rect id="Rectángulo_45233" data-name="Rectángulo 45233" width="4.203" height="4.203" transform="translate(251.867 462.627) rotate(-90)" fill="#2194e5"/>
      <rect id="Rectángulo_45234" data-name="Rectángulo 45234" width="4.203" height="4.203" transform="translate(251.867 471.557) rotate(-90)" fill="#2194e5"/>
      <rect id="Rectángulo_45235" data-name="Rectángulo 45235" width="4.202" height="4.203" transform="translate(251.867 480.487) rotate(-90)" fill="#2194e5"/>
      <rect id="Rectángulo_45236" data-name="Rectángulo 45236" width="4.203" height="4.203" transform="translate(251.867 489.418) rotate(-90)" fill="#2194e5"/>
      <rect id="Rectángulo_45237" data-name="Rectángulo 45237" width="4.202" height="4.203" transform="translate(251.867 498.348) rotate(-90)" fill="#2194e5"/>
      <rect id="Rectángulo_45243" data-name="Rectángulo 45243" width="4.203" height="4.203" transform="translate(242.937 453.696) rotate(-90)" fill="#2194e5"/>
      <rect id="Rectángulo_45244" data-name="Rectángulo 45244" width="4.203" height="4.203" transform="translate(242.937 462.627) rotate(-90)" fill="#2194e5"/>
      <rect id="Rectángulo_45245" data-name="Rectángulo 45245" width="4.203" height="4.203" transform="translate(242.937 471.557) rotate(-90)" fill="#2194e5"/>
      <rect id="Rectángulo_45246" data-name="Rectángulo 45246" width="4.202" height="4.203" transform="translate(242.937 480.487) rotate(-90)" fill="#2194e5"/>
      <rect id="Rectángulo_45247" data-name="Rectángulo 45247" width="4.203" height="4.203" transform="translate(242.937 489.418) rotate(-90)" fill="#2194e5"/>
      <rect id="Rectángulo_45248" data-name="Rectángulo 45248" width="4.202" height="4.203" transform="translate(242.937 498.348) rotate(-90)" fill="#2194e5"/>
      <rect id="Rectángulo_45221-2" data-name="Rectángulo 45221" width="4.203" height="4.203" transform="translate(234.753 453.696) rotate(-90)" fill="#2194e5"/>
      <rect id="Rectángulo_45222-2" data-name="Rectángulo 45222" width="4.203" height="4.203" transform="translate(234.753 462.627) rotate(-90)" fill="#2194e5"/>
      <rect id="Rectángulo_45223-2" data-name="Rectángulo 45223" width="4.203" height="4.203" transform="translate(234.753 471.557) rotate(-90)" fill="#2194e5"/>
      <rect id="Rectángulo_45224-2" data-name="Rectángulo 45224" width="4.202" height="4.203" transform="translate(234.753 480.487) rotate(-90)" fill="#2194e5"/>
      <rect id="Rectángulo_45225-2" data-name="Rectángulo 45225" width="4.203" height="4.203" transform="translate(234.753 489.418) rotate(-90)" fill="#2194e5"/>
      <rect id="Rectángulo_45226-2" data-name="Rectángulo 45226" width="4.202" height="4.203" transform="translate(234.753 498.348) rotate(-90)" fill="#2194e5"/>
      <rect id="Rectángulo_45232-2" data-name="Rectángulo 45232" width="4.203" height="4.203" transform="translate(225.822 453.696) rotate(-90)" fill="#2194e5"/>
      <rect id="Rectángulo_45233-2" data-name="Rectángulo 45233" width="4.203" height="4.203" transform="translate(225.822 462.627) rotate(-90)" fill="#2194e5"/>
      <rect id="Rectángulo_45234-2" data-name="Rectángulo 45234" width="4.203" height="4.203" transform="translate(225.822 471.557) rotate(-90)" fill="#2194e5"/>
      <rect id="Rectángulo_45235-2" data-name="Rectángulo 45235" width="4.202" height="4.203" transform="translate(225.822 480.487) rotate(-90)" fill="#2194e5"/>
      <rect id="Rectángulo_45236-2" data-name="Rectángulo 45236" width="4.203" height="4.203" transform="translate(225.822 489.418) rotate(-90)" fill="#2194e5"/>
      <rect id="Rectángulo_45237-2" data-name="Rectángulo 45237" width="4.202" height="4.203" transform="translate(225.822 498.348) rotate(-90)" fill="#2194e5"/>
      <rect id="Rectángulo_45243-2" data-name="Rectángulo 45243" width="4.203" height="4.203" transform="translate(216.892 453.696) rotate(-90)" fill="#2194e5"/>
      <rect id="Rectángulo_45244-2" data-name="Rectángulo 45244" width="4.203" height="4.203" transform="translate(216.892 462.627) rotate(-90)" fill="#2194e5"/>
      <rect id="Rectángulo_45245-2" data-name="Rectángulo 45245" width="4.203" height="4.203" transform="translate(216.892 471.557) rotate(-90)" fill="#2194e5"/>
      <rect id="Rectángulo_45246-2" data-name="Rectángulo 45246" width="4.202" height="4.203" transform="translate(216.892 480.487) rotate(-90)" fill="#2194e5"/>
      <rect id="Rectángulo_45247-2" data-name="Rectángulo 45247" width="4.203" height="4.203" transform="translate(216.892 489.418) rotate(-90)" fill="#2194e5"/>
      <rect id="Rectángulo_45248-2" data-name="Rectángulo 45248" width="4.202" height="4.203" transform="translate(216.892 498.348) rotate(-90)" fill="#2194e5"/>
    </g>
  </g>
</svg>
