<svg id="Grupo_153046" data-name="Grupo 153046" xmlns="http://www.w3.org/2000/svg" xmlns:xlink="http://www.w3.org/1999/xlink" width="308.715" height="291.637" viewBox="0 0 308.715 291.637">
  <defs>
    <clipPath id="clip-path">
      <rect id="Rectángulo_45633" data-name="Rectángulo 45633" width="308.715" height="291.637" fill="none"/>
    </clipPath>
    <clipPath id="clip-path-3">
      <rect id="Rectángulo_45611" data-name="Rectángulo 45611" width="26.43" height="43.923" fill="none"/>
    </clipPath>
    <clipPath id="clip-path-4">
      <rect id="Rectángulo_45612" data-name="Rectángulo 45612" width="36.406" height="42.327" fill="none"/>
    </clipPath>
    <clipPath id="clip-path-5">
      <rect id="Rectángulo_45613" data-name="Rectángulo 45613" width="123.71" height="84.161" fill="none"/>
    </clipPath>
    <clipPath id="clip-path-6">
      <rect id="Rectángulo_45614" data-name="Rectángulo 45614" width="147.878" height="8.181" fill="none"/>
    </clipPath>
    <clipPath id="clip-path-7">
      <rect id="Rectángulo_45615" data-name="Rectángulo 45615" width="5.711" height="128.76" fill="none"/>
    </clipPath>
    <clipPath id="clip-path-8">
      <rect id="Rectángulo_45616" data-name="Rectángulo 45616" width="4.272" height="128.933" fill="none"/>
    </clipPath>
    <clipPath id="clip-path-9">
      <rect id="Rectángulo_45617" data-name="Rectángulo 45617" width="3.622" height="128.77" fill="none"/>
    </clipPath>
    <clipPath id="clip-path-10">
      <rect id="Rectángulo_45618" data-name="Rectángulo 45618" width="3.97" height="127.323" fill="none"/>
    </clipPath>
    <clipPath id="clip-path-11">
      <rect id="Rectángulo_45619" data-name="Rectángulo 45619" width="5.501" height="121.762" fill="none"/>
    </clipPath>
    <clipPath id="clip-path-12">
      <rect id="Rectángulo_45620" data-name="Rectángulo 45620" width="5.828" height="128.598" fill="none"/>
    </clipPath>
    <clipPath id="clip-path-13">
      <rect id="Rectángulo_45621" data-name="Rectángulo 45621" width="3.666" height="79.169" fill="none"/>
    </clipPath>
    <clipPath id="clip-path-14">
      <rect id="Rectángulo_45622" data-name="Rectángulo 45622" width="22.627" height="126.589" fill="none"/>
    </clipPath>
    <clipPath id="clip-path-15">
      <rect id="Rectángulo_45623" data-name="Rectángulo 45623" width="22.012" height="126.725" fill="none"/>
    </clipPath>
    <clipPath id="clip-path-16">
      <rect id="Rectángulo_45624" data-name="Rectángulo 45624" width="20.595" height="126.926" fill="none"/>
    </clipPath>
    <clipPath id="clip-path-17">
      <rect id="Rectángulo_45625" data-name="Rectángulo 45625" width="13.736" height="98.802" fill="none"/>
    </clipPath>
    <clipPath id="clip-path-18">
      <rect id="Rectángulo_45626" data-name="Rectángulo 45626" width="11.97" height="92.973" fill="none"/>
    </clipPath>
    <clipPath id="clip-path-19">
      <rect id="Rectángulo_45627" data-name="Rectángulo 45627" width="10.444" height="86.696" fill="none"/>
    </clipPath>
    <clipPath id="clip-path-20">
      <rect id="Rectángulo_45628" data-name="Rectángulo 45628" width="9.362" height="78.84" fill="none"/>
    </clipPath>
    <clipPath id="clip-path-21">
      <rect id="Rectángulo_45629" data-name="Rectángulo 45629" width="47.344" height="47.342" fill="none"/>
    </clipPath>
    <clipPath id="clip-path-22">
      <rect id="Rectángulo_45630" data-name="Rectángulo 45630" width="13.607" height="42.609" fill="none"/>
    </clipPath>
    <clipPath id="clip-path-23">
      <rect id="Rectángulo_45631" data-name="Rectángulo 45631" width="23.006" height="44.887" fill="none"/>
    </clipPath>
  </defs>
  <g id="Grupo_153045" data-name="Grupo 153045" clip-path="url(#clip-path)">
    <g id="Grupo_153044" data-name="Grupo 153044">
      <g id="Grupo_153043" data-name="Grupo 153043" clip-path="url(#clip-path)">
        <path id="Trazado_195843" data-name="Trazado 195843" d="M0,297.4a31.046,31.046,0,1,1,31.046,31.046A31.047,31.047,0,0,1,0,297.4" transform="translate(0 -48.079)" fill="#424f84"/>
        <path id="Trazado_195844" data-name="Trazado 195844" d="M57.176,298.787a24.751,24.751,0,0,1-29.981,24.18,24.439,24.439,0,0,1-6.432-2.362,24.734,24.734,0,0,1,11.674-46.557c.766,0,1.517.032,2.267.1A24.7,24.7,0,0,1,57.168,298.34c.008.152.008.3.008.447" transform="translate(-1.39 -49.468)" fill="#c17459"/>
        <g id="Grupo_152982" data-name="Grupo 152982" transform="translate(6.883 224.58)" opacity="0.2">
          <g id="Grupo_152981" data-name="Grupo 152981">
            <g id="Grupo_152980" data-name="Grupo 152980" clip-path="url(#clip-path-3)">
              <path id="Trazado_195845" data-name="Trazado 195845" d="M34.83,274.152c-6.608,8.539-11.994,26.024-13.55,33.676-.447,2.2-2.21,7.566-4.333,10.143A24.7,24.7,0,0,1,8.4,304.1c4.261-6.018,9.656-13.894,12.082-18.77,2.53-5.083,3.679-8,4.6-10.135a24.926,24.926,0,0,1,7.485-1.15c.766,0,1.517.032,2.267.1" transform="translate(-8.4 -274.048)" fill="#fff"/>
            </g>
          </g>
        </g>
        <g id="Grupo_152985" data-name="Grupo 152985" transform="translate(19.372 231.172)" opacity="0.2">
          <g id="Grupo_152984" data-name="Grupo 152984">
            <g id="Grupo_152983" data-name="Grupo 152983" clip-path="url(#clip-path-4)">
              <path id="Trazado_195846" data-name="Trazado 195846" d="M60.045,299.792c-4.6.9-12.585,1.364-18.362,7.4-6.464,6.744-9.7,12.5-11.611,17.229a24.458,24.458,0,0,1-6.432-2.362,79.755,79.755,0,0,1,9.592-19.927c5.092-7.94,12.649-15.234,18.9-20.038a24.594,24.594,0,0,1,3.423,3.918c-1.732,2-3.375,3.99-3.647,5.115-.63,2.65,3.439,1.94,6.831,1.133a24.53,24.53,0,0,1,1.309,7.534" transform="translate(-23.639 -282.092)" fill="#fff"/>
            </g>
          </g>
        </g>
        <path id="Trazado_195847" data-name="Trazado 195847" d="M227.608,263.246h-.04a13.386,13.386,0,0,1-13.348-13.427L214.8,52.865a13.387,13.387,0,0,1,13.386-13.348h.041a13.387,13.387,0,0,1,13.348,13.427L240.994,249.9a13.387,13.387,0,0,1-13.386,13.349" transform="translate(-38.668 -7.133)" fill="#161b43"/>
        <path id="Trazado_195848" data-name="Trazado 195848" d="M211.059,36.522l-4.9-19.355a2.309,2.309,0,0,1,.478-2.069c3.188-3.777,16.4-17.369,39.554-14.771a2.341,2.341,0,0,1,1.991,2.814L240.972,36.53Z" transform="translate(-37.2 0)" fill="#dcdfde"/>
        <path id="Trazado_195849" data-name="Trazado 195849" d="M212.154,44.349s17.4-2.218,29.808-.013l-.815,36.5a241.527,241.527,0,0,0-26.9-.079Z" transform="translate(-38.296 -7.827)" fill="#424f84"/>
        <path id="Trazado_195850" data-name="Trazado 195850" d="M262.354,249.62c-.09,0-.18,0-.271,0a6.986,6.986,0,0,1-6.714-7.248l5.271-138.18a6.986,6.986,0,0,1,13.962.533L269.331,242.9a6.987,6.987,0,0,1-6.976,6.72" transform="translate(-46.095 -17.594)" fill="#161b43"/>
        <path id="Trazado_195851" data-name="Trazado 195851" d="M261.651,98.732l-9.73-36.406a2.573,2.573,0,0,1,1.6-3.1c4.664-1.655,16.087-4.588,27.535,1.068a2.6,2.6,0,0,1,1.284,3.067l-10.7,35.748Z" transform="translate(-45.458 -10.285)" fill="#f97776"/>
        <path id="Trazado_195852" data-name="Trazado 195852" d="M261.033,97.652s8.645-1.265,14.882.5L274.9,123.758a94.245,94.245,0,0,0-14-.534Z" transform="translate(-47.094 -17.548)" fill="#424f84"/>
        <path id="Trazado_195853" data-name="Trazado 195853" d="M228.4,77.169s-4.665-7.993-.436-20.619a1.447,1.447,0,0,1,1.355-.976l7.157-.032a1.4,1.4,0,0,1,1.369,1.025c.874,3.181,3.132,13.083-.206,20.517Z" transform="translate(-40.83 -10.026)" fill="#f97776"/>
        <path id="Trazado_195854" data-name="Trazado 195854" d="M236.1,82.664a40.758,40.758,0,0,1,1.623,7.306,66.966,66.966,0,0,1,.6,7.31c.066,4.875.021,9.751.038,14.626.038,9.75-.071,19.5-.143,29.252-.134,9.751-.277,19.5-.536,29.254s-.55,19.5-1.059,29.256a2.185,2.185,0,0,1-4.362.02c-.6-9.748-.979-19.5-1.319-29.245s-.575-19.5-.8-29.248c-.159-9.749-.356-19.5-.4-29.249-.028-4.875-.115-9.75-.093-14.625A66.76,66.76,0,0,1,230.179,90a40.77,40.77,0,0,1,1.557-7.32,2.295,2.295,0,0,1,4.362-.02" transform="translate(-41.452 -14.638)" fill="#f3a278"/>
        <path id="Trazado_195855" data-name="Trazado 195855" d="M226.89,76.339a24.693,24.693,0,0,1,12.247-.113l-1.26,24.23a39.854,39.854,0,0,0-8.805.039Z" transform="translate(-40.956 -13.629)" fill="#dcdfde"/>
        <path id="Trazado_195856" data-name="Trazado 195856" d="M226.594,259.275a8.727,8.727,0,0,1-8.527-6.923L182.38,83.388a8.724,8.724,0,1,1,17.072-3.607l35.687,168.965a8.732,8.732,0,0,1-8.545,10.529" transform="translate(-32.887 -13.152)" fill="#f3a278"/>
        <path id="Trazado_195857" data-name="Trazado 195857" d="M179.867,73.447,148.4,39.912a3.266,3.266,0,0,1,.391-4.849c7.084-5.363,26.933-17.783,51.453-10.82a3.264,3.264,0,0,1,2.157,4.117L188.962,71.526Z" transform="translate(-26.625 -4.003)" fill="#9abfcf"/>
        <path id="Trazado_195858" data-name="Trazado 195858" d="M179.115,75.473s10.085-4.165,18.176-3.929l6.564,31.327a117.778,117.778,0,0,0-17.119,3.616Z" transform="translate(-32.332 -12.913)" fill="#424f84"/>
        <path id="Trazado_195859" data-name="Trazado 195859" d="M283.567,250.43a8.16,8.16,0,0,1-7.884-10.255L317.25,84.238a8.153,8.153,0,0,1,15.756,4.2L291.439,244.375a8.158,8.158,0,0,1-7.873,6.055" transform="translate(-49.713 -14.113)" fill="#f3a278"/>
        <path id="Trazado_195860" data-name="Trazado 195860" d="M327.8,78.231l-1.705-43.946a3,3,0,0,1,2.617-3.112c5.736-.684,19.495-1.083,31.069,8.3a3.035,3.035,0,0,1,.672,3.822l-21.377,37.94Z" transform="translate(-58.862 -5.571)" fill="#dcdfde"/>
        <path id="Trazado_195861" data-name="Trazado 195861" d="M326.179,76.368s10.167.785,16.813,4.4l-7.751,28.89a109.949,109.949,0,0,0-15.8-4.211Z" transform="translate(-57.662 -13.785)" fill="#424f84"/>
        <path id="Trazado_195862" data-name="Trazado 195862" d="M291.836,82.665a21.873,21.873,0,0,1,.267-18.5,2.284,2.284,0,0,1,2.17-1.3l12.025.569a2.218,2.218,0,0,1,2.029,1.564c1.03,3.452,2.959,12.161-1.425,18.3Z" transform="translate(-52.338 -11.349)" fill="#dcdfde"/>
        <path id="Trazado_195863" data-name="Trazado 195863" d="M302.224,95.221a50.24,50.24,0,0,1,1.529,9.087,81.916,81.916,0,0,1,.273,9.027c-.23,6-.594,11.991-.884,17.987-.574,11.992-1.329,23.975-2.037,35.96-.787,11.982-1.582,23.964-2.522,35.938s-1.918,23.947-3.162,35.907a2.69,2.69,0,0,1-5.366-.253c-.111-12.024.037-24.036.238-36.046s.533-24.012.882-36.015c.425-12,.8-24,1.364-35.992.276-6,.479-12,.816-17.989a82.35,82.35,0,0,1,1.123-8.961,50.326,50.326,0,0,1,2.381-8.9,2.827,2.827,0,0,1,5.366.254" transform="translate(-52.35 -16.814)" fill="#f3a278"/>
        <path id="Trazado_195864" data-name="Trazado 195864" d="M292.252,86.88a30.4,30.4,0,0,1,15.066.64l-3.091,29.714a49.056,49.056,0,0,0-10.83-.512Z" transform="translate(-52.754 -15.564)" fill="#424f84"/>
        <path id="Trazado_195865" data-name="Trazado 195865" d="M286.388,117.044s-4.71-8.379-.1-21.422a1.5,1.5,0,0,1,1.423-.991l7.433.088a1.453,1.453,0,0,1,1.405,1.088c.854,3.319,3.032,13.64-.561,21.3Z" transform="translate(-51.312 -17.082)" fill="#9abfcf"/>
        <path id="Trazado_195866" data-name="Trazado 195866" d="M294.22,122.877a42.355,42.355,0,0,1,1.561,7.615,69.08,69.08,0,0,1,.5,7.6c-.014,5.064-.142,10.127-.207,15.19-.125,10.127-.4,20.252-.643,30.378-.3,10.124-.618,20.249-1.051,30.372s-.9,20.246-1.594,30.366a2.269,2.269,0,0,1-4.53-.054c-.454-10.133-.688-20.264-.877-30.395s-.268-20.259-.334-30.388c0-10.128-.039-20.257.075-30.384.053-5.063.045-10.127.15-15.19a69.29,69.29,0,0,1,.678-7.589,42.427,42.427,0,0,1,1.741-7.575,2.384,2.384,0,0,1,4.531.053" transform="translate(-51.813 -21.879)" fill="#f3a278"/>
        <path id="Trazado_195867" data-name="Trazado 195867" d="M284.87,116.16a25.655,25.655,0,0,1,12.721.089l-1.718,25.143a41.379,41.379,0,0,0-9.146-.108Z" transform="translate(-51.421 -20.83)" fill="#424f84"/>
        <path id="Trazado_195868" data-name="Trazado 195868" d="M304.831,79.382s-.183-2.372-.191-7.686a.43.43,0,0,1,.306-.414l12.118-3.117a.406.406,0,0,1,.5.424c-.134,1.8-.6,7.493-1.316,11.228Z" transform="translate(-54.99 -12.302)" fill="#f97776"/>
        <path id="Trazado_195869" data-name="Trazado 195869" d="M312.558,88.028a37.988,37.988,0,0,1,1.19,6.881,62.265,62.265,0,0,1,.238,6.841c-.154,4.547-.41,9.09-.61,13.635-.394,9.091-.926,18.175-1.423,27.262-.556,9.084-1.119,18.167-1.79,27.246s-1.372,18.157-2.276,27.225a2.039,2.039,0,0,1-4.067-.174c-.125-9.113-.053-18.217.059-27.32s.323-18.2.546-27.3c.282-9.1.528-18.193.912-27.283.19-4.546.323-9.094.558-13.638a62.252,62.252,0,0,1,.821-6.8,38.055,38.055,0,0,1,1.774-6.754,2.142,2.142,0,0,1,4.067.174" transform="translate(-54.83 -15.608)" fill="#161b43"/>
        <path id="Trazado_195870" data-name="Trazado 195870" d="M304.873,81.741a23.047,23.047,0,0,1,11.421.434l-2.242,22.531a37.208,37.208,0,0,0-8.21-.352Z" transform="translate(-55.032 -14.661)" fill="#424f84"/>
        <path id="Trazado_195871" data-name="Trazado 195871" d="M312.214,149.712l-1.82,28.9-5.3,84.162-1.95,30.992c-.2,3.139-2.188,5.557-4.581,5.557H198.509c-2.386,0-4.376-2.418-4.574-5.557l-1.95-30.992-5.3-84.072-1.828-28.994c-.22-3.524,1.893-6.556,4.581-6.556h118.2c2.688,0,4.8,3.032,4.582,6.556" transform="translate(-33.365 -25.841)" fill="#f7d7ba"/>
        <g id="Grupo_152988" data-name="Grupo 152988" transform="translate(153.319 152.775)" opacity="0.5">
          <g id="Grupo_152987" data-name="Grupo 152987">
            <g id="Grupo_152986" data-name="Grupo 152986" clip-path="url(#clip-path-5)">
              <path id="Trazado_195872" data-name="Trazado 195872" d="M310.8,186.426l-5.3,84.162H192.392l-5.3-84.072v-.09Z" transform="translate(-187.09 -186.426)" fill="#fff"/>
            </g>
          </g>
        </g>
        <path id="Trazado_195873" data-name="Trazado 195873" d="M273.627,151.635H194.071a.626.626,0,0,1,0-1.252h79.556a.626.626,0,1,1,0,1.252" transform="translate(-34.918 -27.145)" fill="#fff"/>
        <path id="Trazado_195874" data-name="Trazado 195874" d="M190.5,104.594a.235.235,0,0,1-.229-.182l-5.71-24.83a.235.235,0,0,1,.458-.1l5.71,24.829a.236.236,0,0,1-.176.282.241.241,0,0,1-.053.006" transform="translate(-33.314 -14.313)" fill="#fff"/>
        <path id="Trazado_195875" data-name="Trazado 195875" d="M324.331,99.1a.24.24,0,0,1-.058-.007.235.235,0,0,1-.17-.285l4.326-16.982a.239.239,0,0,1,.286-.17.236.236,0,0,1,.17.286L324.559,98.92a.235.235,0,0,1-.228.177" transform="translate(-58.502 -14.738)" fill="#fff"/>
        <path id="Trazado_195876" data-name="Trazado 195876" d="M307.124,101.643a.235.235,0,0,1-.235-.235V84.688a.235.235,0,0,1,.47,0v16.719a.235.235,0,0,1-.235.235" transform="translate(-55.396 -15.244)" fill="#fff"/>
        <path id="Trazado_195877" data-name="Trazado 195877" d="M217.449,78.274a.235.235,0,0,1-.234-.224l-1.442-30.186a.235.235,0,0,1,.224-.246.222.222,0,0,1,.245.224l1.442,30.186a.235.235,0,0,1-.223.246h-.011" transform="translate(-38.949 -8.595)" fill="#fff"/>
        <path id="Trazado_195878" data-name="Trazado 195878" d="M230.757,98.673a.234.234,0,0,1-.234-.217l-1.455-18.907a.235.235,0,0,1,.216-.252.239.239,0,0,1,.252.216l1.455,18.907a.235.235,0,0,1-.216.252h-.018" transform="translate(-41.349 -14.314)" fill="#fff"/>
        <path id="Trazado_195879" data-name="Trazado 195879" d="M263.239,121.784a.235.235,0,0,1-.235-.235v-20.51a.235.235,0,0,1,.47,0v20.51a.235.235,0,0,1-.235.235" transform="translate(-47.474 -18.196)" fill="#fff"/>
        <path id="Trazado_195880" data-name="Trazado 195880" d="M288.062,137.067a.235.235,0,0,1-.234-.213l-1.763-18.587a.234.234,0,0,1,.212-.256.242.242,0,0,1,.256.211l1.763,18.588a.235.235,0,0,1-.212.256h-.022" transform="translate(-51.637 -21.302)" fill="#fff"/>
        <g id="Grupo_152991" data-name="Grupo 152991" transform="translate(31.047 283.455)" opacity="0.05">
          <g id="Grupo_152990" data-name="Grupo 152990">
            <g id="Grupo_152989" data-name="Grupo 152989" clip-path="url(#clip-path-6)">
              <path id="Trazado_195881" data-name="Trazado 195881" d="M185.763,349.982c0,2.259-33.1,4.091-73.939,4.091s-73.939-1.832-73.939-4.091,33.1-4.091,73.939-4.091,73.939,1.832,73.939,4.091" transform="translate(-37.885 -345.891)" fill="#161b43"/>
            </g>
          </g>
        </g>
        <path id="Trazado_195882" data-name="Trazado 195882" d="M163.108,131.628c4.077-.229,15.955-1.543,13.7-10.544,0,0-2.19-7.075-17.7-3.054s-17.495,3.065-20.327,2.345c-.109-.027-.264.275-.414.221l-4.773,10.863c5.486,2.243,26.067.363,29.521.169" transform="translate(-24.114 -21.082)" fill="#dcdfde"/>
        <path id="Trazado_195883" data-name="Trazado 195883" d="M158.712,185.506l-20.044,53.13-.219.582a6.316,6.316,0,0,0-.342,3.07l9.291,69.735c.363,2.591,3.058,3.053,5.65,2.69,2.473-.347,3.478-1.08,3.316-3.534,0,0-2.308-42.7-3.587-57.8-.156-1.845-1.019-8.721-1.019-8.721a8.06,8.06,0,0,1,.885-4.407L175.251,195.5c2.435-4.963,2.2-13.008-2.766-15.443a10.01,10.01,0,0,0-13.395,4.577c-.139.284-.268.586-.379.876" transform="translate(-24.919 -32.316)" fill="#ff9c7c"/>
        <path id="Trazado_195884" data-name="Trazado 195884" d="M155.05,343.049l0,2.477-28.508.115.166-1.649Z" transform="translate(-22.842 -61.923)" fill="#f3a278"/>
        <path id="Trazado_195885" data-name="Trazado 195885" d="M155.129,341.806l-28.387.6s-.243-3.843,2.918-5.145,15.457-2.668,15.457-2.668a37.6,37.6,0,0,0,8.94-.334Z" transform="translate(-22.877 -60.336)" fill="#f3a278"/>
        <path id="Trazado_195886" data-name="Trazado 195886" d="M166.116,220.248s-10.229,14.526-11.237,21.591,1.995,52.091,1.995,52.091-8.569,2.577-15.852,0c0,0-8.1-50.44-6.2-58.207s22.393-68.86,22.393-68.86a74.137,74.137,0,0,1,8.57,1.78c5.986,1.5.326,51.605.326,51.605" transform="translate(-24.285 -30.12)" fill="#9abfcf"/>
        <path id="Trazado_195887" data-name="Trazado 195887" d="M166.814,187.9c1.9,20.9,1.415,36.863,3.65,57.847.572,5.366,1.154,12.295,1.624,17.64.975,11.089.975,11.089,2.392,24.978.407,3.988,3.8,25.6,4.645,28.034,2.418,6.976,7.743,3.479,7.919-.3.025-.53-1.233-3.125-.94-6.147a404.292,404.292,0,0,0,1.183-44.321c-.271-7.42-2.582-15.231-2.579-17.93,0-3.117,2.177-16.517,2.21-19.634.131-11.847-.239-17.453-.393-29.3-.075-5.8,2.009-14.131-2.724-18.453-7.282-6.651-16.578-1.723-16.988,7.585" transform="translate(-30.111 -31.995)" fill="#ff9c7c"/>
        <path id="Trazado_195888" data-name="Trazado 195888" d="M161.843,349.367l13.128-5.321a2.956,2.956,0,0,0,2.151-2.9l8.173,1.5.1,6.647a.953.953,0,0,1-.929.956l-22.391.534a.738.738,0,0,1-.236-1.42" transform="translate(-29.131 -61.58)" fill="#ff9c7c"/>
        <path id="Trazado_195889" data-name="Trazado 195889" d="M179.311,173.216a29.163,29.163,0,0,0,7.021-.7.217.217,0,1,0-.116-.418,34.446,34.446,0,0,1-11.344.464.217.217,0,1,0-.042.432c1.651.161,3.151.224,4.481.224" transform="translate(-31.523 -31.063)" fill="#003458"/>
        <path id="Trazado_195890" data-name="Trazado 195890" d="M185.782,350.109l0,2.477-28.508.11.166-1.649Z" transform="translate(-28.389 -63.198)" fill="#f3a278"/>
        <path id="Trazado_195891" data-name="Trazado 195891" d="M185.86,348.865l-28.388.593s-.243-3.843,2.92-5.144,15.458-2.665,15.458-2.665a37.649,37.649,0,0,0,8.94-.333Z" transform="translate(-28.424 -61.611)" fill="#f3a278"/>
        <path id="Trazado_195892" data-name="Trazado 195892" d="M163.976,188.68l9.682,108.007s8.275,2.041,15.621,0c0,0,1.224-29.656-.816-42.275s2.928-52.553,1.632-65.828c-1.428-14.642-5.6-20.047-5.6-20.047s-11.106,1.615-14.847,0c0,0-7.238,10.359-5.673,20.143" transform="translate(-29.559 -30.422)" fill="#9abfcf"/>
        <g id="Grupo_152994" data-name="Grupo 152994" transform="translate(150.972 138.2)" opacity="0.5">
          <g id="Grupo_152993" data-name="Grupo 152993">
            <g id="Grupo_152992" data-name="Grupo 152992" clip-path="url(#clip-path-7)">
              <path id="Trazado_195893" data-name="Trazado 195893" d="M189.588,297.4a.218.218,0,0,0,.217-.212c0-.211.478-21.226-.392-32.127-.147-1.84-.339-3.729-.544-5.729-1.047-10.248-2.35-23,.2-48.312,3.034-30.133-4.364-42.16-4.439-42.278a.217.217,0,1,0-.366.233c.074.117,7.389,12.044,4.374,42-2.553,25.356-1.247,38.133-.2,48.4.2,2,.4,3.884.544,5.719.867,10.88.395,31.872.39,32.082a.217.217,0,0,0,.212.222Z" transform="translate(-184.227 -168.641)" fill="#e6e6cd"/>
            </g>
          </g>
        </g>
        <g id="Grupo_152997" data-name="Grupo 152997" transform="translate(148.68 138.427)" opacity="0.5">
          <g id="Grupo_152996" data-name="Grupo 152996">
            <g id="Grupo_152995" data-name="Grupo 152995" clip-path="url(#clip-path-8)">
              <path id="Trazado_195894" data-name="Trazado 195894" d="M185.461,297.851a.218.218,0,0,0,.217-.207c.142-3.123-.39-14.934-.953-27.439-.517-11.483-1.051-23.356-1.015-27.836.039-4.665.515-14.382.977-23.78.452-9.215.92-18.744.987-23.712.134-9.966-3.778-25.637-3.817-25.794a.217.217,0,1,0-.421.106c.039.157,3.938,15.774,3.8,25.683-.066,4.96-.534,14.485-.986,23.7-.461,9.4-.939,19.124-.978,23.8-.038,4.492.5,16.371,1.015,27.859.538,11.945,1.094,24.3.953,27.4a.218.218,0,0,0,.207.227Z" transform="translate(-181.43 -168.918)" fill="#e6e6cd"/>
            </g>
          </g>
        </g>
        <g id="Grupo_153000" data-name="Grupo 153000" transform="translate(146.026 138.575)" opacity="0.5">
          <g id="Grupo_152999" data-name="Grupo 152999">
            <g id="Grupo_152998" data-name="Grupo 152998" clip-path="url(#clip-path-9)">
              <path id="Trazado_195895" data-name="Trazado 195895" d="M181.571,297.87a.217.217,0,0,0,.217-.214c0-.192.292-19.369-1.163-29.935-1.488-10.818-2.005-51.264-.437-63.55,1.549-12.133-1.533-34.658-1.564-34.884a.217.217,0,1,0-.43.06c.031.225,3.105,22.694,1.564,34.769-1.571,12.309-1.054,52.827.438,63.664,1.45,10.535,1.162,29.677,1.159,29.87a.217.217,0,0,0,.214.22Z" transform="translate(-178.191 -169.099)" fill="#e6e6cd"/>
            </g>
          </g>
        </g>
        <g id="Grupo_153003" data-name="Grupo 153003" transform="translate(144.085 139.79)" opacity="0.5">
          <g id="Grupo_153002" data-name="Grupo 153002">
            <g id="Grupo_153001" data-name="Grupo 153001" clip-path="url(#clip-path-10)">
              <path id="Trazado_195896" data-name="Trazado 195896" d="M179.575,297.9h.006a.217.217,0,0,0,.211-.223c-.006-.207-.584-20.77-2.227-31.81-1.7-11.417-1.368-57.586-1.059-63.764.337-6.734-.009-31.066-.012-31.311a.218.218,0,0,0-.217-.215h0a.218.218,0,0,0-.214.22c0,.245.348,24.564.012,31.284-.309,6.183-.639,52.409,1.063,63.848,1.639,11.016,2.218,31.553,2.223,31.759a.217.217,0,0,0,.217.211" transform="translate(-175.823 -170.581)" fill="#e6e6cd"/>
            </g>
          </g>
        </g>
        <g id="Grupo_153006" data-name="Grupo 153006" transform="translate(140.387 145.035)" opacity="0.5">
          <g id="Grupo_153005" data-name="Grupo 153005">
            <g id="Grupo_153004" data-name="Grupo 153004" clip-path="url(#clip-path-11)">
              <path id="Trazado_195897" data-name="Trazado 195897" d="M176.593,298.745h.018a.218.218,0,0,0,.2-.234c-.018-.216-1.8-21.743-2.207-27.793-.388-5.819-2.166-37.326-2.65-52.641-.468-14.789,0-40.613,0-40.872a.217.217,0,0,0-.213-.221.222.222,0,0,0-.221.213c0,.26-.468,26.1,0,40.893.484,15.32,2.263,46.836,2.65,52.656.4,6.054,2.191,27.583,2.208,27.8a.217.217,0,0,0,.216.2" transform="translate(-171.31 -176.982)" fill="#e6e6cd"/>
            </g>
          </g>
        </g>
        <g id="Grupo_153009" data-name="Grupo 153009" transform="translate(153.406 138.2)" opacity="0.5">
          <g id="Grupo_153008" data-name="Grupo 153008">
            <g id="Grupo_153007" data-name="Grupo 153007" clip-path="url(#clip-path-12)">
              <path id="Trazado_195898" data-name="Trazado 195898" d="M192.217,297.239a.216.216,0,0,0,.214-.184c1.462-9.31-.111-31.925-1.152-46.89-.439-6.321-.787-11.312-.8-13.68-.026-3.887.416-10.338.929-17.807.545-7.927,1.161-16.912,1.3-24.423a61.712,61.712,0,0,0-5.1-25.492.217.217,0,1,0-.39.191,61.272,61.272,0,0,1,5.055,25.293c-.142,7.5-.758,16.479-1.3,24.4-.513,7.478-.957,13.936-.93,17.84.016,2.381.364,7.379.8,13.707,1.039,14.945,2.61,37.532,1.155,46.793a.218.218,0,0,0,.181.248l.034,0" transform="translate(-187.196 -168.641)" fill="#e6e6cd"/>
            </g>
          </g>
        </g>
        <g id="Grupo_153012" data-name="Grupo 153012" transform="translate(137.215 148.98)" opacity="0.5">
          <g id="Grupo_153011" data-name="Grupo 153011">
            <g id="Grupo_153010" data-name="Grupo 153010" clip-path="url(#clip-path-13)">
              <path id="Trazado_195899" data-name="Trazado 195899" d="M170.888,260.965h0a.218.218,0,0,0,.216-.219c-.06-9.078-1.446-31.686-2.364-46.647-.3-4.885-.558-9.1-.7-11.647a159.494,159.494,0,0,1,.407-20.419.217.217,0,0,0-.433-.04,159.711,159.711,0,0,0-.408,20.484c.138,2.545.4,6.763.7,11.648.917,14.956,2.3,37.557,2.363,46.624a.218.218,0,0,0,.217.216" transform="translate(-167.439 -181.796)" fill="#e6e6cd"/>
            </g>
          </g>
        </g>
        <g id="Grupo_153015" data-name="Grupo 153015" transform="translate(111.785 137.897)" opacity="0.5">
          <g id="Grupo_153014" data-name="Grupo 153014">
            <g id="Grupo_153013" data-name="Grupo 153013" clip-path="url(#clip-path-14)">
              <path id="Trazado_195900" data-name="Trazado 195900" d="M142.869,294.86a.268.268,0,0,0,.044,0,.217.217,0,0,0,.169-.257c-.085-.414-8.481-41.624-5.663-58.476,2.821-16.871,21.415-67.053,21.6-67.559a.217.217,0,0,0-.407-.151c-.188.5-18.8,50.727-21.625,67.638-2.831,16.93,5.582,58.22,5.667,58.635a.217.217,0,0,0,.212.174" transform="translate(-136.408 -168.271)" fill="#e6e6cd"/>
            </g>
          </g>
        </g>
        <g id="Grupo_153018" data-name="Grupo 153018" transform="translate(114.202 138.2)" opacity="0.5">
          <g id="Grupo_153017" data-name="Grupo 153017">
            <g id="Grupo_153016" data-name="Grupo 153016" clip-path="url(#clip-path-15)">
              <path id="Trazado_195901" data-name="Trazado 195901" d="M144.929,295.366l.029,0a.217.217,0,0,0,.186-.244c-.062-.468-6.251-46.9-5.245-57.183s21.252-68.422,21.457-69.008a.217.217,0,0,0-.411-.143c-.2.587-20.468,58.777-21.479,69.109s5.184,56.814,5.247,57.282a.216.216,0,0,0,.215.189" transform="translate(-139.357 -168.641)" fill="#e6e6cd"/>
            </g>
          </g>
        </g>
        <g id="Grupo_153021" data-name="Grupo 153021" transform="translate(117.054 138.2)" opacity="0.5">
          <g id="Grupo_153020" data-name="Grupo 153020">
            <g id="Grupo_153019" data-name="Grupo 153019" clip-path="url(#clip-path-16)">
              <path id="Trazado_195902" data-name="Trazado 195902" d="M148.271,295.567l.028,0a.219.219,0,0,0,.188-.243c-.065-.513-6.417-51.347-5.011-58.926,1.41-7.6,19.76-66.876,19.946-67.474a.217.217,0,1,0-.415-.129c-.186.6-18.543,59.9-19.958,67.524-1.419,7.644,4.743,56.963,5.006,59.058a.218.218,0,0,0,.216.19" transform="translate(-142.837 -168.641)" fill="#e6e6cd"/>
            </g>
          </g>
        </g>
        <g id="Grupo_153024" data-name="Grupo 153024" transform="translate(119.933 166.123)" opacity="0.5">
          <g id="Grupo_153023" data-name="Grupo 153023">
            <g id="Grupo_153022" data-name="Grupo 153022" clip-path="url(#clip-path-17)">
              <path id="Trazado_195903" data-name="Trazado 195903" d="M151.623,301.517l.03,0a.218.218,0,0,0,.185-.245c-.065-.467-6.482-46.722-4.772-56.758.1-.324,10.507-35.055,13-41.5a.217.217,0,0,0-.4-.157c-2.5,6.463-12.916,41.21-13.021,41.561-1.728,10.127,4.7,56.449,4.764,56.915a.217.217,0,0,0,.215.188" transform="translate(-146.351 -202.715)" fill="#e6e6cd"/>
            </g>
          </g>
        </g>
        <g id="Grupo_153027" data-name="Grupo 153027" transform="translate(123.43 171.512)" opacity="0.5">
          <g id="Grupo_153026" data-name="Grupo 153026">
            <g id="Grupo_153025" data-name="Grupo 153025" clip-path="url(#clip-path-18)">
              <path id="Trazado_195904" data-name="Trazado 195904" d="M154.71,302.264l.023,0a.216.216,0,0,0,.193-.238c-.052-.5-5.186-49.967-3.55-56.133,1.644-6.2,11.107-36.017,11.2-36.317a.217.217,0,1,0-.415-.131c-.1.3-9.561,30.127-11.208,36.336-1.656,6.243,3.326,54.25,3.539,56.291a.216.216,0,0,0,.216.194" transform="translate(-150.618 -209.291)" fill="#e6e6cd"/>
            </g>
          </g>
        </g>
        <g id="Grupo_153030" data-name="Grupo 153030" transform="translate(126.476 177.331)" opacity="0.5">
          <g id="Grupo_153029" data-name="Grupo 153029">
            <g id="Grupo_153028" data-name="Grupo 153028" clip-path="url(#clip-path-19)">
              <path id="Trazado_195905" data-name="Trazado 195905" d="M158.453,303.088a.152.152,0,0,0,.027,0,.218.218,0,0,0,.189-.242c-.048-.393-4.786-39.391-3.753-51.423s9.759-34.509,9.847-34.734a.217.217,0,0,0-.4-.158c-.088.227-8.839,22.77-9.876,34.855s3.707,51.12,3.755,51.513a.218.218,0,0,0,.216.191" transform="translate(-154.335 -216.391)" fill="#e6e6cd"/>
            </g>
          </g>
        </g>
        <g id="Grupo_153033" data-name="Grupo 153033" transform="translate(128.286 185.187)" opacity="0.5">
          <g id="Grupo_153032" data-name="Grupo 153032">
            <g id="Grupo_153031" data-name="Grupo 153031" clip-path="url(#clip-path-20)">
              <path id="Trazado_195906" data-name="Trazado 195906" d="M159.919,304.818h.025a.218.218,0,0,0,.192-.24c-.051-.458-5.035-45.838-2.357-54.431,2.69-8.631,8.061-23.727,8.115-23.878a.217.217,0,1,0-.41-.146c-.053.152-5.427,15.256-8.12,23.9-2.705,8.678,2.132,52.736,2.34,54.607a.217.217,0,0,0,.216.193" transform="translate(-156.544 -225.978)" fill="#e6e6cd"/>
            </g>
          </g>
        </g>
        <path id="Trazado_195907" data-name="Trazado 195907" d="M166.907,232.442a.217.217,0,0,0,.217-.213c.016-.822.365-20.171-1.954-24a19.832,19.832,0,0,1-2.554-10.4.217.217,0,1,0-.434,0,20.259,20.259,0,0,0,2.617,10.629c2.254,3.72,1.9,23.564,1.891,23.764a.217.217,0,0,0,.213.221Z" transform="translate(-29.275 -35.67)" fill="#161b43"/>
        <path id="Trazado_195908" data-name="Trazado 195908" d="M170.661,120.211c.978-1.117.613-5.4.613-5.4.031-.093-.458,4.173,1.032-5.426.806-5.191-2.508-14.658-2.53-14.731h0l4.133-1.253,5.925-2.681c.061.2,1.684,15.169,2.919,20.75.879,3.975-.171.561-.171.561.377,4.442.639,10.265.334,12.286Z" transform="translate(-30.646 -16.376)" fill="#ffc0ae"/>
        <path id="Trazado_195909" data-name="Trazado 195909" d="M177.71,94.947a16.755,16.755,0,0,1-5.964,7.019c-.388-1.614-.776-3.108-1.112-4.344Z" transform="translate(-30.801 -17.139)" fill="#e88b8b"/>
        <path id="Trazado_195910" data-name="Trazado 195910" d="M182.563,81.048c-.586,6.519-11.713,12.574-17.863,11.121-5.127-1.212-6.332-6.723-5.747-13.242l.59-6.559.064-.722q.047-.532.143-1.051A11.848,11.848,0,0,1,172.473,60.9c.089.007.176.017.265.027a11.849,11.849,0,0,1,10.479,12.837Z" transform="translate(-28.668 -10.985)" fill="#ffc0ae"/>
        <path id="Trazado_195911" data-name="Trazado 195911" d="M175.458,87.347s1.879.685,3.8-1.559l.429,1.287a5.428,5.428,0,0,1-4.225.273" transform="translate(-31.672 -15.485)" fill="#e88b8b"/>
        <path id="Trazado_195912" data-name="Trazado 195912" d="M159.331,77.109s-1.271,5.487-2.778,7.221a.431.431,0,0,0,.039.607,2.973,2.973,0,0,0,3.111.693c1.943-.789-.371-8.521-.371-8.521" transform="translate(-28.24 -13.919)" fill="#ffc0ae"/>
        <path id="Trazado_195913" data-name="Trazado 195913" d="M161.372,77.117a4.194,4.194,0,0,1,.886.036,5.722,5.722,0,0,1,.9.2,5.99,5.99,0,0,1,.865.338,6.913,6.913,0,0,1,.815.462l0,0a.158.158,0,0,0,.182-.258,7.356,7.356,0,0,0-.817-.556,6.445,6.445,0,0,0-.894-.437,6.218,6.218,0,0,0-.96-.294,4.684,4.684,0,0,0-1.028-.122.316.316,0,1,0,0,.633h.026Z" transform="translate(-29.064 -13.807)" fill="#00001a"/>
        <path id="Trazado_195914" data-name="Trazado 195914" d="M163.186,80.667a11.208,11.208,0,0,0,1.21.3.211.211,0,0,0,.079-.414,10.585,10.585,0,0,1-2.581-.845.211.211,0,1,0-.194.374,9.8,9.8,0,0,0,1.486.582" transform="translate(-29.168 -14.384)" fill="#00001a"/>
        <path id="Trazado_195915" data-name="Trazado 195915" d="M164.376,81.616a.955.955,0,1,1-.843-1.056.956.956,0,0,1,.843,1.056" transform="translate(-29.328 -14.541)" fill="#00001a"/>
        <path id="Trazado_195916" data-name="Trazado 195916" d="M163.4,65.3s4.461,9.386,11.461,13.614c2.763,1.669.661,7.4,3.064,9.1,2.233,1.581,9.419-3.294,11.974-7.809,4.5-7.955.538-25.73-20.259-20.288-5.919,1.549-6.8,3.019-7.893,4.72-.891,1.381-1.306,3.616-.587,2.42A4.762,4.762,0,0,1,163.4,65.3" transform="translate(-29.025 -10.632)" fill="#161b43"/>
        <path id="Trazado_195917" data-name="Trazado 195917" d="M193.18,64.928s11.458-7.911,18.892,10.542a16.387,16.387,0,0,0,3.784,5.887s-7.554,2.393-15.066-7.763-11.161-5.54-11.161-5.54Z" transform="translate(-34.229 -11.416)" fill="#161b43"/>
        <path id="Trazado_195918" data-name="Trazado 195918" d="M196.446,68.9a.343.343,0,0,0,.439-.382,7.233,7.233,0,0,0-2.172-3.914.343.343,0,0,0-.452.516,6.638,6.638,0,0,1,1.948,3.507.343.343,0,0,0,.237.273" transform="translate(-35.045 -11.646)" fill="#ff5f5c"/>
        <path id="Trazado_195919" data-name="Trazado 195919" d="M168.375,115.23c.615-1.076,6.431-8.721,12.317-2.774,5.729,5.787,3,45.552,3,45.552a30.879,30.879,0,0,1-12.409.559c-5.933-1.145-12.719,1.717-11.933-1.582,2.272-9.541,4.026-23.4,4.026-23.4-1.543-1.2-2.29-3.483-2.636-4.592a1.084,1.084,0,0,1,.338-1.139c4.36-3.764,7.148-12.357,7.3-12.624" transform="translate(-28.752 -19.895)" fill="#e6e6cd"/>
        <path id="Trazado_195920" data-name="Trazado 195920" d="M159.584,90.556a12.214,12.214,0,0,0,3.894-.411,12.222,12.222,0,0,1-.793,1.071,5.662,5.662,0,0,1-1.936,1.553,5.728,5.728,0,0,1-1.165-2.213" transform="translate(-28.806 -16.272)" fill="#fff"/>
        <path id="Trazado_195921" data-name="Trazado 195921" d="M175.3,82.424c-1.092,1.36-1.189,3.093-.218,3.872s2.642.31,3.734-1.05,1.189-3.092.218-3.872-2.642-.31-3.734,1.05" transform="translate(-31.483 -14.621)" fill="#ffc0ae"/>
        <path id="Trazado_195922" data-name="Trazado 195922" d="M175.131,102.187a10.655,10.655,0,0,0-1.917,1.126,8.733,8.733,0,0,1-5.669,1.845c-3.435-.306.107,3.163.189,4.557s-2.094,3.639-.461,4.115-1.3,5.191-1.687,5.926-5.489,5.128-5.455,7.2,1.462,5.612,1.122,8.129c0,0-.68,12.176-1.632,14.489s-2.517,7.858,1.233,7.483,12.16-.018,13.422,0,5.92.99,9.917.019-.152-6.209-.561-10.971,1.551-12.04.561-22.924c-.835-9.174-3.4-11.9-3.13-13.536a5.185,5.185,0,0,0-.491-3.571c-.561-1.378.561-3.47-.357-4.235-.82-.683-1.769-1.153-5.083.345" transform="translate(-28.606 -18.267)" fill="#dcdfde"/>
        <path id="Trazado_195923" data-name="Trazado 195923" d="M183.413,125.523s-6.869,1.371-11.915-1.11c0,0-1.046-9.9,5.58-11.162s6.994,7,6.335,12.272" transform="translate(-30.946 -20.42)" fill="#dcdfde"/>
        <path id="Trazado_195924" data-name="Trazado 195924" d="M163.535,138.829s-3.618,12.781,4.9,13.651l.107,3.012a70.557,70.557,0,0,0-4.44,16.173c-.974,7.952-7.46,48.456-7.46,48.456a26.715,26.715,0,0,1-15.91-5.446s12.972-37.022,13.026-41.747,4.295-31.546,4.295-31.546Z" transform="translate(-25.403 -25.06)" fill="#424f84"/>
        <path id="Trazado_195925" data-name="Trazado 195925" d="M175.026,156.634s8.7-2.71,12.341-2.129l.083,2.774s-8.228.919-11.886,2.439Z" transform="translate(-31.594 -27.875)" fill="#424f84"/>
        <path id="Trazado_195926" data-name="Trazado 195926" d="M161.426,140.07s-2.477-3.445-1.919-7.007,8.42.353,8.42.353l-1.018,4.1-3.763,2.624Z" transform="translate(-28.778 -23.749)" fill="#424f84"/>
        <path id="Trazado_195927" data-name="Trazado 195927" d="M140.079,180.425l-2.1,4.006a.2.2,0,0,1-.263.083l-8.364-4.378a.2.2,0,0,1-.083-.263l2.1-4.007a.2.2,0,0,1,.263-.082l8.364,4.377a.2.2,0,0,1,.084.264" transform="translate(-23.33 -31.726)" fill="#161b43"/>
        <path id="Trazado_195928" data-name="Trazado 195928" d="M132.009,180.946a1.81,1.81,0,1,1,2.443-.765,1.81,1.81,0,0,1-2.443.765" transform="translate(-23.653 -32.046)" fill="#ffa861"/>
        <path id="Trazado_195929" data-name="Trazado 195929" d="M137.158,183.641a1.81,1.81,0,1,1,2.443-.765,1.81,1.81,0,0,1-2.443.765" transform="translate(-24.583 -32.532)" fill="#f97776"/>
        <path id="Trazado_195930" data-name="Trazado 195930" d="M136.856,181.925l-1.9,2.622a.653.653,0,0,0,1,.833l2.231-2.245a1,1,0,0,0-.031-1.33.871.871,0,0,0-1.231.03.947.947,0,0,0-.075.09" transform="translate(-24.339 -32.774)" fill="#ffc0ae"/>
        <path id="Trazado_195931" data-name="Trazado 195931" d="M136.7,185.516a.653.653,0,0,0,.882.96l2.291-1.81a.872.872,0,0,0,.143-1.223,1.1,1.1,0,0,0-1.394-.22c-.034.026-1.923,2.294-1.923,2.294" transform="translate(-24.644 -33.044)" fill="#ffc0ae"/>
        <path id="Trazado_195932" data-name="Trazado 195932" d="M140.31,184.629l-1.239,1.428a.656.656,0,0,0,.878.962l1.533-1.107a.875.875,0,1,0-1.024-1.418.935.935,0,0,0-.148.135" transform="translate(-25.074 -33.273)" fill="#ffc0ae"/>
        <path id="Trazado_195933" data-name="Trazado 195933" d="M142.46,185.6l-1.214.831a.572.572,0,0,0,.593.977l1.3-.694a.653.653,0,1,0-.616-1.151.57.57,0,0,0-.061.037" transform="translate(-25.451 -33.481)" fill="#ffc0ae"/>
        <path id="Trazado_195934" data-name="Trazado 195934" d="M142.238,185.476s2.853-1.659,3.716-3.971c.629-1.687.047-3.666-2.221-3.62a10.708,10.708,0,0,0-6.432,3.376s.819,1.227,1.214,1.154c.211-.039.2.088.188.183-.2,1.121,3.535,2.879,3.535,2.879" transform="translate(-24.784 -32.11)" fill="#ffc0ae"/>
        <path id="Trazado_195935" data-name="Trazado 195935" d="M143.146,176.907s-3.748,1.463-6.115.267a.659.659,0,0,0-.978.351c-.2.566.829,1.783,1.975,1.955.4.06.8-.006,1.031.285.2.25.063.515.219.623.243.17.656-.658,1.632-.936a37.1,37.1,0,0,0,3.6-1.442Z" transform="translate(-24.554 -31.933)" fill="#ffc0ae"/>
        <path id="Trazado_195936" data-name="Trazado 195936" d="M170.345,156.4c-3.206,2.333-19.6,10.438-25.812,15.17,0,0-.662,7.578,4.751,10.488,0,0,15.828-7.588,23.637-12.419a21.084,21.084,0,0,0,3.732-3.107Z" transform="translate(-26.085 -28.231)" fill="#dcdfde"/>
        <path id="Trazado_195937" data-name="Trazado 195937" d="M184.2,127.691c.141-4.081-.091-16.029-9.259-14.6,0,0-7.244,1.54-4.647,17.355s1.81,17.749.838,20.5c-.038.106-.1.238-.161.383l10.451,5.764c2.7-9.751,2.659-25.952,2.779-29.411" transform="translate(-30.637 -20.393)" fill="#dcdfde"/>
        <path id="Trazado_195938" data-name="Trazado 195938" d="M171.207,140.6h.021a.217.217,0,0,0,.194-.238,7.01,7.01,0,0,0-2.1-3.826.217.217,0,0,0-.3.32,6.689,6.689,0,0,1,1.959,3.551.216.216,0,0,0,.216.2" transform="translate(-30.499 -24.635)" fill="#161b43"/>
        <path id="Trazado_195939" data-name="Trazado 195939" d="M183.055,162.588a.217.217,0,0,1-.016-.43c.089-.06.829-.715,1.591-6.461.883-6.649,1.774-25.5,1.783-25.694a.21.21,0,0,1,.226-.207.217.217,0,0,1,.207.227c-.009.19-.9,19.065-1.786,25.73-.783,5.908-1.565,6.835-1.978,6.835h-.028m.044-.433h0Z" transform="translate(-33.008 -23.429)" fill="#161b43"/>
        <path id="Trazado_195940" data-name="Trazado 195940" d="M172.806,120.424s3.78-6.383,10.278-5.228l-.252-1.427s-1.851-1.955-6.8.923a17.7,17.7,0,0,0-5.736,5.627Z" transform="translate(-30.74 -20.419)" fill="#424f84"/>
        <path id="Trazado_195941" data-name="Trazado 195941" d="M167.973,131.672a50.119,50.119,0,0,1,2.917-9.662l-2.508-.1a68.926,68.926,0,0,0-3.263,6.467,17.186,17.186,0,0,0-4.485.316,4.733,4.733,0,0,0-.954,2.175Z" transform="translate(-28.824 -22.005)" fill="#424f84"/>
        <path id="Trazado_195942" data-name="Trazado 195942" d="M190.085,154.515s1.374-.363,1.507,1.255a1.368,1.368,0,0,1-1.507,1.529Z" transform="translate(-34.312 -27.885)" fill="#424f84"/>
        <path id="Trazado_195943" data-name="Trazado 195943" d="M190.085,156.621s2.04,6.567,5.6,10.8c0,0,1.954.036,2.69-.719,0,0-6.744-7.1-7.376-10.077Z" transform="translate(-34.312 -28.271)" fill="#424f84"/>
        <path id="Trazado_195944" data-name="Trazado 195944" d="M171.26,154.784a.191.191,0,0,1-.176-.264c.02-.045,1.856-4.76-.625-21.163a.191.191,0,0,1,.377-.057c2.5,16.555.679,21.177.6,21.366a.19.19,0,0,1-.175.117" transform="translate(-30.769 -24.033)" fill="#161b43"/>
        <path id="Trazado_195945" data-name="Trazado 195945" d="M107.186,191.535a2.09,2.09,0,0,0-.861,1.27c-.563,1.864-1.753,4.8-3.909,6.128a.958.958,0,0,0-.31,1.479c.553.673,2.843.332,3.93-.96.375-.446.6-1,1.138-1.06.459-.052.623-1.113,1.022-2.535a53.855,53.855,0,0,0,.955-5.564Z" transform="translate(-18.39 -34.349)" fill="#ffa590"/>
        <path id="Trazado_195946" data-name="Trazado 195946" d="M106.769,193.789c-.51,2.022-.879,4.431.331,4.692.4.086.4.447.52,1.536.1.9,1.5.756,2.535,1.239,1.064.5,5.507-2.252,5.507-2.252a13.961,13.961,0,0,0-1.457-7.779c-1.97-3.575-5.977-3.22-7.436,2.563" transform="translate(-19.186 -34.1)" fill="#ffc0ae"/>
        <path id="Trazado_195947" data-name="Trazado 195947" d="M107.923,201.918l.066,3.957.066,1.978.07,1.978a.8.8,0,0,0,1.591.012l.2-3.94.234-3.938a1.115,1.115,0,1,0-2.226-.132c0,.027,0,.057,0,.084" transform="translate(-19.481 -36.243)" fill="#ffc0ae"/>
        <path id="Trazado_195948" data-name="Trazado 195948" d="M110.549,202.684l.088,4.314c.018.719.052,1.438.079,2.157l.084,2.156a.868.868,0,0,0,1.735.007l.2-4.3.239-4.295a1.216,1.216,0,0,0-2.427-.135c0,.03,0,.063,0,.093" transform="translate(-19.955 -36.362)" fill="#ffc0ae"/>
        <path id="Trazado_195949" data-name="Trazado 195949" d="M113.2,202.023l.074,4.258c.016.71.048,1.419.071,2.129l.076,2.129a.857.857,0,0,0,1.713.011l.215-4.24.248-4.238a1.2,1.2,0,1,0-2.4-.14c0,.03,0,.061,0,.091" transform="translate(-20.434 -36.247)" fill="#ffc0ae"/>
        <path id="Trazado_195950" data-name="Trazado 195950" d="M115,199.944l.716,3.892.389,1.941.394,1.94a.8.8,0,0,0,1.572-.25l-.449-3.92-.417-3.922a1.115,1.115,0,1,0-2.218.236c0,.027.007.057.012.084" transform="translate(-20.755 -35.854)" fill="#ffc0ae"/>
        <path id="Trazado_195951" data-name="Trazado 195951" d="M97.156,76.3a5.339,5.339,0,0,0-1.069,2.4,1.684,1.684,0,0,0,.209,1.087,3.357,3.357,0,0,0,.194.3c.076.107.144.222.215.334a7.771,7.771,0,0,1,.384.7,4.769,4.769,0,0,1,.453,3.23,4.006,4.006,0,0,1-.294.793l-.2.36-.193.315a9.448,9.448,0,0,0-.662,1.271,2.7,2.7,0,0,0,.081,2.548,9.22,9.22,0,0,1,1.415,2.734,2.583,2.583,0,0,1,.048.847,1.884,1.884,0,0,1-.3.817,2.526,2.526,0,0,1-.579.607,2.935,2.935,0,0,0-.493.472,1.364,1.364,0,0,0-.33,1.183,1.817,1.817,0,0,0,.787,1.034l0,0a.213.213,0,0,1-.238.354A2.261,2.261,0,0,1,95.57,96.41a1.864,1.864,0,0,1,.379-1.617,3.407,3.407,0,0,1,.569-.58,2,2,0,0,0,.436-.484,1.528,1.528,0,0,0,.136-1.219,4.991,4.991,0,0,0-.584-1.271c-.125-.206-.261-.408-.4-.609s-.284-.388-.437-.629a3.164,3.164,0,0,1-.511-1.586,4.061,4.061,0,0,1,.287-1.617,10.314,10.314,0,0,1,.677-1.406l.187-.331.154-.3a3.124,3.124,0,0,0,.2-.618,3.817,3.817,0,0,0-.492-2.563,6.551,6.551,0,0,0-.36-.6c-.066-.1-.129-.194-.2-.288s-.131-.167-.225-.319a2.8,2.8,0,0,1-.447-1.776,5.153,5.153,0,0,1,.411-1.638,7.709,7.709,0,0,1,.788-1.44.64.64,0,1,1,1.053.727l-.011.016Z" transform="translate(-17.135 -13.583)" fill="#f3a278"/>
        <path id="Trazado_195952" data-name="Trazado 195952" d="M76.277,205.877a7.616,7.616,0,0,1,9.948,4.131l13.3,32.2,2.01,4.865,1.138,2.758a13.989,13.989,0,0,1,1,6.605s-4.733,32.381-5.191,52.315a5.375,5.375,0,0,0,2.145,4.423l8.981,6.75a2.333,2.333,0,0,1-1.4,4.2H91.392a2.334,2.334,0,0,1-2.334-2.334s.217-8.762.1-11.02c-.312-6-3.4-29.653-4.1-39.5-.2-2.831.166-13.318.166-13.318a17.526,17.526,0,0,0-.829-4.37l-1.757-5.4-1.709-5.25L71.922,215.21a7.647,7.647,0,0,1,4.355-9.332" transform="translate(-12.92 -37.058)" fill="#ffc0ae"/>
        <path id="Trazado_195953" data-name="Trazado 195953" d="M111.429,342.715s-6.206,4.856-18.606-2.6v7.043a1.279,1.279,0,0,0,1.279,1.279h21.057a1.279,1.279,0,0,0,.774-2.3Z" transform="translate(-16.755 -61.393)" fill="#dcdfde"/>
        <path id="Trazado_195954" data-name="Trazado 195954" d="M116.921,153.014c.112,1.582-2.047,31.248-3.2,37.232-.407,2.116-1.247,3.221-3.363,2.813a3.9,3.9,0,0,1-3.122-4.406l.509-1.139c.868-5.746.737-30.814.58-33.643-.038-.669-.79-3.153,3.811-2.427,4.442.7,4.754,1.153,4.785,1.57" transform="translate(-19.349 -27.313)" fill="#ffc0ae"/>
        <path id="Trazado_195955" data-name="Trazado 195955" d="M112.662,152.209c1.328-.342,1.722.135,2.306-1,.477-.923,1.537-2.022.506-5.633l-4.261-18.813-.2-.925-.17-.783-.439-2.005-.029-.129-.02-.106-8.7,5.767-.084.4.316,1.637-.007,0,.029.116.2.784.02.076,5.535,18.287c.63,2.466,2.532,2.944,5,2.316" transform="translate(-18.334 -22.169)" fill="#ffc0ae"/>
        <path id="Trazado_195956" data-name="Trazado 195956" d="M68.647,170.851a10.818,10.818,0,0,1,10.138,11.456s-1.266,31.048-2.357,49.891c-.028.493-.057.979-.084,1.455-.184,3.1-.362,5.817-.527,7.928-.359,4.6-2.205,17.245-2.432,21.129s-.207,12.778-.207,12.778-.95,30.321-.829,31.044c.011.063.022.127.036.19l2.15,9.578a.894.894,0,0,1-.873,1.09H60.593a.9.9,0,0,1-.819-1.253l3.626-8.282a3.97,3.97,0,0,0,.243-2.449c-.42-1.915-4.044-26.352-4.242-31.918-.171-4.841,1.7-18.033,1.185-22.743-.534-4.864-2.591-10.93-2.954-15.809-.03-.4-.059-.828-.086-1.274-.138-2.247-.242-5.014-.32-8.087-.429-17.042,5.458-55.085,11.421-54.723" transform="translate(-10.326 -30.84)" fill="#ffc0ae"/>
        <path id="Trazado_195957" data-name="Trazado 195957" d="M69.892,115.725c.766,10.678-.211,22.187-4.068,32.418-1,2.653.1,6.246-.871,8.873-5.354,14.46,2.477,33.529,20.213,23.2,8.84-5.147,8.969-18.023,10.134-27.383,1.523-12.243,3.3-27.091-.608-38.859-1.445-4.353,1.278-10.111-3.773-9.707-3.157.252-4.576-1.465-5.414-3.62-1.565-4.029-8.371-3.946-9.2,1.52-.514,3.371-5.457,1.833-6.976,4.428-.946,1.615-1.921,4.978.567,9.129" transform="translate(-11.425 -17.658)" fill="#ffc0ae"/>
        <path id="Trazado_195958" data-name="Trazado 195958" d="M61.614,75.005c2.028,5.877,5.279,7.357,8.842,9.235a14.827,14.827,0,0,0,16.85-1.38c3.74-2.926,3.99-8.546,3.866-10.543a19.271,19.271,0,0,0-1.383-5.582c-3.762-7.447-8.712-10.453-13.445-10.654-9.313-.4-17.787,10.065-14.73,18.924" transform="translate(-11.007 -10.121)" fill="#f3a278"/>
        <path id="Trazado_195959" data-name="Trazado 195959" d="M87.5,112.783a4.656,4.656,0,1,1-8.873-2.826c1.58-4.958-.645-14.91-1.548-18.006a4.129,4.129,0,0,1-.1-.438,4.656,4.656,0,0,1,9.045-2.172,68.944,68.944,0,0,1,1.659,7.381c.828,4.9,1.352,11.253-.179,16.061" transform="translate(-13.88 -15.521)" fill="#ffc0ae"/>
        <path id="Trazado_195960" data-name="Trazado 195960" d="M87.683,96.722a15.32,15.32,0,0,1-10.7-5.209,4.656,4.656,0,0,1,9.045-2.172,68.8,68.8,0,0,1,1.659,7.381" transform="translate(-13.88 -15.521)" fill="#e88b8b"/>
        <path id="Trazado_195961" data-name="Trazado 195961" d="M87.88,89.8c-5.509,2.986-15.607-1.62-16.889-7.753L68.72,76.914A11.345,11.345,0,1,1,90.93,72.274l1.056,5.06c.883,5.448-1.4,11-4.106,12.466" transform="translate(-12.361 -11.417)" fill="#ffc0ae"/>
        <path id="Trazado_195962" data-name="Trazado 195962" d="M82.765,78.565a.884.884,0,1,1-.936-.829.884.884,0,0,1,.936.829" transform="translate(-14.621 -14.032)" fill="#230a1a"/>
        <path id="Trazado_195963" data-name="Trazado 195963" d="M92.73,76.3a.884.884,0,1,1-.936-.829.884.884,0,0,1,.936.829" transform="translate(-16.42 -13.623)" fill="#230a1a"/>
        <path id="Trazado_195964" data-name="Trazado 195964" d="M81.762,62.952s-7.1,12.266-11.86,14.34-2.313-10.5-2.313-10.5L80.641,60.41Z" transform="translate(-12.087 -10.905)" fill="#f3a278"/>
        <path id="Trazado_195965" data-name="Trazado 195965" d="M84.98,63.343a15.4,15.4,0,0,1,8.99,9.1c1.1,3.257,1.473,1.491.942-.49A49.587,49.587,0,0,0,92.8,66.23l-6.939-3.687Z" transform="translate(-15.34 -11.29)" fill="#f3a278"/>
        <path id="Trazado_195966" data-name="Trazado 195966" d="M83.173,73.759a4.647,4.647,0,0,0-1.168-.093,5.652,5.652,0,0,0-2.207.541,6.221,6.221,0,0,0-.974.579.193.193,0,0,0,.212.321l.009-.007a5.86,5.86,0,0,1,.929-.5,5.144,5.144,0,0,1,2.038-.407c.173,0,.346.013.517.03a3.81,3.81,0,0,1,.489.089l.016,0a.289.289,0,1,0,.153-.557l-.016,0" transform="translate(-14.214 -13.297)" fill="#230a1a"/>
        <path id="Trazado_195967" data-name="Trazado 195967" d="M89.51,72.419a4.261,4.261,0,0,1,.764-.373,4.417,4.417,0,0,1,.836-.224,3.517,3.517,0,0,1,.86-.041,3.478,3.478,0,0,1,.845.167l.015,0a.186.186,0,0,0,.116-.353,3.86,3.86,0,0,0-.934-.236,3.95,3.95,0,0,0-.964,0,4.911,4.911,0,0,0-.94.2,4.706,4.706,0,0,0-.9.386.28.28,0,1,0,.275.487l.011-.007Z" transform="translate(-16.077 -12.876)" fill="#230a1a"/>
        <path id="Trazado_195968" data-name="Trazado 195968" d="M79.826,79.214a.094.094,0,0,0,.079-.052,3.426,3.426,0,0,1,3.154-1.718.093.093,0,0,0,0-.186,3.6,3.6,0,0,0-3.326,1.823.094.094,0,0,0,.043.125.091.091,0,0,0,.046.009" transform="translate(-14.392 -13.945)" fill="#230a1a"/>
        <path id="Trazado_195969" data-name="Trazado 195969" d="M89.78,76.933a.094.094,0,0,0,.079-.052,3.425,3.425,0,0,1,3.154-1.718.093.093,0,1,0,0-.186A3.6,3.6,0,0,0,89.691,76.8a.093.093,0,0,0,.043.125.091.091,0,0,0,.046.009" transform="translate(-16.188 -13.534)" fill="#230a1a"/>
        <path id="Trazado_195970" data-name="Trazado 195970" d="M88.636,84.076h.008A4.071,4.071,0,0,0,91.3,82.483a.793.793,0,0,0-.132-1.086,6.362,6.362,0,0,1-2.613-5.754.093.093,0,1,0-.183-.035,6.554,6.554,0,0,0,2.679,5.933.6.6,0,0,1,.1.829,3.886,3.886,0,0,1-2.539,1.521.093.093,0,0,0,.02.185" transform="translate(-15.944 -13.634)" fill="#230a1a"/>
        <path id="Trazado_195971" data-name="Trazado 195971" d="M117.779,128.214l-.029.012v0Z" transform="translate(-21.255 -23.144)" fill="#e6796d"/>
        <path id="Trazado_195972" data-name="Trazado 195972" d="M61.114,155.66c2.725-9.488,4.481-22.815,3.3-30.5-.238.326-.252,1.128-.52,1.168-5.512.824-10.294-3.569-10.294-3.569a23.46,23.46,0,0,1,4.172-11.192c1.945-2.9,6.373-4.6,12.514-5.467.917.622,6.025,18.028,10.807,19.136,2.414.56,5.885-14.586,5.983-19.633A12.965,12.965,0,0,1,97.52,109.34l0,0,.037.045c.125.131.252.261.372.4a13.074,13.074,0,0,1,1.046,1.4c2.379,3.066,5.1,11,7.36,18.52,0,0-3.164,1.759-9.954,2.594a17.933,17.933,0,0,1-.649,4.323c-.724,2.561-2.3,7.817-1.4,17.089,1.045,10.879,12.381,120.162,22.045,140.131,0,0-10.719,5.627-31.695,4.87s-36.478.066-36.478.066,5.8-94.21,7.377-108.952c2.362-22.119,3.349-26.547,5.535-34.159" transform="translate(-8.701 -19.045)" fill="#fbe3d4"/>
        <path id="Trazado_195973" data-name="Trazado 195973" d="M62.7,341.492s4.583,4.544,11.119,0l1.235,5.393A1.485,1.485,0,0,1,73.6,348.7H61.65a1.485,1.485,0,0,1-1.345-2.117Z" transform="translate(-10.86 -61.642)" fill="#dcdfde"/>
        <path id="Trazado_195974" data-name="Trazado 195974" d="M49.479,152.616l.037-.269s.461-10.676,2.067-21.554l11.062,1.917c-1.6,8.526-2.2,11.332-2.768,15.138a52.97,52.97,0,0,0-.7,5.333l-9.627.908a4.054,4.054,0,0,1-.07-1.473" transform="translate(-8.925 -23.609)" fill="#ffc0ae"/>
        <path id="Trazado_195975" data-name="Trazado 195975" d="M58.9,157.242,78.19,177.687a2.878,2.878,0,0,1-3.874,4.249s-19.948-14.7-24.87-23.309c-.225-.393,8.628-2.215,9.451-1.386" transform="translate(-8.925 -28.345)" fill="#ffc0ae"/>
        <path id="Trazado_195976" data-name="Trazado 195976" d="M57.1,113.854s-6.422,10.044-9.421,17.733c0,0,7.947,6.154,15.666,4.739l2.231-9.309Z" transform="translate(-8.607 -20.552)" fill="#fbe3d4"/>
        <path id="Trazado_195977" data-name="Trazado 195977" d="M71.038,82.571c1.054,1.46,1.063,3.253.02,4.006s-2.742.179-3.8-1.28-1.062-3.253-.02-4.006,2.742-.179,3.8,1.28" transform="translate(-11.998 -14.614)" fill="#ffc0ae"/>
        <path id="Trazado_195978" data-name="Trazado 195978" d="M106.552,136.4a.121.121,0,0,1-.12-.117c0-.043-.157-4.324-1.792-6.488a.1.1,0,0,1-.02-.043c-.017-.066-.406-1.635.683-2.123a.121.121,0,1,1,.1.22c-.841.377-.594,1.637-.553,1.821,1.667,2.23,1.819,6.427,1.825,6.605a.121.121,0,0,1-.116.125Z" transform="translate(-18.87 -23.037)" fill="#fff"/>
        <path id="Trazado_195979" data-name="Trazado 195979" d="M99.4,321.063a.12.12,0,0,1-.1-.061,58.692,58.692,0,0,1-6.394-17.08.121.121,0,1,1,.238-.039,58.392,58.392,0,0,0,6.365,17,.12.12,0,0,1-.046.164.118.118,0,0,1-.059.016" transform="translate(-16.769 -54.835)" fill="#fff"/>
        <path id="Trazado_195980" data-name="Trazado 195980" d="M95.844,325.581a.12.12,0,0,1-.1-.048c-3.452-4.617-4.88-13.016-4.88-13.471a.121.121,0,0,1,.242,0c0,.45,1.414,8.755,4.832,13.326a.121.121,0,0,1-.025.17.119.119,0,0,1-.072.024" transform="translate(-16.402 -56.308)" fill="#fff"/>
        <path id="Trazado_195981" data-name="Trazado 195981" d="M57.38,157.715a.122.122,0,0,1-.1-.037,4.494,4.494,0,0,1-1.087-2.954.118.118,0,0,1,.125-.116.12.12,0,0,1,.116.125,4.332,4.332,0,0,0,1.022,2.781.121.121,0,0,1-.006.171.122.122,0,0,1-.066.031" transform="translate(-10.142 -27.908)" fill="#fff"/>
        <path id="Trazado_195982" data-name="Trazado 195982" d="M111.829,154.721a.109.109,0,0,1-.046,0,.12.12,0,0,1-.088-.146,4.7,4.7,0,0,0-.448-3.126.121.121,0,0,1,.21-.121,4.861,4.861,0,0,1,.472,3.3.12.12,0,0,1-.1.091" transform="translate(-20.078 -27.305)" fill="#fff"/>
        <path id="Trazado_195983" data-name="Trazado 195983" d="M68.4,343.581a7.592,7.592,0,0,1-5.263-2.034.121.121,0,1,1,.177-.164c.042.044,4.2,4.388,10.966-.019a.121.121,0,1,1,.132.2,10.993,10.993,0,0,1-6.012,2.014" transform="translate(-11.392 -61.616)" fill="#fff"/>
        <path id="Trazado_195984" data-name="Trazado 195984" d="M101.883,275.613a.123.123,0,0,1-.062-.017,4.469,4.469,0,0,1-2.088-3.8.114.114,0,0,1,.126-.114.121.121,0,0,1,.115.126,4.221,4.221,0,0,0,1.972,3.585.12.12,0,0,1-.062.224" transform="translate(-18.002 -49.04)" fill="#fff"/>
        <path id="Trazado_195985" data-name="Trazado 195985" d="M66.43,277.969a.12.12,0,0,1-.1-.057,5.136,5.136,0,0,1-.7-3.893.121.121,0,0,1,.232.066,4.984,4.984,0,0,0,.677,3.7.12.12,0,0,1-.1.184" transform="translate(-11.824 -49.447)" fill="#fff"/>
        <path id="Trazado_195986" data-name="Trazado 195986" d="M69.926,280.091a.123.123,0,0,1-.09-.04.121.121,0,0,1,.01-.17c1.44-1.284,1.141-4.374,1.137-4.4a.12.12,0,0,1,.107-.132.118.118,0,0,1,.133.108c.013.131.314,3.244-1.217,4.609a.12.12,0,0,1-.08.03" transform="translate(-12.6 -49.702)" fill="#fff"/>
        <path id="Trazado_195987" data-name="Trazado 195987" d="M93.022,120.231a.114.114,0,0,1-.036-.006.12.12,0,0,1-.079-.151c1.248-4.017,2.11-14.379,2.119-14.483a.12.12,0,1,1,.24.02c-.008.1-.874,10.493-2.13,14.535a.119.119,0,0,1-.115.085" transform="translate(-16.769 -19.04)" fill="#fff"/>
        <path id="Trazado_195988" data-name="Trazado 195988" d="M64.458,213.564a.12.12,0,0,1-.116-.086c-1.72-5.878-1.5-13.619-1.5-13.7a.118.118,0,0,1,.125-.116.121.121,0,0,1,.117.124c0,.078-.218,7.782,1.491,13.622a.12.12,0,0,1-.083.149.115.115,0,0,1-.034,0" transform="translate(-11.341 -36.041)" fill="#fff"/>
        <path id="Trazado_195989" data-name="Trazado 195989" d="M73.513,77.984a5.253,5.253,0,0,0-1.051,2.359,1.651,1.651,0,0,0,.206,1.069,3.131,3.131,0,0,0,.191.3c.075.106.142.219.211.329a7.6,7.6,0,0,1,.378.692,4.7,4.7,0,0,1,.447,3.18,3.965,3.965,0,0,1-.29.78l-.2.354-.19.309a9.245,9.245,0,0,0-.651,1.251,2.647,2.647,0,0,0,.08,2.507,9.113,9.113,0,0,1,1.392,2.69,2.549,2.549,0,0,1,.048.834,1.852,1.852,0,0,1-.3.8,2.5,2.5,0,0,1-.57.6,2.869,2.869,0,0,0-.485.464,1.342,1.342,0,0,0-.325,1.164,1.787,1.787,0,0,0,.773,1.018l0,0a.21.21,0,0,1-.234.349,2.23,2.23,0,0,1-1-1.256,1.828,1.828,0,0,1,.372-1.591,3.418,3.418,0,0,1,.559-.571,1.932,1.932,0,0,0,.429-.476,1.5,1.5,0,0,0,.134-1.2,4.879,4.879,0,0,0-.576-1.251c-.123-.2-.256-.4-.394-.6s-.279-.383-.429-.62a3.123,3.123,0,0,1-.5-1.56,3.989,3.989,0,0,1,.283-1.591,10.084,10.084,0,0,1,.665-1.384l.184-.326.152-.293a3.079,3.079,0,0,0,.2-.608,3.752,3.752,0,0,0-.484-2.522,6.638,6.638,0,0,0-.353-.588c-.066-.094-.127-.191-.2-.283s-.129-.165-.221-.314a2.759,2.759,0,0,1-.439-1.748,5.066,5.066,0,0,1,.4-1.611,7.585,7.585,0,0,1,.776-1.417.63.63,0,0,1,1.037.715l-.011.016Z" transform="translate(-12.874 -13.891)" fill="#f3a278"/>
        <path id="Trazado_195990" data-name="Trazado 195990" d="M63.316,81.99a52.014,52.014,0,0,0-1.9,5.266c-.424,1.389-3.389,5.448-1.992,8.559s2.763,5.367,1.4,8.527-.615,9.4,2.694,10.133c1.485.327,1.791,3.589,6.34,2.52,3.182-.747,1.795-2.015,4.106-5.387,2.236-3.262-3.167-2.388-3.235-8.451A6.384,6.384,0,0,0,68.7,98.267c-1.613-1.368-.109-4.039-.9-5.788-1.765-3.9,2.7-3.943,2.7-3.943l-2.8-1.142-2.162-1.709Z" transform="translate(-10.659 -14.8)" fill="#f3a278"/>
        <path id="Trazado_195991" data-name="Trazado 195991" d="M84.983,88.857c1.187,1.146,4.9,4.1,6.852-1.556a.225.225,0,0,0-.3-.279,15.47,15.47,0,0,1-6.393,1.453.222.222,0,0,0-.154.383" transform="translate(-15.328 -15.704)" fill="#fff"/>
        <path id="Trazado_195992" data-name="Trazado 195992" d="M87.337,184.793s3.09,1.6,4.993,1.374c.61-.071,1.027-.107,1.28.211.3.375.365.924-.77,1.534-2.327,1.251-4.221-1.5-4.221-1.5Z" transform="translate(-15.765 -33.357)" fill="#ffc0ae"/>
        <path id="Trazado_195993" data-name="Trazado 195993" d="M79.16,183.247s1.709-1.181,4.964-.407c2.429.575,5.808,3.307,6.017,6.064.077,1.018-4.075,2.36-4.075,2.36a8.481,8.481,0,0,1-5.36-2.9c-2.3-2.7-1.614-4.919-1.546-5.115" transform="translate(-14.262 -32.957)" fill="#ffc0ae"/>
        <path id="Trazado_195994" data-name="Trazado 195994" d="M84.893,190.691l.4.953.406.947c.272.631.553,1.259.829,1.888l-.057-.18c.108.435.212.871.325,1.3s.227.867.353,1.3a.9.9,0,0,0,1.762-.39c-.068-.443-.147-.884-.228-1.326s-.171-.878-.256-1.318a.78.78,0,0,0-.044-.148l-.014-.032c-.268-.633-.53-1.268-.8-1.9l-.409-.947-.42-.942a1,1,0,0,0-1.841.792" transform="translate(-15.31 -34.171)" fill="#ffc0ae"/>
        <path id="Trazado_195995" data-name="Trazado 195995" d="M87.3,189.416l1.622,4.891-.045-.338-.1,3.344a.9.9,0,0,0,1.8.083l.211-3.339a.877.877,0,0,0-.037-.312l-.008-.026L89.209,188.8a1,1,0,1,0-1.913.6l0,.016" transform="translate(-15.749 -33.953)" fill="#ffc0ae"/>
        <path id="Trazado_195996" data-name="Trazado 195996" d="M88.905,190.161l1.4,4.346-.044-.389-.2,3.591a.9.9,0,0,0,1.8.149l.4-3.575a.885.885,0,0,0-.035-.361l-.01-.029-1.4-4.347a1,1,0,0,0-1.908.615" transform="translate(-16.039 -34.089)" fill="#ffc0ae"/>
        <path id="Trazado_195997" data-name="Trazado 195997" d="M89.868,188.622l1.328,1.287-.072-.08c.037.043.116.153.18.249s.136.2.2.309c.134.21.266.427.384.635.059.1.115.208.155.291l.023.048a.383.383,0,0,1,.016.039l.066.188.265.751.265.75,0,.012s0,.011,0,0a.424.424,0,0,1-.014-.046c-.01-.05,0-.017,0-.009l.014.079.029.186.056.387.213,1.568v.007a.9.9,0,0,0,1.791-.221l-.177-1.59-.048-.4-.027-.209-.017-.117c0-.025,0-.025-.02-.107-.007-.032-.016-.063-.025-.094l-.011-.037-.243-.757-.243-.758-.061-.189c-.006-.02-.033-.094-.053-.148s-.038-.089-.057-.134c-.072-.157-.14-.288-.21-.416-.138-.255-.278-.494-.424-.734-.073-.12-.147-.238-.227-.36s-.152-.235-.279-.4a.639.639,0,0,0-.049-.056l-.023-.024-1.3-1.319a1,1,0,1,0-1.43,1.4l.017.017" transform="translate(-16.167 -33.737)" fill="#ffc0ae"/>
        <path id="Trazado_195998" data-name="Trazado 195998" d="M107.184,88.2s3.472,2.319,1.26,2.673c-2.128.34,1.55,5.627,2.187,5.947a12.508,12.508,0,0,0,2.789.9c.8.135.661-.492,1.163-.615,5.287-1.307-1.369-8.181-1.369-8.181l-3.593.243Z" transform="translate(-19.348 -15.921)" fill="#ffc0ae"/>
        <path id="Trazado_195999" data-name="Trazado 195999" d="M113.4,95.34a.759.759,0,0,1-.392-.109l-12.923-7.768a.762.762,0,0,1,.785-1.306l12.923,7.768a.762.762,0,0,1-.393,1.415" transform="translate(-17.999 -15.532)" fill="#161b43"/>
        <path id="Trazado_196000" data-name="Trazado 196000" d="M99.89,85.714,98.021,82.16a.285.285,0,0,0-.411-.106,5.2,5.2,0,0,0-2.362,3.936.285.285,0,0,0,.278.3l3.946.124Z" transform="translate(-17.193 -14.803)" fill="#f97776"/>
        <path id="Trazado_196001" data-name="Trazado 196001" d="M100.259,85.641a4.712,4.712,0,0,0-.844,1.387l2.4,1.436a10.309,10.309,0,0,1,.787-1.309Z" transform="translate(-17.945 -15.459)" fill="#424f84"/>
        <path id="Trazado_196002" data-name="Trazado 196002" d="M107.9,95.808c-1.11-1-1.851-2.553-4.275-3.628a.682.682,0,0,1-.421-.96c.351-.672,1.97-.485,2.8.091a6.521,6.521,0,0,1,1.978,2.132,34.279,34.279,0,0,0,3.577,4.152s-.9.713-3.662-1.787" transform="translate(-18.617 -16.389)" fill="#ffc0ae"/>
        <path id="Trazado_196003" data-name="Trazado 196003" d="M106.538,88.57l-2.163-.3c-.465-.056-.969-.429-.914-.892.052-.441.606-.57,1.042-.573.475,0,2.906.032,2.906.032.514.019-.091.325-.11.838s.371.948-.143.928c-.025,0-.594-.029-.619-.031" transform="translate(-18.675 -15.668)" fill="#ffc0ae"/>
        <path id="Trazado_196004" data-name="Trazado 196004" d="M108.087,86.841a16.786,16.786,0,0,1,5.119,1.115c1.73.9,3.1,5.237,3.1,5.237l-6.946-3.421a3.35,3.35,0,0,0-2.145-1.2Z" transform="translate(-19.353 -15.676)" fill="#ffc0ae"/>
        <path id="Trazado_196005" data-name="Trazado 196005" d="M107.6,89.086a7.421,7.421,0,0,1,3.079.937,2.043,2.043,0,0,1,.673,2.221l-4.656-2.8s-.061-.367.9-.36" transform="translate(-19.26 -16.081)" fill="#e88b8b"/>
        <path id="Trazado_196006" data-name="Trazado 196006" d="M139.153,120.544c-2.614-2.981-12.172-18.575-17.447-24.331,0,0-7.607.028-10.014,5.682,0,0,8.992,15.075,14.511,22.414a21.03,21.03,0,0,0,3.432,3.435Z" transform="translate(-20.161 -17.367)" fill="#dcdfde"/>
        <path id="Trazado_196007" data-name="Trazado 196007" d="M160.8,128.024a.191.191,0,0,1-.121-.338,30.162,30.162,0,0,0,4.978-5.291c1.35-2.022,2.323-4.32,2.293-5.024a.19.19,0,1,1,.38-.017c.038.861-1.064,3.316-2.357,5.253a30.594,30.594,0,0,1-5.052,5.373.191.191,0,0,1-.12.043" transform="translate(-28.992 -21.151)" fill="#161b43"/>
        <path id="Trazado_196008" data-name="Trazado 196008" d="M135.731,257.518a.19.19,0,0,1-.111-.344c1.759-1.275,1.787-4.048,1.787-4.075a.19.19,0,0,1,.19-.19h0a.191.191,0,0,1,.19.191c0,.121-.03,3-1.945,4.383a.188.188,0,0,1-.111.036" transform="translate(-24.466 -45.652)" fill="#161b43"/>
        <path id="Trazado_196009" data-name="Trazado 196009" d="M173.308,267.955a.2.2,0,0,1-.116-.039.191.191,0,0,1-.036-.267c1.313-1.731.531-4.392.524-4.419a.19.19,0,0,1,.127-.237.192.192,0,0,1,.238.128c.034.116.843,2.875-.585,4.758a.19.19,0,0,1-.152.075" transform="translate(-31.249 -47.471)" fill="#161b43"/>
        <path id="Trazado_196010" data-name="Trazado 196010" d="M183.018,341.944c-1.006,0-2.127-.037-3.35-.129a.192.192,0,0,1-.176-.2.2.2,0,0,1,.2-.175,33.478,33.478,0,0,0,9.027-.345.191.191,0,0,1,.084.372,29,29,0,0,1-5.79.483" transform="translate(-32.4 -61.569)" fill="#161b43"/>
        <path id="Trazado_196011" data-name="Trazado 196011" d="M157.432,351.3a.191.191,0,0,1,0-.381l20.949-.438h0a.191.191,0,0,1,0,.381l-20.949.438Z" transform="translate(-28.383 -63.265)" fill="#161b43"/>
        <path id="Trazado_196012" data-name="Trazado 196012" d="M163.6,353.389a.191.191,0,0,1,0-.381l23.284-.11h0a.191.191,0,0,1,0,.381l-23.283.11Z" transform="translate(-29.498 -63.701)" fill="#161b43"/>
        <path id="Trazado_196013" data-name="Trazado 196013" d="M150.776,334.88c-.783,0-1.55-.025-2.254-.085a.19.19,0,0,1-.173-.206.2.2,0,0,1,.206-.173,56.249,56.249,0,0,0,9.38-.389.19.19,0,1,1,.048.378,66.922,66.922,0,0,1-7.206.475" transform="translate(-26.778 -60.294)" fill="#161b43"/>
        <path id="Trazado_196014" data-name="Trazado 196014" d="M126.7,344.259a.191.191,0,0,1-.191-.18.189.189,0,0,1,.179-.2c.193-.011,18.422-.389,19.2-.406h0a.191.191,0,0,1,0,.381c-.189,0-18.932.393-19.184.4H126.7" transform="translate(-22.836 -62)" fill="#161b43"/>
        <path id="Trazado_196015" data-name="Trazado 196015" d="M136.278,346.3a.191.191,0,0,1,0-.381l18.867-.076a.191.191,0,0,1,0,.381l-18.866.076Z" transform="translate(-24.565 -62.428)" fill="#161b43"/>
        <path id="Trazado_196016" data-name="Trazado 196016" d="M142.248,123.862a6.587,6.587,0,0,1-3.073-.925.189.189,0,0,1-.062-.262.193.193,0,0,1,.262-.061,5.632,5.632,0,0,0,3.655.777.191.191,0,1,1,.093.37,3.625,3.625,0,0,1-.874.1" transform="translate(-25.106 -22.128)" fill="#161b43"/>
        <path id="Trazado_196017" data-name="Trazado 196017" d="M230.333,281.436l15.616,0,.008-33.364a.271.271,0,0,0-.271-.271l-15.073,0a.272.272,0,0,0-.272.272Z" transform="translate(-41.577 -44.73)" fill="#424f84"/>
        <path id="Trazado_196018" data-name="Trazado 196018" d="M231.8,241.612l13.233,0,0-14.557a1.868,1.868,0,0,0-.551-1.323L232.3,213.6a.289.289,0,0,0-.493.2Z" transform="translate(-41.841 -38.541)" fill="#f97776"/>
        <path id="Trazado_196019" data-name="Trazado 196019" d="M228.091,291.849l19.291,0v-3.148a.191.191,0,0,0-.191-.191l-18.909,0a.191.191,0,0,0-.191.191Z" transform="translate(-41.172 -52.078)" fill="#ffa861"/>
        <path id="Trazado_196020" data-name="Trazado 196020" d="M228.961,334.134l17.523,0a.883.883,0,0,0,.883-.883l.011-40.666-19.291,0-.011,40.666a.884.884,0,0,0,.884.883" transform="translate(-41.17 -52.814)" fill="#33244b"/>
        <path id="Trazado_196021" data-name="Trazado 196021" d="M232.613,271.746a.181.181,0,0,1-.181-.181V251.717a.181.181,0,1,1,.362,0v19.848a.181.181,0,0,1-.181.181" transform="translate(-41.956 -45.404)" fill="#fff"/>
        <path id="Trazado_196022" data-name="Trazado 196022" d="M230.432,323.07a.181.181,0,0,1-.181-.181V294.418a.181.181,0,1,1,.362,0v28.471a.181.181,0,0,1-.181.181" transform="translate(-41.562 -53.112)" fill="#fff"/>
        <path id="Trazado_196023" data-name="Trazado 196023" d="M298.226,337.588l-.016-17.524a.883.883,0,0,0-.884-.883l-40.666.037.017,19.29,40.666-.036a.884.884,0,0,0,.883-.884" transform="translate(-46.329 -57.615)" fill="#33244b"/>
        <path id="Trazado_196024" data-name="Trazado 196024" d="M268.489,322.455a.181.181,0,1,1,0-.361l28.471-.034h0a.181.181,0,0,1,0,.362Z" transform="translate(-48.432 -58.135)" fill="#fff"/>
        <path id="Trazado_196025" data-name="Trazado 196025" d="M307.406,283.76l42.673-12.027a1.5,1.5,0,0,1,1.845,1.033l12.027,42.673a1.494,1.494,0,0,1-1.033,1.844l-42.673,12.028a1.5,1.5,0,0,1-1.845-1.033L306.373,285.6a1.5,1.5,0,0,1,1.033-1.844" transform="translate(-55.293 -49.04)" fill="#424f84"/>
        <g id="Grupo_153036" data-name="Grupo 153036" transform="translate(256.199 227.812)" opacity="0.7">
          <g id="Grupo_153035" data-name="Grupo 153035">
            <g id="Grupo_153034" data-name="Grupo 153034" clip-path="url(#clip-path-21)">
              <path id="Trazado_196026" data-name="Trazado 196026" d="M322.441,324.243l-9.751-34.6a1.492,1.492,0,0,1,1.033-1.845l34.6-9.752a1.5,1.5,0,0,1,1.845,1.034l9.751,34.6a1.5,1.5,0,0,1-1.034,1.845l-34.6,9.752a1.48,1.48,0,0,1-1.094-.116,1.458,1.458,0,0,1-.751-.919" transform="translate(-312.632 -277.991)" fill="#fff"/>
            </g>
          </g>
        </g>
        <g id="Grupo_153039" data-name="Grupo 153039" transform="translate(284.449 227.812)" opacity="0.3">
          <g id="Grupo_153038" data-name="Grupo 153038">
            <g id="Grupo_153037" data-name="Grupo 153037" clip-path="url(#clip-path-22)">
              <path id="Trazado_196027" data-name="Trazado 196027" d="M347.1,320.6c2.586-9.561,2.624-23.5,2.447-29.892a34.438,34.438,0,0,1,1.317-11.624l3.676-1.037a1.5,1.5,0,0,1,1.845,1.034l4.321,15.329a136.783,136.783,0,0,0-4.8,16.164c-.669,3.533-1.014,6-1.257,7.9Z" transform="translate(-347.104 -277.991)" fill="#fff"/>
            </g>
          </g>
        </g>
        <g id="Grupo_153042" data-name="Grupo 153042" transform="translate(260.977 230.096)" opacity="0.3">
          <g id="Grupo_153041" data-name="Grupo 153041">
            <g id="Grupo_153040" data-name="Grupo 153040" clip-path="url(#clip-path-23)">
              <path id="Trazado_196028" data-name="Trazado 196028" d="M324.078,314.417c-.073-1.735-1.733-1.5-3.681-.656l-1.935-6.864c3.69-1.824,8.07-4.453,10.7-9.384a52.715,52.715,0,0,0,5.49-14.813l6.82-1.922a74.444,74.444,0,0,1-3.5,19.122c-2.43,7.97-9.3,19.62-13.726,25.765a1.459,1.459,0,0,1-.751-.919l-1.415-5.019c.957-2.046,2.034-4.4,2-5.309" transform="translate(-318.462 -280.779)" fill="#fff"/>
            </g>
          </g>
        </g>
      </g>
    </g>
  </g>
</svg>
