<svg xmlns="http://www.w3.org/2000/svg" width="85" height="74.057" viewBox="0 0 85 74.057">
  <g id="Grupo_152587" data-name="Grupo 152587" transform="translate(-180 -8048.472)">
    <rect id="Rectángulo_45220" data-name="Rectángulo 45220" width="52.754" height="51.474" transform="translate(231.474 8048.472) rotate(90)" fill="#e4e4e4"/>
    <g id="Grupo_152586" data-name="Grupo 152586" transform="translate(0 13.951)">
      <rect id="Rectángulo_45221" data-name="Rectángulo 45221" width="3.279" height="3.279" transform="translate(261.721 8059.8) rotate(-90)" fill="#1894f6"/>
      <rect id="Rectángulo_45222" data-name="Rectángulo 45222" width="3.279" height="3.279" transform="translate(261.721 8066.769) rotate(-90)" fill="#1894f6"/>
      <rect id="Rectángulo_45223" data-name="Rectángulo 45223" width="3.279" height="3.279" transform="translate(261.721 8073.736) rotate(-90)" fill="#1894f6"/>
      <rect id="Rectángulo_45224" data-name="Rectángulo 45224" width="3.279" height="3.279" transform="translate(261.721 8080.705) rotate(-90)" fill="#1894f6"/>
      <rect id="Rectángulo_45225" data-name="Rectángulo 45225" width="3.279" height="3.279" transform="translate(261.721 8087.673) rotate(-90)" fill="#1894f6"/>
      <rect id="Rectángulo_45226" data-name="Rectángulo 45226" width="3.279" height="3.279" transform="translate(261.721 8094.641) rotate(-90)" fill="#1894f6"/>
      <rect id="Rectángulo_45227" data-name="Rectángulo 45227" width="3.279" height="3.279" transform="translate(261.721 8101.609) rotate(-90)" fill="#1894f6"/>
      <rect id="Rectángulo_45228" data-name="Rectángulo 45228" width="3.279" height="3.279" transform="translate(261.721 8108.577) rotate(-90)" fill="#1894f6"/>
      <rect id="Rectángulo_45232" data-name="Rectángulo 45232" width="3.279" height="3.279" transform="translate(254.753 8059.8) rotate(-90)" fill="#1894f6"/>
      <rect id="Rectángulo_45233" data-name="Rectángulo 45233" width="3.279" height="3.279" transform="translate(254.753 8066.769) rotate(-90)" fill="#1894f6"/>
      <rect id="Rectángulo_45234" data-name="Rectángulo 45234" width="3.279" height="3.279" transform="translate(254.753 8073.736) rotate(-90)" fill="#1894f6"/>
      <rect id="Rectángulo_45235" data-name="Rectángulo 45235" width="3.279" height="3.279" transform="translate(254.753 8080.705) rotate(-90)" fill="#1894f6"/>
      <rect id="Rectángulo_45236" data-name="Rectángulo 45236" width="3.279" height="3.279" transform="translate(254.753 8087.673) rotate(-90)" fill="#1894f6"/>
      <rect id="Rectángulo_45237" data-name="Rectángulo 45237" width="3.279" height="3.279" transform="translate(254.753 8094.641) rotate(-90)" fill="#1894f6"/>
      <rect id="Rectángulo_45238" data-name="Rectángulo 45238" width="3.279" height="3.279" transform="translate(254.753 8101.609) rotate(-90)" fill="#1894f6"/>
      <rect id="Rectángulo_45239" data-name="Rectángulo 45239" width="3.279" height="3.279" transform="translate(254.753 8108.577) rotate(-90)" fill="#1894f6"/>
      <rect id="Rectángulo_45243" data-name="Rectángulo 45243" width="3.279" height="3.279" transform="translate(247.785 8059.8) rotate(-90)" fill="#1894f6"/>
      <rect id="Rectángulo_45244" data-name="Rectángulo 45244" width="3.279" height="3.279" transform="translate(247.785 8066.769) rotate(-90)" fill="#1894f6"/>
      <rect id="Rectángulo_45245" data-name="Rectángulo 45245" width="3.279" height="3.279" transform="translate(247.785 8073.736) rotate(-90)" fill="#1894f6"/>
      <rect id="Rectángulo_45246" data-name="Rectángulo 45246" width="3.279" height="3.279" transform="translate(247.785 8080.705) rotate(-90)" fill="#1894f6"/>
      <rect id="Rectángulo_45247" data-name="Rectángulo 45247" width="3.279" height="3.279" transform="translate(247.785 8087.673) rotate(-90)" fill="#1894f6"/>
      <rect id="Rectángulo_45248" data-name="Rectángulo 45248" width="3.279" height="3.279" transform="translate(247.785 8094.641) rotate(-90)" fill="#1894f6"/>
      <rect id="Rectángulo_45249" data-name="Rectángulo 45249" width="3.279" height="3.279" transform="translate(247.785 8101.609) rotate(-90)" fill="#1894f6"/>
      <rect id="Rectángulo_45250" data-name="Rectángulo 45250" width="3.279" height="3.279" transform="translate(247.785 8108.577) rotate(-90)" fill="#1894f6"/>
      <rect id="Rectángulo_45221-2" data-name="Rectángulo 45221" width="3.279" height="3.279" transform="translate(241.399 8059.8) rotate(-90)" fill="#1894f6"/>
      <rect id="Rectángulo_45222-2" data-name="Rectángulo 45222" width="3.279" height="3.279" transform="translate(241.399 8066.769) rotate(-90)" fill="#1894f6"/>
      <rect id="Rectángulo_45223-2" data-name="Rectángulo 45223" width="3.279" height="3.279" transform="translate(241.399 8073.737) rotate(-90)" fill="#1894f6"/>
      <rect id="Rectángulo_45224-2" data-name="Rectángulo 45224" width="3.279" height="3.279" transform="translate(241.399 8080.705) rotate(-90)" fill="#1894f6"/>
      <rect id="Rectángulo_45225-2" data-name="Rectángulo 45225" width="3.279" height="3.279" transform="translate(241.399 8087.673) rotate(-90)" fill="#1894f6"/>
      <rect id="Rectángulo_45226-2" data-name="Rectángulo 45226" width="3.279" height="3.279" transform="translate(241.399 8094.641) rotate(-90)" fill="#1894f6"/>
      <rect id="Rectángulo_45227-2" data-name="Rectángulo 45227" width="3.279" height="3.279" transform="translate(241.399 8101.609) rotate(-90)" fill="#1894f6"/>
      <rect id="Rectángulo_45228-2" data-name="Rectángulo 45228" width="3.279" height="3.279" transform="translate(241.399 8108.577) rotate(-90)" fill="#1894f6"/>
      <rect id="Rectángulo_45232-2" data-name="Rectángulo 45232" width="3.279" height="3.279" transform="translate(234.431 8059.8) rotate(-90)" fill="#1894f6"/>
      <rect id="Rectángulo_45279" data-name="Rectángulo 45279" width="3.279" height="3.279" transform="translate(220.495 8059.8) rotate(-90)" fill="#1894f6"/>
      <rect id="Rectángulo_45233-2" data-name="Rectángulo 45233" width="3.279" height="3.279" transform="translate(234.431 8066.769) rotate(-90)" fill="#1894f6"/>
      <rect id="Rectángulo_45280" data-name="Rectángulo 45280" width="3.279" height="3.279" transform="translate(220.495 8066.769) rotate(-90)" fill="#1894f6"/>
      <rect id="Rectángulo_45234-2" data-name="Rectángulo 45234" width="3.279" height="3.279" transform="translate(234.431 8073.737) rotate(-90)" fill="#1894f6"/>
      <rect id="Rectángulo_45281" data-name="Rectángulo 45281" width="3.279" height="3.279" transform="translate(220.495 8073.737) rotate(-90)" fill="#1894f6"/>
      <rect id="Rectángulo_45235-2" data-name="Rectángulo 45235" width="3.279" height="3.279" transform="translate(234.431 8080.705) rotate(-90)" fill="#1894f6"/>
      <rect id="Rectángulo_45282" data-name="Rectángulo 45282" width="3.279" height="3.279" transform="translate(220.495 8080.705) rotate(-90)" fill="#1894f6"/>
      <rect id="Rectángulo_45236-2" data-name="Rectángulo 45236" width="3.279" height="3.279" transform="translate(234.431 8087.673) rotate(-90)" fill="#1894f6"/>
      <rect id="Rectángulo_45283" data-name="Rectángulo 45283" width="3.279" height="3.279" transform="translate(220.495 8087.673) rotate(-90)" fill="#1894f6"/>
      <rect id="Rectángulo_45237-2" data-name="Rectángulo 45237" width="3.279" height="3.279" transform="translate(234.431 8094.641) rotate(-90)" fill="#1894f6"/>
      <rect id="Rectángulo_45284" data-name="Rectángulo 45284" width="3.279" height="3.279" transform="translate(220.495 8094.641) rotate(-90)" fill="#1894f6"/>
      <rect id="Rectángulo_45238-2" data-name="Rectángulo 45238" width="3.279" height="3.279" transform="translate(234.431 8101.609) rotate(-90)" fill="#1894f6"/>
      <rect id="Rectángulo_45285" data-name="Rectángulo 45285" width="3.279" height="3.279" transform="translate(220.495 8101.609) rotate(-90)" fill="#1894f6"/>
      <rect id="Rectángulo_45239-2" data-name="Rectángulo 45239" width="3.279" height="3.279" transform="translate(234.431 8108.577) rotate(-90)" fill="#1894f6"/>
      <rect id="Rectángulo_45286" data-name="Rectángulo 45286" width="3.279" height="3.279" transform="translate(220.495 8108.577) rotate(-90)" fill="#1894f6"/>
      <rect id="Rectángulo_45243-2" data-name="Rectángulo 45243" width="3.279" height="3.279" transform="translate(227.463 8059.8) rotate(-90)" fill="#1894f6"/>
      <rect id="Rectángulo_45268" data-name="Rectángulo 45268" width="3.279" height="3.279" transform="translate(213.526 8059.8) rotate(-90)" fill="#1894f6"/>
      <rect id="Rectángulo_45244-2" data-name="Rectángulo 45244" width="3.279" height="3.279" transform="translate(227.463 8066.769) rotate(-90)" fill="#1894f6"/>
      <rect id="Rectángulo_45269" data-name="Rectángulo 45269" width="3.279" height="3.279" transform="translate(213.526 8066.769) rotate(-90)" fill="#1894f6"/>
      <rect id="Rectángulo_45245-2" data-name="Rectángulo 45245" width="3.279" height="3.279" transform="translate(227.463 8073.737) rotate(-90)" fill="#1894f6"/>
      <rect id="Rectángulo_45270" data-name="Rectángulo 45270" width="3.279" height="3.279" transform="translate(213.526 8073.737) rotate(-90)" fill="#1894f6"/>
      <rect id="Rectángulo_45246-2" data-name="Rectángulo 45246" width="3.279" height="3.279" transform="translate(227.463 8080.705) rotate(-90)" fill="#1894f6"/>
      <rect id="Rectángulo_45271" data-name="Rectángulo 45271" width="3.279" height="3.279" transform="translate(213.526 8080.705) rotate(-90)" fill="#1894f6"/>
      <rect id="Rectángulo_45247-2" data-name="Rectángulo 45247" width="3.279" height="3.279" transform="translate(227.463 8087.673) rotate(-90)" fill="#1894f6"/>
      <rect id="Rectángulo_45272" data-name="Rectángulo 45272" width="3.279" height="3.279" transform="translate(213.526 8087.673) rotate(-90)" fill="#1894f6"/>
      <rect id="Rectángulo_45248-2" data-name="Rectángulo 45248" width="3.279" height="3.279" transform="translate(227.463 8094.641) rotate(-90)" fill="#1894f6"/>
      <rect id="Rectángulo_45273" data-name="Rectángulo 45273" width="3.279" height="3.279" transform="translate(213.526 8094.641) rotate(-90)" fill="#1894f6"/>
      <rect id="Rectángulo_45249-2" data-name="Rectángulo 45249" width="3.279" height="3.279" transform="translate(227.463 8101.609) rotate(-90)" fill="#1894f6"/>
      <rect id="Rectángulo_45274" data-name="Rectángulo 45274" width="3.279" height="3.279" transform="translate(213.526 8101.609) rotate(-90)" fill="#1894f6"/>
      <rect id="Rectángulo_45250-2" data-name="Rectángulo 45250" width="3.279" height="3.279" transform="translate(227.463 8108.577) rotate(-90)" fill="#1894f6"/>
      <rect id="Rectángulo_45275" data-name="Rectángulo 45275" width="3.279" height="3.279" transform="translate(213.526 8108.577) rotate(-90)" fill="#1894f6"/>
    </g>
  </g>
</svg>
