<svg xmlns="http://www.w3.org/2000/svg" xmlns:xlink="http://www.w3.org/1999/xlink" width="41" height="42" viewBox="0 0 41 42">
  <defs>
    <clipPath id="clip-path">
      <rect id="Rectángulo_45463" data-name="Rectángulo 45463" width="41" height="42" transform="translate(0.5 0)" fill="#7f4fc7"/>
    </clipPath>
  </defs>
  <g id="Grupo_152754" data-name="Grupo 152754" transform="translate(-0.514 -0.014)">
    <g id="Grupo_152754-2" data-name="Grupo 152754" transform="translate(0.014 0.014)" clip-path="url(#clip-path)">
      <path id="Trazado_194405" data-name="Trazado 194405" d="M10.031,0c.116.142.295.108.443.144a3.724,3.724,0,0,1,2.909,2.778,6.214,6.214,0,0,1-1.514,6.186,4.432,4.432,0,0,1-1.744,1.056,20.107,20.107,0,0,1,4.955.854,5.142,5.142,0,0,1,2.575,1.706,3.164,3.164,0,0,1,.71,1.972c0,3.587.017,7.174,0,10.761a3.989,3.989,0,0,1-3.2,3.9c-.349.079-.436.216-.435.558.013,3.668.009,7.337.008,11.005a1.516,1.516,0,0,1-.048.442.522.522,0,0,1-.6.375.5.5,0,0,1-.472-.482,3.4,3.4,0,0,1-.009-.366q0-11.515,0-23.029c0-.6.17-.87.548-.879s.581.288.581.9q0,5.034,0,10.067c0,.294.049.375.361.281a2.973,2.973,0,0,0,2.159-3c.009-3.369-.008-6.739.015-10.108a2.81,2.81,0,0,0-1.785-2.709,11.169,11.169,0,0,0-3.246-.89,19.039,19.039,0,0,0-8.266.477,5.053,5.053,0,0,0-1.946.987,2.343,2.343,0,0,0-.884,1.847c0,3.533,0,7.065.008,10.6a2.926,2.926,0,0,0,2.145,2.8c.336.1.38.009.379-.3q-.014-5.034-.006-10.068c0-.593.173-.87.547-.881s.585.288.585.9V40.822c0,.068,0,.136,0,.2-.014.462-.239.732-.6.718-.342-.014-.534-.267-.534-.724,0-3.682-.009-7.364.008-11.046,0-.4-.1-.54-.5-.63A4.037,4.037,0,0,1,0,25.372C0,21.867.007,18.361,0,14.856a3.417,3.417,0,0,1,1.228-2.717,7.1,7.1,0,0,1,2.958-1.382A21.613,21.613,0,0,1,8.2,10.172a10.044,10.044,0,0,1-.995-.518A5.606,5.606,0,0,1,4.814,5.571a5.863,5.863,0,0,1,.223-2.814A3.832,3.832,0,0,1,7.916.148c.136-.033.3-.008.4-.148Zm2.448,4.679c0-.176.006-.353,0-.529a2.967,2.967,0,0,0-2.169-2.87,3.92,3.92,0,0,0-1.49-.133,2.791,2.791,0,0,0-2.7,1.979A5.049,5.049,0,0,0,7.173,8.168a2.549,2.549,0,0,0,3.994.036,4.935,4.935,0,0,0,1.313-3.526" transform="translate(-0.01 -0.01)" fill="#7f4fc7"/>
      <path id="Trazado_194406" data-name="Trazado 194406" d="M91.018,83.823c.29-.256.582-.511.871-.769.445-.4.716-.373,1.087.108v.408c-.4.367-.784.743-1.192,1.1a.66.66,0,0,0-.252.558c.013,1.235.011,2.471.01,3.706,0,.616-.163.783-.765.784q-3.95,0-7.9,0c-.611,0-.768-.16-.769-.775q0-3.644,0-7.289c0-.563.179-.759.708-.759q4.011-.005,8.022,0c.346,0,.63.1.687.483a.548.548,0,0,1-.5.662c-2.486,0-4.972,0-7.457-.012-.3,0-.362.1-.358.376.013.9,0,1.793,0,2.69,0,1.073,0,2.146,0,3.219,0,.215.025.3.292.278.526-.045,1.058-.025,1.587-.025,1.644,0,3.287,0,4.931,0,.148,0,.365.066.367-.194.008-.766,0-1.532,0-2.4-.533.474-.983.877-1.437,1.278-.4.351-.636.344-1.017-.03q-.683-.671-1.358-1.351c-.334-.335-.389-.722-.14-.958.275-.261.584-.215.959.152.3.294.6.595.89.9.116.119.207.191.368.042.784-.729,1.578-1.447,2.368-2.169" transform="translate(-51.238 -50.477)" fill="#7f4fc7"/>
      <path id="Trazado_194407" data-name="Trazado 194407" d="M92.975,46.387a7.3,7.3,0,0,1-1.165,1.129.757.757,0,0,0-.28.631c.014,1.235.01,2.471,0,3.706,0,.566-.17.733-.724.734q-3.991.005-7.981,0c-.554,0-.721-.169-.721-.734q0-3.645,0-7.289c0-.642.153-.791.791-.792q3.95,0,7.9-.007c.338,0,.641.05.718.44s-.141.609-.5.708c-.163,0-.326,0-.489,0l-6.925,0c-.208,0-.4-.027-.4.3.011,1.982.008,3.965,0,5.947,0,.206.065.288.28.288q3.32-.006,6.64,0c.228,0,.311-.076.308-.306-.009-.651,0-1.3,0-1.955,0-.09.038-.207-.069-.256s-.171.052-.239.113c-.411.375-.815.757-1.231,1.127a.567.567,0,0,1-.9-.014q-.762-.736-1.5-1.493a.622.622,0,0,1-.089-.875.581.581,0,0,1,.894.059c.331.321.657.649.975.983.137.144.232.176.4.023.8-.747,1.618-1.481,2.429-2.219.24-.217.478-.435.721-.649.516-.455.666-.455,1.152-.009Z" transform="translate(-51.237 -27.318)" fill="#7f4fc7"/>
      <path id="Trazado_194408" data-name="Trazado 194408" d="M91.005,9.585c.282-.25.564-.5.845-.752.462-.414.7-.405,1.115.049V9.29a9.407,9.407,0,0,1-1.145,1.092.767.767,0,0,0-.287.628c.011,1.236,0,2.472-.009,3.709,0,.576-.182.757-.753.757q-3.953,0-7.908,0c-.6,0-.772-.176-.772-.78q0-3.648,0-7.3c0-.585.164-.743.758-.743q3.974,0,7.949,0c.474,0,.713.174.719.529a.5.5,0,0,1-.5.57c-2.473,0-4.946,0-7.419,0-.28,0-.412.038-.409.37q.025,2.935.006,5.87c0,.3.118.355.382.353,1.019-.01,2.038,0,3.057,0,1.141,0,2.283-.012,3.424,0,.286,0,.383-.081.367-.367-.021-.366,0-.733,0-1.1s0-.741,0-1.22c-.555.507-1.011.93-1.475,1.345-.377.337-.648.35-1,.012-.507-.492-1-1-1.484-1.512a.571.571,0,0,1-.066-.831.6.6,0,0,1,.895.083c.329.324.661.646.977.983.148.158.244.144.4,0,.772-.724,1.554-1.437,2.333-2.154" transform="translate(-51.228 -4.163)" fill="#7f4fc7"/>
      <path id="Trazado_194409" data-name="Trazado 194409" d="M57.643,23.98q0-3.159,0-6.317c0-.608.171-.783.764-.785q1.712-.005,3.424,0c.473,0,.745.2.755.551s-.275.583-.774.585c-.9,0-1.794.009-2.69,0-.256,0-.35.054-.35.333q.014,6.093,0,12.186c0,.26.083.316.325.313.883-.014,1.766-.006,2.649-.009.552,0,.832.185.827.557-.006.408-.26.588-.843.588-.856,0-1.712.009-2.568-.01-.288-.007-.394.047-.393.37q.019,6.052,0,12.1c0,.29.084.364.365.359.924-.017,1.848-.013,2.771,0,.489.006.762.319.65.713a.538.538,0,0,1-.572.421c-1.25,0-2.5,0-3.75-.008-.4,0-.59-.224-.592-.665-.005-1.087,0-2.173,0-3.26,0-3.206-.006-6.412.009-9.618,0-.352-.1-.423-.432-.414-.883.024-1.766.011-2.649.011-.462,0-.745-.221-.74-.572s.282-.569.746-.571c.9,0,1.794-.011,2.69.011.3.007.387-.07.384-.379-.014-2.16-.008-4.32-.008-6.48" transform="translate(-33.596 -10.538)" fill="#7f4fc7"/>
      <path id="Trazado_194410" data-name="Trazado 194410" d="M24.4,86.393q0,2.383,0,4.767c0,.122,0,.245-.006.367a.554.554,0,0,1-1.1.065,2.936,2.936,0,0,1-.031-.567q0-4.767,0-9.534c0-.054,0-.109,0-.163.015-.443.225-.693.578-.689s.549.235.551.7c0,1.684,0,3.368,0,5.052" transform="translate(-14.523 -50.322)" fill="#7f4fc7"/>
    </g>
  </g>
</svg>
