<svg id="Grupo_152756" data-name="Grupo 152756" xmlns="http://www.w3.org/2000/svg" xmlns:xlink="http://www.w3.org/1999/xlink" width="36.768" height="33.645" viewBox="0 0 36.768 33.645">
  <defs>
    <clipPath id="clip-path">
      <rect id="Rectángulo_45464" data-name="Rectángulo 45464" width="36.768" height="33.645" fill="#7f4fc7"/>
    </clipPath>
  </defs>
  <g id="Grupo_152756-2" data-name="Grupo 152756" clip-path="url(#clip-path)">
    <path id="Trazado_194411" data-name="Trazado 194411" d="M0,22.777C.313,22.1.6,21.4.946,20.742c.5-.94,1.041-1.855,1.569-2.778.207-.362.505-.477.794-.319s.353.472.147.838c-.669,1.186-1.345,2.37-2.015,3.555a2.045,2.045,0,0,0,.838,3.041q4.364,2.477,8.73,4.952a2.029,2.029,0,0,0,2.967-.817q5.355-9.429,10.7-18.861a2.168,2.168,0,0,0,.132-1.995c-.8-1.968-1.6-3.94-2.4-5.908A2.029,2.029,0,0,0,20.04,1.112q-3.206.493-6.411,1a2.05,2.05,0,0,0-1.507,1.1Q9.864,7.206,7.594,11.194,6.2,13.657,4.8,16.12a1.365,1.365,0,0,1-.2.3.488.488,0,0,1-.653.086.487.487,0,0,1-.228-.617,2.537,2.537,0,0,1,.193-.383c2.363-4.168,4.747-8.325,7.079-12.51A3.741,3.741,0,0,1,13.983.95c1.967-.256,3.924-.584,5.882-.9a3.114,3.114,0,0,1,3.513,1.914c.829,2.009,1.639,4.026,2.45,6.042A3.17,3.17,0,0,1,25.61,10.9q-1.636,2.864-3.258,5.735c-.064.113-.123.228-.209.388.144.009.254.022.365.023,1.017,0,2.034-.011,3.05.011a.84.84,0,0,1,.557.232.538.538,0,0,1,.048.517.8.8,0,0,1-.546.3c-1.243.026-2.488.022-3.732.007a.538.538,0,0,0-.561.318c-.46.851-.956,1.683-1.42,2.533a1.257,1.257,0,0,0-.149.571c-.011,1.735-.007,3.469-.007,5.2,0,.108,0,.216,0,.323a.533.533,0,0,1-1.064.03c-.022-.273-.009-.55-.009-.825,0-.992,0-1.985-.063-3.007a7.143,7.143,0,0,1-.4.671,3.427,3.427,0,0,0-.675,2.556,4.232,4.232,0,0,1,0,.538.535.535,0,0,1-1.026.243c-.019-.04-.042-.078-.091-.169l-.775,1.364c.262,0,.469-.009.675,0a.533.533,0,0,1,.565.561.514.514,0,0,1-.572.509c-.387.005-.811.1-1.045-.4-.146.252-.27.467-.395.681a3.093,3.093,0,0,1-4.332,1.194C9,30.142,7.466,29.26,5.928,28.387c-.111-.063-.226-.118-.346-.181,0,.923-.071,1.82.019,2.7a1.881,1.881,0,0,0,1.852,1.641c.86.03,1.722.011,2.583.016a1.761,1.761,0,0,1,.391.03.523.523,0,0,1-.054,1.028c-.273.027-.549.016-.824.016-.682,0-1.364.016-2.045-.009A3.093,3.093,0,0,1,4.462,30.5q-.019-1.327,0-2.655A.436.436,0,0,0,4.2,27.4c-.8-.438-1.575-.9-2.374-1.336a3.219,3.219,0,0,1-1.773-2.3A.7.7,0,0,0,0,23.638v-.861" transform="translate(0 0)" fill="#7f4fc7"/>
    <path id="Trazado_194412" data-name="Trazado 194412" d="M76.883,110.87H68.7c-.12,0-.24,0-.359-.007a.512.512,0,0,1-.518-.527.52.52,0,0,1,.514-.536,3.673,3.673,0,0,1,.394-.007c5.323,0,10.647-.012,15.97.01a2.552,2.552,0,0,0,2.217-1.06c1.235-1.614,2.516-3.194,3.777-4.788A2.03,2.03,0,0,0,90.7,101.2c-1.3-1.653-2.617-3.3-3.916-4.954a2.194,2.194,0,0,0-1.892-.9c-.43.012-.862.011-1.292-.005a.5.5,0,0,1-.513-.531.485.485,0,0,1,.485-.524,16.637,16.637,0,0,1,2.216.085,2.521,2.521,0,0,1,1.629.973c1.442,1.8,2.891,3.6,4.3,5.43a3.022,3.022,0,0,1-.132,3.789q-1.995,2.539-4.009,5.063a3.726,3.726,0,0,1-.39.42,2.79,2.79,0,0,1-1.906.8c-2.8.013-5.6.005-8.4.005v.013" transform="translate(-55.555 -77.23)" fill="#7f4fc7"/>
    <path id="Trazado_194413" data-name="Trazado 194413" d="M81.927,33.247c-.015.489-.352.74-.681.645a1.086,1.086,0,0,1-.227-.105L74.2,29.915c-.031-.018-.064-.033-.093-.053a.535.535,0,1,1,.541-.922c.567.308,1.124.633,1.685.951,1.724.978,3.452,1.951,5.169,2.941a2.092,2.092,0,0,1,.43.416" transform="translate(-60.464 -23.637)" fill="#7f4fc7"/>
    <path id="Trazado_194414" data-name="Trazado 194414" d="M29.8,125.072c.007.561-.419.8-.824.6-.361-.184-.709-.395-1.062-.6l-5.76-3.271a1.673,1.673,0,0,1-.243-.15.5.5,0,0,1-.139-.673.483.483,0,0,1,.671-.233c.282.127.545.3.815.448,2.025,1.147,4.052,2.291,6.07,3.45a2.54,2.54,0,0,1,.472.428" transform="translate(-17.773 -98.858)" fill="#7f4fc7"/>
    <path id="Trazado_194415" data-name="Trazado 194415" d="M152.3,117.269q0-1.938,0-3.875c0-.461.186-.692.539-.687s.535.245.535.7q0,3.858,0,7.715c0,.048,0,.1,0,.143-.026.369-.231.584-.55.581s-.521-.22-.523-.6c-.005-1.328,0-2.655,0-3.983" transform="translate(-124.749 -92.319)" fill="#7f4fc7"/>
    <path id="Trazado_194416" data-name="Trazado 194416" d="M100.679,15.517a1.676,1.676,0,0,1,1.669-1.695,1.691,1.691,0,1,1-1.669,1.695m2.3,0a.611.611,0,0,0-.62-.61.594.594,0,0,0-.6.585.611.611,0,0,0,.593.635.631.631,0,0,0,.628-.609" transform="translate(-82.467 -11.322)" fill="#7f4fc7"/>
    <path id="Trazado_194417" data-name="Trazado 194417" d="M169.82,132.575a1.689,1.689,0,0,1,3.377.027,1.689,1.689,0,1,1-3.377-.027m2.3.014a.606.606,0,0,0-.63-.6.6.6,0,0,0-.591.6.619.619,0,0,0,.608.624.625.625,0,0,0,.612-.624" transform="translate(-139.1 -107.23)" fill="#7f4fc7"/>
    <path id="Trazado_194418" data-name="Trazado 194418" d="M50.015,85.534c.009.531-.348.792-.708.652a4.207,4.207,0,0,1-.536-.284l-4.7-2.665c-.062-.035-.127-.067-.186-.107a.534.534,0,1,1,.528-.928c.277.138.542.3.812.453,1.453.823,2.909,1.641,4.354,2.476a2.256,2.256,0,0,1,.436.4" transform="translate(-35.721 -67.275)" fill="#7f4fc7"/>
    <path id="Trazado_194419" data-name="Trazado 194419" d="M59.942,68.064c.009.551-.388.8-.783.616-.237-.11-.459-.253-.688-.383q-2.256-1.28-4.512-2.563a1.12,1.12,0,0,1-.288-.206.44.44,0,0,1-.023-.645,1.3,1.3,0,0,1,.592-.2c.065-.014.151.06.224.1,1.692.958,3.386,1.912,5.071,2.883a1.944,1.944,0,0,1,.406.394" transform="translate(-43.838 -52.983)" fill="#7f4fc7"/>
    <path id="Trazado_194420" data-name="Trazado 194420" d="M56.034,74.921c0,.52-.369.779-.724.633a5.108,5.108,0,0,1-.566-.305L50.076,72.6c-.031-.018-.063-.034-.094-.052-.34-.2-.447-.488-.289-.771a.542.542,0,0,1,.806-.169c.543.3,1.081.609,1.62.916,1.173.665,2.349,1.324,3.513,2a1.928,1.928,0,0,1,.4.4" transform="translate(-40.645 -58.567)" fill="#7f4fc7"/>
    <path id="Trazado_194421" data-name="Trazado 194421" d="M43.565,97.03a.55.55,0,0,1-.83.543c-.4-.209-.791-.442-1.185-.666Q39.527,95.76,37.5,94.614c-.258-.146-.429-.361-.317-.639a.773.773,0,0,1,.441-.391.764.764,0,0,1,.492.147q2.4,1.349,4.8,2.715a1.934,1.934,0,0,1,.4.24,1.958,1.958,0,0,1,.254.346" transform="translate(-30.431 -76.646)" fill="#7f4fc7"/>
    <path id="Trazado_194422" data-name="Trazado 194422" d="M32.889,101.468c.206.087.332.126.444.189q2.57,1.453,5.135,2.913c.37.211.472.5.3.8a.552.552,0,0,1-.814.146q-2.6-1.47-5.2-2.948a.5.5,0,0,1-.285-.654c.078-.179.284-.3.422-.44" transform="translate(-26.56 -83.113)" fill="#7f4fc7"/>
    <path id="Trazado_194423" data-name="Trazado 194423" d="M28.73,108.776a3.9,3.9,0,0,1,.455.175q2.57,1.454,5.135,2.916c.432.247.526.685.179.917a.686.686,0,0,1-.587.067c-1.8-.992-3.578-2.009-5.359-3.027a.452.452,0,0,1-.233-.607,2.008,2.008,0,0,1,.41-.441" transform="translate(-23.158 -89.099)" fill="#7f4fc7"/>
    <path id="Trazado_194424" data-name="Trazado 194424" d="M74.99,41.465a5.142,5.142,0,0,1-.476-.2q-2.554-1.445-5.1-2.9c-.373-.212-.48-.5-.313-.789s.475-.351.841-.145q2.57,1.453,5.137,2.91c.27.152.446.372.327.669-.072.181-.276.309-.414.454" transform="translate(-56.536 -30.561)" fill="#7f4fc7"/>
    <path id="Trazado_194425" data-name="Trazado 194425" d="M71.346,47.972c0,.558-.423.8-.822.59-.5-.262-.976-.551-1.464-.827q-1.868-1.059-3.736-2.118c-.347-.2-.459-.439-.353-.727a.534.534,0,0,1,.8-.249c.565.309,1.122.632,1.683.95,1.162.659,2.329,1.311,3.483,1.984a1.955,1.955,0,0,1,.405.4" transform="translate(-53.186 -36.492)" fill="#7f4fc7"/>
    <path id="Trazado_194426" data-name="Trazado 194426" d="M61.6,50.84a4.674,4.674,0,0,1,.45.186q2.554,1.445,5.1,2.9c.393.224.5.558.29.848-.186.255-.466.288-.828.083q-1.931-1.093-3.859-2.191c-.446-.253-.9-.5-1.337-.762a.467.467,0,0,1-.246-.633,1.917,1.917,0,0,1,.425-.427" transform="translate(-50.068 -41.643)" fill="#7f4fc7"/>
    <path id="Trazado_194427" data-name="Trazado 194427" d="M127.693,116.319c0,.969,0,1.937,0,2.906,0,.452-.2.692-.547.684-.334-.008-.527-.246-.528-.673q0-2.924,0-5.848c0-.447.2-.689.553-.682s.521.236.522.671c0,.981,0,1.961,0,2.942" transform="translate(-103.712 -92.318)" fill="#7f4fc7"/>
    <path id="Trazado_194428" data-name="Trazado 194428" d="M143.622,116.318q0,1.435,0,2.87c0,.488-.185.729-.543.722s-.532-.249-.533-.742q0-2.852,0-5.7c0-.072,0-.144,0-.215a.532.532,0,0,1,.55-.541.5.5,0,0,1,.519.561c.008,1.016,0,2.033,0,3.049Z" transform="translate(-116.759 -92.32)" fill="#7f4fc7"/>
    <path id="Trazado_194429" data-name="Trazado 194429" d="M135.281,116.326c0,.969,0,1.937,0,2.906,0,.441-.178.668-.514.679-.351.011-.56-.231-.561-.677q0-2.924,0-5.847a1.353,1.353,0,0,1,0-.143.533.533,0,0,1,.557-.533.507.507,0,0,1,.513.567c.007,1.016,0,2.033,0,3.049Z" transform="translate(-109.927 -92.321)" fill="#7f4fc7"/>
    <path id="Trazado_194430" data-name="Trazado 194430" d="M111.281,116.289c0-.933,0-1.865,0-2.8a1.592,1.592,0,0,1,.033-.391.526.526,0,0,1,1.017.017,1.447,1.447,0,0,1,.024.321q0,2.869,0,5.738a1.555,1.555,0,0,1-.021.321.524.524,0,0,1-1.023.016,1.721,1.721,0,0,1-.029-.392c0-.944,0-1.889,0-2.833" transform="translate(-91.151 -92.328)" fill="#7f4fc7"/>
    <path id="Trazado_194431" data-name="Trazado 194431" d="M87.293,96.594a5.963,5.963,0,0,1-.674.92c-.1.091-.433.042-.571-.061a.609.609,0,0,1-.168-.527,1.437,1.437,0,0,1,.382-.673.678.678,0,0,1,.566-.133c.166.05.279.272.466.473" transform="translate(-70.336 -78.719)" fill="#7f4fc7"/>
    <path id="Trazado_194432" data-name="Trazado 194432" d="M67.873,130.819a5.848,5.848,0,0,1-.662.908c-.1.092-.431.048-.571-.053a.6.6,0,0,1-.174-.522,1.539,1.539,0,0,1,.4-.7.683.683,0,0,1,.577-.105c.155.048.255.271.427.474" transform="translate(-54.435 -106.748)" fill="#7f4fc7"/>
    <path id="Trazado_194433" data-name="Trazado 194433" d="M73.579,118.71a.522.522,0,0,1,.508.71,2.794,2.794,0,0,1-.332.589.492.492,0,0,1-.693.156.5.5,0,0,1-.226-.675c.188-.51.444-.774.742-.78" transform="translate(-59.622 -97.236)" fill="#7f4fc7"/>
    <path id="Trazado_194434" data-name="Trazado 194434" d="M98.414,158.4a2.435,2.435,0,0,1-.321,0,.5.5,0,0,1-.464-.465.469.469,0,0,1,.382-.562,2.384,2.384,0,0,1,.813-.005.47.47,0,0,1,.394.553.491.491,0,0,1-.483.481,3.019,3.019,0,0,1-.321,0v0" transform="translate(-79.965 -128.871)" fill="#7f4fc7"/>
    <path id="Trazado_194435" data-name="Trazado 194435" d="M93.8,85.193a6.52,6.52,0,0,1-.673.918.561.561,0,0,1-.541-.039.666.666,0,0,1-.19-.548,1.371,1.371,0,0,1,.376-.673.683.683,0,0,1,.569-.133c.164.05.276.274.458.475" transform="translate(-75.676 -69.379)" fill="#7f4fc7"/>
    <path id="Trazado_194436" data-name="Trazado 194436" d="M111.521,158.4a2.5,2.5,0,0,1-.321,0,.5.5,0,0,1-.464-.466.469.469,0,0,1,.383-.561,2.4,2.4,0,0,1,.812-.005.47.47,0,0,1,.394.554.491.491,0,0,1-.484.481,3.119,3.119,0,0,1-.321,0v0" transform="translate(-90.701 -128.872)" fill="#7f4fc7"/>
    <path id="Trazado_194437" data-name="Trazado 194437" d="M124.618,158.381c-.1,0-.191.008-.286,0a.5.5,0,0,1-.487-.482.473.473,0,0,1,.4-.553,2.327,2.327,0,0,1,.779-.008.48.48,0,0,1,.414.575.49.49,0,0,1-.5.469c-.106.009-.214,0-.321,0" transform="translate(-101.44 -128.851)" fill="#7f4fc7"/>
    <path id="Trazado_194438" data-name="Trazado 194438" d="M137.724,158.384a2.688,2.688,0,0,1-.286,0,.5.5,0,0,1-.485-.485.475.475,0,0,1,.4-.551,2.4,2.4,0,0,1,.779-.006.477.477,0,0,1,.414.542.5.5,0,0,1-.5.5c-.107.008-.214,0-.322,0h0" transform="translate(-112.177 -128.854)" fill="#7f4fc7"/>
    <path id="Trazado_194439" data-name="Trazado 194439" d="M99.62,73.146a1.019,1.019,0,0,1,.3.24c.23.351-.038.626-.188.914a.523.523,0,0,1-.563.348.676.676,0,0,1-.385-.214c-.2-.255-.083-.513.064-.758.159-.264.273-.576.775-.529" transform="translate(-80.824 -59.91)" fill="#7f4fc7"/>
    <path id="Trazado_194440" data-name="Trazado 194440" d="M106.712,62.34a6.437,6.437,0,0,1-.666.922.565.565,0,0,1-.544-.037.657.657,0,0,1-.2-.547,1.54,1.54,0,0,1,.4-.7.622.622,0,0,1,.539-.114c.167.058.279.273.466.474" transform="translate(-86.248 -50.658)" fill="#7f4fc7"/>
    <path id="Trazado_194441" data-name="Trazado 194441" d="M79.8,108.773a.974.974,0,0,1-.217-.073c-.334-.188-.327-.514.018-1.09.215-.36.507-.468.793-.287a.575.575,0,0,1,.175.173.618.618,0,0,1-.064.7c-.159.26-.261.58-.705.577" transform="translate(-64.988 -87.838)" fill="#7f4fc7"/>
  </g>
</svg>
