<svg xmlns="http://www.w3.org/2000/svg" xmlns:xlink="http://www.w3.org/1999/xlink" width="364.131" height="249.53" viewBox="0 0 364.131 249.53">
  <defs>
    <filter id="Rectángulo_45262" x="0" y="186.355" width="337.94" height="63.175" filterUnits="userSpaceOnUse">
      <feOffset dy="3" input="SourceAlpha"/>
      <feGaussianBlur stdDeviation="3" result="blur"/>
      <feFlood flood-opacity="0.161"/>
      <feComposite operator="in" in2="blur"/>
      <feComposite in="SourceGraphic"/>
    </filter>
    <clipPath id="clip-path">
      <rect id="Rectángulo_45391" data-name="Rectángulo 45391" width="322.54" height="225.172" fill="none"/>
    </clipPath>
    <clipPath id="clip-path-3">
      <rect id="Rectángulo_45388" data-name="Rectángulo 45388" width="31.575" height="62.229" fill="none"/>
    </clipPath>
    <clipPath id="clip-path-4">
      <rect id="Rectángulo_45389" data-name="Rectángulo 45389" width="38.79" height="77.573" fill="none"/>
    </clipPath>
  </defs>
  <g id="Grupo_152705" data-name="Grupo 152705" transform="translate(-201.894 -2216.504)">
    <g transform="matrix(1, 0, 0, 1, 201.89, 2216.5)" filter="url(#Rectángulo_45262)">
      <rect id="Rectángulo_45262-2" data-name="Rectángulo 45262" width="45.175" height="319.94" rx="13" transform="translate(328.94 192.36) rotate(90)" fill="#12263f"/>
    </g>
    <g id="Grupo_152704" data-name="Grupo 152704" transform="translate(243.485 2216.504)">
      <g id="Grupo_152703" data-name="Grupo 152703" clip-path="url(#clip-path)">
        <g id="Grupo_152702" data-name="Grupo 152702" transform="translate(0 0)">
          <g id="Grupo_152701" data-name="Grupo 152701" clip-path="url(#clip-path)">
            <path id="Trazado_194143" data-name="Trazado 194143" d="M43.508,106.042c14.213,0,26.824,5.63,34.9,14.341,5.626-10.344,18.07-17.548,32.558-17.548,18.436,0,33.6,11.651,35.549,26.617a27.62,27.62,0,0,1,13.742,5.118c6.328-10.936,19.7-18.5,35.214-18.5,13.33,0,25.084,5.575,32.151,14.076,8.771-13.174,25.587-22.1,44.914-22.1a60.726,60.726,0,0,1,15,1.872C305.2,31.956,254.666,2.069,216.211,20.676,180.729,37.844,104.971,0,80.652,0,5.233,0,12.345,56.408,10.009,118.927c8.1-7.875,20.089-12.885,33.5-12.885" transform="translate(14.074 0)" fill="#9cc2e8"/>
            <g id="Grupo_152747" data-name="Grupo 152747" transform="translate(189.345 19.889)">
              <circle id="Elipse_5568" data-name="Elipse 5568" cx="0.042" cy="0.042" r="0.042" transform="translate(38.709 122.522)" fill="#2194e5"/>
              <path id="Trazado_193815" data-name="Trazado 193815" d="M52.953,402.9a.359.359,0,1,1-.359.359A.359.359,0,0,1,52.953,402.9Z" transform="translate(-6.582 -280.697)" fill="#2194e5"/>
              <path id="Trazado_193816" data-name="Trazado 193816" d="M57.7,402.748a.613.613,0,1,1-.613.613A.614.614,0,0,1,57.7,402.748Z" transform="translate(-3.711 -280.796)" fill="#2194e5"/>
              <circle id="Elipse_5569" data-name="Elipse 5569" cx="0.655" cy="0.655" r="0.655" transform="translate(60.955 121.91)" fill="#2194e5"/>
              <path id="Trazado_193817" data-name="Trazado 193817" d="M67,402.748a.613.613,0,1,1-.613.613A.613.613,0,0,1,67,402.748Z" transform="translate(2.227 -280.796)" fill="#2194e5"/>
              <path id="Trazado_193818" data-name="Trazado 193818" d="M71.545,402.916a.338.338,0,1,1-.338.338A.337.337,0,0,1,71.545,402.916Z" transform="translate(5.304 -280.689)" fill="#2194e5"/>
              <circle id="Elipse_5570" data-name="Elipse 5570" cx="0.021" cy="0.021" r="0.021" transform="translate(84.447 122.543)" fill="#2194e5"/>
              <circle id="Elipse_5571" data-name="Elipse 5571" cx="0.021" cy="0.021" r="0.021" transform="translate(23.492 114.924)" fill="#2194e5"/>
              <path id="Trazado_193819" data-name="Trazado 193819" d="M43.76,398.085a.634.634,0,1,1-.634.634A.635.635,0,0,1,43.76,398.085Z" transform="translate(-12.627 -283.774)" fill="#2194e5"/>
              <path id="Trazado_193820" data-name="Trazado 193820" d="M48.666,397.685a1.289,1.289,0,1,1-1.29,1.289A1.289,1.289,0,0,1,48.666,397.685Z" transform="translate(-9.913 -284.029)" fill="#2194e5"/>
              <circle id="Elipse_5572" data-name="Elipse 5572" cx="1.437" cy="1.437" r="1.437" transform="translate(44.934 113.509)" fill="#2194e5"/>
              <circle id="Elipse_5573" data-name="Elipse 5573" cx="1.437" cy="1.437" r="1.437" transform="translate(52.554 113.509)" fill="#2194e5"/>
              <path id="Trazado_193821" data-name="Trazado 193821" d="M62.673,397.6a1.437,1.437,0,1,1-1.437,1.437A1.438,1.438,0,0,1,62.673,397.6Z" transform="translate(-1.063 -284.087)" fill="#2194e5"/>
              <path id="Trazado_193822" data-name="Trazado 193822" d="M67.323,397.6a1.437,1.437,0,1,1-1.437,1.437A1.438,1.438,0,0,1,67.323,397.6Z" transform="translate(1.906 -284.087)" fill="#2194e5"/>
              <path id="Trazado_193823" data-name="Trazado 193823" d="M71.973,397.6a1.437,1.437,0,1,1-1.437,1.437A1.438,1.438,0,0,1,71.973,397.6Z" transform="translate(4.875 -284.087)" fill="#2194e5"/>
              <path id="Trazado_193824" data-name="Trazado 193824" d="M76.557,397.7a1.268,1.268,0,1,1-1.268,1.268A1.269,1.269,0,0,1,76.557,397.7Z" transform="translate(7.91 -284.021)" fill="#2194e5"/>
              <path id="Trazado_193825" data-name="Trazado 193825" d="M80.944,398.111a.591.591,0,1,1-.592.591A.591.591,0,0,1,80.944,398.111Z" transform="translate(11.143 -283.757)" fill="#2194e5"/>
              <circle id="Elipse_5574" data-name="Elipse 5574" cx="0.021" cy="0.021" r="0.021" transform="translate(99.686 114.924)" fill="#2194e5"/>
              <path id="Trazado_193826" data-name="Trazado 193826" d="M34.255,393.758a.1.1,0,0,1,.1.1.106.106,0,1,1-.1-.1Z" transform="translate(-18.36 -286.537)" fill="#2194e5"/>
              <path id="Trazado_193827" data-name="Trazado 193827" d="M39.267,393.19a1.036,1.036,0,1,1-1.036,1.036A1.036,1.036,0,0,1,39.267,393.19Z" transform="translate(-15.753 -286.9)" fill="#2194e5"/>
              <circle id="Elipse_5575" data-name="Elipse 5575" cx="1.437" cy="1.437" r="1.437" transform="translate(29.696 105.889)" fill="#2194e5"/>
              <circle id="Elipse_5576" data-name="Elipse 5576" cx="1.437" cy="1.437" r="1.437" transform="translate(37.315 105.889)" fill="#2194e5"/>
              <circle id="Elipse_5577" data-name="Elipse 5577" cx="1.437" cy="1.437" r="1.437" transform="translate(44.934 105.889)" fill="#2194e5"/>
              <circle id="Elipse_5578" data-name="Elipse 5578" cx="1.437" cy="1.437" r="1.437" transform="translate(52.554 105.889)" fill="#2194e5"/>
              <path id="Trazado_193828" data-name="Trazado 193828" d="M62.673,392.945a1.437,1.437,0,1,1-1.437,1.437A1.438,1.438,0,0,1,62.673,392.945Z" transform="translate(-1.063 -287.056)" fill="#2194e5"/>
              <path id="Trazado_193829" data-name="Trazado 193829" d="M67.323,392.945a1.437,1.437,0,1,1-1.437,1.437A1.438,1.438,0,0,1,67.323,392.945Z" transform="translate(1.906 -287.056)" fill="#2194e5"/>
              <path id="Trazado_193830" data-name="Trazado 193830" d="M71.973,392.945a1.437,1.437,0,1,1-1.437,1.437A1.438,1.438,0,0,1,71.973,392.945Z" transform="translate(4.875 -287.056)" fill="#2194e5"/>
              <path id="Trazado_193831" data-name="Trazado 193831" d="M76.623,392.945a1.437,1.437,0,1,1-1.437,1.437A1.438,1.438,0,0,1,76.623,392.945Z" transform="translate(7.845 -287.056)" fill="#2194e5"/>
              <path id="Trazado_193832" data-name="Trazado 193832" d="M81.273,392.945a1.437,1.437,0,1,1-1.437,1.437A1.438,1.438,0,0,1,81.273,392.945Z" transform="translate(10.814 -287.056)" fill="#2194e5"/>
              <path id="Trazado_193833" data-name="Trazado 193833" d="M85.758,393.2a1.014,1.014,0,1,1-1.014,1.014A1.014,1.014,0,0,1,85.758,393.2Z" transform="translate(13.948 -286.891)" fill="#2194e5"/>
              <path id="Trazado_193834" data-name="Trazado 193834" d="M90.037,393.783a.064.064,0,1,1-.062.064A.064.064,0,0,1,90.037,393.783Z" transform="translate(17.288 -286.521)" fill="#2194e5"/>
              <circle id="Elipse_5579" data-name="Elipse 5579" cx="0.021" cy="0.021" r="0.021" transform="translate(8.253 99.686)" fill="#2194e5"/>
              <path id="Trazado_193835" data-name="Trazado 193835" d="M34.617,388.54a1.036,1.036,0,1,1-1.036,1.036A1.034,1.034,0,0,1,34.617,388.54Z" transform="translate(-18.722 -289.869)" fill="#2194e5"/>
              <circle id="Elipse_5580" data-name="Elipse 5580" cx="1.437" cy="1.437" r="1.437" transform="translate(22.076 98.27)" fill="#2194e5"/>
              <circle id="Elipse_5581" data-name="Elipse 5581" cx="1.437" cy="1.437" r="1.437" transform="translate(29.696 98.27)" fill="#2194e5"/>
              <circle id="Elipse_5582" data-name="Elipse 5582" cx="1.437" cy="1.437" r="1.437" transform="translate(37.315 98.27)" fill="#2194e5"/>
              <circle id="Elipse_5583" data-name="Elipse 5583" cx="1.437" cy="1.437" r="1.437" transform="translate(44.934 98.27)" fill="#2194e5"/>
              <circle id="Elipse_5584" data-name="Elipse 5584" cx="1.437" cy="1.437" r="1.437" transform="translate(52.554 98.27)" fill="#2194e5"/>
              <path id="Trazado_193836" data-name="Trazado 193836" d="M62.673,388.3a1.437,1.437,0,1,1-1.437,1.437A1.438,1.438,0,0,1,62.673,388.3Z" transform="translate(-1.063 -290.025)" fill="#2194e5"/>
              <path id="Trazado_193837" data-name="Trazado 193837" d="M67.323,388.3a1.437,1.437,0,1,1-1.437,1.437A1.438,1.438,0,0,1,67.323,388.3Z" transform="translate(1.906 -290.025)" fill="#2194e5"/>
              <path id="Trazado_193838" data-name="Trazado 193838" d="M71.973,388.3a1.437,1.437,0,1,1-1.437,1.437A1.438,1.438,0,0,1,71.973,388.3Z" transform="translate(4.875 -290.025)" fill="#2194e5"/>
              <path id="Trazado_193839" data-name="Trazado 193839" d="M76.623,388.3a1.437,1.437,0,1,1-1.437,1.437A1.438,1.438,0,0,1,76.623,388.3Z" transform="translate(7.845 -290.025)" fill="#2194e5"/>
              <path id="Trazado_193840" data-name="Trazado 193840" d="M81.273,388.3a1.437,1.437,0,1,1-1.437,1.437A1.438,1.438,0,0,1,81.273,388.3Z" transform="translate(10.814 -290.025)" fill="#2194e5"/>
              <path id="Trazado_193841" data-name="Trazado 193841" d="M85.923,388.3a1.437,1.437,0,1,1-1.437,1.437A1.438,1.438,0,0,1,85.923,388.3Z" transform="translate(13.783 -290.025)" fill="#2194e5"/>
              <path id="Trazado_193842" data-name="Trazado 193842" d="M90.408,388.553a1.014,1.014,0,1,1-1.014,1.014A1.014,1.014,0,0,1,90.408,388.553Z" transform="translate(16.917 -289.861)" fill="#2194e5"/>
              <circle id="Elipse_5585" data-name="Elipse 5585" cx="0.021" cy="0.021" r="0.021" transform="translate(114.924 99.686)" fill="#2194e5"/>
              <path id="Trazado_193843" data-name="Trazado 193843" d="M29.81,384.135a.634.634,0,1,1-.634.634A.633.633,0,0,1,29.81,384.135Z" transform="translate(-21.535 -292.682)" fill="#2194e5"/>
              <circle id="Elipse_5586" data-name="Elipse 5586" cx="1.437" cy="1.437" r="1.437" transform="translate(14.457 90.651)" fill="#2194e5"/>
              <circle id="Elipse_5587" data-name="Elipse 5587" cx="1.437" cy="1.437" r="1.437" transform="translate(22.076 90.651)" fill="#2194e5"/>
              <circle id="Elipse_5588" data-name="Elipse 5588" cx="1.437" cy="1.437" r="1.437" transform="translate(29.696 90.651)" fill="#2194e5"/>
              <circle id="Elipse_5589" data-name="Elipse 5589" cx="1.437" cy="1.437" r="1.437" transform="translate(37.315 90.651)" fill="#2194e5"/>
              <circle id="Elipse_5590" data-name="Elipse 5590" cx="1.437" cy="1.437" r="1.437" transform="translate(44.934 90.651)" fill="#2194e5"/>
              <circle id="Elipse_5591" data-name="Elipse 5591" cx="1.437" cy="1.437" r="1.437" transform="translate(52.554 90.651)" fill="#2194e5"/>
              <path id="Trazado_193844" data-name="Trazado 193844" d="M62.673,383.645a1.437,1.437,0,1,1-1.437,1.437A1.438,1.438,0,0,1,62.673,383.645Z" transform="translate(-1.063 -292.995)" fill="#2194e5"/>
              <path id="Trazado_193845" data-name="Trazado 193845" d="M67.323,383.645a1.437,1.437,0,1,1-1.437,1.437A1.438,1.438,0,0,1,67.323,383.645Z" transform="translate(1.906 -292.995)" fill="#2194e5"/>
              <path id="Trazado_193846" data-name="Trazado 193846" d="M71.973,383.645a1.437,1.437,0,1,1-1.437,1.437A1.438,1.438,0,0,1,71.973,383.645Z" transform="translate(4.875 -292.995)" fill="#2194e5"/>
              <path id="Trazado_193847" data-name="Trazado 193847" d="M76.623,383.645a1.437,1.437,0,1,1-1.437,1.437A1.438,1.438,0,0,1,76.623,383.645Z" transform="translate(7.845 -292.995)" fill="#2194e5"/>
              <path id="Trazado_193848" data-name="Trazado 193848" d="M81.273,383.645a1.437,1.437,0,1,1-1.437,1.437A1.438,1.438,0,0,1,81.273,383.645Z" transform="translate(10.814 -292.995)" fill="#2194e5"/>
              <path id="Trazado_193849" data-name="Trazado 193849" d="M85.923,383.645a1.437,1.437,0,1,1-1.437,1.437A1.438,1.438,0,0,1,85.923,383.645Z" transform="translate(13.783 -292.995)" fill="#2194e5"/>
              <path id="Trazado_193850" data-name="Trazado 193850" d="M90.573,383.645a1.437,1.437,0,1,1-1.437,1.437A1.438,1.438,0,0,1,90.573,383.645Z" transform="translate(16.752 -292.995)" fill="#2194e5"/>
              <path id="Trazado_193851" data-name="Trazado 193851" d="M94.894,384.161a.591.591,0,1,1-.592.592A.591.591,0,0,1,94.894,384.161Z" transform="translate(20.051 -292.665)" fill="#2194e5"/>
              <circle id="Elipse_5592" data-name="Elipse 5592" cx="0.042" cy="0.042" r="0.042" transform="translate(0.613 84.426)" fill="#2194e5"/>
              <path id="Trazado_193852" data-name="Trazado 193852" d="M30.057,379.1a1.268,1.268,0,1,1-1.268,1.268A1.267,1.267,0,0,1,30.057,379.1Z" transform="translate(-21.782 -295.898)" fill="#2194e5"/>
              <circle id="Elipse_5593" data-name="Elipse 5593" cx="1.437" cy="1.437" r="1.437" transform="translate(14.457 83.031)" fill="#2194e5"/>
              <circle id="Elipse_5594" data-name="Elipse 5594" cx="1.437" cy="1.437" r="1.437" transform="translate(22.076 83.031)" fill="#2194e5"/>
              <circle id="Elipse_5595" data-name="Elipse 5595" cx="1.437" cy="1.437" r="1.437" transform="translate(29.696 83.031)" fill="#2194e5"/>
              <circle id="Elipse_5596" data-name="Elipse 5596" cx="1.437" cy="1.437" r="1.437" transform="translate(37.315 83.031)" fill="#2194e5"/>
              <circle id="Elipse_5597" data-name="Elipse 5597" cx="1.437" cy="1.437" r="1.437" transform="translate(44.934 83.031)" fill="#2194e5"/>
              <circle id="Elipse_5598" data-name="Elipse 5598" cx="1.437" cy="1.437" r="1.437" transform="translate(52.554 83.031)" fill="#2194e5"/>
              <path id="Trazado_193853" data-name="Trazado 193853" d="M62.673,379a1.437,1.437,0,1,1-1.437,1.437A1.438,1.438,0,0,1,62.673,379Z" transform="translate(-1.063 -295.964)" fill="#2194e5"/>
              <path id="Trazado_193854" data-name="Trazado 193854" d="M67.323,379a1.437,1.437,0,1,1-1.437,1.437A1.438,1.438,0,0,1,67.323,379Z" transform="translate(1.906 -295.964)" fill="#2194e5"/>
              <path id="Trazado_193855" data-name="Trazado 193855" d="M71.973,379a1.437,1.437,0,1,1-1.437,1.437A1.438,1.438,0,0,1,71.973,379Z" transform="translate(4.875 -295.964)" fill="#2194e5"/>
              <path id="Trazado_193856" data-name="Trazado 193856" d="M76.623,379a1.437,1.437,0,1,1-1.437,1.437A1.438,1.438,0,0,1,76.623,379Z" transform="translate(7.845 -295.964)" fill="#2194e5"/>
              <path id="Trazado_193857" data-name="Trazado 193857" d="M81.273,379a1.437,1.437,0,1,1-1.437,1.437A1.438,1.438,0,0,1,81.273,379Z" transform="translate(10.814 -295.964)" fill="#2194e5"/>
              <path id="Trazado_193858" data-name="Trazado 193858" d="M85.923,379a1.437,1.437,0,1,1-1.437,1.437A1.438,1.438,0,0,1,85.923,379Z" transform="translate(13.783 -295.964)" fill="#2194e5"/>
              <path id="Trazado_193859" data-name="Trazado 193859" d="M90.573,379a1.437,1.437,0,1,1-1.437,1.437A1.438,1.438,0,0,1,90.573,379Z" transform="translate(16.752 -295.964)" fill="#2194e5"/>
              <path id="Trazado_193860" data-name="Trazado 193860" d="M95.148,379.111a1.247,1.247,0,1,1-1.245,1.247A1.246,1.246,0,0,1,95.148,379.111Z" transform="translate(19.796 -295.89)" fill="#2194e5"/>
              <circle id="Elipse_5599" data-name="Elipse 5599" cx="0.042" cy="0.042" r="0.042" transform="translate(122.522 84.426)" fill="#2194e5"/>
              <circle id="Elipse_5600" data-name="Elipse 5600" cx="0.359" cy="0.359" r="0.359" transform="translate(0.296 76.489)" fill="#2194e5"/>
              <circle id="Elipse_5601" data-name="Elipse 5601" cx="1.437" cy="1.437" r="1.437" transform="translate(6.838 75.412)" fill="#2194e5"/>
              <circle id="Elipse_5602" data-name="Elipse 5602" cx="1.437" cy="1.437" r="1.437" transform="translate(14.457 75.412)" fill="#2194e5"/>
              <circle id="Elipse_5603" data-name="Elipse 5603" cx="1.437" cy="1.437" r="1.437" transform="translate(22.076 75.412)" fill="#2194e5"/>
              <circle id="Elipse_5604" data-name="Elipse 5604" cx="1.437" cy="1.437" r="1.437" transform="translate(29.696 75.412)" fill="#2194e5"/>
              <circle id="Elipse_5605" data-name="Elipse 5605" cx="1.437" cy="1.437" r="1.437" transform="translate(37.315 75.412)" fill="#2194e5"/>
              <circle id="Elipse_5606" data-name="Elipse 5606" cx="1.437" cy="1.437" r="1.437" transform="translate(44.934 75.412)" fill="#2194e5"/>
              <circle id="Elipse_5607" data-name="Elipse 5607" cx="1.437" cy="1.437" r="1.437" transform="translate(52.554 75.412)" fill="#2194e5"/>
              <path id="Trazado_193861" data-name="Trazado 193861" d="M62.673,374.345a1.437,1.437,0,1,1-1.437,1.437A1.437,1.437,0,0,1,62.673,374.345Z" transform="translate(-1.063 -298.933)" fill="#2194e5"/>
              <path id="Trazado_193862" data-name="Trazado 193862" d="M67.323,374.345a1.437,1.437,0,1,1-1.437,1.437A1.437,1.437,0,0,1,67.323,374.345Z" transform="translate(1.906 -298.933)" fill="#2194e5"/>
              <path id="Trazado_193863" data-name="Trazado 193863" d="M71.973,374.345a1.437,1.437,0,1,1-1.437,1.437A1.437,1.437,0,0,1,71.973,374.345Z" transform="translate(4.875 -298.933)" fill="#2194e5"/>
              <path id="Trazado_193864" data-name="Trazado 193864" d="M76.623,374.345a1.437,1.437,0,1,1-1.437,1.437A1.437,1.437,0,0,1,76.623,374.345Z" transform="translate(7.845 -298.933)" fill="#2194e5"/>
              <path id="Trazado_193865" data-name="Trazado 193865" d="M81.273,374.345a1.437,1.437,0,1,1-1.437,1.437A1.437,1.437,0,0,1,81.273,374.345Z" transform="translate(10.814 -298.933)" fill="#2194e5"/>
              <path id="Trazado_193866" data-name="Trazado 193866" d="M85.923,374.345a1.437,1.437,0,1,1-1.437,1.437A1.437,1.437,0,0,1,85.923,374.345Z" transform="translate(13.783 -298.933)" fill="#2194e5"/>
              <path id="Trazado_193867" data-name="Trazado 193867" d="M90.573,374.345a1.437,1.437,0,1,1-1.437,1.437A1.437,1.437,0,0,1,90.573,374.345Z" transform="translate(16.752 -298.933)" fill="#2194e5"/>
              <path id="Trazado_193868" data-name="Trazado 193868" d="M95.222,374.345a1.437,1.437,0,1,1-1.435,1.437A1.436,1.436,0,0,1,95.222,374.345Z" transform="translate(19.722 -298.933)" fill="#2194e5"/>
              <circle id="Elipse_5608" data-name="Elipse 5608" cx="0.317" cy="0.317" r="0.317" transform="translate(122.248 76.532)" fill="#2194e5"/>
              <path id="Trazado_193869" data-name="Trazado 193869" d="M25.152,370.2a.613.613,0,1,1-.613.613A.613.613,0,0,1,25.152,370.2Z" transform="translate(-24.496 -301.581)" fill="#2194e5"/>
              <path id="Trazado_193870" data-name="Trazado 193870" d="M30.123,369.7a1.437,1.437,0,1,1-1.437,1.437A1.435,1.435,0,0,1,30.123,369.7Z" transform="translate(-21.848 -301.902)" fill="#2194e5"/>
              <path id="Trazado_193871" data-name="Trazado 193871" d="M34.773,369.7a1.437,1.437,0,1,1-1.437,1.437A1.435,1.435,0,0,1,34.773,369.7Z" transform="translate(-18.879 -301.902)" fill="#2194e5"/>
              <path id="Trazado_193872" data-name="Trazado 193872" d="M39.423,369.7a1.437,1.437,0,1,1-1.437,1.437A1.435,1.435,0,0,1,39.423,369.7Z" transform="translate(-15.909 -301.902)" fill="#2194e5"/>
              <path id="Trazado_193873" data-name="Trazado 193873" d="M44.073,369.7a1.437,1.437,0,1,1-1.437,1.437A1.435,1.435,0,0,1,44.073,369.7Z" transform="translate(-12.94 -301.902)" fill="#2194e5"/>
              <path id="Trazado_193874" data-name="Trazado 193874" d="M48.723,369.7a1.437,1.437,0,1,1-1.437,1.437A1.437,1.437,0,0,1,48.723,369.7Z" transform="translate(-9.971 -301.902)" fill="#2194e5"/>
              <path id="Trazado_193875" data-name="Trazado 193875" d="M53.373,369.7a1.437,1.437,0,1,1-1.437,1.437A1.437,1.437,0,0,1,53.373,369.7Z" transform="translate(-7.002 -301.902)" fill="#2194e5"/>
              <path id="Trazado_193876" data-name="Trazado 193876" d="M58.023,369.7a1.437,1.437,0,1,1-1.437,1.437A1.437,1.437,0,0,1,58.023,369.7Z" transform="translate(-4.032 -301.902)" fill="#2194e5"/>
              <path id="Trazado_193877" data-name="Trazado 193877" d="M62.673,369.7a1.437,1.437,0,1,1-1.437,1.437A1.437,1.437,0,0,1,62.673,369.7Z" transform="translate(-1.063 -301.902)" fill="#2194e5"/>
              <path id="Trazado_193878" data-name="Trazado 193878" d="M67.323,369.7a1.437,1.437,0,1,1-1.437,1.437A1.437,1.437,0,0,1,67.323,369.7Z" transform="translate(1.906 -301.902)" fill="#2194e5"/>
              <path id="Trazado_193879" data-name="Trazado 193879" d="M71.973,369.7a1.437,1.437,0,1,1-1.437,1.437A1.437,1.437,0,0,1,71.973,369.7Z" transform="translate(4.875 -301.902)" fill="#2194e5"/>
              <path id="Trazado_193880" data-name="Trazado 193880" d="M76.623,369.7a1.437,1.437,0,1,1-1.437,1.437A1.437,1.437,0,0,1,76.623,369.7Z" transform="translate(7.845 -301.902)" fill="#2194e5"/>
              <path id="Trazado_193881" data-name="Trazado 193881" d="M81.273,369.7a1.437,1.437,0,1,1-1.437,1.437A1.437,1.437,0,0,1,81.273,369.7Z" transform="translate(10.814 -301.902)" fill="#2194e5"/>
              <path id="Trazado_193882" data-name="Trazado 193882" d="M85.923,369.7a1.437,1.437,0,1,1-1.437,1.437A1.437,1.437,0,0,1,85.923,369.7Z" transform="translate(13.783 -301.902)" fill="#2194e5"/>
              <path id="Trazado_193883" data-name="Trazado 193883" d="M90.573,369.7a1.437,1.437,0,1,1-1.437,1.437A1.437,1.437,0,0,1,90.573,369.7Z" transform="translate(16.752 -301.902)" fill="#2194e5"/>
              <path id="Trazado_193884" data-name="Trazado 193884" d="M95.222,369.7a1.437,1.437,0,1,1-1.435,1.437A1.436,1.436,0,0,1,95.222,369.7Z" transform="translate(19.722 -301.902)" fill="#2194e5"/>
              <path id="Trazado_193885" data-name="Trazado 193885" d="M99.544,370.211a.592.592,0,1,1-.592.591A.59.59,0,0,1,99.544,370.211Z" transform="translate(23.02 -301.573)" fill="#2194e5"/>
              <circle id="Elipse_5609" data-name="Elipse 5609" cx="0.655" cy="0.655" r="0.655" transform="translate(0 60.955)" fill="#2194e5"/>
              <path id="Trazado_193886" data-name="Trazado 193886" d="M30.123,365.045a1.437,1.437,0,1,1-1.437,1.437A1.435,1.435,0,0,1,30.123,365.045Z" transform="translate(-21.848 -304.872)" fill="#2194e5"/>
              <path id="Trazado_193887" data-name="Trazado 193887" d="M34.773,365.045a1.437,1.437,0,1,1-1.437,1.437A1.435,1.435,0,0,1,34.773,365.045Z" transform="translate(-18.879 -304.872)" fill="#2194e5"/>
              <path id="Trazado_193888" data-name="Trazado 193888" d="M39.423,365.045a1.437,1.437,0,1,1-1.437,1.437A1.435,1.435,0,0,1,39.423,365.045Z" transform="translate(-15.909 -304.872)" fill="#2194e5"/>
              <path id="Trazado_193889" data-name="Trazado 193889" d="M44.073,365.045a1.437,1.437,0,1,1-1.437,1.437A1.435,1.435,0,0,1,44.073,365.045Z" transform="translate(-12.94 -304.872)" fill="#2194e5"/>
              <path id="Trazado_193890" data-name="Trazado 193890" d="M48.723,365.045a1.437,1.437,0,1,1-1.437,1.437A1.437,1.437,0,0,1,48.723,365.045Z" transform="translate(-9.971 -304.872)" fill="#2194e5"/>
              <path id="Trazado_193891" data-name="Trazado 193891" d="M53.373,365.045a1.437,1.437,0,1,1-1.437,1.437A1.437,1.437,0,0,1,53.373,365.045Z" transform="translate(-7.002 -304.872)" fill="#2194e5"/>
              <path id="Trazado_193892" data-name="Trazado 193892" d="M58.023,365.045a1.437,1.437,0,1,1-1.437,1.437A1.437,1.437,0,0,1,58.023,365.045Z" transform="translate(-4.032 -304.872)" fill="#2194e5"/>
              <path id="Trazado_193893" data-name="Trazado 193893" d="M62.673,365.045a1.437,1.437,0,1,1-1.437,1.437A1.437,1.437,0,0,1,62.673,365.045Z" transform="translate(-1.063 -304.872)" fill="#2194e5"/>
              <path id="Trazado_193894" data-name="Trazado 193894" d="M67.323,365.045a1.437,1.437,0,1,1-1.437,1.437A1.437,1.437,0,0,1,67.323,365.045Z" transform="translate(1.906 -304.872)" fill="#2194e5"/>
              <path id="Trazado_193895" data-name="Trazado 193895" d="M71.973,365.045a1.437,1.437,0,1,1-1.437,1.437A1.437,1.437,0,0,1,71.973,365.045Z" transform="translate(4.875 -304.872)" fill="#2194e5"/>
              <path id="Trazado_193896" data-name="Trazado 193896" d="M76.623,365.045a1.437,1.437,0,1,1-1.437,1.437A1.437,1.437,0,0,1,76.623,365.045Z" transform="translate(7.845 -304.872)" fill="#2194e5"/>
              <path id="Trazado_193897" data-name="Trazado 193897" d="M81.273,365.045a1.437,1.437,0,1,1-1.437,1.437A1.437,1.437,0,0,1,81.273,365.045Z" transform="translate(10.814 -304.872)" fill="#2194e5"/>
              <path id="Trazado_193898" data-name="Trazado 193898" d="M85.923,365.045a1.437,1.437,0,1,1-1.437,1.437A1.437,1.437,0,0,1,85.923,365.045Z" transform="translate(13.783 -304.872)" fill="#2194e5"/>
              <path id="Trazado_193899" data-name="Trazado 193899" d="M90.573,365.045a1.437,1.437,0,1,1-1.437,1.437A1.437,1.437,0,0,1,90.573,365.045Z" transform="translate(16.752 -304.872)" fill="#2194e5"/>
              <path id="Trazado_193900" data-name="Trazado 193900" d="M95.222,365.045a1.437,1.437,0,1,1-1.435,1.437A1.436,1.436,0,0,1,95.222,365.045Z" transform="translate(19.722 -304.872)" fill="#2194e5"/>
              <path id="Trazado_193901" data-name="Trazado 193901" d="M99.568,365.522a.655.655,0,1,1-.654.655A.655.655,0,0,1,99.568,365.522Z" transform="translate(22.996 -304.567)" fill="#2194e5"/>
              <path id="Trazado_193902" data-name="Trazado 193902" d="M25.152,360.9a.613.613,0,1,1-.613.613A.613.613,0,0,1,25.152,360.9Z" transform="translate(-24.496 -307.52)" fill="#2194e5"/>
              <path id="Trazado_193903" data-name="Trazado 193903" d="M30.123,360.4a1.436,1.436,0,1,1-1.437,1.437A1.435,1.435,0,0,1,30.123,360.4Z" transform="translate(-21.848 -307.841)" fill="#2194e5"/>
              <path id="Trazado_193904" data-name="Trazado 193904" d="M34.773,360.4a1.436,1.436,0,1,1-1.437,1.437A1.435,1.435,0,0,1,34.773,360.4Z" transform="translate(-18.879 -307.841)" fill="#2194e5"/>
              <path id="Trazado_193905" data-name="Trazado 193905" d="M39.423,360.4a1.436,1.436,0,1,1-1.437,1.437A1.435,1.435,0,0,1,39.423,360.4Z" transform="translate(-15.909 -307.841)" fill="#2194e5"/>
              <path id="Trazado_193906" data-name="Trazado 193906" d="M44.073,360.4a1.436,1.436,0,1,1-1.437,1.437A1.435,1.435,0,0,1,44.073,360.4Z" transform="translate(-12.94 -307.841)" fill="#2194e5"/>
              <path id="Trazado_193907" data-name="Trazado 193907" d="M48.723,360.4a1.436,1.436,0,1,1-1.437,1.437A1.437,1.437,0,0,1,48.723,360.4Z" transform="translate(-9.971 -307.841)" fill="#2194e5"/>
              <path id="Trazado_193908" data-name="Trazado 193908" d="M53.373,360.4a1.436,1.436,0,1,1-1.437,1.437A1.437,1.437,0,0,1,53.373,360.4Z" transform="translate(-7.002 -307.841)" fill="#2194e5"/>
              <path id="Trazado_193909" data-name="Trazado 193909" d="M58.023,360.4a1.436,1.436,0,1,1-1.437,1.437A1.437,1.437,0,0,1,58.023,360.4Z" transform="translate(-4.032 -307.841)" fill="#2194e5"/>
              <path id="Trazado_193910" data-name="Trazado 193910" d="M62.673,360.4a1.436,1.436,0,1,1-1.437,1.437A1.437,1.437,0,0,1,62.673,360.4Z" transform="translate(-1.063 -307.841)" fill="#2194e5"/>
              <path id="Trazado_193911" data-name="Trazado 193911" d="M67.323,360.4a1.436,1.436,0,1,1-1.437,1.437A1.437,1.437,0,0,1,67.323,360.4Z" transform="translate(1.906 -307.841)" fill="#2194e5"/>
              <path id="Trazado_193912" data-name="Trazado 193912" d="M71.973,360.4a1.436,1.436,0,1,1-1.437,1.437A1.437,1.437,0,0,1,71.973,360.4Z" transform="translate(4.875 -307.841)" fill="#2194e5"/>
              <path id="Trazado_193913" data-name="Trazado 193913" d="M76.623,360.4a1.436,1.436,0,1,1-1.437,1.437A1.437,1.437,0,0,1,76.623,360.4Z" transform="translate(7.845 -307.841)" fill="#2194e5"/>
              <path id="Trazado_193914" data-name="Trazado 193914" d="M81.273,360.4a1.436,1.436,0,1,1-1.437,1.437A1.437,1.437,0,0,1,81.273,360.4Z" transform="translate(10.814 -307.841)" fill="#2194e5"/>
              <path id="Trazado_193915" data-name="Trazado 193915" d="M85.923,360.4a1.436,1.436,0,1,1-1.437,1.437A1.437,1.437,0,0,1,85.923,360.4Z" transform="translate(13.783 -307.841)" fill="#2194e5"/>
              <path id="Trazado_193916" data-name="Trazado 193916" d="M90.573,360.4a1.436,1.436,0,1,1-1.437,1.437A1.437,1.437,0,0,1,90.573,360.4Z" transform="translate(16.752 -307.841)" fill="#2194e5"/>
              <path id="Trazado_193917" data-name="Trazado 193917" d="M95.222,360.4a1.436,1.436,0,1,1-1.435,1.437A1.436,1.436,0,0,1,95.222,360.4Z" transform="translate(19.722 -307.841)" fill="#2194e5"/>
              <path id="Trazado_193918" data-name="Trazado 193918" d="M99.535,360.924a.57.57,0,1,1-.57.57A.57.57,0,0,1,99.535,360.924Z" transform="translate(23.029 -307.503)" fill="#2194e5"/>
              <circle id="Elipse_5610" data-name="Elipse 5610" cx="0.338" cy="0.338" r="0.338" transform="translate(0.317 46.033)" fill="#2194e5"/>
              <path id="Trazado_193919" data-name="Trazado 193919" d="M30.123,355.745a1.436,1.436,0,1,1-1.437,1.437A1.435,1.435,0,0,1,30.123,355.745Z" transform="translate(-21.848 -310.81)" fill="#2194e5"/>
              <path id="Trazado_193920" data-name="Trazado 193920" d="M34.773,355.745a1.436,1.436,0,1,1-1.437,1.437A1.435,1.435,0,0,1,34.773,355.745Z" transform="translate(-18.879 -310.81)" fill="#2194e5"/>
              <path id="Trazado_193921" data-name="Trazado 193921" d="M39.423,355.745a1.436,1.436,0,1,1-1.437,1.437A1.435,1.435,0,0,1,39.423,355.745Z" transform="translate(-15.909 -310.81)" fill="#2194e5"/>
              <path id="Trazado_193922" data-name="Trazado 193922" d="M44.073,355.745a1.436,1.436,0,1,1-1.437,1.437A1.435,1.435,0,0,1,44.073,355.745Z" transform="translate(-12.94 -310.81)" fill="#2194e5"/>
              <path id="Trazado_193923" data-name="Trazado 193923" d="M48.723,355.745a1.436,1.436,0,1,1-1.437,1.437A1.437,1.437,0,0,1,48.723,355.745Z" transform="translate(-9.971 -310.81)" fill="#2194e5"/>
              <path id="Trazado_193924" data-name="Trazado 193924" d="M53.373,355.745a1.436,1.436,0,1,1-1.437,1.437A1.437,1.437,0,0,1,53.373,355.745Z" transform="translate(-7.002 -310.81)" fill="#2194e5"/>
              <path id="Trazado_193925" data-name="Trazado 193925" d="M58.023,355.745a1.436,1.436,0,1,1-1.437,1.437A1.437,1.437,0,0,1,58.023,355.745Z" transform="translate(-4.032 -310.81)" fill="#2194e5"/>
              <path id="Trazado_193926" data-name="Trazado 193926" d="M62.673,355.745a1.436,1.436,0,1,1-1.437,1.437A1.437,1.437,0,0,1,62.673,355.745Z" transform="translate(-1.063 -310.81)" fill="#2194e5"/>
              <path id="Trazado_193927" data-name="Trazado 193927" d="M67.323,355.745a1.436,1.436,0,1,1-1.437,1.437A1.437,1.437,0,0,1,67.323,355.745Z" transform="translate(1.906 -310.81)" fill="#2194e5"/>
              <path id="Trazado_193928" data-name="Trazado 193928" d="M71.973,355.745a1.436,1.436,0,1,1-1.437,1.437A1.437,1.437,0,0,1,71.973,355.745Z" transform="translate(4.875 -310.81)" fill="#2194e5"/>
              <path id="Trazado_193929" data-name="Trazado 193929" d="M76.623,355.745a1.436,1.436,0,1,1-1.437,1.437A1.437,1.437,0,0,1,76.623,355.745Z" transform="translate(7.845 -310.81)" fill="#2194e5"/>
              <path id="Trazado_193930" data-name="Trazado 193930" d="M81.273,355.745a1.436,1.436,0,1,1-1.437,1.437A1.437,1.437,0,0,1,81.273,355.745Z" transform="translate(10.814 -310.81)" fill="#2194e5"/>
              <path id="Trazado_193931" data-name="Trazado 193931" d="M85.923,355.745a1.436,1.436,0,1,1-1.437,1.437A1.437,1.437,0,0,1,85.923,355.745Z" transform="translate(13.783 -310.81)" fill="#2194e5"/>
              <path id="Trazado_193932" data-name="Trazado 193932" d="M90.573,355.745a1.436,1.436,0,1,1-1.437,1.437A1.437,1.437,0,0,1,90.573,355.745Z" transform="translate(16.752 -310.81)" fill="#2194e5"/>
              <path id="Trazado_193933" data-name="Trazado 193933" d="M95.222,355.745a1.436,1.436,0,1,1-1.435,1.437A1.436,1.436,0,0,1,95.222,355.745Z" transform="translate(19.722 -310.81)" fill="#2194e5"/>
              <circle id="Elipse_5611" data-name="Elipse 5611" cx="0.317" cy="0.317" r="0.317" transform="translate(122.248 46.054)" fill="#2194e5"/>
              <circle id="Elipse_5612" data-name="Elipse 5612" cx="0.021" cy="0.021" r="0.021" transform="translate(0.634 38.731)" fill="#2194e5"/>
              <path id="Trazado_193934" data-name="Trazado 193934" d="M30.057,351.2a1.267,1.267,0,1,1-1.268,1.267A1.266,1.266,0,0,1,30.057,351.2Z" transform="translate(-21.782 -313.714)" fill="#2194e5"/>
              <path id="Trazado_193935" data-name="Trazado 193935" d="M34.773,351.1a1.436,1.436,0,1,1-1.437,1.435A1.435,1.435,0,0,1,34.773,351.1Z" transform="translate(-18.879 -313.78)" fill="#2194e5"/>
              <path id="Trazado_193936" data-name="Trazado 193936" d="M39.423,351.1a1.436,1.436,0,1,1-1.437,1.435,1.435,1.435,0,0,1,1.437-1.435" transform="translate(-15.909 -313.78)" fill="#2194e5"/>
              <path id="Trazado_193937" data-name="Trazado 193937" d="M44.073,351.1a1.436,1.436,0,1,1-1.437,1.435A1.435,1.435,0,0,1,44.073,351.1Z" transform="translate(-12.94 -313.78)" fill="#2194e5"/>
              <path id="Trazado_193938" data-name="Trazado 193938" d="M48.723,351.1a1.436,1.436,0,1,1-1.437,1.435A1.436,1.436,0,0,1,48.723,351.1Z" transform="translate(-9.971 -313.78)" fill="#2194e5"/>
              <path id="Trazado_193939" data-name="Trazado 193939" d="M53.373,351.1a1.436,1.436,0,1,1-1.437,1.435A1.436,1.436,0,0,1,53.373,351.1Z" transform="translate(-7.002 -313.78)" fill="#2194e5"/>
              <path id="Trazado_193940" data-name="Trazado 193940" d="M58.023,351.1a1.436,1.436,0,1,1-1.437,1.435A1.436,1.436,0,0,1,58.023,351.1Z" transform="translate(-4.032 -313.78)" fill="#2194e5"/>
              <path id="Trazado_193941" data-name="Trazado 193941" d="M62.673,351.1a1.436,1.436,0,1,1-1.437,1.435A1.436,1.436,0,0,1,62.673,351.1Z" transform="translate(-1.063 -313.78)" fill="#2194e5"/>
              <path id="Trazado_193942" data-name="Trazado 193942" d="M67.323,351.1a1.436,1.436,0,1,1-1.437,1.435A1.436,1.436,0,0,1,67.323,351.1Z" transform="translate(1.906 -313.78)" fill="#2194e5"/>
              <path id="Trazado_193943" data-name="Trazado 193943" d="M71.973,351.1a1.436,1.436,0,1,1-1.437,1.435A1.436,1.436,0,0,1,71.973,351.1Z" transform="translate(4.875 -313.78)" fill="#2194e5"/>
              <path id="Trazado_193944" data-name="Trazado 193944" d="M76.623,351.1a1.436,1.436,0,1,1-1.437,1.435A1.436,1.436,0,0,1,76.623,351.1Z" transform="translate(7.845 -313.78)" fill="#2194e5"/>
              <path id="Trazado_193945" data-name="Trazado 193945" d="M81.273,351.1a1.436,1.436,0,1,1-1.437,1.435A1.436,1.436,0,0,1,81.273,351.1Z" transform="translate(10.814 -313.78)" fill="#2194e5"/>
              <path id="Trazado_193946" data-name="Trazado 193946" d="M85.923,351.1a1.436,1.436,0,1,1-1.437,1.435A1.436,1.436,0,0,1,85.923,351.1Z" transform="translate(13.783 -313.78)" fill="#2194e5"/>
              <path id="Trazado_193947" data-name="Trazado 193947" d="M90.573,351.1a1.436,1.436,0,1,1-1.437,1.435A1.436,1.436,0,0,1,90.573,351.1Z" transform="translate(16.752 -313.78)" fill="#2194e5"/>
              <path id="Trazado_193948" data-name="Trazado 193948" d="M95.148,351.211a1.246,1.246,0,1,1-1.245,1.245A1.245,1.245,0,0,1,95.148,351.211Z" transform="translate(19.796 -313.705)" fill="#2194e5"/>
              <circle id="Elipse_5613" data-name="Elipse 5613" cx="0.042" cy="0.042" r="0.042" transform="translate(122.522 38.709)" fill="#2194e5"/>
              <path id="Trazado_193949" data-name="Trazado 193949" d="M29.794,346.96a.592.592,0,1,1-.593.591A.592.592,0,0,1,29.794,346.96Z" transform="translate(-21.519 -316.42)" fill="#2194e5"/>
              <path id="Trazado_193950" data-name="Trazado 193950" d="M34.773,346.445a1.436,1.436,0,1,1-1.437,1.435A1.435,1.435,0,0,1,34.773,346.445Z" transform="translate(-18.879 -316.749)" fill="#2194e5"/>
              <path id="Trazado_193951" data-name="Trazado 193951" d="M39.423,346.445a1.436,1.436,0,1,1-1.437,1.435A1.435,1.435,0,0,1,39.423,346.445Z" transform="translate(-15.909 -316.749)" fill="#2194e5"/>
              <path id="Trazado_193952" data-name="Trazado 193952" d="M44.073,346.445a1.436,1.436,0,1,1-1.437,1.435A1.435,1.435,0,0,1,44.073,346.445Z" transform="translate(-12.94 -316.749)" fill="#2194e5"/>
              <path id="Trazado_193953" data-name="Trazado 193953" d="M48.723,346.445a1.436,1.436,0,1,1-1.437,1.435A1.436,1.436,0,0,1,48.723,346.445Z" transform="translate(-9.971 -316.749)" fill="#2194e5"/>
              <path id="Trazado_193954" data-name="Trazado 193954" d="M53.373,346.445a1.436,1.436,0,1,1-1.437,1.435A1.436,1.436,0,0,1,53.373,346.445Z" transform="translate(-7.002 -316.749)" fill="#2194e5"/>
              <path id="Trazado_193955" data-name="Trazado 193955" d="M58.023,346.445a1.436,1.436,0,1,1-1.437,1.435A1.436,1.436,0,0,1,58.023,346.445Z" transform="translate(-4.032 -316.749)" fill="#2194e5"/>
              <path id="Trazado_193956" data-name="Trazado 193956" d="M62.673,346.445a1.436,1.436,0,1,1-1.437,1.435A1.436,1.436,0,0,1,62.673,346.445Z" transform="translate(-1.063 -316.749)" fill="#2194e5"/>
              <path id="Trazado_193957" data-name="Trazado 193957" d="M67.323,346.445a1.436,1.436,0,1,1-1.437,1.435A1.436,1.436,0,0,1,67.323,346.445Z" transform="translate(1.906 -316.749)" fill="#2194e5"/>
              <path id="Trazado_193958" data-name="Trazado 193958" d="M71.973,346.445a1.436,1.436,0,1,1-1.437,1.435A1.436,1.436,0,0,1,71.973,346.445Z" transform="translate(4.875 -316.749)" fill="#2194e5"/>
              <path id="Trazado_193959" data-name="Trazado 193959" d="M76.623,346.445a1.436,1.436,0,1,1-1.437,1.435A1.436,1.436,0,0,1,76.623,346.445Z" transform="translate(7.845 -316.749)" fill="#2194e5"/>
              <path id="Trazado_193960" data-name="Trazado 193960" d="M81.273,346.445a1.436,1.436,0,1,1-1.437,1.435A1.436,1.436,0,0,1,81.273,346.445Z" transform="translate(10.814 -316.749)" fill="#2194e5"/>
              <path id="Trazado_193961" data-name="Trazado 193961" d="M85.923,346.445a1.436,1.436,0,1,1-1.437,1.435A1.436,1.436,0,0,1,85.923,346.445Z" transform="translate(13.783 -316.749)" fill="#2194e5"/>
              <path id="Trazado_193962" data-name="Trazado 193962" d="M90.573,346.445a1.436,1.436,0,1,1-1.437,1.435A1.436,1.436,0,0,1,90.573,346.445Z" transform="translate(16.752 -316.749)" fill="#2194e5"/>
              <path id="Trazado_193963" data-name="Trazado 193963" d="M94.885,346.973a.571.571,0,1,1-.57.57A.571.571,0,0,1,94.885,346.973Z" transform="translate(20.059 -316.412)" fill="#2194e5"/>
              <circle id="Elipse_5614" data-name="Elipse 5614" cx="0.021" cy="0.021" r="0.021" transform="translate(8.253 23.492)" fill="#2194e5"/>
              <path id="Trazado_193964" data-name="Trazado 193964" d="M34.608,342.052a1.014,1.014,0,1,1-1.014,1.014A1.016,1.016,0,0,1,34.608,342.052Z" transform="translate(-18.714 -319.554)" fill="#2194e5"/>
              <circle id="Elipse_5615" data-name="Elipse 5615" cx="1.437" cy="1.437" r="1.437" transform="translate(22.076 22.076)" fill="#2194e5"/>
              <circle id="Elipse_5616" data-name="Elipse 5616" cx="1.437" cy="1.437" r="1.437" transform="translate(29.696 22.076)" fill="#2194e5"/>
              <circle id="Elipse_5617" data-name="Elipse 5617" cx="1.437" cy="1.437" r="1.437" transform="translate(37.315 22.076)" fill="#2194e5"/>
              <circle id="Elipse_5618" data-name="Elipse 5618" cx="1.437" cy="1.437" r="1.437" transform="translate(44.934 22.076)" fill="#2194e5"/>
              <circle id="Elipse_5619" data-name="Elipse 5619" cx="1.437" cy="1.437" r="1.437" transform="translate(52.554 22.076)" fill="#2194e5"/>
              <path id="Trazado_193965" data-name="Trazado 193965" d="M62.673,341.795a1.436,1.436,0,1,1-1.437,1.435A1.436,1.436,0,0,1,62.673,341.795Z" transform="translate(-1.063 -319.718)" fill="#2194e5"/>
              <path id="Trazado_193966" data-name="Trazado 193966" d="M67.323,341.795a1.436,1.436,0,1,1-1.437,1.435A1.436,1.436,0,0,1,67.323,341.795Z" transform="translate(1.906 -319.718)" fill="#2194e5"/>
              <path id="Trazado_193967" data-name="Trazado 193967" d="M71.973,341.795a1.436,1.436,0,1,1-1.437,1.435A1.436,1.436,0,0,1,71.973,341.795Z" transform="translate(4.875 -319.718)" fill="#2194e5"/>
              <path id="Trazado_193968" data-name="Trazado 193968" d="M76.623,341.795a1.436,1.436,0,1,1-1.437,1.435A1.436,1.436,0,0,1,76.623,341.795Z" transform="translate(7.845 -319.718)" fill="#2194e5"/>
              <path id="Trazado_193969" data-name="Trazado 193969" d="M81.273,341.795a1.436,1.436,0,1,1-1.437,1.435A1.436,1.436,0,0,1,81.273,341.795Z" transform="translate(10.814 -319.718)" fill="#2194e5"/>
              <path id="Trazado_193970" data-name="Trazado 193970" d="M85.923,341.795a1.436,1.436,0,1,1-1.437,1.435A1.436,1.436,0,0,1,85.923,341.795Z" transform="translate(13.783 -319.718)" fill="#2194e5"/>
              <path id="Trazado_193971" data-name="Trazado 193971" d="M90.4,342.065a.994.994,0,1,1-.993.993A.993.993,0,0,1,90.4,342.065Z" transform="translate(16.925 -319.546)" fill="#2194e5"/>
              <circle id="Elipse_5620" data-name="Elipse 5620" cx="0.021" cy="0.021" r="0.021" transform="translate(114.924 23.492)" fill="#2194e5"/>
              <circle id="Elipse_5621" data-name="Elipse 5621" cx="0.063" cy="0.063" r="0.063" transform="translate(15.83 15.83)" fill="#2194e5"/>
              <path id="Trazado_193972" data-name="Trazado 193972" d="M39.258,337.4a1.014,1.014,0,1,1-1.014,1.014A1.016,1.016,0,0,1,39.258,337.4Z" transform="translate(-15.745 -322.523)" fill="#2194e5"/>
              <circle id="Elipse_5622" data-name="Elipse 5622" cx="1.437" cy="1.437" r="1.437" transform="translate(29.696 14.457)" fill="#2194e5"/>
              <circle id="Elipse_5623" data-name="Elipse 5623" cx="1.437" cy="1.437" r="1.437" transform="translate(37.315 14.457)" fill="#2194e5"/>
              <circle id="Elipse_5624" data-name="Elipse 5624" cx="1.437" cy="1.437" r="1.437" transform="translate(44.934 14.457)" fill="#2194e5"/>
              <circle id="Elipse_5625" data-name="Elipse 5625" cx="1.437" cy="1.437" r="1.437" transform="translate(52.554 14.457)" fill="#2194e5"/>
              <path id="Trazado_193973" data-name="Trazado 193973" d="M62.673,337.145a1.436,1.436,0,1,1-1.437,1.435A1.436,1.436,0,0,1,62.673,337.145Z" transform="translate(-1.063 -322.687)" fill="#2194e5"/>
              <path id="Trazado_193974" data-name="Trazado 193974" d="M67.323,337.145a1.436,1.436,0,1,1-1.437,1.435A1.436,1.436,0,0,1,67.323,337.145Z" transform="translate(1.906 -322.687)" fill="#2194e5"/>
              <path id="Trazado_193975" data-name="Trazado 193975" d="M71.973,337.145a1.436,1.436,0,1,1-1.437,1.435A1.436,1.436,0,0,1,71.973,337.145Z" transform="translate(4.875 -322.687)" fill="#2194e5"/>
              <path id="Trazado_193976" data-name="Trazado 193976" d="M76.623,337.145a1.436,1.436,0,1,1-1.437,1.435A1.436,1.436,0,0,1,76.623,337.145Z" transform="translate(7.845 -322.687)" fill="#2194e5"/>
              <path id="Trazado_193977" data-name="Trazado 193977" d="M81.273,337.145a1.436,1.436,0,1,1-1.437,1.435A1.436,1.436,0,0,1,81.273,337.145Z" transform="translate(10.814 -322.687)" fill="#2194e5"/>
              <path id="Trazado_193978" data-name="Trazado 193978" d="M85.75,337.415a.993.993,0,1,1-.993.993A.993.993,0,0,1,85.75,337.415Z" transform="translate(13.956 -322.515)" fill="#2194e5"/>
              <path id="Trazado_193979" data-name="Trazado 193979" d="M90.046,337.97a.084.084,0,1,1-.084.084A.084.084,0,0,1,90.046,337.97Z" transform="translate(17.28 -322.16)" fill="#2194e5"/>
              <circle id="Elipse_5626" data-name="Elipse 5626" cx="0.021" cy="0.021" r="0.021" transform="translate(23.492 8.253)" fill="#2194e5"/>
              <path id="Trazado_193980" data-name="Trazado 193980" d="M43.744,333.01a.592.592,0,1,1-.592.591A.592.592,0,0,1,43.744,333.01Z" transform="translate(-12.611 -325.328)" fill="#2194e5"/>
              <path id="Trazado_193981" data-name="Trazado 193981" d="M48.649,332.611a1.246,1.246,0,1,1-1.247,1.245A1.246,1.246,0,0,1,48.649,332.611Z" transform="translate(-9.897 -325.582)" fill="#2194e5"/>
              <circle id="Elipse_5627" data-name="Elipse 5627" cx="1.437" cy="1.437" r="1.437" transform="translate(44.934 6.838)" fill="#2194e5"/>
              <circle id="Elipse_5628" data-name="Elipse 5628" cx="1.437" cy="1.437" r="1.437" transform="translate(52.554 6.838)" fill="#2194e5"/>
              <path id="Trazado_193982" data-name="Trazado 193982" d="M62.673,332.5a1.436,1.436,0,1,1-1.437,1.435A1.436,1.436,0,0,1,62.673,332.5Z" transform="translate(-1.063 -325.657)" fill="#2194e5"/>
              <path id="Trazado_193983" data-name="Trazado 193983" d="M67.323,332.5a1.436,1.436,0,1,1-1.437,1.435A1.436,1.436,0,0,1,67.323,332.5Z" transform="translate(1.906 -325.657)" fill="#2194e5"/>
              <path id="Trazado_193984" data-name="Trazado 193984" d="M71.973,332.5a1.436,1.436,0,1,1-1.437,1.435A1.436,1.436,0,0,1,71.973,332.5Z" transform="translate(4.875 -325.657)" fill="#2194e5"/>
              <path id="Trazado_193985" data-name="Trazado 193985" d="M76.549,332.611a1.246,1.246,0,1,1-1.247,1.245A1.246,1.246,0,0,1,76.549,332.611Z" transform="translate(7.919 -325.582)" fill="#2194e5"/>
              <path id="Trazado_193986" data-name="Trazado 193986" d="M80.935,333.023a.57.57,0,1,1-.57.57A.571.571,0,0,1,80.935,333.023Z" transform="translate(11.152 -325.319)" fill="#2194e5"/>
              <circle id="Elipse_5629" data-name="Elipse 5629" cx="0.021" cy="0.021" r="0.021" transform="translate(99.686 8.253)" fill="#2194e5"/>
              <circle id="Elipse_5630" data-name="Elipse 5630" cx="0.042" cy="0.042" r="0.042" transform="translate(38.709 0.613)" fill="#2194e5"/>
              <path id="Trazado_193987" data-name="Trazado 193987" d="M52.936,328.528a.317.317,0,1,1-.316.316A.315.315,0,0,1,52.936,328.528Z" transform="translate(-6.565 -328.19)" fill="#2194e5"/>
              <path id="Trazado_193988" data-name="Trazado 193988" d="M57.694,328.36a.592.592,0,1,1-.592.592A.592.592,0,0,1,57.694,328.36Z" transform="translate(-3.703 -328.297)" fill="#2194e5"/>
              <circle id="Elipse_5631" data-name="Elipse 5631" cx="0.655" cy="0.655" r="0.655" transform="translate(60.955)" fill="#2194e5"/>
              <path id="Trazado_193989" data-name="Trazado 193989" d="M66.994,328.36a.592.592,0,1,1-.592.592A.592.592,0,0,1,66.994,328.36Z" transform="translate(2.236 -328.297)" fill="#2194e5"/>
              <path id="Trazado_193990" data-name="Trazado 193990" d="M71.536,328.528a.317.317,0,1,1-.316.316A.315.315,0,0,1,71.536,328.528Z" transform="translate(5.312 -328.19)" fill="#2194e5"/>
              <circle id="Elipse_5632" data-name="Elipse 5632" cx="0.042" cy="0.042" r="0.042" transform="translate(84.426 0.613)" fill="#2194e5"/>
            </g>
            <path id="Trazado_194144" data-name="Trazado 194144" d="M28.858,36.3h91.906c-.152-4.326-6.757-7.832-15.079-8.094.022-.359.055-.715.055-1.08A17.583,17.583,0,0,0,73.182,17.9a13.765,13.765,0,0,0-16.559,5.825c-7.721.546-13.744,4.153-13.669,7.988-4.846-2.286-12.9.409-14.1,4.586" transform="translate(40.579 13.401)" fill="#fff"/>
            <path id="Trazado_194145" data-name="Trazado 194145" d="M318.722,87.767c-1.372-10.164-9.444-32.12-17.563-36.331a7.028,7.028,0,0,0-1.59-.6c-.034-.334-.048-.679-.084-1.013a42.886,42.886,0,0,0-50.044,20.226,32.64,32.64,0,0,0-56.266,4.425A20.942,20.942,0,0,0,181.7,69.355a29.857,29.857,0,0,0-56.882-9.069A36.811,36.811,0,0,0,67.684,58.83c-.038,1.23-.094,2.452-.094,3.689,0,2.673.115,5.32.294,7.948a302.231,302.231,0,0,0-47.762-1.744,17.493,17.493,0,0,0-7.137,1.35,14.286,14.286,0,0,0-4.949,4.61,34.339,34.339,0,0,0,12.543,50.941c7.336,3.636,15.71,4.531,23.893,4.841a190.891,190.891,0,0,0,42.823-3.248c1.5,2.238,3.063,4.43,4.714,6.554H275.77c.13-.168.253-.342.38-.51.63.014,1.261.038,1.889.048a221.331,221.331,0,0,0,28.335-1.429c4.454-.513,9.432-1.516,12-5.751,1.725-2.844,1.942-6.523,2-10a188.022,188.022,0,0,0-1.655-28.366" transform="translate(2.133 60.097)" fill="#287559"/>
            <path id="Trazado_194146" data-name="Trazado 194146" d="M176.649,110.406c83.234,5.046,101.577-2.44,126.646-29.834H13.155c25.067,27.394,119.572,27.17,163.494,29.834" transform="translate(18.498 113.298)" fill="#7c5757"/>
            <path id="Trazado_194147" data-name="Trazado 194147" d="M96.317,96.607l-2.5-.226c.063-.7.082-2.252.1-4.052.094-7.8.33-15.655,2.04-18.491L107.9,56.624l2.064,1.434L98.066,75.2c-1.458,2.421-1.574,12.007-1.634,17.156-.024,1.93-.043,3.453-.115,4.249" transform="translate(131.923 79.623)" fill="#c6c6c6"/>
            <path id="Trazado_194148" data-name="Trazado 194148" d="M102.673,56.665,97.545,64.02a.776.776,0,0,0,.19,1.08l1.379.958a.771.771,0,0,0,1.078-.19l5.13-7.356a.777.777,0,0,0-.192-1.078l-1.379-.962a.775.775,0,0,0-1.078.193" transform="translate(136.968 79.214)" fill="#898989" fill-rule="evenodd"/>
            <path id="Trazado_194149" data-name="Trazado 194149" d="M85.1,74.321l-6.258,4.213a3.661,3.661,0,0,1,.041-3.147,2.923,2.923,0,0,1,2.38-2.192A6.863,6.863,0,0,1,85.1,74.321" transform="translate(110.395 102.924)" fill="#a88585"/>
            <path id="Trazado_194150" data-name="Trazado 194150" d="M85.657,27.2l-46.3,37.053-.091,5L91.8,27.213Z" transform="translate(55.211 38.249)" fill="#2b646f"/>
            <path id="Trazado_194151" data-name="Trazado 194151" d="M44.132,27.168c-1.812,7.45-3.154,14.978-4.247,22.551l28.123-22.5Z" transform="translate(56.085 38.203)" fill="#2b646f"/>
            <path id="Trazado_194152" data-name="Trazado 194152" d="M95.84,27.209l2.726,3.407-56.114,44.9L39.4,71.708l-.272,14.685,11.48,0,0-.611H81.824V58.626h18.691V27.218Z" transform="translate(55.025 38.26)" fill="#2b646f"/>
            <path id="Trazado_194153" data-name="Trazado 194153" d="M68.827,27.187l-28.121,22.5c-.479,3.318-.926,6.641-1.319,9.976l-.087,4.6L85.6,27.218Z" transform="translate(55.264 38.23)" fill="#4eaaa7"/>
            <path id="Trazado_194154" data-name="Trazado 194154" d="M98.407,30.62l-2.726-3.407-3.857-.007L39.29,69.246l-.046,2.466L42.3,75.524Z" transform="translate(55.184 38.255)" fill="#4eaaa7"/>
            <rect id="Rectángulo_45380" data-name="Rectángulo 45380" width="26.016" height="5.703" transform="translate(95.862 120.819)" fill="#404041"/>
            <path id="Trazado_194155" data-name="Trazado 194155" d="M77.291,50.138c5.188,0,9.4-2.483,9.4-5.546s-4.208-5.544-9.4-5.544S67.9,41.531,67.9,44.592s4.206,5.546,9.394,5.546" transform="translate(95.475 54.908)" fill="#17854a" fill-rule="evenodd"/>
            <path id="Trazado_194156" data-name="Trazado 194156" d="M79.244,44.961a3.466,3.466,0,0,0,.051-.57c0-2.385-2.558-4.418-6.141-5.2a9.87,9.87,0,0,0,6.09,5.77" transform="translate(102.867 55.109)" fill="#f48120" fill-rule="evenodd"/>
            <rect id="Rectángulo_45381" data-name="Rectángulo 45381" width="91.73" height="3.855" transform="translate(60.558 148.672)" fill="#404041"/>
            <path id="Trazado_194157" data-name="Trazado 194157" d="M80.212,29.917V67.355H77.238V29.917H39.928l.534-2.524,56.855-1.477v4Z" transform="translate(56.146 36.442)" fill="#404041" fill-rule="evenodd"/>
            <path id="Trazado_194158" data-name="Trazado 194158" d="M68.228,27.449,72.372,58.9l-6.035.168L63.58,27.8Z" transform="translate(89.404 38.598)" fill="#404041" fill-rule="evenodd"/>
            <path id="Trazado_194159" data-name="Trazado 194159" d="M88.081,37.843c-5.5,0-19.945,2.411-22.94,4.709-5.864,4.5-17.543,23.715-16.206,35.929,1.408,12.835,29.045,3.982,33.576-14.99.582-2.442,13.265-26.083,5.57-25.647" transform="translate(68.662 53.206)" fill="#404041" fill-rule="evenodd"/>
            <rect id="Rectángulo_45382" data-name="Rectángulo 45382" width="3.058" height="65.664" transform="translate(103.831 65.547)" fill="#404041"/>
            <path id="Trazado_194160" data-name="Trazado 194160" d="M3.268,58.856l.383-3.985A1.84,1.84,0,0,1,6.309,53.4l10.354,5.18Z" transform="translate(4.595 74.806)" fill="#17854a" fill-rule="evenodd"/>
            <path id="Trazado_194161" data-name="Trazado 194161" d="M33.6,90.947,30.185,68.493l-2.43-9.779c-1.121-4.519-4.331-5.075-7.765-5.075H9.379c8.479-8.884,55.453-10.758,73.826-10.758l0,26.747h23.337c3.106-10.888,10.835-23.641,16.239-26.559,42.7-13.337,61.078,11.136,60.917,15.039-.474,11.634-23.188,2.871-26.4,20.315-2.317,12.587-11.956,21.586-24.312,21.586-7.382,0-10.65-8.576-18.191-8.617Z" transform="translate(13.188 55.021)" fill="#00a551" fill-rule="evenodd"/>
            <path id="Trazado_194162" data-name="Trazado 194162" d="M9.378,45.792l3.118,27.6H38.7L30.374,44.709Z" transform="translate(13.187 62.869)" fill="#404041" fill-rule="evenodd"/>
            <path id="Trazado_194163" data-name="Trazado 194163" d="M10.038,45.17l3.778,27.683h1.6l-3.879-27.76Z" transform="translate(14.115 63.409)" fill="#231f20" fill-rule="evenodd"/>
            <path id="Trazado_194164" data-name="Trazado 194164" d="M11.5,45.1l3.8,27.863h1.6l-3.9-27.94Z" transform="translate(16.164 63.303)" fill="#231f20" fill-rule="evenodd"/>
            <path id="Trazado_194165" data-name="Trazado 194165" d="M12.953,45.02l3.826,28.046h1.6L14.45,44.943Z" transform="translate(18.214 63.197)" fill="#231f20" fill-rule="evenodd"/>
            <path id="Trazado_194166" data-name="Trazado 194166" d="M14.411,44.945l3.852,28.227h1.6l-3.953-28.3Z" transform="translate(20.264 63.092)" fill="#231f20" fill-rule="evenodd"/>
            <path id="Trazado_194167" data-name="Trazado 194167" d="M15.868,44.869l3.876,28.407h1.6l-3.98-28.484Z" transform="translate(22.313 62.986)" fill="#231f20" fill-rule="evenodd"/>
            <path id="Trazado_194168" data-name="Trazado 194168" d="M17.326,44.794l3.9,28.588h1.6l-4-28.665Z" transform="translate(24.363 62.88)" fill="#231f20" fill-rule="evenodd"/>
            <path id="Trazado_194169" data-name="Trazado 194169" d="M95.524,68.59c.361,2.68-1.037,5.294-3.263,5.958-2.344.7-4.714-1.025-5.294-3.85a6.251,6.251,0,0,1,.217-3.3H79c-.481,0-.873-.14-.873-.308V65.893c0-.168.392-.308.873-.308H89.663c.481,0,.873.14.873.308v1.193c0,.168-.392.308-.873.308h-.642a6.523,6.523,0,0,0,.13,1.145c.476,2.322,2.074,3.843,3.571,3.4,1.073-.32,1.8-1.559,1.954-3.092Z" transform="translate(109.854 92.224)" fill="#00a551" fill-rule="evenodd"/>
            <rect id="Rectángulo_45383" data-name="Rectángulo 45383" width="3.049" height="27.154" transform="translate(95.725 97.498)" fill="#404041"/>
            <path id="Trazado_194170" data-name="Trazado 194170" d="M0,57.575C0,60.344.561,70.9,1.321,71.639c1.155,1.121,16.23,1.86,21.855,1.86,7.741,0,6.944-18.932.707-18.932C20.156,54.567.306,56.037,0,57.575" transform="translate(0 76.73)" fill="#00a551" fill-rule="evenodd"/>
            <path id="Trazado_194171" data-name="Trazado 194171" d="M40.15,28.88c.219-4,34.935-4.728,53.232-3.441,6.451.452,7.454,2.476,7.837,6H96.524c-.327-1.417-1.078-2.56-6.975-2.56Z" transform="translate(56.458 34.955)" fill="#00a551" fill-rule="evenodd"/>
            <path id="Trazado_194172" data-name="Trazado 194172" d="M39.55,39.661H79.245v2.577l-40.111-.111Z" transform="translate(55.029 55.77)" fill="#404041" fill-rule="evenodd"/>
            <path id="Trazado_194173" data-name="Trazado 194173" d="M66.11,28.1h0a2.782,2.782,0,0,1,3.5-1.781l1.788.58-1.711,5.277-1.79-.582A2.781,2.781,0,0,1,66.11,28.1" transform="translate(92.774 36.822)" fill="#404041" fill-rule="evenodd"/>
            <path id="Trazado_194174" data-name="Trazado 194174" d="M39.059,29.8h3.823a1.244,1.244,0,0,1,1.239,1.239V43.994a1.244,1.244,0,0,1-1.239,1.239H39.059a1.244,1.244,0,0,1-1.239-1.239V31.039A1.244,1.244,0,0,1,39.059,29.8" transform="translate(53.181 41.904)" fill="#404041" fill-rule="evenodd"/>
            <path id="Trazado_194175" data-name="Trazado 194175" d="M39.951,35.86H38.8V31.271a4.271,4.271,0,0,1,4.237-4.264l5.869-.031,0,1.153-5.869.031a3.113,3.113,0,0,0-3.09,3.111Z" transform="translate(54.557 37.933)" fill="#404041"/>
            <path id="Trazado_194176" data-name="Trazado 194176" d="M16.034,46.878c8.677-3.458,31.295-4.3,55.207-5.01L71.063,45.2c-17.259-.2-35.294.14-55.029,1.675" transform="translate(22.547 58.874)" fill="#ffdd0f" fill-rule="evenodd"/>
            <path id="Trazado_194177" data-name="Trazado 194177" d="M130.589,59.658c-1.853-6.624-26.723-24.572-49.021-17.957-20.26,6.008-31.444,19.805-31.783,48.056l26.239-.017Z" transform="translate(70.006 56.613)" fill="#404041" fill-rule="evenodd"/>
            <path id="Trazado_194178" data-name="Trazado 194178" d="M90.092,44.361A38.786,38.786,0,1,1,51.305,83.148,38.793,38.793,0,0,1,90.092,44.361" transform="translate(72.144 62.379)" fill="#404041" fill-rule="evenodd"/>
            <path id="Trazado_194179" data-name="Trazado 194179" d="M86.863,46.657A33.262,33.262,0,1,1,53.6,79.917a33.264,33.264,0,0,1,33.261-33.26" transform="translate(75.374 65.608)" fill="#58595b" fill-rule="evenodd"/>
            <path id="Trazado_194180" data-name="Trazado 194180" d="M88.333,44.332l-.325,6.918c.712-.048,1.427-.075,2.146-.075.368,0,.731.01,1.092.022l-.6-6.9c-.164,0-.325,0-.491,0q-.917,0-1.821.043m8.133.467c.763.125,1.521.272,2.269.44l-.847,6.877a32.111,32.111,0,0,0-3.179-.618Zm7.859,2.149q1.079.422,2.127.9l-2.259,6.554a31.975,31.975,0,0,0-2.976-1.273Zm7.233,3.744c.642.426,1.275.866,1.894,1.328l-3.571,5.938q-1.274-.993-2.649-1.86Zm6.3,5.164q.816.823,1.578,1.694L114.7,62.614q-1.043-1.238-2.206-2.37Zm5.1,6.357c.416.647.811,1.309,1.191,1.983l-5.679,3.973a32.006,32.006,0,0,0-1.667-2.777Zm3.66,7.276q.408,1.079.756,2.185l-6.384,2.707a30.785,30.785,0,0,0-1.051-3.061Zm2.062,7.88c.115.758.207,1.526.277,2.3l-6.8,1.321q-.115-1.631-.387-3.215Zm.375,8.138c-.046.772-.113,1.542-.2,2.3l-6.93-.123a31.6,31.6,0,0,0,.284-3.224Zm-1.314,8.039c-.2.746-.426,1.485-.674,2.211L120.306,94.2a31.976,31.976,0,0,0,.95-3.094Zm-2.962,7.589c-.354.683-.731,1.357-1.126,2.019l-6.28-2.931q.855-1.372,1.576-2.83Zm-4.48,6.8q-.733.9-1.521,1.744l-5.532-4.172a32.063,32.063,0,0,0,2.129-2.44Zm-5.792,5.727q-.9.722-1.846,1.393l-4.545-5.231a30.938,30.938,0,0,0,2.587-1.949Zm-6.853,4.4q-1.029.52-2.093.979l-3.361-6.064a31.635,31.635,0,0,0,2.936-1.369Zm-7.62,2.88c-.741.192-1.494.366-2.252.517l-2.026-6.629a31.971,31.971,0,0,0,3.157-.724Zm-8.053,1.22c-.6.029-1.208.043-1.819.043-.164,0-.33,0-.493,0l-.6-6.9c.363.012.729.022,1.095.022.722,0,1.434-.029,2.144-.075Zm-8.13-.469c-.765-.125-1.523-.269-2.269-.44l.845-6.877A32.113,32.113,0,0,0,85.6,115Zm-7.859-2.149c-.719-.279-1.427-.585-2.127-.9l2.259-6.554a32.25,32.25,0,0,0,2.976,1.273ZM68.751,115.8c-.642-.426-1.275-.866-1.894-1.328l3.571-5.941q1.278,1,2.652,1.862Zm-6.3-5.164q-.812-.823-1.576-1.694L65.6,103.88q1.047,1.242,2.206,2.37Zm-5.094-6.355q-.624-.974-1.191-1.983l5.679-3.973a31.981,31.981,0,0,0,1.665,2.777ZM53.7,97.008c-.272-.719-.527-1.446-.756-2.185l6.381-2.707a32.3,32.3,0,0,0,1.051,3.061Zm-2.064-7.88c-.113-.758-.2-1.526-.274-2.3l6.8-1.321a32.037,32.037,0,0,0,.387,3.215Zm-.375-8.135q.069-1.162.2-2.305l6.927.123a32.339,32.339,0,0,0-.282,3.227Zm1.314-8.039c.2-.746.426-1.485.674-2.214L60,72.3a32.018,32.018,0,0,0-.95,3.1Zm2.962-7.589c.354-.686.731-1.359,1.124-2.021l6.28,2.933A31.99,31.99,0,0,0,61.367,69.1Zm4.48-6.8q.733-.9,1.518-1.744L67.07,60.99a31.539,31.539,0,0,0-2.129,2.44Zm5.792-5.724q.9-.725,1.846-1.4L72.2,56.674q-1.343.91-2.587,1.949Zm6.85-4.406q1.032-.52,2.1-.979l3.359,6.064a31.62,31.62,0,0,0-2.936,1.367Zm7.62-2.88c.744-.195,1.494-.366,2.255-.517l2.024,6.629a31.293,31.293,0,0,0-3.157.722Z" transform="translate(72.082 62.278)" fill="#58595b" fill-rule="evenodd"/>
            <path id="Trazado_194181" data-name="Trazado 194181" d="M80.017,51.525A21.548,21.548,0,1,1,58.47,73.072,21.549,21.549,0,0,1,80.017,51.525" transform="translate(82.219 72.453)" fill="#ffdd0f" fill-rule="evenodd"/>
            <path id="Trazado_194182" data-name="Trazado 194182" d="M77.822,53.087A17.791,17.791,0,1,1,60.031,70.878,17.793,17.793,0,0,1,77.822,53.087" transform="translate(84.414 74.649)" fill="#eeb926" fill-rule="evenodd"/>
            <path id="Trazado_194183" data-name="Trazado 194183" d="M71.752,57.4a7.4,7.4,0,1,1-7.4,7.4,7.4,7.4,0,0,1,7.4-7.4" transform="translate(90.484 80.72)" fill="#ffdd0f" fill-rule="evenodd"/>
            <path id="Trazado_194184" data-name="Trazado 194184" d="M68.093,55.659A1.144,1.144,0,1,1,66.95,56.8a1.144,1.144,0,0,1,1.143-1.143" transform="translate(94.143 78.266)" fill="#ffdd0f" fill-rule="evenodd"/>
            <path id="Trazado_194185" data-name="Trazado 194185" d="M64.866,56.708a1.144,1.144,0,1,1-.253,1.6,1.143,1.143,0,0,1,.253-1.6" transform="translate(90.551 79.433)" fill="#ffdd0f" fill-rule="evenodd"/>
            <path id="Trazado_194186" data-name="Trazado 194186" d="M62.872,59.452a1.144,1.144,0,1,1,.734,1.441,1.144,1.144,0,0,1-.734-1.441" transform="translate(88.329 82.488)" fill="#ffdd0f" fill-rule="evenodd"/>
            <path id="Trazado_194187" data-name="Trazado 194187" d="M62.872,62.845a1.144,1.144,0,1,1,1.441.734,1.144,1.144,0,0,1-1.441-.734" transform="translate(88.329 86.265)" fill="#ffdd0f" fill-rule="evenodd"/>
            <path id="Trazado_194188" data-name="Trazado 194188" d="M64.865,65.59a1.144,1.144,0,1,1,1.6-.253,1.145,1.145,0,0,1-1.6.253" transform="translate(90.549 89.322)" fill="#ffdd0f" fill-rule="evenodd"/>
            <path id="Trazado_194189" data-name="Trazado 194189" d="M68.092,66.639a1.144,1.144,0,1,1,1.143-1.145,1.144,1.144,0,0,1-1.143,1.145" transform="translate(94.142 90.488)" fill="#ffdd0f" fill-rule="evenodd"/>
            <path id="Trazado_194190" data-name="Trazado 194190" d="M71.319,65.591a1.144,1.144,0,1,1,.253-1.6,1.145,1.145,0,0,1-.253,1.6" transform="translate(97.734 89.323)" fill="#ffdd0f" fill-rule="evenodd"/>
            <path id="Trazado_194191" data-name="Trazado 194191" d="M73.314,62.846A1.144,1.144,0,1,1,72.58,61.4a1.145,1.145,0,0,1,.734,1.441" transform="translate(99.954 86.267)" fill="#ffdd0f" fill-rule="evenodd"/>
            <path id="Trazado_194192" data-name="Trazado 194192" d="M73.314,59.453a1.144,1.144,0,1,1-1.441-.734,1.145,1.145,0,0,1,1.441.734" transform="translate(99.954 82.49)" fill="#ffdd0f" fill-rule="evenodd"/>
            <path id="Trazado_194193" data-name="Trazado 194193" d="M71.32,56.707a1.144,1.144,0,1,1-1.6.253,1.145,1.145,0,0,1,1.6-.253" transform="translate(97.735 79.434)" fill="#ffdd0f" fill-rule="evenodd"/>
            <rect id="Rectángulo_45384" data-name="Rectángulo 45384" width="1.771" height="15.079" transform="translate(104.791 53.797)" fill="#404041"/>
            <path id="Trazado_194194" data-name="Trazado 194194" d="M45.68,19.187h0A3.02,3.02,0,0,1,48.692,22.2v2.048a3.013,3.013,0,0,1-6.025,0V22.2a3.02,3.02,0,0,1,3.013-3.013" transform="translate(59.997 26.98)" fill="#f48120" fill-rule="evenodd"/>
            <path id="Trazado_194195" data-name="Trazado 194195" d="M48.693,21.252v.091a3.014,3.014,0,0,1-6.027,0v-.091Z" transform="translate(59.996 29.884)" fill="#404041" fill-rule="evenodd"/>
            <path id="Trazado_194196" data-name="Trazado 194196" d="M18.106,45.586C29.68,44.5,52.651,44.08,70.262,44.1l0,18.54h23.21l-.917,21.708-62.286-.339-9.1-27.875Z" transform="translate(25.46 62.01)" fill="#17854a" fill-rule="evenodd"/>
            <path id="Trazado_194197" data-name="Trazado 194197" d="M17.73,52.843h0c.017,1.843-2.129,3.359-4.774,3.371L9.7,56.228l-.063-6.7,3.258-.012C15.536,49.5,17.711,51,17.73,52.843" transform="translate(13.55 69.626)" fill="#58595b" fill-rule="evenodd"/>
            <path id="Trazado_194198" data-name="Trazado 194198" d="M47.869,53.289l-1.516,31.4H52.09l1.771-31.4Z" transform="translate(65.181 74.934)" fill="#00a551" fill-rule="evenodd"/>
            <path id="Trazado_194199" data-name="Trazado 194199" d="M37.863,50.237H54.134L52.3,86.279H42.447a1.843,1.843,0,0,1-1.838-1.7c-.833-11.071-2.166-21.1-5.1-27.767a1.778,1.778,0,0,1,.014-1.516Z" transform="translate(49.698 70.642)" fill="#58595b" fill-rule="evenodd"/>
            <path id="Trazado_194200" data-name="Trazado 194200" d="M43.172,53.289,41.651,84.771l5.741-.084,1.771-31.4Z" transform="translate(58.568 74.934)" fill="#00a551" fill-rule="evenodd"/>
            <rect id="Rectángulo_45385" data-name="Rectángulo 45385" width="14.687" height="1.518" transform="translate(103.006 134.3)" fill="#a5cd39"/>
            <rect id="Rectángulo_45386" data-name="Rectángulo 45386" width="14.687" height="1.518" transform="translate(102.332 145.273)" fill="#a5cd39"/>
            <rect id="Rectángulo_45387" data-name="Rectángulo 45387" width="14.687" height="1.518" transform="translate(101.656 158.102)" fill="#a5cd39"/>
            <path id="Trazado_194201" data-name="Trazado 194201" d="M22.682,64.595,20,49.431a3.773,3.773,0,0,1,1.061-3.369,5.176,5.176,0,0,1,3.616-1.6l4.86-.25A4.913,4.913,0,0,1,34.8,47.792l3.082,15.224a3.764,3.764,0,0,1-1.042,3.453,5.2,5.2,0,0,1-3.71,1.607l-5.257.188a4.88,4.88,0,0,1-5.193-3.669" transform="translate(28.033 62.165)" fill="#00a551" fill-rule="evenodd"/>
            <path id="Trazado_194202" data-name="Trazado 194202" d="M22.679,62.327,20.716,49.4a3.685,3.685,0,0,1,3.424-4.235l3.554-.212A3.673,3.673,0,0,1,31.546,48L33.8,60.982A3.69,3.69,0,0,1,30.324,65.3l-3.845.159a3.673,3.673,0,0,1-3.8-3.128" transform="translate(29.065 63.201)" fill="#404041" fill-rule="evenodd"/>
            <path id="Trazado_194203" data-name="Trazado 194203" d="M20.437,47.908l13.289-1.3-.094,1.487-13.2,1.3Z" transform="translate(28.738 65.537)" fill="#00a551" fill-rule="evenodd"/>
            <path id="Trazado_194204" data-name="Trazado 194204" d="M21.04,52.874l12.851-3.628.171,1.482L21.3,54.339Z" transform="translate(29.586 69.248)" fill="#00a551" fill-rule="evenodd"/>
            <path id="Trazado_194205" data-name="Trazado 194205" d="M13.5,51.654C41.616,41.608,66.5,61.418,65.271,83.75q-1.812.606-3.626,1.21c-4.273-29.4-24.719-37.12-45.537-31.911.4-.59-3.005-.806-2.6-1.4" transform="translate(18.943 68.861)" fill="#6d6e70" fill-rule="evenodd"/>
            <path id="Trazado_194206" data-name="Trazado 194206" d="M37.857,50.237H54.127l-.286,5.642H35.347a1.888,1.888,0,0,1,.166-.587Z" transform="translate(49.704 70.642)" fill="#6d6e70" fill-rule="evenodd"/>
            <path id="Trazado_194207" data-name="Trazado 194207" d="M37.588,48.308h2.279a.762.762,0,0,1,.76.76v4.05a.762.762,0,0,1-.76.76H37.588a.764.764,0,0,1-.76-.76v-4.05a.764.764,0,0,1,.76-.76" transform="translate(51.786 67.929)" fill="#58595b" fill-rule="evenodd"/>
            <path id="Trazado_194208" data-name="Trazado 194208" d="M42.282,50.212H61.529a46.565,46.565,0,0,0-1.658,7.476H42.282Z" transform="translate(59.456 70.607)" fill="#404041" fill-rule="evenodd"/>
            <path id="Trazado_194209" data-name="Trazado 194209" d="M4.861,53.655a.912.912,0,1,1-.912.912.913.913,0,0,1,.912-.912" transform="translate(5.553 75.448)" fill="#fff" fill-rule="evenodd"/>
            <path id="Trazado_194210" data-name="Trazado 194210" d="M36.843,50.81A31.114,31.114,0,1,1,5.729,81.924,31.116,31.116,0,0,1,36.843,50.81" transform="translate(8.056 71.448)" fill="#404041" fill-rule="evenodd"/>
            <path id="Trazado_194211" data-name="Trazado 194211" d="M34.253,52.652A26.682,26.682,0,1,1,7.571,79.334,26.686,26.686,0,0,1,34.253,52.652" transform="translate(10.646 74.038)" fill="#58595b" fill-rule="evenodd"/>
            <path id="Trazado_194212" data-name="Trazado 194212" d="M35.431,50.787l-.26,5.549q.855-.058,1.72-.058c.294,0,.587.007.878.017l-.484-5.537c-.13,0-.262,0-.395,0-.488,0-.977.012-1.461.034m6.523.375q.92.148,1.821.351L43.1,57.031q-1.252-.307-2.551-.493Zm6.3,1.723q.866.339,1.706.727l-1.812,5.257a25.229,25.229,0,0,0-2.387-1.02Zm5.8,3.005q.776.509,1.521,1.064L52.714,61.72a25.147,25.147,0,0,0-2.125-1.494Zm5.053,4.141q.653.66,1.266,1.357l-3.792,4.066a25.979,25.979,0,0,0-1.771-1.9Zm4.088,5.1q.5.78.955,1.59L59.6,69.909a25.042,25.042,0,0,0-1.338-2.228Zm2.938,5.837c.217.577.421,1.162.6,1.752l-5.12,2.173a25.913,25.913,0,0,0-.842-2.457Zm1.653,6.321c.091.609.164,1.225.221,1.843L62.556,80.19c-.06-.871-.166-1.732-.31-2.579Zm.3,6.528q-.054.931-.161,1.848l-5.558-.1q.177-1.278.229-2.589Zm-1.054,6.451c-.164.6-.342,1.189-.541,1.773l-5.416-1.254c.294-.808.546-1.639.76-2.483Zm-2.377,6.085c-.284.551-.585,1.09-.9,1.622L58.72,95.623a25.467,25.467,0,0,0,1.263-2.269Zm-3.595,5.457c-.392.479-.8.943-1.218,1.4l-4.439-3.347A25.423,25.423,0,0,0,57.118,97.9ZM56.422,106.4c-.484.385-.977.76-1.482,1.116l-3.645-4.194a25.835,25.835,0,0,0,2.074-1.564Zm-5.5,3.532q-.827.415-1.68.784l-2.695-4.863a25.873,25.873,0,0,0,2.356-1.1Zm-6.112,2.31c-.6.154-1.2.294-1.809.414l-1.624-5.318a24.652,24.652,0,0,0,2.534-.58Zm-6.461.979c-.484.022-.97.036-1.461.036-.132,0-.262,0-.395-.007l-.484-5.537c.291.01.585.017.878.017.58,0,1.15-.022,1.72-.058Zm-6.523-.375c-.614-.1-1.22-.217-1.821-.354l.679-5.517a25.533,25.533,0,0,0,2.551.5Zm-6.3-1.725c-.575-.224-1.145-.467-1.706-.727l1.812-5.257a24.405,24.405,0,0,0,2.389,1.02Zm-5.8-3c-.517-.342-1.025-.7-1.521-1.066l2.866-4.764a25.727,25.727,0,0,0,2.127,1.492ZM14.67,103.98c-.433-.443-.857-.9-1.263-1.36L17.2,98.556a25.878,25.878,0,0,0,1.769,1.9Zm-4.086-5.1q-.5-.783-.955-1.59L14.184,94.1a25.972,25.972,0,0,0,1.335,2.228ZM7.649,93.044c-.219-.577-.423-1.162-.606-1.754l5.12-2.17a25.912,25.912,0,0,0,.842,2.457ZM5.994,86.723c-.091-.609-.166-1.225-.221-1.843l5.457-1.059a25.249,25.249,0,0,0,.31,2.579Zm-.3-6.528q.054-.931.161-1.848l5.556.1q-.177,1.274-.226,2.589Zm1.051-6.449q.245-.9.541-1.773L12.7,73.224a25.392,25.392,0,0,0-.763,2.486Zm2.377-6.088c.284-.549.587-1.09.9-1.619l5.039,2.351A25.417,25.417,0,0,0,13.8,70.659ZM12.714,62.2q.592-.715,1.22-1.4l4.439,3.347a25.887,25.887,0,0,0-1.708,1.956Zm4.646-4.593c.481-.385.977-.758,1.48-1.116l3.645,4.2q-1.076.729-2.074,1.562Zm5.5-3.532q.827-.415,1.682-.784l2.693,4.863a25.826,25.826,0,0,0-2.353,1.1Zm6.114-2.31q.9-.235,1.807-.414L32.4,56.667a25.254,25.254,0,0,0-2.531.58Z" transform="translate(8.005 71.367)" fill="#58595b" fill-rule="evenodd"/>
            <path id="Trazado_194213" data-name="Trazado 194213" d="M28.762,56.557A17.286,17.286,0,1,1,11.476,73.843,17.288,17.288,0,0,1,28.762,56.557" transform="translate(16.137 79.529)" fill="#ffdd0f" fill-rule="evenodd"/>
            <path id="Trazado_194214" data-name="Trazado 194214" d="M27,57.81A14.272,14.272,0,1,1,12.728,72.083,14.273,14.273,0,0,1,27,57.81" transform="translate(17.898 81.291)" fill="#eeb926" fill-rule="evenodd"/>
            <path id="Trazado_194215" data-name="Trazado 194215" d="M22.13,61.273a5.94,5.94,0,1,1-5.938,5.941,5.939,5.939,0,0,1,5.938-5.941" transform="translate(22.769 86.16)" fill="#ffdd0f" fill-rule="evenodd"/>
            <path id="Trazado_194216" data-name="Trazado 194216" d="M19.2,59.873a.918.918,0,1,1-.917.917.918.918,0,0,1,.917-.917" transform="translate(25.703 84.192)" fill="#ffdd0f" fill-rule="evenodd"/>
            <path id="Trazado_194217" data-name="Trazado 194217" d="M16.607,60.715A.917.917,0,1,1,16.4,62a.919.919,0,0,1,.2-1.282" transform="translate(22.821 85.128)" fill="#ffdd0f" fill-rule="evenodd"/>
            <path id="Trazado_194218" data-name="Trazado 194218" d="M15.007,62.917a.917.917,0,1,1,.59,1.155.919.919,0,0,1-.59-1.155" transform="translate(21.04 87.58)" fill="#ffdd0f" fill-rule="evenodd"/>
            <path id="Trazado_194219" data-name="Trazado 194219" d="M15.006,65.637a.917.917,0,1,1,1.155.59.917.917,0,0,1-1.155-.59" transform="translate(21.038 90.61)" fill="#ffdd0f" fill-rule="evenodd"/>
            <path id="Trazado_194220" data-name="Trazado 194220" d="M16.606,67.84a.917.917,0,1,1,1.282-.2.916.916,0,0,1-1.282.2" transform="translate(22.819 93.06)" fill="#ffdd0f" fill-rule="evenodd"/>
            <path id="Trazado_194221" data-name="Trazado 194221" d="M19.195,68.682a.918.918,0,1,1,.917-.917.917.917,0,0,1-.917.917" transform="translate(25.702 93.997)" fill="#ffdd0f" fill-rule="evenodd"/>
            <path id="Trazado_194222" data-name="Trazado 194222" d="M21.783,67.841a.917.917,0,1,1,.2-1.282.917.917,0,0,1-.2,1.282" transform="translate(28.583 93.062)" fill="#ffdd0f" fill-rule="evenodd"/>
            <path id="Trazado_194223" data-name="Trazado 194223" d="M23.384,65.638a.917.917,0,1,1-.59-1.155.919.919,0,0,1,.59,1.155" transform="translate(30.365 90.611)" fill="#ffdd0f" fill-rule="evenodd"/>
            <path id="Trazado_194224" data-name="Trazado 194224" d="M23.384,62.918a.917.917,0,1,1-1.155-.59.917.917,0,0,1,1.155.59" transform="translate(30.365 87.581)" fill="#ffdd0f" fill-rule="evenodd"/>
            <path id="Trazado_194225" data-name="Trazado 194225" d="M21.784,60.715a.917.917,0,1,1-1.28.2.919.919,0,0,1,1.28-.2" transform="translate(28.585 85.128)" fill="#ffdd0f" fill-rule="evenodd"/>
            <g id="Grupo_152697" data-name="Grupo 152697" transform="translate(44.438 122.258)" opacity="0.33">
              <g id="Grupo_152696" data-name="Grupo 152696">
                <g id="Grupo_152695" data-name="Grupo 152695" clip-path="url(#clip-path-3)">
                  <path id="Trazado_194226" data-name="Trazado 194226" d="M18.929,50.81c-.156,0-.306.022-.46.024v62.183c.154,0,.3.022.46.022a31.114,31.114,0,1,0,0-62.228" transform="translate(-18.467 -50.81)" fill="#020000" fill-rule="evenodd"/>
                </g>
              </g>
            </g>
            <g id="Grupo_152700" data-name="Grupo 152700" transform="translate(162.233 106.74)" opacity="0.33">
              <g id="Grupo_152699" data-name="Grupo 152699">
                <g id="Grupo_152698" data-name="Grupo 152698" clip-path="url(#clip-path-4)">
                  <path id="Trazado_194227" data-name="Trazado 194227" d="M67.426,44.361h0v77.573a38.786,38.786,0,1,0,0-77.573" transform="translate(-67.423 -44.361)" fill="#020000" fill-rule="evenodd"/>
                </g>
              </g>
            </g>
            <path id="Trazado_194228" data-name="Trazado 194228" d="M121.9,80.511a8.232,8.232,0,0,0-5.445,1.268,6.776,6.776,0,0,1-1.667.965,9.419,9.419,0,0,1-1.225.2,4.857,4.857,0,0,0-2.437,1.179,1.108,1.108,0,0,0,.315,1.634,3.189,3.189,0,0,0,1.858.332l10-.236c.943-1.672-1.826-3.475-1.393-5.344" transform="translate(155.918 113.13)" fill="#a88585"/>
            <path id="Trazado_194229" data-name="Trazado 194229" d="M103.271,85.832q3.768.191,7.534.385a3.665,3.665,0,0,0-1.655-2.678,2.925,2.925,0,0,0-3.169-.652,6.875,6.875,0,0,0-2.709,2.945" transform="translate(145.217 116.252)" fill="#a88585"/>
            <path id="Trazado_194230" data-name="Trazado 194230" d="M86.906,81.754c-.626-1.092-2.028-1.432-3.282-1.547-1.138-.106-2.291-.116-3.414-.33-2.093-.4-4.1-1.492-6.222-1.314-2.346.2-4.249,1.891-6.364,2.921-.306.946.8,1.7,1.72,2.074a29.674,29.674,0,0,0,6.174,2.024,9.967,9.967,0,0,0,6.347-.782c1.742-.929,3.13-2.555,5.041-3.046" transform="translate(95.017 110.446)" fill="#a88585"/>
            <path id="Trazado_194231" data-name="Trazado 194231" d="M49.893,85.157c2.808-.83,6.078.481,8.643-.929.9-1.287-.135-3.2-1.6-3.744a7.046,7.046,0,0,0-4.593.363,9.982,9.982,0,0,1-4.579.825c.195-.354-.13-.763-.428-1.037q-1.18-1.083-2.36-2.17c-2.526.053-4.844,1.328-7.043,2.572.493.354,1.011.674,1.528.994l5.327,3.294a4.651,4.651,0,0,0,1.494.7c1.232.248,2.411-.508,3.614-.864" transform="translate(53.336 110.335)" fill="#a88585"/>
            <path id="Trazado_194232" data-name="Trazado 194232" d="M60.533,86.779a3.31,3.31,0,0,0,2.476-.221,3.269,3.269,0,0,0,.9-1.2q.881-1.642,1.759-3.284a24.281,24.281,0,0,0-9.694-.683,3.038,3.038,0,0,1,1.251,2.276,8.41,8.41,0,0,0,.041,1.015c.253,1.357,1.9,1.86,3.263,2.1" transform="translate(78.715 114.158)" fill="#a88585"/>
            <path id="Trazado_194233" data-name="Trazado 194233" d="M82.387,86.1l-5.861-2.753c-1.215-.573-2.433-1.143-3.657-1.692a3.132,3.132,0,0,0-1.424-.378,3.2,3.2,0,0,0-1.323.491l-7.77,4.288c5.443,2.717,11.848,2.365,17.916,1.951,1.155-.079,2.748-.936,2.12-1.908" transform="translate(87.676 114.292)" fill="#a88585"/>
            <path id="Trazado_194234" data-name="Trazado 194234" d="M79.021,84.607l10.058,1.34a20.938,20.938,0,0,0,7.584.077c2.474-.59,4.844-2.315,5.44-4.786-3.325-.883-6.769-1.773-10.171-1.261-2.846.426-5.491,1.812-8.349,2.132-1.9.214-4.557.582-4.562,2.5" transform="translate(111.117 112.251)" fill="#a88585"/>
            <path id="Trazado_194235" data-name="Trazado 194235" d="M98.106,83.812a3.2,3.2,0,0,0,1.547,1.55,6.64,6.64,0,0,0,7.113-.642c1.268-1.013,2.269-2.558,3.867-2.832.78-.135,1.581.067,2.365-.029s1.627-.7,1.533-1.48l-10.671-.455a8.45,8.45,0,0,0-4.078.5,2.9,2.9,0,0,0-1.675,3.385" transform="translate(137.759 112.342)" fill="#a88585"/>
            <path id="Trazado_194236" data-name="Trazado 194236" d="M92.063,71.443A8.224,8.224,0,0,0,87.385,74.5a6.852,6.852,0,0,1-1.237,1.477,9.682,9.682,0,0,1-1.08.611,4.866,4.866,0,0,0-1.884,1.944c-.291.57.236,1.28.857,1.427a3.213,3.213,0,0,0,1.858-.325l9.307-3.655c.313-1.894-2.907-2.635-3.142-4.54" transform="translate(116.855 100.461)" fill="#a88585"/>
            <path id="Trazado_194237" data-name="Trazado 194237" d="M113.476,67.3l-29.288-.286V69.6l29.288.286Z" transform="translate(118.382 94.232)" fill="#c6c6c6" fill-rule="evenodd"/>
            <path id="Trazado_194238" data-name="Trazado 194238" d="M94.774,73.778l1.051,13.063L97.406,73.7Z" transform="translate(133.268 103.636)" fill="#898989" fill-rule="evenodd"/>
            <path id="Trazado_194239" data-name="Trazado 194239" d="M98.59,86.839,100.169,73.7l-2.63.075Z" transform="translate(137.156 103.637)" fill="#898989" fill-rule="evenodd"/>
            <path id="Trazado_194240" data-name="Trazado 194240" d="M101.355,86.839,102.933,73.7l-2.63.075Z" transform="translate(141.044 103.637)" fill="#898989" fill-rule="evenodd"/>
            <path id="Trazado_194241" data-name="Trazado 194241" d="M104.119,86.839,105.7,73.7l-2.63.075Z" transform="translate(144.931 103.637)" fill="#898989" fill-rule="evenodd"/>
            <path id="Trazado_194242" data-name="Trazado 194242" d="M106.885,86.839,108.464,73.7l-2.632.075Z" transform="translate(148.817 103.637)" fill="#898989" fill-rule="evenodd"/>
            <path id="Trazado_194243" data-name="Trazado 194243" d="M109.65,86.839,111.228,73.7l-2.632.075Z" transform="translate(152.704 103.637)" fill="#898989" fill-rule="evenodd"/>
            <path id="Trazado_194244" data-name="Trazado 194244" d="M112.414,86.839,113.992,73.7l-2.632.075Z" transform="translate(156.591 103.637)" fill="#898989" fill-rule="evenodd"/>
            <path id="Trazado_194245" data-name="Trazado 194245" d="M115.178,86.839,116.757,73.7l-2.632.075Z" transform="translate(160.478 103.637)" fill="#898989" fill-rule="evenodd"/>
            <path id="Trazado_194246" data-name="Trazado 194246" d="M117.943,86.839,119.521,73.7l-2.632.075Z" transform="translate(164.366 103.637)" fill="#898989" fill-rule="evenodd"/>
            <path id="Trazado_194247" data-name="Trazado 194247" d="M120.707,86.839,122.286,73.7l-2.632.075Z" transform="translate(168.253 103.637)" fill="#898989" fill-rule="evenodd"/>
            <path id="Trazado_194248" data-name="Trazado 194248" d="M123.471,86.839,125.05,73.7l-2.632.075Z" transform="translate(172.14 103.637)" fill="#898989" fill-rule="evenodd"/>
            <path id="Trazado_194249" data-name="Trazado 194249" d="M126.236,86.839,127.814,73.7l-2.632.075Z" transform="translate(176.027 103.637)" fill="#898989" fill-rule="evenodd"/>
            <path id="Trazado_194250" data-name="Trazado 194250" d="M129,86.839,130.579,73.7l-2.632.075Z" transform="translate(179.914 103.637)" fill="#898989" fill-rule="evenodd"/>
            <path id="Trazado_194251" data-name="Trazado 194251" d="M130.711,73.778l1.054,13.063,1.578-13.14Z" transform="translate(183.802 103.636)" fill="#898989" fill-rule="evenodd"/>
            <path id="Trazado_194252" data-name="Trazado 194252" d="M191.691,72.208l-99.086-.084-.031,5.18,99.086.084Z" transform="translate(130.175 101.418)" fill="#c6c6c6" fill-rule="evenodd"/>
            <path id="Trazado_194253" data-name="Trazado 194253" d="M144.628,76.438c-13.715.491-27.43,2.308-41.143,2.368-17.6-.421-87.52-6.744-93.213-.433-17.031-2.067,1.663-.594,0,9.557,24.9-.166,49.793-1.862,74.688.282,13.037-1.449,26.073.26,39.11-1.148,17.777-.551,35.556,3.52,53.333,3.742,46.656-2.016,93.314-5.029,139.969,1,0-4.374.257-13.073.257-14.747-57.666,3.523-115.335-.342-173-.621" transform="translate(4.302 106.287)" fill="#a88585"/>
            <path id="Trazado_194254" data-name="Trazado 194254" d="M68.357,84.7l10.058,1.34A20.937,20.937,0,0,0,86,86.121c2.474-.59,4.844-2.315,5.44-4.786-3.325-.883-6.769-1.773-10.171-1.261-2.847.426-5.491,1.812-8.349,2.132-1.9.214-4.557.582-4.562,2.5" transform="translate(96.122 112.386)" fill="#7c5757"/>
            <path id="Trazado_194255" data-name="Trazado 194255" d="M103.409,83.082a3.2,3.2,0,0,0,1.547,1.55,6.635,6.635,0,0,0,7.113-.642c1.268-1.013,2.269-2.558,3.867-2.832.78-.135,1.581.067,2.365-.029s1.627-.7,1.533-1.48l-10.671-.455a8.45,8.45,0,0,0-4.078.5,2.9,2.9,0,0,0-1.675,3.385" transform="translate(145.216 111.315)" fill="#7c5757"/>
            <path id="Trazado_194256" data-name="Trazado 194256" d="M148.69,70.192l-25.534-.209v3.953l25.534.209Z" transform="translate(173.178 98.408)" fill="#6d6e70" fill-rule="evenodd"/>
            <path id="Trazado_194257" data-name="Trazado 194257" d="M87.487,86.095c0,1.439-2.334,2.606-5.214,2.606s-5.212-1.167-5.212-2.606,2.334-2.606,5.212-2.606,5.214,1.167,5.214,2.606" transform="translate(108.361 117.4)" fill="#a88585"/>
            <path id="Trazado_194258" data-name="Trazado 194258" d="M52.476,85.529c0,1.771-2.873,3.207-6.417,3.207s-6.415-1.436-6.415-3.207,2.873-3.207,6.415-3.207,6.417,1.436,6.417,3.207" transform="translate(55.746 115.759)" fill="#a88585"/>
            <path id="Trazado_194259" data-name="Trazado 194259" d="M121.726,86.862c0,1.771-2.873,3.207-6.417,3.207s-6.415-1.436-6.415-3.207,2.873-3.207,6.415-3.207,6.417,1.436,6.417,3.207" transform="translate(153.124 117.633)" fill="#a88585"/>
            <path id="Trazado_194260" data-name="Trazado 194260" d="M95.966,82.361c0,1.218-1.975,2.206-4.411,2.206s-4.413-.989-4.413-2.206,1.975-2.206,4.413-2.206,4.411.989,4.411,2.206" transform="translate(122.538 112.712)" fill="#7c5757"/>
            <path id="Trazado_194261" data-name="Trazado 194261" d="M60.393,82.946c0,1.771-2.873,3.207-6.417,3.207s-6.415-1.436-6.415-3.207,2.873-3.207,6.415-3.207,6.417,1.436,6.417,3.207" transform="translate(66.879 112.127)" fill="#7c5757"/>
            <path id="Trazado_194262" data-name="Trazado 194262" d="M88.524,42.382h91.908c-.152-4.326-6.757-7.832-15.079-8.094.022-.359.055-.715.055-1.08a17.583,17.583,0,0,0-32.558-9.225,13.765,13.765,0,0,0-16.559,5.825c-7.721.546-13.744,4.153-13.669,7.988-4.846-2.286-12.9.409-14.1,4.586" transform="translate(124.48 21.955)" fill="#fff"/>
          </g>
        </g>
      </g>
    </g>
    <g id="Grupo_152570" data-name="Grupo 152570" transform="translate(256.485 2216.504)">
      <g id="Grupo_152551" data-name="Grupo 152551" transform="translate(0 110.318) rotate(-90)">
        <rect id="Rectángulo_45220" data-name="Rectángulo 45220" width="79.672" height="23.725" transform="translate(110.318 34.307) rotate(180)" fill="#ddedf8"/>
        <g id="Grupo_152556" data-name="Grupo 152556" transform="translate(0 0)">
          <rect id="Rectángulo_45221" data-name="Rectángulo 45221" width="4.032" height="4.031" transform="translate(85.668)" fill="#7f4fc7"/>
          <rect id="Rectángulo_45222" data-name="Rectángulo 45222" width="4.031" height="4.031" transform="translate(77.102)" fill="#7f4fc7"/>
          <rect id="Rectángulo_45223" data-name="Rectángulo 45223" width="4.031" height="4.031" transform="translate(68.535)" fill="#7f4fc7"/>
          <rect id="Rectángulo_45224" data-name="Rectángulo 45224" width="4.031" height="4.031" transform="translate(59.968)" fill="#7f4fc7"/>
          <rect id="Rectángulo_45225" data-name="Rectángulo 45225" width="4.031" height="4.031" transform="translate(51.401)" fill="#7f4fc7"/>
          <rect id="Rectángulo_45226" data-name="Rectángulo 45226" width="4.031" height="4.031" transform="translate(42.834)" fill="#7f4fc7"/>
          <rect id="Rectángulo_45227" data-name="Rectángulo 45227" width="4.031" height="4.031" transform="translate(34.267)" fill="#7f4fc7"/>
          <rect id="Rectángulo_45228" data-name="Rectángulo 45228" width="4.031" height="4.031" transform="translate(25.701)" fill="#7f4fc7"/>
          <rect id="Rectángulo_45229" data-name="Rectángulo 45229" width="4.032" height="4.031" transform="translate(17.134)" fill="#7f4fc7"/>
          <rect id="Rectángulo_45230" data-name="Rectángulo 45230" width="4.031" height="4.031" transform="translate(8.567)" fill="#7f4fc7"/>
          <rect id="Rectángulo_45231" data-name="Rectángulo 45231" width="4.032" height="4.031" fill="#7f4fc7"/>
          <rect id="Rectángulo_45232" data-name="Rectángulo 45232" width="4.032" height="4.032" transform="translate(85.668 8.567)" fill="#7f4fc7"/>
          <rect id="Rectángulo_45233" data-name="Rectángulo 45233" width="4.031" height="4.032" transform="translate(77.102 8.567)" fill="#7f4fc7"/>
          <rect id="Rectángulo_45234" data-name="Rectángulo 45234" width="4.031" height="4.032" transform="translate(68.535 8.567)" fill="#7f4fc7"/>
          <rect id="Rectángulo_45235" data-name="Rectángulo 45235" width="4.031" height="4.032" transform="translate(59.968 8.567)" fill="#7f4fc7"/>
          <rect id="Rectángulo_45236" data-name="Rectángulo 45236" width="4.031" height="4.032" transform="translate(51.401 8.567)" fill="#7f4fc7"/>
          <rect id="Rectángulo_45237" data-name="Rectángulo 45237" width="4.031" height="4.032" transform="translate(42.834 8.567)" fill="#7f4fc7"/>
          <rect id="Rectángulo_45238" data-name="Rectángulo 45238" width="4.031" height="4.032" transform="translate(34.267 8.567)" fill="#7f4fc7"/>
          <rect id="Rectángulo_45239" data-name="Rectángulo 45239" width="4.031" height="4.032" transform="translate(25.701 8.567)" fill="#7f4fc7"/>
          <rect id="Rectángulo_45240" data-name="Rectángulo 45240" width="4.032" height="4.032" transform="translate(17.134 8.567)" fill="#7f4fc7"/>
          <rect id="Rectángulo_45241" data-name="Rectángulo 45241" width="4.031" height="4.032" transform="translate(8.567 8.567)" fill="#7f4fc7"/>
          <rect id="Rectángulo_45242" data-name="Rectángulo 45242" width="4.032" height="4.032" transform="translate(0 8.567)" fill="#7f4fc7"/>
          <rect id="Rectángulo_45243" data-name="Rectángulo 45243" width="4.032" height="4.031" transform="translate(85.668 17.134)" fill="#7f4fc7"/>
          <rect id="Rectángulo_45244" data-name="Rectángulo 45244" width="4.031" height="4.031" transform="translate(77.102 17.134)" fill="#7f4fc7"/>
          <rect id="Rectángulo_45245" data-name="Rectángulo 45245" width="4.031" height="4.031" transform="translate(68.535 17.134)" fill="#7f4fc7"/>
          <rect id="Rectángulo_45246" data-name="Rectángulo 45246" width="4.031" height="4.031" transform="translate(59.968 17.134)" fill="#7f4fc7"/>
          <rect id="Rectángulo_45247" data-name="Rectángulo 45247" width="4.031" height="4.031" transform="translate(51.401 17.134)" fill="#7f4fc7"/>
          <rect id="Rectángulo_45248" data-name="Rectángulo 45248" width="4.031" height="4.031" transform="translate(42.834 17.134)" fill="#7f4fc7"/>
          <rect id="Rectángulo_45249" data-name="Rectángulo 45249" width="4.031" height="4.031" transform="translate(34.267 17.134)" fill="#7f4fc7"/>
          <rect id="Rectángulo_45250" data-name="Rectángulo 45250" width="4.031" height="4.031" transform="translate(25.701 17.134)" fill="#7f4fc7"/>
          <rect id="Rectángulo_45251" data-name="Rectángulo 45251" width="4.032" height="4.031" transform="translate(17.134 17.134)" fill="#7f4fc7"/>
          <rect id="Rectángulo_45252" data-name="Rectángulo 45252" width="4.031" height="4.031" transform="translate(8.567 17.134)" fill="#7f4fc7"/>
          <rect id="Rectángulo_45253" data-name="Rectángulo 45253" width="4.032" height="4.031" transform="translate(0 17.134)" fill="#7f4fc7"/>
        </g>
      </g>
    </g>
  </g>
</svg>
