<svg xmlns="http://www.w3.org/2000/svg" xmlns:xlink="http://www.w3.org/1999/xlink" width="63" height="63" viewBox="0 0 63 63">
  <defs>
    <clipPath id="clip-path">
      <rect id="Rectángulo_45586" data-name="Rectángulo 45586" width="44.465" height="43.493" fill="#fff"/>
    </clipPath>
  </defs>
  <g id="Grupo_153112" data-name="Grupo 153112" transform="translate(-651 -1275)">
    <path id="Trazado_113533" data-name="Trazado 113533" d="M31.5,0A31.5,31.5,0,1,1,0,31.5,31.5,31.5,0,0,1,31.5,0Z" transform="translate(651 1275)" fill="#7f4fc7"/>
    <g id="Grupo_152919" data-name="Grupo 152919" transform="translate(664.664 1284.754)">
      <g id="Grupo_152919-2" data-name="Grupo 152919" clip-path="url(#clip-path)">
        <path id="Trazado_195623" data-name="Trazado 195623" d="M20.724.039c.02,0,.041-.007.061-.01-.021,0-.042.005-.061.01" transform="translate(-13.369 -0.019)" fill="#fff"/>
        <path id="Trazado_195624" data-name="Trazado 195624" d="M32.019,42.022H1.472V9.151H7.521a.736.736,0,0,0,.736-.736V1.472H32.019V8.606a14.032,14.032,0,0,1,1.472.248V.736A.736.736,0,0,0,32.755,0H7.521L7.5,0a.734.734,0,0,1,.572,1.221L6.785,2.68v5H2.368L1.287,8.9A.733.733,0,0,1,0,8.373c0,.015,0,.028,0,.043V42.758a.736.736,0,0,0,.736.736H32.755a.736.736,0,0,0,.736-.736V36.281a13.938,13.938,0,0,1-1.472.248Z" fill="#fff"/>
        <path id="Trazado_195625" data-name="Trazado 195625" d="M20.343.145A.62.62,0,0,1,20.4.123a.559.559,0,0,0-.061.022" transform="translate(-13.123 -0.079)" fill="#fff"/>
        <path id="Trazado_195626" data-name="Trazado 195626" d="M19.992.321c.019-.013.039-.024.058-.035-.02.011-.04.022-.058.035" transform="translate(-12.896 -0.184)" fill="#fff"/>
        <path id="Trazado_195627" data-name="Trazado 195627" d="M19.681.563a.685.685,0,0,1,.058-.054.749.749,0,0,0-.058.054" transform="translate(-12.696 -0.328)" fill="#fff"/>
        <path id="Trazado_195628" data-name="Trazado 195628" d="M16.052,45.1a.736.736,0,0,0,.736.736H27.764a13.931,13.931,0,0,1,.709-1.472H16.788a.736.736,0,0,0-.736.736" transform="translate(-10.355 -28.619)" fill="#fff"/>
        <path id="Trazado_195629" data-name="Trazado 195629" d="M16.052,57.6a.736.736,0,0,0,.736.736h9.952a14.032,14.032,0,0,1,.173-1.472H16.788a.736.736,0,0,0-.736.736" transform="translate(-10.355 -36.682)" fill="#fff"/>
        <path id="Trazado_195630" data-name="Trazado 195630" d="M16.052,69.123a.736.736,0,0,0,.736.736H27.071a14.047,14.047,0,0,1-.258-1.471H16.788a.736.736,0,0,0-.736.736" transform="translate(-10.355 -44.115)" fill="#fff"/>
        <path id="Trazado_195631" data-name="Trazado 195631" d="M16.833,81.135a.736.736,0,0,0,.736.736H29.342a14.087,14.087,0,0,1-.8-1.472H17.569a.736.736,0,0,0-.736.736" transform="translate(-10.859 -51.864)" fill="#fff"/>
        <path id="Trazado_195632" data-name="Trazado 195632" d="M.255,8.97a.735.735,0,0,0,1.039-.064l1.08-1.223,4.417-5L8.078,1.226A.734.734,0,0,0,7.507.005a.722.722,0,0,0-.083.009c-.021,0-.041,0-.061.01s-.05.015-.075.023S7.246.06,7.226.069,7.182.092,7.16.1,7.12.127,7.1.14s-.035.029-.053.044a.685.685,0,0,0-.058.054L6.976.252.191,7.932c-.01.011-.016.023-.024.034a.714.714,0,0,0-.048.066c-.012.019-.022.039-.032.059a.64.64,0,0,0-.031.068.659.659,0,0,0-.022.07c-.006.022-.012.044-.016.067a.751.751,0,0,0-.008.08.73.73,0,0,0,.244.594" transform="translate(-0.006 -0.003)" fill="#fff"/>
        <path id="Trazado_195633" data-name="Trazado 195633" d="M60.128,25.394a12.837,12.837,0,0,1,1.45.086,12.64,12.64,0,0,1,0,25.115,12.837,12.837,0,0,1-1.45.086A12.626,12.626,0,0,1,47.581,39.572a12.722,12.722,0,0,1-.1-1.535c0-.244.01-.505.03-.823a12.634,12.634,0,0,1,12.613-11.82m0-1.413A14.043,14.043,0,0,0,46.1,37.123c-.019.3-.033.607-.033.914a14.4,14.4,0,0,0,.365,3.176,14.058,14.058,0,0,0,13.692,10.88A14.2,14.2,0,0,0,61.739,52a14.057,14.057,0,0,0-1.611-28.018" transform="translate(-29.72 -15.47)" fill="#fff"/>
      </g>
    </g>
    <path id="Trazado_195623-2" data-name="Trazado 195623" d="M-8.48-1.053h4.854V0h-6.2V-9.953H-8.48ZM.749.144A3.129,3.129,0,0,1-1.736-.875a3.92,3.92,0,0,1-.892-2.68v-.3a3.838,3.838,0,0,1,.919-2.635A2.883,2.883,0,0,1,.537-7.533a2.684,2.684,0,0,1,2.225.923A3.8,3.8,0,0,1,3.5-4.156v.711h-4.73l-.021.034A3.057,3.057,0,0,0-.755-1.6a1.72,1.72,0,0,0,1.5.694,3.388,3.388,0,0,0,1.2-.195,2.678,2.678,0,0,0,.885-.537l.526.875A3.237,3.237,0,0,1,2.314-.12,4.167,4.167,0,0,1,.749.144ZM.537-6.474A1.464,1.464,0,0,0-.629-5.93a2.571,2.571,0,0,0-.564,1.391l.014.034H2.157v-.109a2.154,2.154,0,0,0-.4-1.333A1.433,1.433,0,0,0,.537-6.474ZM7.188-2.741l.239.93h.041L9.287-7.4h1.5L7.673,1.135a3.835,3.835,0,0,1-.8,1.3,1.849,1.849,0,0,1-1.412.554,2.943,2.943,0,0,1-.417-.038q-.253-.038-.39-.072l.137-1.06a1.8,1.8,0,0,1,.243.014q.284.021.359.021a.831.831,0,0,0,.7-.383A3.975,3.975,0,0,0,6.552.622L6.874-.15,4.125-7.4h1.5Z" transform="translate(696 1312)" fill="#fff"/>
  </g>
</svg>
