<svg xmlns="http://www.w3.org/2000/svg" xmlns:xlink="http://www.w3.org/1999/xlink" width="610" height="243.709" viewBox="0 0 610 243.709">
  <defs>
    <clipPath id="clip-path">
      <path id="Trazado_194825" data-name="Trazado 194825" d="M66.707,268.708a63.729,63.729,0,1,0,63.729-63.729,63.729,63.729,0,0,0-63.729,63.729" transform="translate(-66.707 -204.979)" fill="#7f4fc7"/>
    </clipPath>
    <clipPath id="clip-path-2">
      <path id="Trazado_194907" data-name="Trazado 194907" d="M0,105.662A52.329,52.329,0,1,0,52.329,53.333,52.328,52.328,0,0,0,0,105.662" transform="translate(0 -53.333)" fill="#7f4fc7"/>
    </clipPath>
    <clipPath id="clip-path-3">
      <rect id="Rectángulo_45471" data-name="Rectángulo 45471" width="70.19" height="67.472" fill="none"/>
    </clipPath>
    <clipPath id="clip-path-4">
      <rect id="Rectángulo_45472" data-name="Rectángulo 45472" width="64.134" height="84.104" fill="none"/>
    </clipPath>
    <clipPath id="clip-path-5">
      <rect id="Rectángulo_45473" data-name="Rectángulo 45473" width="111.084" height="49.942" fill="none"/>
    </clipPath>
    <clipPath id="clip-path-6">
      <rect id="Rectángulo_45477" data-name="Rectángulo 45477" width="33.888" height="53.665" fill="none"/>
    </clipPath>
    <clipPath id="clip-path-8">
      <rect id="Rectángulo_45474" data-name="Rectángulo 45474" width="93.076" height="89.47" fill="none"/>
    </clipPath>
    <clipPath id="clip-path-9">
      <rect id="Rectángulo_45475" data-name="Rectángulo 45475" width="85.044" height="111.524" fill="none"/>
    </clipPath>
    <clipPath id="clip-path-10">
      <rect id="Rectángulo_45476" data-name="Rectángulo 45476" width="147.302" height="66.225" fill="none"/>
    </clipPath>
  </defs>
  <g id="Grupo_152808" data-name="Grupo 152808" transform="translate(-857 -416.714)">
    <g id="Grupo_152807" data-name="Grupo 152807" transform="translate(857 453.598)">
      <g id="Grupo_152767" data-name="Grupo 152767" transform="translate(399.783)">
        <g id="Grupo_152766" data-name="Grupo 152766" transform="translate(0 0)" clip-path="url(#clip-path)">
          <path id="Trazado_194744" data-name="Trazado 194744" d="M70.061,206.655a1.678,1.678,0,1,0-1.677,1.677,1.677,1.677,0,0,0,1.677-1.677" transform="translate(-66.708 -204.98)" fill="#7f4fc7"/>
          <path id="Trazado_194745" data-name="Trazado 194745" d="M80.136,206.655a1.677,1.677,0,1,0-1.677,1.677,1.677,1.677,0,0,0,1.677-1.677" transform="translate(-61.269 -204.98)" fill="#7f4fc7"/>
          <path id="Trazado_194746" data-name="Trazado 194746" d="M90.211,206.655a1.678,1.678,0,1,0-1.677,1.677,1.677,1.677,0,0,0,1.677-1.677" transform="translate(-55.831 -204.98)" fill="#7f4fc7"/>
          <path id="Trazado_194747" data-name="Trazado 194747" d="M100.286,206.655a1.678,1.678,0,1,0-1.677,1.677,1.677,1.677,0,0,0,1.677-1.677" transform="translate(-50.393 -204.98)" fill="#7f4fc7"/>
          <path id="Trazado_194748" data-name="Trazado 194748" d="M110.362,206.655a1.678,1.678,0,1,0-1.678,1.677,1.678,1.678,0,0,0,1.678-1.677" transform="translate(-44.955 -204.98)" fill="#7f4fc7"/>
          <path id="Trazado_194749" data-name="Trazado 194749" d="M120.436,206.655a1.677,1.677,0,1,0-1.677,1.677,1.677,1.677,0,0,0,1.677-1.677" transform="translate(-39.516 -204.98)" fill="#7f4fc7"/>
          <path id="Trazado_194750" data-name="Trazado 194750" d="M130.512,206.655a1.678,1.678,0,1,0-1.677,1.677,1.677,1.677,0,0,0,1.677-1.677" transform="translate(-34.078 -204.98)" fill="#7f4fc7"/>
          <path id="Trazado_194751" data-name="Trazado 194751" d="M140.587,206.655a1.677,1.677,0,1,0-1.677,1.677,1.677,1.677,0,0,0,1.677-1.677" transform="translate(-28.64 -204.98)" fill="#7f4fc7"/>
          <path id="Trazado_194752" data-name="Trazado 194752" d="M150.662,206.655a1.678,1.678,0,1,0-1.677,1.677,1.677,1.677,0,0,0,1.677-1.677" transform="translate(-23.202 -204.98)" fill="#7f4fc7"/>
          <path id="Trazado_194753" data-name="Trazado 194753" d="M70.061,216.73a1.678,1.678,0,1,0-1.677,1.677,1.677,1.677,0,0,0,1.677-1.677" transform="translate(-66.708 -199.541)" fill="#7f4fc7"/>
          <path id="Trazado_194754" data-name="Trazado 194754" d="M80.136,216.73a1.677,1.677,0,1,0-1.677,1.677,1.677,1.677,0,0,0,1.677-1.677" transform="translate(-61.269 -199.541)" fill="#7f4fc7"/>
          <path id="Trazado_194755" data-name="Trazado 194755" d="M90.211,216.73a1.678,1.678,0,1,0-1.677,1.677,1.677,1.677,0,0,0,1.677-1.677" transform="translate(-55.831 -199.541)" fill="#7f4fc7"/>
          <path id="Trazado_194756" data-name="Trazado 194756" d="M100.286,216.73a1.678,1.678,0,1,0-1.677,1.677,1.677,1.677,0,0,0,1.677-1.677" transform="translate(-50.393 -199.541)" fill="#7f4fc7"/>
          <path id="Trazado_194757" data-name="Trazado 194757" d="M110.362,216.73a1.678,1.678,0,1,0-1.678,1.677,1.678,1.678,0,0,0,1.678-1.677" transform="translate(-44.955 -199.541)" fill="#7f4fc7"/>
          <path id="Trazado_194758" data-name="Trazado 194758" d="M120.436,216.73a1.677,1.677,0,1,0-1.677,1.677,1.677,1.677,0,0,0,1.677-1.677" transform="translate(-39.516 -199.541)" fill="#7f4fc7"/>
          <path id="Trazado_194759" data-name="Trazado 194759" d="M130.512,216.73a1.678,1.678,0,1,0-1.677,1.677,1.677,1.677,0,0,0,1.677-1.677" transform="translate(-34.078 -199.541)" fill="#7f4fc7"/>
          <path id="Trazado_194760" data-name="Trazado 194760" d="M140.587,216.73a1.677,1.677,0,1,0-1.677,1.677,1.677,1.677,0,0,0,1.677-1.677" transform="translate(-28.64 -199.541)" fill="#7f4fc7"/>
          <path id="Trazado_194761" data-name="Trazado 194761" d="M150.662,216.73a1.678,1.678,0,1,0-1.677,1.677,1.677,1.677,0,0,0,1.677-1.677" transform="translate(-23.202 -199.541)" fill="#7f4fc7"/>
          <path id="Trazado_194762" data-name="Trazado 194762" d="M70.061,226.8a1.678,1.678,0,1,0-1.677,1.677,1.677,1.677,0,0,0,1.677-1.677" transform="translate(-66.708 -194.103)" fill="#7f4fc7"/>
          <path id="Trazado_194763" data-name="Trazado 194763" d="M80.136,226.8a1.677,1.677,0,1,0-1.677,1.677,1.677,1.677,0,0,0,1.677-1.677" transform="translate(-61.269 -194.103)" fill="#7f4fc7"/>
          <path id="Trazado_194764" data-name="Trazado 194764" d="M90.211,226.8a1.678,1.678,0,1,0-1.677,1.677,1.677,1.677,0,0,0,1.677-1.677" transform="translate(-55.831 -194.103)" fill="#7f4fc7"/>
          <path id="Trazado_194765" data-name="Trazado 194765" d="M100.286,226.8a1.678,1.678,0,1,0-1.677,1.677,1.677,1.677,0,0,0,1.677-1.677" transform="translate(-50.393 -194.103)" fill="#7f4fc7"/>
          <path id="Trazado_194766" data-name="Trazado 194766" d="M110.362,226.8a1.678,1.678,0,1,0-1.678,1.677,1.678,1.678,0,0,0,1.678-1.677" transform="translate(-44.955 -194.103)" fill="#7f4fc7"/>
          <path id="Trazado_194767" data-name="Trazado 194767" d="M120.436,226.8a1.677,1.677,0,1,0-1.677,1.677,1.677,1.677,0,0,0,1.677-1.677" transform="translate(-39.516 -194.103)" fill="#7f4fc7"/>
          <path id="Trazado_194768" data-name="Trazado 194768" d="M130.512,226.8a1.678,1.678,0,1,0-1.677,1.677,1.677,1.677,0,0,0,1.677-1.677" transform="translate(-34.078 -194.103)" fill="#7f4fc7"/>
          <path id="Trazado_194769" data-name="Trazado 194769" d="M140.587,226.8a1.677,1.677,0,1,0-1.677,1.677,1.677,1.677,0,0,0,1.677-1.677" transform="translate(-28.64 -194.103)" fill="#7f4fc7"/>
          <path id="Trazado_194770" data-name="Trazado 194770" d="M150.662,226.8a1.678,1.678,0,1,0-1.677,1.677,1.677,1.677,0,0,0,1.677-1.677" transform="translate(-23.202 -194.103)" fill="#7f4fc7"/>
          <path id="Trazado_194771" data-name="Trazado 194771" d="M70.061,236.88a1.678,1.678,0,1,0-1.677,1.677,1.677,1.677,0,0,0,1.677-1.677" transform="translate(-66.708 -188.665)" fill="#7f4fc7"/>
          <path id="Trazado_194772" data-name="Trazado 194772" d="M80.136,236.88a1.677,1.677,0,1,0-1.677,1.677,1.677,1.677,0,0,0,1.677-1.677" transform="translate(-61.269 -188.665)" fill="#7f4fc7"/>
          <path id="Trazado_194773" data-name="Trazado 194773" d="M90.211,236.88a1.678,1.678,0,1,0-1.677,1.677,1.677,1.677,0,0,0,1.677-1.677" transform="translate(-55.831 -188.665)" fill="#7f4fc7"/>
          <path id="Trazado_194774" data-name="Trazado 194774" d="M100.286,236.88a1.678,1.678,0,1,0-1.677,1.677,1.677,1.677,0,0,0,1.677-1.677" transform="translate(-50.393 -188.665)" fill="#7f4fc7"/>
          <path id="Trazado_194775" data-name="Trazado 194775" d="M110.362,236.88a1.678,1.678,0,1,0-1.678,1.677,1.678,1.678,0,0,0,1.678-1.677" transform="translate(-44.955 -188.665)" fill="#7f4fc7"/>
          <path id="Trazado_194776" data-name="Trazado 194776" d="M120.436,236.88a1.677,1.677,0,1,0-1.677,1.677,1.677,1.677,0,0,0,1.677-1.677" transform="translate(-39.516 -188.665)" fill="#7f4fc7"/>
          <path id="Trazado_194777" data-name="Trazado 194777" d="M130.512,236.88a1.678,1.678,0,1,0-1.677,1.677,1.677,1.677,0,0,0,1.677-1.677" transform="translate(-34.078 -188.665)" fill="#7f4fc7"/>
          <path id="Trazado_194778" data-name="Trazado 194778" d="M140.587,236.88a1.677,1.677,0,1,0-1.677,1.677,1.677,1.677,0,0,0,1.677-1.677" transform="translate(-28.64 -188.665)" fill="#7f4fc7"/>
          <path id="Trazado_194779" data-name="Trazado 194779" d="M150.662,236.88a1.678,1.678,0,1,0-1.677,1.677,1.677,1.677,0,0,0,1.677-1.677" transform="translate(-23.202 -188.665)" fill="#7f4fc7"/>
          <path id="Trazado_194780" data-name="Trazado 194780" d="M70.061,246.956a1.678,1.678,0,1,0-1.677,1.677,1.677,1.677,0,0,0,1.677-1.677" transform="translate(-66.708 -183.227)" fill="#7f4fc7"/>
          <path id="Trazado_194781" data-name="Trazado 194781" d="M80.136,246.956a1.677,1.677,0,1,0-1.677,1.677,1.677,1.677,0,0,0,1.677-1.677" transform="translate(-61.269 -183.227)" fill="#7f4fc7"/>
          <path id="Trazado_194782" data-name="Trazado 194782" d="M90.211,246.956a1.678,1.678,0,1,0-1.677,1.677,1.677,1.677,0,0,0,1.677-1.677" transform="translate(-55.831 -183.227)" fill="#7f4fc7"/>
          <path id="Trazado_194783" data-name="Trazado 194783" d="M100.286,246.956a1.678,1.678,0,1,0-1.677,1.677,1.677,1.677,0,0,0,1.677-1.677" transform="translate(-50.393 -183.227)" fill="#7f4fc7"/>
          <path id="Trazado_194784" data-name="Trazado 194784" d="M110.362,246.956a1.678,1.678,0,1,0-1.678,1.677,1.678,1.678,0,0,0,1.678-1.677" transform="translate(-44.955 -183.227)" fill="#7f4fc7"/>
          <path id="Trazado_194785" data-name="Trazado 194785" d="M120.436,246.956a1.677,1.677,0,1,0-1.677,1.677,1.677,1.677,0,0,0,1.677-1.677" transform="translate(-39.516 -183.227)" fill="#7f4fc7"/>
          <path id="Trazado_194786" data-name="Trazado 194786" d="M130.512,246.956a1.678,1.678,0,1,0-1.677,1.677,1.677,1.677,0,0,0,1.677-1.677" transform="translate(-34.078 -183.227)" fill="#7f4fc7"/>
          <path id="Trazado_194787" data-name="Trazado 194787" d="M140.587,246.956a1.677,1.677,0,1,0-1.677,1.677,1.677,1.677,0,0,0,1.677-1.677" transform="translate(-28.64 -183.227)" fill="#7f4fc7"/>
          <path id="Trazado_194788" data-name="Trazado 194788" d="M150.662,246.956a1.678,1.678,0,1,0-1.677,1.677,1.677,1.677,0,0,0,1.677-1.677" transform="translate(-23.202 -183.227)" fill="#7f4fc7"/>
          <path id="Trazado_194789" data-name="Trazado 194789" d="M70.061,257.031a1.678,1.678,0,1,0-1.677,1.677,1.677,1.677,0,0,0,1.677-1.677" transform="translate(-66.708 -177.788)" fill="#7f4fc7"/>
          <path id="Trazado_194790" data-name="Trazado 194790" d="M80.136,257.031a1.677,1.677,0,1,0-1.677,1.677,1.677,1.677,0,0,0,1.677-1.677" transform="translate(-61.269 -177.788)" fill="#7f4fc7"/>
          <path id="Trazado_194791" data-name="Trazado 194791" d="M90.211,257.031a1.678,1.678,0,1,0-1.677,1.677,1.677,1.677,0,0,0,1.677-1.677" transform="translate(-55.831 -177.788)" fill="#7f4fc7"/>
          <path id="Trazado_194792" data-name="Trazado 194792" d="M100.286,257.031a1.678,1.678,0,1,0-1.677,1.677,1.677,1.677,0,0,0,1.677-1.677" transform="translate(-50.393 -177.788)" fill="#7f4fc7"/>
          <path id="Trazado_194793" data-name="Trazado 194793" d="M110.362,257.031a1.678,1.678,0,1,0-1.678,1.677,1.678,1.678,0,0,0,1.678-1.677" transform="translate(-44.955 -177.788)" fill="#7f4fc7"/>
          <path id="Trazado_194794" data-name="Trazado 194794" d="M120.436,257.031a1.677,1.677,0,1,0-1.677,1.677,1.677,1.677,0,0,0,1.677-1.677" transform="translate(-39.516 -177.788)" fill="#7f4fc7"/>
          <path id="Trazado_194795" data-name="Trazado 194795" d="M130.512,257.031a1.678,1.678,0,1,0-1.677,1.677,1.677,1.677,0,0,0,1.677-1.677" transform="translate(-34.078 -177.788)" fill="#7f4fc7"/>
          <path id="Trazado_194796" data-name="Trazado 194796" d="M140.587,257.031a1.677,1.677,0,1,0-1.677,1.677,1.677,1.677,0,0,0,1.677-1.677" transform="translate(-28.64 -177.788)" fill="#7f4fc7"/>
          <path id="Trazado_194797" data-name="Trazado 194797" d="M150.662,257.031a1.678,1.678,0,1,0-1.677,1.677,1.677,1.677,0,0,0,1.677-1.677" transform="translate(-23.202 -177.788)" fill="#7f4fc7"/>
          <path id="Trazado_194798" data-name="Trazado 194798" d="M70.061,267.106a1.678,1.678,0,1,0-1.677,1.677,1.677,1.677,0,0,0,1.677-1.677" transform="translate(-66.708 -172.35)" fill="#7f4fc7"/>
          <path id="Trazado_194799" data-name="Trazado 194799" d="M80.136,267.106a1.677,1.677,0,1,0-1.677,1.677,1.677,1.677,0,0,0,1.677-1.677" transform="translate(-61.269 -172.35)" fill="#7f4fc7"/>
          <path id="Trazado_194800" data-name="Trazado 194800" d="M90.211,267.106a1.678,1.678,0,1,0-1.677,1.677,1.677,1.677,0,0,0,1.677-1.677" transform="translate(-55.831 -172.35)" fill="#7f4fc7"/>
          <path id="Trazado_194801" data-name="Trazado 194801" d="M100.286,267.106a1.678,1.678,0,1,0-1.677,1.677,1.677,1.677,0,0,0,1.677-1.677" transform="translate(-50.393 -172.35)" fill="#7f4fc7"/>
          <path id="Trazado_194802" data-name="Trazado 194802" d="M110.362,267.106a1.678,1.678,0,1,0-1.678,1.677,1.678,1.678,0,0,0,1.678-1.677" transform="translate(-44.955 -172.35)" fill="#7f4fc7"/>
          <path id="Trazado_194803" data-name="Trazado 194803" d="M120.436,267.106a1.677,1.677,0,1,0-1.677,1.677,1.677,1.677,0,0,0,1.677-1.677" transform="translate(-39.516 -172.35)" fill="#7f4fc7"/>
          <path id="Trazado_194804" data-name="Trazado 194804" d="M130.512,267.106a1.678,1.678,0,1,0-1.677,1.677,1.677,1.677,0,0,0,1.677-1.677" transform="translate(-34.078 -172.35)" fill="#7f4fc7"/>
          <path id="Trazado_194805" data-name="Trazado 194805" d="M140.587,267.106a1.677,1.677,0,1,0-1.677,1.677,1.677,1.677,0,0,0,1.677-1.677" transform="translate(-28.64 -172.35)" fill="#7f4fc7"/>
          <path id="Trazado_194806" data-name="Trazado 194806" d="M150.662,267.106a1.678,1.678,0,1,0-1.677,1.677,1.677,1.677,0,0,0,1.677-1.677" transform="translate(-23.202 -172.35)" fill="#7f4fc7"/>
          <path id="Trazado_194807" data-name="Trazado 194807" d="M70.061,277.181a1.678,1.678,0,1,0-1.677,1.677,1.677,1.677,0,0,0,1.677-1.677" transform="translate(-66.708 -166.912)" fill="#7f4fc7"/>
          <path id="Trazado_194808" data-name="Trazado 194808" d="M80.136,277.181a1.677,1.677,0,1,0-1.677,1.677,1.677,1.677,0,0,0,1.677-1.677" transform="translate(-61.269 -166.912)" fill="#7f4fc7"/>
          <path id="Trazado_194809" data-name="Trazado 194809" d="M90.211,277.181a1.678,1.678,0,1,0-1.677,1.677,1.677,1.677,0,0,0,1.677-1.677" transform="translate(-55.831 -166.912)" fill="#7f4fc7"/>
          <path id="Trazado_194810" data-name="Trazado 194810" d="M100.286,277.181a1.678,1.678,0,1,0-1.677,1.677,1.677,1.677,0,0,0,1.677-1.677" transform="translate(-50.393 -166.912)" fill="#7f4fc7"/>
          <path id="Trazado_194811" data-name="Trazado 194811" d="M110.362,277.181a1.678,1.678,0,1,0-1.678,1.677,1.678,1.678,0,0,0,1.678-1.677" transform="translate(-44.955 -166.912)" fill="#7f4fc7"/>
          <path id="Trazado_194812" data-name="Trazado 194812" d="M120.436,277.181a1.677,1.677,0,1,0-1.677,1.677,1.677,1.677,0,0,0,1.677-1.677" transform="translate(-39.516 -166.912)" fill="#7f4fc7"/>
          <path id="Trazado_194813" data-name="Trazado 194813" d="M130.512,277.181a1.678,1.678,0,1,0-1.677,1.677,1.677,1.677,0,0,0,1.677-1.677" transform="translate(-34.078 -166.912)" fill="#7f4fc7"/>
          <path id="Trazado_194814" data-name="Trazado 194814" d="M140.587,277.181a1.677,1.677,0,1,0-1.677,1.677,1.677,1.677,0,0,0,1.677-1.677" transform="translate(-28.64 -166.912)" fill="#7f4fc7"/>
          <path id="Trazado_194815" data-name="Trazado 194815" d="M150.662,277.181a1.678,1.678,0,1,0-1.677,1.677,1.677,1.677,0,0,0,1.677-1.677" transform="translate(-23.202 -166.912)" fill="#7f4fc7"/>
          <path id="Trazado_194816" data-name="Trazado 194816" d="M70.061,287.256a1.678,1.678,0,1,0-1.677,1.677,1.677,1.677,0,0,0,1.677-1.677" transform="translate(-66.708 -161.474)" fill="#7f4fc7"/>
          <path id="Trazado_194817" data-name="Trazado 194817" d="M80.136,287.256a1.677,1.677,0,1,0-1.677,1.677,1.677,1.677,0,0,0,1.677-1.677" transform="translate(-61.269 -161.474)" fill="#7f4fc7"/>
          <path id="Trazado_194818" data-name="Trazado 194818" d="M90.211,287.256a1.678,1.678,0,1,0-1.677,1.677,1.677,1.677,0,0,0,1.677-1.677" transform="translate(-55.831 -161.474)" fill="#7f4fc7"/>
          <path id="Trazado_194819" data-name="Trazado 194819" d="M100.286,287.256a1.678,1.678,0,1,0-1.677,1.677,1.677,1.677,0,0,0,1.677-1.677" transform="translate(-50.393 -161.474)" fill="#7f4fc7"/>
          <path id="Trazado_194820" data-name="Trazado 194820" d="M110.362,287.256a1.678,1.678,0,1,0-1.678,1.677,1.678,1.678,0,0,0,1.678-1.677" transform="translate(-44.955 -161.474)" fill="#7f4fc7"/>
          <path id="Trazado_194821" data-name="Trazado 194821" d="M120.436,287.256a1.677,1.677,0,1,0-1.677,1.677,1.677,1.677,0,0,0,1.677-1.677" transform="translate(-39.516 -161.474)" fill="#7f4fc7"/>
          <path id="Trazado_194822" data-name="Trazado 194822" d="M130.512,287.256a1.678,1.678,0,1,0-1.677,1.677,1.677,1.677,0,0,0,1.677-1.677" transform="translate(-34.078 -161.474)" fill="#7f4fc7"/>
          <path id="Trazado_194823" data-name="Trazado 194823" d="M140.587,287.256a1.677,1.677,0,1,0-1.677,1.677,1.677,1.677,0,0,0,1.677-1.677" transform="translate(-28.64 -161.474)" fill="#7f4fc7"/>
          <path id="Trazado_194824" data-name="Trazado 194824" d="M150.662,287.256a1.678,1.678,0,1,0-1.677,1.677,1.677,1.677,0,0,0,1.677-1.677" transform="translate(-23.202 -161.474)" fill="#7f4fc7"/>
        </g>
      </g>
      <g id="Grupo_152769" data-name="Grupo 152769" transform="translate(0 87.168)">
        <g id="Grupo_152768" data-name="Grupo 152768" transform="translate(0 0)" clip-path="url(#clip-path-2)">
          <path id="Trazado_194826" data-name="Trazado 194826" d="M2.755,54.71a1.377,1.377,0,1,0-1.377,1.378A1.377,1.377,0,0,0,2.755,54.71" transform="translate(0 -53.333)" fill="#7f4fc7"/>
          <path id="Trazado_194827" data-name="Trazado 194827" d="M11.027,54.71A1.377,1.377,0,1,0,9.65,56.088a1.377,1.377,0,0,0,1.377-1.378" transform="translate(4.465 -53.333)" fill="#7f4fc7"/>
          <path id="Trazado_194828" data-name="Trazado 194828" d="M19.3,54.71a1.377,1.377,0,1,0-1.377,1.378A1.377,1.377,0,0,0,19.3,54.71" transform="translate(8.93 -53.333)" fill="#7f4fc7"/>
          <path id="Trazado_194829" data-name="Trazado 194829" d="M27.573,54.71A1.377,1.377,0,1,0,26.2,56.088a1.377,1.377,0,0,0,1.377-1.378" transform="translate(13.396 -53.333)" fill="#7f4fc7"/>
          <path id="Trazado_194830" data-name="Trazado 194830" d="M35.845,54.71a1.377,1.377,0,1,0-1.377,1.378,1.377,1.377,0,0,0,1.377-1.378" transform="translate(17.861 -53.333)" fill="#7f4fc7"/>
          <path id="Trazado_194831" data-name="Trazado 194831" d="M44.118,54.71a1.377,1.377,0,1,0-1.377,1.378,1.377,1.377,0,0,0,1.377-1.378" transform="translate(22.326 -53.333)" fill="#7f4fc7"/>
          <path id="Trazado_194832" data-name="Trazado 194832" d="M52.39,54.71a1.377,1.377,0,1,0-1.377,1.378A1.377,1.377,0,0,0,52.39,54.71" transform="translate(26.791 -53.333)" fill="#7f4fc7"/>
          <path id="Trazado_194833" data-name="Trazado 194833" d="M60.663,54.71a1.377,1.377,0,1,0-1.377,1.378,1.378,1.378,0,0,0,1.377-1.378" transform="translate(31.257 -53.333)" fill="#7f4fc7"/>
          <path id="Trazado_194834" data-name="Trazado 194834" d="M68.936,54.71a1.377,1.377,0,1,0-1.377,1.378,1.377,1.377,0,0,0,1.377-1.378" transform="translate(35.722 -53.333)" fill="#7f4fc7"/>
          <path id="Trazado_194835" data-name="Trazado 194835" d="M2.755,62.983a1.377,1.377,0,1,0-1.377,1.377,1.376,1.376,0,0,0,1.377-1.377" transform="translate(0 -48.868)" fill="#7f4fc7"/>
          <path id="Trazado_194836" data-name="Trazado 194836" d="M11.027,62.983A1.377,1.377,0,1,0,9.65,64.359a1.376,1.376,0,0,0,1.377-1.377" transform="translate(4.465 -48.868)" fill="#7f4fc7"/>
          <path id="Trazado_194837" data-name="Trazado 194837" d="M19.3,62.983a1.377,1.377,0,1,0-1.377,1.377A1.376,1.376,0,0,0,19.3,62.983" transform="translate(8.93 -48.868)" fill="#7f4fc7"/>
          <path id="Trazado_194838" data-name="Trazado 194838" d="M27.573,62.983A1.377,1.377,0,1,0,26.2,64.359a1.376,1.376,0,0,0,1.377-1.377" transform="translate(13.396 -48.868)" fill="#7f4fc7"/>
          <path id="Trazado_194839" data-name="Trazado 194839" d="M35.845,62.983a1.377,1.377,0,1,0-1.377,1.377,1.376,1.376,0,0,0,1.377-1.377" transform="translate(17.861 -48.868)" fill="#7f4fc7"/>
          <path id="Trazado_194840" data-name="Trazado 194840" d="M44.118,62.983a1.377,1.377,0,1,0-1.377,1.377,1.376,1.376,0,0,0,1.377-1.377" transform="translate(22.326 -48.868)" fill="#7f4fc7"/>
          <path id="Trazado_194841" data-name="Trazado 194841" d="M52.39,62.983a1.377,1.377,0,1,0-1.377,1.377,1.376,1.376,0,0,0,1.377-1.377" transform="translate(26.791 -48.868)" fill="#7f4fc7"/>
          <path id="Trazado_194842" data-name="Trazado 194842" d="M60.663,62.983a1.377,1.377,0,1,0-1.377,1.377,1.377,1.377,0,0,0,1.377-1.377" transform="translate(31.257 -48.868)" fill="#7f4fc7"/>
          <path id="Trazado_194843" data-name="Trazado 194843" d="M68.936,62.983a1.377,1.377,0,1,0-1.377,1.377,1.376,1.376,0,0,0,1.377-1.377" transform="translate(35.722 -48.868)" fill="#7f4fc7"/>
          <path id="Trazado_194844" data-name="Trazado 194844" d="M2.755,71.256a1.377,1.377,0,1,0-1.377,1.377,1.376,1.376,0,0,0,1.377-1.377" transform="translate(0 -44.402)" fill="#7f4fc7"/>
          <path id="Trazado_194845" data-name="Trazado 194845" d="M11.027,71.256A1.377,1.377,0,1,0,9.65,72.632a1.376,1.376,0,0,0,1.377-1.377" transform="translate(4.465 -44.402)" fill="#7f4fc7"/>
          <path id="Trazado_194846" data-name="Trazado 194846" d="M19.3,71.256a1.377,1.377,0,1,0-1.377,1.377A1.376,1.376,0,0,0,19.3,71.256" transform="translate(8.93 -44.402)" fill="#7f4fc7"/>
          <path id="Trazado_194847" data-name="Trazado 194847" d="M27.573,71.256A1.377,1.377,0,1,0,26.2,72.632a1.376,1.376,0,0,0,1.377-1.377" transform="translate(13.396 -44.402)" fill="#7f4fc7"/>
          <path id="Trazado_194848" data-name="Trazado 194848" d="M35.845,71.256a1.377,1.377,0,1,0-1.377,1.377,1.376,1.376,0,0,0,1.377-1.377" transform="translate(17.861 -44.402)" fill="#7f4fc7"/>
          <path id="Trazado_194849" data-name="Trazado 194849" d="M44.118,71.256a1.377,1.377,0,1,0-1.377,1.377,1.376,1.376,0,0,0,1.377-1.377" transform="translate(22.326 -44.402)" fill="#7f4fc7"/>
          <path id="Trazado_194850" data-name="Trazado 194850" d="M52.39,71.256a1.377,1.377,0,1,0-1.377,1.377,1.376,1.376,0,0,0,1.377-1.377" transform="translate(26.791 -44.402)" fill="#7f4fc7"/>
          <path id="Trazado_194851" data-name="Trazado 194851" d="M60.663,71.256a1.377,1.377,0,1,0-1.377,1.377,1.377,1.377,0,0,0,1.377-1.377" transform="translate(31.257 -44.402)" fill="#7f4fc7"/>
          <path id="Trazado_194852" data-name="Trazado 194852" d="M68.936,71.256a1.377,1.377,0,1,0-1.377,1.377,1.376,1.376,0,0,0,1.377-1.377" transform="translate(35.722 -44.402)" fill="#7f4fc7"/>
          <path id="Trazado_194853" data-name="Trazado 194853" d="M2.755,79.528A1.377,1.377,0,1,0,1.378,80.9a1.376,1.376,0,0,0,1.377-1.377" transform="translate(0 -39.937)" fill="#7f4fc7"/>
          <path id="Trazado_194854" data-name="Trazado 194854" d="M11.027,79.528A1.377,1.377,0,1,0,9.65,80.9a1.376,1.376,0,0,0,1.377-1.377" transform="translate(4.465 -39.937)" fill="#7f4fc7"/>
          <path id="Trazado_194855" data-name="Trazado 194855" d="M19.3,79.528A1.377,1.377,0,1,0,17.923,80.9,1.376,1.376,0,0,0,19.3,79.528" transform="translate(8.93 -39.937)" fill="#7f4fc7"/>
          <path id="Trazado_194856" data-name="Trazado 194856" d="M27.573,79.528A1.377,1.377,0,1,0,26.2,80.9a1.376,1.376,0,0,0,1.377-1.377" transform="translate(13.396 -39.937)" fill="#7f4fc7"/>
          <path id="Trazado_194857" data-name="Trazado 194857" d="M35.845,79.528A1.377,1.377,0,1,0,34.468,80.9a1.376,1.376,0,0,0,1.377-1.377" transform="translate(17.861 -39.937)" fill="#7f4fc7"/>
          <path id="Trazado_194858" data-name="Trazado 194858" d="M44.118,79.528A1.377,1.377,0,1,0,42.741,80.9a1.376,1.376,0,0,0,1.377-1.377" transform="translate(22.326 -39.937)" fill="#7f4fc7"/>
          <path id="Trazado_194859" data-name="Trazado 194859" d="M52.39,79.528A1.377,1.377,0,1,0,51.013,80.9a1.376,1.376,0,0,0,1.377-1.377" transform="translate(26.791 -39.937)" fill="#7f4fc7"/>
          <path id="Trazado_194860" data-name="Trazado 194860" d="M60.663,79.528A1.377,1.377,0,1,0,59.286,80.9a1.377,1.377,0,0,0,1.377-1.377" transform="translate(31.257 -39.937)" fill="#7f4fc7"/>
          <path id="Trazado_194861" data-name="Trazado 194861" d="M68.936,79.528A1.377,1.377,0,1,0,67.559,80.9a1.376,1.376,0,0,0,1.377-1.377" transform="translate(35.722 -39.937)" fill="#7f4fc7"/>
          <path id="Trazado_194862" data-name="Trazado 194862" d="M2.755,87.8a1.377,1.377,0,1,0-1.377,1.378A1.376,1.376,0,0,0,2.755,87.8" transform="translate(0 -35.472)" fill="#7f4fc7"/>
          <path id="Trazado_194863" data-name="Trazado 194863" d="M11.027,87.8A1.377,1.377,0,1,0,9.65,89.179,1.376,1.376,0,0,0,11.027,87.8" transform="translate(4.465 -35.472)" fill="#7f4fc7"/>
          <path id="Trazado_194864" data-name="Trazado 194864" d="M19.3,87.8a1.377,1.377,0,1,0-1.377,1.378A1.376,1.376,0,0,0,19.3,87.8" transform="translate(8.93 -35.472)" fill="#7f4fc7"/>
          <path id="Trazado_194865" data-name="Trazado 194865" d="M27.573,87.8A1.377,1.377,0,1,0,26.2,89.179,1.376,1.376,0,0,0,27.573,87.8" transform="translate(13.396 -35.472)" fill="#7f4fc7"/>
          <path id="Trazado_194866" data-name="Trazado 194866" d="M35.845,87.8a1.377,1.377,0,1,0-1.377,1.378A1.376,1.376,0,0,0,35.845,87.8" transform="translate(17.861 -35.472)" fill="#7f4fc7"/>
          <path id="Trazado_194867" data-name="Trazado 194867" d="M44.118,87.8a1.377,1.377,0,1,0-1.377,1.378A1.376,1.376,0,0,0,44.118,87.8" transform="translate(22.326 -35.472)" fill="#7f4fc7"/>
          <path id="Trazado_194868" data-name="Trazado 194868" d="M52.39,87.8a1.377,1.377,0,1,0-1.377,1.378A1.376,1.376,0,0,0,52.39,87.8" transform="translate(26.791 -35.472)" fill="#7f4fc7"/>
          <path id="Trazado_194869" data-name="Trazado 194869" d="M60.663,87.8a1.377,1.377,0,1,0-1.377,1.378A1.377,1.377,0,0,0,60.663,87.8" transform="translate(31.257 -35.472)" fill="#7f4fc7"/>
          <path id="Trazado_194870" data-name="Trazado 194870" d="M68.936,87.8a1.377,1.377,0,1,0-1.377,1.378A1.376,1.376,0,0,0,68.936,87.8" transform="translate(35.722 -35.472)" fill="#7f4fc7"/>
          <path id="Trazado_194871" data-name="Trazado 194871" d="M2.755,96.074A1.377,1.377,0,1,0,1.378,97.45a1.376,1.376,0,0,0,1.377-1.377" transform="translate(0 -31.006)" fill="#7f4fc7"/>
          <path id="Trazado_194872" data-name="Trazado 194872" d="M11.027,96.074A1.377,1.377,0,1,0,9.65,97.45a1.376,1.376,0,0,0,1.377-1.377" transform="translate(4.465 -31.006)" fill="#7f4fc7"/>
          <path id="Trazado_194873" data-name="Trazado 194873" d="M19.3,96.074a1.377,1.377,0,1,0-1.377,1.377A1.376,1.376,0,0,0,19.3,96.074" transform="translate(8.93 -31.006)" fill="#7f4fc7"/>
          <path id="Trazado_194874" data-name="Trazado 194874" d="M27.573,96.074A1.377,1.377,0,1,0,26.2,97.45a1.376,1.376,0,0,0,1.377-1.377" transform="translate(13.396 -31.006)" fill="#7f4fc7"/>
          <path id="Trazado_194875" data-name="Trazado 194875" d="M35.845,96.074a1.377,1.377,0,1,0-1.377,1.377,1.376,1.376,0,0,0,1.377-1.377" transform="translate(17.861 -31.006)" fill="#7f4fc7"/>
          <path id="Trazado_194876" data-name="Trazado 194876" d="M44.118,96.074a1.377,1.377,0,1,0-1.377,1.377,1.376,1.376,0,0,0,1.377-1.377" transform="translate(22.326 -31.006)" fill="#7f4fc7"/>
          <path id="Trazado_194877" data-name="Trazado 194877" d="M52.39,96.074a1.377,1.377,0,1,0-1.377,1.377,1.376,1.376,0,0,0,1.377-1.377" transform="translate(26.791 -31.006)" fill="#7f4fc7"/>
          <path id="Trazado_194878" data-name="Trazado 194878" d="M60.663,96.074a1.377,1.377,0,1,0-1.377,1.377,1.377,1.377,0,0,0,1.377-1.377" transform="translate(31.257 -31.006)" fill="#7f4fc7"/>
          <path id="Trazado_194879" data-name="Trazado 194879" d="M68.936,96.074a1.377,1.377,0,1,0-1.377,1.377,1.376,1.376,0,0,0,1.377-1.377" transform="translate(35.722 -31.006)" fill="#7f4fc7"/>
          <path id="Trazado_194880" data-name="Trazado 194880" d="M2.755,104.346a1.377,1.377,0,1,0-1.377,1.377,1.376,1.376,0,0,0,1.377-1.377" transform="translate(0 -26.541)" fill="#7f4fc7"/>
          <path id="Trazado_194881" data-name="Trazado 194881" d="M11.027,104.346a1.377,1.377,0,1,0-1.377,1.377,1.376,1.376,0,0,0,1.377-1.377" transform="translate(4.465 -26.541)" fill="#7f4fc7"/>
          <path id="Trazado_194882" data-name="Trazado 194882" d="M19.3,104.346a1.377,1.377,0,1,0-1.377,1.377,1.376,1.376,0,0,0,1.377-1.377" transform="translate(8.93 -26.541)" fill="#7f4fc7"/>
          <path id="Trazado_194883" data-name="Trazado 194883" d="M27.573,104.346a1.377,1.377,0,1,0-1.377,1.377,1.376,1.376,0,0,0,1.377-1.377" transform="translate(13.396 -26.541)" fill="#7f4fc7"/>
          <path id="Trazado_194884" data-name="Trazado 194884" d="M35.845,104.346a1.377,1.377,0,1,0-1.377,1.377,1.376,1.376,0,0,0,1.377-1.377" transform="translate(17.861 -26.541)" fill="#7f4fc7"/>
          <path id="Trazado_194885" data-name="Trazado 194885" d="M44.118,104.346a1.377,1.377,0,1,0-1.377,1.377,1.376,1.376,0,0,0,1.377-1.377" transform="translate(22.326 -26.541)" fill="#7f4fc7"/>
          <path id="Trazado_194886" data-name="Trazado 194886" d="M52.39,104.346a1.377,1.377,0,1,0-1.377,1.377,1.376,1.376,0,0,0,1.377-1.377" transform="translate(26.791 -26.541)" fill="#7f4fc7"/>
          <path id="Trazado_194887" data-name="Trazado 194887" d="M60.663,104.346a1.377,1.377,0,1,0-1.377,1.377,1.377,1.377,0,0,0,1.377-1.377" transform="translate(31.257 -26.541)" fill="#7f4fc7"/>
          <path id="Trazado_194888" data-name="Trazado 194888" d="M68.936,104.346a1.377,1.377,0,1,0-1.377,1.377,1.376,1.376,0,0,0,1.377-1.377" transform="translate(35.722 -26.541)" fill="#7f4fc7"/>
          <path id="Trazado_194889" data-name="Trazado 194889" d="M2.755,112.619A1.377,1.377,0,1,0,1.378,114a1.376,1.376,0,0,0,1.377-1.377" transform="translate(0 -22.076)" fill="#7f4fc7"/>
          <path id="Trazado_194890" data-name="Trazado 194890" d="M11.027,112.619A1.377,1.377,0,1,0,9.65,114a1.376,1.376,0,0,0,1.377-1.377" transform="translate(4.465 -22.076)" fill="#7f4fc7"/>
          <path id="Trazado_194891" data-name="Trazado 194891" d="M19.3,112.619A1.377,1.377,0,1,0,17.923,114a1.376,1.376,0,0,0,1.377-1.377" transform="translate(8.93 -22.076)" fill="#7f4fc7"/>
          <path id="Trazado_194892" data-name="Trazado 194892" d="M27.573,112.619A1.377,1.377,0,1,0,26.2,114a1.376,1.376,0,0,0,1.377-1.377" transform="translate(13.396 -22.076)" fill="#7f4fc7"/>
          <path id="Trazado_194893" data-name="Trazado 194893" d="M35.845,112.619A1.377,1.377,0,1,0,34.468,114a1.376,1.376,0,0,0,1.377-1.377" transform="translate(17.861 -22.076)" fill="#7f4fc7"/>
          <path id="Trazado_194894" data-name="Trazado 194894" d="M44.118,112.619A1.377,1.377,0,1,0,42.741,114a1.376,1.376,0,0,0,1.377-1.377" transform="translate(22.326 -22.076)" fill="#7f4fc7"/>
          <path id="Trazado_194895" data-name="Trazado 194895" d="M52.39,112.619A1.377,1.377,0,1,0,51.013,114a1.376,1.376,0,0,0,1.377-1.377" transform="translate(26.791 -22.076)" fill="#7f4fc7"/>
          <path id="Trazado_194896" data-name="Trazado 194896" d="M60.663,112.619A1.377,1.377,0,1,0,59.286,114a1.377,1.377,0,0,0,1.377-1.377" transform="translate(31.257 -22.076)" fill="#7f4fc7"/>
          <path id="Trazado_194897" data-name="Trazado 194897" d="M68.936,112.619A1.377,1.377,0,1,0,67.559,114a1.376,1.376,0,0,0,1.377-1.377" transform="translate(35.722 -22.076)" fill="#7f4fc7"/>
          <path id="Trazado_194898" data-name="Trazado 194898" d="M2.755,120.891a1.377,1.377,0,1,0-1.377,1.377,1.376,1.376,0,0,0,1.377-1.377" transform="translate(0 -17.611)" fill="#7f4fc7"/>
          <path id="Trazado_194899" data-name="Trazado 194899" d="M11.027,120.891a1.377,1.377,0,1,0-1.377,1.377,1.376,1.376,0,0,0,1.377-1.377" transform="translate(4.465 -17.611)" fill="#7f4fc7"/>
          <path id="Trazado_194900" data-name="Trazado 194900" d="M19.3,120.891a1.377,1.377,0,1,0-1.377,1.377,1.376,1.376,0,0,0,1.377-1.377" transform="translate(8.93 -17.611)" fill="#7f4fc7"/>
          <path id="Trazado_194901" data-name="Trazado 194901" d="M27.573,120.891a1.377,1.377,0,1,0-1.377,1.377,1.376,1.376,0,0,0,1.377-1.377" transform="translate(13.396 -17.611)" fill="#7f4fc7"/>
          <path id="Trazado_194902" data-name="Trazado 194902" d="M35.845,120.891a1.377,1.377,0,1,0-1.377,1.377,1.376,1.376,0,0,0,1.377-1.377" transform="translate(17.861 -17.611)" fill="#7f4fc7"/>
          <path id="Trazado_194903" data-name="Trazado 194903" d="M44.118,120.891a1.377,1.377,0,1,0-1.377,1.377,1.376,1.376,0,0,0,1.377-1.377" transform="translate(22.326 -17.611)" fill="#7f4fc7"/>
          <path id="Trazado_194904" data-name="Trazado 194904" d="M52.39,120.891a1.377,1.377,0,1,0-1.377,1.377,1.376,1.376,0,0,0,1.377-1.377" transform="translate(26.791 -17.611)" fill="#7f4fc7"/>
          <path id="Trazado_194905" data-name="Trazado 194905" d="M60.663,120.891a1.377,1.377,0,1,0-1.377,1.377,1.377,1.377,0,0,0,1.377-1.377" transform="translate(31.257 -17.611)" fill="#7f4fc7"/>
          <path id="Trazado_194906" data-name="Trazado 194906" d="M68.936,120.891a1.377,1.377,0,1,0-1.377,1.377,1.376,1.376,0,0,0,1.377-1.377" transform="translate(35.722 -17.611)" fill="#7f4fc7"/>
        </g>
      </g>
    </g>
    <g id="Grupo_152570" data-name="Grupo 152570" transform="translate(1393.933 416.714)">
      <g id="Grupo_152551" data-name="Grupo 152551" transform="translate(0 234.956) rotate(-90)">
        <rect id="Rectángulo_45220" data-name="Rectángulo 45220" width="169.686" height="50.529" transform="translate(234.956 50.529) rotate(180)" fill="#e8e8e8"/>
        <g id="Grupo_152556" data-name="Grupo 152556" transform="translate(0 27.99)">
          <rect id="Rectángulo_45221" data-name="Rectángulo 45221" width="8.586" height="8.586" transform="translate(182.456 36.491)" fill="#1894f6"/>
          <rect id="Rectángulo_45222" data-name="Rectángulo 45222" width="8.586" height="8.586" transform="translate(164.211 36.491)" fill="#1894f6"/>
          <rect id="Rectángulo_45223" data-name="Rectángulo 45223" width="8.586" height="8.586" transform="translate(145.965 36.491)" fill="#1894f6"/>
          <rect id="Rectángulo_45224" data-name="Rectángulo 45224" width="8.586" height="8.586" transform="translate(127.72 36.491)" fill="#1894f6"/>
          <rect id="Rectángulo_45225" data-name="Rectángulo 45225" width="8.586" height="8.586" transform="translate(109.474 36.491)" fill="#1894f6"/>
          <rect id="Rectángulo_45226" data-name="Rectángulo 45226" width="8.586" height="8.586" transform="translate(91.228 36.491)" fill="#1894f6"/>
          <rect id="Rectángulo_45227" data-name="Rectángulo 45227" width="8.586" height="8.586" transform="translate(72.983 36.491)" fill="#1894f6"/>
          <rect id="Rectángulo_45228" data-name="Rectángulo 45228" width="8.586" height="8.586" transform="translate(54.737 36.491)" fill="#1894f6"/>
          <rect id="Rectángulo_45229" data-name="Rectángulo 45229" width="8.586" height="8.586" transform="translate(36.491 36.491)" fill="#1894f6"/>
          <rect id="Rectángulo_45230" data-name="Rectángulo 45230" width="8.586" height="8.586" transform="translate(18.246 36.491)" fill="#1894f6"/>
          <rect id="Rectángulo_45231" data-name="Rectángulo 45231" width="8.586" height="8.586" transform="translate(0 36.491)" fill="#1894f6"/>
          <rect id="Rectángulo_45232" data-name="Rectángulo 45232" width="8.586" height="8.586" transform="translate(182.456 18.246)" fill="#1894f6"/>
          <rect id="Rectángulo_45233" data-name="Rectángulo 45233" width="8.586" height="8.586" transform="translate(164.211 18.246)" fill="#1894f6"/>
          <rect id="Rectángulo_45234" data-name="Rectángulo 45234" width="8.586" height="8.586" transform="translate(145.965 18.246)" fill="#1894f6"/>
          <rect id="Rectángulo_45235" data-name="Rectángulo 45235" width="8.586" height="8.586" transform="translate(127.72 18.246)" fill="#1894f6"/>
          <rect id="Rectángulo_45236" data-name="Rectángulo 45236" width="8.586" height="8.586" transform="translate(109.474 18.246)" fill="#1894f6"/>
          <rect id="Rectángulo_45237" data-name="Rectángulo 45237" width="8.586" height="8.586" transform="translate(91.228 18.246)" fill="#1894f6"/>
          <rect id="Rectángulo_45238" data-name="Rectángulo 45238" width="8.586" height="8.586" transform="translate(72.983 18.246)" fill="#1894f6"/>
          <rect id="Rectángulo_45239" data-name="Rectángulo 45239" width="8.586" height="8.586" transform="translate(54.737 18.246)" fill="#1894f6"/>
          <rect id="Rectángulo_45240" data-name="Rectángulo 45240" width="8.586" height="8.586" transform="translate(36.491 18.246)" fill="#1894f6"/>
          <rect id="Rectángulo_45241" data-name="Rectángulo 45241" width="8.586" height="8.586" transform="translate(18.246 18.246)" fill="#1894f6"/>
          <rect id="Rectángulo_45242" data-name="Rectángulo 45242" width="8.586" height="8.586" transform="translate(0 18.246)" fill="#1894f6"/>
          <rect id="Rectángulo_45243" data-name="Rectángulo 45243" width="8.586" height="8.586" transform="translate(182.456 0)" fill="#1894f6"/>
          <rect id="Rectángulo_45244" data-name="Rectángulo 45244" width="8.586" height="8.586" transform="translate(164.211 0)" fill="#1894f6"/>
          <rect id="Rectángulo_45245" data-name="Rectángulo 45245" width="8.586" height="8.586" transform="translate(145.965 0)" fill="#1894f6"/>
          <rect id="Rectángulo_45246" data-name="Rectángulo 45246" width="8.586" height="8.586" transform="translate(127.72 0)" fill="#1894f6"/>
          <rect id="Rectángulo_45247" data-name="Rectángulo 45247" width="8.586" height="8.586" transform="translate(109.474 0)" fill="#1894f6"/>
          <rect id="Rectángulo_45248" data-name="Rectángulo 45248" width="8.586" height="8.586" transform="translate(91.228 0)" fill="#1894f6"/>
          <rect id="Rectángulo_45249" data-name="Rectángulo 45249" width="8.586" height="8.586" transform="translate(72.983 0)" fill="#1894f6"/>
          <rect id="Rectángulo_45250" data-name="Rectángulo 45250" width="8.586" height="8.586" transform="translate(54.737 0)" fill="#1894f6"/>
          <rect id="Rectángulo_45251" data-name="Rectángulo 45251" width="8.586" height="8.586" transform="translate(36.491 0)" fill="#1894f6"/>
          <rect id="Rectángulo_45252" data-name="Rectángulo 45252" width="8.586" height="8.586" transform="translate(18.246 0)" fill="#1894f6"/>
          <rect id="Rectángulo_45253" data-name="Rectángulo 45253" width="8.586" height="8.586" transform="translate(0 0)" fill="#1894f6"/>
        </g>
      </g>
    </g>
    <g id="Grupo_152799" data-name="Grupo 152799" transform="translate(880.932 497.628)">
      <path id="Trazado_194931" data-name="Trazado 194931" d="M141.583,190.048,94.633,143.1,30.5,160.284,13.315,224.417l46.948,46.95L124.4,254.182Z" transform="translate(-4.24 -138.555)" fill="#fff399"/>
      <path id="Trazado_194932" data-name="Trazado 194932" d="M39.158,250.261l17.186-64.134,64.134-17.186-17.186,64.134Z" transform="translate(16.866 -117.451)" fill="#ffd13e"/>
      <path id="Trazado_194933" data-name="Trazado 194933" d="M43.938,215.43l1.63-6.084,23.973-6.513-1.657,6.18Z" transform="translate(20.769 -89.771)" fill="#272343"/>
      <path id="Trazado_194934" data-name="Trazado 194934" d="M58.031,209.821l1.63-6.084,8.56-2.362-1.657,6.18Z" transform="translate(32.279 -90.962)" fill="#fff"/>
      <g id="Grupo_152777" data-name="Grupo 152777" transform="translate(56.024 65.339)" opacity="0.1" style="mix-blend-mode: multiply;isolation: isolate">
        <g id="Grupo_152776" data-name="Grupo 152776" transform="translate(0 0)">
          <g id="Grupo_152775" data-name="Grupo 152775" clip-path="url(#clip-path-3)">
            <path id="Trazado_194935" data-name="Trazado 194935" d="M68.8,176.564,56.343,179.9,39.159,244.035l64.134-17.184,6.055-22.6c-9.915,13.205-28.071,14.575-36.284,7.732-8.713-7.261-8.382-23.488-4.266-35.418" transform="translate(-39.158 -176.564)" fill="#ff9100"/>
          </g>
        </g>
      </g>
      <path id="Trazado_194936" data-name="Trazado 194936" d="M30.5,152.557l46.95,46.95L60.263,263.642l-46.948-46.95Z" transform="translate(-4.239 -130.831)" fill="#ffe05f"/>
      <path id="Trazado_194937" data-name="Trazado 194937" d="M36.126,163.114l8.593,8.593L38.5,195.1,29.909,186.5Z" transform="translate(9.312 -122.207)" fill="#272343"/>
      <path id="Trazado_194938" data-name="Trazado 194938" d="M33.331,171.679l8.593,8.593,62.268-19.051L95.6,152.627Z" transform="translate(12.107 -130.774)" fill="#534f7f"/>
      <g id="Grupo_152780" data-name="Grupo 152780" transform="translate(9.075 48.708)" opacity="0.1" style="mix-blend-mode: multiply;isolation: isolate">
        <g id="Grupo_152779" data-name="Grupo 152779" transform="translate(0 0)">
          <g id="Grupo_152778" data-name="Grupo 152778" clip-path="url(#clip-path-4)">
            <path id="Trazado_194939" data-name="Trazado 194939" d="M64.7,174.627s-4.932,21.068-18.1,21.344c-10.529.22-23.188-10.9-23.332-28.562l-9.955,37.153,46.948,46.95,17.186-64.134Z" transform="translate(-13.314 -167.409)" fill="#ff9100"/>
          </g>
        </g>
      </g>
      <g id="Grupo_152783" data-name="Grupo 152783" transform="translate(26.26 18.734)" opacity="0.1" style="mix-blend-mode: multiply;isolation: isolate">
        <g id="Grupo_152782" data-name="Grupo 152782" transform="translate(0 0)">
          <g id="Grupo_152781" data-name="Grupo 152781" clip-path="url(#clip-path-5)">
            <path id="Trazado_194940" data-name="Trazado 194940" d="M33.946,150.91s17.309,50.216,96.073,28.92l3.839,3.839L69.723,200.854,22.775,153.9Z" transform="translate(-22.774 -150.91)" fill="#ff9100"/>
          </g>
        </g>
      </g>
      <path id="Trazado_194941" data-name="Trazado 194941" d="M29.262,141.828a2,2,0,0,0-1.219.948l-3.108,5.5a2.01,2.01,0,1,0,3.5,1.98l3.108-5.5a1.91,1.91,0,0,0,.153-.334,2.011,2.011,0,0,0-2.433-2.594" transform="translate(5.033 -139.653)" fill="#bae8e8"/>
      <path id="Trazado_194942" data-name="Trazado 194942" d="M9.74,147.465a2,2,0,0,0,.759,2.74l5.5,3.11a2.012,2.012,0,0,0,2.74-.761,1.962,1.962,0,0,0,.151-.327,2.016,2.016,0,0,0-.91-2.413l-5.5-3.11a2.013,2.013,0,0,0-2.74.761" transform="translate(-7.377 -135.823)" fill="#bae8e8"/>
      <path id="Trazado_194943" data-name="Trazado 194943" d="M9.792,156.7a2.01,2.01,0,0,0-.447,3.69,1.985,1.985,0,0,0,1.522.184l6.088-1.686a2.013,2.013,0,0,0,1.4-2.474,2.013,2.013,0,0,0-2.476-1.4Z" transform="translate(-8.319 -128.886)" fill="#bae8e8"/>
      <path id="Trazado_194944" data-name="Trazado 194944" d="M20.907,142.073h0a2.011,2.011,0,0,0-3.877,1.072l1.688,6.088a2.01,2.01,0,0,0,3.837.12,2,2,0,0,0,.038-1.194Z" transform="translate(-1.264 -140.598)" fill="#bae8e8"/>
    </g>
    <g id="Grupo_152802" data-name="Grupo 152802" transform="translate(1022.404 428.47)">
      <path id="Trazado_194963" data-name="Trazado 194963" d="M55.63,159.686a63.858,63.858,0,0,0,1.883,15.471H128.4a63.943,63.943,0,0,0,1.883-15.471c0-20.146-20.4-41.366-31.038-51.061a6.852,6.852,0,0,1,0-10.137c10.638-9.695,31.038-30.915,31.038-51.061a63.664,63.664,0,0,0-2.173-16.607H57.8A63.664,63.664,0,0,0,55.63,47.429c0,20.146,20.4,41.366,31.037,51.061a6.85,6.85,0,0,1,0,10.137C76.03,118.321,55.63,139.54,55.63,159.686" transform="translate(-36.695 -3.572)" fill="#bae8e8"/>
      <path id="Trazado_194964" data-name="Trazado 194964" d="M123.977,32.822a60.705,60.705,0,0,1,1.429,13.171c0,19.184-20.921,40.323-29.916,48.521a10.288,10.288,0,0,0,0,15.215c9,8.2,29.916,29.337,29.916,48.521a60.86,60.86,0,0,1-1.192,12.035H58.821a60.858,60.858,0,0,1-1.192-12.035c0-19.184,20.921-40.323,29.916-48.521a10.288,10.288,0,0,0,0-15.215c-9-8.2-29.916-29.337-29.916-48.521a60.6,60.6,0,0,1,1.429-13.171Z" transform="translate(-35.26 -2.135)" fill="#eaf9f8"/>
      <path id="Trazado_194965" data-name="Trazado 194965" d="M131.8,25.369H56.753a2.965,2.965,0,1,0,0,5.931H131.8a2.965,2.965,0,0,0,0-5.931" transform="translate(-38.018 -7.487)" fill="#272343"/>
      <path id="Trazado_194966" data-name="Trazado 194966" d="M130.278,28.821H55.629v1.3a2.143,2.143,0,0,0,2.144,2.142H128.1a2.176,2.176,0,0,0,2.177-2.177Z" transform="translate(-36.696 -5.009)" fill="#534f7f"/>
      <path id="Trazado_194967" data-name="Trazado 194967" d="M56.752,122.765H131.8a2.965,2.965,0,0,0,0-5.931H56.752a2.965,2.965,0,1,0,0,5.931" transform="translate(-38.019 58.189)" fill="#272343"/>
      <path id="Trazado_194968" data-name="Trazado 194968" d="M55.63,118.271h74.649v-1.3a2.143,2.143,0,0,0-2.144-2.142H57.807a2.176,2.176,0,0,0-2.177,2.177Z" transform="translate(-36.695 56.753)" fill="#534f7f"/>
      <path id="Trazado_194969" data-name="Trazado 194969" d="M91.806,135.3V92.026H91.8a10.317,10.317,0,0,1,3.362-7.608c6.609-6.023,19.651-19.038,26.106-33.127-8.3.086-18.684-.988-31.959-3.7C79,45.48,68.339,48.482,61.158,51.4c6.472,14.047,19.464,27.01,26.056,33.019a10.319,10.319,0,0,1,3.364,7.608v43.243L58.091,157.082c.345,2.469.744,4.843,1.088,6.544h64.135c.342-1.687.708-4.039,1.019-6.487Z" transform="translate(-34.928 7.96)" fill="#ffe05f"/>
      <path id="Trazado_194970" data-name="Trazado 194970" d="M61.144,113.538a.855.855,0,1,0-.856.854.855.855,0,0,0,.856-.854" transform="translate(-33.963 55.209)" fill="#fff9c5"/>
      <path id="Trazado_194971" data-name="Trazado 194971" d="M65.018,113.538a.854.854,0,1,0-.854.854.854.854,0,0,0,.854-.854" transform="translate(-31.181 55.209)" fill="#fff9c5"/>
      <path id="Trazado_194972" data-name="Trazado 194972" d="M68.893,113.538a.854.854,0,1,0-.854.854.854.854,0,0,0,.854-.854" transform="translate(-28.398 55.209)" fill="#fff9c5"/>
      <path id="Trazado_194973" data-name="Trazado 194973" d="M72.768,113.538a.854.854,0,1,0-.854.854.854.854,0,0,0,.854-.854" transform="translate(-25.616 55.209)" fill="#fff9c5"/>
      <path id="Trazado_194974" data-name="Trazado 194974" d="M76.643,113.538a.854.854,0,1,0-.854.854.854.854,0,0,0,.854-.854" transform="translate(-22.833 55.209)" fill="#fff9c5"/>
      <path id="Trazado_194975" data-name="Trazado 194975" d="M80.517,113.538a.854.854,0,1,0-.854.854.854.854,0,0,0,.854-.854" transform="translate(-20.052 55.209)" fill="#fff9c5"/>
      <path id="Trazado_194976" data-name="Trazado 194976" d="M84.392,113.538a.854.854,0,1,0-.854.854.854.854,0,0,0,.854-.854" transform="translate(-17.269 55.209)" fill="#fff9c5"/>
      <path id="Trazado_194977" data-name="Trazado 194977" d="M88.267,113.538a.854.854,0,1,0-.854.854.854.854,0,0,0,.854-.854" transform="translate(-14.487 55.209)" fill="#fff9c5"/>
      <path id="Trazado_194978" data-name="Trazado 194978" d="M92.142,113.538a.854.854,0,1,0-.854.854.854.854,0,0,0,.854-.854" transform="translate(-11.704 55.209)" fill="#fff9c5"/>
      <path id="Trazado_194979" data-name="Trazado 194979" d="M96.017,113.538a.854.854,0,1,0-.854.854.854.854,0,0,0,.854-.854" transform="translate(-8.922 55.209)" fill="#fff9c5"/>
      <path id="Trazado_194980" data-name="Trazado 194980" d="M63.081,110.664a.854.854,0,1,0-.854.854.854.854,0,0,0,.854-.854" transform="translate(-32.572 53.146)" fill="#fff9c5"/>
      <path id="Trazado_194981" data-name="Trazado 194981" d="M66.956,110.664a.854.854,0,1,0-.854.854.854.854,0,0,0,.854-.854" transform="translate(-29.789 53.146)" fill="#fff9c5"/>
      <path id="Trazado_194982" data-name="Trazado 194982" d="M70.831,110.664a.855.855,0,1,0-.856.854.855.855,0,0,0,.856-.854" transform="translate(-27.007 53.146)" fill="#fff9c5"/>
      <path id="Trazado_194983" data-name="Trazado 194983" d="M74.7,110.664a.854.854,0,1,0-.854.854.854.854,0,0,0,.854-.854" transform="translate(-24.225 53.146)" fill="#fff9c5"/>
      <path id="Trazado_194984" data-name="Trazado 194984" d="M78.58,110.664a.854.854,0,1,0-.854.854.854.854,0,0,0,.854-.854" transform="translate(-21.442 53.146)" fill="#fff9c5"/>
      <path id="Trazado_194985" data-name="Trazado 194985" d="M82.455,110.664a.854.854,0,1,0-.854.854.854.854,0,0,0,.854-.854" transform="translate(-18.66 53.146)" fill="#fff9c5"/>
      <path id="Trazado_194986" data-name="Trazado 194986" d="M86.33,110.664a.854.854,0,1,0-.854.854.854.854,0,0,0,.854-.854" transform="translate(-15.878 53.146)" fill="#fff9c5"/>
      <path id="Trazado_194987" data-name="Trazado 194987" d="M90.205,110.664a.855.855,0,1,0-.856.854.855.855,0,0,0,.856-.854" transform="translate(-13.096 53.146)" fill="#fff9c5"/>
      <path id="Trazado_194988" data-name="Trazado 194988" d="M94.079,110.664a.854.854,0,1,0-.854.854.854.854,0,0,0,.854-.854" transform="translate(-10.313 53.146)" fill="#fff9c5"/>
      <path id="Trazado_194989" data-name="Trazado 194989" d="M66.018,107.791a.854.854,0,1,0-.854.854.854.854,0,0,0,.854-.854" transform="translate(-30.463 51.082)" fill="#fff9c5"/>
      <path id="Trazado_194990" data-name="Trazado 194990" d="M68.893,107.791a.854.854,0,1,0-.854.854.854.854,0,0,0,.854-.854" transform="translate(-28.398 51.082)" fill="#fff9c5"/>
      <path id="Trazado_194991" data-name="Trazado 194991" d="M72.768,107.791a.854.854,0,1,0-.854.854.854.854,0,0,0,.854-.854" transform="translate(-25.616 51.082)" fill="#fff9c5"/>
      <path id="Trazado_194992" data-name="Trazado 194992" d="M76.643,107.791a.854.854,0,1,0-.854.854.854.854,0,0,0,.854-.854" transform="translate(-22.833 51.082)" fill="#fff9c5"/>
      <path id="Trazado_194993" data-name="Trazado 194993" d="M80.517,107.791a.854.854,0,1,0-.854.854.854.854,0,0,0,.854-.854" transform="translate(-20.052 51.082)" fill="#fff9c5"/>
      <path id="Trazado_194994" data-name="Trazado 194994" d="M84.392,107.791a.854.854,0,1,0-.854.854.854.854,0,0,0,.854-.854" transform="translate(-17.269 51.082)" fill="#fff9c5"/>
      <path id="Trazado_194995" data-name="Trazado 194995" d="M88.267,107.791a.854.854,0,1,0-.854.854.854.854,0,0,0,.854-.854" transform="translate(-14.487 51.082)" fill="#fff9c5"/>
      <path id="Trazado_194996" data-name="Trazado 194996" d="M91.142,107.791a.854.854,0,1,0-.854.854.854.854,0,0,0,.854-.854" transform="translate(-12.422 51.082)" fill="#fff9c5"/>
      <path id="Trazado_194997" data-name="Trazado 194997" d="M70.831,104.917a.855.855,0,1,0-.856.854.855.855,0,0,0,.856-.854" transform="translate(-27.007 49.019)" fill="#fff9c5"/>
      <path id="Trazado_194998" data-name="Trazado 194998" d="M74.7,104.917a.854.854,0,1,0-.854.854.854.854,0,0,0,.854-.854" transform="translate(-24.225 49.019)" fill="#fff9c5"/>
      <path id="Trazado_194999" data-name="Trazado 194999" d="M78.58,104.917a.854.854,0,1,0-.854.854.854.854,0,0,0,.854-.854" transform="translate(-21.442 49.019)" fill="#fff9c5"/>
      <path id="Trazado_195000" data-name="Trazado 195000" d="M82.455,104.917a.854.854,0,1,0-.854.854.854.854,0,0,0,.854-.854" transform="translate(-18.66 49.019)" fill="#fff9c5"/>
      <path id="Trazado_195001" data-name="Trazado 195001" d="M86.33,104.917a.854.854,0,1,0-.854.854.854.854,0,0,0,.854-.854" transform="translate(-15.878 49.019)" fill="#fff9c5"/>
      <path id="Trazado_195002" data-name="Trazado 195002" d="M76.643,102.043a.854.854,0,1,0-.854.854.854.854,0,0,0,.854-.854" transform="translate(-22.833 46.955)" fill="#fff9c5"/>
      <path id="Trazado_195003" data-name="Trazado 195003" d="M80.517,102.043a.854.854,0,1,0-.854.854.854.854,0,0,0,.854-.854" transform="translate(-20.052 46.955)" fill="#fff9c5"/>
      <path id="Trazado_195004" data-name="Trazado 195004" d="M78.58,100.169a.854.854,0,1,0-.854.854.854.854,0,0,0,.854-.854" transform="translate(-21.442 45.609)" fill="#fff9c5"/>
      <path id="Trazado_195005" data-name="Trazado 195005" d="M90.434,53.69a.853.853,0,1,0,.852-.854.853.853,0,0,0-.852.854" transform="translate(-11.704 12.235)" fill="#fff9c5"/>
      <path id="Trazado_195006" data-name="Trazado 195006" d="M86.559,53.69a.854.854,0,1,0,.854-.854.854.854,0,0,0-.854.854" transform="translate(-14.487 12.235)" fill="#fff9c5"/>
      <path id="Trazado_195007" data-name="Trazado 195007" d="M82.684,53.69a.854.854,0,1,0,.854-.854.854.854,0,0,0-.854.854" transform="translate(-17.269 12.235)" fill="#fff9c5"/>
      <path id="Trazado_195008" data-name="Trazado 195008" d="M78.809,53.69a.854.854,0,1,0,.854-.854.854.854,0,0,0-.854.854" transform="translate(-20.052 12.235)" fill="#fff9c5"/>
      <path id="Trazado_195009" data-name="Trazado 195009" d="M74.934,53.69a.854.854,0,1,0,.854-.854.854.854,0,0,0-.854.854" transform="translate(-22.834 12.235)" fill="#fff9c5"/>
      <path id="Trazado_195010" data-name="Trazado 195010" d="M71.06,53.69a.853.853,0,1,0,.852-.854.853.853,0,0,0-.852.854" transform="translate(-25.616 12.235)" fill="#fff9c5"/>
      <path id="Trazado_195011" data-name="Trazado 195011" d="M67.185,53.69a.854.854,0,1,0,.854-.854.854.854,0,0,0-.854.854" transform="translate(-28.398 12.235)" fill="#fff9c5"/>
      <path id="Trazado_195012" data-name="Trazado 195012" d="M63.31,53.69a.854.854,0,1,0,.854-.854.854.854,0,0,0-.854.854" transform="translate(-31.181 12.235)" fill="#fff9c5"/>
      <path id="Trazado_195013" data-name="Trazado 195013" d="M74.934,48.466a.854.854,0,1,0,.854-.854.854.854,0,0,0-.854.854" transform="translate(-22.834 8.484)" fill="#fff9c5"/>
      <path id="Trazado_195014" data-name="Trazado 195014" d="M71.06,48.466a.853.853,0,1,0,.852-.854.853.853,0,0,0-.852.854" transform="translate(-25.616 8.484)" fill="#fff9c5"/>
      <path id="Trazado_195015" data-name="Trazado 195015" d="M67.185,48.466a.854.854,0,1,0,.854-.854.854.854,0,0,0-.854.854" transform="translate(-28.398 8.484)" fill="#fff9c5"/>
      <path id="Trazado_195016" data-name="Trazado 195016" d="M88.5,56.564a.854.854,0,1,0,.854-.854.854.854,0,0,0-.854.854" transform="translate(-13.096 14.299)" fill="#fff9c5"/>
      <path id="Trazado_195017" data-name="Trazado 195017" d="M84.621,56.564a.854.854,0,1,0,.854-.854.854.854,0,0,0-.854.854" transform="translate(-15.878 14.299)" fill="#fff9c5"/>
      <path id="Trazado_195018" data-name="Trazado 195018" d="M80.746,56.564a.854.854,0,1,0,.854-.854.854.854,0,0,0-.854.854" transform="translate(-18.661 14.299)" fill="#fff9c5"/>
      <path id="Trazado_195019" data-name="Trazado 195019" d="M76.872,56.564a.854.854,0,1,0,.854-.854.854.854,0,0,0-.854.854" transform="translate(-21.442 14.299)" fill="#fff9c5"/>
      <path id="Trazado_195020" data-name="Trazado 195020" d="M73,56.564a.854.854,0,1,0,.854-.854.854.854,0,0,0-.854.854" transform="translate(-24.225 14.299)" fill="#fff9c5"/>
      <path id="Trazado_195021" data-name="Trazado 195021" d="M69.122,56.564a.854.854,0,1,0,.854-.854.854.854,0,0,0-.854.854" transform="translate(-27.007 14.299)" fill="#fff9c5"/>
      <path id="Trazado_195022" data-name="Trazado 195022" d="M65.247,56.564a.854.854,0,1,0,.854-.854.854.854,0,0,0-.854.854" transform="translate(-29.79 14.299)" fill="#fff9c5"/>
      <path id="Trazado_195023" data-name="Trazado 195023" d="M92.371,50.88a.854.854,0,1,0,.854-.854.854.854,0,0,0-.854.854" transform="translate(-10.313 10.217)" fill="#fff9c5"/>
      <path id="Trazado_195024" data-name="Trazado 195024" d="M88.5,50.88a.854.854,0,1,0,.854-.854.854.854,0,0,0-.854.854" transform="translate(-13.096 10.217)" fill="#fff9c5"/>
      <path id="Trazado_195025" data-name="Trazado 195025" d="M84.621,50.88a.854.854,0,1,0,.854-.854.854.854,0,0,0-.854.854" transform="translate(-15.878 10.217)" fill="#fff9c5"/>
      <path id="Trazado_195026" data-name="Trazado 195026" d="M80.746,50.88a.854.854,0,1,0,.854-.854.854.854,0,0,0-.854.854" transform="translate(-18.661 10.217)" fill="#fff9c5"/>
      <path id="Trazado_195027" data-name="Trazado 195027" d="M76.872,50.88a.854.854,0,1,0,.854-.854.854.854,0,0,0-.854.854" transform="translate(-21.442 10.217)" fill="#fff9c5"/>
      <path id="Trazado_195028" data-name="Trazado 195028" d="M73,50.88a.854.854,0,1,0,.854-.854A.854.854,0,0,0,73,50.88" transform="translate(-24.225 10.217)" fill="#fff9c5"/>
      <path id="Trazado_195029" data-name="Trazado 195029" d="M69.122,50.88a.854.854,0,1,0,.854-.854.854.854,0,0,0-.854.854" transform="translate(-27.007 10.217)" fill="#fff9c5"/>
      <path id="Trazado_195030" data-name="Trazado 195030" d="M65.247,50.88a.854.854,0,1,0,.854-.854.854.854,0,0,0-.854.854" transform="translate(-29.79 10.217)" fill="#fff9c5"/>
      <path id="Trazado_195031" data-name="Trazado 195031" d="M61.373,50.88a.854.854,0,1,0,.852-.854.853.853,0,0,0-.852.854" transform="translate(-32.572 10.217)" fill="#fff9c5"/>
      <path id="Trazado_195032" data-name="Trazado 195032" d="M86.559,59.437a.854.854,0,1,0,.854-.854.854.854,0,0,0-.854.854" transform="translate(-14.487 16.362)" fill="#fff9c5"/>
      <path id="Trazado_195033" data-name="Trazado 195033" d="M82.684,59.437a.854.854,0,1,0,.854-.854.854.854,0,0,0-.854.854" transform="translate(-17.269 16.362)" fill="#fff9c5"/>
      <path id="Trazado_195034" data-name="Trazado 195034" d="M78.809,59.437a.854.854,0,1,0,.854-.854.854.854,0,0,0-.854.854" transform="translate(-20.052 16.362)" fill="#fff9c5"/>
      <path id="Trazado_195035" data-name="Trazado 195035" d="M74.934,59.437a.854.854,0,1,0,.854-.854.854.854,0,0,0-.854.854" transform="translate(-22.834 16.362)" fill="#fff9c5"/>
      <path id="Trazado_195036" data-name="Trazado 195036" d="M71.06,59.437a.853.853,0,1,0,.852-.854.853.853,0,0,0-.852.854" transform="translate(-25.616 16.362)" fill="#fff9c5"/>
      <path id="Trazado_195037" data-name="Trazado 195037" d="M67.185,59.437a.854.854,0,1,0,.854-.854.854.854,0,0,0-.854.854" transform="translate(-28.398 16.362)" fill="#fff9c5"/>
      <path id="Trazado_195038" data-name="Trazado 195038" d="M84.621,62.311a.854.854,0,1,0,.854-.854.854.854,0,0,0-.854.854" transform="translate(-15.878 18.426)" fill="#fff9c5"/>
      <path id="Trazado_195039" data-name="Trazado 195039" d="M80.746,62.311a.854.854,0,1,0,.854-.854.854.854,0,0,0-.854.854" transform="translate(-18.661 18.426)" fill="#fff9c5"/>
      <path id="Trazado_195040" data-name="Trazado 195040" d="M76.872,62.311a.854.854,0,1,0,.854-.854.854.854,0,0,0-.854.854" transform="translate(-21.442 18.426)" fill="#fff9c5"/>
      <path id="Trazado_195041" data-name="Trazado 195041" d="M73,62.311a.854.854,0,1,0,.854-.854.854.854,0,0,0-.854.854" transform="translate(-24.225 18.426)" fill="#fff9c5"/>
      <path id="Trazado_195042" data-name="Trazado 195042" d="M69.122,62.311a.854.854,0,1,0,.854-.854.854.854,0,0,0-.854.854" transform="translate(-27.007 18.426)" fill="#fff9c5"/>
      <path id="Trazado_195043" data-name="Trazado 195043" d="M78.809,65.185a.854.854,0,1,0,.854-.854.854.854,0,0,0-.854.854" transform="translate(-20.052 20.489)" fill="#fff9c5"/>
      <path id="Trazado_195044" data-name="Trazado 195044" d="M74.934,65.185a.854.854,0,1,0,.854-.854.854.854,0,0,0-.854.854" transform="translate(-22.834 20.489)" fill="#fff9c5"/>
      <path id="Trazado_195045" data-name="Trazado 195045" d="M76.872,67.059a.854.854,0,1,0,.854-.854.854.854,0,0,0-.854.854" transform="translate(-21.442 21.835)" fill="#fff9c5"/>
      <g id="Grupo_152795" data-name="Grupo 152795" transform="translate(26.666 34.98)" opacity="0.8">
        <g id="Grupo_152794" data-name="Grupo 152794" transform="translate(0 0)">
          <g id="Grupo_152793" data-name="Grupo 152793" clip-path="url(#clip-path-6)">
            <path id="Trazado_195046" data-name="Trazado 195046" d="M69.887,50.555A20.613,20.613,0,0,1,68.72,44.2c0-1.405.06-2.823.18-4.216a4.3,4.3,0,0,0-8.561-.73c-.139,1.636-.21,3.3-.21,4.946a29.114,29.114,0,0,0,1.6,9.049,4.3,4.3,0,1,0,8.157-2.694" transform="translate(-60.13 -35.321)" fill="#fff"/>
            <path id="Trazado_195047" data-name="Trazado 195047" d="M90.176,72.378c-7.984-7.5-14.416-15.172-18.6-22.175A4.3,4.3,0,0,0,64.2,54.608C68.789,62.286,75.736,70.6,84.293,78.637a4.295,4.295,0,1,0,5.883-6.259" transform="translate(-57.643 -26.137)" fill="#fff"/>
          </g>
        </g>
      </g>
      <g id="Grupo_152798" data-name="Grupo 152798" transform="translate(26.666 112.421)" opacity="0.8">
        <g id="Grupo_152797" data-name="Grupo 152797" transform="translate(0 0)">
          <g id="Grupo_152796" data-name="Grupo 152796" clip-path="url(#clip-path-6)">
            <path id="Trazado_195048" data-name="Trazado 195048" d="M69.887,105.125a20.613,20.613,0,0,0-1.167,6.355c0,1.405.06,2.823.18,4.216a4.3,4.3,0,0,1-8.561.73c-.139-1.636-.21-3.3-.21-4.946a29.114,29.114,0,0,1,1.6-9.049,4.3,4.3,0,0,1,8.157,2.694" transform="translate(-60.13 -66.692)" fill="#fff"/>
            <path id="Trazado_195049" data-name="Trazado 195049" d="M90.176,87.821c-7.984,7.5-14.416,15.172-18.6,22.175a4.3,4.3,0,0,1-7.376-4.405C68.789,97.913,75.736,89.6,84.293,81.563a4.295,4.295,0,1,1,5.883,6.259" transform="translate(-57.643 -80.396)" fill="#fff"/>
          </g>
        </g>
      </g>
      <path id="Trazado_195050" data-name="Trazado 195050" d="M59.037,15.14a1.568,1.568,0,0,0-.782.933L56.769,20.82a1.583,1.583,0,0,0,3.022.947l1.486-4.747a1.6,1.6,0,0,0,.062-.283,1.584,1.584,0,0,0-2.3-1.6" transform="translate(-35.931 -14.961)" fill="#272343"/>
      <path id="Trazado_195051" data-name="Trazado 195051" d="M44.685,22.842a1.574,1.574,0,0,0,1.038,1.986l4.747,1.488a1.588,1.588,0,0,0,1.984-1.038,1.638,1.638,0,0,0,.062-.28,1.586,1.586,0,0,0-1.1-1.706l-4.749-1.486a1.584,1.584,0,0,0-1.984,1.036" transform="translate(-44.609 -10.098)" fill="#272343"/>
      <path id="Trazado_195052" data-name="Trazado 195052" d="M46.164,30.754a1.583,1.583,0,1,0,1.469,2.806l4.409-2.306a1.583,1.583,0,0,0-1.469-2.806Z" transform="translate(-44.102 -5.406)" fill="#272343"/>
      <path id="Trazado_195053" data-name="Trazado 195053" d="M52.67,16.516h0a1.583,1.583,0,0,0-2.137-.67,1.586,1.586,0,0,0-.67,2.136l2.306,4.409a1.583,1.583,0,1,0,2.807-1.465Z" transform="translate(-40.965 -14.457)" fill="#272343"/>
    </g>
    <g id="Grupo_152800" data-name="Grupo 152800" transform="translate(1244.585 430.956)">
      <path id="Trazado_194945" data-name="Trazado 194945" d="M231.331,168.938l62.258-62.258,85.044,22.789,22.787,85.044-62.255,62.258-85.047-22.789Z" transform="translate(-231.33 -98.304)" fill="#fff399"/>
      <path id="Trazado_194946" data-name="Trazado 194946" d="M339.164,240.358l-22.787-85.044L231.33,132.524l22.789,85.047Z" transform="translate(-231.331 -61.891)" fill="#ffd13e"/>
      <path id="Trazado_194947" data-name="Trazado 194947" d="M291.171,183.12l-2.161-8.068-31.789-8.636,2.2,8.2Z" transform="translate(-194.851 -14.138)" fill="#272343"/>
      <g id="Grupo_152786" data-name="Grupo 152786" transform="translate(14.759 88.995)" opacity="0.1" style="mix-blend-mode: multiply;isolation: isolate">
        <g id="Grupo_152785" data-name="Grupo 152785" transform="translate(0 0)">
          <g id="Grupo_152784" data-name="Grupo 152784" clip-path="url(#clip-path-8)">
            <path id="Trazado_194949" data-name="Trazado 194949" d="M291.228,140.147l16.516,4.425,22.789,85.044L245.486,206.83l-8.029-29.97c13.148,17.511,37.224,19.327,48.115,10.253,11.554-9.631,11.118-31.146,5.656-46.966" transform="translate(-237.457 -140.147)" fill="#ff9100"/>
          </g>
        </g>
      </g>
      <path id="Trazado_194950" data-name="Trazado 194950" d="M328.892,116.14,266.634,178.4l22.789,85.044,62.258-62.258Z" transform="translate(-181.589 -84.976)" fill="#ffe05f"/>
      <path id="Trazado_194951" data-name="Trazado 194951" d="M288.585,126.7l-11.395,11.395,8.246,31.013,11.392-11.394Z" transform="translate(-166.714 -70.101)" fill="#272343"/>
      <path id="Trazado_194952" data-name="Trazado 194952" d="M336.88,141.473l-11.395,11.395L242.915,127.6l11.395-11.395Z" transform="translate(-215.009 -84.878)" fill="#534f7f"/>
      <g id="Grupo_152789" data-name="Grupo 152789" transform="translate(85.046 66.941)" opacity="0.1" style="mix-blend-mode: multiply;isolation: isolate">
        <g id="Grupo_152788" data-name="Grupo 152788" transform="translate(0 0)">
          <g id="Grupo_152787" data-name="Grupo 152787" clip-path="url(#clip-path-9)">
            <path id="Trazado_194953" data-name="Trazado 194953" d="M283.543,140.564s6.54,27.937,24,28.3c13.962.292,30.748-14.461,30.939-37.876l13.2,49.269-62.258,62.258-22.787-85.044Z" transform="translate(-266.634 -130.993)" fill="#ff9100"/>
          </g>
        </g>
      </g>
      <g id="Grupo_152792" data-name="Grupo 152792" transform="translate(0.001 27.196)" opacity="0.1" style="mix-blend-mode: multiply;isolation: isolate">
        <g id="Grupo_152791" data-name="Grupo 152791" transform="translate(0 0)">
          <g id="Grupo_152790" data-name="Grupo 152790" clip-path="url(#clip-path-10)">
            <path id="Trazado_194954" data-name="Trazado 194954" d="M363.818,114.493s-22.953,66.589-127.4,38.349l-5.09,5.09,85.044,22.787,62.258-62.255Z" transform="translate(-231.331 -114.493)" fill="#ff9100"/>
          </g>
        </g>
      </g>
      <path id="Trazado_194955" data-name="Trazado 194955" d="M312.142,120.12a2.645,2.645,0,0,0-1.689-1.159l-8.2-1.72a2.666,2.666,0,1,0-1.1,5.218l8.2,1.72a2.712,2.712,0,0,0,.482.058,2.667,2.667,0,0,0,2.3-4.117" transform="translate(-135.924 -83.51)" fill="#7f4fc7"/>
      <path id="Trazado_194956" data-name="Trazado 194956" d="M297.076,103.265a2.652,2.652,0,0,0-3.158,2.06l-1.72,8.2a2.668,2.668,0,0,0,2.06,3.156,2.714,2.714,0,0,0,.475.058,2.67,2.67,0,0,0,2.684-2.117l1.722-8.2a2.669,2.669,0,0,0-2.062-3.156" transform="translate(-145.649 -103.204)" fill="#7f4fc7"/>
      <path id="Trazado_194957" data-name="Trazado 194957" d="M288.422,106.165a2.666,2.666,0,0,0-4.842.915,2.638,2.638,0,0,0,.378,2l4.577,7.015a2.667,2.667,0,0,0,3.688.776,2.667,2.667,0,0,0,.776-3.693Z" transform="translate(-157.791 -100.732)" fill="#fff"/>
      <path id="Trazado_194958" data-name="Trazado 194958" d="M308.918,113.463h0a2.67,2.67,0,0,0,.776-3.691,2.671,2.671,0,0,0-3.688-.776l-7.013,4.579a2.666,2.666,0,0,0,2.912,4.466Z" transform="translate(-137.701 -95.649)" fill="#7f4fc7"/>
    </g>
    <g id="Grupo_152803" data-name="Grupo 152803" transform="translate(922.726 483.216)">
      <path id="Trazado_195058" data-name="Trazado 195058" d="M14.988,227.726H81.36a2.488,2.488,0,1,0,0-4.975H14.988a2.488,2.488,0,1,0,0,4.975" transform="translate(-12.5 -222.751)" fill="#3cafff"/>
      <path id="Trazado_195059" data-name="Trazado 195059" d="M84.949,227.726H101.7a2.488,2.488,0,1,0,0-4.975H84.949a2.488,2.488,0,1,0,0,4.975" transform="translate(-5.009 -222.751)" fill="#3cafff"/>
      <path id="Trazado_195064" data-name="Trazado 195064" d="M131.644,232.612H85.022a1.748,1.748,0,0,0,0,3.5h46.622a1.748,1.748,0,0,0,0-3.5" transform="translate(-4.922 -221.695)" fill="#3cafff"/>
      <path id="Trazado_195065" data-name="Trazado 195065" d="M79.13,232.612H67.361a1.748,1.748,0,0,0,0,3.5H79.13a1.748,1.748,0,1,0,0-3.5" transform="translate(-6.813 -221.695)" fill="#3cafff"/>
    </g>
    <g id="Grupo_152805" data-name="Grupo 152805" transform="translate(868.934 459.468)">
      <path id="Trazado_195062" data-name="Trazado 195062" d="M193.258,1.333H114.9c-1.622,0-2.936.783-2.936,1.747s1.314,1.748,2.936,1.748h78.353c1.622,0,2.938-.783,2.938-1.748s-1.315-1.747-2.938-1.747" transform="translate(-60.887 -1.333)" fill="#7f4fc7"/>
      <path id="Trazado_195063" data-name="Trazado 195063" d="M129.623,1.333H98.873c-2.522,0-4.564.783-4.564,1.747s2.042,1.748,4.564,1.748h30.75c2.522,0,4.564-.783,4.564-1.748s-2.042-1.747-4.564-1.747" transform="translate(-94.309 -1.333)" fill="#7f4fc7"/>
    </g>
    <g id="Grupo_152806" data-name="Grupo 152806" transform="translate(1100.419 428.47)">
      <path id="Trazado_194921" data-name="Trazado 194921" d="M247,183.013H99.266a3.875,3.875,0,0,1-3.823-3.242L77.406,71.091a3.875,3.875,0,0,1,3.823-4.51H265.042a3.871,3.871,0,0,1,3.82,4.51L250.824,179.773a3.877,3.877,0,0,1-3.823,3.24M102.55,175.262H243.715l16.753-100.93H85.8Z" transform="translate(-77.354 -32.315)" fill="#272343"/>
      <path id="Trazado_194922" data-name="Trazado 194922" d="M209.592,179.927H121.32a1.289,1.289,0,0,1-1.284-1.163L109.255,70.082a1.3,1.3,0,0,1,1.287-1.419H220.37a1.3,1.3,0,0,1,1.287,1.419L210.876,178.764a1.29,1.29,0,0,1-1.284,1.163m-87.1-2.583h85.931l10.523-106.1H111.967Z" transform="translate(-69.674 -31.814)" fill="#272343"/>
      <path id="Trazado_194923" data-name="Trazado 194923" d="M173.564,179.927h-30.23a1.294,1.294,0,0,1-1.292-1.248L138.352,70a1.291,1.291,0,0,1,1.292-1.336h37.609A1.293,1.293,0,0,1,178.544,70l-3.689,108.68a1.293,1.293,0,0,1-1.292,1.248m-28.98-2.583h27.732l3.6-106.1H140.98Z" transform="translate(-62.668 -31.814)" fill="#272343"/>
      <path id="Trazado_194924" data-name="Trazado 194924" d="M239.288,251.3H111.481a21.1,21.1,0,0,1,0-42.193H236.006L263.9,42.2a3.874,3.874,0,0,1,3.822-3.237h13.24a3.875,3.875,0,1,1,0,7.75H271L243.111,213.625a3.875,3.875,0,0,1-3.823,3.236H111.481a13.346,13.346,0,0,0,0,26.693H239.288a3.876,3.876,0,0,1,0,7.751" transform="translate(-74.217 -38.964)" fill="#272343"/>
      <path id="Trazado_194925" data-name="Trazado 194925" d="M135.313,219.86a9.883,9.883,0,1,0-9.884,9.884,9.884,9.884,0,0,0,9.884-9.884" transform="translate(-68.159 2.209)" fill="#534f7f"/>
      <path id="Trazado_194926" data-name="Trazado 194926" d="M129.24,218.873a4.8,4.8,0,1,0-4.8,4.8,4.8,4.8,0,0,0,4.8-4.8" transform="translate(-67.171 3.196)" fill="#272343"/>
      <path id="Trazado_194927" data-name="Trazado 194927" d="M200.948,219.86a9.883,9.883,0,1,0-9.884,9.884,9.884,9.884,0,0,0,9.884-9.884" transform="translate(-52.356 2.209)" fill="#534f7f"/>
      <path id="Trazado_194928" data-name="Trazado 194928" d="M194.874,218.873a4.8,4.8,0,1,0-4.8,4.8,4.8,4.8,0,0,0,4.8-4.8" transform="translate(-51.369 3.196)" fill="#272343"/>
      <path id="Trazado_194929" data-name="Trazado 194929" d="M258.358,98.6H84.94a1.292,1.292,0,0,1,0-2.583H258.358a1.292,1.292,0,0,1,0,2.583" transform="translate(-75.838 -25.229)" fill="#272343"/>
      <path id="Trazado_194930" data-name="Trazado 194930" d="M250.329,129.029H90.32a1.292,1.292,0,0,1,0-2.583h160.01a1.292,1.292,0,0,1,0,2.583" transform="translate(-74.543 -17.902)" fill="#272343"/>
    </g>
    <g id="Grupo_152804" data-name="Grupo 152804" transform="translate(968.984 622.922)">
      <path id="Trazado_195056" data-name="Trazado 195056" d="M318.069,246.368H190.578a4.779,4.779,0,0,0,0,9.557H318.069a4.779,4.779,0,0,0,0-9.557" transform="translate(-132.335 -227.935)" fill="#7f4fc7"/>
      <path id="Trazado_195057" data-name="Trazado 195057" d="M187.44,246.368H155.257a4.779,4.779,0,0,0,0,9.557H187.44a4.779,4.779,0,0,0,0-9.557" transform="translate(-150.478 -227.935)" fill="#7f4fc7"/>
      <path id="Trazado_195060" data-name="Trazado 195060" d="M220.7,240.992h90.748a3.4,3.4,0,1,0,0-6.8H220.7a3.4,3.4,0,1,0,0,6.8" transform="translate(-116.157 -234.19)" fill="#7f4fc7"/>
      <path id="Trazado_195061" data-name="Trazado 195061" d="M290.656,240.992h22.909a3.4,3.4,0,1,0,0-6.8H290.656a3.4,3.4,0,1,0,0,6.8" transform="translate(-80.221 -234.19)" fill="#7f4fc7"/>
    </g>
    <g id="Grupo_152801" data-name="Grupo 152801" transform="translate(1240.601 567.176)">
      <path id="Trazado_194959" data-name="Trazado 194959" d="M272.836,172.887a6.712,6.712,0,0,0-3.413-7.131l-51.78-28.528a6.8,6.8,0,0,0-10.029,6.75l6.931,58.712a6.8,6.8,0,0,0,12.574,2.706l7.323-12.175L251.3,218.265a5.892,5.892,0,0,0,8.185,1.6l8.931-6.01a5.9,5.9,0,0,0,1.6-8.186l-16.855-25.045,14.036-2.2a6.712,6.712,0,0,0,5.642-5.536" transform="translate(-207.566 -136.379)" fill="#fff"/>
      <path id="Trazado_194960" data-name="Trazado 194960" d="M267.819,167.913,216.04,139.385a4.029,4.029,0,0,0-5.946,4l6.931,58.711a4.029,4.029,0,0,0,7.454,1.605l9.565-15.9,19.281,28.651a3.13,3.13,0,0,0,4.344.849l8.931-6.01a3.13,3.13,0,0,0,.85-4.344L248.168,178.3l18.331-2.874a4.029,4.029,0,0,0,1.32-7.509" transform="translate(-207.298 -136.111)" fill="#3cafff"/>
      <path id="Trazado_194961" data-name="Trazado 194961" d="M244.807,158.733l-19.5-10.787a.835.835,0,1,0-.809,1.461L244,160.2a.835.835,0,0,0,.808-1.462" transform="translate(-205.799 -135.152)" fill="#fff"/>
      <path id="Trazado_194962" data-name="Trazado 194962" d="M222.841,146.582l-4.923-2.723a.835.835,0,1,0-.808,1.462l4.922,2.723a.836.836,0,0,0,.809-1.462" transform="translate(-206.59 -135.589)" fill="#fff"/>
    </g>
  </g>
</svg>
