<svg xmlns="http://www.w3.org/2000/svg" xmlns:xlink="http://www.w3.org/1999/xlink" width="63" height="63" viewBox="0 0 63 63">
  <defs>
    <clipPath id="clip-path">
      <rect id="Rectángulo_45585" data-name="Rectángulo 45585" width="37.711" height="40.054" transform="translate(0 0)" fill="#fff"/>
    </clipPath>
  </defs>
  <g id="Grupo_153110" data-name="Grupo 153110" transform="translate(-651 -1275)">
    <path id="Trazado_113533" data-name="Trazado 113533" d="M31.5,0A31.5,31.5,0,1,1,0,31.5,31.5,31.5,0,0,1,31.5,0Z" transform="translate(651 1275)" fill="#7f4fc7"/>
    <g id="Grupo_152918" data-name="Grupo 152918" transform="translate(663.645 1286.473)">
      <g id="Grupo_152918-2" data-name="Grupo 152918" transform="translate(0 0)" clip-path="url(#clip-path)">
        <path id="Trazado_195614" data-name="Trazado 195614" d="M33.485,0a1.192,1.192,0,0,1,.727,1.248c-.027,1.46-.012,2.92-.007,4.38a.645.645,0,0,1-.381.7c-.409.16-.785-.134-.791-.634-.011-.874,0-1.747,0-2.621V1.206H8.537V11.217c.123.007.246.02.369.021.574.006,1.148-.01,1.721.015a2.486,2.486,0,0,1,.937,4.733c-.286.13-.406.273-.364.577a2.041,2.041,0,0,1,0,.469,1.045,1.045,0,0,0,.319.9,2.181,2.181,0,0,1,.35.881,1.968,1.968,0,0,1,.007.5c.818,0,1.6.005,2.376-.008.077,0,.17-.1.225-.174a1,1,0,0,1,.866-.443c.548,0,1.1,0,1.643,0a1.062,1.062,0,0,1,.841.421.618.618,0,0,0,.406.2q1.76.023,3.52,0c.151,0,.3-.133.449-.208.27-.134.534-.376.808-.388,1.093-.045,2.19-.024,3.285-.018a.572.572,0,0,1,.645.577.584.584,0,0,1-.64.59c-.886.01-1.773,0-2.66,0H23.19v2.726c.1.007.183.018.27.018q5.809,0,11.618,0a1.367,1.367,0,0,0,1.39-.984,1.3,1.3,0,0,0-.568-1.526,1.938,1.938,0,0,0-.888-.224c-1.851-.02-3.7-.01-5.555-.01-.1,0-.209,0-.313,0a.587.587,0,0,1-.616-.614.563.563,0,0,1,.626-.554c1.108-.007,2.217,0,3.325,0h.551V8.966c0-.1,0-.208,0-.313.017-.45.25-.714.614-.7s.557.255.557.7q0,4.752,0,9.5v.532c.359,0,.692-.008,1.024,0a2.544,2.544,0,0,1,2.461,2.248,2.513,2.513,0,0,1-1.814,2.72,11.255,11.255,0,0,1-1.672.176v.433q0,7.255,0,14.511c0,.953-.317,1.275-1.258,1.275H1.26C.351,40.054,0,39.71,0,38.813q0-.724,0-1.447c0-1.149.257-1.49,1.389-1.816,0-.289-.006-.588,0-.886a1.357,1.357,0,0,1,1.449-1.4c1.382-.007,2.764,0,4.146,0,.1,0,.2-.011.332-.018V31.22c-.363,0-.735,0-1.107,0A7.554,7.554,0,0,1,5.2,31.19a2.481,2.481,0,0,1-2.079-2.1,2.447,2.447,0,0,1,1.411-2.626.466.466,0,0,0,.335-.552,3.146,3.146,0,0,1,0-.547.965.965,0,0,0-.3-.827,1.324,1.324,0,0,1-.337-.837c-.031-1.642-.038-3.286,0-4.927a2.986,2.986,0,0,1,.413-.971c.073-.165.152-.328.212-.5a1.194,1.194,0,0,0,.005-.233,1.085,1.085,0,0,0-.646-1.281,2.328,2.328,0,0,1-1.04-2.711A2.454,2.454,0,0,1,5.45,11.254c.61-.025,1.221,0,1.893,0v-.494c0-3.155.012-6.31-.01-9.465A1.238,1.238,0,0,1,8.056,0ZM12.029,23.157a4.6,4.6,0,0,1-.5,1.355,1.29,1.29,0,0,0-.323.975,3.681,3.681,0,0,1,0,.508.4.4,0,0,0,.271.444,2.988,2.988,0,0,1,.852.6,2.347,2.347,0,0,1,.465,2.648,2.374,2.374,0,0,1-2.255,1.529c-.66.021-1.321,0-1.989,0v2.039H9c1.408,0,2.815,0,4.223,0A1.387,1.387,0,0,1,14.7,34.726c0,.285,0,.569,0,.78a5.9,5.9,0,0,1,.856.413,1.307,1.307,0,0,1,.515,1.165c-.006.593,0,1.186,0,1.769H33V23.78h-.5q-4.653,0-9.307,0a1.256,1.256,0,0,1-.98-.391.749.749,0,0,0-.474-.225c-1.16-.019-2.32-.006-3.48-.014a.656.656,0,0,0-.485.225,1.561,1.561,0,0,1-.805.384,15.116,15.116,0,0,1-1.562.019,1.058,1.058,0,0,1-.938-.462.4.4,0,0,0-.273-.156c-.754-.013-1.508-.007-2.166-.007m2.865,15.705c0-.566-.019-1.088.007-1.608.019-.378-.118-.49-.493-.487-2.112.016-4.225.008-6.337.007a2.742,2.742,0,0,1-.39-.009.542.542,0,0,1-.51-.547.548.548,0,0,1,.455-.6,1.547,1.547,0,0,1,.389-.02H13.1c.137,0,.273-.012.426-.019v-.553c0-.6,0-.6-.61-.6H3.136a1.02,1.02,0,0,0-.348.014c-.089.034-.2.138-.212.22-.025.3-.01.611-.01.936h.487c.626,0,1.252-.006,1.877,0a.587.587,0,1,1,.017,1.169c-.1,0-.208,0-.313,0H1.584c-.2,0-.408-.007-.409.283,0,.6,0,1.191,0,1.8ZM8.023,18.613c-.756,0-1.513.007-2.269,0-.26,0-.379.069-.377.352q.014,2.268,0,4.537c0,.272.1.365.37.363q2.289-.012,4.577,0c.294,0,.386-.119.385-.4-.007-1.486-.01-2.973,0-4.458,0-.315-.122-.4-.419-.4-.756.015-1.512,0-2.269,0m.009,11.434c.794,0,1.589,0,2.382,0a1.329,1.329,0,1,0,.029-2.656q-2.4-.015-4.8,0a1.329,1.329,0,1,0,.01,2.656c.794.006,1.589,0,2.383,0M8.05,15.078v0c.807,0,1.615.019,2.421-.005a1.321,1.321,0,0,0,1.344-1.334,1.3,1.3,0,0,0-1.35-1.317c-1.627-.015-3.255-.025-4.881.014a1.635,1.635,0,0,0-.934.391,1.172,1.172,0,0,0-.3,1.393,1.291,1.291,0,0,0,1.277.856c.807.015,1.614,0,2.422,0m9.957,6.88h3.955V20.513H18.007Zm-8-5.677H6.063v1.138h3.944Zm0,8.774H6.06V26.2h3.95ZM16.8,19.892h-1.28v2.7H16.8Zm-2.51.622H11.908V21.97h2.385Z" transform="translate(0 0)" fill="#fff"/>
        <path id="Trazado_195615" data-name="Trazado 195615" d="M48.193,10.463a6.073,6.073,0,1,1-6.083,6.048,6.06,6.06,0,0,1,6.083-6.048m.009,1.173a4.9,4.9,0,1,0,4.875,4.917A4.9,4.9,0,0,0,48.2,11.636" transform="translate(-27.408 -6.81)" fill="#fff"/>
        <path id="Trazado_195616" data-name="Trazado 195616" d="M57.273,89.625h5.079a1.85,1.85,0,0,1,.389.015.582.582,0,0,1-.016,1.147,1.684,1.684,0,0,1-.312.01H52.1c-.052,0-.1,0-.156,0-.426-.012-.674-.231-.669-.594s.252-.57.686-.579c.273,0,.547,0,.82,0h4.493" transform="translate(-33.372 -58.333)" fill="#fff"/>
        <path id="Trazado_195617" data-name="Trazado 195617" d="M57.238,74.452H52.119a1.863,1.863,0,0,1-.351-.01A.582.582,0,0,1,51.71,73.3a1.2,1.2,0,0,1,.349-.024H62.452a1.738,1.738,0,0,1,.234.006.577.577,0,0,1,.535.611.561.561,0,0,1-.552.552c-.1.01-.208,0-.312,0H57.238" transform="translate(-33.374 -47.694)" fill="#fff"/>
        <path id="Trazado_195618" data-name="Trazado 195618" d="M54.96,97.821c.964,0,1.928,0,2.892,0,.48,0,.729.195.741.559.013.382-.246.61-.737.611q-2.93.008-5.861,0c-.475,0-.718-.214-.72-.586s.238-.58.715-.583c.99,0,1.98,0,2.97,0" transform="translate(-33.373 -63.667)" fill="#fff"/>
        <path id="Trazado_195619" data-name="Trazado 195619" d="M69.639,81.463c.886,0,1.772-.008,2.658,0,.5.007.821.4.612.779a.8.8,0,0,1-.567.371c-1.824.028-3.648.022-5.472.013a.566.566,0,0,1-.626-.6c.009-.345.243-.561.658-.565.912-.01,1.824,0,2.736,0" transform="translate(-43.116 -53.019)" fill="#fff"/>
        <path id="Trazado_195620" data-name="Trazado 195620" d="M53.428,82.633c-.481,0-.963.006-1.445,0s-.713-.218-.708-.594.236-.57.685-.574q1.484-.012,2.968,0c.444,0,.685.215.691.571s-.245.59-.707.6c-.494.008-.989,0-1.484,0" transform="translate(-33.373 -53.018)" fill="#fff"/>
        <path id="Trazado_195621" data-name="Trazado 195621" d="M76.1,97.819c.443,0,.886-.008,1.328,0a.585.585,0,0,1,.645.58.575.575,0,0,1-.61.579q-1.387.024-2.774,0a.559.559,0,0,1-.6-.583c0-.349.233-.567.643-.577.456-.01.912,0,1.368,0" transform="translate(-48.222 -63.665)" fill="#fff"/>
        <path id="Trazado_195622" data-name="Trazado 195622" d="M54.209,25.231c.771-.771,1.486-1.488,2.2-2.2a1.792,1.792,0,0,1,.321-.283.533.533,0,0,1,.71.1.544.544,0,0,1,.067.715,1.381,1.381,0,0,1-.205.234q-1.255,1.258-2.512,2.514c-.437.435-.689.435-1.12.006q-.79-.785-1.574-1.575c-.322-.326-.345-.668-.077-.923a.6.6,0,0,1,.9.088c.424.422.835.857,1.291,1.327" transform="translate(-33.74 -14.744)" fill="#fff"/>
      </g>
    </g>
  </g>
</svg>
