<svg xmlns="http://www.w3.org/2000/svg" xmlns:xlink="http://www.w3.org/1999/xlink" width="691" height="464" viewBox="0 0 691 464">
  <defs>
    <clipPath id="clip-path">
      <rect id="Rectángulo_45495" data-name="Rectángulo 45495" width="72.457" height="104.644" fill="none"/>
    </clipPath>
    <clipPath id="clip-path-2">
      <rect id="Rectángulo_45496" data-name="Rectángulo 45496" width="72.451" height="102.51" fill="none"/>
    </clipPath>
    <clipPath id="clip-path-3">
      <rect id="Rectángulo_45497" data-name="Rectángulo 45497" width="28.745" height="26.615" fill="none"/>
    </clipPath>
    <clipPath id="clip-path-4">
      <rect id="Rectángulo_45498" data-name="Rectángulo 45498" width="41.549" height="36.418" fill="none"/>
    </clipPath>
    <clipPath id="clip-path-5">
      <rect id="Rectángulo_45499" data-name="Rectángulo 45499" width="10.134" height="7.213" fill="none"/>
    </clipPath>
    <clipPath id="clip-path-6">
      <rect id="Rectángulo_45500" data-name="Rectángulo 45500" width="10.844" height="7.214" fill="none"/>
    </clipPath>
    <clipPath id="clip-path-7">
      <rect id="Rectángulo_45501" data-name="Rectángulo 45501" width="26.718" height="29.142" fill="none"/>
    </clipPath>
    <clipPath id="clip-path-8">
      <rect id="Rectángulo_45502" data-name="Rectángulo 45502" width="23.438" height="35.824" fill="none"/>
    </clipPath>
    <clipPath id="clip-path-9">
      <rect id="Rectángulo_45503" data-name="Rectángulo 45503" width="23.256" height="11.526" fill="none"/>
    </clipPath>
    <clipPath id="clip-path-10">
      <rect id="Rectángulo_45504" data-name="Rectángulo 45504" width="19.73" height="24.374" fill="none"/>
    </clipPath>
    <clipPath id="clip-path-11">
      <rect id="Rectángulo_45505" data-name="Rectángulo 45505" width="21.463" height="13.97" fill="none"/>
    </clipPath>
    <clipPath id="clip-path-12">
      <rect id="Rectángulo_45507" data-name="Rectángulo 45507" width="324.396" height="267.999" fill="none"/>
    </clipPath>
    <clipPath id="clip-path-13">
      <path id="Trazado_195213" data-name="Trazado 195213" d="M259.52,104.13a14.53,14.53,0,1,0,14.058-10.845A14.547,14.547,0,0,0,259.52,104.13" transform="translate(-259.037 -93.285)" fill="none"/>
    </clipPath>
    <clipPath id="clip-path-14">
      <rect id="Rectángulo_45508" data-name="Rectángulo 45508" width="35.966" height="45.997" fill="none"/>
    </clipPath>
    <clipPath id="clip-path-16">
      <path id="Trazado_195227" data-name="Trazado 195227" d="M80.256,149.62A21.668,21.668,0,1,0,85.8,148.9a21.693,21.693,0,0,0-5.539.721" transform="translate(-64.081 -148.899)" fill="none"/>
    </clipPath>
  </defs>
  <g id="Grupo_153180" data-name="Grupo 153180" transform="translate(-465 -1747)">
    <g id="Grupo_152863" data-name="Grupo 152863" transform="translate(-9 -8)">
      <circle id="Elipse_5676" data-name="Elipse 5676" cx="201.5" cy="201.5" r="201.5" transform="translate(605 1787)" fill="#ede7f7"/>
      <circle id="Elipse_5675" data-name="Elipse 5675" cx="175.5" cy="175.5" r="175.5" transform="translate(631 1813)" fill="#e0d5f1"/>
      <rect id="Rectángulo_45487" data-name="Rectángulo 45487" width="135" height="37" rx="7" transform="translate(487 1998)" fill="#2194e5"/>
      <rect id="Rectángulo_45488" data-name="Rectángulo 45488" width="113" height="37" rx="7" transform="translate(517 1875)" fill="#2194e5"/>
      <rect id="Rectángulo_45489" data-name="Rectángulo 45489" width="135" height="37" rx="7" transform="translate(672 1755)" fill="#2194e5"/>
      <rect id="Rectángulo_45490" data-name="Rectángulo 45490" width="107" height="37" rx="7" transform="translate(925 1794)" fill="#2194e5"/>
      <rect id="Rectángulo_45491" data-name="Rectángulo 45491" width="153" height="37" rx="7" transform="translate(999 1931)" fill="#2194e5"/>
      <rect id="Rectángulo_45492" data-name="Rectángulo 45492" width="144" height="37" rx="7" transform="translate(976 2080)" fill="#2194e5"/>
      <rect id="Rectángulo_45493" data-name="Rectángulo 45493" width="105" height="37" rx="7" transform="translate(810 2182)" fill="#2194e5"/>
      <path id="Trazado_196204" data-name="Trazado 196204" d="M11.32,12.667a4.673,4.673,0,0,1-.721,2.36,4.35,4.35,0,0,1-1.85,1.586,6.3,6.3,0,0,1-2.72.563,5.025,5.025,0,0,1-3.973-1.644,6.786,6.786,0,0,1-1.45-4.641v-.633a7.746,7.746,0,0,1,.655-3.292,4.961,4.961,0,0,1,1.885-2.18,5.26,5.26,0,0,1,2.848-.769A5.516,5.516,0,0,1,9.738,5.245a4.844,4.844,0,0,1,1.608,3.379H8.271a2.292,2.292,0,0,0-.589-1.679,2.422,2.422,0,0,0-1.687-.51A1.843,1.843,0,0,0,4.307,7.3a5.536,5.536,0,0,0-.562,2.751v.905a6.125,6.125,0,0,0,.514,2.927,1.882,1.882,0,0,0,1.771.879,2.369,2.369,0,0,0,1.626-.5,2.126,2.126,0,0,0,.6-1.591Zm.949-.51a5.613,5.613,0,0,1,.554-2.536,3.96,3.96,0,0,1,1.591-1.709,4.791,4.791,0,0,1,2.435-.6,4.373,4.373,0,0,1,3.366,1.323,5.076,5.076,0,0,1,1.23,3.6v.105a4.925,4.925,0,0,1-1.235,3.529,4.384,4.384,0,0,1-3.344,1.305,4.434,4.434,0,0,1-3.261-1.217,4.761,4.761,0,0,1-1.327-3.3Zm2.962.185a3.538,3.538,0,0,0,.413,1.934,1.376,1.376,0,0,0,1.222.615q1.582,0,1.617-2.435v-.3q0-2.558-1.635-2.558-1.485,0-1.608,2.206ZM25.471,7.49l.1,1.116a3.225,3.225,0,0,1,2.716-1.292A2.713,2.713,0,0,1,30.5,8.2a4.226,4.226,0,0,1,.76,2.672V17H28.292V11A1.6,1.6,0,0,0,28,9.938,1.342,1.342,0,0,0,26.947,9.6a1.413,1.413,0,0,0-1.292.686V17H22.693V7.49Zm12.41,6.838a.684.684,0,0,0-.4-.606,6.016,6.016,0,0,0-1.5-.475,6.853,6.853,0,0,1-1.828-.646,3.062,3.062,0,0,1-1.1-.971,2.319,2.319,0,0,1-.378-1.31,2.628,2.628,0,0,1,1.081-2.158,4.453,4.453,0,0,1,2.83-.848,4.934,4.934,0,0,1,3.023.853,2.666,2.666,0,0,1,1.143,2.241H37.784q0-1.143-1.2-1.143a1.194,1.194,0,0,0-.782.259.8.8,0,0,0-.316.646.737.737,0,0,0,.387.642,3.654,3.654,0,0,0,1.235.4,10.671,10.671,0,0,1,1.49.378,2.706,2.706,0,0,1,2.145,2.646,2.491,2.491,0,0,1-1.156,2.118,5.068,5.068,0,0,1-2.993.817,5.172,5.172,0,0,1-2.18-.439,3.645,3.645,0,0,1-1.494-1.2,2.707,2.707,0,0,1-.536-1.591h2.769a1.145,1.145,0,0,0,.439.962,1.808,1.808,0,0,0,1.081.3,1.422,1.422,0,0,0,.91-.246A.787.787,0,0,0,37.881,14.328ZM45.246,17H42.275V7.49h2.971ZM42.1,5.029a1.334,1.334,0,0,1,.457-1.043,1.934,1.934,0,0,1,2.373,0,1.334,1.334,0,0,1,.457,1.043,1.334,1.334,0,0,1-.457,1.043,1.934,1.934,0,0,1-2.373,0A1.334,1.334,0,0,1,42.1,5.029Zm9.949,9.3a.684.684,0,0,0-.4-.606,6.016,6.016,0,0,0-1.5-.475,6.853,6.853,0,0,1-1.828-.646,3.062,3.062,0,0,1-1.1-.971,2.319,2.319,0,0,1-.378-1.31,2.628,2.628,0,0,1,1.081-2.158,4.453,4.453,0,0,1,2.83-.848,4.934,4.934,0,0,1,3.023.853,2.666,2.666,0,0,1,1.143,2.241H51.952q0-1.143-1.2-1.143a1.194,1.194,0,0,0-.782.259.8.8,0,0,0-.316.646.737.737,0,0,0,.387.642,3.654,3.654,0,0,0,1.235.4,10.671,10.671,0,0,1,1.49.378,2.706,2.706,0,0,1,2.145,2.646,2.491,2.491,0,0,1-1.156,2.118,5.068,5.068,0,0,1-2.993.817,5.172,5.172,0,0,1-2.18-.439,3.645,3.645,0,0,1-1.494-1.2,2.707,2.707,0,0,1-.536-1.591h2.769a1.145,1.145,0,0,0,.439.962,1.808,1.808,0,0,0,1.081.3,1.422,1.422,0,0,0,.91-.246A.787.787,0,0,0,52.049,14.328Zm7.69-9.2V7.49H61.3V9.547H59.739V13.9a1.111,1.111,0,0,0,.193.747,1.037,1.037,0,0,0,.765.211,4.345,4.345,0,0,0,.738-.053v2.118a5.466,5.466,0,0,1-1.67.255,3.1,3.1,0,0,1-2.259-.721,2.954,2.954,0,0,1-.729-2.188V9.547H55.564V7.49h1.213V5.126Zm7.33,12.05a4.889,4.889,0,0,1-3.542-1.305,4.507,4.507,0,0,1-1.354-3.4v-.246a5.84,5.84,0,0,1,.541-2.575,3.955,3.955,0,0,1,1.578-1.727,4.763,4.763,0,0,1,2.461-.611,4.117,4.117,0,0,1,3.164,1.244,4.887,4.887,0,0,1,1.16,3.467v1.151H65.188a2.135,2.135,0,0,0,.694,1.257,2.066,2.066,0,0,0,1.389.457,2.662,2.662,0,0,0,2.2-.984l1.354,1.6a3.784,3.784,0,0,1-1.569,1.217A5.3,5.3,0,0,1,67.069,17.176ZM66.735,9.6q-1.3,0-1.547,1.723h2.988v-.229a1.467,1.467,0,0,0-.36-1.1A1.434,1.434,0,0,0,66.735,9.6ZM74.988,7.49l.1,1.116A3.225,3.225,0,0,1,77.8,7.314,2.713,2.713,0,0,1,80.02,8.2a4.226,4.226,0,0,1,.76,2.672V17H77.81V11a1.6,1.6,0,0,0-.29-1.059A1.342,1.342,0,0,0,76.465,9.6a1.413,1.413,0,0,0-1.292.686V17H72.211V7.49Zm11.452,7.4a1.317,1.317,0,0,0,.967-.338,1.241,1.241,0,0,0,.334-.945h2.777A3.288,3.288,0,0,1,89.4,16.174a4.168,4.168,0,0,1-2.887,1,4.22,4.22,0,0,1-3.27-1.3,5.125,5.125,0,0,1-1.2-3.6v-.123A5.792,5.792,0,0,1,82.578,9.6a3.872,3.872,0,0,1,1.534-1.7,4.573,4.573,0,0,1,2.373-.593,4.116,4.116,0,0,1,2.944,1.028,3.647,3.647,0,0,1,1.09,2.786H87.741A1.626,1.626,0,0,0,87.381,10a1.244,1.244,0,0,0-.967-.4q-1.151,0-1.345,1.468a10.357,10.357,0,0,0-.062,1.283,4.068,4.068,0,0,0,.343,1.986A1.187,1.187,0,0,0,86.44,14.891ZM94.9,17H91.925V7.49H94.9ZM91.749,5.029a1.334,1.334,0,0,1,.457-1.043,1.934,1.934,0,0,1,2.373,0,1.334,1.334,0,0,1,.457,1.043,1.334,1.334,0,0,1-.457,1.043,1.934,1.934,0,0,1-2.373,0A1.334,1.334,0,0,1,91.749,5.029ZM102.076,17a3.344,3.344,0,0,1-.281-.853,2.754,2.754,0,0,1-2.285,1.028,3.374,3.374,0,0,1-2.285-.813,2.588,2.588,0,0,1-.94-2.043,2.66,2.66,0,0,1,1.143-2.338,5.821,5.821,0,0,1,3.322-.791h.914v-.5q0-1.316-1.134-1.316a.927.927,0,0,0-1.055,1.042H96.513a2.655,2.655,0,0,1,1.173-2.239,4.931,4.931,0,0,1,2.993-.86,4.323,4.323,0,0,1,2.874.888,3.086,3.086,0,0,1,1.081,2.435v4.21a4.311,4.311,0,0,0,.4,2V17Zm-1.854-1.934a1.652,1.652,0,0,0,.918-.237,1.487,1.487,0,0,0,.523-.536V12.772H100.8q-1.547,0-1.547,1.389a.848.848,0,0,0,.272.655A.986.986,0,0,0,100.222,15.066Z" transform="translate(504 2006)" fill="#fff"/>
      <path id="Trazado_196202" data-name="Trazado 196202" d="M29.138,14.609H24.911L24.172,17h-3.3L25.57,4.2h2.9L33.2,17H29.885Zm-3.489-2.382H28.4L27.02,7.789Zm12.366,2.663a1.317,1.317,0,0,0,.967-.338,1.241,1.241,0,0,0,.334-.945h2.777a3.288,3.288,0,0,1-1.121,2.566,4.168,4.168,0,0,1-2.887,1,4.22,4.22,0,0,1-3.27-1.3,5.125,5.125,0,0,1-1.2-3.6v-.123A5.792,5.792,0,0,1,34.152,9.6a3.872,3.872,0,0,1,1.534-1.7,4.573,4.573,0,0,1,2.373-.593A4.116,4.116,0,0,1,41,8.343a3.647,3.647,0,0,1,1.09,2.786H39.316A1.626,1.626,0,0,0,38.956,10a1.244,1.244,0,0,0-.967-.4q-1.151,0-1.345,1.468a10.357,10.357,0,0,0-.062,1.283,4.068,4.068,0,0,0,.343,1.986A1.187,1.187,0,0,0,38.015,14.891ZM46.8,5.126V7.49H48.36V9.547H46.8V13.9a1.111,1.111,0,0,0,.193.747,1.037,1.037,0,0,0,.765.211,4.345,4.345,0,0,0,.738-.053v2.118a5.466,5.466,0,0,1-1.67.255,3.1,3.1,0,0,1-2.259-.721,2.954,2.954,0,0,1-.729-2.188V9.547H42.621V7.49h1.213V5.126ZM52.649,17H49.678V7.49h2.971ZM49.5,5.029a1.334,1.334,0,0,1,.457-1.043,1.934,1.934,0,0,1,2.373,0,1.334,1.334,0,0,1,.457,1.043,1.334,1.334,0,0,1-.457,1.043,1.934,1.934,0,0,1-2.373,0A1.334,1.334,0,0,1,49.5,5.029Zm8.42.1V7.49h1.564V9.547H57.922V13.9a1.111,1.111,0,0,0,.193.747,1.037,1.037,0,0,0,.765.211,4.345,4.345,0,0,0,.738-.053v2.118a5.466,5.466,0,0,1-1.67.255,3.1,3.1,0,0,1-2.259-.721,2.954,2.954,0,0,1-.729-2.188V9.547H53.748V7.49H54.96V5.126Zm8.394,10.846a3.054,3.054,0,0,1-2.54,1.2,3,3,0,0,1-2.369-.91,3.826,3.826,0,0,1-.8-2.615V7.49h2.962v6.179a1.065,1.065,0,0,0,1.187,1.222,1.548,1.548,0,0,0,1.45-.729V7.49h2.979V17H66.4Zm4.113-3.8a5.809,5.809,0,0,1,.976-3.56,3.211,3.211,0,0,1,2.725-1.3,2.731,2.731,0,0,1,2.145,1V3.5h2.971V17H76.582l-.149-1.02a2.8,2.8,0,0,1-2.32,1.2,3.205,3.205,0,0,1-2.689-1.3A5.993,5.993,0,0,1,70.429,12.175Zm2.962.185q0,2.531,1.477,2.531a1.458,1.458,0,0,0,1.406-.826V10.443A1.419,1.419,0,0,0,74.885,9.6q-1.371,0-1.485,2.215Z" transform="translate(523 1883)" fill="#fff"/>
      <path id="Trazado_196199" data-name="Trazado 196199" d="M11.32,12.667a4.673,4.673,0,0,1-.721,2.36,4.35,4.35,0,0,1-1.85,1.586,6.3,6.3,0,0,1-2.72.563,5.025,5.025,0,0,1-3.973-1.644,6.786,6.786,0,0,1-1.45-4.641v-.633a7.746,7.746,0,0,1,.655-3.292,4.961,4.961,0,0,1,1.885-2.18,5.26,5.26,0,0,1,2.848-.769A5.516,5.516,0,0,1,9.738,5.245a4.844,4.844,0,0,1,1.608,3.379H8.271a2.292,2.292,0,0,0-.589-1.679,2.422,2.422,0,0,0-1.687-.51A1.843,1.843,0,0,0,4.307,7.3a5.536,5.536,0,0,0-.562,2.751v.905a6.125,6.125,0,0,0,.514,2.927,1.882,1.882,0,0,0,1.771.879,2.369,2.369,0,0,0,1.626-.5,2.126,2.126,0,0,0,.6-1.591Zm.949-.51a5.613,5.613,0,0,1,.554-2.536,3.96,3.96,0,0,1,1.591-1.709,4.791,4.791,0,0,1,2.435-.6,4.373,4.373,0,0,1,3.366,1.323,5.076,5.076,0,0,1,1.23,3.6v.105a4.925,4.925,0,0,1-1.235,3.529,4.384,4.384,0,0,1-3.344,1.305,4.434,4.434,0,0,1-3.261-1.217,4.761,4.761,0,0,1-1.327-3.3Zm2.962.185a3.538,3.538,0,0,0,.413,1.934,1.376,1.376,0,0,0,1.222.615q1.582,0,1.617-2.435v-.3q0-2.558-1.635-2.558-1.485,0-1.608,2.206ZM25.55,7.49l.1,1.116a3.27,3.27,0,0,1,2.716-1.292A2.407,2.407,0,0,1,30.8,8.747a3.165,3.165,0,0,1,2.795-1.433q2.892,0,2.971,3.5V17H33.592V11a1.813,1.813,0,0,0-.246-1.063,1.048,1.048,0,0,0-.9-.334,1.4,1.4,0,0,0-1.31.782l.009.123V17H28.178V11.015a1.906,1.906,0,0,0-.237-1.081,1.045,1.045,0,0,0-.905-.334,1.42,1.42,0,0,0-1.3.782V17H22.772V7.49Zm21.533,4.825a5.735,5.735,0,0,1-1,3.538,3.2,3.2,0,0,1-2.694,1.323,2.742,2.742,0,0,1-2.153-.958v4.438H38.276V7.49h2.769l.088.879a2.742,2.742,0,0,1,2.241-1.055,3.224,3.224,0,0,1,2.733,1.3,5.805,5.805,0,0,1,.976,3.564Zm-2.962-.185q0-2.531-1.477-2.531a1.394,1.394,0,0,0-1.406.756V14.1a1.439,1.439,0,0,0,1.424.791q1.415,0,1.459-2.443ZM51.513,17H48.542V3.5h2.971Zm6.425.176A4.889,4.889,0,0,1,54.4,15.871a4.507,4.507,0,0,1-1.354-3.4v-.246a5.84,5.84,0,0,1,.541-2.575A3.955,3.955,0,0,1,55.16,7.925a4.763,4.763,0,0,1,2.461-.611,4.117,4.117,0,0,1,3.164,1.244,4.887,4.887,0,0,1,1.16,3.467v1.151H56.057a2.135,2.135,0,0,0,.694,1.257,2.066,2.066,0,0,0,1.389.457,2.662,2.662,0,0,0,2.2-.984l1.354,1.6a3.784,3.784,0,0,1-1.569,1.217A5.3,5.3,0,0,1,57.938,17.176ZM57.6,9.6q-1.3,0-1.547,1.723h2.988v-.229a1.467,1.467,0,0,0-.36-1.1A1.434,1.434,0,0,0,57.6,9.6Zm8.982-4.474V7.49H68.15V9.547H66.586V13.9a1.111,1.111,0,0,0,.193.747,1.037,1.037,0,0,0,.765.211,4.345,4.345,0,0,0,.738-.053v2.118a5.466,5.466,0,0,1-1.67.255,3.1,3.1,0,0,1-2.259-.721,2.954,2.954,0,0,1-.729-2.188V9.547H62.411V7.49h1.213V5.126ZM72.439,17H69.469V7.49h2.971ZM69.293,5.029a1.334,1.334,0,0,1,.457-1.043,1.934,1.934,0,0,1,2.373,0,1.334,1.334,0,0,1,.457,1.043,1.334,1.334,0,0,1-.457,1.043,1.934,1.934,0,0,1-2.373,0A1.334,1.334,0,0,1,69.293,5.029Zm8.42.1V7.49h1.564V9.547H77.713V13.9a1.111,1.111,0,0,0,.193.747,1.037,1.037,0,0,0,.765.211,4.345,4.345,0,0,0,.738-.053v2.118a5.466,5.466,0,0,1-1.67.255,3.1,3.1,0,0,1-2.259-.721,2.954,2.954,0,0,1-.729-2.188V9.547H73.538V7.49h1.213V5.126Zm8.394,10.846a3.054,3.054,0,0,1-2.54,1.2,3,3,0,0,1-2.369-.91,3.826,3.826,0,0,1-.8-2.615V7.49h2.962v6.179a1.065,1.065,0,0,0,1.187,1.222,1.548,1.548,0,0,0,1.45-.729V7.49h2.979V17H86.194Zm4.113-3.8a5.809,5.809,0,0,1,.976-3.56,3.211,3.211,0,0,1,2.725-1.3,2.731,2.731,0,0,1,2.145,1V3.5h2.971V17H96.372l-.149-1.02a2.8,2.8,0,0,1-2.32,1.2,3.205,3.205,0,0,1-2.689-1.3A5.993,5.993,0,0,1,90.22,12.175Zm2.962.185q0,2.531,1.477,2.531a1.458,1.458,0,0,0,1.406-.826V10.443A1.419,1.419,0,0,0,94.676,9.6q-1.371,0-1.485,2.215Z" transform="translate(685 1763)" fill="#fff"/>
      <path id="Trazado_196213" data-name="Trazado 196213" d="M8.235,14.609H4.008L3.27,17h-3.3L4.667,4.2h2.9L12.3,17H8.982ZM4.746,12.228H7.5L6.117,7.789ZM6.521.775H9.65L7.207,3.535l-2.417,0ZM15.469,7.49l.1,1.116a3.27,3.27,0,0,1,2.716-1.292,2.407,2.407,0,0,1,2.435,1.433,3.165,3.165,0,0,1,2.795-1.433q2.892,0,2.971,3.5V17H23.511V11a1.813,1.813,0,0,0-.246-1.063,1.048,1.048,0,0,0-.9-.334,1.4,1.4,0,0,0-1.31.782l.009.123V17H18.1V11.015a1.906,1.906,0,0,0-.237-1.081,1.045,1.045,0,0,0-.905-.334,1.42,1.42,0,0,0-1.3.782V17H12.691V7.49ZM37,12.324a5.8,5.8,0,0,1-.967,3.595,3.238,3.238,0,0,1-2.725,1.257,2.81,2.81,0,0,1-2.338-1.151L30.85,17H28.2V3.5h2.962V8.255a2.711,2.711,0,0,1,2.136-.94,3.239,3.239,0,0,1,2.742,1.274A5.826,5.826,0,0,1,37,12.175Zm-2.971-.189a3.866,3.866,0,0,0-.365-1.952A1.229,1.229,0,0,0,32.546,9.6a1.418,1.418,0,0,0-1.389.763v3.773a1.426,1.426,0,0,0,1.406.755,1.258,1.258,0,0,0,1.327-1.018A7.309,7.309,0,0,0,34.031,12.135ZM41.432,17H38.461V7.49h2.971ZM38.285,5.029a1.334,1.334,0,0,1,.457-1.043,1.934,1.934,0,0,1,2.373,0,1.334,1.334,0,0,1,.457,1.043,1.334,1.334,0,0,1-.457,1.043,1.934,1.934,0,0,1-2.373,0A1.334,1.334,0,0,1,38.285,5.029Zm8.42.1V7.49H48.27V9.547H46.705V13.9a1.111,1.111,0,0,0,.193.747,1.037,1.037,0,0,0,.765.211A4.345,4.345,0,0,0,48.4,14.8v2.118a5.466,5.466,0,0,1-1.67.255,3.1,3.1,0,0,1-2.259-.721,2.954,2.954,0,0,1-.729-2.188V9.547H42.53V7.49h1.213V5.126ZM48.8,12.157a5.613,5.613,0,0,1,.554-2.536,3.96,3.96,0,0,1,1.591-1.709,4.791,4.791,0,0,1,2.435-.6,4.373,4.373,0,0,1,3.366,1.323,5.076,5.076,0,0,1,1.23,3.6v.105a4.925,4.925,0,0,1-1.235,3.529,4.384,4.384,0,0,1-3.344,1.305,4.434,4.434,0,0,1-3.261-1.217,4.761,4.761,0,0,1-1.327-3.3Zm2.962.185a3.538,3.538,0,0,0,.413,1.934,1.376,1.376,0,0,0,1.222.615q1.582,0,1.617-2.435v-.3q0-2.558-1.635-2.558-1.485,0-1.608,2.206Z" transform="translate(947 1802)" fill="#fff"/>
      <path id="Trazado_196207" data-name="Trazado 196207" d="M29.739,12.667a4.673,4.673,0,0,1-.721,2.36,4.35,4.35,0,0,1-1.85,1.586,6.3,6.3,0,0,1-2.72.563,5.025,5.025,0,0,1-3.973-1.644,6.786,6.786,0,0,1-1.45-4.641v-.633a7.746,7.746,0,0,1,.655-3.292,4.961,4.961,0,0,1,1.885-2.18,5.26,5.26,0,0,1,2.848-.769,5.516,5.516,0,0,1,3.744,1.226,4.844,4.844,0,0,1,1.608,3.379H26.689A2.292,2.292,0,0,0,26.1,6.945a2.422,2.422,0,0,0-1.687-.51,1.843,1.843,0,0,0-1.687.861,5.536,5.536,0,0,0-.562,2.751v.905a6.126,6.126,0,0,0,.514,2.927,1.882,1.882,0,0,0,1.771.879,2.369,2.369,0,0,0,1.626-.5,2.126,2.126,0,0,0,.6-1.591Zm.949-.51a5.613,5.613,0,0,1,.554-2.536,3.96,3.96,0,0,1,1.591-1.709,4.791,4.791,0,0,1,2.435-.6,4.373,4.373,0,0,1,3.366,1.323,5.076,5.076,0,0,1,1.23,3.6v.105a4.925,4.925,0,0,1-1.235,3.529,4.384,4.384,0,0,1-3.344,1.305,4.434,4.434,0,0,1-3.261-1.217,4.761,4.761,0,0,1-1.327-3.3Zm2.962.185a3.538,3.538,0,0,0,.413,1.934,1.376,1.376,0,0,0,1.222.615q1.582,0,1.617-2.435v-.3Q36.9,9.6,35.268,9.6q-1.485,0-1.608,2.206Zm12.5,1.986a.684.684,0,0,0-.4-.606,6.016,6.016,0,0,0-1.5-.475,6.853,6.853,0,0,1-1.828-.646,3.062,3.062,0,0,1-1.1-.971,2.319,2.319,0,0,1-.378-1.31,2.628,2.628,0,0,1,1.081-2.158,4.453,4.453,0,0,1,2.83-.848,4.934,4.934,0,0,1,3.023.853,2.666,2.666,0,0,1,1.143,2.241H46.052q0-1.143-1.2-1.143a1.194,1.194,0,0,0-.782.259.8.8,0,0,0-.316.646.737.737,0,0,0,.387.642,3.654,3.654,0,0,0,1.235.4,10.671,10.671,0,0,1,1.49.378A2.706,2.706,0,0,1,49,14.24a2.491,2.491,0,0,1-1.156,2.118,5.068,5.068,0,0,1-2.993.817,5.172,5.172,0,0,1-2.18-.439,3.645,3.645,0,0,1-1.494-1.2,2.707,2.707,0,0,1-.536-1.591h2.769a1.145,1.145,0,0,0,.439.962,1.808,1.808,0,0,0,1.081.3,1.422,1.422,0,0,0,.91-.246A.787.787,0,0,0,46.148,14.328Zm7.69-9.2V7.49H55.4V9.547H53.839V13.9a1.111,1.111,0,0,0,.193.747,1.037,1.037,0,0,0,.765.211,4.345,4.345,0,0,0,.738-.053v2.118a5.466,5.466,0,0,1-1.67.255,3.1,3.1,0,0,1-2.259-.721,2.954,2.954,0,0,1-.729-2.188V9.547H49.664V7.49h1.213V5.126Zm2.092,7.031a5.613,5.613,0,0,1,.554-2.536,3.96,3.96,0,0,1,1.591-1.709,4.791,4.791,0,0,1,2.435-.6,4.373,4.373,0,0,1,3.366,1.323,5.076,5.076,0,0,1,1.23,3.6v.105a4.925,4.925,0,0,1-1.235,3.529,4.384,4.384,0,0,1-3.344,1.305,4.434,4.434,0,0,1-3.261-1.217,4.761,4.761,0,0,1-1.327-3.3Zm2.962.185a3.538,3.538,0,0,0,.413,1.934,1.376,1.376,0,0,0,1.222.615q1.582,0,1.617-2.435v-.3q0-2.558-1.635-2.558-1.485,0-1.608,2.206Z" transform="translate(819 2190)" fill="#fff"/>
      <path id="Trazado_196209" data-name="Trazado 196209" d="M8.235,14.609H4.008L3.27,17h-3.3L4.667,4.2h2.9L12.3,17H8.982ZM4.746,12.228H7.5L6.117,7.789Zm7.972-.053a5.809,5.809,0,0,1,.976-3.56,3.211,3.211,0,0,1,2.725-1.3,2.731,2.731,0,0,1,2.145,1V3.5h2.971V17H18.87l-.149-1.02a2.8,2.8,0,0,1-2.32,1.2,3.205,3.205,0,0,1-2.689-1.3A5.993,5.993,0,0,1,12.718,12.175Zm2.962.185q0,2.531,1.477,2.531a1.458,1.458,0,0,0,1.406-.826V10.443A1.419,1.419,0,0,0,17.174,9.6q-1.371,0-1.485,2.215ZM28.573,17a3.344,3.344,0,0,1-.281-.853,2.754,2.754,0,0,1-2.285,1.028,3.374,3.374,0,0,1-2.285-.813,2.588,2.588,0,0,1-.94-2.043,2.66,2.66,0,0,1,1.143-2.338,5.821,5.821,0,0,1,3.322-.791h.914v-.5q0-1.316-1.134-1.316a.927.927,0,0,0-1.055,1.042H23.01a2.655,2.655,0,0,1,1.173-2.239,4.931,4.931,0,0,1,2.993-.86A4.323,4.323,0,0,1,30.05,8.2a3.086,3.086,0,0,1,1.081,2.435v4.21a4.311,4.311,0,0,0,.4,2V17Zm-1.854-1.934a1.652,1.652,0,0,0,.918-.237,1.487,1.487,0,0,0,.523-.536V12.772H27.3q-1.547,0-1.547,1.389a.848.848,0,0,0,.272.655A.986.986,0,0,0,26.719,15.066ZM41.6,12.315a5.735,5.735,0,0,1-1,3.538,3.2,3.2,0,0,1-2.694,1.323,2.742,2.742,0,0,1-2.153-.958v4.438H32.792V7.49h2.769l.088.879A2.742,2.742,0,0,1,37.89,7.314a3.224,3.224,0,0,1,2.733,1.3,5.805,5.805,0,0,1,.976,3.564Zm-2.962-.185q0-2.531-1.477-2.531a1.394,1.394,0,0,0-1.406.756V14.1a1.439,1.439,0,0,0,1.424.791q1.415,0,1.459-2.443Zm7.717-7V7.49h1.564V9.547H46.354V13.9a1.111,1.111,0,0,0,.193.747,1.037,1.037,0,0,0,.765.211,4.345,4.345,0,0,0,.738-.053v2.118a5.466,5.466,0,0,1-1.67.255,3.1,3.1,0,0,1-2.259-.721,2.954,2.954,0,0,1-.729-2.188V9.547H42.179V7.49h1.213V5.126ZM54.439,17a3.344,3.344,0,0,1-.281-.853,2.754,2.754,0,0,1-2.285,1.028,3.374,3.374,0,0,1-2.285-.813,2.588,2.588,0,0,1-.94-2.043,2.66,2.66,0,0,1,1.143-2.338,5.821,5.821,0,0,1,3.322-.791h.914v-.5q0-1.316-1.134-1.316a.927.927,0,0,0-1.055,1.042H48.876a2.655,2.655,0,0,1,1.173-2.239,4.931,4.931,0,0,1,2.993-.86,4.323,4.323,0,0,1,2.874.888A3.086,3.086,0,0,1,57,10.637v4.21a4.311,4.311,0,0,0,.4,2V17Zm-1.854-1.934a1.652,1.652,0,0,0,.918-.237,1.487,1.487,0,0,0,.523-.536V12.772h-.861q-1.547,0-1.547,1.389a.848.848,0,0,0,.272.655A.986.986,0,0,0,52.585,15.066Zm14.88-2.742a5.8,5.8,0,0,1-.967,3.595,3.238,3.238,0,0,1-2.725,1.257,2.81,2.81,0,0,1-2.338-1.151L61.313,17H58.658V3.5H61.62V8.255a2.711,2.711,0,0,1,2.136-.94A3.239,3.239,0,0,1,66.5,8.589a5.826,5.826,0,0,1,.967,3.586Zm-2.971-.189a3.866,3.866,0,0,0-.365-1.952A1.229,1.229,0,0,0,63.009,9.6a1.418,1.418,0,0,0-1.389.763v3.773a1.426,1.426,0,0,0,1.406.755,1.258,1.258,0,0,0,1.327-1.018A7.309,7.309,0,0,0,64.494,12.135ZM71.895,17H68.924V7.49h2.971ZM68.748,5.029a1.334,1.334,0,0,1,.457-1.043,1.934,1.934,0,0,1,2.373,0,1.334,1.334,0,0,1,.457,1.043,1.334,1.334,0,0,1-.457,1.043,1.934,1.934,0,0,1-2.373,0A1.334,1.334,0,0,1,68.748,5.029ZM76.843,17H73.872V3.5h2.971Zm4.948,0H78.82V7.49h2.971ZM78.645,5.029A1.334,1.334,0,0,1,79.1,3.986a1.934,1.934,0,0,1,2.373,0,1.334,1.334,0,0,1,.457,1.043,1.334,1.334,0,0,1-.457,1.043,1.934,1.934,0,0,1-2.373,0A1.334,1.334,0,0,1,78.645,5.029Zm4.6,7.146a5.809,5.809,0,0,1,.976-3.56,3.211,3.211,0,0,1,2.725-1.3,2.731,2.731,0,0,1,2.145,1V3.5h2.971V17H89.394l-.149-1.02a2.8,2.8,0,0,1-2.32,1.2,3.205,3.205,0,0,1-2.689-1.3A5.993,5.993,0,0,1,83.241,12.175Zm2.962.185q0,2.531,1.477,2.531a1.458,1.458,0,0,0,1.406-.826V10.443A1.419,1.419,0,0,0,87.7,9.6q-1.371,0-1.485,2.215ZM99.1,17a3.344,3.344,0,0,1-.281-.853,2.754,2.754,0,0,1-2.285,1.028,3.374,3.374,0,0,1-2.285-.813,2.588,2.588,0,0,1-.94-2.043,2.66,2.66,0,0,1,1.143-2.338,5.821,5.821,0,0,1,3.322-.791h.914v-.5q0-1.316-1.134-1.316A.927.927,0,0,0,96.5,10.413H93.533a2.655,2.655,0,0,1,1.173-2.239,4.931,4.931,0,0,1,2.993-.86,4.323,4.323,0,0,1,2.874.888,3.086,3.086,0,0,1,1.081,2.435v4.21a4.311,4.311,0,0,0,.4,2V17Zm-1.854-1.934a1.652,1.652,0,0,0,.918-.237,1.487,1.487,0,0,0,.523-.536V12.772h-.861q-1.547,0-1.547,1.389a.848.848,0,0,0,.272.655A.986.986,0,0,0,97.242,15.066Zm5.678-2.892a5.809,5.809,0,0,1,.976-3.56,3.211,3.211,0,0,1,2.725-1.3,2.731,2.731,0,0,1,2.145,1V3.5h2.971V17h-2.663l-.149-1.02a2.8,2.8,0,0,1-2.32,1.2,3.205,3.205,0,0,1-2.689-1.3A5.993,5.993,0,0,1,102.92,12.175Zm2.962.185q0,2.531,1.477,2.531a1.458,1.458,0,0,0,1.406-.826V10.443a1.419,1.419,0,0,0-1.389-.844q-1.371,0-1.485,2.215Z" transform="translate(988 2088)" fill="#fff"/>
      <path id="Trazado_196211" data-name="Trazado 196211" d="M.967,17V4.2H5.089a6.064,6.064,0,0,1,3.05.769,5.406,5.406,0,0,1,2.114,2.171,6.554,6.554,0,0,1,.769,3.142v.589a6.592,6.592,0,0,1-.743,3.151A5.429,5.429,0,0,1,8.187,16.2a5.93,5.93,0,0,1-3.01.8ZM4.052,6.585v8.042H5.124a2.4,2.4,0,0,0,2.039-.945,4.63,4.63,0,0,0,.712-2.808V10.32a4.592,4.592,0,0,0-.712-2.795,2.442,2.442,0,0,0-2.074-.94ZM15.592,17H12.621V7.49h2.971ZM12.445,5.029A1.334,1.334,0,0,1,12.9,3.986a1.718,1.718,0,0,1,1.187-.407,1.718,1.718,0,0,1,1.187.407,1.334,1.334,0,0,1,.457,1.043,1.334,1.334,0,0,1-.457,1.043,1.718,1.718,0,0,1-1.187.407A1.718,1.718,0,0,1,12.9,6.073,1.334,1.334,0,0,1,12.445,5.029Zm9.949,9.3a.684.684,0,0,0-.4-.606,6.016,6.016,0,0,0-1.5-.475,6.853,6.853,0,0,1-1.828-.646,3.062,3.062,0,0,1-1.1-.971,2.319,2.319,0,0,1-.378-1.31,2.628,2.628,0,0,1,1.081-2.158,4.453,4.453,0,0,1,2.83-.848,4.934,4.934,0,0,1,3.023.853,2.666,2.666,0,0,1,1.143,2.241H22.3q0-1.143-1.2-1.143a1.194,1.194,0,0,0-.782.259.8.8,0,0,0-.316.646.737.737,0,0,0,.387.642,3.654,3.654,0,0,0,1.235.4,10.671,10.671,0,0,1,1.49.378,2.706,2.706,0,0,1,2.145,2.646A2.491,2.491,0,0,1,24.1,16.358a5.068,5.068,0,0,1-2.993.817,5.172,5.172,0,0,1-2.18-.439,3.645,3.645,0,0,1-1.494-1.2,2.707,2.707,0,0,1-.536-1.591h2.769a1.145,1.145,0,0,0,.439.962,1.808,1.808,0,0,0,1.081.3,1.422,1.422,0,0,0,.91-.246A.787.787,0,0,0,22.395,14.328Zm13.069-2.013a5.735,5.735,0,0,1-1,3.538,3.2,3.2,0,0,1-2.694,1.323,2.742,2.742,0,0,1-2.153-.958v4.438H26.657V7.49h2.769l.088.879a2.742,2.742,0,0,1,2.241-1.055,3.224,3.224,0,0,1,2.733,1.3,5.805,5.805,0,0,1,.976,3.564ZM32.5,12.131Q32.5,9.6,31.025,9.6a1.394,1.394,0,0,0-1.406.756V14.1a1.439,1.439,0,0,0,1.424.791q1.415,0,1.459-2.443Zm3.894.026a5.613,5.613,0,0,1,.554-2.536A3.96,3.96,0,0,1,38.54,7.912a4.791,4.791,0,0,1,2.435-.6,4.373,4.373,0,0,1,3.366,1.323,5.076,5.076,0,0,1,1.23,3.6v.105a4.925,4.925,0,0,1-1.235,3.529,4.384,4.384,0,0,1-3.344,1.305,4.434,4.434,0,0,1-3.261-1.217,4.761,4.761,0,0,1-1.327-3.3Zm2.962.185a3.538,3.538,0,0,0,.413,1.934,1.376,1.376,0,0,0,1.222.615q1.582,0,1.617-2.435v-.3q0-2.558-1.635-2.558-1.485,0-1.608,2.206ZM49.6,7.49l.1,1.116a3.225,3.225,0,0,1,2.716-1.292,2.713,2.713,0,0,1,2.219.888,4.226,4.226,0,0,1,.76,2.672V17H52.418V11a1.6,1.6,0,0,0-.29-1.059A1.342,1.342,0,0,0,51.073,9.6a1.413,1.413,0,0,0-1.292.686V17H46.819V7.49ZM60.152,17H57.182V7.49h2.971ZM57.006,5.029a1.334,1.334,0,0,1,.457-1.043,1.934,1.934,0,0,1,2.373,0,1.334,1.334,0,0,1,.457,1.043,1.334,1.334,0,0,1-.457,1.043,1.934,1.934,0,0,1-2.373,0A1.334,1.334,0,0,1,57.006,5.029Zm13.8,7.295a5.8,5.8,0,0,1-.967,3.595,3.238,3.238,0,0,1-2.725,1.257,2.81,2.81,0,0,1-2.338-1.151L64.652,17H62V3.5H64.96V8.255a2.711,2.711,0,0,1,2.136-.94,3.239,3.239,0,0,1,2.742,1.274,5.826,5.826,0,0,1,.967,3.586Zm-2.971-.189a3.866,3.866,0,0,0-.365-1.952A1.229,1.229,0,0,0,66.349,9.6a1.418,1.418,0,0,0-1.389.763v3.773a1.426,1.426,0,0,0,1.406.755,1.258,1.258,0,0,0,1.327-1.018A7.309,7.309,0,0,0,67.834,12.135ZM75.234,17H72.264V7.49h2.971ZM72.088,5.029a1.334,1.334,0,0,1,.457-1.043,1.934,1.934,0,0,1,2.373,0,1.334,1.334,0,0,1,.457,1.043,1.334,1.334,0,0,1-.457,1.043,1.934,1.934,0,0,1-2.373,0A1.334,1.334,0,0,1,72.088,5.029ZM80.183,17H77.212V3.5h2.971Zm4.948,0H82.16V7.49h2.971ZM81.984,5.029a1.334,1.334,0,0,1,.457-1.043,1.934,1.934,0,0,1,2.373,0,1.334,1.334,0,0,1,.457,1.043,1.334,1.334,0,0,1-.457,1.043,1.934,1.934,0,0,1-2.373,0A1.334,1.334,0,0,1,81.984,5.029Zm4.6,7.146a5.809,5.809,0,0,1,.976-3.56,3.211,3.211,0,0,1,2.725-1.3,2.731,2.731,0,0,1,2.145,1V3.5H95.4V17H92.733l-.149-1.02a2.8,2.8,0,0,1-2.32,1.2,3.205,3.205,0,0,1-2.689-1.3A5.993,5.993,0,0,1,86.581,12.175Zm2.962.185q0,2.531,1.477,2.531a1.458,1.458,0,0,0,1.406-.826V10.443A1.419,1.419,0,0,0,91.037,9.6q-1.371,0-1.485,2.215ZM102.437,17a3.344,3.344,0,0,1-.281-.853,2.754,2.754,0,0,1-2.285,1.028,3.374,3.374,0,0,1-2.285-.813,2.588,2.588,0,0,1-.94-2.043,2.66,2.66,0,0,1,1.143-2.338,5.821,5.821,0,0,1,3.322-.791h.914v-.5q0-1.316-1.134-1.316a.927.927,0,0,0-1.055,1.042H96.873a2.655,2.655,0,0,1,1.173-2.239,4.931,4.931,0,0,1,2.993-.86,4.323,4.323,0,0,1,2.874.888,3.086,3.086,0,0,1,1.081,2.435v4.21a4.311,4.311,0,0,0,.4,2V17Zm-1.854-1.934a1.652,1.652,0,0,0,.918-.237,1.487,1.487,0,0,0,.523-.536V12.772h-.861q-1.547,0-1.547,1.389a.848.848,0,0,0,.272.655A.986.986,0,0,0,100.582,15.066Zm5.678-2.892a5.809,5.809,0,0,1,.976-3.56,3.211,3.211,0,0,1,2.725-1.3,2.731,2.731,0,0,1,2.145,1V3.5h2.971V17h-2.663l-.149-1.02a2.8,2.8,0,0,1-2.32,1.2,3.205,3.205,0,0,1-2.689-1.3A5.993,5.993,0,0,1,106.26,12.175Zm2.962.185q0,2.531,1.477,2.531a1.458,1.458,0,0,0,1.406-.826V10.443a1.419,1.419,0,0,0-1.389-.844q-1.371,0-1.485,2.215Z" transform="translate(1012 1939)" fill="#fff"/>
      <circle id="Elipse_5666" data-name="Elipse 5666" cx="13" cy="13" r="13" transform="translate(504 1880)" fill="#e7f65a"/>
      <circle id="Elipse_5667" data-name="Elipse 5667" cx="13" cy="13" r="13" transform="translate(655 1760)" fill="#e7f65a"/>
      <circle id="Elipse_5673" data-name="Elipse 5673" cx="13" cy="13" r="13" transform="translate(1020 1800)" fill="#e7f65a"/>
      <circle id="Elipse_5670" data-name="Elipse 5670" cx="13" cy="13" r="13" transform="translate(899 2188)" fill="#e7f65a"/>
      <circle id="Elipse_5671" data-name="Elipse 5671" cx="13" cy="13" r="13" transform="translate(1107 2085)" fill="#e7f65a"/>
      <circle id="Elipse_5672" data-name="Elipse 5672" cx="13" cy="13" r="13" transform="translate(1139 1937)" fill="#e7f65a"/>
      <rect id="Rectángulo_45486" data-name="Rectángulo 45486" width="114" height="37" rx="7" transform="translate(561 2127)" fill="#2194e5"/>
      <circle id="Elipse_5664" data-name="Elipse 5664" cx="13" cy="13" r="13" transform="translate(548 2133)" fill="#e7f65a"/>
      <path id="Trazado_196206" data-name="Trazado 196206" d="M7.567,13.6a1.268,1.268,0,0,0-.479-1.055,5.954,5.954,0,0,0-1.683-.782,16.147,16.147,0,0,1-1.969-.782Q.949,9.758.949,7.622a3.011,3.011,0,0,1,.62-1.876A4.008,4.008,0,0,1,3.322,4.48a6.823,6.823,0,0,1,2.549-.453,5.969,5.969,0,0,1,2.474.492,3.917,3.917,0,0,1,1.7,1.4A3.661,3.661,0,0,1,10.652,8H7.576A1.547,1.547,0,0,0,7.1,6.787a1.867,1.867,0,0,0-1.3-.431A2.106,2.106,0,0,0,4.5,6.721a1.074,1.074,0,0,0,.048,1.819A6.65,6.65,0,0,0,6.4,9.367a11.36,11.36,0,0,1,2.18.918,3.663,3.663,0,0,1,2.074,3.3,3.125,3.125,0,0,1-1.266,2.637,5.629,5.629,0,0,1-3.472.958A6.888,6.888,0,0,1,3.1,16.618a4.247,4.247,0,0,1-1.9-1.529,3.985,3.985,0,0,1-.637-2.237H3.656a1.963,1.963,0,0,0,.532,1.516,2.513,2.513,0,0,0,1.727.488,1.985,1.985,0,0,0,1.208-.33A1.088,1.088,0,0,0,7.567,13.6ZM16.7,17.176a4.889,4.889,0,0,1-3.542-1.305,4.507,4.507,0,0,1-1.354-3.4v-.246a5.84,5.84,0,0,1,.541-2.575,3.955,3.955,0,0,1,1.578-1.727,4.763,4.763,0,0,1,2.461-.611,4.117,4.117,0,0,1,3.164,1.244,4.887,4.887,0,0,1,1.16,3.467v1.151H14.818a2.135,2.135,0,0,0,.694,1.257,2.066,2.066,0,0,0,1.389.457,2.662,2.662,0,0,0,2.2-.984l1.354,1.6a3.784,3.784,0,0,1-1.569,1.217A5.3,5.3,0,0,1,16.7,17.176ZM16.365,9.6q-1.3,0-1.547,1.723h2.988v-.229a1.467,1.467,0,0,0-.36-1.1A1.434,1.434,0,0,0,16.365,9.6Zm5.186,2.575a6.421,6.421,0,0,1,.475-2.549,3.821,3.821,0,0,1,1.362-1.709,3.591,3.591,0,0,1,2.065-.6,2.855,2.855,0,0,1,2.32,1l.105-.826h2.689V16.64a4.009,4.009,0,0,1-.584,2.184,3.75,3.75,0,0,1-1.692,1.424,6.219,6.219,0,0,1-2.566.5,5.365,5.365,0,0,1-2.026-.4,3.657,3.657,0,0,1-1.5-1.028l1.239-1.74a2.716,2.716,0,0,0,2.18.976,1.764,1.764,0,0,0,1.969-2.021v-.3a2.781,2.781,0,0,1-2.153.94,3.437,3.437,0,0,1-2.812-1.332,5.517,5.517,0,0,1-1.072-3.564Zm2.971.185a3.383,3.383,0,0,0,.439,1.85,1.387,1.387,0,0,0,1.23.681,1.573,1.573,0,0,0,1.4-.642v-4a1.534,1.534,0,0,0-1.38-.65,1.4,1.4,0,0,0-1.239.708A3.858,3.858,0,0,0,24.521,12.359Zm13.395,3.612a3.054,3.054,0,0,1-2.54,1.2,3,3,0,0,1-2.369-.91,3.826,3.826,0,0,1-.8-2.615V7.49h2.962v6.179a1.065,1.065,0,0,0,1.187,1.222,1.548,1.548,0,0,0,1.45-.729V7.49h2.979V17H38Zm10.239-5.8-.976-.07a1.752,1.752,0,0,0-1.793.879V17H42.425V7.49H45.2l.1,1.222a2.294,2.294,0,0,1,2.083-1.4,2.888,2.888,0,0,1,.826.105ZM52.348,17H49.377V7.49h2.971ZM49.2,5.029a1.334,1.334,0,0,1,.457-1.043,1.934,1.934,0,0,1,2.373,0,1.334,1.334,0,0,1,.457,1.043,1.334,1.334,0,0,1-.457,1.043,1.934,1.934,0,0,1-2.373,0A1.334,1.334,0,0,1,49.2,5.029Zm4.6,7.146a5.809,5.809,0,0,1,.976-3.56,3.211,3.211,0,0,1,2.725-1.3,2.731,2.731,0,0,1,2.145,1V3.5h2.971V17H59.95L59.8,15.98a2.8,2.8,0,0,1-2.32,1.2,3.205,3.205,0,0,1-2.689-1.3A5.993,5.993,0,0,1,53.8,12.175Zm2.962.185q0,2.531,1.477,2.531a1.458,1.458,0,0,0,1.406-.826V10.443A1.419,1.419,0,0,0,58.254,9.6q-1.371,0-1.485,2.215ZM69.653,17a3.344,3.344,0,0,1-.281-.853,2.754,2.754,0,0,1-2.285,1.028,3.374,3.374,0,0,1-2.285-.813,2.588,2.588,0,0,1-.94-2.043A2.66,2.66,0,0,1,65,11.981a5.821,5.821,0,0,1,3.322-.791h.914v-.5q0-1.316-1.134-1.316a.927.927,0,0,0-1.055,1.042H64.09a2.655,2.655,0,0,1,1.173-2.239,4.931,4.931,0,0,1,2.993-.86A4.323,4.323,0,0,1,71.13,8.2a3.086,3.086,0,0,1,1.081,2.435v4.21a4.311,4.311,0,0,0,.4,2V17ZM67.8,15.066a1.652,1.652,0,0,0,.918-.237,1.487,1.487,0,0,0,.523-.536V12.772h-.861q-1.547,0-1.547,1.389a.848.848,0,0,0,.272.655A.986.986,0,0,0,67.8,15.066Zm5.678-2.892a5.809,5.809,0,0,1,.976-3.56,3.211,3.211,0,0,1,2.725-1.3,2.731,2.731,0,0,1,2.145,1V3.5h2.971V17H79.629l-.149-1.02a2.8,2.8,0,0,1-2.32,1.2,3.205,3.205,0,0,1-2.689-1.3A5.993,5.993,0,0,1,73.477,12.175Zm2.962.185q0,2.531,1.477,2.531a1.458,1.458,0,0,0,1.406-.826V10.443A1.419,1.419,0,0,0,77.933,9.6q-1.371,0-1.485,2.215Z" transform="translate(581 2135)" fill="#fff"/>
      <g id="Grupo_152858" data-name="Grupo 152858" transform="translate(644 1855)">
        <g id="Grupo_152860" data-name="Grupo 152860">
          <g id="Grupo_152843" data-name="Grupo 152843">
            <g id="Grupo_152859" data-name="Grupo 152859">
              <path id="Trazado_195066" data-name="Trazado 195066" d="M173.526,19.095H111.372a6.878,6.878,0,0,1-6.878-6.877V7.353A6.878,6.878,0,0,1,111.372.476h62.154A6.877,6.877,0,0,1,180.4,7.353v4.864a6.877,6.877,0,0,1-6.877,6.877" transform="translate(-16.385 -0.075)" fill="#f8f5f3"/>
              <path id="Trazado_195067" data-name="Trazado 195067" d="M119.932,5.846l1.431,2.9,3.2.465-2.315,2.257.546,3.187-2.862-1.505-2.862,1.505.546-3.187L115.3,9.211l3.2-.465Z" transform="translate(-18.08 -0.917)" fill="#ffd496"/>
              <path id="Trazado_195068" data-name="Trazado 195068" d="M134.65,5.846l1.431,2.9,3.2.465-2.315,2.257.546,3.187L134.65,13.15l-2.862,1.505.546-3.187-2.315-2.257,3.2-.465Z" transform="translate(-20.387 -0.917)" fill="#ffd496"/>
              <path id="Trazado_195069" data-name="Trazado 195069" d="M149.807,5.846l1.431,2.9,3.2.465-2.315,2.257.546,3.187-2.862-1.505-2.862,1.505.546-3.187-2.315-2.257,3.2-.465Z" transform="translate(-22.764 -0.917)" fill="#ffd496"/>
              <path id="Trazado_195070" data-name="Trazado 195070" d="M164.3,5.846l1.431,2.9,3.2.465-2.315,2.257.546,3.187L164.3,13.15l-2.862,1.505.546-3.187-2.315-2.257,3.2-.465Z" transform="translate(-25.037 -0.917)" fill="#ffd496"/>
              <path id="Trazado_195071" data-name="Trazado 195071" d="M179.242,5.846l1.431,2.9,3.2.465-2.315,2.257.546,3.187-2.862-1.505-2.862,1.505.546-3.187-2.315-2.257,3.2-.465Z" transform="translate(-27.38 -0.917)" fill="#ffd496"/>
              <path id="Trazado_195072" data-name="Trazado 195072" d="M166.842,21.548h9.212V29.79Z" transform="translate(-26.161 -3.379)" fill="#f8f5f3"/>
              <path id="Trazado_195073" data-name="Trazado 195073" d="M345.73,264.48c1.436-10.409,10.409-46.3,19.024-52.406,0,0,5.384,36.612-11.845,53.124Z" transform="translate(-54.212 -33.254)" fill="#06a6e2"/>
              <path id="Trazado_195074" data-name="Trazado 195074" d="M350.666,267.42c3.327-15.493,6.616-31.072,12.282-45.915.149-.391-.48-.561-.627-.173-5.665,14.844-8.955,30.423-12.282,45.915-.087.408.54.583.627.173" transform="translate(-54.886 -34.671)" fill="#445f7b"/>
              <path id="Trazado_195075" data-name="Trazado 195075" d="M17.816,246.37c-2.913,4.9,17.767,7.839,19.446,9.511S19.512,258.929,22.207,266.8c3.722,10.869,21.094-4.728,25.453-2.726s-17.9,10.249-13.54,14.764,25.285-3.061,30.635-8.262,3.3-25.129-6.59-31.475,1.035,16.244-2.815,16.92-5.407-25.782-13.1-22.754c-7.739,3.044.782,15.5-.472,17.42s-18.28-13.868-23.957-4.311" transform="translate(-2.75 -36.539)" fill="#06a6e2"/>
              <path id="Trazado_195076" data-name="Trazado 195076" d="M28.463,251a138.892,138.892,0,0,1,45.248,27.505A138.667,138.667,0,0,1,84.26,289.222c.406.459,1.076-.215.672-.672a139.847,139.847,0,0,0-42.3-32.455,139.85,139.85,0,0,0-13.917-6.007c-.575-.212-.823.706-.253.917" transform="translate(-4.412 -39.21)" fill="#445f7b"/>
              <path id="Trazado_195077" data-name="Trazado 195077" d="M57.169,261.164a52.287,52.287,0,0,1-8.148-20.24c-.105-.6-1.021-.347-.917.253a52.969,52.969,0,0,0,8.244,20.467c.34.5,1.164.03.82-.48" transform="translate(-7.542 -37.724)" fill="#445f7b"/>
              <path id="Trazado_195078" data-name="Trazado 195078" d="M30.358,271.048c7.705-4.391,16.9-7.285,25.584-4.037.573.214.821-.7.253-.917-8.913-3.333-18.407-.374-26.317,4.133a.475.475,0,0,0,.48.82" transform="translate(-4.649 -41.501)" fill="#445f7b"/>
              <path id="Trazado_195079" data-name="Trazado 195079" d="M68.346,267.02c3.078-2.154,2.971-6.906,2.79-10.244A31.272,31.272,0,0,0,67.7,244.193c-.28-.544-1.1-.064-.82.48a30.1,30.1,0,0,1,3.253,11.369,28.433,28.433,0,0,1-.067,5.444c-.2,1.75-.683,3.651-2.2,4.715-.5.348-.023,1.172.48.82" transform="translate(-10.479 -38.253)" fill="#445f7b"/>
              <path id="Trazado_195080" data-name="Trazado 195080" d="M50.491,281.736a33.9,33.9,0,0,0,14.6-9.852c.4-.46-.272-1.136-.672-.672a32.956,32.956,0,0,1-14.181,9.607c-.574.2-.327,1.116.253.917" transform="translate(-7.826 -42.503)" fill="#445f7b"/>
              <g id="Grupo_152811" data-name="Grupo 152811" transform="translate(158.613 120.001)" opacity="0.15">
                <g id="Grupo_152810" data-name="Grupo 152810">
                  <g id="Grupo_152809" data-name="Grupo 152809" clip-path="url(#clip-path)">
                    <path id="Trazado_195081" data-name="Trazado 195081" d="M251.074,143.741c7.6,4.461-18.189,23.867-19.211,27.381s26.287-9.123,28.513,3.531C263.45,192.136,228.306,184,223.9,189.96s31.87.507,29.336,9.869-36.494,14.73-47.615,11.685-23.223-31.534-14.575-47.5,10.724,22.75,16.439,20.792-11.927-38.919.75-40.566c12.742-1.656,10.51,21.557,13.637,23.217s14.385-32.406,29.2-23.712" transform="translate(-188.109 -142.317)" fill="#adadad"/>
                    <path id="Trazado_195082" data-name="Trazado 195082" d="M251.938,178.659c-12.78-.059-25.5,2.363-35.176,10.668a217.4,217.4,0,0,1,24.207-34.485c.615-.717-.46-1.717-1.078-1a219.216,219.216,0,0,0-23.213,32.684,85.419,85.419,0,0,0-4.316-30.674.735.735,0,0,0-1.4.444,84.631,84.631,0,0,1,4.092,33.074q-3.473,6.195-6.534,12.6a.644.644,0,0,0-.479-.356c-10.794-2.135-14.476-21.027-14.886-29.926a.735.735,0,0,0-1.467.056c.449,9.754,4.32,28.986,16.018,31.3a.748.748,0,0,0,.3,0,218.844,218.844,0,0,0-15.458,44.8.735.735,0,0,0,1.43.336A217.535,217.535,0,0,1,209.4,203.539a54.182,54.182,0,0,0,26.695,2.366c.922-.146.876-1.615-.057-1.467a53.574,53.574,0,0,1-26.006-2.229q2.058-4.281,4.3-8.47s.008,0,.011-.008c9.744-10.816,23.641-13.669,37.649-13.6.946,0,.887-1.463-.057-1.467" transform="translate(-188.67 -144.086)" fill="#5e5e5e"/>
                  </g>
                </g>
              </g>
              <g id="Grupo_152814" data-name="Grupo 152814" transform="translate(59.11 111.389)" opacity="0.15">
                <g id="Grupo_152813" data-name="Grupo 152813">
                  <g id="Grupo_152812" data-name="Grupo 152812" clip-path="url(#clip-path-2)">
                    <path id="Trazado_195083" data-name="Trazado 195083" d="M78.322,133.719c-7.424,4.751,19.1,23.147,20.254,26.619s-26.619-8.1-28.355,4.63c-2.4,17.588,32.406,8.1,37.035,13.888s-31.826,1.735-28.933,10.994,37.035,13.31,48.03,9.838,21.99-32.406,12.731-48.03-9.838,23.147-15.624,21.411,10.416-39.35-2.315-40.508c-12.8-1.163-9.67,21.948-12.731,23.726S92.789,124.46,78.322,133.719" transform="translate(-70.102 -132.103)" fill="#adadad"/>
                    <path id="Trazado_195084" data-name="Trazado 195084" d="M80.877,168.581c12.769-.552,25.573,1.377,35.561,9.3a217.388,217.388,0,0,0-25.52-33.525c-.642-.692.395-1.733,1.039-1.038a219.219,219.219,0,0,1,24.457,31.763,85.439,85.439,0,0,1,3.129-30.817.735.735,0,0,1,1.417.39,84.645,84.645,0,0,0-2.813,33.208q3.71,6.056,7.015,12.344a.642.642,0,0,1,.465-.374c10.7-2.55,13.654-21.57,13.72-30.478a.735.735,0,0,1,1.469,0c-.073,9.764-3.2,29.131-14.8,31.894a.763.763,0,0,1-.3.011,218.863,218.863,0,0,1,17.175,44.166.735.735,0,0,1-1.416.39A217.6,217.6,0,0,0,124.345,191.8,54.186,54.186,0,0,1,97.762,195.2c-.927-.11-.938-1.58,0-1.469a53.563,53.563,0,0,0,25.9-3.23q-2.221-4.2-4.627-8.3l-.011-.008c-10.155-10.433-24.152-12.747-38.146-12.142-.944.041-.943-1.428,0-1.468" transform="translate(-71.681 -133.826)" fill="#5e5e5e"/>
                  </g>
                </g>
              </g>
              <path id="Trazado_195085" data-name="Trazado 195085" d="M303.592,46.644h-39.8L258,50.578V31.02a5.211,5.211,0,0,1,5.211-5.211h40.378a5.21,5.21,0,0,1,5.21,5.211V41.434A5.21,5.21,0,0,1,303.592,46.644Z" transform="translate(-40.456 -4.047)" fill="none" stroke="#7f4fc7" stroke-miterlimit="10" stroke-width="0.558"/>
              <path id="Trazado_195086" data-name="Trazado 195086" d="M305.093,33.189q2.089.015,4.178.037" transform="translate(-47.84 -5.204)" fill="none" stroke="#7f4fc7" stroke-miterlimit="10" stroke-width="0.558"/>
              <path id="Trazado_195087" data-name="Trazado 195087" d="M290.978,33.134q4.681,0,9.362.03" transform="translate(-45.626 -5.196)" fill="none" stroke="#7f4fc7" stroke-miterlimit="10" stroke-width="0.558"/>
              <path id="Trazado_195088" data-name="Trazado 195088" d="M276.518,33.218c4.9-.049,4.615-.076,9.518-.082" transform="translate(-43.359 -5.196)" fill="none" stroke="#7f4fc7" stroke-miterlimit="10" stroke-width="0.558"/>
              <line id="Línea_189" data-name="Línea 189" x2="7.126" transform="translate(223.477 28.022)" fill="none" stroke="#7f4fc7" stroke-miterlimit="10" stroke-width="0.558"/>
              <path id="Trazado_195089" data-name="Trazado 195089" d="M292.011,38.643q3.142.049,6.284.125" transform="translate(-45.788 -6.059)" fill="none" stroke="#7f4fc7" stroke-miterlimit="10" stroke-width="0.558"/>
              <path id="Trazado_195090" data-name="Trazado 195090" d="M280.3,38.543q3.591.005,7.182.047" transform="translate(-43.952 -6.044)" fill="none" stroke="#7f4fc7" stroke-miterlimit="10" stroke-width="0.558"/>
              <path id="Trazado_195091" data-name="Trazado 195091" d="M265.036,38.752c5.15-.122,5.11-.194,10.262-.207" transform="translate(-41.559 -6.044)" fill="none" stroke="#7f4fc7" stroke-miterlimit="10" stroke-width="0.558"/>
              <path id="Trazado_195092" data-name="Trazado 195092" d="M306.495,43.764q1.8-.008,3.6-.017" transform="translate(-48.06 -6.86)" fill="none" stroke="#7f4fc7" stroke-miterlimit="10" stroke-width="0.558"/>
              <path id="Trazado_195093" data-name="Trazado 195093" d="M295.286,43.794q3.6-.005,7.2-.017" transform="translate(-46.302 -6.864)" fill="none" stroke="#7f4fc7" stroke-miterlimit="10" stroke-width="0.558"/>
              <path id="Trazado_195094" data-name="Trazado 195094" d="M282.685,43.792q4,.008,7.99.006" transform="translate(-44.326 -6.867)" fill="none" stroke="#7f4fc7" stroke-miterlimit="10" stroke-width="0.558"/>
              <path id="Trazado_195095" data-name="Trazado 195095" d="M275.68,43.747c2.812.014.431.025,3.242.032" transform="translate(-43.228 -6.86)" fill="none" stroke="#c5c2c0" stroke-miterlimit="10" stroke-width="0.558"/>
              <line id="Línea_190" data-name="Línea 190" x2="6.119" transform="translate(224.082 36.887)" fill="none" stroke="#7f4fc7" stroke-miterlimit="10" stroke-width="0.558"/>
              <path id="Trazado_195096" data-name="Trazado 195096" d="M0,272.561H248.045s-18.887,32.414-115.393,32.414C20.54,304.975,0,272.561,0,272.561" transform="translate(51.868 -39.857)" fill="#cdb8f1"/>
              <path id="Trazado_195097" data-name="Trazado 195097" d="M315.2,268.147h18.082a1.915,1.915,0,0,1,1.918,1.9c.04,4.336-1.028,14.595-12.028,14.595-8.988,0-9.983-10.085-9.988-14.482a2.012,2.012,0,0,1,2.017-2.01" transform="translate(-49.108 -42.046)" fill="#956b59"/>
              <path id="Trazado_195098" data-name="Trazado 195098" d="M317.051,269.928h16.136a.313.313,0,0,1,.165.581,16.306,16.306,0,0,1-8.564,2.133,17.351,17.351,0,0,1-7.89-2.126.314.314,0,0,1,.152-.589" transform="translate(-49.665 -42.326)" fill="#644d47"/>
              <path id="Trazado_195099" data-name="Trazado 195099" d="M322.313,258.105c-.62,1.826-12.092-1.68-9.859-5.3,2.512-4.072,10.431,3.614,9.859,5.3" transform="translate(-48.949 -39.457)" fill="#445f7b"/>
              <path id="Trazado_195100" data-name="Trazado 195100" d="M319.864,243.955c-1.95-.411-8.979-3.315-8.128-7.748.675-3.519,9.463,8.029,8.128,7.748" transform="translate(-48.87 -36.933)" fill="#445f7b"/>
              <path id="Trazado_195101" data-name="Trazado 195101" d="M321.919,245.678c1.226-5.794,3.3-11.539,6.342-10.14s-6.61,11.407-6.342,10.14" transform="translate(-50.477 -36.9)" fill="#445f7b"/>
              <path id="Trazado_195102" data-name="Trazado 195102" d="M324.416,253.594c6.443-.1,8.252-7.035,6.423-9.184s-7.652,9.2-6.423,9.184" transform="translate(-50.843 -38.282)" fill="#445f7b"/>
              <path id="Trazado_195103" data-name="Trazado 195103" d="M317.147,232.916c-2.149-.236-8.952-9.753-6.45-9.962,3.834-.319,7.575,10.085,6.45,9.962" transform="translate(-48.633 -34.959)" fill="#445f7b"/>
              <path id="Trazado_195104" data-name="Trazado 195104" d="M323.858,266.4a126.5,126.5,0,0,0-2.193-20.258c-1.126-5.88-2.445-12.036-6.235-16.839-.379-.48-1.047.2-.672.672,3.749,4.751,4.973,11.01,6.066,16.818a124.942,124.942,0,0,1,2.084,19.607.475.475,0,0,0,.95,0" transform="translate(-49.338 -35.929)" fill="#445f7b"/>
              <path id="Trazado_195105" data-name="Trazado 195105" d="M328.215,263.427c-1.808,1.823-13.483-9.069-8.7-12.094,5.382-3.4,10.368,10.413,8.7,12.094" transform="translate(-49.922 -39.326)" fill="#06a6e2"/>
              <path id="Trazado_195106" data-name="Trazado 195106" d="M333.572,244.942c-2.093-1.63-8.8-9.209-5.2-14.013,2.862-3.815,6.631,15.129,5.2,14.013" transform="translate(-51.326 -36.131)" fill="#06a6e2"/>
              <path id="Trazado_195107" data-name="Trazado 195107" d="M334.143,248.68c4.849-6.215,10.682-11.876,13.505-8.426s-14.565,9.784-13.505,8.426" transform="translate(-52.388 -37.509)" fill="#06a6e2"/>
              <path id="Trazado_195108" data-name="Trazado 195108" d="M332.63,259.7c7.762,3.648,13.978-3.6,13.045-7.235S331.149,259,332.63,259.7" transform="translate(-52.14 -39.464)" fill="#06a6e2"/>
              <path id="Trazado_195109" data-name="Trazado 195109" d="M336.872,230.137c-2.433-1.537-5.014-16.893-1.9-15.68,4.772,1.856,3.172,16.485,1.9,15.68" transform="translate(-52.3 -33.617)" fill="#06a6e2"/>
              <path id="Trazado_195110" data-name="Trazado 195110" d="M326.515,265.819a111.075,111.075,0,0,0,5.337-13.02,100.082,100.082,0,0,0,3.861-16.83,32.635,32.635,0,0,0-.331-11.126c-.174-.794-1.394-.459-1.219.336,1.74,7.948-.515,16.178-2.552,23.854a102.039,102.039,0,0,1-6.187,16.147c-.336.735.755,1.379,1.092.638" transform="translate(-51.018 -35.185)" fill="#06a6e2"/>
              <path id="Trazado_195111" data-name="Trazado 195111" d="M32.717,143.067,62.195,144.1l6.817,4.988.578-16.483a6.288,6.288,0,0,0-6.064-6.5l-30.177-1.057a6.289,6.289,0,0,0-6.5,6.063l-.191,5.455a6.287,6.287,0,0,0,6.063,6.5" transform="translate(-4.179 -19.607)" fill="#ffd496"/>
              <path id="Trazado_195112" data-name="Trazado 195112" d="M59.611,136.112a2.357,2.357,0,1,0,2.439-2.273,2.357,2.357,0,0,0-2.439,2.273" transform="translate(-9.347 -20.986)" fill="#fff"/>
              <path id="Trazado_195113" data-name="Trazado 195113" d="M49.446,135.756a2.357,2.357,0,1,0,2.439-2.273,2.357,2.357,0,0,0-2.439,2.273" transform="translate(-7.753 -20.93)" fill="#fff"/>
              <path id="Trazado_195114" data-name="Trazado 195114" d="M39.767,135.417a2.357,2.357,0,1,0,2.439-2.273,2.357,2.357,0,0,0-2.439,2.273" transform="translate(-6.235 -20.877)" fill="#fff"/>
              <path id="Trazado_195115" data-name="Trazado 195115" d="M76.738,120.3,64,119.851l-6.7,4.217.534-15.253a5.894,5.894,0,0,1,6.1-5.683l13.4.47a5.893,5.893,0,0,1,5.683,6.1l-.172,4.916a5.894,5.894,0,0,1-6.1,5.683" transform="translate(-8.984 -16.171)" fill="#06a6e2"/>
              <path id="Trazado_195116" data-name="Trazado 195116" d="M65.1,113.314l1.869,2.005,5.047-6.911" transform="translate(-10.208 -16.999)" fill="none" stroke="#fff" stroke-linecap="round" stroke-linejoin="round" stroke-width="1.731"/>
              <path id="Trazado_195117" data-name="Trazado 195117" d="M72.819,113.585l1.869,2.005,5.047-6.911" transform="translate(-11.418 -17.041)" fill="none" stroke="#fff" stroke-linecap="round" stroke-linejoin="round" stroke-width="1.731"/>
              <path id="Trazado_195118" data-name="Trazado 195118" d="M204.33,86.9c1.654-1.815,4.536-.7,4.536-.7s9.232-4.747,14.276,2.179S222,102.753,222,102.753s17.4.218,15.163,19.373c-1.149,9.831-8.984,10.7-8.984,10.7a14.056,14.056,0,0,1,1.77,10.449c-1.244,4.976-6.228,9.342-15.786,8.269,0,0,4.954,2.979.266,6.819s-9.466,9.051-14.779,3.434-11.713-16.039-11.713-16.039L183.8,103.212Z" transform="translate(-28.821 -13.268)" fill="#482f2f"/>
              <path id="Trazado_195119" data-name="Trazado 195119" d="M140.32,95.878c-1.469-2.8-7.369-4.138-6.686-1.021,0,0-3.166-3.294-6.252-.771a4.574,4.574,0,0,0-.055,7.413s-3.449-3.336-5.353-1.6c-3.108,2.826-2.266,5.127-2.266,5.127a14.274,14.274,0,0,0-14.274,7.714c-6.115,11.51.005,20.686,8.562,23.658a4.458,4.458,0,0,0-.462,5.792c1.406,2.106,5.008,1.93,5.008,1.93s-3.279,3.493.736,10.15,25.155,21.246,32.836,15.678c8.836-6.407,5.174-22.773,5.174-22.773l-.514-32.95Z" transform="translate(-16.145 -14.593)" fill="#482f2f"/>
              <path id="Trazado_195120" data-name="Trazado 195120" d="M210.532,168.747c-4.969-5.846-10.35-9.261-17.286-8.011l-30.951,8.343-30.789-13.35s-11.15-4.534-18.374,2.689c-10.381,10.381-35.243,81.532-15.167,94.6,5.091,3.312,69.586,0,69.586,0a47.779,47.779,0,0,0,3.235-12.779l15.036,1.748,17.964-37.016,23.5-1.691s-9.585-26.1-16.752-34.528" transform="translate(-14.169 -24.198)" fill="#ffa45c"/>
              <path id="Trazado_195121" data-name="Trazado 195121" d="M181.551,266.711h21.338s2.612-14.808-2.351-17.42-20.9-2.612-20.9-2.612Z" transform="translate(-28.168 -38.68)" fill="#ac6e5d"/>
              <path id="Trazado_195122" data-name="Trazado 195122" d="M171.133,232.5l-40.381-3.638c.467-22.525.456-25.691,1.546-42.936l4.446,35.7Z" transform="translate(-20.502 -29.155)" fill="#ec8f5c"/>
              <path id="Trazado_195123" data-name="Trazado 195123" d="M156.8,143.492c.1.514.683,4.758,1.235,8.807.533,3.913,1.035,7.644,1.035,7.644s-13.08-4.292-19.917-5.913c0,0-1.32,11.806,13.905,19.5,17.605,8.9,42.73,3.08,47.835-14.494l-16.573.335-.772-7.665-.708-7.031-11.543.8Z" transform="translate(-21.815 -22.5)" fill="#c88a73"/>
              <path id="Trazado_195124" data-name="Trazado 195124" d="M186.551,148.884l-.423-4.208-11.543.805-14.5-1.989c.1.514.683,4.759,1.235,8.807,0,0,4.606,2.877,12.318,2.409a21.486,21.486,0,0,0,12.911-5.824" transform="translate(-25.102 -22.5)" fill="#ac6e5d"/>
              <path id="Trazado_195125" data-name="Trazado 195125" d="M139.153,155.989s-1.321,11.806,13.9,19.5c17.605,8.9,42.73,3.08,47.836-14.494" transform="translate(-21.815 -24.46)" fill="none" stroke="#ec8f59" stroke-miterlimit="10" stroke-width="1.564"/>
              <path id="Trazado_195126" data-name="Trazado 195126" d="M131.711,185.841q-.962,15.246-1.29,30.5-.133,6.218-.256,12.435a.506.506,0,0,0,.495.495l13.693,1.234,21.7,1.954,4.993.45c.634.056.63-.933,0-.99l-13.693-1.233-21.7-1.955-4.992-.449.494.494c.229-11.077.374-22.158.97-33.224.174-3.239.373-6.476.577-9.712.04-.636-.949-.633-.989,0" transform="translate(-20.41 -29.066)" fill="#ec8f59"/>
              <path id="Trazado_195127" data-name="Trazado 195127" d="M108.606,244.106a28.224,28.224,0,0,1,8.485-6.77c2.774-1.435,6.833-2.907,9.534-.543.477.417,1.18-.28.7-.7-2.725-2.385-6.617-1.539-9.614-.159a28.818,28.818,0,0,0-9.8,7.472c-.411.482.286,1.185.7.7" transform="translate(-16.9 -36.785)" fill="#ec8f59"/>
              <path id="Trazado_195128" data-name="Trazado 195128" d="M219.37,180.585c1.828,7.066,3.163,14.156,4.309,21.361.1.627,1.053.361.954-.263-1.145-7.205-2.481-14.294-4.309-21.361a.5.5,0,0,0-.954.263" transform="translate(-34.395 -28.22)" fill="#ec8f5c"/>
              <path id="Trazado_195129" data-name="Trazado 195129" d="M161.53,277.143c-1.568-4.18-1.568-6.531,8.621-8.359S186.607,268,186.607,268l-4.963,8.1Z" transform="translate(-25.21 -41.977)" fill="#c88a73"/>
              <g id="Grupo_152817" data-name="Grupo 152817" transform="translate(167.557 71.348)" opacity="0.47">
                <g id="Grupo_152816" data-name="Grupo 152816">
                  <g id="Grupo_152815" data-name="Grupo 152815" clip-path="url(#clip-path-3)">
                    <path id="Trazado_195130" data-name="Trazado 195130" d="M224.34,102.752s6.185-7.445,1.141-14.371S211.2,86.2,211.2,86.2l-12.489,23.213s7.9,2.734,14.734,1.492c6.154-1.119,10.891-8.155,10.891-8.155" transform="translate(-198.716 -84.616)"/>
                  </g>
                </g>
              </g>
              <g id="Grupo_152820" data-name="Grupo 152820" transform="translate(97.845 90.689)" opacity="0.47">
                <g id="Grupo_152819" data-name="Grupo 152819">
                  <g id="Grupo_152818" data-name="Grupo 152818" clip-path="url(#clip-path-4)">
                    <path id="Trazado_195131" data-name="Trazado 195131" d="M117.429,107.554c-3.68,3.27.586,7.172,5.471,9.935a23.554,23.554,0,0,0,5.143,2.141c1.669.475,4.349,2.233,7.432,4.6,9.248,7.113,22.115,19.738,22.115,19.738L140.32,112.46Z" transform="translate(-116.041 -107.554)"/>
                  </g>
                </g>
              </g>
              <path id="Trazado_195132" data-name="Trazado 195132" d="M207.337,101.174c1.494-1.223,3.4-2.445,4.89-1.087.559.508.909,2.482,1.029,4.886.2,4.023-.246,9.255-1.436,10.87-.857,1.162-3.124,2.852-5.025.815-.837-.9-.832-4-.564-7.2.341-4.068,1.107-8.284,1.107-8.284" transform="translate(-32.313 -15.601)" fill="#7b7473"/>
              <path id="Trazado_195133" data-name="Trazado 195133" d="M209.357,107.463l3.9-2.489c-.119-2.4-.469-4.378-1.028-4.885-1.311-1.192-2.937-.4-4.325.643-.156.116-.333.254-.565.444,0,0-.766,4.216-1.108,8.284-.267,3.2-.272,6.3.564,7.2,1.9,2.038,4.17.347,5.026-.815L208.582,115Z" transform="translate(-32.313 -15.601)" fill="#645b5a"/>
              <path id="Trazado_195134" data-name="Trazado 195134" d="M138.131,101.459c-1.747-1.43-3.971-2.859-5.719-1.271-1.041.946-1.462,6.23-1.162,10.989.2,3.23.739,6.218,1.638,7.439,1,1.359,3.654,3.336,5.878.953.694-.744.893-2.788.838-5.249a101.6,101.6,0,0,0-1.474-12.86" transform="translate(-20.566 -15.601)" fill="#7b7473"/>
              <path id="Trazado_195135" data-name="Trazado 195135" d="M139.6,114.32a101.4,101.4,0,0,0-1.474-12.86,6.588,6.588,0,0,0-1.415-1.043c-1.437-.918-3-1.412-4.3-.229-1.04.946-1.461,6.231-1.162,10.989l4.465,1.68.333,4.5-3.159,1.256c1,1.36,3.654,3.337,5.878.954.694-.744.893-2.788.838-5.249" transform="translate(-20.566 -15.601)" fill="#645b5a"/>
              <path id="Trazado_195136" data-name="Trazado 195136" d="M151.608,73.68a17.754,17.754,0,0,0-11.992,18.642c1.223,13.448.737,25.142,3.663,31.05,2.684,5.415,15.015,16.425,27,16.425,3.047,0,9.637-1.729,14.172-4.993,5.914-4.258,10.226-11.591,10.753-13.934a98.088,98.088,0,0,0,2-30.832,18.634,18.634,0,0,0-16.253-17.314c-9.308-1.022-21.2-1.557-29.17.9l-.177.055" transform="translate(-21.88 -11.269)" fill="#c88a73"/>
              <path id="Trazado_195137" data-name="Trazado 195137" d="M168.35,133.221a4.513,4.513,0,0,1,3.723-2.842,5.44,5.44,0,0,1,2.969.278,5.6,5.6,0,0,1,3.8-1.67,3.75,3.75,0,0,1,3.092,1.213,43.5,43.5,0,0,1-9.68,2.575Z" transform="translate(-26.398 -20.223)" fill="#c05649"/>
              <path id="Trazado_195138" data-name="Trazado 195138" d="M176.295,135.525c-3.631.924-6.68-.371-7.051-2.134,0,0,4.486-.562,6.439-1.1s6.394-1.865,6.394-1.865-.68,3.8-5.783,5.095" transform="translate(-26.538 -20.452)" fill="#c05649"/>
              <path id="Trazado_195139" data-name="Trazado 195139" d="M156.369,111.607a1.467,1.467,0,1,1-1.455-1.648,1.561,1.561,0,0,1,1.455,1.648" transform="translate(-24.063 -17.242)"/>
              <path id="Trazado_195140" data-name="Trazado 195140" d="M194.841,110.146a1.467,1.467,0,1,1-1.455-1.648,1.561,1.561,0,0,1,1.455,1.648" transform="translate(-30.095 -17.013)"/>
              <path id="Trazado_195141" data-name="Trazado 195141" d="M168.753,123.394a3.6,3.6,0,0,0,1.455.813,12.458,12.458,0,0,0,1.635.444,2.081,2.081,0,0,0,.879.1,6.28,6.28,0,0,0,1.194-.552,6.35,6.35,0,0,0,1.932-1.52.51.51,0,0,0,0-.7.5.5,0,0,0-.7,0,5.614,5.614,0,0,1-1.731,1.365,7.5,7.5,0,0,1-.981.461h.263c-.47-.077-.937-.181-1.4-.3a4.089,4.089,0,0,1-1.848-.813c-.435-.466-1.134.234-.7.7" transform="translate(-26.44 -19.105)" fill="#683f2b"/>
              <path id="Trazado_195142" data-name="Trazado 195142" d="M160.969,132.1a14.06,14.06,0,0,0,3.887.614,37.325,37.325,0,0,0,6.889-.229,31.714,31.714,0,0,0,15.726-6.107c.5-.39-.2-1.085-.7-.7a30.712,30.712,0,0,1-15.554,5.879,37.281,37.281,0,0,1-6.264.174,13.286,13.286,0,0,1-3.72-.584c-.6-.219-.858.737-.263.954" transform="translate(-25.188 -19.689)" fill="#683f2b"/>
              <path id="Trazado_195143" data-name="Trazado 195143" d="M140.961,120.225a2,2,0,0,0-1.428,2.358c.834,3.791,3.548,11.85,12.274,16.081a56.528,56.528,0,0,0,14.644,4.556l-.325-1.952s-13.039-1.394-19.958-8.786a19.037,19.037,0,0,1-5.207-12.258" transform="translate(-21.872 -18.852)" fill="#7b7473"/>
              <path id="Trazado_195144" data-name="Trazado 195144" d="M145.543,101a8.961,8.961,0,0,1,6.026-3.81,9.813,9.813,0,0,1,7.663,1.939c.515.375,1.01-.483.5-.854a10.763,10.763,0,0,0-8.425-2.04,9.908,9.908,0,0,0-6.617,4.265c-.335.544.521,1.041.854.5" transform="translate(-22.676 -15.061)"/>
              <path id="Trazado_195145" data-name="Trazado 195145" d="M186.319,97.062a5.894,5.894,0,0,1,2.9-1.8,8.421,8.421,0,0,1,4.027-.39,7.44,7.44,0,0,1,3.065,1.187,21.645,21.645,0,0,1,2.647,2.387c.457.444,1.157-.255.7-.7a20.777,20.777,0,0,0-3.043-2.673,8.51,8.51,0,0,0-3.647-1.234c-2.538-.305-5.912.589-7.5,2.723-.38.511.478,1.005.854.5" transform="translate(-29.067 -14.705)"/>
              <g id="Grupo_152823" data-name="Grupo 152823" transform="translate(160.505 95.978)" opacity="0.51">
                <g id="Grupo_152822" data-name="Grupo 152822">
                  <g id="Grupo_152821" data-name="Grupo 152821" clip-path="url(#clip-path-5)">
                    <path id="Trazado_195146" data-name="Trazado 195146" d="M195.34,113.828c2.8-.062,5.1,1.5,5.146,3.493s-2.189,3.654-4.988,3.716-5.1-1.5-5.146-3.493,2.189-3.654,4.988-3.716" transform="translate(-190.353 -113.826)" fill="#c86856"/>
                  </g>
                </g>
              </g>
              <g id="Grupo_152826" data-name="Grupo 152826" transform="translate(122.951 96.366)" opacity="0.51">
                <g id="Grupo_152825" data-name="Grupo 152825">
                  <g id="Grupo_152824" data-name="Grupo 152824" clip-path="url(#clip-path-6)">
                    <path id="Trazado_195147" data-name="Trazado 195147" d="M151.159,114.289c2.994-.066,5.457,1.494,5.5,3.485s-2.348,3.659-5.342,3.724-5.456-1.494-5.5-3.485,2.347-3.659,5.342-3.724" transform="translate(-145.816 -114.286)" fill="#c86856"/>
                  </g>
                </g>
              </g>
              <g id="Grupo_152829" data-name="Grupo 152829" transform="translate(150.036 65.333)" opacity="0.37" style="mix-blend-mode: multiply;isolation: isolate">
                <g id="Grupo_152828" data-name="Grupo 152828">
                  <g id="Grupo_152827" data-name="Grupo 152827" clip-path="url(#clip-path-7)">
                    <path id="Trazado_195148" data-name="Trazado 195148" d="M178.678,77.482c-.829,3-2.373,10.446,4.722,14.215a21.611,21.611,0,0,0,11.862,2s-1.609,7.709,2.419,10.931a8.107,8.107,0,0,0,6.123,1.946l.85-3.792L201.712,86.89Z" transform="translate(-177.937 -77.482)" fill="#ac6e5d"/>
                  </g>
                </g>
              </g>
              <g id="Grupo_152832" data-name="Grupo 152832" transform="translate(119.146 58.736)" opacity="0.37" style="mix-blend-mode: multiply;isolation: isolate">
                <g id="Grupo_152831" data-name="Grupo 152831">
                  <g id="Grupo_152830" data-name="Grupo 152830" clip-path="url(#clip-path-8)">
                    <path id="Trazado_195149" data-name="Trazado 195149" d="M141.3,104.2s7.571,3.312,12.776-.71,4.5-16.8,4.5-16.8,5.914,2.366,6.151-6.151S162.6,69.659,162.6,69.659l-8.517,4.258Z" transform="translate(-141.303 -69.659)" fill="#ac6e5d"/>
                  </g>
                </g>
              </g>
              <path id="Trazado_195150" data-name="Trazado 195150" d="M165.83,70.3s-9.059-.657-14.624,2.8S148.82,56,154.518,55.479s10.468,3.8,11.263,7.945a16.567,16.567,0,0,1,.048,6.875" transform="translate(-23.255 -8.693)"/>
              <path id="Trazado_195151" data-name="Trazado 195151" d="M179.256,71.706c-1.143,6.657-9.248.073-9.017-.809s.91-11.283,4.895-10.458,5.042,5.91,4.122,11.268" transform="translate(-26.693 -9.47)"/>
              <path id="Trazado_195152" data-name="Trazado 195152" d="M112.426,88.282c-.87,8.362,3.378,13.7,11.542,16.735,9.877,3.669,16.139,1.829,13.639-6.045,0,0,8.8,4.091,13.2-3.883,2.978-5.391-.981-12.43-.981-12.43s7.943.353,8.339-8.1-8.9-7.518-9.292-7.386-5.861-4.954-.444-7.751c3.839-1.982,7.41,6.992,9.455,10.058a8.44,8.44,0,0,0,3.411-.055s3.71-6.337,2.263-11.53c-4.093-14.693-33.819-6.257-31.8,8.747,0,0-5.482-1.153-8.945,2.309-2.76,2.76-3.3,7.713,1.154,10.964,0,0-10.766.915-11.542,8.368" transform="translate(-17.611 -7.879)" fill="#482f2f"/>
              <path id="Trazado_195153" data-name="Trazado 195153" d="M170.314,63.568c.584-3.967,6.13-14.28,15.482-13.879,6.7.287,9.947,3.781,9.413,7.655a10.187,10.187,0,0,1,10.912-.933c6.407,3.316,5.69,10.718,5.69,10.718s9.17-.051,11.542,8.945c2.03,7.7.6,15.225-8.368,21.929-6.777,5.068-17.223,4.36-21.358-2.569-4.18-7.005,2.272-10.421,2.272-10.421s-8.925,4.434-14.983-.816c-6-5.2-3.455-11.075-3.455-11.075s.964-10.435-1.237-11.341c-.859-.352-2.926.548-4.169,3.686-.965,2.44-2.336,2.145-1.74-1.9" transform="translate(-26.683 -7.79)" fill="#482f2f"/>
              <path id="Trazado_195154" data-name="Trazado 195154" d="M171.406,147.092a15.988,15.988,0,0,0,5.257-.072c2.3-.548,1.865-1.975.769-2.084s-6.351.2-6.351.2Z" transform="translate(-26.826 -22.723)" fill="#615857"/>
              <path id="Trazado_195155" data-name="Trazado 195155" d="M168.822,290.031,131.49,275.977h68.858l19.422,12.855Z" transform="translate(-20.618 -43.274)" fill="#9d9895"/>
              <path id="Trazado_195156" data-name="Trazado 195156" d="M219.77,288.832l-50.948,1.2-37.333-14.054v2.57l36.323,16.2,101.219-.317.1-4.073Z" transform="translate(-20.618 -43.274)" fill="#9d9895"/>
              <path id="Trazado_195157" data-name="Trazado 195157" d="M275.968,279.278l-100.853-.228,34.147-73.744,100.854.228Z" transform="translate(-27.459 -32.193)" fill="#b9b5b3"/>
              <path id="Trazado_195158" data-name="Trazado 195158" d="M178.077,274.51c8.771-18.178,16.767-36.722,25.19-55.061,2.166-4.715,4.354-9.419,6.609-14.092l-.427.245h29.574a.5.5,0,0,0,0-.989H209.448a.487.487,0,0,0-.427.245c-8.772,18.177-16.767,36.721-25.19,55.061-2.165,4.714-4.353,9.419-6.608,14.092-.276.571.578,1.073.854.5" transform="translate(-27.781 -32.084)" fill="#7f787a"/>
              <path id="Trazado_195159" data-name="Trazado 195159" d="M271.016,247.239a14.631,14.631,0,1,1-14.631-14.631,14.631,14.631,0,0,1,14.631,14.631" transform="translate(-37.908 -36.474)" fill="#dad8d7"/>
              <path id="Trazado_195160" data-name="Trazado 195160" d="M251.082,242.908a3.37,3.37,0,0,0-.091,3.311,9.915,9.915,0,0,0,2.154,2.7,44.965,44.965,0,0,0,6.022,5.437c.725.483,3.06,1.288,4.429.242s2.577-2.014,1.288-3.624-1.611-1.772-2.738-1.208-1.611,1.047-2.094,1.047-4.671-4.027-4.832-4.51-.161-.805.564-1.288a1.717,1.717,0,0,0,.08-2.819c-1.207-.966-2.4-2.682-4.783.713" transform="translate(-39.295 -37.773)" fill="#b9b5b3"/>
              <path id="Trazado_195161" data-name="Trazado 195161" d="M168.822,290.031,131.49,275.977v2.57l36.322,16.2Z" transform="translate(-20.618 -43.274)" fill="#908a87"/>
              <path id="Trazado_195162" data-name="Trazado 195162" d="M325.364,189.955H302.978a3.676,3.676,0,0,1-3.676-3.676V174.087a3.676,3.676,0,0,1,3.676-3.676h22.387a3.676,3.676,0,0,1,3.676,3.676v12.193a3.676,3.676,0,0,1-3.676,3.676" transform="translate(-46.932 -26.721)" fill="#f3eeeb"/>
              <g id="Grupo_152835" data-name="Grupo 152835" transform="translate(255.788 147.415)" opacity="0.35">
                <g id="Grupo_152834" data-name="Grupo 152834">
                  <g id="Grupo_152833" data-name="Grupo 152833" clip-path="url(#clip-path-9)">
                    <path id="Trazado_195163" data-name="Trazado 195163" d="M326.611,175.048l-11.4,9.235s-8.715-6.89-11.856-9.454v2.02l11.934,9.505,11.29-9.1Z" transform="translate(-303.355 -174.829)" fill="#9d9895"/>
                  </g>
                </g>
              </g>
              <path id="Trazado_195164" data-name="Trazado 195164" d="M302.995,175.041c3.917,3.194,7.891,6.319,11.856,9.454a.417.417,0,0,0,.566,0l11.4-9.235c.4-.324-.169-.886-.565-.565l-11.4,9.234h.566c-3.965-3.134-7.94-6.26-11.856-9.454-.4-.322-.965.24-.566.566" transform="translate(-47.489 -27.343)" fill="#7f787a"/>
              <path id="Trazado_195165" data-name="Trazado 195165" d="M302.443,188.069c2.379-2.186,4.779-4.347,7.161-6.529.38-.348-.186-.913-.566-.566-2.382,2.182-4.783,4.343-7.161,6.529-.379.349.187.914.566.566" transform="translate(-47.316 -28.36)" fill="#7f787a"/>
              <path id="Trazado_195166" data-name="Trazado 195166" d="M330.542,188.2c-2.282-2.211-4.325-4.64-6.535-6.919-.359-.37-.924.2-.566.566,2.211,2.278,4.253,4.708,6.535,6.919.37.358.936-.207.566-.566" transform="translate(-50.699 -28.406)" fill="#7f787a"/>
              <path id="Trazado_195167" data-name="Trazado 195167" d="M335.024,171.739a3.711,3.711,0,1,1-3.712-3.712,3.712,3.712,0,0,1,3.712,3.712" transform="translate(-51.369 -26.347)" fill="#d05649"/>
              <line id="Línea_191" data-name="Línea 191" y1="2.482" transform="translate(279.943 143.163)" fill="none" stroke="#fff" stroke-linecap="round" stroke-linejoin="round" stroke-width="0.684"/>
              <line id="Línea_192" data-name="Línea 192" y2="0.255" transform="translate(279.906 146.955)" fill="none" stroke="#fff" stroke-linecap="round" stroke-linejoin="round" stroke-width="0.684"/>
              <path id="Trazado_195168" data-name="Trazado 195168" d="M87.2,263.327c-2.373-2.67-4.746-4.45-6.229-1.78s.89,13.941,8.6,12.458" transform="translate(-12.632 -40.805)" fill="none" stroke="#abdbe7" stroke-miterlimit="10" stroke-width="3"/>
              <path id="Trazado_195169" data-name="Trazado 195169" d="M95.627,282.532c-3.283.346-9.847,2.073-5.874,3.11s19.349,2.245,21.076.346,2.765-3.974-3.973-4.319a39.584,39.584,0,0,0-11.229.863" transform="translate(-13.879 -44.157)" fill="#e9e3dc"/>
              <path id="Trazado_195170" data-name="Trazado 195170" d="M95.21,280.164h10.925c.907,0,1.3-1.932,1.7-2.147,5.3-2.825,6.01-10.624,6.056-22.792a1.427,1.427,0,0,0-1.426-1.431H87.956a1.424,1.424,0,0,0-1.425,1.365c-.2,4.762-.3,20.49,7.068,23.223.258.1.39,1.081,1.611,1.781" transform="translate(-13.559 -39.796)" fill="#abdbe7"/>
              <g id="Grupo_152838" data-name="Grupo 152838" transform="translate(72.912 215.994)" opacity="0.43">
                <g id="Grupo_152837" data-name="Grupo 152837">
                  <g id="Grupo_152836" data-name="Grupo 152836" clip-path="url(#clip-path-10)">
                    <path id="Trazado_195171" data-name="Trazado 195171" d="M106.135,280.535H95.21c-1.221-.7-1.353-1.685-1.611-1.781-6.968-2.584-7.26-16.784-7.1-22.35a.251.251,0,0,1,.5-.038c.745,4.107,2.4,12.729,3.6,15,2.6,4.927,4.073,5.837,4.073,5.837l.635,1.343,10.894.431Z" transform="translate(-86.471 -256.161)" fill="#7893bc"/>
                  </g>
                </g>
              </g>
              <path id="Trazado_195172" data-name="Trazado 195172" d="M111.651,255H89.687a.565.565,0,0,0-.5.836A8.045,8.045,0,0,0,90.965,258c1.69,1.468,4.606,2.873,9.508,2.619a19.948,19.948,0,0,0,8.213-2,11.234,11.234,0,0,0,3.421-2.622.6.6,0,0,0-.455-1" transform="translate(-13.974 -39.985)" fill="#fff"/>
              <path id="Trazado_195173" data-name="Trazado 195173" d="M109.029,259.06a19.946,19.946,0,0,1-8.213,2c-4.9.253-7.818-1.152-9.508-2.62a55.379,55.379,0,0,1,7.817-.592c8.621-.169,9.9,1.211,9.9,1.211" transform="translate(-14.317 -40.43)" fill="#482f2f"/>
              <path id="Trazado_195174" data-name="Trazado 195174" d="M103.9,247.157c-1.561-.358-2.115-2.121-1.817-3.545.353-1.69,1.49-3.066,2.331-4.53,1.484-2.582,1.611-5.607-.61-7.827a.5.5,0,0,0-.7.7A4.863,4.863,0,0,1,104.4,236.7c-.485,1.747-1.741,3.145-2.552,4.737a5.756,5.756,0,0,0-.681,4.143,3.452,3.452,0,0,0,2.471,2.531c.62.143.885-.811.263-.954" transform="translate(-15.839 -36.239)" fill="#fff"/>
              <path id="Trazado_195175" data-name="Trazado 195175" d="M96.76,242.327c-.169-.873.464-1.741.79-2.51A12.079,12.079,0,0,0,98.3,237.4a8.407,8.407,0,0,0-.374-4.827c-.239-.58-1.2-.326-.954.263a7.756,7.756,0,0,1,.227,4.948,13.057,13.057,0,0,1-.892,2.37,3.826,3.826,0,0,0-.506,2.436c.121.624,1.074.36.954-.263" transform="translate(-15.015 -36.417)" fill="#fff"/>
              <path id="Trazado_195176" data-name="Trazado 195176" d="M108.519,245.277a3.637,3.637,0,0,1-.245-3.046.5.5,0,0,0-.954-.263,4.646,4.646,0,0,0,.346,3.809.495.495,0,1,0,.854-.5" transform="translate(-16.788 -37.884)" fill="#fff"/>
              <path id="Trazado_195177" data-name="Trazado 195177" d="M103.96,292.537l-.312-3.428,19.773,2.327,27.482,9.1-.311,2.6-24.1.416Z" transform="translate(-16.252 -45.333)" fill="#c39599"/>
              <path id="Trazado_195178" data-name="Trazado 195178" d="M103.209,288.867h22.168l25.8,11.688h-24.2Z" transform="translate(-16.184 -45.295)" fill="#ffc8ca"/>
              <line id="Línea_193" data-name="Línea 193" x2="16.185" transform="translate(108.282 252.149)" fill="none" stroke="#c39599" stroke-miterlimit="10" stroke-width="0.5"/>
              <line id="Línea_194" data-name="Línea 194" x2="16.185" transform="translate(104.753 250.202)" fill="none" stroke="#c39599" stroke-miterlimit="10" stroke-width="0.5"/>
              <line id="Línea_195" data-name="Línea 195" x2="16.185" transform="translate(99.764 248.011)" fill="none" stroke="#c39599" stroke-miterlimit="10" stroke-width="0.5"/>
              <line id="Línea_196" data-name="Línea 196" x2="16.185" transform="translate(95.991 245.943)" fill="none" stroke="#c39599" stroke-miterlimit="10" stroke-width="0.5"/>
              <path id="Trazado_195179" data-name="Trazado 195179" d="M143.716,290.544l18.132,9.249,2.184-.365L162.513,298l-16.729-8.306-2.852-.592Z" transform="translate(-22.412 -45.332)" fill="#9d9895"/>
              <path id="Trazado_195180" data-name="Trazado 195180" d="M74.556,70.02H53.865a3.4,3.4,0,0,1-3.4-3.4V55.355a3.4,3.4,0,0,1,3.4-3.4h20.69a3.4,3.4,0,0,1,3.4,3.4V66.623a3.4,3.4,0,0,1-3.4,3.4" transform="translate(-7.914 -8.147)" fill="#f3eeeb"/>
              <g id="Grupo_152841" data-name="Grupo 152841" transform="translate(45.713 43.936)" opacity="0.35">
                <g id="Grupo_152840" data-name="Grupo 152840">
                  <g id="Grupo_152839" data-name="Grupo 152839" clip-path="url(#clip-path-11)">
                    <path id="Trazado_195181" data-name="Trazado 195181" d="M73.568,52.294l-8.4,11.867s-5.005-9.306-8.394-12.041c-.336-.272-2.3,3.517-2.563,3.3v1.868l11.029,8.785,10.434-8.41-.022-1.719Z" transform="translate(-54.214 -52.106)" fill="#9d9895"/>
                  </g>
                </g>
              </g>
              <path id="Trazado_195182" data-name="Trazado 195182" d="M56.981,41.853l16.931.264.447,13.321-8.784,7.116-8.789-6.988Z" transform="translate(-8.904 -6.563)" fill="#f3eeeb"/>
              <path id="Trazado_195183" data-name="Trazado 195183" d="M53.881,56.237c3.621,2.952,7.294,5.84,10.958,8.737a.384.384,0,0,0,.522,0L75.9,56.44c.37-.3-.156-.819-.522-.522L64.839,64.452h.522c-3.664-2.9-7.337-5.785-10.957-8.737-.366-.3-.892.222-.523.523" transform="translate(-8.429 -8.722)" fill="#7f787a"/>
              <path id="Trazado_195184" data-name="Trazado 195184" d="M53.372,68.277c2.2-2.02,4.417-4.018,6.618-6.034.352-.322-.172-.844-.523-.523-2.2,2.017-4.42,4.014-6.618,6.034-.351.323.173.844.523.523" transform="translate(-8.269 -9.662)" fill="#7f787a"/>
              <path id="Trazado_195185" data-name="Trazado 195185" d="M79.341,68.394c-2.109-2.044-4-4.288-6.04-6.395-.331-.342-.853.181-.522.523,2.042,2.106,3.93,4.351,6.039,6.395.341.331.865-.191.523-.523" transform="translate(-11.395 -9.704)" fill="#7f787a"/>
              <path id="Trazado_195186" data-name="Trazado 195186" d="M60.542,45.894H70.693a.37.37,0,0,0,0-.74H60.542a.37.37,0,0,0,0,.74" transform="translate(-9.437 -7.08)" fill="#7f787a"/>
              <path id="Trazado_195187" data-name="Trazado 195187" d="M60.164,58.437H70.316a.37.37,0,0,0,0-.74H60.164a.37.37,0,0,0,0,.74" transform="translate(-9.378 -9.047)" fill="#7f787a"/>
              <path id="Trazado_195188" data-name="Trazado 195188" d="M61.186,49.052h1.331a.37.37,0,1,0,0-.74H61.186a.37.37,0,0,0,0,.74" transform="translate(-9.536 -7.576)" fill="#7f787a"/>
              <path id="Trazado_195189" data-name="Trazado 195189" d="M65.53,48.657h6.49a.37.37,0,0,0,0-.74H65.53a.37.37,0,0,0,0,.74" transform="translate(-10.219 -7.514)" fill="#7f787a"/>
              <path id="Trazado_195190" data-name="Trazado 195190" d="M60.2,51.815H70.519a.37.37,0,0,0,0-.74H60.2a.37.37,0,0,0,0,.74" transform="translate(-9.384 -8.009)" fill="#7f787a"/>
              <path id="Trazado_195191" data-name="Trazado 195191" d="M60.991,54.973h3.994a.37.37,0,0,0,0-.74H60.991a.37.37,0,0,0,0,.74" transform="translate(-9.508 -8.504)" fill="#7f787a"/>
              <path id="Trazado_195192" data-name="Trazado 195192" d="M68.883,55.367h1.831a.37.37,0,0,0,0-.74H68.883a.37.37,0,0,0,0,.74" transform="translate(-10.743 -8.566)" fill="#7f787a"/>
              <path id="Trazado_195193" data-name="Trazado 195193" d="M80.893,57.966a3.505,3.505,0,1,1-3.505-3.505,3.5,3.5,0,0,1,3.505,3.505" transform="translate(-11.585 -8.54)" fill="#06a6e2"/>
              <path id="Trazado_195194" data-name="Trazado 195194" d="M76.17,58.95l.928.928,2.3-3.39" transform="translate(-11.944 -8.857)" fill="none" stroke="#fff" stroke-linecap="round" stroke-linejoin="round" stroke-width="0.829"/>
              <path id="Trazado_195195" data-name="Trazado 195195" d="M49.7,40.744H30.274A3.742,3.742,0,0,1,26.533,37V30.577a3.742,3.742,0,0,1,3.741-3.742H49.7a3.741,3.741,0,0,1,3.741,3.742V37A3.741,3.741,0,0,1,49.7,40.744" transform="translate(-4.16 -4.208)" fill="#06a6e2"/>
              <path id="Trazado_195196" data-name="Trazado 195196" d="M46.23,42.577h4.92v4.4Z" transform="translate(-7.249 -6.676)" fill="#06a6e2"/>
            </g>
          </g>
          <text id="_24_7" data-name="24/7" transform="translate(27.232 31.85)" fill="#fff" font-size="7" font-family="Poppins-SemiBold, Poppins" font-weight="600"><tspan x="0" y="0">24/7</tspan></text>
          <g id="Grupo_152845" data-name="Grupo 152845">
            <g id="Grupo_152844" data-name="Grupo 152844" clip-path="url(#clip-path-12)">
              <path id="Trazado_195197" data-name="Trazado 195197" d="M228.7,18.9h-8.827a5.038,5.038,0,0,1-5.037-5.037V5.038A5.038,5.038,0,0,1,219.872,0H228.7a5.037,5.037,0,0,1,5.037,5.038v8.827A5.037,5.037,0,0,1,228.7,18.9" transform="translate(-33.687)" fill="#f8f5f3"/>
              <path id="Trazado_195198" data-name="Trazado 195198" d="M222.719,21.892h6.117l-2.9,4.936Z" transform="translate(-34.923 -3.433)" fill="#f8f5f3"/>
              <circle id="Elipse_5674" data-name="Elipse 5674" cx="3.198" cy="3.198" r="3.198" transform="translate(185.73 10.529) rotate(-79.099)" fill="none" stroke="#c5c2c0" stroke-miterlimit="10" stroke-width="1.275"/>
              <path id="Trazado_195199" data-name="Trazado 195199" d="M227.405,12.946l2.653,2.653Z" transform="translate(-35.658 -2.03)" fill="none" stroke="#c5c2c0" stroke-linecap="round" stroke-linejoin="round" stroke-width="1.275"/>
              <path id="Trazado_195200" data-name="Trazado 195200" d="M281.456,120.069a14.546,14.546,0,1,1,4.365-20.1,14.546,14.546,0,0,1-4.365,20.1" transform="translate(-40.618 -14.628)" fill="#f8f5f3"/>
              <path id="Trazado_195201" data-name="Trazado 195201" d="M261.8,102.474l-6.246-.45,4.3,5.919Z" transform="translate(-40.072 -15.998)" fill="#f8f5f3"/>
            </g>
          </g>
          <g id="Grupo_152850" data-name="Grupo 152850" transform="translate(218.419 78.658)">
            <g id="Grupo_152849" data-name="Grupo 152849" clip-path="url(#clip-path-13)">
              <g id="Grupo_152848" data-name="Grupo 152848" transform="translate(-4.847 2.872)" opacity="0.5">
                <g id="Grupo_152847" data-name="Grupo 152847">
                  <g id="Grupo_152846" data-name="Grupo 152846" clip-path="url(#clip-path-14)">
                    <path id="Trazado_195202" data-name="Trazado 195202" d="M257.851,139.05a11.866,11.866,0,0,0-1.976-.611,17.471,17.471,0,0,1-2.572-.983,1.238,1.238,0,0,1,.016-.5c.057-.4,1.039-8.836,4.117-14.256,1.862-3.278,2.888-5.438,4.02-6.317,2.391-1.858,8.59-2.777,11.145-2.719a16.353,16.353,0,0,1,10.481,4.191c3.719,3.841,5.632,18.577,6.172,21.056a3.84,3.84,0,0,1-3.947,2.666s-2.829-4.035-3.317-5.118c-.722-1.6-1.292-3.9-2.217-6.085,0,0-.324,4.931-.818,9.5a19.609,19.609,0,0,1-1.138,5.455c-.074.19-14.824-.7-16.227-1.67-.829-.573-.12-5.085-.039-6.945.168-3.851.473-8.608.447-9.2Z" transform="translate(-253.289 -99.352)" fill="#b8b9c3"/>
                    <path id="Trazado_195203" data-name="Trazado 195203" d="M271.527,102.443s-.914.946-.225,3.739l1.015-3.673Z" transform="translate(-256.073 -97.593)" fill="#918f9f"/>
                    <path id="Trazado_195204" data-name="Trazado 195204" d="M272.7,110.442s-1.853-.348-1.567-3.97,1.145-5.557,2.46-6.545a4.624,4.624,0,0,1,7.177,1.605c.942,1.886-.711,5.886-.994,6.695-.195.558-.949,1.476-1.1,2.033a2.917,2.917,0,0,0,.058,1.988s-7.167,3.425-6.644-.29c.009-.072.6-1.517.6-1.517" transform="translate(-256.082 -97.025)" fill="#e3dce1"/>
                    <path id="Trazado_195205" data-name="Trazado 195205" d="M264,115.978a32.494,32.494,0,0,0-.325,11.04c.012.1.175.1.162,0a32.351,32.351,0,0,1,.319-11c.023-.1-.133-.145-.156-.043" transform="translate(-254.868 -99.706)" fill="#4a4f5f"/>
                    <path id="Trazado_195206" data-name="Trazado 195206" d="M281.072,100.914a2.178,2.178,0,0,1,1.433-.1.09.09,0,0,0,.048-.174,2.376,2.376,0,0,0-1.572.115c-.106.046-.014.2.091.156" transform="translate(-257.624 -97.298)"/>
                    <path id="Trazado_195207" data-name="Trazado 195207" d="M281.685,99.353c-.032.223-.063.446-.1.669a.093.093,0,0,0,.063.11.091.091,0,0,0,.111-.063c.031-.223.063-.446.094-.669a.094.094,0,0,0-.063-.111.091.091,0,0,0-.11.063" transform="translate(-257.726 -97.098)"/>
                    <path id="Trazado_195208" data-name="Trazado 195208" d="M284.293,127.677c-.007.128-.013.256-.019.384l.159.021a18.622,18.622,0,0,1,2.37-10.456.081.081,0,0,0-.139-.082,18.77,18.77,0,0,0-2.393,10.537.081.081,0,0,0,.159.022,1.081,1.081,0,0,0,.019-.471c-.016-.1-.172-.059-.156.043" transform="translate(-258.14 -99.955)" fill="#4a4f5f"/>
                    <path id="Trazado_195209" data-name="Trazado 195209" d="M271.7,114.21a1.25,1.25,0,0,0-.141,1.335,1.815,1.815,0,0,0,1.118.894c.1.031.142-.125.043-.156a1.678,1.678,0,0,1-.993-.764,1.089,1.089,0,0,1,.088-1.194c.067-.079-.047-.195-.115-.115" transform="translate(-256.134 -99.434)" fill="#4a4f5f"/>
                    <path id="Trazado_195210" data-name="Trazado 195210" d="M274.044,116.987a3.587,3.587,0,0,0,.84-.008.081.081,0,1,0,0-.162,3.588,3.588,0,0,1-.84.008.081.081,0,0,0-.081.081.083.083,0,0,0,.081.081" transform="translate(-256.531 -99.847)" fill="#4a4f5f"/>
                    <path id="Trazado_195211" data-name="Trazado 195211" d="M276.378,116.332a6.424,6.424,0,0,0,4.561-2.293c.061-.085-.08-.166-.139-.082a6.294,6.294,0,0,1-4.465,2.218c-.1.014-.059.17.043.156" transform="translate(-256.894 -99.393)" fill="#4a4f5f"/>
                    <path id="Trazado_195212" data-name="Trazado 195212" d="M272.386,102.6a3.062,3.062,0,0,1-3.042-2.51c-.236-.727-.23-3.017.844-3.386.626-.214,1.257,1.9,1.257,1.9a1.236,1.236,0,0,1,.72-1.472c.593-.235,1.435.594,1.385,1.41a3,3,0,0,1,.741-1.372c.46-.306,1.724.121,1.616,1.613,0,0,.8-1.071,3.505,1.112s.6,8.182-.338,9.217a4.859,4.859,0,0,1-.453-2.066,1.525,1.525,0,0,0,1.178-1.589c.107-1.619-1.024-.981-1.185-.549l-.5.1-.089-.925a2.409,2.409,0,0,1-1.664-1.435,23.18,23.18,0,0,1-3.975-.05" transform="translate(-255.787 -96.691)" fill="#918f9f"/>
                  </g>
                </g>
              </g>
            </g>
          </g>
          <g id="Grupo_152852" data-name="Grupo 152852">
            <g id="Grupo_152851" data-name="Grupo 152851" clip-path="url(#clip-path-12)">
              <path id="Trazado_195214" data-name="Trazado 195214" d="M74.045,188.845a21.694,21.694,0,1,0-6.51-29.982,21.694,21.694,0,0,0,6.51,29.982" transform="translate(-10.049 -23.348)" fill="#f8f5f3"/>
              <path id="Trazado_195215" data-name="Trazado 195215" d="M109.7,162.6l9.316-.671L112.6,170.76Z" transform="translate(-17.201 -25.392)" fill="#f8f5f3"/>
            </g>
          </g>
          <g id="Grupo_152854" data-name="Grupo 152854" transform="translate(54.033 125.551)">
            <g id="Grupo_152853" data-name="Grupo 152853" clip-path="url(#clip-path-16)">
              <path id="Trazado_195216" data-name="Trazado 195216" d="M107.346,217.154a17.659,17.659,0,0,1,2.947-.912,25.922,25.922,0,0,0,3.835-1.466,1.826,1.826,0,0,0-.024-.747c-.085-.6-1.548-13.179-6.139-21.263-2.777-4.889-4.308-8.11-6-9.421-3.566-2.771-12.811-4.143-16.621-4.056-6.232.142-12.591,3.11-15.631,6.251-5.547,5.728-8.4,27.707-9.206,31.4,0,0,.971,3.957,5.888,3.977,0,0,4.218-6.018,4.947-7.634,1.075-2.385,1.926-5.809,3.305-9.076,0,0,.483,7.355,1.22,14.164a29.23,29.23,0,0,0,1.7,8.137c.11.283,22.109-1.046,24.2-2.491,1.236-.854.179-7.584.058-10.359-.25-5.744-.706-12.838-.667-13.718Z" transform="translate(-63.521 -153.664)" fill="#3b75c3"/>
              <path id="Trazado_195217" data-name="Trazado 195217" d="M96.57,162.558s1.363,1.411.336,5.576l-1.514-5.478Z" transform="translate(-68.991 -151.041)" fill="#482f2f"/>
              <path id="Trazado_195218" data-name="Trazado 195218" d="M92.415,174.488s2.761-.519,2.336-5.921-1.709-8.287-3.671-9.762c-4.848-3.643-9.247-.522-10.7,2.395-1.4,2.814,1.058,8.779,1.481,9.986.293.832,1.416,2.2,1.634,3.031a4.365,4.365,0,0,1-.086,2.966s10.688,5.108,9.909-.433c-.015-.107-.9-2.263-.9-2.263" transform="translate(-66.569 -150.194)" fill="#c88a73"/>
              <path id="Trazado_195219" data-name="Trazado 195219" d="M107.69,182.808a48.285,48.285,0,0,1,.476,16.4c-.019.153.223.152.241,0a48.466,48.466,0,0,0-.485-16.465c-.033-.152-.266-.088-.233.064" transform="translate(-70.919 -154.192)" fill="#4a4f5f"/>
              <path id="Trazado_195220" data-name="Trazado 195220" d="M82.357,160.046a3.533,3.533,0,0,0-2.343-.171.134.134,0,0,0,.072.259,3.24,3.24,0,0,1,2.136.144c.157.068.294-.164.136-.232" transform="translate(-66.565 -150.601)"/>
              <path id="Trazado_195221" data-name="Trazado 195221" d="M81.439,158.02l.142,1a.135.135,0,0,0,.165.094.138.138,0,0,0,.094-.165l-.142-1a.135.135,0,0,0-.165-.094.138.138,0,0,0-.094.165" transform="translate(-66.803 -150.303)"/>
              <path id="Trazado_195222" data-name="Trazado 195222" d="M76.934,200.129a1.615,1.615,0,0,0,.029.7.122.122,0,0,0,.238-.032,28.011,28.011,0,0,0-3.569-15.716.121.121,0,0,0-.208.122A27.778,27.778,0,0,1,76.958,200.8l.237-.032c-.009-.191-.019-.382-.029-.573.024-.152-.209-.218-.233-.064" transform="translate(-65.543 -154.563)" fill="#4a4f5f"/>
              <path id="Trazado_195223" data-name="Trazado 195223" d="M96.117,180.279a1.623,1.623,0,0,1,.13,1.781,2.5,2.5,0,0,1-1.481,1.139c-.148.047-.084.28.064.233A2.705,2.705,0,0,0,96.5,182.1a1.862,1.862,0,0,0-.21-1.99c-.1-.119-.27.052-.17.17" transform="translate(-68.88 -153.786)" fill="#4a4f5f"/>
              <path id="Trazado_195224" data-name="Trazado 195224" d="M92.892,184.008A5.407,5.407,0,0,1,91.64,184a.121.121,0,0,0-.121.121.123.123,0,0,0,.121.121,5.362,5.362,0,0,0,1.252.011.124.124,0,0,0,.121-.121.122.122,0,0,0-.121-.121" transform="translate(-68.384 -154.402)" fill="#4a4f5f"/>
              <path id="Trazado_195225" data-name="Trazado 195225" d="M88.456,183.039c-2.5-.354-5.135-1.151-6.659-3.309-.089-.126-.3-.005-.208.122,1.563,2.213,4.236,3.055,6.8,3.419.152.022.218-.211.064-.233" transform="translate(-66.823 -153.725)" fill="#4a4f5f"/>
              <path id="Trazado_195226" data-name="Trazado 195226" d="M92.447,162.8c2.67-.349,3.714-1.21,4.537-3.744.352-1.084.343-4.5-1.259-5.05-.934-.32-1.874,2.831-1.874,2.831a1.844,1.844,0,0,0-1.074-2.2c-.885-.351-2.14.886-2.067,2.1a4.477,4.477,0,0,0-1.1-2.046c-.687-.457-2.573.181-2.412,2.4,0,0-1.2-1.6-5.228,1.66s-.893,12.2.5,13.745a7.25,7.25,0,0,0,.676-3.081,2.274,2.274,0,0,1-1.757-2.369c-.16-2.415,1.526-1.464,1.766-.82l.75.157.132-1.38a3.59,3.59,0,0,0,2.481-2.14,34.6,34.6,0,0,0,5.929-.074" transform="translate(-66.575 -149.696)" fill="#482f2f"/>
            </g>
          </g>
          <g id="Grupo_152856" data-name="Grupo 152856">
            <g id="Grupo_152855" data-name="Grupo 152855" clip-path="url(#clip-path-12)">
              <path id="Trazado_195228" data-name="Trazado 195228" d="M304.448,91.324H286.926l-4.686,3.182V81.76a4.216,4.216,0,0,1,4.216-4.216h17.992a4.216,4.216,0,0,1,4.216,4.216v5.348a4.216,4.216,0,0,1-4.216,4.216" transform="translate(-44.256 -12.159)" fill="#abdbe7"/>
              <path id="Trazado_195229" data-name="Trazado 195229" d="M292.93,86.1a1.581,1.581,0,1,1-1.581-1.581A1.581,1.581,0,0,1,292.93,86.1" transform="translate(-45.437 -13.252)" fill="#fff"/>
              <path id="Trazado_195230" data-name="Trazado 195230" d="M299.668,86.1a1.581,1.581,0,1,1-1.581-1.581,1.581,1.581,0,0,1,1.581,1.581" transform="translate(-46.493 -13.252)" fill="#fff"/>
              <path id="Trazado_195231" data-name="Trazado 195231" d="M306.383,86.1a1.581,1.581,0,1,1-1.581-1.581,1.581,1.581,0,0,1,1.581,1.581" transform="translate(-47.546 -13.252)" fill="#fff"/>
              <path id="Trazado_195232" data-name="Trazado 195232" d="M317.324,76.049h-8.548l-4.391,2.983V68.8a3.952,3.952,0,0,1,3.952-3.951h8.988a3.951,3.951,0,0,1,3.951,3.951v3.3a3.951,3.951,0,0,1-3.951,3.951" transform="translate(-47.729 -10.168)" fill="#06a6e2"/>
              <path id="Trazado_195233" data-name="Trazado 195233" d="M309.293,71.641l1.3,1.3,3.218-4.75" transform="translate(-48.498 -10.693)" fill="none" stroke="#fff" stroke-linecap="round" stroke-linejoin="round" stroke-width="1.161"/>
              <path id="Trazado_195234" data-name="Trazado 195234" d="M314.471,71.641l1.3,1.3,3.218-4.75" transform="translate(-49.31 -10.693)" fill="none" stroke="#fff" stroke-linecap="round" stroke-linejoin="round" stroke-width="1.161"/>
              <path id="Trazado_195235" data-name="Trazado 195235" d="M57.533,222.252H56.226a7.027,7.027,0,1,1,0-14.054h1.307a7.027,7.027,0,0,1,0,14.054" transform="translate(-7.715 -32.646)" fill="#888c99"/>
              <path id="Trazado_195236" data-name="Trazado 195236" d="M56.085,213.867a1.821,1.821,0,0,1,3.642,0" transform="translate(-8.794 -33.25)" fill="none" stroke="#fff" stroke-miterlimit="10" stroke-width="0.807"/>
              <path id="Trazado_195237" data-name="Trazado 195237" d="M55.172,214.283H59.9a.845.845,0,0,1,.831.689l.592,3.146a.845.845,0,0,1-.831,1H54.58a.846.846,0,0,1-.831-1l.593-3.146A.845.845,0,0,1,55.172,214.283Z" transform="translate(-8.426 -33.6)" fill="none" stroke="#fff" stroke-miterlimit="10" stroke-width="0.807"/>
              <path id="Trazado_195238" data-name="Trazado 195238" d="M336.407,139.2h-1.089a5.852,5.852,0,0,1,0-11.7h1.089a5.852,5.852,0,0,1,0,11.7" transform="translate(-51.662 -19.992)" fill="#888c99"/>
              <path id="Trazado_195239" data-name="Trazado 195239" d="M337.433,133.945l1.74-1.511-5.107-1.216.411,5.053,1.772-1.266,1.772,1.9,1.139-1.012Z" transform="translate(-52.383 -20.575)" fill="none" stroke="#fff" stroke-linecap="round" stroke-linejoin="round" stroke-width="0.562"/>
            </g>
          </g>
        </g>
      </g>
      <circle id="Elipse_5677" data-name="Elipse 5677" cx="5" cy="5" r="5" transform="translate(668 2125)" fill="#7f4fc7"/>
      <circle id="Elipse_5678" data-name="Elipse 5678" cx="5" cy="5" r="5" transform="translate(614 1996)" fill="#7f4fc7"/>
      <circle id="Elipse_5679" data-name="Elipse 5679" cx="5" cy="5" r="5" transform="translate(624 1904)" fill="#7f4fc7"/>
      <circle id="Elipse_5680" data-name="Elipse 5680" cx="5" cy="5" r="5" transform="translate(797 1784)" fill="#7f4fc7"/>
      <circle id="Elipse_5681" data-name="Elipse 5681" cx="5" cy="5" r="5" transform="translate(923 1823)" fill="#7f4fc7"/>
      <circle id="Elipse_5682" data-name="Elipse 5682" cx="5" cy="5" r="5" transform="translate(996 1958)" fill="#7f4fc7"/>
      <circle id="Elipse_5683" data-name="Elipse 5683" cx="5" cy="5" r="5" transform="translate(971 2078)" fill="#7f4fc7"/>
      <circle id="Elipse_5684" data-name="Elipse 5684" cx="5" cy="5" r="5" transform="translate(809 2178)" fill="#7f4fc7"/>
    </g>
    <circle id="Elipse_5665" data-name="Elipse 5665" cx="13" cy="13" r="13" transform="translate(465 1995)" fill="#e7f65a"/>
  </g>
</svg>
