<svg id="Grupo_152896" data-name="Grupo 152896" xmlns="http://www.w3.org/2000/svg" xmlns:xlink="http://www.w3.org/1999/xlink" width="400" height="304.724" viewBox="0 0 400 304.724">
  <defs>
    <clipPath id="clip-path">
      <rect id="Rectángulo_45565" data-name="Rectángulo 45565" width="400" height="304.724" fill="none"/>
    </clipPath>
  </defs>
  <g id="Grupo_152895" data-name="Grupo 152895" clip-path="url(#clip-path)">
    <path id="Trazado_195384" data-name="Trazado 195384" d="M491.416,535.181l-7.466-5.91,1.485-.393a7.291,7.291,0,0,0,1.637-.979,16.738,16.738,0,0,0,6.99-14c-.575-21.159,2.663-37.089,9.627-47.347a29.038,29.038,0,0,1,17.988-12.587c9.672-2.289,22.154-7.6,25.5-15.048,5.839-12.988,12.584-19.853,19.507-19.853a10.9,10.9,0,0,1,1.887.166,12.228,12.228,0,0,1,10.364,10.114c2.31,11.1-5.477,26.918-17.006,34.546a34.321,34.321,0,0,0-15.744,27.3c-.42,13.869-14.133,26.277-25.749,32.689a116.025,116.025,0,0,1-28.668,11.224Zm-4.365-5.417,4.749,3.759a115.963,115.963,0,0,0,27.893-10.987c11.261-6.217,24.554-18.168,24.955-31.39a35.858,35.858,0,0,1,16.431-28.535c11.058-7.316,18.546-22.406,16.35-32.95a10.676,10.676,0,0,0-9.125-8.913,9.377,9.377,0,0,0-1.621-.143c-7.924,0-14.219,10.3-18.1,18.946-3.572,7.945-16.056,13.43-26.548,15.913a27.563,27.563,0,0,0-17.07,11.954c-6.778,9.986-9.928,25.611-9.362,46.442a18.272,18.272,0,0,1-7.626,15.283c-.353.256-.66.458-.923.62" transform="translate(-286.041 -247.693)"/>
    <path id="Trazado_195385" data-name="Trazado 195385" d="M466.1,546.612a16.171,16.171,0,0,1-5.191-.84l.492-1.457c7.058,2.38,14.714-1.4,19.126-5.356,8.013-7.189,11.37-17.075,14.924-27.542,2.479-7.3,5.041-14.849,9.334-21.368,5.96-9.05,11.518-14.684,21.239-21.532,1.669-1.176,3.414-2.25,5.262-3.386,8.1-4.985,16.477-10.139,19.7-24.436l1.5.338c-3.368,14.929-12.415,20.5-20.4,25.408-1.827,1.124-3.552,2.186-5.183,3.335-9.666,6.808-14.924,12.137-20.84,21.12-4.184,6.355-6.715,13.808-9.162,21.017-3.461,10.194-7.04,20.735-15.352,28.193-3.834,3.44-9.516,6.508-15.453,6.508" transform="translate(-272.423 -260.475)"/>
    <path id="Trazado_195386" data-name="Trazado 195386" d="M275.1,476.913c-17.177,0-39.351-23.415-49.283-45.284-7.119-15.676-7.378-28.5-.728-36.109a2.855,2.855,0,0,1,2.118-1.148c2.851,0,4.819,5.449,8.336,15.89,1.281,3.8,2.732,8.109,4.382,12.393.567,1.47,1.172,3.09,1.821,4.823,6.314,16.89,16.884,45.158,33.986,47.9l-.1,1.528q-.266.007-.533.008m-47.893-81a1.552,1.552,0,0,0-.96.622c-6.139,7.025-5.785,19.586.97,34.461a102.384,102.384,0,0,0,21.767,30.515c6.637,6.331,13.224,10.649,19.156,12.63-13.656-8.2-22.33-31.4-27.834-46.122-.646-1.728-1.25-3.344-1.814-4.809-1.662-4.314-3.119-8.639-4.4-12.455-2.458-7.3-5-14.843-6.879-14.843" transform="translate(-130.198 -233.096)"/>
    <path id="Trazado_195387" data-name="Trazado 195387" d="M136.632,524.483l-.369-.082a123.377,123.377,0,0,1-31.524-13.038c-12.753-7.438-27.81-21.82-28.27-37.876A40.528,40.528,0,0,0,59.1,441.653,46.622,46.622,0,0,1,43.835,422.6c-3.4-7.582-4.612-15.351-3.321-21.313,1.358-6.271,5.25-10.175,11.257-11.291a11.334,11.334,0,0,1,2.069-.193c7.592,0,14.99,7.957,21.4,23.012,3.7,8.688,17.452,14.882,28.109,17.545,8.312,2.078,14.77,6.851,19.743,14.59,7.643,11.9,11.2,30.377,10.567,54.933a19.972,19.972,0,0,0,7.738,16.381,7.716,7.716,0,0,0,1.837,1.154l1.316.432-1.047.893ZM53.84,391.338a9.832,9.832,0,0,0-1.789.166c-6.757,1.255-9.187,6.188-10.034,10.1-2.627,12.136,5.766,30.26,17.962,38.784a42.069,42.069,0,0,1,18.026,33.051c.442,15.425,15.1,29.352,27.508,36.591a123.293,123.293,0,0,0,30.717,12.778l5.4-4.513c-.319-.2-.707-.466-1.168-.818a21.515,21.515,0,0,1-8.342-17.643c.623-24.242-2.85-42.431-10.323-54.062-4.752-7.395-10.909-11.951-18.823-13.929-11.526-2.881-25.236-9.238-29.15-18.435-4.286-10.072-11.231-22.076-19.981-22.076" transform="translate(-23.648 -230.393)"/>
    <path id="Trazado_195388" data-name="Trazado 195388" d="M170.526,537.643c-6.518,0-12.754-3.558-16.963-7.546-9.122-8.646-13.053-20.879-16.855-32.708-2.7-8.386-5.483-17.057-10.1-24.458-6.515-10.451-12.306-16.652-22.952-24.572-1.8-1.336-3.695-2.571-5.706-3.878-8.763-5.7-18.7-12.153-22.389-29.446l1.5-.321c3.561,16.671,12.794,22.674,21.724,28.478,2.032,1.321,3.951,2.568,5.786,3.933,10.685,7.95,16.792,14.49,23.339,24.993,4.713,7.561,7.53,16.325,10.254,24.8,3.915,12.181,7.613,23.687,16.45,32.062,4.864,4.611,13.305,9.011,21.089,6.24l.515,1.448a16.894,16.894,0,0,1-5.7.974" transform="translate(-44.663 -245.118)"/>
    <path id="Trazado_195389" data-name="Trazado 195389" d="M95.548,645.688a120.72,120.72,0,0,1-55.364-13.933C11.034,616.649,2.54,604,.548,596.043a14.778,14.778,0,0,1,1.829-12.25c1.981-2.883,6.1-4.6,11.026-4.6,5.259,0,16.2,2.04,30.376,15.705,3.379,3.256,6.777,6.659,10.064,9.95,17.114,17.134,33.279,33.317,50.71,34.5l.193.038c5.636,1.894,9.207,2.292,11.211,2.292a7.646,7.646,0,0,0,1.951-.183l.089.3-.087-.3.06.19-.054-.191.468,1.464-.115-.32.1.324-.216-.637.193.644c-.365.111-9.1,2.72-22.8,2.72M13.4,580.728c-4.417,0-8.065,1.472-9.759,3.937a13.258,13.258,0,0,0-1.6,11c1.915,7.647,10.21,19.878,38.852,34.719A119.166,119.166,0,0,0,95.548,644.15a97.374,97.374,0,0,0,16.313-1.323,50.419,50.419,0,0,1-7.51-1.953c-17.968-1.277-34.3-17.631-51.594-34.943-3.282-3.286-6.676-6.683-10.044-9.929C28.922,582.712,18.43,580.728,13.4,580.728m104.506,60.767.217.737Z" transform="translate(0 -342.333)" fill="#12263f"/>
    <path id="Trazado_195390" data-name="Trazado 195390" d="M701.3,332.612H667.463a9.562,9.562,0,0,1-9.551-9.552v-4.675a9.562,9.562,0,0,1,9.551-9.551H701.3a9.563,9.563,0,0,1,9.552,9.551v4.675a9.563,9.563,0,0,1-9.552,9.552" transform="translate(-388.863 -182.538)" fill="#e0d5f1"/>
    <path id="Trazado_195448" data-name="Trazado 195448" d="M686.926,324.734H664.3a6.394,6.394,0,0,1-6.387-6.387v-3.126a6.394,6.394,0,0,1,6.387-6.387h22.627a6.394,6.394,0,0,1,6.387,6.387v3.126a6.4,6.4,0,0,1-6.387,6.387" transform="translate(-346.185 -143.956)" fill="#e0d5f1"/>
    <path id="Trazado_195392" data-name="Trazado 195392" d="M546.472,81.7h-83.9V58.377A10.389,10.389,0,0,1,472.948,48h73.525a10.389,10.389,0,0,1,10.377,10.377v12.95A10.389,10.389,0,0,1,546.472,81.7m-82.363-1.538h82.363a8.849,8.849,0,0,0,8.839-8.839V58.377a8.849,8.849,0,0,0-8.839-8.839H472.948a8.849,8.849,0,0,0-8.839,8.839Z" transform="translate(-273.405 -28.371)" fill="#7f4fc7"/>
    <rect id="Rectángulo_45544" data-name="Rectángulo 45544" width="69.718" height="1.538" transform="translate(202.606 30.143)" fill="#7f4fc7"/>
    <rect id="Rectángulo_45545" data-name="Rectángulo 45545" width="69.718" height="1.538" transform="translate(202.606 35.713)" fill="#7f4fc7"/>
    <rect id="Rectángulo_45546" data-name="Rectángulo 45546" width="42.471" height="1.538" transform="translate(202.606 42.118)" fill="#7f4fc7"/>
    <path id="Trazado_195393" data-name="Trazado 195393" d="M802.472,33.7h-83.9V10.377A10.389,10.389,0,0,1,728.948,0h73.525a10.389,10.389,0,0,1,10.377,10.377v12.95A10.389,10.389,0,0,1,802.472,33.7" transform="translate(-424.715)" fill="#ede7f7"/>
    <rect id="Rectángulo_45547" data-name="Rectángulo 45547" width="69.718" height="1.538" transform="translate(307.296 10.514)" fill="#7f4fc7"/>
    <rect id="Rectángulo_45548" data-name="Rectángulo 45548" width="69.718" height="1.538" transform="translate(307.296 16.083)" fill="#7f4fc7"/>
    <rect id="Rectángulo_45549" data-name="Rectángulo 45549" width="42.471" height="1.538" transform="translate(307.296 22.489)" fill="#7f4fc7"/>
    <path id="Trazado_195394" data-name="Trazado 195394" d="M651.107,216.589H573.825a17.015,17.015,0,0,1-17-17V179.757a17.015,17.015,0,0,1,17-17h60.287c.178,0,.355,0,.823.021C653.706,163.228,651.107,171.263,651.107,216.589Z" transform="translate(-329.117 -96.201)" fill="#e0d5f1"/>
    <rect id="Rectángulo_45550" data-name="Rectángulo 45550" width="69.719" height="1.538" transform="translate(239.992 78.227)" fill="#7f4fc7"/>
    <rect id="Rectángulo_45551" data-name="Rectángulo 45551" width="69.719" height="1.538" transform="translate(239.992 83.797)" fill="#7f4fc7"/>
    <rect id="Rectángulo_45552" data-name="Rectángulo 45552" width="24.72" height="1.538" transform="translate(239.992 96.07)" fill="#7f4fc7"/>
    <rect id="Rectángulo_45553" data-name="Rectángulo 45553" width="69.719" height="1.538" transform="translate(239.992 101.64)" fill="#7f4fc7"/>
    <rect id="Rectángulo_45554" data-name="Rectángulo 45554" width="69.719" height="1.538" transform="translate(239.992 107.799)" fill="#7f4fc7"/>
    <path id="Trazado_195395" data-name="Trazado 195395" d="M305.938,268.862s-26.683,3.864-40.73,19.719c-21.1,23.812-1.475,28.921-6.8,37.634-4.9,8.024-30.8,8.86-42.707,32.045-10.2,19.862,5.849,63.289,99.425,48.25C328.5,335.7,335.3,276.771,335.3,276.771s-9.515-10-29.359-7.909" transform="translate(-125.912 -158.743)" fill="#7f4fc7"/>
    <path id="Trazado_195396" data-name="Trazado 195396" d="M690.442,587.733l21.571-9.133s14.1,20.691,11.593,49.585H697.983s-7.424-22.907-7.541-40.452" transform="translate(-408.09 -341.985)" fill="#fff"/>
    <path id="Trazado_195397" data-name="Trazado 195397" d="M570.217,609.661l15.071,30.14,54.7-49.133L625.342,571.6Z" transform="translate(-337.03 -337.845)" fill="#f4bf82"/>
    <path id="Trazado_195398" data-name="Trazado 195398" d="M570.852,632.921l15.071,30.141,33.49-30.082-16.742-22.03Z" transform="translate(-337.405 -361.105)" fill="#2194e5"/>
    <path id="Trazado_195399" data-name="Trazado 195399" d="M584.461,675.4a16.919,16.919,0,1,1-16.919-16.919A16.919,16.919,0,0,1,584.461,675.4" transform="translate(-325.449 -389.199)"/>
    <path id="Trazado_195400" data-name="Trazado 195400" d="M583.626,637.507l-15.82-31.64,54.382-37.553a15.188,15.188,0,0,1,7.884-2.709,12.816,12.816,0,0,1,9.691,4.4l.053-.02.4.57-.656.435.241.644-.522.2-.353-.433a11.294,11.294,0,0,0-8.851-4.259,13.763,13.763,0,0,0-7.013,2.438l-53.281,36.793L584.1,635.016l36.288-32.6,1.027,1.144Z" transform="translate(-335.605 -334.305)"/>
    <path id="Trazado_195401" data-name="Trazado 195401" d="M463.205,498.375l25.436-13.416,42.866,81.408L502.1,582.656Z" transform="translate(-273.78 -286.638)" fill="#2194e5"/>
    <path id="Trazado_195402" data-name="Trazado 195402" d="M584.461,675.4a16.919,16.919,0,1,1-16.919-16.919A16.919,16.919,0,0,1,584.461,675.4" transform="translate(-325.449 -389.199)" fill="#2194e5"/>
    <path id="Trazado_195403" data-name="Trazado 195403" d="M290.175,442.59,255.323,564.439H373.876l-6.958-49.094s3.913-4.8,4.122-8.973c.126-2.52-2.7-7.909-4.962-11.79a130.523,130.523,0,0,1-6.026-11.688l-.07-.153a32.775,32.775,0,0,1-2.806-16.563l3.159-12.434s-27.355-18.95-70.16-11.154" transform="translate(-150.91 -260.483)" fill="#2194e5"/>
    <path id="Trazado_195404" data-name="Trazado 195404" d="M480.545,484.46a18.409,18.409,0,1,1-18.409-18.409,18.41,18.41,0,0,1,18.409,18.409" transform="translate(-262.267 -275.462)" fill="#2194e5"/>
    <path id="Trazado_195405" data-name="Trazado 195405" d="M341.883,462.7a18.409,18.409,0,1,1-18.409-18.409A18.41,18.41,0,0,1,341.883,462.7" transform="translate(-180.31 -262.6)" fill="#2194e5"/>
    <path id="Trazado_195406" data-name="Trazado 195406" d="M519.017,601.257l-7.005-49.427.213-.261c.037-.046,3.756-4.654,3.95-8.526.09-1.8-1.635-5.836-4.859-11.365a131.919,131.919,0,0,1-6.061-11.756l-.07-.153a33.607,33.607,0,0,1-2.873-16.951l1.532.14a32.06,32.06,0,0,0,2.74,16.175l.069.153a130.648,130.648,0,0,0,5.99,11.619c3.469,5.95,5.174,10.06,5.066,12.216-.192,3.849-3.235,8.053-4.082,9.153l6.912,48.768Z" transform="translate(-296.812 -297.193)" fill="#fff"/>
    <path id="Trazado_195407" data-name="Trazado 195407" d="M409.587,464.628a22.392,22.392,0,0,1-22.62-22.566l1.538.01a20.907,20.907,0,0,0,25.662,20.5,13.268,13.268,0,0,0,5.248-2.353,9.7,9.7,0,0,0,3.536-8.74l1.524-.2a11.266,11.266,0,0,1-4.107,10.15,14.763,14.763,0,0,1-5.852,2.644,21.678,21.678,0,0,1-4.93.559" transform="translate(-228.719 -261.283)" fill="#fff"/>
    <path id="Trazado_195408" data-name="Trazado 195408" d="M408.394,478.335l-1.044-1.128a35.284,35.284,0,0,0,3.871-4.217l1.213.944a36.749,36.749,0,0,1-4.04,4.4" transform="translate(-240.766 -279.563)" fill="#fff"/>
    <rect id="Rectángulo_45555" data-name="Rectángulo 45555" width="1.538" height="3.128" transform="translate(186.739 197.644) rotate(-27.721)" fill="#fff"/>
    <path id="Trazado_195409" data-name="Trazado 195409" d="M470.65,474.489a2.268,2.268,0,0,0-1.271-.614l.2-1.524a3.81,3.81,0,0,1,2.138,1.033Z" transform="translate(-277.429 -279.186)" fill="#fff"/>
    <path id="Trazado_195410" data-name="Trazado 195410" d="M390.405,453.874l-.389-1.488a15.255,15.255,0,0,1,2.772-.285,12.034,12.034,0,0,0,3.238-.41l.613,1.41a12.319,12.319,0,0,1-3.775.535,14.923,14.923,0,0,0-2.458.238" transform="translate(-230.521 -266.974)" fill="#fff"/>
    <rect id="Rectángulo_45556" data-name="Rectángulo 45556" width="5.403" height="1.538" transform="translate(158.946 181.488)" fill="#fff"/>
    <path id="Trazado_195411" data-name="Trazado 195411" d="M188.354,555.791l-32.916-7.553c.056-.056,28.236-81.5,72.286-100.25a307.423,307.423,0,0,1,20.9,29.315s-42.036,38.356-60.272,78.488" transform="translate(-91.872 -264.786)" fill="#2194e5"/>
    <path id="Trazado_195412" data-name="Trazado 195412" d="M188.724,675.4A16.919,16.919,0,1,1,171.8,658.481,16.919,16.919,0,0,1,188.724,675.4" transform="translate(-91.546 -389.199)"/>
    <path id="Trazado_195413" data-name="Trazado 195413" d="M192.5,641.441l1.537,33.838s32.06-1.628,62.587-8.773c11.183-2.617,20.428-5.1,27.94-7.313l-4.4-29.542Z" transform="translate(-113.778 -372.159)" fill="#2194e5"/>
    <path id="Trazado_195414" data-name="Trazado 195414" d="M188.724,675.4A16.919,16.919,0,1,1,171.8,658.481,16.919,16.919,0,0,1,188.724,675.4" transform="translate(-91.546 -389.199)" fill="#2194e5"/>
    <path id="Trazado_195415" data-name="Trazado 195415" d="M435.726,620.163l-28.85,3.88,4.4,29.542c18.87-5.56,26.781-9.418,26.781-9.418Z" transform="translate(-240.486 -366.551)" fill="#fff"/>
    <path id="Trazado_195416" data-name="Trazado 195416" d="M472.03,632.278a12.115,12.115,0,1,1-12.115-12.115,12.114,12.114,0,0,1,12.115,12.115" transform="translate(-264.675 -366.551)" fill="#f4bf82"/>
    <path id="Trazado_195417" data-name="Trazado 195417" d="M477.254,620.48,474.146,644.5s2.836,8.226,10.913,12.125,34.116,14.064,40.382,14.064h17.685s-47.638-46.4-65.872-50.213" transform="translate(-280.247 -366.738)" fill="#f4bf82"/>
    <path id="Trazado_195418" data-name="Trazado 195418" d="M434.385,620.163l-27.509,3.88,4.4,29.542c18.87-5.56,26.781-9.418,26.781-9.418Z" transform="translate(-240.486 -366.551)" fill="#f4bf82"/>
    <rect id="Rectángulo_45557" data-name="Rectángulo 45557" width="1.538" height="29.17" transform="matrix(0.578, -0.816, 0.816, 0.578, 233.471, 286.898)"/>
    <rect id="Rectángulo_45558" data-name="Rectángulo 45558" width="1.538" height="22.674" transform="matrix(0.54, -0.841, 0.841, 0.54, 228.765, 292.348)"/>
    <rect id="Rectángulo_45559" data-name="Rectángulo 45559" width="88.458" height="1.538" transform="matrix(0.991, -0.133, 0.133, 0.991, 78.62, 268.529)" fill="#fff"/>
    <rect id="Rectángulo_45560" data-name="Rectángulo 45560" width="1.538" height="30.948" transform="translate(157.437 259.426) rotate(-7.553)" fill="#fff"/>
    <path id="Trazado_195419" data-name="Trazado 195419" d="M391.714,645.461l-.387-1.488c2.1-.547,4.253-1.018,6.391-1.4l.272,1.514c-2.1.376-4.211.839-6.275,1.376" transform="translate(-231.296 -379.795)" fill="#fff"/>
    <rect id="Rectángulo_45561" data-name="Rectángulo 45561" width="4.338" height="1.538" transform="matrix(0.988, -0.152, 0.152, 0.988, 162.004, 269.359)" fill="#fff"/>
    <path id="Trazado_195420" data-name="Trazado 195420" d="M399.423,693.632q-.836,0-1.67-.058a.906.906,0,0,1-.869-.654.812.812,0,0,1,.317-.886.841.841,0,0,1,.962-.017l.065.046a22.7,22.7,0,0,0,5.005-.29l.257,1.516a24.3,24.3,0,0,1-4.068.343m-2.431-1.145.743.2-.446.6a.7.7,0,0,0,.8,0,.717.717,0,0,0,.283-.435Z" transform="translate(-234.562 -408.876)" fill="#fff"/>
    <path id="Trazado_195421" data-name="Trazado 195421" d="M507.121,358.419c-2.019,6.234-7.48,10.047-12.2,8.519s-6.908-7.82-4.89-14.053,7.48-10.047,12.2-8.519,6.908,7.82,4.89,14.053" transform="translate(-289.192 -203.34)"/>
    <path id="Trazado_195422" data-name="Trazado 195422" d="M433.683,385.4l-6.266,19.216.05.036A6.289,6.289,0,0,1,424.852,416a22.789,22.789,0,0,1-8.066-.508c-13.378-2.885-12.346-15.265-12.346-15.265l14.621-27.78Z" transform="translate(-239.036 -220.139)" fill="#f4bf82"/>
    <path id="Trazado_195423" data-name="Trazado 195423" d="M457.867,401.052l-2.028,6.221s-7.8-7.251-9.016-12.892c3.077,4.052,7.13,6.992,11.045,6.671" transform="translate(-264.097 -233.101)"/>
    <path id="Trazado_195424" data-name="Trazado 195424" d="M433.346,321.091s3.551,14.621,14.2,16.292,20.679-8.355,22.141-21.723-.882-27.258-16.5-28.616c-14.412-1.253-25.692,13.159-19.843,34.047" transform="translate(-255.2 -169.614)" fill="#f4bf82"/>
    <path id="Trazado_195425" data-name="Trazado 195425" d="M456.862,337.333a15.565,15.565,0,0,1-2.413-.188c-4.224-.663-7.859-3.28-10.8-7.778l1.287-.842c2.7,4.119,5.978,6.508,9.755,7.1a15.4,15.4,0,0,0,11.912-3.313c5.061-3.872,8.555-10.5,9.346-17.734,1.1-10.085-.27-17.552-4.08-22.191-2.673-3.255-6.618-5.131-11.723-5.575l.133-1.532c5.533.481,9.833,2.544,12.779,6.13,4.083,4.972,5.57,12.822,4.42,23.335-.836,7.642-4.552,14.665-9.94,18.788a17.592,17.592,0,0,1-10.672,3.8" transform="translate(-262.219 -168.617)"/>
    <path id="Trazado_195426" data-name="Trazado 195426" d="M410.6,294.483s8.982,6.684,17.128,2.506,13.159-9.191,19.634-8.564,8.773-1.462,8.773-1.462-2.4-14.614-20.888-14.621c-23.289-.009-24.647,22.141-24.647,22.141" transform="translate(-242.685 -160.969)" fill="#7f4fc7"/>
    <path id="Trazado_195427" data-name="Trazado 195427" d="M488.743,298.156s3.342,2.3,4.6,5.222,7.849,11.908,18.5,6.686c6.057-2.089,0-21.473-23.1-11.908" transform="translate(-288.874 -174.669)" fill="#7f4fc7"/>
    <path id="Trazado_195428" data-name="Trazado 195428" d="M423.894,249.306s-12.95-8.906-3.76-21.23,34.047.835,18.172,18.172c-11.906,3.968-14.412,3.057-14.412,3.057" transform="translate(-246.375 -131.952)" fill="#7f4fc7"/>
    <path id="Trazado_195429" data-name="Trazado 195429" d="M494.554,363.321c-1.721,0-4.174-2.286-4.2-2.31l1.053-1.12a7.185,7.185,0,0,0,3.134,1.9,2.582,2.582,0,0,0-.188-1.409,7.2,7.2,0,0,1-.208-.809,20.581,20.581,0,0,1-.3-3.835l1.538.025a19.011,19.011,0,0,0,.276,3.548,6.037,6.037,0,0,0,.167.631,3.169,3.169,0,0,1-.059,2.789,1.39,1.39,0,0,1-1.031.584,1.8,1.8,0,0,1-.183.009" transform="translate(-289.826 -210.259)"/>
    <path id="Trazado_195430" data-name="Trazado 195430" d="M464.316,379.9a4.52,4.52,0,0,1-1.1-.133c-4.208-1.056-5.357-6.673-4.568-10.322a2.413,2.413,0,0,1,2.275-2.189,3.011,3.011,0,0,1,2.262,1.237,9.794,9.794,0,0,0,4.325,2.452,17.732,17.732,0,0,0,2.856.508c1.136.128,2.311.261,2.4,1.491.082,1.1-1.477,2.873-1.957,3.39-.995,1.072-3.619,3.565-6.5,3.565m-3.39-11.105c-.488,0-.693.612-.773.976-.64,2.963.216,7.7,3.44,8.505a2.985,2.985,0,0,0,.723.086c3.068,0,6.568-4.107,6.9-5.227a8.153,8.153,0,0,0-1.017-.153,19.305,19.305,0,0,1-3.086-.553,11.159,11.159,0,0,1-5.117-2.969,1.544,1.544,0,0,0-1.067-.666" transform="translate(-270.951 -217.07)"/>
    <path id="Trazado_195431" data-name="Trazado 195431" d="M464.3,342.236a3.545,3.545,0,0,0-4.479-2.473,8.084,8.084,0,0,0-2.08,1.163l-.876-1.264a9.362,9.362,0,0,1,2.5-1.367,5.082,5.082,0,0,1,6.422,3.546Z" transform="translate(-270.032 -199.816)"/>
    <path id="Trazado_195432" data-name="Trazado 195432" d="M510.377,354a2.128,2.128,0,0,0-3.564-1.2l-1.058-1.115a3.665,3.665,0,0,1,6.14,2.064Z" transform="translate(-298.929 -207.273)"/>
    <path id="Trazado_195433" data-name="Trazado 195433" d="M424.369,296.251s11.661-26.654,32.939-12.675c-.685-2.032-2.209-4.488-6.777-6.4-7.675-3.22-23.094-4.844-34.513,17.714,6.545,2.785,8.351,1.365,8.351,1.365" transform="translate(-245.89 -162.724)"/>
    <path id="Trazado_195434" data-name="Trazado 195434" d="M511.4,388.184a69.253,69.253,0,0,1-12.885-1.592l.323-1.5c7.149,1.536,17.668,2.534,18.672-.058a.8.8,0,0,0-.03-.7c-.507-1-2.613-1.758-3.311-1.945l.4-1.485c.343.092,3.379.95,4.284,2.734a2.34,2.34,0,0,1,.093,1.952c-.766,1.98-3.914,2.6-7.545,2.6" transform="translate(-294.648 -225.133)"/>
    <path id="Trazado_195435" data-name="Trazado 195435" d="M497.569,392.062c-.211,1.061-1.691,1.66-3.307,1.339s-2.754-1.442-2.543-2.5,1.691-1.66,3.307-1.339,2.754,1.441,2.543,2.5" transform="translate(-290.618 -230.2)"/>
    <path id="Trazado_195436" data-name="Trazado 195436" d="M421.108,345.051s-11.469,4.3-10.581-6.671,10.787-7.473,12.115-3.023c-1.215,8.582-1.533,9.694-1.533,9.694" transform="translate(-242.615 -195.69)" fill="#f4bf82"/>
    <path id="Trazado_195437" data-name="Trazado 195437" d="M413.408,330c-2.019,6.233-7.48,10.047-12.2,8.519s-6.908-7.82-4.89-14.053,7.48-10.047,12.2-8.519,6.908,7.82,4.89,14.053" transform="translate(-233.802 -186.541)"/>
    <path id="Trazado_195438" data-name="Trazado 195438" d="M336.946,600.7l-.851-1.28L341.237,596c2.112-1.4,4.388-3.1,4.65-5.426a4.943,4.943,0,0,0-1.126-3.518A13.815,13.815,0,0,0,341,584.086a17.064,17.064,0,0,1-3.815-2.91,9.243,9.243,0,0,1,1.96-13.515c.449-.275.915-.5,1.365-.727a11.825,11.825,0,0,0,1.569-.873,5.713,5.713,0,0,0,1.719-7l1.365-.707a7.22,7.22,0,0,1-2.2,8.967,13.156,13.156,0,0,1-1.771.993c-.438.216-.853.421-1.243.66a7.712,7.712,0,0,0-1.621,11.174,15.672,15.672,0,0,0,3.485,2.634,15.194,15.194,0,0,1,4.162,3.333,6.488,6.488,0,0,1,1.442,4.638c-.336,2.984-2.925,4.938-5.327,6.535Z" transform="translate(-198.048 -330.018)" fill="#fff"/>
    <path id="Trazado_195439" data-name="Trazado 195439" d="M351.856,548.62a7.5,7.5,0,0,0-1.651-2.877l1.13-1.043a9.06,9.06,0,0,1,1.992,3.47Z" transform="translate(-206.991 -321.948)" fill="#fff"/>
    <path id="Trazado_195440" data-name="Trazado 195440" d="M355.851,603.29l-.566-1.43a8.83,8.83,0,0,0,1.877-15.4c-.3-.215-.622-.421-.945-.628-1.3-.833-2.772-1.777-3.183-3.46a5.063,5.063,0,0,1,1.665-4.6c.4-.409.819-.782,1.229-1.143a11.211,11.211,0,0,0,1.775-1.81c1.448-2.025,1.324-4.805,1.053-7.716l1.531-.143c.3,3.212.423,6.3-1.333,8.753a12.515,12.515,0,0,1-2.009,2.07c-.4.357-.788.694-1.14,1.058-.492.509-1.6,1.835-1.277,3.161.266,1.086,1.36,1.788,2.519,2.532.345.221.687.441,1.009.671a10.368,10.368,0,0,1-2.2,18.077" transform="translate(-208.603 -335.11)" fill="#fff"/>
    <rect id="Rectángulo_45562" data-name="Rectángulo 45562" width="24.299" height="32.823" transform="translate(131.236 271.133)" fill="#fff"/>
    <path id="Trazado_195441" data-name="Trazado 195441" d="M303.909,701.09h-7.714a10.437,10.437,0,0,1-10.424-10.425v-.185a10.436,10.436,0,0,1,10.424-10.425h7.714v2.562h-7.714a7.871,7.871,0,0,0-7.862,7.862v.185a7.871,7.871,0,0,0,7.862,7.862h7.714Z" transform="translate(-168.906 -401.95)" fill="#fff"/>
    <path id="Trazado_195442" data-name="Trazado 195442" d="M65.45,743.268h0Z" transform="translate(-38.685 -439.313)" fill="#fff"/>
    <rect id="Rectángulo_45563" data-name="Rectángulo 45563" width="287.188" height="1.604" transform="translate(74.956 303.12)"/>
    <rect id="Rectángulo_45564" data-name="Rectángulo 45564" width="176.109" height="6.266" transform="translate(182.725 296.854)" fill="#c5e5fe"/>
    <path id="Trazado_195444" data-name="Trazado 195444" d="M675.713,490.465l-45.262,93.921H731.085L771.4,494.866c1.449-3.216-.687-6.981-3.96-6.981H679.618a4.382,4.382,0,0,0-3.905,2.58" transform="translate(-372.632 -288.367)" fill="#fff"/>
    <path id="Trazado_195445" data-name="Trazado 195445" d="M729.814,584.043H627.459l45.793-95.023a5.134,5.134,0,0,1,4.6-3.015h87.818a5.015,5.015,0,0,1,4.247,2.389,5.932,5.932,0,0,1,.414,5.677Z" transform="translate(-370.863 -287.256)" fill="#ddedf8"/>
    <path id="Trazado_195449" data-name="Trazado 195449" d="M813.614,601.2c1.783-4.581.63-10.827-5.5-11.366-5.054-.444-9.559,2.953-11.24,8.455-1.313,4.3,1,9.465,6.2,10.107,4.378.541,8.7-2.483,10.535-7.2" transform="translate(-470.784 -348.602)" fill="#3cafff"/>
  </g>
</svg>
