<svg xmlns="http://www.w3.org/2000/svg" xmlns:xlink="http://www.w3.org/1999/xlink" width="460" height="317.968" viewBox="0 0 460 317.968">
  <defs>
    <clipPath id="clip-path">
      <rect id="Rectángulo_45536" data-name="Rectángulo 45536" width="284.7" height="270.964" fill="#3cafff"/>
    </clipPath>
    <clipPath id="clip-path-2">
      <rect id="Rectángulo_45537" data-name="Rectángulo 45537" width="109.239" height="106.69" fill="#3cafff"/>
    </clipPath>
    <clipPath id="clip-path-3">
      <rect id="Rectángulo_45538" data-name="Rectángulo 45538" width="98.627" height="82.452" fill="#3cafff"/>
    </clipPath>
    <clipPath id="clip-path-4">
      <rect id="Rectángulo_45531" data-name="Rectángulo 45531" width="142.557" height="89.582" fill="none"/>
    </clipPath>
    <clipPath id="clip-path-5">
      <rect id="Rectángulo_45521" data-name="Rectángulo 45521" width="3.409" height="2.582" fill="none"/>
    </clipPath>
    <clipPath id="clip-path-6">
      <rect id="Rectángulo_45522" data-name="Rectángulo 45522" width="8.319" height="2.748" fill="none"/>
    </clipPath>
  </defs>
  <g id="Grupo_152908" data-name="Grupo 152908" transform="translate(-576 -3417.853)">
    <g id="Grupo_152889" data-name="Grupo 152889" transform="translate(-17.5 -165.302)">
      <g id="Grupo_152887" data-name="Grupo 152887" transform="translate(622.555 3618.138)">
        <g id="Grupo_152880" data-name="Grupo 152880" transform="translate(4.141 2.458)" opacity="0.4">
          <g id="Grupo_152879" data-name="Grupo 152879">
            <g id="Grupo_152878" data-name="Grupo 152878" clip-path="url(#clip-path)">
              <path id="Trazado_195378" data-name="Trazado 195378" d="M89.569,267.194c-20.139-4.2-39.106-15.934-54.62-34.2C14.913,209.412-3.043,170.942,10.756,113.777,36.9,5.465,155.556-12.514,209.577,12.481c85.854,39.721,125.194,200.477,7.2,252.561-29.334,12.949-95.249,8.818-127.206,2.152" transform="translate(-5.895 -2.528)" fill="#3cafff"/>
            </g>
          </g>
        </g>
        <path id="Trazado_195379" data-name="Trazado 195379" d="M.339,119.045a.252.252,0,0,1-.1-.021.517.517,0,0,1-.223-.584c.2-.9.407-1.8.615-2.683.058-.245.249-.38.426-.3a.52.52,0,0,1,.216.589c-.206.877-.412,1.774-.612,2.669a.371.371,0,0,1-.322.33m1.421-6a.242.242,0,0,1-.11-.026.526.526,0,0,1-.209-.6c.22-.878.449-1.771.681-2.651.064-.243.259-.369.433-.28a.533.533,0,0,1,.2.6c-.231.876-.459,1.764-.678,2.637a.367.367,0,0,1-.32.315m1.571-5.928a.257.257,0,0,1-.122-.031.539.539,0,0,1-.193-.606c.244-.873.5-1.753.749-2.616.07-.239.266-.355.44-.258a.542.542,0,0,1,.186.61c-.251.857-.5,1.733-.745,2.6a.36.36,0,0,1-.315.3m1.723-5.846a.255.255,0,0,1-.133-.038.548.548,0,0,1-.177-.615c.267-.861.542-1.727.818-2.577.077-.235.277-.341.447-.234a.553.553,0,0,1,.17.618c-.274.844-.548,1.706-.813,2.562a.354.354,0,0,1-.311.283m1.877-5.753a.267.267,0,0,1-.145-.045.558.558,0,0,1-.16-.623c.288-.841.587-1.693.887-2.532.083-.231.286-.327.452-.212a.561.561,0,0,1,.153.627c-.3.834-.6,1.681-.882,2.517a.348.348,0,0,1-.306.267m2.034-5.651a.267.267,0,0,1-.156-.053.566.566,0,0,1-.143-.631c.314-.83.636-1.666.958-2.483.089-.227.294-.31.459-.187a.571.571,0,0,1,.135.635c-.32.812-.64,1.642-.952,2.469a.341.341,0,0,1-.3.251m2.191-5.537a.263.263,0,0,1-.168-.062.574.574,0,0,1-.125-.638c.339-.82.685-1.637,1.027-2.429.1-.222.3-.295.464-.162a.579.579,0,0,1,.117.642c-.34.788-.684,1.6-1.021,2.414a.334.334,0,0,1-.293.235M13.5,78.915a.271.271,0,0,1-.179-.072.582.582,0,0,1-.107-.645c.359-.791.728-1.589,1.1-2.371a.288.288,0,0,1,.468-.136.587.587,0,0,1,.1.648c-.367.777-.734,1.57-1.091,2.356a.33.33,0,0,1-.287.22m2.5-5.278a.276.276,0,0,1-.19-.082.59.59,0,0,1-.088-.65c.384-.775.776-1.551,1.166-2.306a.283.283,0,0,1,.471-.11.592.592,0,0,1,.079.652c-.387.752-.777,1.524-1.158,2.293a.325.325,0,0,1-.28.2m2.658-5.132a.281.281,0,0,1-.2-.093.593.593,0,0,1-.068-.654c.4-.746.818-1.5,1.234-2.238a.281.281,0,0,1,.475-.083.6.6,0,0,1,.059.656c-.413.735-.825,1.484-1.226,2.225a.317.317,0,0,1-.271.188m2.809-4.975a.285.285,0,0,1-.214-.105.6.6,0,0,1-.048-.658c.429-.728.866-1.457,1.3-2.165a.278.278,0,0,1,.476-.055.6.6,0,0,1,.039.659c-.431.7-.865,1.429-1.292,2.153a.311.311,0,0,1-.262.172m2.955-4.81A.289.289,0,0,1,24.2,58.6a.6.6,0,0,1-.028-.66c.447-.7.906-1.4,1.364-2.089a.278.278,0,0,1,.478-.027.6.6,0,0,1,.02.661c-.455.684-.911,1.382-1.356,2.076a.306.306,0,0,1-.254.157m3.1-4.634a.3.3,0,0,1-.235-.131.6.6,0,0,1-.009-.662c.469-.672.948-1.348,1.426-2.008a.277.277,0,0,1,.478,0,.6.6,0,0,1,0,.661c-.474.656-.951,1.327-1.417,2a.3.3,0,0,1-.243.143m3.236-4.452a.3.3,0,0,1-.245-.145.6.6,0,0,1,.012-.662c.489-.645.988-1.291,1.486-1.923a.277.277,0,0,1,.477.028.6.6,0,0,1-.02.66c-.494.628-.991,1.272-1.476,1.913a.3.3,0,0,1-.233.129m3.368-4.262a.308.308,0,0,1-.254-.159.6.6,0,0,1,.032-.66c.506-.615,1.025-1.233,1.541-1.837a.278.278,0,0,1,.476.055.6.6,0,0,1-.04.659c-.514.6-1.029,1.214-1.532,1.826a.289.289,0,0,1-.223.116m3.492-4.065a.314.314,0,0,1-.263-.174.6.6,0,0,1,.051-.658c.523-.583,1.06-1.172,1.6-1.747a.281.281,0,0,1,.474.083.6.6,0,0,1-.06.656c-.532.572-1.066,1.156-1.586,1.737a.285.285,0,0,1-.212.1m3.611-3.863a.32.32,0,0,1-.272-.19.592.592,0,0,1,.07-.654c.54-.554,1.094-1.111,1.645-1.656a.284.284,0,0,1,.472.109.59.59,0,0,1-.079.652c-.549.543-1.1,1.1-1.635,1.646a.28.28,0,0,1-.2.092m3.721-3.657a.325.325,0,0,1-.28-.205.586.586,0,0,1,.089-.65c.558-.524,1.128-1.05,1.693-1.563a.287.287,0,0,1,.468.135.587.587,0,0,1-.1.649c-.563.509-1.129,1.032-1.683,1.553a.277.277,0,0,1-.19.081m3.826-3.446a.33.33,0,0,1-.287-.221.583.583,0,0,1,.108-.645c.574-.494,1.158-.988,1.737-1.467.16-.133.368-.06.464.161a.579.579,0,0,1-.117.642c-.575.476-1.156.967-1.727,1.458a.273.273,0,0,1-.178.071M52.7,27.109a.337.337,0,0,1-.294-.236.574.574,0,0,1,.127-.638c.588-.463,1.186-.925,1.777-1.371.164-.123.37-.04.459.187a.569.569,0,0,1-.135.635c-.588.444-1.182.9-1.767,1.362a.265.265,0,0,1-.166.061m4.013-3.014a.342.342,0,0,1-.3-.253.565.565,0,0,1,.145-.63c.6-.43,1.211-.859,1.816-1.273.167-.115.37-.02.453.211a.562.562,0,0,1-.153.627c-.6.412-1.208.838-1.805,1.266a.266.266,0,0,1-.155.052m4.1-2.793a.349.349,0,0,1-.307-.269.559.559,0,0,1,.163-.622c.61-.4,1.233-.79,1.851-1.173.169-.105.37,0,.447.236a.553.553,0,0,1-.171.618c-.615.38-1.234.772-1.841,1.166a.259.259,0,0,1-.143.044m4.173-2.567a.356.356,0,0,1-.312-.287.547.547,0,0,1,.181-.613c.626-.365,1.26-.724,1.884-1.07.174-.1.37.02.439.261a.54.54,0,0,1-.188.608c-.62.344-1.25.7-1.872,1.064a.256.256,0,0,1-.131.037M69.231,16.4a.362.362,0,0,1-.316-.3.535.535,0,0,1,.2-.6c.642-.333,1.286-.657,1.914-.964.176-.087.369.042.431.285a.53.53,0,0,1-.207.6c-.624.305-1.264.627-1.9.958a.256.256,0,0,1-.119.03m4.313-2.093a.369.369,0,0,1-.321-.323.521.521,0,0,1,.216-.589c.651-.295,1.305-.58,1.944-.851.178-.076.367.064.421.311a.516.516,0,0,1-.225.584c-.634.267-1.283.551-1.93.844a.243.243,0,0,1-.105.023m4.377-1.83c-.148,0-.284-.136-.325-.343a.508.508,0,0,1,.235-.576c.667-.256,1.331-.5,1.974-.723.182-.063.365.088.41.339a.5.5,0,0,1-.245.568c-.639.223-1.3.465-1.959.718a.25.25,0,0,1-.091.018m4.445-1.526c-.156,0-.3-.15-.33-.369a.49.49,0,0,1,.259-.556c1.293-.385,2-.538,2.03-.545.185-.038.358.135.386.391a.47.47,0,0,1-.282.534c-.007,0-.719.156-1.991.535a.229.229,0,0,1-.072.011" transform="translate(0 -0.262)" fill="#3cafff"/>
        <g id="Grupo_152883" data-name="Grupo 152883" transform="translate(266.832)" opacity="0.4">
          <g id="Grupo_152882" data-name="Grupo 152882">
            <g id="Grupo_152881" data-name="Grupo 152881" clip-path="url(#clip-path-2)">
              <path id="Trazado_195380" data-name="Trazado 195380" d="M464.744,16.328C443.4-3.786,407.027-7.012,388.37,16.252c-9.427,11.756-10,28.657-6.736,37.917,10.153,28.806,58.946,73.644,94.729,41.242,23.146-20.958,11.916-56.907-11.619-79.083" transform="translate(-379.831 0)" fill="#3cafff"/>
            </g>
          </g>
        </g>
        <path id="Trazado_195381" data-name="Trazado 195381" d="M487.456,100.87a.288.288,0,0,1-.219-.112.6.6,0,0,1-.038-.659c.422-.685.832-1.389,1.219-2.093a.281.281,0,0,1,.474-.089.6.6,0,0,1,.065.656c-.395.718-.813,1.435-1.243,2.133a.307.307,0,0,1-.257.164m2.69-4.98a.277.277,0,0,1-.184-.076.585.585,0,0,1-.1-.648c.365-.776.715-1.575,1.043-2.374.092-.225.3-.3.46-.176a.573.573,0,0,1,.128.638c-.334.816-.692,1.631-1.064,2.423a.328.328,0,0,1-.284.213m2.216-5.516a.259.259,0,0,1-.143-.044.556.556,0,0,1-.163-.622c.282-.833.549-1.691.793-2.55.068-.24.263-.36.438-.264a.54.54,0,0,1,.19.607c-.249.878-.522,1.754-.809,2.6a.349.349,0,0,1-.306.269M494,84.485a.261.261,0,0,1-.1-.02.517.517,0,0,1-.224-.584c.2-.879.373-1.779.53-2.677.044-.252.228-.405.407-.345a.5.5,0,0,1,.249.565c-.16.916-.342,1.835-.541,2.731-.044.2-.178.331-.322.331m1.04-6.14a.275.275,0,0,1-.055-.006.476.476,0,0,1-.278-.539c.108-.9.2-1.831.273-2.754.02-.257.186-.441.372-.414a.455.455,0,0,1,.3.515c-.074.94-.167,1.884-.277,2.805-.027.229-.171.392-.334.392m.464-6.276h-.014c-.187-.011-.332-.229-.324-.487.023-.766.034-1.547.034-2.321,0-.155,0-.308,0-.462,0-.259.149-.47.336-.472h0c.185,0,.336.207.338.465,0,.156,0,.312,0,.469,0,.787-.012,1.581-.036,2.361-.007.251-.157.448-.337.448m-.063-6.311c-.176,0-.325-.189-.337-.437-.044-.911-.1-1.845-.178-2.776a.455.455,0,0,1,.3-.516c.184-.031.353.157.373.413.076.944.137,1.891.181,2.817.013.258-.128.481-.314.5h-.023m-.526-6.272c-.162,0-.306-.163-.333-.393-.107-.905-.23-1.828-.364-2.745a.486.486,0,0,1,.264-.551c.183-.052.361.112.4.366.136.928.261,1.863.369,2.78a.473.473,0,0,1-.279.537.22.22,0,0,1-.055.007m-.927-6.187c-.152,0-.289-.142-.328-.354-.162-.894-.337-1.8-.523-2.7a.511.511,0,0,1,.232-.579c.18-.071.367.073.418.321.188.907.365,1.825.529,2.728a.5.5,0,0,1-.246.568.274.274,0,0,1-.082.014m-1.273-6.068c-.142,0-.274-.124-.321-.322-.207-.871-.429-1.76-.66-2.641a.532.532,0,0,1,.2-.6c.176-.088.37.038.433.28.234.891.458,1.788.667,2.668a.524.524,0,0,1-.215.591.262.262,0,0,1-.106.023M491.145,41.3A.359.359,0,0,1,490.83,41c-.249-.858-.513-1.725-.782-2.58a.552.552,0,0,1,.175-.616c.171-.1.371.006.445.243.271.862.537,1.739.789,2.6a.542.542,0,0,1-.188.609.255.255,0,0,1-.126.034m-1.836-5.788a.348.348,0,0,1-.306-.267c-.288-.84-.588-1.685-.891-2.512a.565.565,0,0,1,.149-.629c.167-.117.37-.024.455.206.306.834.608,1.687.9,2.534a.557.557,0,0,1-.16.623.26.26,0,0,1-.145.046m-2.077-5.632a.34.34,0,0,1-.3-.243c-.325-.824-.66-1.644-.994-2.439a.577.577,0,0,1,.122-.64c.162-.129.368-.054.462.169.337.8.674,1.629,1,2.459a.572.572,0,0,1-.134.636.266.266,0,0,1-.162.057m-2.315-5.456a.328.328,0,0,1-.286-.218c-.681-1.489-1.108-2.322-1.113-2.331a.592.592,0,0,1,.079-.652.284.284,0,0,1,.472.109c.018.034.443.861,1.134,2.374a.584.584,0,0,1-.1.646.275.275,0,0,1-.181.072" transform="translate(-113.432 -0.585)" fill="#3cafff"/>
        <g id="Grupo_152886" data-name="Grupo 152886" transform="translate(266.832 190.97)" opacity="0.4">
          <g id="Grupo_152885" data-name="Grupo 152885">
            <g id="Grupo_152884" data-name="Grupo 152884" clip-path="url(#clip-path-3)">
              <path id="Trazado_195382" data-name="Trazado 195382" d="M473.061,247.555c17.557-16.636,14.176-40.567-7.979-53.951-7.833-4.732-22.7-2.252-31.422.73-27.119,9.275-68.736,45.455-36.008,70.423,26.457,20.184,56.052,1.14,75.408-17.2" transform="translate(-385.641 -190.958)" fill="#3cafff"/>
            </g>
          </g>
        </g>
      </g>
      <g id="Grupo_152877" data-name="Grupo 152877" transform="translate(646.531 3583.155)">
        <g id="Grupo_152875" data-name="Grupo 152875" transform="translate(212.445)">
          <g id="Grupo_152874" data-name="Grupo 152874" clip-path="url(#clip-path-4)">
            <path id="Trazado_195356" data-name="Trazado 195356" d="M132.427,91.108H10.131A10.13,10.13,0,0,1,0,80.977V11.192H142.557V80.977a10.13,10.13,0,0,1-10.131,10.131" transform="translate(0 -1.525)" fill="#fff"/>
            <path id="Trazado_195357" data-name="Trazado 195357" d="M61.719,55.44A25.06,25.06,0,1,1,13.54,45.755L36.66,55.44,35.473,30.412c.388-.023.787-.03,1.187-.03A25.059,25.059,0,0,1,61.719,55.44" transform="translate(-1.581 -4.14)" fill="#539380"/>
            <path id="Trazado_195358" data-name="Trazado 195358" d="M32.891,25.629a25.086,25.086,0,0,0-21.93,15.343l23.118,9.684Z" transform="translate(-1.494 -3.493)" fill="#74caad"/>
            <rect id="Rectángulo_45525" data-name="Rectángulo 45525" width="3.441" height="3.441" transform="translate(117.021 34.043)" fill="#539380"/>
            <path id="Trazado_195359" data-name="Trazado 195359" d="M154.48,41.769H142.15a.038.038,0,0,1-.037-.038v-.786a.038.038,0,0,1,.037-.038h12.33a.038.038,0,0,1,.037.038v.786a.038.038,0,0,1-.037.038" transform="translate(-19.366 -5.575)" fill="#f0e8e0"/>
            <rect id="Rectángulo_45526" data-name="Rectángulo 45526" width="3.441" height="3.441" transform="translate(117.021 27.91)" fill="#74caad"/>
            <path id="Trazado_195360" data-name="Trazado 195360" d="M154.48,34.669H142.15a.037.037,0,0,1-.037-.037v-.787a.038.038,0,0,1,.037-.038h12.33a.038.038,0,0,1,.037.038v.787a.037.037,0,0,1-.037.037" transform="translate(-19.366 -4.607)" fill="#f0e8e0"/>
            <rect id="Rectángulo_45527" data-name="Rectángulo 45527" width="3.441" height="3.441" transform="translate(117.021 40.174)" fill="#365f54"/>
            <path id="Trazado_195361" data-name="Trazado 195361" d="M154.48,48.867H142.15a.037.037,0,0,1-.037-.037v-.787a.038.038,0,0,1,.037-.038h12.33a.038.038,0,0,1,.037.038v.787a.037.037,0,0,1-.037.037" transform="translate(-19.366 -6.542)" fill="#f0e8e0"/>
            <path id="Trazado_195362" data-name="Trazado 195362" d="M153.183,62.847H135.915a.431.431,0,0,1,0-.862h17.268a.431.431,0,0,1,0,.862" transform="translate(-18.463 -8.447)" fill="#f0e8e0"/>
            <path id="Trazado_195363" data-name="Trazado 195363" d="M153.183,66.943H135.915a.431.431,0,0,1,0-.862h17.268a.431.431,0,0,1,0,.862" transform="translate(-18.463 -9.005)" fill="#f0e8e0"/>
            <path id="Trazado_195364" data-name="Trazado 195364" d="M153.183,71.04H135.915a.431.431,0,0,1,0-.862h17.268a.431.431,0,0,1,0,.862" transform="translate(-18.463 -9.563)" fill="#f0e8e0"/>
            <path id="Trazado_195365" data-name="Trazado 195365" d="M153.183,75.136H135.915a.431.431,0,1,1,0-.862h17.268a.431.431,0,0,1,0,.862" transform="translate(-18.463 -10.122)" fill="#f0e8e0"/>
            <path id="Trazado_195366" data-name="Trazado 195366" d="M153.183,79.232H135.915a.431.431,0,0,1,0-.862h17.268a.431.431,0,0,1,0,.862" transform="translate(-18.463 -10.68)" fill="#f0e8e0"/>
            <path id="Trazado_195367" data-name="Trazado 195367" d="M153.183,83.329H135.915a.431.431,0,0,1,0-.862h17.268a.431.431,0,0,1,0,.862" transform="translate(-18.463 -11.238)" fill="#f0e8e0"/>
            <path id="Trazado_195368" data-name="Trazado 195368" d="M153.183,87.425H135.915a.431.431,0,0,1,0-.862h17.268a.431.431,0,0,1,0,.862" transform="translate(-18.463 -11.796)" fill="#f0e8e0"/>
            <path id="Trazado_195369" data-name="Trazado 195369" d="M65.485,55.44a24.962,24.962,0,0,1-6.454,16.787L40.427,55.44,39.24,30.412c.388-.023.787-.03,1.187-.03A25.059,25.059,0,0,1,65.485,55.44" transform="translate(-5.347 -4.14)" fill="#365f54"/>
            <rect id="Rectángulo_45528" data-name="Rectángulo 45528" width="7.978" height="34.185" transform="translate(84.536 44.968)" fill="#539380"/>
            <path id="Trazado_195370" data-name="Trazado 195370" d="M97.873,80.554a31.109,31.109,0,0,0,7.978-4.121V89.57H97.873Z" transform="translate(-13.337 -10.416)" fill="#365f54"/>
            <rect id="Rectángulo_45529" data-name="Rectángulo 45529" width="7.978" height="24.686" transform="translate(71.496 54.468)" fill="#539380"/>
            <path id="Trazado_195371" data-name="Trazado 195371" d="M89.277,81.835a13.985,13.985,0,0,0,1.477.136v8.3H82.776V82.048a14.405,14.405,0,0,1,6.5-.213" transform="translate(-11.28 -11.118)" fill="#365f54"/>
            <rect id="Rectángulo_45530" data-name="Rectángulo 45530" width="7.978" height="44.398" transform="translate(97.576 34.756)" fill="#539380"/>
            <path id="Trazado_195372" data-name="Trazado 195372" d="M120.949,68.411V88.477h-7.978V71.818c2.836-1.925,5.479-3.417,7.978-3.407" transform="translate(-15.395 -9.323)" fill="#365f54"/>
            <path id="Trazado_195373" data-name="Trazado 195373" d="M116.434,25.254l-7.2,1.544,1.934,1.9L100.145,39.932l-3.868-3.794L82.6,50.084a1.35,1.35,0,0,0,1.927,1.891L96.313,39.956l3.869,3.794L113.1,30.585l1.933,1.9Z" transform="translate(-11.203 -3.441)" fill="#74caad"/>
            <path id="Trazado_195374" data-name="Trazado 195374" d="M142.557,12.974H0V1.735A1.736,1.736,0,0,1,1.736,0H140.821a1.736,1.736,0,0,1,1.736,1.736Z" transform="translate(0 0)" fill="#171612"/>
            <path id="Trazado_195375" data-name="Trazado 195375" d="M141.681,6.7a2.1,2.1,0,1,1-2.1-2.1,2.1,2.1,0,0,1,2.1,2.1" transform="translate(-18.734 -0.627)" fill="#5a554d"/>
            <path id="Trazado_195376" data-name="Trazado 195376" d="M157.871,6.7a2.1,2.1,0,1,1-2.1-2.1,2.1,2.1,0,0,1,2.1,2.1" transform="translate(-20.94 -0.627)" fill="#5a554d"/>
            <path id="Trazado_195377" data-name="Trazado 195377" d="M150.019,6.7a2.1,2.1,0,1,1-2.1-2.1,2.1,2.1,0,0,1,2.1,2.1" transform="translate(-19.87 -0.627)" fill="#5a554d"/>
          </g>
        </g>
        <g id="Grupo_152888" data-name="Grupo 152888" transform="translate(0 39.833)">
          <rect id="Rectángulo_45520" data-name="Rectángulo 45520" width="48.42" height="33.447" transform="translate(0 8.873) rotate(-0.083)" fill="#e59f3f"/>
          <path id="Trazado_195240" data-name="Trazado 195240" d="M24.242,51.328,0,29.833l0,2.143L24.244,53.4,48.423,31.907l0-2.145Z" transform="translate(0 -20.958)" fill="#b56d25"/>
          <path id="Trazado_195241" data-name="Trazado 195241" d="M23.325,43.981,41.491,60.092h1.4v-.852L24.365,42.808Z" transform="translate(5.575 -17.84)" fill="#b56d25"/>
          <path id="Trazado_195242" data-name="Trazado 195242" d="M.038,59.418v.74l1.53,0L19.689,43.991,18.644,42.82Z" transform="translate(0.009 -17.838)" fill="#b56d25"/>
          <path id="Trazado_195243" data-name="Trazado 195243" d="M0,29.832l24.241,21.5L48.422,29.761Z" transform="translate(0 -20.959)" fill="#e59f3f"/>
          <path id="Trazado_195244" data-name="Trazado 195244" d="M49.774,33.166A10.509,10.509,0,1,1,39.265,22.657,10.509,10.509,0,0,1,49.774,33.166" transform="translate(6.873 -22.657)" fill="#539380"/>
          <path id="Trazado_195245" data-name="Trazado 195245" d="M36.194,37.1h0a1.024,1.024,0,0,1-.721-.3L32.9,34.221A1.019,1.019,0,0,1,34.34,32.78l1.855,1.855,7.227-7.227a1.019,1.019,0,0,1,1.441,1.442L36.915,36.8a1.024,1.024,0,0,1-.721.3" transform="translate(7.792 -21.593)" fill="#fff"/>
        </g>
        <g id="Grupo_152876" data-name="Grupo 152876" transform="translate(281.978 205.581)">
          <path id="Trazado_195246" data-name="Trazado 195246" d="M175.642,31.049a21.27,21.27,0,1,1-16.7-25.017,21.27,21.27,0,0,1,16.7,25.017" transform="translate(-131.292 -5.618)" fill="#539380"/>
          <path id="Trazado_195247" data-name="Trazado 195247" d="M146.333,33.872a2.028,2.028,0,0,1-.413-.042,2.057,2.057,0,0,1-1.419-1.078l-2.368-4.629a2.057,2.057,0,1,1,3.663-1.873l1.2,2.339,14.063-11.7a2.057,2.057,0,1,1,2.632,3.162L147.649,33.4a2.061,2.061,0,0,1-1.316.476" transform="translate(-129.284 -3.038)" fill="#fff"/>
          <path id="Trazado_195248" data-name="Trazado 195248" d="M174.434,27.9a.531.531,0,0,1,.512.665,23.551,23.551,0,0,1-24.925,17.484.545.545,0,0,1-.5-.462.526.526,0,0,1,.569-.591,22.492,22.492,0,0,0,23.832-16.7.528.528,0,0,1,.51-.4" transform="translate(-127.465 -0.293)" fill="#539380"/>
          <path id="Trazado_195249" data-name="Trazado 195249" d="M137.115,28.765l-5.3,13.219a1.267,1.267,0,0,0,1.6,1.664l14.057-5.013Z" transform="translate(-131.719 -0.085)" fill="#539380"/>
        </g>
        <path id="Trazado_195250" data-name="Trazado 195250" d="M132.2,288.415c-49.189-1.727-100.065-8.437-126.4-99.077-7.828-26.944-2.736-47.349,5.856-62.724a93.544,93.544,0,0,1,6.868-10.5l0,0q1.36-1.812,2.747-3.505c19.218-23.567,51.453-32.021,80.023-21.6,16.023,5.839,36.578,14.477,54.906,25.708,36.824,22.565,45.461,48.294,57.492,92.431,1.035,3.79,2.065,8.04,2.85,12.552.42,2.414.768,4.9,1.006,7.433,2.666,28.221-8.22,62-85.35,59.284" transform="translate(19.399 29.4)" fill="#171612"/>
        <path id="Trazado_195251" data-name="Trazado 195251" d="M216.2,223.438a57.989,57.989,0,0,1-7.06,13.7c-9.3,13.327-28.671,29.43-68.121,30.47q-2.6.069-5.141.067c-15.073,0-28.366-1.818-40.512-5.528a99.049,99.049,0,0,1-33.912-17.9c-16.9-13.635-30.828-33.584-45.153-64.677a90.457,90.457,0,0,1-8.719-36.995A80.608,80.608,0,0,1,10.3,120.923a93.259,93.259,0,0,1,6.868-10.5q-.916,2.115-1.764,4.421c-5.153,14.132-8.7,36.613,3.661,63.446,25.145,54.574,54.3,88.032,121.868,86.263,38.174-1,56.8-16.414,65.7-29.169A53.552,53.552,0,0,0,215.19,216c.421,2.414.769,4.9,1.007,7.433" transform="translate(20.75 35.092)" fill="#5a554d"/>
        <path id="Trazado_195252" data-name="Trazado 195252" d="M93.973,185.721c2.057,1.477,5.312,3.013,10.181,4.562,27.66,8.8,53.021-5.406,53.021-5.406,1.533-7.574.585-16.183-1.968-19.334a2.78,2.78,0,0,0,.271-2.457l25.456-26.426c-14.475,12-32.382,15.923-46.321,24.347h-.007c-4.016,2.427-7.627,4.566-10.274,6.051-4.038,2.267-9.194,2.489-14.244,1.794A69.45,69.45,0,0,1,90.8,162.642s-31.7-14.369-37.645-13.889c-4.622.37,20.247,26.337,40.818,36.969" transform="translate(31.51 41.362)" fill="#c04d3a"/>
        <path id="Trazado_195253" data-name="Trazado 195253" d="M128.686,195.094s-8.16-2.344-10.665-4.993l-5.67,13.349,19.3,6.024s.269-11.727-2.966-14.38" transform="translate(45.793 54.135)" fill="#eaad8f"/>
        <path id="Trazado_195254" data-name="Trazado 195254" d="M172.764,235.952l-24.951-55.383a8.5,8.5,0,0,0-3.4.657c-4.84,1.764-11.644,6.626-16.028,9.482-.51.337-.991.644-1.43.913a17.745,17.745,0,0,1-1.85,1.032c-3.847,1.733-1.654,4.842-1.654,4.842,8.02,3.129,2.638,13.187,7.01,15.675,0,0,1.863,1.08,7.8,3.7s11.917,8.916,17.449,14.081c7.138,6.671,11.619,7.455,14.188,6.846a4.744,4.744,0,0,0,2.871-1.841" transform="translate(48.296 51.854)" fill="#fff"/>
        <path id="Trazado_195255" data-name="Trazado 195255" d="M168.6,235.952l-24.951-55.383a8.5,8.5,0,0,0-3.4.657l25.485,56.567a4.744,4.744,0,0,0,2.871-1.841" transform="translate(52.46 51.854)" fill="#f0e8e0"/>
        <path id="Trazado_195256" data-name="Trazado 195256" d="M149.563,185.445l-.741-1.645a13.328,13.328,0,0,1-7.527,6.972,17.13,17.13,0,0,1-13.711-.838c-.51.337-.99.644-1.429.913a18.615,18.615,0,0,0,15.667,1.274,14.746,14.746,0,0,0,7.74-6.676" transform="translate(49.092 52.629)" fill="#f0e8e0"/>
        <path id="Trazado_195257" data-name="Trazado 195257" d="M137.946,208.03a1,1,0,0,0-1.9.591l.7,3.847a1,1,0,0,0,1.97-.358l-.7-3.847a1.082,1.082,0,0,0-.071-.233" transform="translate(51.453 58.28)" fill="#171612"/>
        <path id="Trazado_195258" data-name="Trazado 195258" d="M134.37,206.3a1,1,0,0,0-1.9.591l.7,3.846a1,1,0,1,0,1.968-.358l-.7-3.846a1.187,1.187,0,0,0-.072-.233" transform="translate(50.598 57.867)" fill="#171612"/>
        <path id="Trazado_195259" data-name="Trazado 195259" d="M140.825,210.091a1,1,0,0,0-1.9.591l.7,3.847a1,1,0,1,0,1.969-.359l-.7-3.846a.977.977,0,0,0-.072-.233" transform="translate(52.141 58.772)" fill="#171612"/>
        <path id="Trazado_195260" data-name="Trazado 195260" d="M143.644,212.18a1,1,0,0,0-1.9.591l.7,3.847a1,1,0,0,0,1.97-.358l-.7-3.847a1.038,1.038,0,0,0-.072-.233" transform="translate(52.815 59.272)" fill="#171612"/>
        <path id="Trazado_195261" data-name="Trazado 195261" d="M146.458,214.575a1,1,0,0,0-1.9.591l.7,3.847a1,1,0,1,0,1.969-.359l-.7-3.846a.978.978,0,0,0-.072-.233" transform="translate(53.488 59.844)" fill="#171612"/>
        <path id="Trazado_195262" data-name="Trazado 195262" d="M149.176,217.322a1,1,0,0,0-1.9.591l.7,3.847a1,1,0,1,0,1.969-.358l-.7-3.847a.98.98,0,0,0-.072-.233" transform="translate(54.137 60.501)" fill="#171612"/>
        <path id="Trazado_195263" data-name="Trazado 195263" d="M60.373,147.507s-20.063-10.828-31.684-2.458C7.437,160.353,43.5,189.8,84.746,204.173s54.643,12.416,54.643,12.416,8.963-2.466,5.782-16.991c0,0-23.777-9.04-36.15-18.51s-20.806-21.073-48.649-33.582" transform="translate(24.292 42.609)" fill="#c04d3a"/>
        <path id="Trazado_195264" data-name="Trazado 195264" d="M136.561,201.907c-8.651-2.079-26.281-10.166-47.159-21.631-15.614-8.575-33.623-19.534-36.266-23.334-1.427-2.053-1.787-3.733-1.069-4.992,1.074-1.883,4.168-2.078,5.578-2.064a.628.628,0,0,1,0,1.255c-1.386-.01-3.8.228-4.484,1.431-.569,1,.235,2.539,1.01,3.654,2.131,3.065,17.2,12.717,35.841,22.952,16.047,8.812,36.781,19.091,46.848,21.511Z" transform="translate(31.298 44.523)" fill="#7e231a"/>
        <path id="Trazado_195265" data-name="Trazado 195265" d="M120.28,186.97c-.974,7.635-2.953,14.575-7.266,19.9,0,0,3.692,2.66,7.065.752,2.577-1.457,7.544-13.381,5.651-19.749-2.155-1.177-4.014-1.587-5.45-.9" transform="translate(45.951 53.307)" fill="#7e231a"/>
        <path id="Trazado_195266" data-name="Trazado 195266" d="M77.221,195.061s7.985-2.884,10.309-5.695l6.548,12.94-18.855,7.3s-1.052-11.683,2-14.546" transform="translate(36.877 53.96)" fill="#eaad8f"/>
        <path id="Trazado_195267" data-name="Trazado 195267" d="M41.37,238.53l21.2-56.927a8.5,8.5,0,0,1,3.441.429c4.947,1.437,12.061,5.833,16.628,8.389.53.3,1.03.577,1.486.817a17.8,17.8,0,0,0,1.916.906c3.954,1.472,1.974,4.721,1.974,4.721-7.795,3.658-1.752,13.334-5.949,16.108,0,0-1.787,1.2-7.536,4.209S63.231,226.874,58.056,232.4c-6.676,7.133-11.1,8.215-13.7,7.779a4.749,4.749,0,0,1-2.987-1.645" transform="translate(28.827 52.093)" fill="#fff"/>
        <path id="Trazado_195268" data-name="Trazado 195268" d="M41.37,238.53l21.2-56.927a8.5,8.5,0,0,1,3.441.429L44.357,240.176a4.749,4.749,0,0,1-2.987-1.645" transform="translate(28.827 52.093)" fill="#f0e8e0"/>
        <path id="Trazado_195269" data-name="Trazado 195269" d="M56.732,186.609l.629-1.691a13.328,13.328,0,0,0,7.977,6.454,17.126,17.126,0,0,0,13.623-1.752c.533.3,1.032.576,1.487.815A18.608,18.608,0,0,1,64.9,192.752a14.74,14.74,0,0,1-8.169-6.143" transform="translate(32.499 52.896)" fill="#f0e8e0"/>
        <path id="Trazado_195270" data-name="Trazado 195270" d="M65.806,208.647a1,1,0,0,1,1.933.463l-.441,3.884a1,1,0,1,1-1.989-.225l.441-3.886a.985.985,0,0,1,.056-.237" transform="translate(34.548 58.413)" fill="#171612"/>
        <path id="Trazado_195271" data-name="Trazado 195271" d="M69.258,206.685a1,1,0,0,1,1.933.463l-.442,3.884a1,1,0,1,1-1.989-.225l.441-3.886a.985.985,0,0,1,.057-.237" transform="translate(35.373 57.944)" fill="#171612"/>
        <path id="Trazado_195272" data-name="Trazado 195272" d="M63.069,210.9a1,1,0,0,1,1.933.463l-.441,3.884a1,1,0,0,1-1.99-.226l.442-3.886a1,1,0,0,1,.056-.237" transform="translate(33.893 58.95)" fill="#171612"/>
        <path id="Trazado_195273" data-name="Trazado 195273" d="M60.4,213.169a1,1,0,0,1,1.933.463l-.441,3.884a1,1,0,1,1-1.99-.226l.441-3.886a.986.986,0,0,1,.057-.237" transform="translate(33.254 59.493)" fill="#171612"/>
        <path id="Trazado_195274" data-name="Trazado 195274" d="M57.749,215.746a1,1,0,0,1,1.932.463l-.441,3.884a1,1,0,1,1-1.989-.226l.441-3.886a.93.93,0,0,1,.057-.237" transform="translate(32.621 60.109)" fill="#171612"/>
        <path id="Trazado_195275" data-name="Trazado 195275" d="M55.22,218.669a1,1,0,0,1,1.933.463l-.441,3.884a1,1,0,1,1-1.99-.226l.441-3.886a1.049,1.049,0,0,1,.057-.237" transform="translate(32.017 60.808)" fill="#171612"/>
        <path id="Trazado_195276" data-name="Trazado 195276" d="M165,140.789s18.985-12.622,31.326-5.355c22.565,13.291-10.642,45.918-50.4,64.018s-53.274,17.377-53.274,17.377S83.5,215.2,85.338,200.44c0,0,22.847-11.183,34.3-21.748S138.421,155.8,165,140.789" transform="translate(39.278 40.53)" fill="#c04d3a"/>
        <path id="Trazado_195277" data-name="Trazado 195277" d="M128.311,192.163c-2.188.72-4.415,1.443-6.712,2.167-8.895,2.8-19.05,5.73-28.247,7.989l-.033,1.315c8.305-2.025,18.052-4.77,28.657-8.108,2.07-.652,4.183-1.337,6.3-2.034Z" transform="translate(41.244 54.628)" fill="#7e231a"/>
        <path id="Trazado_195278" data-name="Trazado 195278" d="M86.971,202.144c8.424-2.865,25.238-12.534,44.976-25.866,14.762-9.97,31.69-22.536,33.973-26.562,1.233-2.176,1.437-3.882.607-5.069-1.243-1.778-4.342-1.688-5.744-1.545a.628.628,0,0,0,.12,1.25c1.379-.138,3.8-.123,4.6,1.015.658.943,0,2.549-.67,3.729-1.841,3.247-15.966,14.242-33.585,26.142-15.172,10.248-34.876,22.385-44.678,25.718Z" transform="translate(39.63 42.885)" fill="#7e231a"/>
        <path id="Trazado_195279" data-name="Trazado 195279" d="M88.812,185.715c1.67,7.513,4.277,14.243,9.061,19.147,0,0-3.433,2.986-6.967,1.4-2.7-1.214-8.74-12.633-7.439-19.147,2.038-1.37,3.852-1.949,5.345-1.4" transform="translate(38.846 53.037)" fill="#7e231a"/>
        <path id="Trazado_195280" data-name="Trazado 195280" d="M210.8,60.842a9.973,9.973,0,0,0-13.882,2.523l-.133.187-1.035,1.5-1.083,1.539-2.2,3.081c-1.474,2.034-2.979,4.055-4.494,6.048a.338.338,0,0,1-.026.037c-.307.4-.608.8-.924,1.2v0c-2.758,3.6-5.583,7.119-8.477,10.5-1.742,2.034-3.514,4.024-5.3,5.92l-.683.719c-1.277,1.332-2.567,2.611-3.857,3.812a49.068,49.068,0,0,1-4.858,4.038c-.375.265-.741.508-1.083.721-.634-.377-1.352-.846-2.1-1.357-.841-.582-1.72-1.225-2.606-1.906q-.6-.453-1.193-.931c-.245-.192-.492-.387-.737-.587-2.965-2.386-5.977-5.058-8.946-7.8q-3.849-3.574-7.639-7.352c-.3-.3-.608-.6-.908-.9q-1.1-1.095-2.192-2.208-2.654-2.691-5.263-5.434l-2.59-2.748-1.277-1.375L126.1,68.724l-.1-.115c-.223-.238-.453-.475-.693-.7A14.655,14.655,0,0,0,105.105,89.15L106.63,90.6l1.481,1.391,2.969,2.737q2.977,2.719,6,5.388c4.038,3.56,8.15,7.064,12.417,10.5,2.635,2.11,5.305,4.2,8.118,6.246q.4.294.808.585c1.51,1.089,3.065,2.168,4.681,3.236,1.242.815,2.525,1.627,3.889,2.427q.931.548,1.924,1.089c.278.152.561.3.85.455q.8.42,1.665.835c.818.385,1.648.767,2.6,1.141.02.01.042.016.062.026.249.094.478.188.743.281l.8.283c.255.089.572.185.86.273l.444.131.3.083.416.107a16.857,16.857,0,0,0,3.236.488c.53.037,1.012.037,1.513.03.47-.016.964-.038,1.4-.088a20.652,20.652,0,0,0,4.63-1.015,24.153,24.153,0,0,0,3.293-1.4l.136-.068c1-.514,1.894-1.043,2.722-1.577a43.262,43.262,0,0,0,4.315-3.229c.85-.721,1.655-1.438,2.421-2.163.427-.4.838-.8,1.241-1.2,1.054-1.043,2.043-2.083,3-3.127a153.159,153.159,0,0,0,10.591-13.161c3.224-4.433,6.242-8.911,9.149-13.432q.771-1.2,1.533-2.409c.159-.245.313-.494.468-.74q1.15-1.834,2.276-3.677c.7-1.145,1.39-2.291,2.079-3.449l1.031-1.742,1.048-1.808A10.012,10.012,0,0,0,210.8,60.842m-49.718,42.673c-.169.055-.259.055-.187,0l.032-.019a.2.2,0,0,1,.055-.027,1.39,1.39,0,0,1,.152-.053,2.576,2.576,0,0,1,.436-.1,3.745,3.745,0,0,1-.488.2" transform="translate(42.972 22.816)" fill="#314fa5"/>
        <path id="Trazado_195281" data-name="Trazado 195281" d="M149.538,94.078a15.748,15.748,0,0,1-3.863,3.571c-3.446,2.143-7.652,2.15-10.284-1.229-2.735-3.519-3.689-8.69-4.066-13.012a35.386,35.386,0,0,1-.016-5.976c.3.3.6.606.908.9a33.407,33.407,0,0,0-.032,3.38c.171,4.294,1.012,9.127,3.178,12.906,1.2,2.09,3.074,3.68,5.585,3.615a9.638,9.638,0,0,0,5.91-2.689,18.452,18.452,0,0,0,1.943-2.057c.247.2.492.4.737.587" transform="translate(50.296 27.206)" fill="#5880eb"/>
        <path id="Trazado_195282" data-name="Trazado 195282" d="M142.616,114.228c-.287-.149-.572-.3-.85-.452.788-2.713,1.383-5.949.022-8.263-2.386-4.062-7.863-.6-10.517,1.509-.271-.193-.539-.388-.808-.585q.684-.563,1.412-1.071c2.764-1.933,7.429-4.309,10.213-1.105,2.266,2.609,1.409,6.831.527,9.967" transform="translate(50.122 33.242)" fill="#5880eb"/>
        <path id="Trazado_195283" data-name="Trazado 195283" d="M174.3,82.222c-.136,4.257-.95,9.44-4.5,12.275-3.365,2.684-7.562,1.038-10.027-2.021a12.532,12.532,0,0,1-1.1-1.6q.344-.359.681-.717a11.453,11.453,0,0,0,1.769,2.389c1.606,1.658,3.928,2.9,6.271,2.172a7.451,7.451,0,0,0,4.152-4.024c1.991-3.987,1.9-8.69,1.736-13.028-.052-1.31-.11-2.619-.146-3.925v0c.317-.4.618-.8.926-1.2a.3.3,0,0,0,.025-.035c.04,3.236.321,6.479.221,9.718" transform="translate(56.862 26.028)" fill="#5880eb"/>
        <path id="Trazado_195284" data-name="Trazado 195284" d="M191.731,79.887c-.155.245-.311.494-.468.74-3.337-1.722-7.907,1.808-10.284,4.052a40.327,40.327,0,0,0-7.513,9.84,66.872,66.872,0,0,0-6.479,18.237c-.4.4-.814.8-1.241,1.2,1.691-8.118,4.167-16.11,8.791-23.063A34.35,34.35,0,0,1,184,80.986c2.3-1.5,5.344-2.26,7.727-1.1" transform="translate(58.555 27.657)" fill="#5880eb"/>
        <path id="Trazado_195285" data-name="Trazado 195285" d="M161.415,113.327a24.325,24.325,0,0,1-3.295,1.4,20.694,20.694,0,0,1-4.629,1.015c-.436.05-.931.072-1.4.088-.5.006-.983.006-1.513-.03a17.052,17.052,0,0,1-3.236-.488l-.416-.108-.3-.083-.442-.131c-.287-.088-.6-.183-.86-.273l-.8-.281c-.265-.094-.494-.187-.743-.281-.02-.01-.042-.016-.062-.026a18.685,18.685,0,0,1,9.621-2.73,14.57,14.57,0,0,1,8.076,1.93" transform="translate(53.29 35.322)" fill="#1c2b74"/>
        <path id="Trazado_195286" data-name="Trazado 195286" d="M150.95,94.331a11.786,11.786,0,0,0-4.078,5.581c-.248.709.877,1.014,1.123.31a10.412,10.412,0,0,1,3.542-4.885c.59-.446.01-1.458-.587-1" transform="translate(54.036 31.218)" fill="#1c2b74"/>
        <path id="Trazado_195287" data-name="Trazado 195287" d="M146.153,96.478a4.107,4.107,0,0,1,3.561-.176c.681.29,1.275-.712.587-1a5.366,5.366,0,0,0-4.736.176c-.662.351-.076,1.355.587,1" transform="translate(53.662 31.364)" fill="#1c2b74"/>
        <path id="Trazado_195288" data-name="Trazado 195288" d="M148.123,172.118a47.164,47.164,0,0,1-13.384,9.7c-.3.154-.608.3-.916.441a56.182,56.182,0,0,1-9.258,3.373,71.966,71.966,0,0,1-33.042.79c-.406-.083-.814-.17-1.218-.26a72.9,72.9,0,0,1-8.891-2.6A62.805,62.805,0,0,1,70.858,178.6q-.7-.405-1.375-.841a52.857,52.857,0,0,1-4.811-3.4c3.044-13.585,4.791-20.372,5.548-25.3.064-.416.124-.818.171-1.208.617-4.788.221-8.06-.849-15.214a156.565,156.565,0,0,0-6.536-24.949c-.114-.338-.228-.675-.348-1.012-.294-.855-.593-1.716-.9-2.571-.154-.424-.307-.844-.465-1.269-1.147-3.135-2.384-6.26-3.679-9.268C51.975,80.423,51.067,65.62,64.624,61.1c8.861-2.954,16.559-4.757,16.559-4.757l31.172,2.581a76.878,76.878,0,0,1,12.7,2.23c.347.1.688.209,1.011.32,8.844,2.951,8.59,7.987,10.584,18.526,2.715,14.349,10.57,27.594,8.63,34.578-.073.254-.146.507-.23.757-.1.3-.2.6-.313.9a36.126,36.126,0,0,1-7.081,10.864c-.367.394-.585.607-.585.607l.011.094c.022.234.05.481.083.737.124.992.294,2.163.514,3.5.32,1.945.68,3.909,1.074,5.859.084.4.165.794.252,1.191a223.478,223.478,0,0,0,8.269,29.357q.431,1.847.851,3.679" transform="translate(31.782 22.164)" fill="#314fa5"/>
        <path id="Trazado_195289" data-name="Trazado 195289" d="M119.364,72.666a72.842,72.842,0,0,0,5.607,18.258c2.747,6.433,5.608,13.259,4.422,20.4-.152.916,1.25,1.31,1.4.387,1.118-6.734-1.037-13.223-3.64-19.36-2.764-6.517-5.384-13.02-6.388-20.075-.131-.923-1.533-.53-1.4.387" transform="translate(47.467 25.848)" fill="#1c2b74"/>
        <path id="Trazado_195290" data-name="Trazado 195290" d="M130.661,112.953c-.1.3-.2.6-.313.9a23.016,23.016,0,0,1-13.542-12.534c-4.944-11.05-2.538-23.338-.107-34.691.129-.611,1.067-.349.934.259-2.28,10.648-4.587,22.067-.543,32.6,2.357,6.142,7.419,11.528,13.571,13.464" transform="translate(46.169 24.54)" fill="#5880eb"/>
        <path id="Trazado_195291" data-name="Trazado 195291" d="M89.243,112.443c-1.881,11.577-10.714,21.934-20.745,27.5.064-.416.123-.818.171-1.209a42,42,0,0,0,12.873-11.514c6.051-8.257,11.528-22.33.617-29.106-6.8-4.229-14.25-2.9-20.877.456-.113-.337-.227-.673-.346-1.009a27.989,27.989,0,0,1,9.159-2.933,19.055,19.055,0,0,1,14.073,3.715c4.384,3.453,5.955,8.677,5.075,14.1" transform="translate(33.504 31.277)" fill="#5880eb"/>
        <path id="Trazado_195292" data-name="Trazado 195292" d="M123.13,125.026a38.572,38.572,0,0,0-6,33.409,39.6,39.6,0,0,0,3.041,7.652c-.3.154-.607.3-.914.441a40.766,40.766,0,0,1-3.753-27.016,39.492,39.492,0,0,1,8.681-17.355c.083.4.164.8.25,1.192-.453.548-.888,1.1-1.308,1.676" transform="translate(46.345 37.896)" fill="#5880eb"/>
        <path id="Trazado_195293" data-name="Trazado 195293" d="M88.043,164.7c-.408-.083-.815-.17-1.219-.26a34.785,34.785,0,0,0-18.2-16.262c-.574-.224-.323-1.158.26-.935A35.811,35.811,0,0,1,87.826,164.27c.073.144.144.286.217.434" transform="translate(35.263 43.884)" fill="#5880eb"/>
        <path id="Trazado_195294" data-name="Trazado 195294" d="M101.477,122.444A36.058,36.058,0,0,0,88.182,136c-2.4,4.551-5.312,12.052-.753,16.245,5.174,4.76,12.483.693,16.718-3.207,4.816-4.433,9.213-11.2,9.108-17.968a10.746,10.746,0,0,0-3.869-8.356c-2.422-1.816-5.3-1.473-7.909-.268-.566.261-.074,1.1.489.838,2.619-1.209,5.452-1.3,7.589.862a10.346,10.346,0,0,1,2.712,7.757c-.279,5.9-3.946,11.7-8.059,15.737-3.925,3.858-11.229,8.615-16.263,3.752-4.075-3.935-.961-11.185,1.279-15.285a35.177,35.177,0,0,1,12.742-12.824c.53-.328.043-1.167-.489-.838" transform="translate(39.263 37.725)" fill="#5880eb"/>
        <path id="Trazado_195295" data-name="Trazado 195295" d="M120.694,81.887c-6.027,10.969-19.545,8.773-28.831,3.686A56.569,56.569,0,0,1,68.041,60.127c-.265-.56.572-1.054.838-.488A55.757,55.757,0,0,0,79.408,74.876c7.216,7.4,18.013,14.855,28.857,14a14.636,14.636,0,0,0,12.673-9.824c2.256-5.965,1.493-12.46.707-18.631.349.1.689.211,1.012.32.892,7.08,1.6,14.649-1.963,21.146" transform="translate(35.19 22.893)" fill="#5880eb"/>
        <path id="Trazado_195296" data-name="Trazado 195296" d="M102.1,92.048c-4.213.8-10.027,3.663-10.994,8.341-.909,4.4,4.031,6.245,7.567,6.032,4.184-.25,9.2-2.879,10.439-7.184,1.2-4.179-3.041-7.382-6.883-7.206-.622.029-.624,1,0,.97,3.894-.178,7.577,3.334,5.4,7.237-1.818,3.261-5.822,5.169-9.456,5.232-3.805.067-8.015-2.609-5.3-6.766,2.064-3.157,5.875-5.034,9.482-5.721.612-.116.353-1.052-.258-.935" transform="translate(40.689 30.693)" fill="#5880eb"/>
        <path id="Trazado_195297" data-name="Trazado 195297" d="M75.907,143.372c-2.727,10.146-4.978,20.335-6.774,30.708-.465-.27-.922-.55-1.375-.841,1.783-10.216,4.009-20.258,6.7-30.257,3.809-14.159-13.3-66.232-13.476-66.759a.751.751,0,0,1,1.426-.471c.711,2.161,17.424,53.027,13.5,67.621" transform="translate(33.506 26.68)" fill="#1c2b74"/>
        <path id="Trazado_195298" data-name="Trazado 195298" d="M119.682,153.213a64.18,64.18,0,0,1-21.176,2.761,97.838,97.838,0,0,1-21.549-2.93.767.767,0,1,1,.413-1.478,96.275,96.275,0,0,0,21.2,2.875c10.673.226,25.422-1.538,35.089-11.217a.767.767,0,0,1,1.087,1.084,37.236,37.236,0,0,1-15.066,8.906" transform="translate(37.199 42.876)" fill="#1c2b74"/>
        <path id="Trazado_195299" data-name="Trazado 195299" d="M128.983,114.282c.022.234.052.481.085.74a41.1,41.1,0,0,1-16.64-.187,37.847,37.847,0,0,0-23.844,3.536.652.652,0,0,1-.325.088.655.655,0,0,1-.328-1.224,38.537,38.537,0,0,1,24.749-3.687c6.872,1.339,12.6,1.13,16.877.036-.368.394-.585.608-.585.608,0,.028.006.058.01.09" transform="translate(39.877 35.679)" fill="#1c2b74"/>
        <path id="Trazado_195300" data-name="Trazado 195300" d="M106.551,77.891c-8,0-24.313-11.452-25-11.94a.657.657,0,0,1,.757-1.073c.166.118,16.665,11.7,24.246,11.7,7.253,0,8.861-7.924,8.878-8a.656.656,0,0,1,1.289.248c-.017.09-1.84,9.07-10.166,9.07" transform="translate(38.364 24.176)" fill="#1c2b74"/>
        <path id="Trazado_195301" data-name="Trazado 195301" d="M203.358,67.333S199,77.973,193.055,79.1c-5,.948-11.743-7.953-11.743-7.953-2.529-4.28-2.653-6.575-2.816-11.031s7.283-7.729,7.283-7.729,8.43-15.676,11.335-16.453S193.8,50.724,193.8,50.724a2.854,2.854,0,0,1,2.733-.09c2.189.971,6.955,5.2,8.751,8.324,1.607,2.8-1.923,8.376-1.923,8.376" transform="translate(61.602 17.28)" fill="#eaad8f"/>
        <path id="Trazado_195302" data-name="Trazado 195302" d="M180.267,59.143c3.412-.726,7.749-1.322,10.456-3.731,1-.891,1.985-2.448,1.282-3.8-.679-1.308-2.526-1.481-3.789-1.756-.607-.133-.866.8-.256.933,1.3.284,3.361.382,3.167,2.114-.178,1.595-1.912,2.507-3.239,3.1a39.42,39.42,0,0,1-7.878,2.209c-.61.13-.353,1.062.256.933" transform="translate(61.882 20.612)" fill="#b4665e"/>
        <path id="Trazado_195303" data-name="Trazado 195303" d="M188.886,53.585a27.682,27.682,0,0,0,11.3,8.726c.574.242.823-.694.258-.932A26.461,26.461,0,0,1,189.721,53.1c-.374-.487-1.214,0-.835.488" transform="translate(64.063 21.341)" fill="#b4665e"/>
        <path id="Trazado_195304" data-name="Trazado 195304" d="M191.594,58a11.71,11.71,0,0,0-4.411,10.561c.061.613,1.028.62.968,0a10.842,10.842,0,0,1,4.127-9.877c.483-.392-.2-1.073-.684-.684" transform="translate(63.664 22.533)" fill="#b4665e"/>
        <path id="Trazado_195305" data-name="Trazado 195305" d="M191.077,56.124a21.266,21.266,0,0,1,4.683-6.566c.477-.4-.211-1.083-.684-.684a21.964,21.964,0,0,0-4.835,6.761c-.291.549.543,1.038.835.488" transform="translate(64.395 20.351)" fill="#b4665e"/>
        <path id="Trazado_195306" data-name="Trazado 195306" d="M193.578,58.857a26.392,26.392,0,0,1,4.736-6.782c.429-.452-.254-1.136-.684-.684a27.268,27.268,0,0,0-4.887,6.978c-.266.559.567,1.051.835.488" transform="translate(64.995 20.946)" fill="#b4665e"/>
        <path id="Trazado_195307" data-name="Trazado 195307" d="M196.3,59.716c-.046.069-.092.14-.136.209l.835.488a14.018,14.018,0,0,1,3.8-5.334c.471-.409-.216-1.09-.684-.684a14.553,14.553,0,0,0-3.949,5.53.484.484,0,0,0,.835.488c.046-.069.09-.14.136-.209.339-.524-.5-1.009-.835-.488" transform="translate(65.814 21.67)" fill="#b4665e"/>
        <path id="Trazado_195308" data-name="Trazado 195308" d="M190.533,48.076A12.167,12.167,0,0,0,188.7,51.84a.483.483,0,0,0,.932.256,11.394,11.394,0,0,1,1.736-3.532c.357-.512-.481-1-.835-.488" transform="translate(64.037 20.137)" fill="#b4665e"/>
        <path id="Trazado_195309" data-name="Trazado 195309" d="M79.687,63.914a13.279,13.279,0,0,0-18.072,2.915c-.421.561-.807,1.066-1.2,1.6l-1.167,1.576c-.773,1.053-1.53,2.113-2.293,3.171a.129.129,0,0,1-.021.026c-.211.295-.425.592-.633.89-.035.047-.066.093-.1.139-1.265,1.769-2.5,3.556-3.739,5.341-1.491,2.137-2.933,4.308-4.387,6.48l-2.165,3.271-2.134,3.3-.043.068q-.318.494-.629.987-2.4,3.777-4.738,7.651c-.161.263-.321.528-.478.793q-1.2,2.011-2.385,4.053c-1.334,2.327-2.659,4.685-3.946,7.139-.642,1.23-1.281,2.481-1.909,3.772-.178.364-.353.731-.532,1.1-.123.258-.243.517-.366.779-.327.705-.653,1.431-.973,2.186-.3.719-.61,1.462-.914,2.26s-.607,1.638-.906,2.6c-.123.4-.249.824-.368,1.285-.177.643-.343,1.364-.5,2.233a19.765,19.765,0,0,0-.289,2.811l0,.218v.25l.01.5c0,.2.012.26.016.372l.026.306.052.616.035.3.037.274c.051.357.108.717.173,1.077.064.328.134.644.2.966s.154.6.23.893l.118.431.063.216.061.2.256.786c.084.268.176.487.265.732.176.5.358.935.543,1.378a41.4,41.4,0,0,0,2.316,4.63c.142.248.285.5.429.74,1.145,1.944,2.322,3.711,3.518,5.395.171.238.342.478.512.714.154.209.3.419.456.624,1.581,2.155,3.207,4.194,4.847,6.173.1.125.2.247.306.37.126.151.254.3.38.451,3.385,4.009,6.883,7.772,10.475,11.421.637.649,1.279,1.289,1.929,1.927q.387.387.787.773c.975.961,1.965,1.912,2.953,2.856q1.446,1.359,2.909,2.7c.491.446.986.886,1.482,1.327l.753.669.783.683a8.853,8.853,0,0,0,12.935-11.935l-.124-.164-4.437-6q-.6-.8-1.187-1.6c-.185-.25-.368-.5-.553-.748q-1.355-1.849-2.691-3.7c-2.578-3.563-5.107-7.137-7.489-10.7-.186-.279-.372-.561-.559-.843l-.379-.576q-.892-1.336-1.731-2.673c-.181-.285-.358-.571-.535-.857-.513-.826-1.015-1.652-1.5-2.468-.585-.986-1.135-1.97-1.649-2.927s-.984-1.889-1.385-2.772c-.287-.646-.549-1.271-.743-1.81.084-.187.182-.4.289-.629.186-.389.4-.819.627-1.263.461-.893.976-1.862,1.533-2.84s1.144-1.987,1.753-3c.565-.942,1.147-1.893,1.74-2.845.178-.286.358-.575.539-.861q.762-1.217,1.549-2.436c1.321-2.065,2.681-4.137,4.058-6.206s2.779-4.143,4.18-6.22l2.759-4.048.538-.792.95-1.391,4.3-6.23,4.307-6.232,4.263-6.2.011-.016a13.244,13.244,0,0,0-3.4-18.424m-30.247,68.6,0,.066.006.135,0,.074a1.637,1.637,0,0,1-.056-.216c-.014-.058-.041-.135-.045-.176a1.1,1.1,0,0,0-.021-.136l-.006-.035,0-.019v-.035c0-.022,0-.056.01-.038s.012,0,.017.017a.484.484,0,0,1,.04.129l.006.035.014.064c.01.043.016.09.022.134" transform="translate(24.868 23.418)" fill="#314fa5"/>
        <path id="Trazado_195310" data-name="Trazado 195310" d="M52.854,80.6c-1.97,5.32-7.342,10.654-13.276,10.839q.312-.494.631-.987c5.328-.533,10.04-5.447,11.8-10.269a15.577,15.577,0,0,0,.664-8.192c.032-.046.063-.092.1-.139.208-.3.423-.595.634-.89a16.674,16.674,0,0,1-.554,9.638" transform="translate(28.399 25.659)" fill="#5880eb"/>
        <path id="Trazado_195311" data-name="Trazado 195311" d="M63.9,94.958l-.538.792a8.2,8.2,0,0,0-7.64-1.79c-3.542.973-6.085,4.236-7.023,7.677-1.251,4.6-.043,8.987,2.116,13.023-.181.286-.362.575-.539.861-2.816-5.111-4.317-10.758-1.657-16.35a10.854,10.854,0,0,1,8.122-6.364A9.139,9.139,0,0,1,63.9,94.958" transform="translate(30.229 30.863)" fill="#5880eb"/>
        <path id="Trazado_195312" data-name="Trazado 195312" d="M53.9,128.567c-.787.248-1.571.473-2.342.679-6.45,1.717-14.618,3.358-19.5,8.292l-.512-.715c3.981-3.917,9.895-5.945,15.252-7.326,2.065-.532,4.318-1.1,6.571-1.785.177.285.354.572.535.856" transform="translate(26.479 39.223)" fill="#5880eb"/>
        <path id="Trazado_195313" data-name="Trazado 195313" d="M62.995,147.02a11.943,11.943,0,0,1-2.331,1.282c-3.016,1.228-6.274.792-8.3-1.911-2.946-3.917-4.147-11.541-.659-15.368.187.282.373.565.559.844-3.147,3.72-1.813,11.1,1.3,14.49,2.456,2.678,6.217,1.733,8.883-.088.185.248.368.5.553.75" transform="translate(30.787 40.015)" fill="#5880eb"/>
        <path id="Trazado_195314" data-name="Trazado 195314" d="M50.114,156.121c-.266-.258-.53-.515-.788-.773a11.346,11.346,0,0,0-4.907-11.815,10.671,10.671,0,0,0-7.5-1.533l-.382-.451c-.1-.124-.206-.247-.3-.37a11.577,11.577,0,0,1,8.707,1.57,12.344,12.344,0,0,1,5.17,13.373" transform="translate(27.6 42.379)" fill="#5880eb"/>
        <path id="Trazado_195315" data-name="Trazado 195315" d="M39.459,105.861A9.994,9.994,0,0,1,27.993,111.3c.123-.264.243-.523.366-.779a8.744,8.744,0,0,0,3.758.073,9.316,9.316,0,0,0,7.054-6.728,11.083,11.083,0,0,0-2.039-9.412c.157-.265.317-.53.477-.793,2.644,3.55,3.962,7.686,1.851,12.2" transform="translate(25.63 31.085)" fill="#5880eb"/>
        <path id="Trazado_195316" data-name="Trazado 195316" d="M63.688,95.105a.6.6,0,0,0,.456-.261c3.978-5.794,14.977-20.5,15.088-20.651a.606.606,0,1,0-.971-.726c-.11.147-11.123,14.877-15.115,20.69A.605.605,0,0,0,63.3,95a.611.611,0,0,0,.387.105" transform="translate(34.007 26.199)" fill="#1c2b74"/>
        <path id="Trazado_195317" data-name="Trazado 195317" d="M24.811,120.639c0,.2.014.26.02.37l.022.306.055.615.032.306.04.273c.051.361.109.72.172,1.078.064.327.134.644.206.965s.15.606.229.9l.119.431.062.214.061.2.256.783c.085.268.173.489.264.735.177.493.359.933.543,1.378a42.277,42.277,0,0,0,2.314,4.63q.216.374.431.74c.6-9.705-1.631-16.022-4.044-19.93-.175.642-.343,1.365-.5,2.23a19.676,19.676,0,0,0-.286,2.813l0,.218v.25Z" transform="translate(24.868 36.096)" fill="#1c2b74"/>
        <path id="Trazado_195318" data-name="Trazado 195318" d="M46.244,120.454a.519.519,0,0,0,.282-.942,19.236,19.236,0,0,0-8.257-3.189.519.519,0,0,0-.093,1.033,18.533,18.533,0,0,1,7.75,3,.514.514,0,0,0,.317.1" transform="translate(27.951 36.5)" fill="#1c2b74"/>
        <path id="Trazado_195319" data-name="Trazado 195319" d="M44.785,120.233a.546.546,0,0,0,.169-.035.519.519,0,0,0,.3-.67,12.614,12.614,0,0,0-2.941-4.042.519.519,0,0,0-.7.769,11.774,11.774,0,0,1,2.67,3.645.519.519,0,0,0,.5.332" transform="translate(28.844 36.269)" fill="#1c2b74"/>
        <path id="Trazado_195320" data-name="Trazado 195320" d="M67.12,148.108a45.033,45.033,0,0,1,6.857.447c2.752.5,3.56,1.5,3.56,1.5l.3,5.081a20.369,20.369,0,0,1,6.44.8c3.269,1,5.6,3.708,7.082,4.78s-1.125,2.623-3.829,1.595a21.873,21.873,0,0,0-6.123-1.451,20.371,20.371,0,0,1,5.236,2.44c1.878,1.427,6.02,3.9,5.62,5.551s-4.309-.339-7.088-1.225-3.944-1.7-6.364-1.917a15.736,15.736,0,0,1,3.868,2.5c1.215,1.28,3.63,3.525,4.2,4.764s-2.643,1.566-5.19-.04-3.6-3.614-5.467-3.484a36.426,36.426,0,0,1,2.614,3.05c.964,1.331,2,5.339.577,5.768s-4.765-4.327-7.122-5.1a120.084,120.084,0,0,1-12.282-4.98,13.639,13.639,0,0,1-6.693-6.9,3.072,3.072,0,0,1,.051-2.583A19.8,19.8,0,0,1,67.12,148.108" transform="translate(31.621 44.098)" fill="#eaad8f"/>
        <path id="Trazado_195321" data-name="Trazado 195321" d="M95.828,6.518S78.246,2.555,71.413,13.774s1.124,28.772,1.124,28.772-.634,4.565-9.809,8.275-4.91,18.418,4.556,16.353c0,0,3.369,13.5,13.521,5.888s25.51-5.467,25.51-5.467,5.729,4.88,12.367,1.561,1.951-8.4,1.951-8.4,6.883,3.1,10.942-3.506c4.307-7.008-7.207-12.245-8.207-15.822-3.633-12.985,1.447-10.228,6.469-17.4,6.128-8.757-5.526-16.013-10.634-9.508,0,0,7.655-7.66-1.147-13.136-8.04-5-22.227,5.13-22.227,5.13" transform="translate(32.715 8.698)" fill="#171612"/>
        <path id="Trazado_195322" data-name="Trazado 195322" d="M105.207,27.181s2.485-.038,3.282,3.055-.242,8.5-3.489,8.186.207-11.242.207-11.242" transform="translate(43.704 15.195)" fill="#c6695d"/>
        <path id="Trazado_195323" data-name="Trazado 195323" d="M99.4,41.137a6.909,6.909,0,1,1,6.91,6.909,6.917,6.917,0,0,1-6.91-6.909m1.251,0a5.659,5.659,0,1,0,5.659-5.659,5.665,5.665,0,0,0-5.659,5.659" transform="translate(42.697 16.879)" fill="#fff"/>
        <line id="Línea_197" data-name="Línea 197" y2="0.002" transform="translate(142.724 67.678)" fill="#eaad8f"/>
        <path id="Trazado_195324" data-name="Trazado 195324" d="M79.606,61.022s5.125,7.656,14.462,8.046c11.862.5,12.684-4.679,12.684-4.679a22.22,22.22,0,0,1-1.424-4.749c-.118-.633-.216-1.286-.294-1.964a54.043,54.043,0,0,1-.292-6.247q0-.831.015-1.722v-.069c-8.291-1.094-15.282-4.012-20.424-9.523l-1.289-.6-.869-.408-.1.488.309,1.488c1.468,7,.47,13.021-2.775,19.939" transform="translate(37.967 18.045)" fill="#eaad8f"/>
        <path id="Trazado_195325" data-name="Trazado 195325" d="M88.46,44.482c2.1,3.691,6.769,10.12,14.459,11.909a53.768,53.768,0,0,1-.292-6.247c0-.553,0-1.129.015-1.721-.157.035-.321.064-.483.092-4.382.741-9.407-1.046-13.7-4.033" transform="translate(40.083 19.33)" fill="#171612"/>
        <path id="Trazado_195326" data-name="Trazado 195326" d="M78.562,59.507s1.083-10.032,2.731-10.218,7.453,6.383,14.96,5.955,9.123-5.752,10.748-3.572,2.119,9.617,2.119,9.617-1.028,6.649-9.472,7.166-19.59-6.085-21.086-8.948" transform="translate(37.717 20.478)" fill="#314fa5"/>
        <path id="Trazado_195327" data-name="Trazado 195327" d="M82.441,50.641c-1.973,3.329-2.49,7.266-2.5,11.077a.642.642,0,0,0,1.282,0c.012-3.589.47-7.292,2.328-10.43a.641.641,0,0,0-1.106-.647" transform="translate(38.045 20.729)" fill="#5880eb"/>
        <path id="Trazado_195328" data-name="Trazado 195328" d="M85.363,52.547a29.2,29.2,0,0,0-2,11.6.642.642,0,0,0,1.282,0A28.288,28.288,0,0,1,86.6,52.888c.316-.761-.924-1.093-1.237-.341" transform="translate(38.864 21.156)" fill="#5880eb"/>
        <path id="Trazado_195329" data-name="Trazado 195329" d="M88.856,54.036a72.055,72.055,0,0,0-1.1,11.742.642.642,0,0,0,1.282,0,69.938,69.938,0,0,1,1.058-11.4c.142-.807-1.093-1.154-1.237-.341" transform="translate(39.914 21.503)" fill="#5880eb"/>
        <path id="Trazado_195330" data-name="Trazado 195330" d="M92.2,54.841q.022,6.232.043,12.463a.642.642,0,0,0,1.282,0q-.022-6.232-.043-12.463a.642.642,0,0,0-1.282,0" transform="translate(40.977 21.658)" fill="#5880eb"/>
        <path id="Trazado_195331" data-name="Trazado 195331" d="M96.885,67.653q-.394,0-.8-.016c-9.228-.369-17.395-8.392-17.738-8.733a.645.645,0,1,1,.909-.914c.081.079,8.16,8.009,16.88,8.358,9.584.377,12.233-6.48,12.341-6.772a.645.645,0,0,1,1.212.442c-.028.079-2.9,7.635-12.8,7.635" transform="translate(37.619 22.514)" fill="#5880eb"/>
        <path id="Trazado_195332" data-name="Trazado 195332" d="M96.117,54.154a42.389,42.389,0,0,1,1.74,12.031.641.641,0,0,0,1.281,0,43.6,43.6,0,0,0-1.784-12.372.642.642,0,0,0-1.237.341" transform="translate(41.906 21.453)" fill="#5880eb"/>
        <path id="Trazado_195333" data-name="Trazado 195333" d="M99.363,52.305a30.51,30.51,0,0,1,2.22,11.3.642.642,0,0,0,1.282,0A31.5,31.5,0,0,0,100.6,51.965c-.3-.757-1.544-.426-1.237.341" transform="translate(42.677 21.016)" fill="#5880eb"/>
        <path id="Trazado_195334" data-name="Trazado 195334" d="M72.777,35.566c.17,4.416,4.116,9.68,9.9,9.618h.155c.1.25.221.494.343.745.052.108.107.218.162.326a.185.185,0,0,0,.017.03c3.886,7.363,14.744,11.367,20.532,11.3a13.167,13.167,0,0,0,3.878-.655c6.079-1.566,6.906-9.891,5.7-16.184a24.33,24.33,0,0,0-.646-2.582c-.019-.055-.036-.11-.053-.165,0,0,1.715-8.932,2.047-12.813.641-7.522-3.945-14.964-20.419-15.828S74.375,18.835,73.43,24.285c-.16.908.228,6.267,1.158,7.1-1.526.852-1.868,2.7-1.811,4.183" transform="translate(36.333 10.923)" fill="#eaad8f"/>
        <path id="Trazado_195335" data-name="Trazado 195335" d="M93.508,30.008c-.035,1.136.416,2.073,1.007,2.09s1.1-.89,1.13-2.026S95.229,28,94.64,27.982s-1.1.89-1.131,2.026" transform="translate(41.289 15.386)" fill="#171612"/>
        <path id="Trazado_195336" data-name="Trazado 195336" d="M97.043,28.545a.3.3,0,0,0,.017-.536c-.121-.067-3.007-1.622-5.229.3a.3.3,0,1,0,.394.455c1.907-1.652,4.519-.243,4.545-.228a.3.3,0,0,0,.273.009" transform="translate(40.864 15.236)" fill="#171612"/>
        <path id="Trazado_195337" data-name="Trazado 195337" d="M101.5,30.384c-.033,1.136.416,2.073,1.007,2.09s1.1-.89,1.131-2.026-.418-2.073-1.007-2.09-1.1.89-1.131,2.026" transform="translate(43.198 15.476)" fill="#171612"/>
        <path id="Trazado_195338" data-name="Trazado 195338" d="M105.448,29.38a.3.3,0,0,0,.15-.108.3.3,0,0,0-.059-.421c-.114-.083-2.761-2.016-5.224-.41a.3.3,0,1,0,.33.5c2.115-1.379,4.509.372,4.534.389a.3.3,0,0,0,.27.046" transform="translate(42.884 15.344)" fill="#171612"/>
        <path id="Trazado_195339" data-name="Trazado 195339" d="M80.766,38.664h.155c.1.25.219.5.342.746.052.108.109.217.164.325a.113.113,0,0,0,.017.031,5.336,5.336,0,0,0,2.2-.969,4.227,4.227,0,0,0,1.128-1.321.6.6,0,0,0-1.046-.576,3.21,3.21,0,0,1-1.373,1.3,4.275,4.275,0,0,1-1.028.366,4.873,4.873,0,0,1-.555.1" transform="translate(38.244 17.444)" fill="#c6695d"/>
        <g id="Grupo_152866" data-name="Grupo 152866" transform="translate(146.391 49.088)" opacity="0.5">
          <g id="Grupo_152865" data-name="Grupo 152865">
            <g id="Grupo_152864" data-name="Grupo 152864" clip-path="url(#clip-path-5)">
              <path id="Trazado_195340" data-name="Trazado 195340" d="M102.866,34.042c.037.655,1.5,1.121,3.407,1.139a24.034,24.034,0,0,0-.646-2.582c-1.635.273-2.8.845-2.762,1.443" transform="translate(-102.865 -32.599)" fill="#c6695d"/>
            </g>
          </g>
        </g>
        <path id="Trazado_195341" data-name="Trazado 195341" d="M76.312,36.595c.374.261.746.525,1.128.776a5.655,5.655,0,1,0,3.182-.654,1.364,1.364,0,0,1-.826-1.268q.16-.007.323-.007a6.932,6.932,0,1,1-3.806,1.154" transform="translate(36.437 17.169)" fill="#fff"/>
        <path id="Trazado_195342" data-name="Trazado 195342" d="M98.829,41.57a2.059,2.059,0,0,1-1.254-.554.347.347,0,0,1,.5-.484,1.408,1.408,0,0,0,1.559.2.347.347,0,0,1,.276.637,2.267,2.267,0,0,1-1.077.2" transform="translate(42.238 18.361)" fill="#c6695d"/>
        <path id="Trazado_195343" data-name="Trazado 195343" d="M99.633,40.013l-.059,0a4.384,4.384,0,0,1-3.532-2.2A.536.536,0,0,1,97,37.324a3.316,3.316,0,0,0,2.664,1.614l.048,0a3.256,3.256,0,0,0,2.756-.887.537.537,0,0,1,.836.673,4.308,4.308,0,0,1-3.671,1.285" transform="translate(41.881 17.549)" fill="#c6695d"/>
        <path id="Trazado_195344" data-name="Trazado 195344" d="M100.22,37.036a.5.5,0,0,0,.269-.078l2.2-1.4a.5.5,0,0,0-.031-.862,7.207,7.207,0,0,1-3.563-4.941.5.5,0,0,0-.97.25,8.333,8.333,0,0,0,3.348,5.142l-1.52.97a.5.5,0,0,0,.269.922" transform="translate(42.389 15.719)" fill="#b4665e"/>
        <path id="Trazado_195345" data-name="Trazado 195345" d="M96.941,24.659a1.216,1.216,0,0,0,.745-2.269,3.529,3.529,0,0,0-2.457-.289,8.821,8.821,0,0,0-6.095,4.944s4.107-2.25,6.444-2.42a6.787,6.787,0,0,1,1.363.033" transform="translate(40.244 13.958)" fill="#171612"/>
        <path id="Trazado_195346" data-name="Trazado 195346" d="M101.425,24.834a1.216,1.216,0,0,1-.745-2.267,3.525,3.525,0,0,1,2.458-.29c4.488.938,4.779,4.143,4.779,4.143a16.132,16.132,0,0,0-5.13-1.619,6.79,6.79,0,0,0-1.363.033" transform="translate(42.853 14)" fill="#171612"/>
        <g id="Grupo_152869" data-name="Grupo 152869" transform="translate(127.876 49.87)" opacity="0.5">
          <g id="Grupo_152868" data-name="Grupo 152868">
            <g id="Grupo_152867" data-name="Grupo 152867" clip-path="url(#clip-path-6)">
              <path id="Trazado_195347" data-name="Trazado 195347" d="M96.24,34.369c.042.748-1.785,1.458-4.083,1.588s-4.193-.373-4.235-1.12S89.709,33.379,92,33.249s4.193.372,4.235,1.12" transform="translate(-87.922 -33.229)" fill="#c6695d"/>
            </g>
          </g>
        </g>
        <path id="Trazado_195348" data-name="Trazado 195348" d="M82.441,36.888a.594.594,0,0,1-.507-.457c-.955-4.125-5.981-5.733-6.032-5.749a.6.6,0,0,1,.352-1.139c.234.072,5.73,1.82,6.842,6.619a.6.6,0,0,1-.655.726" transform="translate(36.981 15.753)" fill="#c6695d"/>
        <path id="Trazado_195349" data-name="Trazado 195349" d="M76.945,34.294a.6.6,0,0,1-.446-.883,4.09,4.09,0,0,1,3.53-1.918.6.6,0,0,1,0,1.193,2.9,2.9,0,0,0-2.487,1.307.6.6,0,0,1-.595.3" transform="translate(37.205 16.226)" fill="#c6695d"/>
        <path id="Trazado_195350" data-name="Trazado 195350" d="M93.721,18.541a7.563,7.563,0,0,1-2.752,7.465,22.617,22.617,0,0,1-5.117,3.041s5.9,12.595,1.114,14.64-4.754-12-12.22-12.068c0,0-2.71-.453-2.625-5.161S79.666,8.073,91.948,8.324s23.405,5.838,24.182,14.428-1.141,6.981-1.141,6.981.665-5.047-5.4-8.565c-5.035-2.919-15.864-2.627-15.864-2.627" transform="translate(36.177 10.687)" fill="#171612"/>
        <path id="Trazado_195351" data-name="Trazado 195351" d="M70.853,179.646l-5.766-10.968a4.081,4.081,0,0,1,3.656-5.981l90.646.978-2.674,14.042Z" transform="translate(34.382 47.585)" fill="#171612"/>
        <path id="Trazado_195352" data-name="Trazado 195352" d="M153.947,184.919H72.825a3.115,3.115,0,0,1-3.155-3.545L75.2,131.255a4.062,4.062,0,0,1,3.936-3.545H160.26a3.113,3.113,0,0,1,3.153,3.545l-5.531,50.119a4.059,4.059,0,0,1-3.935,3.545" transform="translate(35.587 39.223)" fill="#fff"/>
        <path id="Trazado_195353" data-name="Trazado 195353" d="M71.368,186.248a.658.658,0,0,1-.085,0,.685.685,0,0,1-.595-.764l6.734-53.684a.684.684,0,0,1,1.358.17l-6.734,53.684a.684.684,0,0,1-.678.6" transform="translate(35.833 40.056)" fill="#171612"/>
        <path id="Trazado_195354" data-name="Trazado 195354" d="M103.092,152.838a7.141,7.141,0,0,0,6.623,7.748,7.371,7.371,0,0,0,7.746-6.831,7.141,7.141,0,0,0-6.623-7.748,7.371,7.371,0,0,0-7.746,6.831" transform="translate(43.575 43.593)" fill="#171612"/>
        <path id="Trazado_195355" data-name="Trazado 195355" d="M154.441,179.166H72.2a2.984,2.984,0,0,1-2.956-3.387l.783-5.73h88.263l-.892,6.538a2.984,2.984,0,0,1-2.956,2.58" transform="translate(35.483 49.342)" fill="#171612"/>
      </g>
    </g>
    <rect id="Rectángulo_45532" data-name="Rectángulo 45532" width="75" height="28" rx="9" transform="translate(589 3639.304)" fill="#2194e5"/>
    <rect id="Rectángulo_45535" data-name="Rectángulo 45535" width="84" height="28" rx="9" transform="translate(884 3667.304)" fill="#2194e5"/>
    <rect id="Rectángulo_45533" data-name="Rectángulo 45533" width="83" height="28" rx="9" transform="translate(602 3499.304)" fill="#2194e5"/>
    <rect id="Rectángulo_45534" data-name="Rectángulo 45534" width="81" height="28" rx="9" transform="translate(947 3463.304)" fill="#2194e5"/>
    <path id="Trazado_196173" data-name="Trazado 196173" d="M7.438,12.656H3.328L2.547,15H.055L4.289,3.625H6.461L10.719,15H8.227Zm-3.477-1.9H6.8L5.375,6.5Zm11.188,2.578a1.481,1.481,0,0,0,1.016-.344,1.2,1.2,0,0,0,.406-.914h2.117a2.9,2.9,0,0,1-.469,1.574,3.093,3.093,0,0,1-1.262,1.109,3.949,3.949,0,0,1-1.77.395A3.67,3.67,0,0,1,12.328,14a4.56,4.56,0,0,1-1.047-3.184v-.148A4.508,4.508,0,0,1,12.32,7.555a3.627,3.627,0,0,1,2.852-1.164,3.555,3.555,0,0,1,2.543.9,3.2,3.2,0,0,1,.973,2.4H16.57a1.551,1.551,0,0,0-.406-1.072,1.51,1.51,0,0,0-2.223.163,3.333,3.333,0,0,0-.4,1.866v.235a3.375,3.375,0,0,0,.4,1.878A1.377,1.377,0,0,0,15.148,13.336ZM22.68,4.469V6.547h1.445V8.2H22.68v4.219a1.007,1.007,0,0,0,.18.672.9.9,0,0,0,.688.2,3.6,3.6,0,0,0,.664-.055v1.711a4.648,4.648,0,0,1-1.367.2,2.156,2.156,0,0,1-2.422-2.4V8.2H19.188V6.547h1.234V4.469Zm7.766,9.672a2.831,2.831,0,0,1-2.312,1.016,2.67,2.67,0,0,1-2.074-.781,3.335,3.335,0,0,1-.73-2.289V6.547h2.258v5.467q0,1.322,1.2,1.322a1.63,1.63,0,0,0,1.578-.8V6.547h2.266V15H30.508ZM39.234,15a2.507,2.507,0,0,1-.227-.758,2.732,2.732,0,0,1-2.133.914,3,3,0,0,1-2.059-.719A2.312,2.312,0,0,1,34,12.625a2.389,2.389,0,0,1,1-2.062,4.915,4.915,0,0,1,2.879-.727h1.039V9.352a1.393,1.393,0,0,0-.3-.937,1.183,1.183,0,0,0-.949-.352,1.345,1.345,0,0,0-.895.273.929.929,0,0,0-.324.75H34.188a2.268,2.268,0,0,1,.453-1.359,3,3,0,0,1,1.281-.98,4.669,4.669,0,0,1,1.859-.355,3.689,3.689,0,0,1,2.48.785,2.747,2.747,0,0,1,.918,2.207v3.664a4.041,4.041,0,0,0,.336,1.82V15Zm-1.867-1.57a1.945,1.945,0,0,0,.922-.223,1.462,1.462,0,0,0,.625-.6V11.156H38.07q-1.7,0-1.8,1.172l-.008.133a.9.9,0,0,0,.3.7A1.153,1.153,0,0,0,37.367,13.43Zm10.3-4.766a6.134,6.134,0,0,0-.812-.062,1.654,1.654,0,0,0-1.68.867V15H42.914V6.547h2.133l.063,1.008a2.092,2.092,0,0,1,1.883-1.164,2.366,2.366,0,0,1,.7.1Z" transform="translate(607 3644.304)" fill="#fff"/>
    <path id="Trazado_196174" data-name="Trazado 196174" d="M5.219,12.18,7.8,3.625h2.609L6.445,15H4L.055,3.625h2.6Zm9.656,2.977a4.15,4.15,0,0,1-3.027-1.141,4.054,4.054,0,0,1-1.168-3.039v-.219a5.106,5.106,0,0,1,.492-2.277,3.612,3.612,0,0,1,1.395-1.547,3.914,3.914,0,0,1,2.059-.543,3.508,3.508,0,0,1,2.73,1.094,4.444,4.444,0,0,1,1,3.1v.922H12.969a2.1,2.1,0,0,0,.66,1.328,2,2,0,0,0,1.395.5,2.437,2.437,0,0,0,2.039-.945l1.109,1.242A3.389,3.389,0,0,1,16.8,14.754,4.511,4.511,0,0,1,14.875,15.156Zm-.258-6.945a1.411,1.411,0,0,0-1.09.455,2.357,2.357,0,0,0-.535,1.3h3.141V9.788a1.681,1.681,0,0,0-.406-1.165A1.456,1.456,0,0,0,14.617,8.211Zm9.766.453A6.134,6.134,0,0,0,23.57,8.6a1.654,1.654,0,0,0-1.68.867V15H19.633V6.547h2.133l.063,1.008a2.092,2.092,0,0,1,1.883-1.164,2.366,2.366,0,0,1,.7.1ZM27.852,15H25.586V6.547h2.266Zm-2.4-10.641a1.112,1.112,0,0,1,.34-.836,1.465,1.465,0,0,1,1.848,0,1.105,1.105,0,0,1,.344.836,1.108,1.108,0,0,1-.348.844,1.448,1.448,0,0,1-1.836,0A1.108,1.108,0,0,1,25.453,4.359ZM30.258,15V8.2H29V6.547h1.258V6.156a3.17,3.17,0,0,1,.98-2.457,3.945,3.945,0,0,1,2.723-.863,9.031,9.031,0,0,1,2.563.461L36.2,5.164a10,10,0,0,0-1.187-.293A5.835,5.835,0,0,0,34.1,4.8q-1.578,0-1.578,1.4v.344h1.664V8.2H32.523V15Zm7.32,0H35.313V6.547h2.266Zm5.383-1.664a1.481,1.481,0,0,0,1.016-.344,1.2,1.2,0,0,0,.406-.914H46.5a2.9,2.9,0,0,1-.469,1.574,3.093,3.093,0,0,1-1.262,1.109,3.949,3.949,0,0,1-1.77.395A3.67,3.67,0,0,1,40.141,14a4.56,4.56,0,0,1-1.047-3.184v-.148a4.508,4.508,0,0,1,1.039-3.117,3.627,3.627,0,0,1,2.852-1.164,3.555,3.555,0,0,1,2.543.9A3.2,3.2,0,0,1,46.5,9.7H44.383a1.551,1.551,0,0,0-.406-1.072,1.51,1.51,0,0,0-2.223.163,3.333,3.333,0,0,0-.4,1.866v.235a3.375,3.375,0,0,0,.4,1.878A1.377,1.377,0,0,0,42.961,13.336ZM52.688,15a2.507,2.507,0,0,1-.227-.758,2.732,2.732,0,0,1-2.133.914,3,3,0,0,1-2.059-.719,2.312,2.312,0,0,1-.816-1.812,2.389,2.389,0,0,1,1-2.062,4.915,4.915,0,0,1,2.879-.727h1.039V9.352a1.393,1.393,0,0,0-.3-.937,1.183,1.183,0,0,0-.949-.352,1.345,1.345,0,0,0-.895.273.929.929,0,0,0-.324.75H47.641a2.268,2.268,0,0,1,.453-1.359,3,3,0,0,1,1.281-.98,4.669,4.669,0,0,1,1.859-.355,3.689,3.689,0,0,1,2.48.785,2.747,2.747,0,0,1,.918,2.207v3.664a4.041,4.041,0,0,0,.336,1.82V15ZM50.82,13.43a1.945,1.945,0,0,0,.922-.223,1.462,1.462,0,0,0,.625-.6V11.156h-.844q-1.7,0-1.8,1.172l-.008.133a.9.9,0,0,0,.3.7A1.153,1.153,0,0,0,50.82,13.43Zm10.3-4.766A6.134,6.134,0,0,0,60.3,8.6a1.654,1.654,0,0,0-1.68.867V15H56.367V6.547H58.5l.063,1.008a2.092,2.092,0,0,1,1.883-1.164,2.366,2.366,0,0,1,.7.1Z" transform="translate(890 3672.304)" fill="#fff"/>
    <path id="Trazado_196172" data-name="Trazado 196172" d="M3.359,10.992V15H1.016V3.625H5.453a5.134,5.134,0,0,1,2.254.469A3.454,3.454,0,0,1,9.2,5.426a3.714,3.714,0,0,1,.523,1.965,3.266,3.266,0,0,1-1.145,2.637,4.767,4.767,0,0,1-3.168.965Zm0-1.9H5.453a2.059,2.059,0,0,0,1.418-.437,1.591,1.591,0,0,0,.488-1.25,1.876,1.876,0,0,0-.492-1.352,1.839,1.839,0,0,0-1.359-.531H3.359ZM13.57,15H11.3V3H13.57Zm6.758,0a2.507,2.507,0,0,1-.227-.758,2.732,2.732,0,0,1-2.133.914,3,3,0,0,1-2.059-.719,2.312,2.312,0,0,1-.816-1.812,2.389,2.389,0,0,1,1-2.062,4.915,4.915,0,0,1,2.879-.727h1.039V9.352a1.393,1.393,0,0,0-.3-.937,1.183,1.183,0,0,0-.949-.352,1.345,1.345,0,0,0-.895.273.929.929,0,0,0-.324.75H15.281a2.268,2.268,0,0,1,.453-1.359,3,3,0,0,1,1.281-.98,4.669,4.669,0,0,1,1.859-.355,3.689,3.689,0,0,1,2.48.785,2.747,2.747,0,0,1,.918,2.207v3.664a4.041,4.041,0,0,0,.336,1.82V15Zm-1.867-1.57a1.945,1.945,0,0,0,.922-.223,1.462,1.462,0,0,0,.625-.6V11.156h-.844q-1.7,0-1.8,1.172l-.008.133a.9.9,0,0,0,.3.7A1.153,1.153,0,0,0,18.461,13.43Zm7.625-6.883.07.977a2.951,2.951,0,0,1,2.43-1.133,2.453,2.453,0,0,1,2,.789,3.682,3.682,0,0,1,.672,2.359V15H29V9.581a1.47,1.47,0,0,0-.312-1.045,1.4,1.4,0,0,0-1.039-.325,1.553,1.553,0,0,0-1.43.814V15H23.961V6.547Zm10.773,8.609a4.15,4.15,0,0,1-3.027-1.141,4.054,4.054,0,0,1-1.168-3.039v-.219a5.106,5.106,0,0,1,.492-2.277,3.612,3.612,0,0,1,1.395-1.547,3.914,3.914,0,0,1,2.059-.543,3.508,3.508,0,0,1,2.73,1.094,4.444,4.444,0,0,1,1,3.1v.922H34.953a2.1,2.1,0,0,0,.66,1.328,2,2,0,0,0,1.395.5,2.437,2.437,0,0,0,2.039-.945l1.109,1.242a3.389,3.389,0,0,1-1.375,1.121A4.511,4.511,0,0,1,36.859,15.156ZM36.6,8.211a1.411,1.411,0,0,0-1.09.455,2.357,2.357,0,0,0-.535,1.3h3.141V9.788a1.681,1.681,0,0,0-.406-1.165A1.456,1.456,0,0,0,36.6,8.211ZM46.516,15a2.507,2.507,0,0,1-.227-.758,2.732,2.732,0,0,1-2.133.914,3,3,0,0,1-2.059-.719,2.312,2.312,0,0,1-.816-1.812,2.389,2.389,0,0,1,1-2.062,4.915,4.915,0,0,1,2.879-.727H46.2V9.352a1.393,1.393,0,0,0-.3-.937,1.183,1.183,0,0,0-.949-.352,1.345,1.345,0,0,0-.895.273.929.929,0,0,0-.324.75H41.469a2.268,2.268,0,0,1,.453-1.359,3,3,0,0,1,1.281-.98,4.669,4.669,0,0,1,1.859-.355,3.689,3.689,0,0,1,2.48.785,2.747,2.747,0,0,1,.918,2.207v3.664a4.041,4.041,0,0,0,.336,1.82V15Zm-1.867-1.57a1.945,1.945,0,0,0,.922-.223,1.462,1.462,0,0,0,.625-.6V11.156h-.844q-1.7,0-1.8,1.172l-.008.133a.9.9,0,0,0,.3.7A1.153,1.153,0,0,0,44.648,13.43Zm10.3-4.766a6.134,6.134,0,0,0-.812-.062,1.654,1.654,0,0,0-1.68.867V15H50.2V6.547h2.133l.063,1.008a2.092,2.092,0,0,1,1.883-1.164,2.366,2.366,0,0,1,.7.1Z" transform="translate(620 3504.304)" fill="#fff"/>
    <path id="Trazado_196175" data-name="Trazado 196175" d="M13.918,15H11.574V10.125H7V15H4.66V3.625H7V8.234h4.57V3.625h2.344Zm6.8,0a2.507,2.507,0,0,1-.227-.758,2.732,2.732,0,0,1-2.133.914,3,3,0,0,1-2.059-.719,2.312,2.312,0,0,1-.816-1.812,2.389,2.389,0,0,1,1-2.062,4.915,4.915,0,0,1,2.879-.727h1.039V9.352a1.393,1.393,0,0,0-.3-.937,1.183,1.183,0,0,0-.949-.352,1.345,1.345,0,0,0-.895.273.929.929,0,0,0-.324.75H15.668a2.268,2.268,0,0,1,.453-1.359,3,3,0,0,1,1.281-.98,4.669,4.669,0,0,1,1.859-.355,3.689,3.689,0,0,1,2.48.785,2.747,2.747,0,0,1,.918,2.207v3.664A4.041,4.041,0,0,0,23,14.867V15Zm-1.867-1.57a1.945,1.945,0,0,0,.922-.223,1.462,1.462,0,0,0,.625-.6V11.156h-.844q-1.7,0-1.8,1.172l-.008.133a.9.9,0,0,0,.3.7A1.153,1.153,0,0,0,18.848,13.43Zm9.063-.094a1.481,1.481,0,0,0,1.016-.344,1.2,1.2,0,0,0,.406-.914h2.117a2.9,2.9,0,0,1-.469,1.574,3.093,3.093,0,0,1-1.262,1.109,3.949,3.949,0,0,1-1.77.395A3.67,3.67,0,0,1,25.09,14a4.56,4.56,0,0,1-1.047-3.184v-.148a4.508,4.508,0,0,1,1.039-3.117,3.627,3.627,0,0,1,2.852-1.164,3.555,3.555,0,0,1,2.543.9,3.2,3.2,0,0,1,.973,2.4H29.332a1.551,1.551,0,0,0-.406-1.072,1.51,1.51,0,0,0-2.223.163,3.333,3.333,0,0,0-.4,1.866v.235a3.375,3.375,0,0,0,.4,1.878A1.377,1.377,0,0,0,27.91,13.336Zm8.719,1.82A4.15,4.15,0,0,1,33.6,14.016a4.054,4.054,0,0,1-1.168-3.039v-.219a5.106,5.106,0,0,1,.492-2.277A3.612,3.612,0,0,1,34.32,6.934a3.914,3.914,0,0,1,2.059-.543,3.508,3.508,0,0,1,2.73,1.094,4.444,4.444,0,0,1,1,3.1v.922H34.723a2.1,2.1,0,0,0,.66,1.328,2,2,0,0,0,1.395.5,2.437,2.437,0,0,0,2.039-.945l1.109,1.242a3.389,3.389,0,0,1-1.375,1.121A4.511,4.511,0,0,1,36.629,15.156Zm-.258-6.945a1.411,1.411,0,0,0-1.09.455,2.357,2.357,0,0,0-.535,1.3h3.141V9.788a1.681,1.681,0,0,0-.406-1.165A1.456,1.456,0,0,0,36.371,8.211Zm9.766.453a6.134,6.134,0,0,0-.812-.062,1.654,1.654,0,0,0-1.68.867V15H41.387V6.547H43.52l.063,1.008a2.092,2.092,0,0,1,1.883-1.164,2.366,2.366,0,0,1,.7.1Z" transform="translate(956 3468.304)" fill="#fff"/>
    <circle id="Elipse_5693" data-name="Elipse 5693" cx="13" cy="13" r="13" transform="translate(589 3500.304)" fill="#e7f65a"/>
    <circle id="Elipse_5694" data-name="Elipse 5694" cx="13" cy="13" r="13" transform="translate(1010 3463.304)" fill="#e7f65a"/>
    <circle id="Elipse_5695" data-name="Elipse 5695" cx="13" cy="13" r="13" transform="translate(955 3667.304)" fill="#e7f65a"/>
    <circle id="Elipse_5692" data-name="Elipse 5692" cx="13" cy="13" r="13" transform="translate(576 3639.304)" fill="#e7f65a"/>
  </g>
</svg>
