<svg xmlns="http://www.w3.org/2000/svg" xmlns:xlink="http://www.w3.org/1999/xlink" width="400.649" height="405.434" viewBox="0 0 400.649 405.434">
  <defs>
    <filter id="Rectángulo_45262" x="0" y="344.056" width="240.711" height="61.377" filterUnits="userSpaceOnUse">
      <feOffset dy="3" input="SourceAlpha"/>
      <feGaussianBlur stdDeviation="3" result="blur"/>
      <feFlood flood-opacity="0.161"/>
      <feComposite operator="in" in2="blur"/>
      <feComposite in="SourceGraphic"/>
    </filter>
    <clipPath id="clip-path">
      <rect id="Rectángulo_45574" data-name="Rectángulo 45574" width="353.971" height="404.317" fill="none"/>
    </clipPath>
    <clipPath id="clip-path-3">
      <path id="Trazado_195521" data-name="Trazado 195521" d="M22.884,0A18.453,18.453,0,0,0,4.431,18.454v81.582a18.453,18.453,0,0,0,18.453,18.454H92.811a18.453,18.453,0,0,0,18.453-18.454V81.074L123.9,84.716,111.264,67.988V18.454A18.453,18.453,0,0,0,92.811,0Z" transform="translate(-4.431)" fill="none"/>
    </clipPath>
    <clipPath id="clip-path-5">
      <rect id="Rectángulo_45571" data-name="Rectángulo 45571" width="139.76" height="17.78" fill="none"/>
    </clipPath>
  </defs>
  <g id="Grupo_153176" data-name="Grupo 153176" transform="translate(-175.565 -3827.821)">
    <g id="Grupo_152570" data-name="Grupo 152570" transform="translate(180 3849.256)">
      <g id="Grupo_152551" data-name="Grupo 152551" transform="translate(0 71.298) rotate(-90)">
        <rect id="Rectángulo_45220" data-name="Rectángulo 45220" width="51.491" height="15.333" transform="translate(71.298 22.172) rotate(180)" fill="#e8e8e8"/>
        <g id="Grupo_152556" data-name="Grupo 152556">
          <rect id="Rectángulo_45221" data-name="Rectángulo 45221" width="2.606" height="2.605" transform="translate(55.367)" fill="#1894f6"/>
          <rect id="Rectángulo_45222" data-name="Rectángulo 45222" width="2.605" height="2.605" transform="translate(49.83)" fill="#1894f6"/>
          <rect id="Rectángulo_45223" data-name="Rectángulo 45223" width="2.605" height="2.605" transform="translate(44.293)" fill="#1894f6"/>
          <rect id="Rectángulo_45224" data-name="Rectángulo 45224" width="2.605" height="2.605" transform="translate(38.757)" fill="#1894f6"/>
          <rect id="Rectángulo_45225" data-name="Rectángulo 45225" width="2.605" height="2.605" transform="translate(33.22)" fill="#1894f6"/>
          <rect id="Rectángulo_45226" data-name="Rectángulo 45226" width="2.605" height="2.605" transform="translate(27.683)" fill="#1894f6"/>
          <rect id="Rectángulo_45227" data-name="Rectángulo 45227" width="2.605" height="2.605" transform="translate(22.147)" fill="#1894f6"/>
          <rect id="Rectángulo_45228" data-name="Rectángulo 45228" width="2.605" height="2.605" transform="translate(16.61)" fill="#1894f6"/>
          <rect id="Rectángulo_45229" data-name="Rectángulo 45229" width="2.606" height="2.605" transform="translate(11.073)" fill="#1894f6"/>
          <rect id="Rectángulo_45230" data-name="Rectángulo 45230" width="2.605" height="2.605" transform="translate(5.537)" fill="#1894f6"/>
          <rect id="Rectángulo_45231" data-name="Rectángulo 45231" width="2.606" height="2.605" fill="#1894f6"/>
          <rect id="Rectángulo_45232" data-name="Rectángulo 45232" width="2.606" height="2.606" transform="translate(55.367 5.537)" fill="#1894f6"/>
          <rect id="Rectángulo_45233" data-name="Rectángulo 45233" width="2.605" height="2.606" transform="translate(49.83 5.537)" fill="#1894f6"/>
          <rect id="Rectángulo_45234" data-name="Rectángulo 45234" width="2.605" height="2.606" transform="translate(44.293 5.537)" fill="#1894f6"/>
          <rect id="Rectángulo_45235" data-name="Rectángulo 45235" width="2.605" height="2.606" transform="translate(38.757 5.537)" fill="#1894f6"/>
          <rect id="Rectángulo_45236" data-name="Rectángulo 45236" width="2.605" height="2.606" transform="translate(33.22 5.537)" fill="#1894f6"/>
          <rect id="Rectángulo_45237" data-name="Rectángulo 45237" width="2.605" height="2.606" transform="translate(27.683 5.537)" fill="#1894f6"/>
          <rect id="Rectángulo_45238" data-name="Rectángulo 45238" width="2.605" height="2.606" transform="translate(22.147 5.537)" fill="#1894f6"/>
          <rect id="Rectángulo_45239" data-name="Rectángulo 45239" width="2.605" height="2.606" transform="translate(16.61 5.537)" fill="#1894f6"/>
          <rect id="Rectángulo_45240" data-name="Rectángulo 45240" width="2.606" height="2.606" transform="translate(11.073 5.537)" fill="#1894f6"/>
          <rect id="Rectángulo_45241" data-name="Rectángulo 45241" width="2.605" height="2.606" transform="translate(5.537 5.537)" fill="#1894f6"/>
          <rect id="Rectángulo_45242" data-name="Rectángulo 45242" width="2.606" height="2.606" transform="translate(0 5.537)" fill="#1894f6"/>
          <rect id="Rectángulo_45243" data-name="Rectángulo 45243" width="2.606" height="2.605" transform="translate(55.367 11.073)" fill="#1894f6"/>
          <rect id="Rectángulo_45244" data-name="Rectángulo 45244" width="2.605" height="2.605" transform="translate(49.83 11.073)" fill="#1894f6"/>
          <rect id="Rectángulo_45245" data-name="Rectángulo 45245" width="2.605" height="2.605" transform="translate(44.293 11.073)" fill="#1894f6"/>
          <rect id="Rectángulo_45246" data-name="Rectángulo 45246" width="2.605" height="2.605" transform="translate(38.757 11.073)" fill="#1894f6"/>
          <rect id="Rectángulo_45247" data-name="Rectángulo 45247" width="2.605" height="2.605" transform="translate(33.22 11.073)" fill="#1894f6"/>
          <rect id="Rectángulo_45248" data-name="Rectángulo 45248" width="2.605" height="2.605" transform="translate(27.683 11.073)" fill="#1894f6"/>
          <rect id="Rectángulo_45249" data-name="Rectángulo 45249" width="2.605" height="2.605" transform="translate(22.147 11.073)" fill="#1894f6"/>
          <rect id="Rectángulo_45250" data-name="Rectángulo 45250" width="2.605" height="2.605" transform="translate(16.61 11.073)" fill="#1894f6"/>
          <rect id="Rectángulo_45251" data-name="Rectángulo 45251" width="2.606" height="2.605" transform="translate(11.073 11.073)" fill="#1894f6"/>
          <rect id="Rectángulo_45252" data-name="Rectángulo 45252" width="2.605" height="2.605" transform="translate(5.537 11.073)" fill="#1894f6"/>
          <rect id="Rectángulo_45253" data-name="Rectángulo 45253" width="2.606" height="2.605" transform="translate(0 11.073)" fill="#1894f6"/>
        </g>
      </g>
    </g>
    <g transform="matrix(1, 0, 0, 1, 175.56, 3827.82)" filter="url(#Rectángulo_45262)">
      <rect id="Rectángulo_45262-2" data-name="Rectángulo 45262" width="43.377" height="222.711" rx="13" transform="translate(231.71 350.06) rotate(90)" fill="#008cff"/>
    </g>
    <g id="Grupo_152897" data-name="Grupo 152897" transform="translate(222.242 3845.255)">
      <g id="Grupo_152906" data-name="Grupo 152906" transform="translate(0 -17.434)" clip-path="url(#clip-path)">
        <g id="Grupo_152898" data-name="Grupo 152898">
          <g id="Grupo_152897-2" data-name="Grupo 152897" clip-path="url(#clip-path)">
            <path id="Trazado_195450" data-name="Trazado 195450" d="M391.194,223.365l-11.64-5.639v-3.834a13.049,13.049,0,0,0-13.048-13.048H276.347A13.049,13.049,0,0,0,263.3,213.893v43.9a13.048,13.048,0,0,0,13.048,13.047h90.158a13.048,13.048,0,0,0,13.048-13.047V227.624Z" transform="translate(-39.978 -30.495)" fill="#eaeaea"/>
            <path id="Trazado_195451" data-name="Trazado 195451" d="M127.895,351.439,116.254,345.8v-3.834a13.048,13.048,0,0,0-13.048-13.048H13.048A13.049,13.049,0,0,0,0,341.967v43.9a13.048,13.048,0,0,0,13.048,13.047h90.157a13.047,13.047,0,0,0,13.048-13.047V355.7Z" transform="translate(0 -49.942)" fill="#eaeaea"/>
            <path id="Trazado_195452" data-name="Trazado 195452" d="M409.1,286.486l1.874,3.8,4.19.609-3.032,2.956.716,4.174-3.748-1.97-3.748,1.97.716-4.174-3.032-2.956,4.19-.609Z" transform="translate(-61.195 -43.499)" fill="#eaeaea"/>
            <path id="Trazado_195453" data-name="Trazado 195453" d="M23.581,201.642l1.874,3.8,4.19.609L26.613,209l.716,4.174-3.748-1.971-3.748,1.971L20.549,209l-3.032-2.956,4.19-.609Z" transform="translate(-2.66 -30.616)" fill="#eaeaea"/>
            <path id="Trazado_195454" data-name="Trazado 195454" d="M41.134,201.642l1.874,3.8,4.19.609L44.167,209l.716,4.174-3.748-1.971-3.748,1.971L38.1,209l-3.032-2.956,4.19-.609Z" transform="translate(-5.325 -30.616)" fill="#eaeaea"/>
            <rect id="Rectángulo_45566" data-name="Rectángulo 45566" width="6.858" height="15.636" transform="translate(236.125 55.636)" fill="#03091c"/>
            <rect id="Rectángulo_45567" data-name="Rectángulo 45567" width="6.858" height="37.743" transform="translate(236.125 81.872)" fill="#03091c"/>
            <path id="Trazado_195455" data-name="Trazado 195455" d="M240.318,326.9H82.569a9.723,9.723,0,0,1-9.723-9.723V33.974a9.723,9.723,0,0,1,9.723-9.723H240.318a9.724,9.724,0,0,1,9.723,9.723v283.2a9.724,9.724,0,0,1-9.723,9.723" transform="translate(-11.061 -3.682)" fill="#03091c"/>
            <path id="Trazado_195456" data-name="Trazado 195456" d="M206.234,32.833h0c0,9.19-7.45,9.318-16.64,9.318H135.74c-9.19,0-16.64-.128-16.64-9.318H90.626A9.724,9.724,0,0,0,80.9,42.556V311.932a9.724,9.724,0,0,0,9.723,9.723H234.707a9.724,9.724,0,0,0,9.723-9.723V42.556a9.724,9.724,0,0,0-9.723-9.723Z" transform="translate(-12.284 -4.985)" fill="#fff"/>
            <path id="Trazado_195457" data-name="Trazado 195457" d="M206.234,32.833h0c0,9.19-7.45,9.318-16.64,9.318H135.74c-9.19,0-16.64-.128-16.64-9.318H90.626A9.724,9.724,0,0,0,80.9,42.556V311.932a9.724,9.724,0,0,0,9.723,9.723H234.707a9.724,9.724,0,0,0,9.723-9.723V42.556a9.724,9.724,0,0,0-9.723-9.723Z" transform="translate(-12.284 -4.985)" fill="none" stroke="#03091c" stroke-linecap="round" stroke-linejoin="round" stroke-width="0.863"/>
            <rect id="Rectángulo_45568" data-name="Rectángulo 45568" width="177.195" height="302.648" rx="11.464" transform="translate(61.786 20.569)" fill="none" stroke="#03091c" stroke-linecap="round" stroke-linejoin="round" stroke-width="0.863"/>
            <path id="Trazado_195458" data-name="Trazado 195458" d="M197.025,37.032h-35.9a2.071,2.071,0,1,1,0-4.142h35.9a2.071,2.071,0,0,1,0,4.142" transform="translate(-24.149 -4.994)" fill="#fff"/>
            <path id="Trazado_195459" data-name="Trazado 195459" d="M152.8,34.932a2.229,2.229,0,1,1-2.229-2.228,2.229,2.229,0,0,1,2.229,2.228" transform="translate(-22.524 -4.966)" fill="#fff"/>
            <path id="Trazado_195460" data-name="Trazado 195460" d="M295.459,20.876l8.576-4.153V13.9a9.612,9.612,0,0,1,9.612-9.612h66.418a9.612,9.612,0,0,1,9.613,9.612V46.239a9.612,9.612,0,0,1-9.613,9.612H313.647a9.612,9.612,0,0,1-9.612-9.612V24.013Z" transform="translate(-44.861 -0.651)" fill="#2194e5"/>
            <path id="Trazado_195461" data-name="Trazado 195461" d="M325.187,16.916l1.449,4.459h4.688l-3.793,2.755,1.45,4.459-3.793-2.756-3.793,2.756,1.449-4.459-3.792-2.755h4.688Z" transform="translate(-48.443 -2.568)" fill="#fff"/>
            <line id="Línea_198" data-name="Línea 198" x1="62.016" transform="translate(270.582 32.741)" fill="none" stroke="#fff" stroke-linecap="round" stroke-linejoin="round" stroke-width="1.586"/>
            <line id="Línea_199" data-name="Línea 199" x1="62.016" transform="translate(270.582 37.449)" fill="none" stroke="#fff" stroke-linecap="round" stroke-linejoin="round" stroke-width="1.586"/>
            <line id="Línea_200" data-name="Línea 200" x1="53.273" transform="translate(279.324 42.157)" fill="none" stroke="#fff" stroke-linecap="round" stroke-linejoin="round" stroke-width="1.586"/>
            <path id="Trazado_195462" data-name="Trazado 195462" d="M384.994,19.327l.74,2.277a.746.746,0,0,0,.709.515h2.394L386.9,23.526a.744.744,0,0,0-.271.833l.74,2.277-1.937-1.407a.745.745,0,0,0-.876,0l-1.936,1.407.74-2.277a.744.744,0,0,0-.271-.833l-1.937-1.407h2.394a.746.746,0,0,0,.709-.515Zm0-2.412-1.449,4.459h-4.688l3.792,2.756L381.2,28.587l3.793-2.755,3.792,2.755-1.449-4.458,3.793-2.756h-4.688Zm6.137,4.459h0Z" transform="translate(-57.524 -2.568)" fill="#fff"/>
            <path id="Trazado_195463" data-name="Trazado 195463" d="M340.139,19.327l.74,2.277a.746.746,0,0,0,.709.515h2.394l-1.937,1.407a.744.744,0,0,0-.271.833l.74,2.277-1.937-1.407a.745.745,0,0,0-.876,0l-1.936,1.407.739-2.277a.744.744,0,0,0-.271-.833L336.3,22.119h2.394a.746.746,0,0,0,.709-.515Zm0-2.412-1.449,4.459H334l3.791,2.756-1.448,4.458,3.792-2.755,3.792,2.755-1.449-4.458,3.794-2.756h-4.689Zm6.137,4.459h0Z" transform="translate(-50.713 -2.568)" fill="#fff"/>
            <path id="Trazado_195464" data-name="Trazado 195464" d="M355.091,19.327l.74,2.277a.746.746,0,0,0,.709.515h2.394L357,23.526a.744.744,0,0,0-.271.833l.74,2.277-1.937-1.407a.745.745,0,0,0-.876,0l-1.936,1.407.74-2.277a.746.746,0,0,0-.271-.833l-1.937-1.407h2.394a.745.745,0,0,0,.708-.515Zm0-2.412-1.449,4.459h-4.688l3.792,2.756L351.3,28.587l3.793-2.755,3.792,2.755-1.449-4.458,3.793-2.756h-4.688Zm6.136,4.459h0Z" transform="translate(-52.984 -2.568)" fill="#fff"/>
            <path id="Trazado_195465" data-name="Trazado 195465" d="M370.042,19.327l.74,2.277a.746.746,0,0,0,.709.515h2.394l-1.937,1.407a.744.744,0,0,0-.271.833l.74,2.277L370.48,25.23a.745.745,0,0,0-.876,0l-1.936,1.407.74-2.277a.744.744,0,0,0-.271-.833L366.2,22.119h2.394a.745.745,0,0,0,.709-.515Zm0-2.412-1.449,4.459h-4.688l3.792,2.756-1.449,4.458,3.793-2.755,3.793,2.755-1.45-4.458,3.793-2.756h-4.688Zm6.137,4.459h0Z" transform="translate(-55.254 -2.568)" fill="#fff"/>
            <path id="Trazado_195466" data-name="Trazado 195466" d="M295.459,86.543l8.771-4.248V79.406a9.83,9.83,0,0,1,9.83-9.831H331.57a9.83,9.83,0,0,1,9.83,9.831V95.1a9.83,9.83,0,0,1-9.83,9.831H314.06a9.83,9.83,0,0,1-9.83-9.831V89.751Z" transform="translate(-44.861 -10.564)" fill="#2194e5"/>
            <path id="Trazado_195467" data-name="Trazado 195467" d="M316.968,89a7.932,7.932,0,1,0,7.933-7.932A7.932,7.932,0,0,0,316.968,89Z" transform="translate(-48.127 -12.308)" fill="none" stroke="#fff" stroke-linecap="round" stroke-linejoin="round" stroke-width="1.025"/>
            <path id="Trazado_195468" data-name="Trazado 195468" d="M329.467,95.159a26.781,26.781,0,0,0-7.667-.022" transform="translate(-48.861 -14.405)" fill="none" stroke="#fff" stroke-linecap="round" stroke-linejoin="round" stroke-width="1.025"/>
            <path id="Trazado_195469" data-name="Trazado 195469" d="M327.751,88.219a1.648,1.648,0,1,0,1.648-1.648,1.648,1.648,0,0,0-1.648,1.648" transform="translate(-49.764 -13.145)" fill="#fff"/>
            <path id="Trazado_195470" data-name="Trazado 195470" d="M321,88.219a1.648,1.648,0,1,0,1.648-1.648A1.648,1.648,0,0,0,321,88.219" transform="translate(-48.74 -13.145)" fill="#fff"/>
            <path id="Trazado_195471" data-name="Trazado 195471" d="M352.212,86.543l8.77-4.248V79.406a9.831,9.831,0,0,1,9.831-9.831h17.509a9.83,9.83,0,0,1,9.83,9.831V95.1a9.831,9.831,0,0,1-9.83,9.831H370.813a9.832,9.832,0,0,1-9.831-9.831V89.751Z" transform="translate(-53.478 -10.564)" fill="#2194e5"/>
            <path id="Trazado_195472" data-name="Trazado 195472" d="M373.722,88.995a7.932,7.932,0,1,0,7.933-7.933A7.932,7.932,0,0,0,373.722,88.995Z" transform="translate(-56.744 -12.308)" fill="none" stroke="#fff" stroke-linecap="round" stroke-linejoin="round" stroke-width="1.025"/>
            <path id="Trazado_195473" data-name="Trazado 195473" d="M386.222,95.159a26.811,26.811,0,0,0-7.667-.022" transform="translate(-57.478 -14.405)" fill="none" stroke="#fff" stroke-linecap="round" stroke-linejoin="round" stroke-width="1.025"/>
            <path id="Trazado_195474" data-name="Trazado 195474" d="M384.47,88.219c-.727.549.738,1.648,1.648,1.648a1.648,1.648,0,1,0,0-3.3c-.91,0-1.108,1.241-1.648,1.648" transform="translate(-58.346 -13.145)" fill="#fff"/>
            <path id="Trazado_195475" data-name="Trazado 195475" d="M380.9,88.219c.726.549-.738,1.648-1.648,1.648a1.648,1.648,0,1,1,0-3.3c.91,0,1.109,1.241,1.648,1.648" transform="translate(-57.334 -13.145)" fill="#fff"/>
            <path id="Trazado_195476" data-name="Trazado 195476" d="M82.074,158.936l-6.527-3.161v-2.15a7.316,7.316,0,0,0-7.316-7.316H17.678a7.316,7.316,0,0,0-7.315,7.316V178.24a7.316,7.316,0,0,0,7.315,7.316H68.231a7.316,7.316,0,0,0,7.316-7.316V161.324Z" transform="translate(-1.573 -22.215)" fill="#2194e5"/>
            <path id="Trazado_195477" data-name="Trazado 195477" d="M34.175,169.41a5.48,5.48,0,1,1-5.48-5.48,5.48,5.48,0,0,1,5.48,5.48" transform="translate(-3.525 -24.89)" fill="#fff"/>
            <path id="Trazado_195478" data-name="Trazado 195478" d="M52.718,169.41a5.48,5.48,0,1,1-5.48-5.48,5.48,5.48,0,0,1,5.48,5.48" transform="translate(-6.34 -24.89)" fill="#fff"/>
            <path id="Trazado_195479" data-name="Trazado 195479" d="M71.26,169.41a5.48,5.48,0,1,1-5.48-5.48,5.48,5.48,0,0,1,5.48,5.48" transform="translate(-9.156 -24.89)" fill="#fff"/>
            <path id="Trazado_195480" data-name="Trazado 195480" d="M111.264,67.988V18.454A18.453,18.453,0,0,0,92.811,0H22.884A18.452,18.452,0,0,0,4.431,18.454v81.582a18.453,18.453,0,0,0,18.453,18.453H92.811a18.453,18.453,0,0,0,18.453-18.453V81.075L123.9,84.717Z" transform="translate(-0.673 0)" fill="#2194e5"/>
          </g>
        </g>
        <g id="Grupo_152900" data-name="Grupo 152900" transform="translate(3.758)">
          <g id="Grupo_152899" data-name="Grupo 152899" clip-path="url(#clip-path-3)">
            <path id="Trazado_195481" data-name="Trazado 195481" d="M112.779,145.206v-33.16c-4.407-.018-6.278-3.068-7.809-2.9s-6.482-1.024-6.482-1.024c-4.749-1.335-9.511-2.733-14.13-4.4a30.848,30.848,0,0,0-4.525-1.38,30.819,30.819,0,0,0-5.7-.4l-30.238-.23a18.649,18.649,0,0,0-3.843.236,40.766,40.766,0,0,0-4.177,1.352c-1.237.392-2.594.252-3.753.611-1.449.449-2.867,1.26-4.32,1.76-2.619.9-5.276,1.707-7.944,2.453,0,0-4.946,1.194-6.482,1.024s-3.484,2.1-7.846,2.9c-.119.021-2.952.09-3.159.183l.1,32.975Z" transform="translate(-4.119 -15.443)" fill="#683424"/>
            <path id="Trazado_195482" data-name="Trazado 195482" d="M121.191,140.137a33.02,33.02,0,0,1,5.262-22.956" transform="translate(-22.11 -17.792)" fill="none" stroke="#03091c" stroke-linecap="round" stroke-linejoin="round" stroke-width="0.87"/>
            <path id="Trazado_195483" data-name="Trazado 195483" d="M26.606,111.082a172.438,172.438,0,0,1-1.943,27.811" transform="translate(-7.503 -16.866)" fill="none" stroke="#03091c" stroke-linecap="round" stroke-linejoin="round" stroke-width="0.87"/>
            <path id="Trazado_195484" data-name="Trazado 195484" d="M90.125,102.285s-9.807-3.07-10.575-7.59V81.221l-14.2,1.764-14.2-1.764V94.695c-.768,4.52-10.575,7.59-10.575,7.59,5.674,15.157,21.755,17.278,24.561,17.535v.033l.213-.015c.139.011.213.015.213.015v-.033c2.806-.257,18.887-2.378,24.561-17.535" transform="translate(-9.919 -12.332)" fill="#fdbe8b"/>
            <path id="Trazado_195485" data-name="Trazado 195485" d="M81.438,94.173V77.785s-.032,0-.032,0L67.223,79.547,63.6,79.1S53.04,77.785,53.04,77.789l-.033,0V94.107l.033.022c3.229,2.236,7.032,3.633,10.6,5.271a13.621,13.621,0,0,1,5,3.264,12,12,0,0,1,2.183,5.271c.468,2.165.79,4.357,1.065,6.554a12.1,12.1,0,0,0,.35,3.045c.407.878.067.675,1.073.617,2.148-.125,4.884-1.735,6.726-2.744a27.03,27.03,0,0,0,6.842-5.273c.589-.634,5.732-8.186,5.134-8.371,0,0-9.807-3.07-10.575-7.59" transform="translate(-11.807 -11.811)" fill="#ffaa71"/>
            <path id="Trazado_195486" data-name="Trazado 195486" d="M98.776,41.625a3.079,3.079,0,0,1,2.558.944,4.511,4.511,0,0,1,1,2.1,8.677,8.677,0,0,1-.893,6.129c-1.062,1.881-2.852,3.416-3.282,5.532a20.841,20.841,0,0,1-.416,2.886,3.323,3.323,0,0,1-3.2,2.145q.215-5.734.529-11.463c.146-2.656.056-7.861,3.7-8.275" transform="translate(-18.114 -6.317)" fill="#fdbe8b"/>
            <path id="Trazado_195487" data-name="Trazado 195487" d="M96.575,51.128c-.007-.266,0-.53.008-.795a23.779,23.779,0,0,1,2.577-8.724,3.059,3.059,0,0,0-.384.017c-3.642.414-3.552,5.619-3.7,8.275q-.313,5.729-.529,11.463a3.1,3.1,0,0,0,1.2-.2c.172-1.233.414-2.463.662-3.68a16.652,16.652,0,0,0,.374-2.439,15.848,15.848,0,0,0-.092-2.232c-.051-.562-.1-1.125-.117-1.688" transform="translate(-18.114 -6.318)" fill="#ffaa71"/>
            <path id="Trazado_195488" data-name="Trazado 195488" d="M97.757,50.066q-.907,1.421-1.734,2.891a.263.263,0,0,0-.046.137.268.268,0,0,0,.106.168A17.477,17.477,0,0,1,97.94,55.3" transform="translate(-18.331 -7.602)" fill="none" stroke="#03091c" stroke-linecap="round" stroke-linejoin="round" stroke-width="0.87"/>
            <path id="Trazado_195489" data-name="Trazado 195489" d="M101.567,44.059a5.565,5.565,0,0,1,.886,3.053,7.768,7.768,0,0,1-.691,3.125" transform="translate(-19.18 -6.69)" fill="none" stroke="#03091c" stroke-linecap="round" stroke-linejoin="round" stroke-width="0.87"/>
            <path id="Trazado_195490" data-name="Trazado 195490" d="M39.236,41.625a3.078,3.078,0,0,0-2.558.944,4.5,4.5,0,0,0-1,2.1,8.672,8.672,0,0,0,.892,6.129c1.062,1.881,2.852,3.416,3.282,5.532a20.843,20.843,0,0,0,.416,2.886,3.323,3.323,0,0,0,3.2,2.145q-.215-5.734-.529-11.463c-.146-2.656-.056-7.861-3.7-8.275" transform="translate(-9.143 -6.317)" fill="#fdbe8b"/>
            <path id="Trazado_195491" data-name="Trazado 195491" d="M42.043,51.128c.007-.266,0-.53-.008-.795a23.78,23.78,0,0,0-2.577-8.724,3.059,3.059,0,0,1,.384.017c3.642.414,3.552,5.619,3.7,8.275q.313,5.729.529,11.463a3.1,3.1,0,0,1-1.2-.2c-.172-1.233-.414-2.463-.662-3.68a16.538,16.538,0,0,1-.373-2.439,15.721,15.721,0,0,1,.091-2.232c.051-.562.1-1.125.117-1.688" transform="translate(-9.749 -6.318)" fill="#ffaa71"/>
            <path id="Trazado_195492" data-name="Trazado 195492" d="M41.335,50.066q.908,1.421,1.734,2.891a.263.263,0,0,1,.046.137.268.268,0,0,1-.106.168A17.479,17.479,0,0,0,41.152,55.3" transform="translate(-10.007 -7.602)" fill="none" stroke="#03091c" stroke-linecap="round" stroke-linejoin="round" stroke-width="0.87"/>
            <path id="Trazado_195493" data-name="Trazado 195493" d="M37.718,44.059a5.565,5.565,0,0,0-.886,3.053,7.782,7.782,0,0,0,.691,3.125" transform="translate(-9.351 -6.69)" fill="none" stroke="#03091c" stroke-linecap="round" stroke-linejoin="round" stroke-width="0.87"/>
            <path id="Trazado_195494" data-name="Trazado 195494" d="M88.57,39.328c0-14.624-10.281-26.48-22.962-26.48S42.646,24.7,42.646,39.328a30.806,30.806,0,0,0,.173,3.2l1.4,15.443a11.258,11.258,0,0,0,1.736,5.066c2.824,4.409,9.518,12.935,19.338,13.549v.04c.108,0,.212-.015.32-.02s.211.017.32.02v-.04c9.819-.614,16.513-9.14,19.338-13.549A11.257,11.257,0,0,0,87,57.969l1.4-15.443a30.572,30.572,0,0,0,.173-3.2" transform="translate(-10.233 -1.951)" fill="#fdbe8b"/>
            <path id="Trazado_195495" data-name="Trazado 195495" d="M79.305,73.4a4.754,4.754,0,0,1-4.351,1.09" transform="translate(-15.139 -11.145)" fill="none" stroke="#03091c" stroke-linecap="round" stroke-linejoin="round" stroke-width="0.87"/>
            <path id="Trazado_195496" data-name="Trazado 195496" d="M59.676,49.476c0,1.7-.959,3.07-2.142,3.07s-2.143-1.375-2.143-3.07.96-3.07,2.143-3.07,2.142,1.375,2.142,3.07" transform="translate(-12.168 -7.046)" fill="#03091c"/>
            <path id="Trazado_195497" data-name="Trazado 195497" d="M60.319,47.7a.768.768,0,1,1-.768-.768.767.767,0,0,1,.768.768" transform="translate(-12.684 -7.126)" fill="#fff"/>
            <path id="Trazado_195498" data-name="Trazado 195498" d="M58.708,48.806a.213.213,0,1,1-.213-.213.213.213,0,0,1,.213.213" transform="translate(-12.607 -7.378)" fill="#fff"/>
            <path id="Trazado_195499" data-name="Trazado 195499" d="M83.808,49.476c0,1.7-.959,3.07-2.142,3.07s-2.143-1.375-2.143-3.07.96-3.07,2.143-3.07,2.142,1.375,2.142,3.07" transform="translate(-15.832 -7.046)" fill="#03091c"/>
            <path id="Trazado_195500" data-name="Trazado 195500" d="M84.45,47.7a.768.768,0,1,1-.768-.768.767.767,0,0,1,.768.768" transform="translate(-16.348 -7.126)" fill="#fff"/>
            <path id="Trazado_195501" data-name="Trazado 195501" d="M82.839,48.806a.213.213,0,1,1-.213-.213.213.213,0,0,1,.213.213" transform="translate(-16.271 -7.378)" fill="#fff"/>
            <path id="Trazado_195502" data-name="Trazado 195502" d="M69.237,45.677l.213,3.113L67.532,61.327l2.3.085v.81" transform="translate(-14.012 -6.935)" fill="none" stroke="#03091c" stroke-linecap="round" stroke-linejoin="round" stroke-width="0.87"/>
            <path id="Trazado_195503" data-name="Trazado 195503" d="M85.172,17.19c-1.747-4.765-9.946-8.373-19.8-8.373-10.42,0-18.991,4.03-20.043,9.2-5.917,8.144-1.8,31.738-1.8,31.738l.729.073,1.328-5.349c.653-2.634,1.61-5.272,1.148-8-.161-.95-.85-2.787-.48-3.68.17-.409.877-.929,1.187-1.262l3.121-3.365,4.554-4.908c3.005.908,6.509,3.178,10.254,3.178,3.655,0,7.08-2.246,10.035-3.114.564-.165,4.214,3.942,4.684,4.382,1.648,1.543,3.286,3.1,4.948,4.628-.737,1.547-.327,3.583-.595,5.282-.168,1.065,1.976,12.254,2.489,12.2l.729-.073S92.083,24.41,85.172,17.19" transform="translate(-10.155 -1.339)" fill="#683424"/>
            <path id="Trazado_195504" data-name="Trazado 195504" d="M66.409,29.163a9.133,9.133,0,0,0,7.484.237,16.424,16.424,0,0,0,4.55-2.735c.323-.263,1.628-1.1.759-1.351-.376-.108-2.008,1.052-2.417,1.241a28.743,28.743,0,0,1-5.121,1.808c-1.06.265-4.258,1.343-5.254.8" transform="translate(-13.841 -3.842)" fill="#683424"/>
            <path id="Trazado_195505" data-name="Trazado 195505" d="M91.931,19.219a1.587,1.587,0,0,0,.343-.995l.427-4.055" transform="translate(-17.717 -2.151)" fill="none" stroke="#683424" stroke-linecap="round" stroke-linejoin="round" stroke-width="0.87"/>
            <path id="Trazado_195506" data-name="Trazado 195506" d="M91.858,19.271a12.89,12.89,0,0,1,3.8-.81" transform="translate(-17.706 -2.803)" fill="none" stroke="#683424" stroke-linecap="round" stroke-linejoin="round" stroke-width="0.87"/>
            <path id="Trazado_195507" data-name="Trazado 195507" d="M81.472,24.6a22.585,22.585,0,0,0,7.751-5.954" transform="translate(-16.129 -2.831)" fill="none" stroke="#03091c" stroke-linecap="round" stroke-linejoin="round" stroke-width="0.87"/>
            <path id="Trazado_195508" data-name="Trazado 195508" d="M47.714,18.925a4.647,4.647,0,0,0,2.014,2.2,13.861,13.861,0,0,0,2.8,1.152" transform="translate(-11.003 -2.873)" fill="none" stroke="#03091c" stroke-linecap="round" stroke-linejoin="round" stroke-width="0.87"/>
            <path id="Trazado_195509" data-name="Trazado 195509" d="M70.388,10.7a7.66,7.66,0,0,1,3.42.3" transform="translate(-14.446 -1.613)" fill="none" stroke="#03091c" stroke-linecap="round" stroke-linejoin="round" stroke-width="0.87"/>
            <path id="Trazado_195510" data-name="Trazado 195510" d="M45.609,38.959c.055.97.065,1.944.031,2.915" transform="translate(-10.683 -5.915)" fill="none" stroke="#03091c" stroke-linecap="round" stroke-linejoin="round" stroke-width="0.87"/>
            <path id="Trazado_195511" data-name="Trazado 195511" d="M93.293,40.08a4.166,4.166,0,0,0-.147,1.6" transform="translate(-17.898 -6.086)" fill="none" stroke="#03091c" stroke-linecap="round" stroke-linejoin="round" stroke-width="0.87"/>
            <path id="Trazado_195512" data-name="Trazado 195512" d="M80.82,54.051a6.366,6.366,0,0,1,2.563-.473" transform="translate(-16.03 -8.135)" fill="none" stroke="#03091c" stroke-linecap="round" stroke-linejoin="round" stroke-width="0.87"/>
            <path id="Trazado_195513" data-name="Trazado 195513" d="M55.3,52.887a7.651,7.651,0,0,1,2.446,1.282" transform="translate(-12.154 -8.03)" fill="none" stroke="#03091c" stroke-linecap="round" stroke-linejoin="round" stroke-width="0.87"/>
            <line id="Línea_201" data-name="Línea 201" x2="9.765" transform="translate(61.235 37.052)" fill="none" stroke="#03091c" stroke-linecap="round" stroke-linejoin="round" stroke-width="1.5"/>
            <line id="Línea_202" data-name="Línea 202" x1="7.187" transform="translate(41.519 37.538)" fill="none" stroke="#03091c" stroke-linecap="round" stroke-linejoin="round" stroke-width="1.5"/>
            <path id="Trazado_195514" data-name="Trazado 195514" d="M66.3,125.206c1.031.054,22.47.916,26.693-20.286-1.059-.353-2.115-.713-3.162-1.092q-.711-.258-1.427-.5c-.285,5.795-3.382,14.152-18.175,16.548a24.742,24.742,0,0,1-7.968-.019c-15.48-2.546-18.076-11.652-18.089-17.43-.947.305-1.872.686-2.821.986a13,13,0,0,1-2.522.38,1.907,1.907,0,0,0-.82.126c4.488,20.917,27.266,21.346,28.291,21.291" transform="translate(-9.529 -15.551)" fill="#03091c"/>
            <path id="Trazado_195515" data-name="Trazado 195515" d="M39.461,60.81h3.4V39.735h-3.4A4.662,4.662,0,0,0,34.8,44.4V56.149a4.662,4.662,0,0,0,4.662,4.662" transform="translate(-9.042 -6.033)" fill="#fff"/>
            <path id="Trazado_195516" data-name="Trazado 195516" d="M40.586,56.8,40.294,71.17l22.144,4.371" transform="translate(-9.876 -8.624)" fill="none" stroke="#03091c" stroke-linecap="round" stroke-linejoin="round" stroke-width="0.87"/>
            <path id="Trazado_195517" data-name="Trazado 195517" d="M61.852,77.9c-.131,1.2,1.73,2.387,4.156,2.651s4.5-.494,4.63-1.693-1.73-2.387-4.156-2.651-4.5.494-4.63,1.693" transform="translate(-13.149 -11.564)" fill="#03091c"/>
            <line id="Línea_203" data-name="Línea 203" y2="18.599" transform="translate(32.487 34.721)" fill="none" stroke="#03091c" stroke-linecap="round" stroke-linejoin="round" stroke-width="0.87"/>
            <path id="Trazado_195518" data-name="Trazado 195518" d="M65.692,76.778s4.856,0,4.856,2.282" transform="translate(-13.733 -11.658)" fill="none" stroke="#fff" stroke-linecap="round" stroke-linejoin="round" stroke-width="0.87"/>
            <path id="Trazado_195519" data-name="Trazado 195519" d="M92.747,34.247c1.941-9.486,3.56-26.883-22.969-26.883" transform="translate(-14.353 -1.118)" fill="none" stroke="#03091c" stroke-linecap="round" stroke-linejoin="round" stroke-width="0.891"/>
            <rect id="Rectángulo_45570" data-name="Rectángulo 45570" width="1.026" height="12.449" transform="translate(77.861 33.052)" fill="#fff"/>
            <path id="Trazado_195520" data-name="Trazado 195520" d="M41.51,34.247c-1.529-9.486-2.8-26.883,24.135-26.883" transform="translate(-9.958 -1.118)" fill="none" stroke="#03091c" stroke-linecap="round" stroke-linejoin="round" stroke-width="0.891"/>
          </g>
        </g>
        <g id="Grupo_152905" data-name="Grupo 152905">
          <g id="Grupo_152904" data-name="Grupo 152904" clip-path="url(#clip-path)">
            <path id="Trazado_195522" data-name="Trazado 195522" d="M114.154,428.471s2.277,9.926,19.928,9l.929-9.755s-14.309-4.059-20.857.757" transform="translate(-17.333 -64.699)" fill="#03091c"/>
            <path id="Trazado_195523" data-name="Trazado 195523" d="M308.892,426.045s-1.858,5.458-16.141,5.342l-.116-7.084Z" transform="translate(-44.432 -64.424)" fill="#03091c"/>
            <path id="Trazado_195524" data-name="Trazado 195524" d="M269.084,402.493c0,.522,6.218,52.023,6.218,52.023H127.245L137,400.926Z" transform="translate(-19.32 -60.875)" fill="#265472"/>
            <g id="Grupo_152903" data-name="Grupo 152903" transform="translate(112.61 349.38)" style="mix-blend-mode: multiply;isolation: isolate">
              <g id="Grupo_152902" data-name="Grupo 152902">
                <g id="Grupo_152901" data-name="Grupo 152901" clip-path="url(#clip-path-5)">
                  <path id="Trazado_195525" data-name="Trazado 195525" d="M271.547,413.429l-134.081-1.5-4.7,17.781.776-.012c15.338-.193,101.038.278,111.688-1.634,7.046-1.264,16.5-4.149,23.685-2.491.974.225,2.7.4,3.611.544a112.553,112.553,0,0,1-.982-12.685" transform="translate(-132.769 -411.925)" fill="#265472"/>
                </g>
              </g>
            </g>
            <line id="Línea_204" data-name="Línea 204" y2="33.222" transform="translate(181.916 360.712)" fill="none" stroke="#03091c" stroke-linecap="round" stroke-linejoin="round" stroke-width="0.847"/>
            <path id="Trazado_195526" data-name="Trazado 195526" d="M274.122,412.188a39.35,39.35,0,0,0,17.639,31.168" transform="translate(-41.621 -62.585)" fill="none" stroke="#03091c" stroke-linecap="round" stroke-linejoin="round" stroke-width="0.847"/>
            <path id="Trazado_195527" data-name="Trazado 195527" d="M154.428,417.554a13.058,13.058,0,0,1-1.769,6.053c-4.057,8.119-10.142,15.733-18.6,19.033" transform="translate(-20.356 -63.4)" fill="none" stroke="#03091c" stroke-linecap="round" stroke-linejoin="round" stroke-width="0.847"/>
            <path id="Trazado_195528" data-name="Trazado 195528" d="M292.927,318.835s8.809,6.306,22.28-8.79L302.491,290.7a291.942,291.942,0,0,0-9.564,28.134" transform="translate(-44.477 -44.139)" fill="#03091c"/>
            <path id="Trazado_195529" data-name="Trazado 195529" d="M339.422,258.193s-2.445,7.793-5.811,10.546l-3.57-7.649s2.953-3.142,9.381-2.9" transform="translate(-50.112 -39.201)" fill="#03091c"/>
            <path id="Trazado_195530" data-name="Trazado 195530" d="M102,293.668s-33.733-40.481-10.451-63.4c0,0,41.925,19.74,10.451,63.4" transform="translate(-12.656 -34.962)" fill="#03091c"/>
            <path id="Trazado_195531" data-name="Trazado 195531" d="M118.27,254.885l-56.1,31.9s-20.8,4.233-26.46-11.953c-2.025-5.795.689-12.571,6.2-16.137l45.736-29.565L115.7,212.368s33.195,3.7,2.572,42.517" transform="translate(-5.32 -32.245)" fill="#fdbe8b"/>
            <path id="Trazado_195532" data-name="Trazado 195532" d="M124.865,212.368,96.813,229.132l-1.405.908A104.231,104.231,0,0,1,99,271.056l28.439-16.171c30.623-38.812-2.572-42.517-2.572-42.517" transform="translate(-14.486 -32.245)" fill="#ffaa71"/>
            <path id="Trazado_195533" data-name="Trazado 195533" d="M304.914,252.445s-16.025,18.812-9.29,37.856l24.871,46.188s14.632,21.135,30.425,5.574a69.259,69.259,0,0,0,7.762-20.585,16.144,16.144,0,0,0-1.9-11.1l-34.916-57.7s-7.664-10.684-16.954-.232" transform="translate(-44.635 -37.634)" fill="#fdbe8b"/>
            <path id="Trazado_195534" data-name="Trazado 195534" d="M318.347,276.439a49.991,49.991,0,0,1,9.034-11.076c.377-.37.761-.738,1.146-1.1l-6.659-11.582s-7.664-10.684-16.954-.232c0,0-16.025,18.812-9.29,37.856L309.8,316.954a107.551,107.551,0,0,1,4.159-29.038,54.989,54.989,0,0,1,4.392-11.477" transform="translate(-44.635 -37.634)" fill="#ffaa71"/>
            <path id="Trazado_195535" data-name="Trazado 195535" d="M123.905,203.1c5.939-1.092,8.594-4.181,10.684-3.948s8.825-1.394,8.825-1.394c3.633-1.015,7.251-2.113,10.817-3.34,1.979-.681,3.909-1.786,5.882-2.4,1.578-.488,3.426-.3,5.11-.831a55.632,55.632,0,0,1,5.689-1.841,25.376,25.376,0,0,1,5.232-.321l41.174.313a41.976,41.976,0,0,1,7.759.541,41.967,41.967,0,0,1,6.16,1.879c6.29,2.277,12.775,4.18,19.242,6,0,0,6.735,1.626,8.825,1.394s4.645,3.948,10.683,3.948,6.968,2.322,6.968,2.322l26.475,42.269-1.857.232c-28.8,8.825-38.553,55.74-38.553,55.74s3.252,48.71,3.716,57.3,11.845,29.495,11.845,29.495-6.27,1.626-15.328-.464c-7.188-1.659-120.034,3.93-135.372,4.124-5.125.064-10.3.282-15.327-.7a2.394,2.394,0,0,1-1.61-.8,2.309,2.309,0,0,1-.159-1.7,16.509,16.509,0,0,1,1.729-4.9l16.733-86.993V266.272l-25.78,21.135s19.509-23.224.232-51.559c0,0-5.109-7.9-10.683-11.845,0,0,27.739-20.323,30.889-20.9" transform="translate(-14.123 -28.7)" fill="#528869"/>
            <path id="Trazado_195536" data-name="Trazado 195536" d="M265.544,260.821v29.031l-19.509,11.5-20.206-10.1-.464-30.541Z" transform="translate(-34.218 -39.584)" fill="#1c2b1c"/>
            <line id="Línea_205" data-name="Línea 205" x2="33.301" transform="translate(194.978 227.043)" fill="none" stroke="#03091c" stroke-linecap="round" stroke-linejoin="round" stroke-width="0.847"/>
            <rect id="Rectángulo_45572" data-name="Rectángulo 45572" width="11.728" height="4.529" transform="translate(215.068 221.295)" fill="#03091c"/>
            <path id="Trazado_195537" data-name="Trazado 195537" d="M286.154,241.347a44.957,44.957,0,0,1,7.165-31.258" transform="translate(-43.381 -31.899)" fill="none" stroke="#03091c" stroke-linecap="round" stroke-linejoin="round" stroke-width="0.847"/>
            <path id="Trazado_195538" data-name="Trazado 195538" d="M286.1,279q2.335,20.339,6.371,40.435" transform="translate(-43.441 -42.362)" fill="none" stroke="#03091c" stroke-linecap="round" stroke-linejoin="round" stroke-width="0.847"/>
            <path id="Trazado_195539" data-name="Trazado 195539" d="M147.354,269.762c-1.821,5.432-9.12,36.688-11.144,42.049" transform="translate(-20.682 -40.959)" fill="none" stroke="#03091c" stroke-linecap="round" stroke-linejoin="round" stroke-width="0.847"/>
            <path id="Trazado_195540" data-name="Trazado 195540" d="M138.235,277.363a13.012,13.012,0,0,0,4.82-4.946" transform="translate(-20.989 -41.363)" fill="none" stroke="#03091c" stroke-linecap="round" stroke-linejoin="round" stroke-width="0.847"/>
            <path id="Trazado_195541" data-name="Trazado 195541" d="M157.361,201.785a234.522,234.522,0,0,1-2.645,37.87" transform="translate(-23.491 -30.638)" fill="none" stroke="#03091c" stroke-linecap="round" stroke-linejoin="round" stroke-width="0.847"/>
            <path id="Trazado_195542" data-name="Trazado 195542" d="M297.143,392.218c-.664,5.689,2.545,11.25,2.148,16.963" transform="translate(-45.103 -59.553)" fill="none" stroke="#03091c" stroke-linecap="round" stroke-linejoin="round" stroke-width="0.847"/>
            <path id="Trazado_195543" data-name="Trazado 195543" d="M293.066,301.027s8.436-39.136,34.913-47.411" transform="translate(-44.498 -38.508)" fill="none" stroke="#03091c" stroke-linecap="round" stroke-linejoin="round" stroke-width="0.847"/>
            <path id="Trazado_195544" data-name="Trazado 195544" d="M101.231,227.526s26.94,13.7,13.238,54.346" transform="translate(-15.37 -34.546)" fill="none" stroke="#03091c" stroke-linecap="round" stroke-linejoin="round" stroke-width="0.847"/>
            <line id="Línea_206" data-name="Línea 206" x2="94.267" transform="translate(138.473 216.497)" fill="none" stroke="#03091c" stroke-linecap="round" stroke-linejoin="round" stroke-width="0.847"/>
            <path id="Trazado_195545" data-name="Trazado 195545" d="M124.941,423.968c14.412-1.5,30.235-.647,44.018-.859,10.569-.162,59.207-1.358,73.566-2.949a118.842,118.842,0,0,1,27.394.517" transform="translate(-18.97 -63.708)" fill="none" stroke="#03091c" stroke-linecap="round" stroke-linejoin="round" stroke-width="0.847"/>
            <path id="Trazado_195546" data-name="Trazado 195546" d="M174.154,107.209a4.2,4.2,0,0,0-3.483,1.285,6.14,6.14,0,0,0-1.366,2.862,11.809,11.809,0,0,0,1.215,8.347c1.445,2.561,3.884,4.65,4.469,7.532a28.419,28.419,0,0,0,.567,3.93,4.524,4.524,0,0,0,4.355,2.922q-.294-7.808-.722-15.609c-.2-3.616-.076-10.7-5.035-11.268" transform="translate(-25.663 -16.274)" fill="#fdbe8b"/>
            <path id="Trazado_195547" data-name="Trazado 195547" d="M177.977,120.148c.008-.362,0-.723-.012-1.081-.164-4.125-1.775-8.075-3.508-11.879a3.837,3.837,0,0,1,.522.022c4.96.563,4.837,7.651,5.036,11.267q.427,7.8.721,15.609a4.208,4.208,0,0,1-1.633-.266c-.235-1.679-.563-3.354-.9-5.012a22.494,22.494,0,0,1-.508-3.321,21.308,21.308,0,0,1,.124-3.039c.069-.766.141-1.531.159-2.3" transform="translate(-26.489 -16.275)" fill="#ffaa71"/>
            <path id="Trazado_195548" data-name="Trazado 195548" d="M177.013,118.7q1.235,1.935,2.361,3.937a.351.351,0,0,1,.063.187.364.364,0,0,1-.144.228,23.776,23.776,0,0,0-2.529,2.777" transform="translate(-26.839 -18.023)" fill="none" stroke="#03091c" stroke-linecap="round" stroke-linejoin="round" stroke-width="0.847"/>
            <path id="Trazado_195549" data-name="Trazado 195549" d="M172.088,110.523a7.575,7.575,0,0,0-1.206,4.156,10.573,10.573,0,0,0,.941,4.255" transform="translate(-25.946 -16.781)" fill="none" stroke="#03091c" stroke-linecap="round" stroke-linejoin="round" stroke-width="0.847"/>
            <path id="Trazado_195550" data-name="Trazado 195550" d="M145.1,170.391l12.8-8.158,7.751-20.206-16.024-.174-5.749,27.521Z" transform="translate(-21.846 -21.538)" fill="#fdbe8b"/>
            <path id="Trazado_195551" data-name="Trazado 195551" d="M169.094,156.016l-13.677-2.8,2.915-58.509,1.914-.362L170.53,100.4Z" transform="translate(-23.598 -14.325)" fill="#03091c"/>
            <path id="Trazado_195552" data-name="Trazado 195552" d="M160.81,96.532,158.3,151.871l10.064,2.17,1.679-52.663Z" transform="translate(-24.035 -14.657)" fill="#fff"/>
            <path id="Trazado_195553" data-name="Trazado 195553" d="M156.714,124.944l-1.394-2.438-.58-11.845-15.561-3.948L141.5,91.964s-.349-7.432-4.064-1.857-10.1,31.353-10.1,31.353a21.628,21.628,0,0,0-2.786,7.2c-.465,3.483-7.2,18.347-7.2,18.347l-4.441,5.839s.014.017.019.025l-54.22,56.262s-16.955,9.987-20.671,28.335c0,0-11.844,13.7,3.948,28.334,0,0,15.1,7.665,23.458-3.716,0,0,18.812-13.934,23.224-22.76s39.714-77.107,39.714-77.107l-.334-.252c1.662-3.758,4.334-9.807,4.34-9.822a2.567,2.567,0,0,0,.092-.588q.123-.777.245-1.555.56-3.55,1.119-7.1.256-1.622.511-3.245l.178-1.131c.02-.13.049-.26.062-.391.01-.108-.038-.36-.018-.422a4.008,4.008,0,0,1,1.116-1.472,2.516,2.516,0,0,1,.682-.519,2.637,2.637,0,0,1,.888-.17,33.54,33.54,0,0,0,6.131-1.064.8.8,0,0,1,.388-.04.821.821,0,0,1,.267.139,20.5,20.5,0,0,0,3.831,1.953c1.728.722,3.415,1.559,5.119,2.337,0,0-2.9,8.013-1.975,9.522,0,0,3.717-3.252,7.316-11.264ZM142.576,114.87l8.535,2.526.816,3.772-7.5-4.448-4.9,2.157Zm4.965,12.193-7.114.17,5.894-2.782,6.619,3.919.155,4.075Z" transform="translate(-5.128 -13.367)" fill="#fdbe8b"/>
            <path id="Trazado_195554" data-name="Trazado 195554" d="M144.188,138.666l3.745-4.442,16.374-.174,10.8,10.074" transform="translate(-21.893 -20.354)" fill="none" stroke="#03091c" stroke-linecap="round" stroke-linejoin="round" stroke-width="0.847"/>
            <path id="Trazado_195555" data-name="Trazado 195555" d="M162.251,141.661a21.625,21.625,0,0,0,4.718,2.758" transform="translate(-24.635 -21.509)" fill="none" stroke="#03091c" stroke-linecap="round" stroke-linejoin="round" stroke-width="0.847"/>
            <path id="Trazado_195556" data-name="Trazado 195556" d="M155.072,144.1a22.547,22.547,0,0,0,6.859-1.282" transform="translate(-23.545 -21.685)" fill="none" stroke="#03091c" stroke-linecap="round" stroke-linejoin="round" stroke-width="0.847"/>
            <path id="Trazado_195557" data-name="Trazado 195557" d="M142.647,129.249l18.29-7.315,10.974,6.009" transform="translate(-21.659 -18.514)" fill="none" stroke="#03091c" stroke-linecap="round" stroke-linejoin="round" stroke-width="0.847"/>
            <line id="Línea_207" data-name="Línea 207" y1="15.962" x2="9.343" transform="translate(124.71 93.346)" fill="none" stroke="#03091c" stroke-linecap="round" stroke-linejoin="round" stroke-width="0.847"/>
            <path id="Trazado_195558" data-name="Trazado 195558" d="M158.582,123.418l2.945-3.744,8.535,2.526.61,3.135" transform="translate(-24.078 -18.171)" fill="none" stroke="#03091c" stroke-linecap="round" stroke-linejoin="round" stroke-width="0.847"/>
            <path id="Trazado_195559" data-name="Trazado 195559" d="M159.282,133.5l6.1-2.526L172,134.889l.366,4.04" transform="translate(-24.185 -19.886)" fill="none" stroke="#03091c" stroke-linecap="round" stroke-linejoin="round" stroke-width="0.847"/>
            <path id="Trazado_195560" data-name="Trazado 195560" d="M95.911,260.659S84.389,278.3,70.835,287.478c0,0-2.738,4.012-6.17,5.511" transform="translate(-9.818 -39.577)" fill="none" stroke="#03091c" stroke-linecap="round" stroke-linejoin="round" stroke-width="0.847"/>
            <path id="Trazado_195561" data-name="Trazado 195561" d="M144.767,174.782a79.967,79.967,0,0,0-7.484,7.489" transform="translate(-20.844 -26.538)" fill="none" stroke="#03091c" stroke-linecap="round" stroke-linejoin="round" stroke-width="0.847"/>
            <path id="Trazado_195562" data-name="Trazado 195562" d="M350.153,191.743a1.318,1.318,0,0,1-.114.216c-.557.846-3.747.145-4.774.106l-6.873-.26-8.379-.317-3.475-13.209,1.385-12.421s-2.78-1.391-3.181-2.344-.6-13.295-.6-13.295l-.122-3.716a3.276,3.276,0,0,1,3.63-3l2.054-.233s1.36-3.71,2.105-3.752c3.182.212,6.384,1.242,9.482,1.932a52.037,52.037,0,0,0,1.519-8.175c.318-3.056.366-10.376.71-13.43a8.276,8.276,0,0,1,.824-3.147c.485-.87,2.939-2.953,3.55-1.181.506,6.266,1.011,16.773,1.517,23.04q.179,2.238.36,4.477a5.965,5.965,0,0,0,.113,1.572c.524,1.045,2.8,1.3,3.729,2.081,1.735,1.456,1.89,4.109,1.313,6.3s-1.729,4.214-2.152,6.44a20.4,20.4,0,0,0-.267,3.078c-.346,9.43-1.644,18.857-2.2,28.278a2.973,2.973,0,0,1-.165.963" transform="translate(-49.198 -17.434)" fill="#fdbe8b"/>
            <path id="Trazado_195563" data-name="Trazado 195563" d="M334.48,174.594c-1.946.2-3.611.3-5.842.323" transform="translate(-49.899 -26.51)" fill="none" stroke="#03091c" stroke-linecap="round" stroke-linejoin="round" stroke-width="0.847"/>
            <path id="Trazado_195564" data-name="Trazado 195564" d="M336.635,169.022a3.131,3.131,0,0,1,1.431-1.111,18.593,18.593,0,0,1,3.059-.771" transform="translate(-51.113 -25.378)" fill="none" stroke="#03091c" stroke-linecap="round" stroke-linejoin="round" stroke-width="0.847"/>
            <path id="Trazado_195565" data-name="Trazado 195565" d="M336.6,168.484a5.005,5.005,0,0,0-2.029-2.135,2.055,2.055,0,0,0-.737-.338,11.411,11.411,0,0,1,1.319-4.282,7.068,7.068,0,0,1,3.238-3.027" transform="translate(-50.687 -24.096)" fill="none" stroke="#03091c" stroke-linecap="round" stroke-linejoin="round" stroke-width="0.847"/>
            <path id="Trazado_195566" data-name="Trazado 195566" d="M327.82,163.083a6.693,6.693,0,0,0,2.187,2.264,12.038,12.038,0,0,0,2.876,1.328" transform="translate(-49.775 -24.762)" fill="none" stroke="#03091c" stroke-linecap="round" stroke-linejoin="round" stroke-width="0.847"/>
            <path id="Trazado_195567" data-name="Trazado 195567" d="M324.237,154.952c6.8-2.045,14.807-1.729,21.785-3.036a4.3,4.3,0,0,1,1.416-.115,4.112,4.112,0,0,1,.964.315l2.108.888a1.9,1.9,0,0,1,1.416,1.617q.576,2.053,1.152,4.109" transform="translate(-49.231 -23.045)" fill="none" stroke="#03091c" stroke-linecap="round" stroke-linejoin="round" stroke-width="0.847"/>
            <path id="Trazado_195568" data-name="Trazado 195568" d="M350.137,150.028c-.9-.119-1.7-.2-2.175-.219-1.8-.07-3.974-.19-5.771-.339-6.521-.54-16.236-.481-16.236-.481a2.757,2.757,0,0,0-1.689,1.695" transform="translate(-49.235 -22.621)" fill="none" stroke="#03091c" stroke-linecap="round" stroke-linejoin="round" stroke-width="0.847"/>
            <path id="Trazado_195569" data-name="Trazado 195569" d="M329.659,187.181c1.241-5.164,5.963-11.783,6.326-17.081" transform="translate(-50.054 -25.827)" fill="none" stroke="#03091c" stroke-linecap="round" stroke-linejoin="round" stroke-width="0.847"/>
            <path id="Trazado_195570" data-name="Trazado 195570" d="M331.38,169.64a1.1,1.1,0,0,0,.377-.194,7.978,7.978,0,0,0,1.851-1.814" transform="translate(-50.315 -25.452)" fill="none" stroke="#03091c" stroke-linecap="round" stroke-linejoin="round" stroke-width="0.847"/>
            <path id="Trazado_195571" data-name="Trazado 195571" d="M333.207,143.933l15.906,3.333,1.7.252" transform="translate(-50.593 -21.854)" fill="none" stroke="#03091c" stroke-linecap="round" stroke-linejoin="round" stroke-width="0.847"/>
            <path id="Trazado_195572" data-name="Trazado 195572" d="M356.482,273.4,349.9,204c.073-.074.144-.162.216-.244L329.9,203.4l-.191,7.676-5.062,85.469c-4.887,11.477,1.768,31.093,1.768,31.093,12.44,30.419,34.388.49,34.388.49,10.812-29.247-4.319-54.736-4.319-54.736" transform="translate(-49.02 -30.884)" fill="#fdbe8b"/>
            <path id="Trazado_195573" data-name="Trazado 195573" d="M328.362,250.852l-3.715,52.9s-7.852,26.17,9.42,42.326" transform="translate(-49.023 -38.088)" fill="none" stroke="#03091c" stroke-linecap="round" stroke-linejoin="round" stroke-width="0.847"/>
            <path id="Trazado_195574" data-name="Trazado 195574" d="M354.555,203.656q-.29,6.5-.579,13" transform="translate(-53.746 -30.922)" fill="none" stroke="#03091c" stroke-linecap="round" stroke-linejoin="round" stroke-width="0.847"/>
            <path id="Trazado_195575" data-name="Trazado 195575" d="M243.853,189.807s-13.354-4.181-14.4-10.335V161.125l-19.335,2.4-19.335-2.4v18.347c-1.045,6.154-14.4,10.335-14.4,10.335,7.726,20.638,29.624,23.526,33.444,23.876v.046s.1-.005.29-.02c.19.015.29.02.29.02v-.046c3.821-.349,25.718-3.237,33.444-23.876" transform="translate(-26.781 -24.464)" fill="#fdbe8b"/>
            <path id="Trazado_195576" data-name="Trazado 195576" d="M232.024,179.471V161.124s-.044.006-.044,0l-19.313,2.4-4.936-.613s-14.376-1.786-14.376-1.78l-.044-.006v18.258l.044.031c4.4,3.044,9.577,4.947,14.436,7.177,2.484,1.141,5.054,2.346,6.807,4.444a16.345,16.345,0,0,1,2.973,7.179c.637,2.947,1.075,5.933,1.45,8.924.147,1.171-.014,3.09.477,4.147.554,1.194.091.919,1.461.839,2.924-.17,6.65-2.362,9.158-3.736a36.79,36.79,0,0,0,9.317-7.18c.8-.863,7.8-11.147,6.991-11.4,0,0-13.354-4.181-14.4-10.335" transform="translate(-29.351 -24.464)" fill="#ffaa71"/>
            <path id="Trazado_195577" data-name="Trazado 195577" d="M255.633,107.209a4.2,4.2,0,0,1,3.483,1.285,6.156,6.156,0,0,1,1.366,2.862,11.8,11.8,0,0,1-1.216,8.347c-1.444,2.561-3.883,4.65-4.468,7.532a28.538,28.538,0,0,1-.567,3.93,4.524,4.524,0,0,1-4.355,2.922q.293-7.808.722-15.609c.2-3.616.076-10.7,5.035-11.268" transform="translate(-37.94 -16.274)" fill="#fdbe8b"/>
            <path id="Trazado_195578" data-name="Trazado 195578" d="M252.636,120.148c-.009-.362,0-.723.012-1.081.164-4.125,1.775-8.075,3.508-11.879a3.837,3.837,0,0,0-.523.022c-4.96.563-4.837,7.651-5.036,11.267q-.427,7.8-.721,15.609a4.205,4.205,0,0,0,1.633-.266c.234-1.679.563-3.354.9-5.012a22.494,22.494,0,0,0,.508-3.321,21.3,21.3,0,0,0-.124-3.039c-.069-.766-.141-1.531-.159-2.3" transform="translate(-37.94 -16.275)" fill="#ffaa71"/>
            <path id="Trazado_195579" data-name="Trazado 195579" d="M254.245,118.7q-1.235,1.935-2.361,3.937a.358.358,0,0,0-.063.187.364.364,0,0,0,.144.228,23.771,23.771,0,0,1,2.529,2.777" transform="translate(-38.235 -18.023)" fill="none" stroke="#03091c" stroke-linecap="round" stroke-linejoin="round" stroke-width="0.847"/>
            <path id="Trazado_195580" data-name="Trazado 195580" d="M259.433,110.523a7.576,7.576,0,0,1,1.206,4.156,10.558,10.558,0,0,1-.941,4.255" transform="translate(-39.391 -16.781)" fill="none" stroke="#03091c" stroke-linecap="round" stroke-linejoin="round" stroke-width="0.847"/>
            <path id="Trazado_195581" data-name="Trazado 195581" d="M241.736,104.08c0-19.913-14-36.056-31.266-36.056S179.2,84.167,179.2,104.08a41.855,41.855,0,0,0,.235,4.354l2.2,31.528s10.3,20.064,28.392,21.2v.054c.148,0,.289-.02.436-.027s.288.023.435.027v-.054c18.094-1.132,28.392-21.2,28.392-21.2l2.2-31.528a41.839,41.839,0,0,0,.235-4.354" transform="translate(-27.209 -10.328)" fill="#fdbe8b"/>
            <path id="Trazado_195582" data-name="Trazado 195582" d="M217.117,68.919c-3.591-.092-6.609,2.567-9.642,4.5a34.688,34.688,0,0,1-19.88,5.386l12.3,8.11a50.305,50.305,0,0,0,4.851,2.942,44.283,44.283,0,0,0,5.139,2.12,169.439,169.439,0,0,0,19.39,5.489,3.647,3.647,0,0,1,3.169,2.545,38.46,38.46,0,0,1,2.958,7.194c1.419,5.449-1.093,9.3-3.462,14.024a138.075,138.075,0,0,1-8.352,14.421c-4.524,6.825-4.9,16.23-4.938,24.224,13.823-4.768,21.552-19.809,21.552-19.809l2.2-31.527a41.856,41.856,0,0,0,.235-4.354A41.051,41.051,0,0,0,240.9,92.306a35.911,35.911,0,0,0-12.48-18.339,29.331,29.331,0,0,0-9.492-4.766,7.248,7.248,0,0,0-1.815-.282" transform="translate(-28.484 -10.464)" fill="#ffaa71"/>
            <path id="Trazado_195583" data-name="Trazado 195583" d="M244.891,80.955c.275-.2.55-.392.821-.6,0,0,13.587-20.322-4.877-23.109,0,0-11.38,2.323-16.141.116S215.056,54,210.062,56.086c0,0-13.47-6.387-20.786,1.51,0,0-5.922,4.645-6.735,11.612,0,0-6.967,3.252-7.315,9.639s-.929,11.845.464,16.141,2.9,10.1,2.9,10.1l.032-.153,2.287,31.987a3.894,3.894,0,0,0,.5,1.652c2.135,3.754,12.032,19.515,28.218,20.412V159l.087-.008.087.008v-.014c16.15-.894,26.218-16.582,28.426-20.381a3.9,3.9,0,0,0,.517-1.712l1.956-30.531,1.18-1.39s3.368-8.709,5.109-13.471-1.394-9.058-1.394-9.058Zm-9.4,42.6c-.813,2.787-10.335,12.426-10.335,12.426a11.488,11.488,0,0,1-2.206-3.368,5.116,5.116,0,0,0-2.671-2.671l-10.336-.667v-.03l-.232.014-.232-.014v.03l-10.335.667a5.113,5.113,0,0,0-2.671,2.671,11.5,11.5,0,0,1-2.207,3.368s-9.521-9.639-10.335-12.426-4.645-18.464-2.322-26.012l3.948-2.555L186.9,79.171s24.351,13.233,46.741,7.111l.225,8.706,3.948,2.555c2.323,7.548-1.51,23.224-2.322,26.012" transform="translate(-26.541 -8.146)" fill="#683424"/>
            <path id="Trazado_195584" data-name="Trazado 195584" d="M246.979,91.246a2.784,2.784,0,0,0,1.927-.475,15.05,15.05,0,0,0,4.685-3.341" transform="translate(-37.5 -13.275)" fill="none" stroke="#03091c" stroke-linecap="round" stroke-linejoin="round" stroke-width="0.847"/>
            <path id="Trazado_195585" data-name="Trazado 195585" d="M216.482,57.81a3.615,3.615,0,0,1,1.571.876,67.863,67.863,0,0,1,7.154,6.723" transform="translate(-32.87 -8.778)" fill="none" stroke="#03091c" stroke-linecap="round" stroke-linejoin="round" stroke-width="0.847"/>
            <path id="Trazado_195586" data-name="Trazado 195586" d="M238.273,60.577a12.707,12.707,0,0,1,5.109,4.753" transform="translate(-36.178 -9.198)" fill="none" stroke="#03091c" stroke-linecap="round" stroke-linejoin="round" stroke-width="0.847"/>
            <path id="Trazado_195587" data-name="Trazado 195587" d="M258.23,62.237a1.069,1.069,0,0,1,.588.622,11.56,11.56,0,0,1-1.991,12.907" transform="translate(-38.995 -9.45)" fill="none" stroke="#03091c" stroke-linecap="round" stroke-linejoin="round" stroke-width="0.847"/>
            <path id="Trazado_195588" data-name="Trazado 195588" d="M184.131,76.958a5.578,5.578,0,0,0,1.483,2.088" transform="translate(-27.958 -11.685)" fill="none" stroke="#03091c" stroke-linecap="round" stroke-linejoin="round" stroke-width="0.847"/>
            <path id="Trazado_195589" data-name="Trazado 195589" d="M210.745,155.126a14.358,14.358,0,0,1,10.87-.348" transform="translate(-31.999 -23.364)" fill="none" stroke="#03091c" stroke-linecap="round" stroke-linejoin="round" stroke-width="0.847"/>
            <path id="Trazado_195590" data-name="Trazado 195590" d="M202.391,117.9c0,2.309-1.306,4.181-2.918,4.181s-2.918-1.872-2.918-4.181,1.306-4.181,2.918-4.181,2.918,1.872,2.918,4.181" transform="translate(-29.844 -17.266)" fill="#03091c"/>
            <path id="Trazado_195591" data-name="Trazado 195591" d="M203.267,115.482a1.045,1.045,0,1,1-1.045-1.045,1.045,1.045,0,0,1,1.045,1.045" transform="translate(-30.546 -17.376)" fill="#fff"/>
            <path id="Trazado_195592" data-name="Trazado 195592" d="M201.073,116.987a.29.29,0,1,1-.29-.29.29.29,0,0,1,.29.29" transform="translate(-30.442 -17.719)" fill="#fff"/>
            <path id="Trazado_195593" data-name="Trazado 195593" d="M195.493,123.656a19.2,19.2,0,0,1,7.455-.042" transform="translate(-29.683 -18.715)" fill="none" stroke="#03091c" stroke-linecap="round" stroke-linejoin="round" stroke-width="0.847"/>
            <path id="Trazado_195594" data-name="Trazado 195594" d="M235.25,117.9c0,2.309-1.306,4.181-2.918,4.181s-2.918-1.872-2.918-4.181,1.306-4.181,2.918-4.181,2.918,1.872,2.918,4.181" transform="translate(-34.833 -17.266)" fill="#03091c"/>
            <path id="Trazado_195595" data-name="Trazado 195595" d="M236.126,115.482a1.045,1.045,0,1,1-1.045-1.045,1.045,1.045,0,0,1,1.045,1.045" transform="translate(-35.535 -17.376)" fill="#fff"/>
            <path id="Trazado_195596" data-name="Trazado 195596" d="M233.932,116.987a.29.29,0,1,1-.29-.29.29.29,0,0,1,.29.29" transform="translate(-35.431 -17.719)" fill="#fff"/>
            <path id="Trazado_195597" data-name="Trazado 195597" d="M228.352,123.656a19.2,19.2,0,0,1,7.455-.042" transform="translate(-34.672 -18.715)" fill="none" stroke="#03091c" stroke-linecap="round" stroke-linejoin="round" stroke-width="0.847"/>
            <path id="Trazado_195598" data-name="Trazado 195598" d="M215.411,112.726l.29,4.238-2.612,17.07,3.135.116v1.1" transform="translate(-32.354 -17.116)" fill="none" stroke="#03091c" stroke-linecap="round" stroke-linejoin="round" stroke-width="0.847"/>
            <path id="Trazado_195599" data-name="Trazado 195599" d="M239.123,112.4l-2.555-4.122-14.342,1.857c.059.29.406,4.413.406,4.413l12.02-4.3Z" transform="translate(-33.742 -16.44)" fill="#03091c"/>
            <path id="Trazado_195600" data-name="Trazado 195600" d="M188.1,109.626l2.555-4.122L205,107.361c-.059.29-.407,4.413-.407,4.413l-12.019-4.3Z" transform="translate(-28.561 -16.019)" fill="#03091c"/>
            <path id="Trazado_195601" data-name="Trazado 195601" d="M224.556,95.055c-3.716-1.886-7.533-3.85-10.248-7.011a2.376,2.376,0,0,0-.535-.512,2.218,2.218,0,0,0-.846-.241,104.436,104.436,0,0,1-18.7-4.545c-1.005-.345-5.348-2.74-6.014-2.232,3.717,3.354,8.628,5.91,13.13,8.033A72.7,72.7,0,0,0,215.9,93.6a70.916,70.916,0,0,0,8.652,1.451" transform="translate(-28.577 -12.214)" fill="#683424"/>
            <path id="Trazado_195602" data-name="Trazado 195602" d="M216.2,56.35a18.358,18.358,0,0,1,14.14-1.941c4.6,1.263,8.594,4.3,13.26,5.282.37.077.9.032.936-.343" transform="translate(-32.827 -8.165)" fill="none" stroke="#683424" stroke-linecap="round" stroke-linejoin="round" stroke-width="0.847"/>
            <path id="Trazado_195603" data-name="Trazado 195603" d="M256.482,85.2a19,19,0,0,1,3.218,2.858,6.391,6.391,0,0,1,1.61,3.911c.04,3.457-3.525,5.951-4.2,9.343" transform="translate(-38.943 -12.936)" fill="none" stroke="#683424" stroke-linecap="round" stroke-linejoin="round" stroke-width="0.847"/>
            <path id="Trazado_195604" data-name="Trazado 195604" d="M184.114,71.844c-1.28-2.087-.618-4.828.516-7a9.077,9.077,0,0,1,4.073-4.292c2.635-1.171,5.7-.3,8.564-.606" transform="translate(-27.849 -9.098)" fill="none" stroke="#683424" stroke-linecap="round" stroke-linejoin="round" stroke-width="0.847"/>
            <path id="Trazado_195605" data-name="Trazado 195605" d="M211.406,221.018c1.4.074,30.6,1.247,36.348-27.621-1.443-.481-2.88-.973-4.306-1.489q-.968-.351-1.943-.687c-.389,7.891-4.606,19.271-24.749,22.532a33.7,33.7,0,0,1-10.85-.024c-21.079-3.468-24.613-15.867-24.632-23.734-1.29.416-2.549.934-3.84,1.343a17.656,17.656,0,0,1-3.434.517,2.616,2.616,0,0,0-1.116.171c6.112,28.482,37.127,29.065,38.522,28.992" transform="translate(-26.25 -28.848)" fill="#1c2b1c"/>
          </g>
        </g>
      </g>
    </g>
  </g>
</svg>
