<svg xmlns="http://www.w3.org/2000/svg" xmlns:xlink="http://www.w3.org/1999/xlink" width="327.096" height="242.025" viewBox="0 0 327.096 242.025">
  <defs>
    <clipPath id="clip-path">
      <rect id="Rectángulo_45465" data-name="Rectángulo 45465" width="327.096" height="242.025" transform="translate(0 0)" fill="none"/>
    </clipPath>
  </defs>
  <g id="Grupo_152759" data-name="Grupo 152759" transform="translate(0 0.001)">
    <g id="Grupo_152758" data-name="Grupo 152758" transform="translate(0 -0.001)" clip-path="url(#clip-path)">
      <path id="Trazado_194442" data-name="Trazado 194442" d="M726.081,90.17c21.36,22.394,93.513,34.767,99.109,1.862,5.68-33.4-46.553-18.615-77.068-53.2-23.477-26.608-56.641,15.062-22.041,51.338" transform="translate(-570.574 -24.391)" fill="#e3f3f9"/>
      <path id="Trazado_194443" data-name="Trazado 194443" d="M50.45,325.581S-10.045,157.617,65.067,119.787,181.824,221.2,252.558,190.622s70.081,87.95,57.17,134.959Z" transform="translate(-22.002 -90.84)" fill="#e3f3f9"/>
      <path id="Trazado_194444" data-name="Trazado 194444" d="M364.875,1194.042H90.657a3.416,3.416,0,0,1-3.415-3.416v-.669a3.415,3.415,0,0,1,3.415-3.416H364.875a3.416,3.416,0,0,1,3.416,3.416v.669a3.416,3.416,0,0,1-3.416,3.416" transform="translate(-69.998 -952.016)" fill="#12263f"/>
      <path id="Trazado_194445" data-name="Trazado 194445" d="M59.676,21.568c-.642-1.1-1.434-1.52-1.5-2.579a8.653,8.653,0,0,1,1.3-3.588c.264-.47.7-1.476,1.013-2.2A.9.9,0,0,0,60,12.019a13.739,13.739,0,0,1-2.234-1.067,2.7,2.7,0,0,1-.61-1.926c0-.177-.47-.321-1.049-.321s-1.049.144-1.049.321a2.7,2.7,0,0,1-.61,1.926,13.739,13.739,0,0,1-2.234,1.067.9.9,0,0,0-.486,1.177c.309.728.749,1.735,1.013,2.2a8.653,8.653,0,0,1,1.3,3.588c-.064,1.06-.856,1.477-1.5,2.579a5.858,5.858,0,0,0-.856,3.018,14.19,14.19,0,0,0-.005,1.638.969.969,0,0,0,.969.92h3.21v11.3a.2.2,0,0,0-.171.2V39.5h.021a.246.246,0,0,0-.246.246v.77l-.166.033a1.161,1.161,0,0,0-.916.933,1.161,1.161,0,0,1-.981.944l-.435.061a.647.647,0,0,0-.521.491l-.01.042h.915A1.852,1.852,0,0,0,55,42.031a3.968,3.968,0,0,1,.235-.408,1.073,1.073,0,0,1,.65-.312l-.061,1.555a.153.153,0,0,0,.153.159h.27a.153.153,0,0,0,.153-.159l-.061-1.555a1.073,1.073,0,0,1,.65.312,3.969,3.969,0,0,1,.235.408,1.852,1.852,0,0,0,1.643.994h.915l-.01-.042a.647.647,0,0,0-.521-.491l-.435-.061a1.161,1.161,0,0,1-.981-.944,1.161,1.161,0,0,0-.916-.933l-.166-.033v-.77a.246.246,0,0,0-.246-.246h.022v-.861a.2.2,0,0,0-.171-.2v-11.3h3.21a.97.97,0,0,0,.969-.92,14.2,14.2,0,0,0-.006-1.638A5.856,5.856,0,0,0,59.676,21.568Z" transform="translate(-41.452 -6.983)" fill="none" stroke="#86ddf9" stroke-miterlimit="10" stroke-width="1.553"/>
      <path id="Trazado_194446" data-name="Trazado 194446" d="M64,680.77H55.337a52.272,52.272,0,0,1-12.331-14.528s0,0,0-.009c-3.392-6.041-5.752-13.63-4.174-22.116C42.753,623.02,17.97,617.054,23,591.4c4.9-24.983-7.468-34.709-8.122-35.2a160.352,160.352,0,0,1,13.056,9.918c10.962,9.2,24.912,23.374,25.423,36.23.973,24.325,4.352,27,11.9,41.769C74.924,663.024,64,680.77,64,680.77" transform="translate(-11.939 -446.265)" fill="#2d83c3"/>
      <path id="Trazado_194447" data-name="Trazado 194447" d="M94.115,712.813s-1.2-69.73-36.922-116.674" transform="translate(-45.889 -478.31)" fill="none" stroke="#006d77" stroke-miterlimit="10" stroke-width="2.249"/>
      <path id="Trazado_194448" data-name="Trazado 194448" d="M38.826,644.117C42.752,623.019,17.969,617.053,23,591.4c4.9-24.983-7.468-34.709-8.122-35.2a160.348,160.348,0,0,1,13.056,9.918,52.152,52.152,0,0,1,2.44,16.021c.1,17.271-2.249,21.685,2.427,32.14s8.873,18.875,7.224,27.908A40.671,40.671,0,0,0,43,666.233c-3.392-6.041-5.752-13.63-4.174-22.116" transform="translate(-11.938 -446.265)" fill="#9de3dc"/>
      <path id="Trazado_194449" data-name="Trazado 194449" d="M92.725,491.625S88.79,466.817,79.44,470.653s13.285,20.972,13.285,20.972" transform="translate(-61.922 -377.303)" fill="#2d83c3"/>
      <path id="Trazado_194450" data-name="Trazado 194450" d="M147.922,653.361s2.773-91.518-27.488-131.32" transform="translate(-96.63 -418.857)" fill="none" stroke="#006d77" stroke-miterlimit="10" stroke-width="2.249"/>
      <path id="Trazado_194451" data-name="Trazado 194451" d="M92.258,930.653s-4.417-39.5-35.065-62.981" transform="translate(-45.889 -696.173)" fill="none" stroke="#006d77" stroke-miterlimit="10" stroke-width="2.249"/>
      <path id="Trazado_194452" data-name="Trazado 194452" d="M46.251,853.154a3.577,3.577,0,1,1-3.577-3.577,3.576,3.576,0,0,1,3.577,3.577" transform="translate(-31.37 -681.655)" fill="#ffb4a2"/>
      <path id="Trazado_194453" data-name="Trazado 194453" d="M99.024,958.631s-6.989-8.126-16.459-8.576" transform="translate(-66.246 -762.273)" fill="none" stroke="#006d77" stroke-miterlimit="10" stroke-width="2.249"/>
      <path id="Trazado_194454" data-name="Trazado 194454" d="M67.633,939.9a2.5,2.5,0,1,1-2.5-2.5,2.5,2.5,0,0,1,2.5,2.5" transform="translate(-50.249 -752.114)" fill="#ffb4a2"/>
      <path id="Trazado_194455" data-name="Trazado 194455" d="M121.009,882.023s-4.093-8.308-1.144-14.351" transform="translate(-95.316 -696.173)" fill="none" stroke="#006d77" stroke-miterlimit="10" stroke-width="2.249"/>
      <path id="Trazado_194456" data-name="Trazado 194456" d="M119.288,850.166a2.457,2.457,0,1,1-2.457-2.457,2.457,2.457,0,0,1,2.457,2.457" transform="translate(-91.768 -680.156)" fill="#ffb4a2"/>
      <path id="Trazado_194457" data-name="Trazado 194457" d="M130.44,1069.65s-3.956-21.7-23.615-28.77a56.465,56.465,0,0,0,21.578,28.77Z" transform="translate(-85.711 -835.146)" fill="#006d77"/>
      <path id="Trazado_194458" data-name="Trazado 194458" d="M115.3,1128.044s-2.667-13.786-27.346-14.385c0,0,10.2,11.328,25.309,14.385Z" transform="translate(-70.566 -893.54)" fill="#9de3dc"/>
      <path id="Trazado_194459" data-name="Trazado 194459" d="M1348.45,612.162h9.84a59.366,59.366,0,0,0,14-16.5c0-.005.005-.005.005-.01,3.852-6.861,6.533-15.479,4.741-25.117-4.458-23.96,23.688-30.735,17.973-59.866-5.569-28.373,8.481-39.419,9.223-39.979a182.127,182.127,0,0,0-14.827,11.263c-12.45,10.451-28.292,26.545-28.873,41.146-1.105,27.625-4.942,30.665-13.515,47.436-10.975,21.471,1.429,41.625,1.429,41.625" transform="translate(-1077.14 -377.658)" fill="#2d83c3"/>
      <path id="Trazado_194460" data-name="Trazado 194460" d="M1394.695,648.554s1.361-79.191,41.931-132.5" transform="translate(-1119.028 -414.05)" fill="none" stroke="#006d77" stroke-miterlimit="10" stroke-width="2.554"/>
      <path id="Trazado_194461" data-name="Trazado 194461" d="M1498.055,570.537c-4.458-23.96,23.688-30.735,17.973-59.865-5.569-28.373,8.482-39.419,9.224-39.979a182.127,182.127,0,0,0-14.827,11.263,59.226,59.226,0,0,0-2.772,18.2c-.116,19.613,2.554,24.627-2.756,36.5s-10.077,21.436-8.2,31.695a46.192,46.192,0,0,1-3.378,27.307c3.852-6.861,6.533-15.479,4.741-25.117" transform="translate(-1198.155 -377.658)" fill="#9de3dc"/>
      <path id="Trazado_194462" data-name="Trazado 194462" d="M1494.8,397.356s4.469-28.174,15.088-23.818-15.088,23.818-15.088,23.818" transform="translate(-1199.349 -299.339)" fill="#2d83c3"/>
      <path id="Trazado_194463" data-name="Trazado 194463" d="M1376.772,581.035s-3.15-103.935,31.217-149.137" transform="translate(-1104.587 -346.531)" fill="none" stroke="#006d77" stroke-miterlimit="10" stroke-width="2.554"/>
      <path id="Trazado_194464" data-name="Trazado 194464" d="M1405.362,895.95s5.016-44.855,39.823-71.527" transform="translate(-1127.587 -661.472)" fill="none" stroke="#006d77" stroke-miterlimit="10" stroke-width="2.554"/>
      <path id="Trazado_194465" data-name="Trazado 194465" d="M1586.29,807.934a4.062,4.062,0,1,0,4.062-4.062,4.062,4.062,0,0,0-4.062,4.062" transform="translate(-1272.753 -644.983)" fill="#ffb4a2"/>
      <path id="Trazado_194466" data-name="Trazado 194466" d="M1483.456,927.723s7.937-9.229,18.692-9.74" transform="translate(-1190.245 -736.54)" fill="none" stroke="#006d77" stroke-miterlimit="10" stroke-width="2.554"/>
      <path id="Trazado_194467" data-name="Trazado 194467" d="M1571.911,906.447a2.842,2.842,0,1,0,2.842-2.842,2.842,2.842,0,0,0-2.842,2.842" transform="translate(-1261.217 -725.004)" fill="#ffb4a2"/>
      <path id="Trazado_194468" data-name="Trazado 194468" d="M1524.168,840.721s4.648-9.435,1.3-16.3" transform="translate(-1222.91 -661.472)" fill="none" stroke="#006d77" stroke-miterlimit="10" stroke-width="2.554"/>
      <path id="Trazado_194469" data-name="Trazado 194469" d="M1513.668,804.541a2.79,2.79,0,1,0,2.79-2.79,2.79,2.79,0,0,0-2.79,2.79" transform="translate(-1214.485 -643.281)" fill="#ffb4a2"/>
      <path id="Trazado_194470" data-name="Trazado 194470" d="M1414.785,1053.8s4.492-24.641,26.819-32.674c0,0-5.037,19.06-24.505,32.674Z" transform="translate(-1135.147 -819.3)" fill="#006d77"/>
      <path id="Trazado_194471" data-name="Trazado 194471" d="M1414.785,1120.121s3.029-15.656,31.056-16.337c0,0-11.588,12.865-28.742,16.337Z" transform="translate(-1135.147 -885.617)" fill="#9de3dc"/>
      <path id="Trazado_194472" data-name="Trazado 194472" d="M1361.58,60.889h0a4.452,4.452,0,0,1-.326-6.269L1381.4,32.262A4.439,4.439,0,0,1,1388,38.2l-20.149,22.359A4.452,4.452,0,0,1,1361.58,60.889Z" transform="translate(-1091.285 -24.712)" fill="none" stroke="#86ddf9" stroke-miterlimit="10" stroke-width="1.888"/>
      <path id="Trazado_194473" data-name="Trazado 194473" d="M1367.385,151.794a4.439,4.439,0,1,1-.326-6.269A4.439,4.439,0,0,1,1367.385,151.794Z" transform="translate(-1090.909 -115.846)" fill="none" stroke="#86ddf9" stroke-miterlimit="10" stroke-width="1.888"/>
      <path id="Trazado_194474" data-name="Trazado 194474" d="M1463.572,38.313l-2.551,2.831-2.5-2.253a.462.462,0,0,1-.034-.652l2.847-3.159a.612.612,0,0,0-.909-.819l-2.847,3.159a.461.461,0,0,1-.652.034l-2.5-2.251,2.644-2.935a4.448,4.448,0,0,1,6.583-.015A4.535,4.535,0,0,1,1463.572,38.313Z" transform="translate(-1166.954 -24.715)" fill="none" stroke="#86ddf9" stroke-miterlimit="10" stroke-width="1.888"/>
      <path id="Trazado_194475" data-name="Trazado 194475" d="M1351.274,608.967a10.243,10.243,0,1,0-6.268,13.06,10.247,10.247,0,0,0,6.268-13.06m-13.372.315a1.568,1.568,0,1,1-.959,2,1.566,1.566,0,0,1,.959-2m4.67-1.641a1.568,1.568,0,1,1-.959,2,1.567,1.567,0,0,1,.959-2m-1.924,9.448a1.568,1.568,0,1,1,.959-2,1.569,1.569,0,0,1-.959,2m2.67-2.6a1.568,1.568,0,1,1,2,.959,1.566,1.566,0,0,1-2-.959" transform="translate(-1068.215 -483.106)" fill="#facc9d"/>
      <path id="Trazado_194476" data-name="Trazado 194476" d="M1360.625,622.144a7.243,7.243,0,1,0-4.431,9.232,7.244,7.244,0,0,0,4.431-9.232m-11.5,1.318a1.568,1.568,0,1,1,2,.959,1.569,1.569,0,0,1-2-.959m3.705,5.807a1.568,1.568,0,1,1,.959-2,1.569,1.569,0,0,1-.959,2m.965-7.448a1.568,1.568,0,1,1,2,.959,1.569,1.569,0,0,1-2-.959m3.705,5.807a1.568,1.568,0,1,1,.959-2,1.569,1.569,0,0,1-.959,2" transform="translate(-1080.396 -495.286)" fill="#fabf84"/>
      <path id="Trazado_194477" data-name="Trazado 194477" d="M402,16.5a9.9,9.9,0,1,0-6.055,12.618A9.9,9.9,0,0,0,402,16.5Zm-12.919.3a1.515,1.515,0,1,1-.927,1.932A1.513,1.513,0,0,1,389.078,16.8Zm4.512-1.586a1.515,1.515,0,1,1-.927,1.932A1.513,1.513,0,0,1,393.59,15.217Zm-1.859,9.128a1.515,1.515,0,1,1,.927-1.932A1.516,1.516,0,0,1,391.731,24.345Zm2.58-2.512a1.515,1.515,0,1,1,1.932.927A1.513,1.513,0,0,1,394.311,21.833Z" transform="translate(-307.107 -7.928)" fill="none" stroke="#86ddf9" stroke-miterlimit="10" stroke-width="1.824"/>
      <path id="Trazado_194478" data-name="Trazado 194478" d="M411.031,29.229a7,7,0,1,0-4.281,8.92A7,7,0,0,0,411.031,29.229ZM399.92,30.5a1.515,1.515,0,1,1,1.932.927A1.516,1.516,0,0,1,399.92,30.5Zm3.58,5.61a1.515,1.515,0,1,1,.927-1.932A1.516,1.516,0,0,1,403.5,36.113Zm.932-7.2a1.515,1.515,0,1,1,1.932.927A1.516,1.516,0,0,1,404.432,28.917Zm3.58,5.61a1.515,1.515,0,1,1,.927-1.932A1.516,1.516,0,0,1,408.011,34.527Z" transform="translate(-318.876 -19.696)" fill="none" stroke="#86ddf9" stroke-miterlimit="10" stroke-width="1.824"/>
      <path id="Trazado_194479" data-name="Trazado 194479" d="M206.7,36.466l9.143,39.84,24.4,67.012,15.909,43.27,12.082-3.57L249.8,125.183,218.885,32.866Z" transform="translate(-165.844 -26.369)" fill="#e3f3f9"/>
      <path id="Trazado_194480" data-name="Trazado 194480" d="M205.818,187.992a.631.631,0,0,1-.771-.38c-1.217-3.21-7.471-19.905-10.825-32.725-5.927-22.655-10.068-39.245-21.328-64.114-8.944-19.754-16.794-55.862-17.85-60.828a.632.632,0,0,1,.441-.738l12.941-3.824a.632.632,0,0,1,.8.473c1.134,5.317,8.941,41.1,17.83,60.732,11.26,24.869,15.4,41.459,21.328,64.114,3.323,12.7,9.494,29.21,10.79,32.634a.633.633,0,0,1-.414.832Z" transform="translate(-124.388 -20.346)" fill="#e0d5f1"/>
      <path id="Trazado_194481" data-name="Trazado 194481" d="M306.19,160.046a.633.633,0,0,0,.413-.832c-1.3-3.423-7.467-19.931-10.79-32.634-5.927-22.655-10.068-39.245-21.328-64.114-8.889-19.632-16.7-55.414-17.83-60.731a.632.632,0,0,0-.8-.473l-11.516,3.4a.632.632,0,0,0-.441.738c1.056,4.965,8.906,41.073,17.85,60.828,11.26,24.869,15.4,41.459,21.328,64.114,3.354,12.819,9.608,29.515,10.825,32.725a.631.631,0,0,0,.771.38Z" transform="translate(-195.68 -0.991)" fill="#e0d5f1"/>
      <path id="Trazado_194482" data-name="Trazado 194482" d="M223.619,34.7l-4.677,1.231a.558.558,0,0,0-.4.405l-1.117,4.489a.558.558,0,0,0,.074.439l3.991,6.146a.559.559,0,0,0,.611.236l4.536-1.194a.558.558,0,0,0,.415-.506l.449-7.314a.558.558,0,0,0-.152-.418l-3.182-3.358a.558.558,0,0,0-.547-.156" transform="translate(-174.437 -27.823)" fill="#9de3dc"/>
      <path id="Trazado_194483" data-name="Trazado 194483" d="M240.184,70.591l-3.268,1.276a.648.648,0,0,0-.366.841l4.471,11.448a.645.645,0,0,0,.837.367l3.268-1.276a.648.648,0,0,0,.371-.839L241.026,70.96a.651.651,0,0,0-.842-.369m1.888,4.76a.333.333,0,0,1-.19.434l-2.7,1.052a.335.335,0,0,1-.434-.19l-1.439-3.685a.335.335,0,0,1,.19-.434l2.7-1.053a.333.333,0,0,1,.434.19Z" transform="translate(-189.758 -56.603)" fill="#2d83c3"/>
      <path id="Trazado_194484" data-name="Trazado 194484" d="M235.6,45.9l-1.7.448a.328.328,0,0,1-.4-.234l-2.414-9.172,2.338-.615,2.414,9.172a.328.328,0,0,1-.234.4" transform="translate(-185.408 -29.148)" fill="#e3f3f9"/>
      <path id="Trazado_194485" data-name="Trazado 194485" d="M52.387,236.688l15.026,38.666,34.331,63.714,22.323,41.119,11.609-5.357-26.99-55.375L64.1,231.284Z" transform="translate(-42.033 -185.57)" fill="#e3f3f9"/>
      <path id="Trazado_194486" data-name="Trazado 194486" d="M74.213,388.125a.641.641,0,0,1-.831-.269c-1.693-3.045-10.422-18.893-15.671-31.275-9.275-21.881-15.867-37.933-30.823-61.255C15.009,276.8,1.83,241.693.04,236.862a.641.641,0,0,1,.335-.805l12.435-5.738a.642.642,0,0,1,.872.358C15.6,235.85,28.689,270.637,40.5,289.048c14.956,23.322,21.548,39.374,30.823,61.255,5.2,12.269,13.819,27.941,15.623,31.188a.643.643,0,0,1-.293.9Z" transform="translate(0 -184.747)" fill="#3cafff"/>
      <path id="Trazado_194487" data-name="Trazado 194487" d="M170.656,346.185a.643.643,0,0,0,.293-.9c-1.8-3.247-10.422-18.919-15.623-31.188-9.275-21.881-15.867-37.933-30.823-61.255-11.806-18.41-24.9-53.2-26.814-58.371a.641.641,0,0,0-.872-.358l-11.066,5.106a.641.641,0,0,0-.335.805c1.789,4.831,14.969,39.94,26.849,58.465,14.956,23.322,21.548,39.374,30.823,61.255,5.248,12.381,13.978,28.229,15.671,31.275a.641.641,0,0,0,.831.269Z" transform="translate(-68.502 -155.7)" fill="#3cafff"/>
      <path id="Trazado_194488" data-name="Trazado 194488" d="M70.688,235.878,66.172,237.8a.567.567,0,0,0-.342.466l-.463,4.671a.568.568,0,0,0,.138.43l4.909,5.586a.567.567,0,0,0,.648.147l4.38-1.864a.566.566,0,0,0,.343-.569l-.622-7.411a.567.567,0,0,0-.214-.4l-3.688-2.9a.567.567,0,0,0-.573-.076" transform="translate(-52.445 -189.22)" fill="#e58e91"/>
      <path id="Trazado_194489" data-name="Trazado 194489" d="M75.875,272.029l-3.239-1.48a.658.658,0,0,0-.871.328l-5.183,11.345a.655.655,0,0,0,.324.869l3.239,1.48a.658.658,0,0,0,.873-.322L76.2,272.9a.661.661,0,0,0-.326-.875m-2.134,4.739a.337.337,0,0,1-.45.168l-2.671-1.22a.34.34,0,0,1-.168-.45l1.669-3.652a.34.34,0,0,1,.45-.168l2.671,1.22a.337.337,0,0,1,.168.45Z" transform="translate(-53.374 -217.026)" fill="#b5707e"/>
      <path id="Trazado_194490" data-name="Trazado 194490" d="M81.016,247.787l-1.645.7a.333.333,0,0,1-.437-.176l-3.769-8.857,2.258-.961,3.769,8.856a.333.333,0,0,1-.176.437" transform="translate(-60.308 -191.355)" fill="#ffb4a2"/>
      <path id="Trazado_194491" data-name="Trazado 194491" d="M1225.746,322.722l27.989-33.083a6.082,6.082,0,0,1,5.171-2.131,3.507,3.507,0,0,0,3.141-1.433l1.48-2.037-2.8-2.767-.72.654a1.718,1.718,0,0,1-2.194.1l-1.914-1.453a3.776,3.776,0,0,0-4.9.291c-4.314,4.147-13.8,15.369-25.247,41.862" transform="translate(-983.472 -224.497)" fill="#ffbc82"/>
      <path id="Trazado_194492" data-name="Trazado 194492" d="M1401.233,120.161l1.794-4.038s14.754,4.009,26.283-7.611c6.927-6.976,8.244-14.581,7.734-20.225a19.232,19.232,0,0,0-2.368-7.562c-1.848-3.615-5.737-8.725-11.655-6.848-3.126.992-5.719,6.228-8.632,11.543-2.424,4.429-5.388,9.4-7.216,12.8-4.017,7.472-10.268,17.867-10.268,17.867Zm2.863-5.645L1422.1,79.547a3.773,3.773,0,0,1,6.024-.95,19.589,19.589,0,0,1,5.822,11.165c1.043,8.131-3.679,15.83-10.227,20.311a29.387,29.387,0,0,1-19.625,4.443" transform="translate(-1120.801 -58.953)" fill="#2d83c3"/>
      <path id="Trazado_194493" data-name="Trazado 194493" d="M1316.888,316.317l-1.3-43.315a6.081,6.081,0,0,0-2.718-4.887,3.506,3.506,0,0,1-1.566-3.077l.111-2.515,3.914-.42.156.96a1.718,1.718,0,0,0,1.656,1.442l2.4.055a3.777,3.777,0,0,1,3.656,3.282c.793,5.931,1.223,20.616-6.316,48.477" transform="translate(-1052.12 -210.296)" fill="#fec89a"/>
      <path id="Trazado_194494" data-name="Trazado 194494" d="M1250.567,52.805s1.583-12.026,3.093-20.374c.688-3.8,1.466-9.537,2.328-14.512,1.031-5.972,2.263-11.684.435-14.406-3.461-5.154-9.685-3.578-13.383-1.9a19.24,19.24,0,0,0-6.563,4.442c-3.914,4.1-7.62,10.869-6.544,20.641,1.784,16.271,15.824,22.323,15.824,22.323l-1.111,4.277ZM1233.334,31.4c-2.333-7.583-1.233-16.547,4.647-22.26a19.588,19.588,0,0,1,11.509-5.11,3.773,3.773,0,0,1,4.122,4.5l-7.69,38.573a29.387,29.387,0,0,1-12.588-15.7" transform="translate(-986.681 0.001)" fill="#2d83c3"/>
      <path id="Trazado_194495" data-name="Trazado 194495" d="M1336.688,310.07a2.872,2.872,0,0,0,3.555-1.514c.038-.082.073-.169.1-.253s.055-.17.075-.258a2.872,2.872,0,0,0-5.4-1.886q-.056.122-.1.249c-.03.084-.056.174-.077.262a2.876,2.876,0,0,0,1.843,3.4" transform="translate(-1070.94 -244.301)" fill="#ffbc82"/>
      <path id="Trazado_194496" data-name="Trazado 194496" d="M1335.187,313.467l5.4,1.886c.038-.082.073-.169.1-.253s.055-.17.076-.258l-5.4-1.886a2.6,2.6,0,0,0-.1.249c-.03.084-.056.174-.077.262" transform="translate(-1071.282 -251.099)" fill="#fec89a"/>
      <path id="Trazado_194497" data-name="Trazado 194497" d="M985.378,319.9s-.563,1.324-6.406.585a55.244,55.244,0,0,0-13.91.541c-1.016.146-1.916.3-2.625.424-3.357.585-8.015-60.649-8.015-60.649v-63.5l11.453-35.352v-.007l4.2-12.952,8.4-3.357c2.275,3.744,4.147,25.443,4.637,32.442s1.477,58.082,2.267,82.142,0,59.683,0,59.683" transform="translate(-765.776 -116.851)" fill="#5493ea"/>
      <path id="Trazado_194498" data-name="Trazado 194498" d="M963.686,339.9c2.647,7.774,1.836,35.937,1.375,47.361-1.016.146-1.916.3-2.625.424-3.357.585-8.015-60.649-8.015-60.649v-63.5l11.453-35.352c-.08.746-4.768,43.631-6.129,65.329-1.382,21.889.593,36.573,3.942,46.388" transform="translate(-765.775 -183.083)" fill="#24436f"/>
      <path id="Trazado_194499" data-name="Trazado 194499" d="M368.405,194.656V301.934s-4.666,7.84-8.286,9.617a23.138,23.138,0,0,1-3.174,1.272,36.921,36.921,0,0,1-11.665,1.463,36.132,36.132,0,0,1-6.15-.453,1.714,1.714,0,0,1-1.39-1.616c-.344-8.944-2.486-66.075-2.128-84.234.395-19.724,2.172-42.007,2.172-50.681a107.52,107.52,0,0,1,3.547-26.627,77.847,77.847,0,0,1,4.5-12.03L357.545,167.7v.015Z" transform="translate(-269.245 -111.24)" fill="#5493ea"/>
      <path id="Trazado_194500" data-name="Trazado 194500" d="M594.234,34.957l-6.508,9.7,28.689,104.259L642.452,41.847l-12.72-6.889Z" transform="translate(-471.559 -28.048)" fill="#24436f"/>
      <path id="Trazado_194501" data-name="Trazado 194501" d="M760.453,166.9c-3.7,11.659-3.158,26.128-.4,33.722a119.738,119.738,0,0,1,6.708,29.976c.886,11.242,2.708,30.368,3.153,37.84s.592,18.342.592,18.342c-2.664,6.282-19.449,6.728-26.035,6.875s-15.972,1.185-21.667-.886a14.859,14.859,0,0,1-5.964-4.7,32.045,32.045,0,0,1-3.721-5.8s-.857-29.076-1.3-58.029c-.411-26.828-.465-53.558.852-56.971,2.737-7.1,12.374-34.981,15.434-46.517s14.195-44.964,14.195-44.964c4.833,3.158,20.017,5.719,28.3,8.187A52.236,52.236,0,0,1,783.624,89.6c-13.608,10.449-18.078,61.245-23.17,77.306" transform="translate(-570.923 -60.808)" fill="#5493ea"/>
      <path id="Trazado_194502" data-name="Trazado 194502" d="M614.334,5.457a130.38,130.38,0,0,0,21.352,1.627,148.673,148.673,0,0,0,17.794-1.627l2.49,5.029-.74,6.434s-32.688.616-43.559-.321l.666-7.3Z" transform="translate(-490.773 -4.378)" fill="#5493ea"/>
      <path id="Trazado_194503" data-name="Trazado 194503" d="M455.166,312.662V419.94s-4.666,7.84-8.286,9.617a23.131,23.131,0,0,1-3.174,1.273c.015-5.587.066-13.639.227-23.015.307-18.2,6.494-32.39,7.825-39.25s-.592-29.524-2.954-44.764c-1.814-11.665-3.708-30.087-4.5-38.08Z" transform="translate(-356.006 -229.246)" fill="#24436f"/>
      <path id="Trazado_194504" data-name="Trazado 194504" d="M721.929,710.067c-.7,15.4-2.541,21.677-4.035,24.213a32.039,32.039,0,0,1-3.721-5.8s-.857-29.075-1.3-58.028l7.311-38.531c2.007,8.574,2.982,50.581,1.743,78.148" transform="translate(-571.972 -507.018)" fill="#24436f"/>
      <path id="Trazado_194505" data-name="Trazado 194505" d="M398.256,275.41c-1.878-10.438,0-18.735,1.38-42.4s4.339-31.357,8.086-39.639,5.325-18.538,3.55-24.849-8.086-38.653-10.452-48.711c-2.112-8.974-12.229-36-14.386-41.723a1.118,1.118,0,0,1,.688-1.458c1.612-.542,5.065-1.615,10.739-2.966,8.283-1.972,29.779-9.072,33.92-11.833,0,0,16.566,76.321,20.707,90.52s6.311,22.679,7.3,33.132-2.761,30.568-3.55,51.669-.2,32.737-5.325,38.259-18.341,6.8-21.693,7.4-4.536-.592-11.734-.986-17.775,1.667-19.228-6.409" transform="translate(-309.995 -49.61)" fill="#5493ea"/>
      <path id="Trazado_194506" data-name="Trazado 194506" d="M533.879,5.457s-13.9,11.635-17.279,17.387A40.434,40.434,0,0,0,511.4,37.6l12.424,1.676L511.4,49.731s38.8,63.9,47.132,79.55c0,0-13.556-57.413-16.219-72.5S531.661,8.957,533.879,5.457" transform="translate(-410.317 -4.378)" fill="#4174ba"/>
      <path id="Trazado_194507" data-name="Trazado 194507" d="M739.2,5.457a57.315,57.315,0,0,1,0,13.9c-.888,8.579-20.693,90.8-20.693,90.8s18.524-25.915,28.187-39.818S760.1,50.446,760.1,50.446L748.86,39.081l12.129-.986S760.44,27.66,758,23.017s-7.712-6.27-12.248-10.9S740.38,6.246,739.2,5.457" transform="translate(-576.489 -4.378)" fill="#4174ba"/>
      <path id="Trazado_194508" data-name="Trazado 194508" d="M713.843,664.432A4.435,4.435,0,1,1,709.407,660a4.435,4.435,0,0,1,4.435,4.435" transform="translate(-565.631 -529.546)" fill="#fec89a"/>
      <path id="Trazado_194509" data-name="Trazado 194509" d="M477.123,796.056l-3.889,18.1a2.8,2.8,0,0,1-3.479,2.107l-12.689-3.514Z" transform="translate(-366.725 -638.712)" fill="#a3312a"/>
      <path id="Trazado_194510" data-name="Trazado 194510" d="M444.9,797.824a1.073,1.073,0,0,0,.8,1.375c3.375.717,13.059,2.719,14.521,2.414,1.775-.37,7.1-18.784,7.1-18.784L450.7,779.57Z" transform="translate(-356.926 -625.485)" fill="#5493ea"/>
      <path id="Trazado_194511" data-name="Trazado 194511" d="M893.492,793.417l3.889,18.1a2.8,2.8,0,0,0,3.479,2.107l12.689-3.514Z" transform="translate(-716.89 -636.595)" fill="#24436f"/>
      <path id="Trazado_194512" data-name="Trazado 194512" d="M915.912,795.184a1.073,1.073,0,0,1-.8,1.375c-3.375.717-13.059,2.719-14.521,2.414-1.775-.37-7.1-18.784-7.1-18.784l16.625-3.259Z" transform="translate(-716.89 -623.367)" fill="#5493ea"/>
      <path id="Trazado_194513" data-name="Trazado 194513" d="M1098.579,877.777h-68.013l6.8-66.514c0-4.593,9.294-8.427,21.662-9.323,1.792-.132,3.648-.2,5.548-.2,15.032,0,27.215,4.265,27.215,9.524Z" transform="translate(-826.871 -643.272)" fill="#e0d5f1"/>
      <path id="Trazado_194514" data-name="Trazado 194514" d="M1087.484,878.592h-56.917l6.8-66.514c0-4.593,9.294-8.427,21.662-9.323,12.369.9,21.662,4.73,21.662,9.323Z" transform="translate(-826.871 -644.087)" fill="#ede7f7"/>
      <path id="Trazado_194515" data-name="Trazado 194515" d="M1008.465,1160.016h72.562a2.611,2.611,0,0,1,0,5.222h-72.562a2.611,2.611,0,1,1,0-5.222" transform="translate(-807.043 -930.734)" fill="#a089c4"/>
      <path id="Trazado_194516" data-name="Trazado 194516" d="M1194.333,921.777a2.71,2.71,0,1,1-2.71-2.71,2.71,2.71,0,0,1,2.71,2.71" transform="translate(-953.919 -737.41)" fill="#a089c4"/>
      <path id="Trazado_194517" data-name="Trazado 194517" d="M1194.333,971.268a2.71,2.71,0,1,1-2.71-2.71,2.71,2.71,0,0,1,2.71,2.71" transform="translate(-953.919 -777.119)" fill="#a089c4"/>
      <path id="Trazado_194518" data-name="Trazado 194518" d="M1194.333,1020.758a2.71,2.71,0,1,1-2.71-2.71,2.71,2.71,0,0,1,2.71,2.71" transform="translate(-953.919 -816.827)" fill="#a089c4"/>
      <path id="Trazado_194519" data-name="Trazado 194519" d="M1194.333,1070.249a2.71,2.71,0,1,1-2.71-2.71,2.71,2.71,0,0,1,2.71,2.71" transform="translate(-953.919 -856.535)" fill="#a089c4"/>
      <path id="Trazado_194520" data-name="Trazado 194520" d="M1194.333,1119.74a2.71,2.71,0,1,1-2.71-2.71,2.71,2.71,0,0,1,2.71,2.71" transform="translate(-953.919 -896.244)" fill="#a089c4"/>
      <path id="Trazado_194521" data-name="Trazado 194521" d="M1076.2,901.458a2.71,2.71,0,1,0,2.975-2.417,2.71,2.71,0,0,0-2.975,2.417" transform="translate(-863.473 -721.331)" fill="#a089c4"/>
      <path id="Trazado_194522" data-name="Trazado 194522" d="M1071.1,953.206a2.71,2.71,0,1,0,2.975-2.417,2.71,2.71,0,0,0-2.975,2.417" transform="translate(-859.383 -762.85)" fill="#a089c4"/>
      <path id="Trazado_194523" data-name="Trazado 194523" d="M1066.006,1004.955a2.71,2.71,0,1,0,2.975-2.417,2.71,2.71,0,0,0-2.975,2.417" transform="translate(-855.294 -804.371)" fill="#a089c4"/>
      <path id="Trazado_194524" data-name="Trazado 194524" d="M1060.91,1056.7a2.71,2.71,0,1,0,2.975-2.417,2.71,2.71,0,0,0-2.975,2.417" transform="translate(-851.205 -845.891)" fill="#a089c4"/>
      <path id="Trazado_194525" data-name="Trazado 194525" d="M1055.813,1108.451a2.71,2.71,0,1,0,2.975-2.417,2.71,2.71,0,0,0-2.975,2.417" transform="translate(-847.115 -887.411)" fill="#a089c4"/>
      <path id="Trazado_194526" data-name="Trazado 194526" d="M1130.314,915.121a2.71,2.71,0,1,0,2.864-2.547,2.71,2.71,0,0,0-2.864,2.547" transform="translate(-906.899 -732.196)" fill="#a089c4"/>
      <path id="Trazado_194527" data-name="Trazado 194527" d="M1127.419,966.253a2.71,2.71,0,1,0,2.864-2.547,2.71,2.71,0,0,0-2.864,2.547" transform="translate(-904.576 -773.222)" fill="#a089c4"/>
      <path id="Trazado_194528" data-name="Trazado 194528" d="M1124.524,1017.386a2.71,2.71,0,1,0,2.864-2.547,2.71,2.71,0,0,0-2.864,2.547" transform="translate(-902.253 -814.248)" fill="#a089c4"/>
      <path id="Trazado_194529" data-name="Trazado 194529" d="M1121.63,1068.518a2.71,2.71,0,1,0,2.864-2.547,2.71,2.71,0,0,0-2.864,2.547" transform="translate(-899.932 -855.274)" fill="#a089c4"/>
      <path id="Trazado_194530" data-name="Trazado 194530" d="M1117.726,1119.651a2.71,2.71,0,1,0,2.864-2.547,2.71,2.71,0,0,0-2.864,2.547" transform="translate(-896.799 -896.301)" fill="#a089c4"/>
      <path id="Trazado_194531" data-name="Trazado 194531" d="M1307.046,901.458a2.71,2.71,0,1,1-2.975-2.417,2.71,2.71,0,0,1,2.975,2.417" transform="translate(-1044.366 -721.331)" fill="#a089c4"/>
      <path id="Trazado_194532" data-name="Trazado 194532" d="M1312.142,953.206a2.71,2.71,0,1,1-2.975-2.417,2.71,2.71,0,0,1,2.975,2.417" transform="translate(-1048.454 -762.85)" fill="#a089c4"/>
      <path id="Trazado_194533" data-name="Trazado 194533" d="M1317.239,1004.955a2.71,2.71,0,1,1-2.975-2.417,2.71,2.71,0,0,1,2.975,2.417" transform="translate(-1052.544 -804.371)" fill="#a089c4"/>
      <path id="Trazado_194534" data-name="Trazado 194534" d="M1322.336,1056.7a2.71,2.71,0,1,1-2.975-2.417,2.71,2.71,0,0,1,2.975,2.417" transform="translate(-1056.633 -845.891)" fill="#a089c4"/>
      <path id="Trazado_194535" data-name="Trazado 194535" d="M1327.432,1108.451a2.71,2.71,0,1,1-2.975-2.417,2.71,2.71,0,0,1,2.975,2.417" transform="translate(-1060.722 -887.411)" fill="#a089c4"/>
      <path id="Trazado_194536" data-name="Trazado 194536" d="M1252.932,915.121a2.71,2.71,0,1,1-2.864-2.547,2.71,2.71,0,0,1,2.864,2.547" transform="translate(-1000.94 -732.196)" fill="#a089c4"/>
      <path id="Trazado_194537" data-name="Trazado 194537" d="M1255.827,966.253a2.71,2.71,0,1,1-2.864-2.547,2.71,2.71,0,0,1,2.864,2.547" transform="translate(-1003.262 -773.222)" fill="#a089c4"/>
      <path id="Trazado_194538" data-name="Trazado 194538" d="M1258.721,1017.386a2.71,2.71,0,1,1-2.864-2.547,2.71,2.71,0,0,1,2.864,2.547" transform="translate(-1005.585 -814.248)" fill="#a089c4"/>
      <path id="Trazado_194539" data-name="Trazado 194539" d="M1261.615,1068.518a2.71,2.71,0,1,1-2.864-2.547,2.71,2.71,0,0,1,2.864,2.547" transform="translate(-1007.907 -855.274)" fill="#a089c4"/>
      <path id="Trazado_194540" data-name="Trazado 194540" d="M1265.52,1119.651a2.71,2.71,0,1,1-2.864-2.547,2.71,2.71,0,0,1,2.864,2.547" transform="translate(-1011.039 -896.301)" fill="#a089c4"/>
      <path id="Trazado_194541" data-name="Trazado 194541" d="M972.686,171.937l4.7,1.44.73.223.724.222,14.84,4.548a5.785,5.785,0,0,0,3.389-11.063l-13.951-4.275-1.614-.494-1.614-.494-3.815-1.169a5.785,5.785,0,0,0-3.389,11.062" transform="translate(-777.15 -128.874)" fill="#f7b897"/>
      <path id="Trazado_194542" data-name="Trazado 194542" d="M1095.93,194.038l6.047.66,1.832,11.145s-4.214,13.432-3.872,17.292h-18.469a15.362,15.362,0,0,0-.293-6.987c-1.075-3.371-2.859-7.561-2.834-10.554.026-3.1,4.4-5.423,6.547-11.555h11.042Z" transform="translate(-865.202 -155.685)" fill="#ffdecc"/>
      <path id="Trazado_194543" data-name="Trazado 194543" d="M1112.957,134.282c-.962-.43-1.119-.12-2.164-.1a3.917,3.917,0,0,1-2.064-.735l-1.336-5.073,2.546-4.558,2.728-3.235,2.786,2.445-1.062,9.872Z" transform="translate(-888.512 -96.749)" fill="#3e3b42"/>
      <path id="Trazado_194544" data-name="Trazado 194544" d="M1138.762,165.265l-.059-7.088-6.139.907-.84,6.181s2.934,2.614,7.038,0" transform="translate(-908.034 -126.912)" fill="#f7b897"/>
      <path id="Trazado_194545" data-name="Trazado 194545" d="M1133.327,171.115s2.86.28,4.4-1.6-4.064-.867-4.064-.867Z" transform="translate(-909.32 -135.094)" fill="#de8759"/>
      <path id="Trazado_194546" data-name="Trazado 194546" d="M1122.869,117.194a4.506,4.506,0,0,0,9.011-.19l-.109-5.164a3.818,3.818,0,1,0-7.634.161,8.858,8.858,0,0,1-.813,3.125c-.023.049-.043.086-.051.1a.03.03,0,0,0,0,.012,4.464,4.464,0,0,0-.4,1.953" transform="translate(-900.929 -86.734)" fill="#f7b897"/>
      <path id="Trazado_194547" data-name="Trazado 194547" d="M1139.539,139.991s-.151,1.915-.989,2.315a.925.925,0,0,0,.855.419" transform="translate(-913.511 -112.321)" fill="none" stroke="#de8759" stroke-linecap="round" stroke-linejoin="round" stroke-width="1.228"/>
      <path id="Trazado_194548" data-name="Trazado 194548" d="M1150.2,139.869c.006.281.144.507.308.5s.292-.234.286-.516-.144-.507-.308-.5-.292.234-.286.516" transform="translate(-922.856 -111.809)" fill="#16142a"/>
      <path id="Trazado_194549" data-name="Trazado 194549" d="M1133.814,139.5c.006.281.144.507.308.5s.292-.234.286-.516-.144-.507-.307-.5-.292.235-.286.516" transform="translate(-909.711 -111.513)" fill="#16142a"/>
      <path id="Trazado_194550" data-name="Trazado 194550" d="M1150.46,136.194a1.268,1.268,0,0,0-1.375-.435" transform="translate(-921.964 -108.9)" fill="none" stroke="#16142a" stroke-miterlimit="10" stroke-width="1.228"/>
      <path id="Trazado_194551" data-name="Trazado 194551" d="M1132.342,134.673a1.271,1.271,0,0,0-1.276.343" transform="translate(-907.506 -108.015)" fill="none" stroke="#16142a" stroke-miterlimit="10" stroke-width="1.228"/>
      <path id="Trazado_194552" data-name="Trazado 194552" d="M1155.707,106.823s-.374,1.4.2,1.846,1.346.176,1.574.807-.425.757-.268,1.388.743.861.808,1.4-.695,1.062-.621,1.613a21.5,21.5,0,0,1,.534,2.99c-.07.565-.692,1.655-.523,2.368a3.509,3.509,0,0,1,0,1.7c-.109.658-.3,1.09-.063,1.639a6.326,6.326,0,0,0,2.433-.223,2.951,2.951,0,0,1,1.8-.294,3.57,3.57,0,0,0,2.223-.487c.563-.483.771-.826,1.449-.727a3.467,3.467,0,0,0,2.179-.128c.463-.358,1.206-.128,1.632-.321s.747-.523.665-.762a2.388,2.388,0,0,0-1.3-1.053.953.953,0,0,1-.783-.946,2.5,2.5,0,0,0-.088-1.97c-.509-.8-1.442-.4-1.9-1s.13-1.62-.493-2.032-1.2-.011-1.54-.629.327-1.335-.384-2.016-1.176-.071-1.9-.6-.333-1.55-1-2.041-1.208-.316-1.5-1.2-2.144-.624-3.14.681" transform="translate(-927.181 -84.748)" fill="#3e3b42"/>
      <path id="Trazado_194553" data-name="Trazado 194553" d="M1101.043,100.186a1.649,1.649,0,0,1-1.35.766c-.807-.078-1.707,0-2.011.493s-.349,1.592-1.121,1.881-1.123.483-1.219,1.15.677,1.033.368,1.927-1.256.641-1.883,1.351a1.788,1.788,0,0,0-.242,2.116,2.021,2.021,0,0,1-.27,2.087c-.466.6-.4,1.156-.012,2.008s.114,1.814-.25,1.917-1.335-.668-1.842-.726-1.857.039-2.231-.24-.52-.713-1.165-.836-.756-.245-.682-.615a3.244,3.244,0,0,1,1.02-1.642c.6-.494.387-1.586.745-2.054s1.287-.191,1.654-.742-.393-1.327-.125-1.845.855-.237,1.277-1.01-.143-.944.17-1.624,1.18-.4,1.494-1.047-.236-1.484.2-2.217,1.018-.308,1.363-.766.017-1.1.741-1.457,1.27-.006,1.745-.173.471-1.3,1.751-1.478,2.56-.075,2.709,2.015Z" transform="translate(-872.241 -78.111)" fill="#3e3b42"/>
      <path id="Trazado_194554" data-name="Trazado 194554" d="M1162.606,151a1.672,1.672,0,1,0,.282-2.058,1.489,1.489,0,0,0-.282,2.058" transform="translate(-932.571 -119.077)" fill="#f7b897"/>
      <path id="Trazado_194555" data-name="Trazado 194555" d="M1164.81,160.892a1.3,1.3,0,1,0,1.271-1.325A1.3,1.3,0,0,0,1164.81,160.892Z" transform="translate(-934.58 -128.027)" fill="none" stroke="#f6f1ef" stroke-miterlimit="10" stroke-width="1.228"/>
      <line id="Línea_182" data-name="Línea 182" y1="0.992" x2="1.393" transform="translate(230.365 30.229)" fill="none" stroke="#de8759" stroke-miterlimit="10" stroke-width="1.228"/>
      <path id="Trazado_194556" data-name="Trazado 194556" d="M1138.87,158.381a.478.478,0,0,1-.717-.078c-.222-.267-.437-.325-.592-.16-.1.1-.2.084-.3-.039s-.328-.146-.451.123c-.217.477-.546.332-.786.188,0,0,.779.955,1.5.93.683-.024,1.348-.965,1.348-.965" transform="translate(-911.484 -126.788)" fill="#dd5850"/>
      <path id="Trazado_194557" data-name="Trazado 194557" d="M1084.322,129.065a3.634,3.634,0,0,0,1.039-2.623c-.025-.887.919-.672,1.786-1.67s.1-1.963,1.035-2.893c.984-.974,1.069-.1,2.467-1.392a3.1,3.1,0,0,0,.719-1.826" transform="translate(-870.002 -95.206)" fill="none" stroke="#3e3b42" stroke-miterlimit="10" stroke-width="1.228"/>
      <path id="Trazado_194558" data-name="Trazado 194558" d="M1125.1,585.828c-.725-3.363-.708-6.086-4.06-6.859a6.23,6.23,0,0,0-7.629,5.9l.473,44.55,5.779,1.033,2.74-3.173a215.519,215.519,0,0,0,3.72-24.525c.984-9.738-.3-13.558-1.023-16.925" transform="translate(-893.338 -464.404)" fill="#f7b897"/>
      <path id="Trazado_194559" data-name="Trazado 194559" d="M1063.865,825.582v1.667a.32.32,0,0,0,.319.32h18.94a.32.32,0,0,0,.318-.356l-.8-6.958h-1.154c-1.007,0-2.269.017-2.766.919s-1.5,1.576-2.162.44c-.415-.715-.752-1.892-2.089-2.29a12.238,12.238,0,0,1-4.984,2.877c-1.882.765-5.838,1.635-5.622,3.381" transform="translate(-853.581 -657.381)" fill="#fff"/>
      <path id="Trazado_194560" data-name="Trazado 194560" d="M894.422,72.708c-.428-.519,1.91-.174,2.18-.466.512-.556-1.09-3.5-.745-3.729.576-.39,1.327.845,1.681,1.508a28.681,28.681,0,0,1,1.977,3.855,6.394,6.394,0,0,0,1.869,2.864,97.359,97.359,0,0,0,7.762,5.919c4.8,3.382,7.3,5.078,7.4,5.162l0,.006a5.579,5.579,0,1,1-7.761,7.807l-.007-.007c-1.626-1.962-9.734-12.627-10.9-13.819a33.365,33.365,0,0,0-4.12-3.645c-.776-.558-.428-2.415-.428-2.415s-.763-2.133.5-1.47Z" transform="translate(-716.579 -54.911)" fill="#f7b897"/>
      <line id="Línea_183" data-name="Línea 183" x2="16.559" transform="translate(210.276 168.202)" fill="none" stroke="#ffdecc" stroke-miterlimit="10" stroke-width="2.746"/>
      <path id="Trazado_194561" data-name="Trazado 194561" d="M1232.906,587.7a6.23,6.23,0,1,0-11.671,4.182l13.254,37,1.783,5.334,5.618-1.7.753-4.7s-.938-9.224-2.958-22.316c-1.522-9.868-3.416-13.3-6.779-17.8" transform="translate(-979.367 -467.745)" fill="#f7b897"/>
      <path id="Trazado_194562" data-name="Trazado 194562" d="M1250.671,816.821v1.667a.32.32,0,0,0,.32.32h10.163a.318.318,0,0,0,.121-.024l8.059-3.3a.32.32,0,0,0,.173-.42L1266.7,808.4l-1.125.28a2.928,2.928,0,0,0-2.162,1.891c-.757,1.71-2.37-.342-4.675-.012-1.286,2.822-3.077,3.44-4.56,3.628-2.016.255-3.725.884-3.51,2.63" transform="translate(-1003.456 -648.62)" fill="#fff"/>
      <path id="Trazado_194563" data-name="Trazado 194563" d="M1059.862,180.419s-1.844,7.93-1.72,12.758l5.722.371,4.813-10.437Z" transform="translate(-848.991 -144.758)" fill="#ffdecc"/>
      <path id="Trazado_194564" data-name="Trazado 194564" d="M1250.706,842.888h10.113l5.619-2" transform="translate(-1003.499 -674.686)" fill="none" stroke="#ffdecc" stroke-miterlimit="10" stroke-width="2.746"/>
      <path id="Trazado_194565" data-name="Trazado 194565" d="M460.4,123.216v37.433c0,12.148.974,97.238.743,121.053s.357,36.933-2,39.574-1.989,2.674-2.288,4.952-7.8,1.953-25.126,1.769-73.514,0-73.514,0l2.377,5.559h99.029c4.456,0,5.481-2.179,6.141-6.668.26-1.766,3.718-7.672,4.071-16.439,1.158-28.747,1.21-86.542,2.219-133.163.843-38.933,1.615-50.926,1.615-53.353Z" transform="translate(-287.416 -98.862)" fill="#6f69b1"/>
      <path id="Trazado_194566" data-name="Trazado 194566" d="M919.1,247.659c-.023-.73,6.938-1.11,6.938-1.11-.665-.1-6.255-.218-6.271-.844-.011-.434,1.144-.509,3.066-.67,2.4-.2,4.518.115,4.525-.282.014-.756-3.137-1.889-3.034-2.293.171-.674,1.553-.249,2.258.011a28.69,28.69,0,0,1,4.039,1.569,6.393,6.393,0,0,0,3.3.9,97.331,97.331,0,0,0,9.734-.731c5.831-.657,8.83-1.052,8.962-1.058v.006A5.579,5.579,0,1,1,952,254.146h-.01c-2.519-.387-15.664-2.973-17.324-3.092a33.356,33.356,0,0,0-5.5.012c-.951.1-6.5.235-6.771-.155-.34-.494,4.847-1.366,4.847-1.366s-7.041.185-7.068,0c-.111-.788,5.08-1.085,6.466-1.429,0,0-7.522.162-7.542-.454" transform="translate(-737.434 -194.245)" fill="#f7b897"/>
      <path id="Trazado_194567" data-name="Trazado 194567" d="M1080.957,239.5s-1.171-3.724-1.774-5.239a11.086,11.086,0,0,1-1.061-5.316c.244-1.661,2.107-4.421,3.374-5.8" transform="translate(-864.984 -179.042)" fill="none" stroke="#3e3b42" stroke-miterlimit="10" stroke-width="1.228"/>
      <path id="Trazado_194568" data-name="Trazado 194568" d="M888.154,95.582H875.511a.314.314,0,0,1-.313-.314V86.788a.314.314,0,0,1,.313-.314h12.643a.314.314,0,0,1,.314.314v8.481a.314.314,0,0,1-.314.314" transform="translate(-702.212 -69.382)" fill="#7e718f"/>
      <path id="Trazado_194569" data-name="Trazado 194569" d="M1109.056,339.868l-1.224,42.463-.313,10.88-.925,32.18a16.637,16.637,0,0,1-12.746,0s-4.191-63.841-4.123-72.361a74.078,74.078,0,0,1,1.033-13.162Z" transform="translate(-874.336 -272.692)" fill="#7e718f"/>
      <path id="Trazado_194570" data-name="Trazado 194570" d="M1113.258,340.136s5.246,1.172,8.118,10.184,10.313,35.585,12.221,39.81,6.765,11.1,8.2,30.5a16.675,16.675,0,0,1-12.368,4.093l-34.487-84.862Z" transform="translate(-878.523 -272.688)" fill="#7e718f"/>
      <path id="Trazado_194571" data-name="Trazado 194571" d="M1088.17,259.7s-2.2-.655-1.547-3.605c.719-3.25.4-8.292-.074-11.554-.242-1.658,1.286-4.588,1.286-4.588h14.28s-1.016,4.107-1.179,5.843c-.5,5.282.637,9.048,1.179,9.952,1.32,2.205,2.849,4.2,2.849,4.2Z" transform="translate(-871.75 -192.528)" fill="#7e718f"/>
      <path id="Trazado_194572" data-name="Trazado 194572" d="M1098.447,194.038s-3.33,6.3-3.571,9.719-3.361,3.219-3.064.5,3.869-10.215,3.869-10.215Z" transform="translate(-875.995 -155.685)" fill="#7e718f"/>
      <path id="Trazado_194573" data-name="Trazado 194573" d="M1154.4,194.91a38.417,38.417,0,0,0-3.764,5.759c-1.461,3-1.882,4.927-.718,5.248s2.215-.892,2.54-2.1a28.163,28.163,0,0,1,4.582-8.616Z" transform="translate(-922.095 -156.385)" fill="#7e718f"/>
      <path id="Trazado_194574" data-name="Trazado 194574" d="M1141.021,450.352l-.325,11.294-9.622-36.484Z" transform="translate(-907.513 -341.127)" fill="#706185"/>
      <path id="Trazado_194575" data-name="Trazado 194575" d="M1070.96,218.338l4.443-2.1.689-.327.685-.324,14.031-6.637a5.785,5.785,0,0,0-4.948-10.458l-13.19,6.239-1.526.722-1.526.722-3.606,1.706a5.785,5.785,0,0,0,4.948,10.458" transform="translate(-852.657 -158.813)" fill="#f7b897"/>
      <path id="Trazado_194576" data-name="Trazado 194576" d="M900.729,85.079h0a.555.555,0,0,1-.7-.351l-.7-2.115a.553.553,0,1,1,1.05-.347l.7,2.115a.555.555,0,0,1-.351.7" transform="translate(-721.552 -65.701)" fill="#f7b897"/>
      <path id="Trazado_194577" data-name="Trazado 194577" d="M894.9,85.079h0a.555.555,0,0,1-.7-.351l-.7-2.115a.553.553,0,1,1,1.05-.347l.7,2.115a.555.555,0,0,1-.351.7" transform="translate(-716.879 -65.701)" fill="#f7b897"/>
      <path id="Trazado_194578" data-name="Trazado 194578" d="M889.08,85.079h0a.555.555,0,0,1-.7-.351l-.7-2.115a.553.553,0,1,1,1.05-.347l.7,2.115a.555.555,0,0,1-.351.7" transform="translate(-712.205 -65.701)" fill="#f7b897"/>
      <path id="Trazado_194579" data-name="Trazado 194579" d="M883.256,85.079h0a.555.555,0,0,1-.7-.351l-.7-2.115a.553.553,0,1,1,1.05-.347l.7,2.115a.555.555,0,0,1-.351.7" transform="translate(-707.532 -65.701)" fill="#f7b897"/>
      <path id="Trazado_194580" data-name="Trazado 194580" d="M1134.9,202.153s3.03,10.217,5.043,11.5c0,0,9.177-4.655,10.662-6.371s2.113-4.539,1.2-6.388a6.835,6.835,0,0,0-4.454-3.613,13.055,13.055,0,0,0-5.614,1.385c-1.915.842-6.842,3.482-6.842,3.482" transform="translate(-910.586 -158.273)" fill="#ffdecc"/>
      <line id="Línea_184" data-name="Línea 184" y1="4.297" x2="7.452" transform="translate(231.154 50.157)" fill="none" stroke="#3e3b42" stroke-miterlimit="10" stroke-width="1.228"/>
      <path id="Trazado_194581" data-name="Trazado 194581" d="M496.633,1104.339c0,.777-3.67,1.408-8.194,1.408s-8.183-.627-8.194-1.4v0c0-.781,3.666-1.411,8.194-1.411s8.194.63,8.194,1.411" transform="translate(-385.323 -884.93)" fill="#3e3b42"/>
      <path id="Trazado_194582" data-name="Trazado 194582" d="M490.123,912.186a6.3,6.3,0,1,0-12.48,1.249L481.6,953l.445,5.672,5.932-.3,1.891-4.433s1.336-9.284,2.558-22.63c.921-10.06-.1-13.89-2.3-19.13" transform="translate(-383.135 -726.832)" fill="#f7b897"/>
      <path id="Trazado_194583" data-name="Trazado 194583" d="M443.827,1150.609v1.666a.344.344,0,0,0,.344.344h19.116a.344.344,0,0,0,.342-.384l-.806-7.015h-1.168c-1.019,0-2.3.018-2.8.93s-1.52,1.594-2.187.445c-.42-.723-.761-1.914-2.113-2.317a12.373,12.373,0,0,1-5.042,2.91c-1.9.774-5.906,1.655-5.688,3.421" transform="translate(-356.096 -918.107)" fill="#fff"/>
      <line id="Línea_185" data-name="Línea 185" x2="16.752" transform="translate(87.723 232.504)" fill="none" stroke="#efecdb" stroke-miterlimit="10" stroke-width="2.778"/>
      <path id="Trazado_194584" data-name="Trazado 194584" d="M630.6,1089.083c-4.344,1.265-8.043,1.683-8.26.935s3.127-2.376,7.475-3.641c4.322-1.254,8-1.675,8.256-.946,0,0,0,.008,0,.011.216.748-3.131,2.379-7.475,3.64" transform="translate(-499.323 -870.605)" fill="#3e3b42"/>
      <path id="Trazado_194585" data-name="Trazado 194585" d="M591.986,913.774a6.3,6.3,0,1,1,12.207-2.883l9.846,41.738-2.1,6.333-6.171-5.39s-4.23-8.741-9.73-20.963c-4.146-9.212-4.429-13.165-4.055-18.836" transform="translate(-474.701 -726.459)" fill="#f7b897"/>
      <path id="Trazado_194586" data-name="Trazado 194586" d="M406.567,431.334a4.487,4.487,0,0,0-4.048,0c-2.135,1.095-2.778,2.978-3.668,5.052s-2.916,4.321-5.932,3.914-6.821.6-8.255,3.953-7.711,2.511-7.711,2.511-.989,6.722,1.829,9.145c0,0,3.089-.05,4.758-1.94s2.814-3.906,4.782-3.983c0,0-2.854,1.314-3.6,3.909a6.217,6.217,0,0,1-3.3,3.67,20.058,20.058,0,0,0,16.312,6.414c10.306-.853,17.154-12.248,17.154-12.248a4.548,4.548,0,0,0-.619-4.744c-1.879-2.051-.791-5.049-2.57-6.837s-5.136-8.815-5.136-8.815" transform="translate(-302.312 -345.689)" fill="#3e3b42"/>
      <path id="Trazado_194587" data-name="Trazado 194587" d="M560.691,548.483h0a5.87,5.87,0,0,1-8.1,1.688L534.008,538a5.852,5.852,0,0,1,6.415-9.79L559,540.38a5.87,5.87,0,0,1,1.688,8.1" transform="translate(-426.342 -423.041)" fill="#f7b897"/>
      <path id="Trazado_194588" data-name="Trazado 194588" d="M509.451,491.142l.059-7.171,6.211.918.85,6.253s-2.968,2.645-7.12,0" transform="translate(-408.756 -388.312)" fill="#f7b897"/>
      <path id="Trazado_194589" data-name="Trazado 194589" d="M523.112,498.476s-3.569-.028-5.086-1.867l4.78-.383Z" transform="translate(-415.636 -398.146)" fill="#de8759"/>
      <path id="Trazado_194590" data-name="Trazado 194590" d="M517.42,442.509a4.559,4.559,0,0,1-9.116-.192l.11-5.224a3.862,3.862,0,1,1,7.723.163,8.958,8.958,0,0,0,.823,3.161c.023.05.043.087.051.1a.034.034,0,0,1,0,.013,4.514,4.514,0,0,1,.4,1.976" transform="translate(-407.835 -347.664)" fill="#f7b897"/>
      <path id="Trazado_194591" data-name="Trazado 194591" d="M533.508,463.909s.153,1.938,1,2.342a.937.937,0,0,1-.866.424" transform="translate(-428.058 -372.215)" fill="none" stroke="#de8759" stroke-linecap="round" stroke-linejoin="round" stroke-width="1.242"/>
      <path id="Trazado_194592" data-name="Trazado 194592" d="M523.681,463.056c-.006.285-.145.513-.311.509s-.3-.237-.289-.522.145-.513.311-.509.3.237.29.522" transform="translate(-419.691 -371.112)" fill="#16142a"/>
      <path id="Trazado_194593" data-name="Trazado 194593" d="M515.079,435.425s-.625-1.52-1.663-1.538-1.78-.352-1.928-1.038a1.8,1.8,0,0,1-1.39,1.613c-1.3.26-2.28,2.091-2.373,3.159a13.606,13.606,0,0,0,.249,2.847l-.993-.779a40.778,40.778,0,0,1,.373-5.839,3.927,3.927,0,0,1,4.013-2.641s1.27-.639,2.039.028,1.095,1.558,1.937,2.261-.265,1.928-.265,1.928" transform="translate(-406.774 -345.756)" fill="#3e3b42"/>
      <path id="Trazado_194594" data-name="Trazado 194594" d="M481.159,514.03l-6.117-1.532-.853,16.905s3.262,10.158,2.916,14.063H495.79a15.542,15.542,0,0,1,.3-7.068c1.087-3.411,2.893-6.364,2.867-9.392-.026-3.133-4.449-5.306-6.624-11.509l-4.7-1.466Z" transform="translate(-380.464 -411.201)" fill="#e58e91"/>
      <path id="Trazado_194595" data-name="Trazado 194595" d="M678.846,1150.609v1.671a.339.339,0,0,1-.339.339H659.378a.339.339,0,0,1-.336-.377l.806-7.022h1.168c1.018,0,2.3.018,2.8.93s1.52,1.594,2.187.445c.42-.723.761-1.914,2.113-2.317a12.373,12.373,0,0,0,5.042,2.91c1.9.774,5.906,1.655,5.688,3.421" transform="translate(-528.778 -918.107)" fill="#fff"/>
      <line id="Línea_186" data-name="Línea 186" x1="16.752" transform="translate(133.324 232.504)" fill="none" stroke="#efecdb" stroke-miterlimit="10" stroke-width="2.778"/>
      <path id="Trazado_194596" data-name="Trazado 194596" d="M540.256,462.683c-.006.285-.146.513-.311.509s-.3-.237-.289-.522.145-.513.311-.509.3.237.29.522" transform="translate(-432.99 -370.813)" fill="#16142a"/>
      <path id="Trazado_194597" data-name="Trazado 194597" d="M520.209,459.339a1.283,1.283,0,0,1,1.391-.44" transform="translate(-417.388 -368.17)" fill="none" stroke="#16142a" stroke-miterlimit="10" stroke-width="1.242"/>
      <path id="Trazado_194598" data-name="Trazado 194598" d="M474.751,750.1c0-.781-3.67-1.411-8.194-1.411s-8.194.63-8.194,1.411c-.088-.671-6.725-67.94-5.149-74.33,1.58-6.427,6.857-14.346,6.857-14.346h11.82Z" transform="translate(-363.441 -530.694)" fill="#6d6875"/>
      <path id="Trazado_194599" data-name="Trazado 194599" d="M531.177,745.521c-.253-.73-3.934-.308-8.256.946-4.348,1.265-7.7,2.893-7.475,3.641L489.1,661.428h18.552c-.048,2.126,1.751,5.69,3.266,9.493a154.019,154.019,0,0,1,6.255,20.6c1.862,7.446,13.822,53.169,14,54" transform="translate(-392.43 -530.694)" fill="#6d6875"/>
      <path id="Trazado_194600" data-name="Trazado 194600" d="M538.945,457.8a1.286,1.286,0,0,1,1.291.347" transform="translate(-432.42 -367.273)" fill="none" stroke="#16142a" stroke-miterlimit="10" stroke-width="1.242"/>
      <path id="Trazado_194601" data-name="Trazado 194601" d="M502.109,476.71a1.692,1.692,0,1,1-.285-2.082,1.506,1.506,0,0,1,.285,2.082" transform="translate(-400.714 -380.385)" fill="#f7b897"/>
      <path id="Trazado_194602" data-name="Trazado 194602" d="M501.34,486.718a1.314,1.314,0,1,1-1.286-1.341A1.314,1.314,0,0,1,501.34,486.718Z" transform="translate(-400.141 -389.44)" fill="none" stroke="#f6f1ef" stroke-miterlimit="10" stroke-width="1.242"/>
      <line id="Línea_187" data-name="Línea 187" x1="1.409" y1="1.004" transform="translate(99.654 94.611)" fill="none" stroke="#de8759" stroke-miterlimit="10" stroke-width="1.242"/>
      <path id="Trazado_194603" data-name="Trazado 194603" d="M541.939,526.633a10.346,10.346,0,0,1,4.757,1.946,83.321,83.321,0,0,0,7.335,4.844s-1.987,7.894-6.641,11.44l-10.552-6.677Z" transform="translate(-430.729 -422.542)" fill="#e58e91"/>
      <path id="Trazado_194604" data-name="Trazado 194604" d="M584.2,569.419s1.624-4.613,2.026-6.65-1.99-4.284-3.262-6.251" transform="translate(-467.736 -446.52)" fill="none" stroke="#efecdb" stroke-miterlimit="10" stroke-width="1.113"/>
      <path id="Trazado_194605" data-name="Trazado 194605" d="M374.013,539.439h0a5.869,5.869,0,0,1-.893-8.228l13.92-17.31a5.852,5.852,0,1,1,9.121,7.335l-13.92,17.31a5.87,5.87,0,0,1-8.228.893" transform="translate(-298.34 -410.578)" fill="#f7b897"/>
      <line id="Línea_188" data-name="Línea 188" y1="20.532" x2="1.374" transform="translate(109.936 156.264)" fill="none" stroke="#efecdb" stroke-miterlimit="10" stroke-width="1.113"/>
      <path id="Trazado_194606" data-name="Trazado 194606" d="M653.882,528.69c-.622.946-2.712,2.093-5.5,4.171-2.352,1.748-10.214,9.467-13.873,12.831-.661.609-1.187,1.076-1.516,1.333a5.9,5.9,0,0,1-1.793.741l-.025,0c-.066.017-.136.031-.2.043a6.005,6.005,0,0,1-5.78-2.087.022.022,0,0,0-.011-.015,6.017,6.017,0,0,1,1.513-8.918l1.183-.559c4.547-2.145,11.275-5.326,12.559-6.008a14.149,14.149,0,0,0,3.951-3.5,10.507,10.507,0,0,1,3.39-2.348c1.046-.378,1.889-.51,2.067-.282s-.472.655-1.385,1.252-1.622,1.517-1.439,1.8,2.617-.461,4.421-.882c3.814-.885,5.144-3.448,5.731-3.126s-2.663,4.6-3.285,5.55" transform="translate(-500.526 -419.717)" fill="#f7b897"/>
      <path id="Trazado_194607" data-name="Trazado 194607" d="M812.146,467.248s-1.278.474-3.367,1.071-2.6-.364-1.745-1.36,7.537-4.369,10.818-6.15c1.8-.975,2.441-1.646,2.659-2.054L804.09,467.04c-1.321.667-1.98,2.045-1.466,3.064s2.015,1.308,3.336.641l6.094-3.075Z" transform="translate(-643.842 -368.079)" fill="#e3f3f9"/>
      <path id="Trazado_194608" data-name="Trazado 194608" d="M850.083,497.928a1.1,1.1,0,1,1,.488-1.483,1.1,1.1,0,0,1-.488,1.483" transform="translate(-680.775 -397.833)" fill="#fec89a"/>
      <path id="Trazado_194609" data-name="Trazado 194609" d="M620.7,524.2l-.782-1.55,33.111-16.709,4-3.286,1.8,3.57-5.019,1.266Z" transform="translate(-497.39 -403.305)" fill="#e3f3f9"/>
      <path id="Trazado_194610" data-name="Trazado 194610" d="M380.574,586.287l-4.781-9.474a1.138,1.138,0,0,0-1.53-.5s-15.777,7.82-20.959,10.577c-8.827,4.7-34.9,19.539-34.9,19.539a4.727,4.727,0,0,0,4.255,8.432s27.427-12.153,36.448-16.464c5.3-2.531,20.959-10.576,20.959-10.576a1.139,1.139,0,0,0,.5-1.53" transform="translate(-253.533 -462.302)" fill="#2d83c3"/>
      <path id="Trazado_194611" data-name="Trazado 194611" d="M755.192,538.34a6.143,6.143,0,0,0,1.138-2.449c.144-1.17.338-1.86.663-1.868s.762,3.279.1,4.711" transform="translate(-605.925 -428.471)" fill="#f7b897"/>
      <path id="Trazado_194612" data-name="Trazado 194612" d="M766.507,530.449a3.417,3.417,0,0,0,.639-2.012c-.089-1.027,0-1.4.252-1.476s.718.375.862,1.631a6.587,6.587,0,0,1-.935,3.726" transform="translate(-615.004 -422.798)" fill="#f7b897"/>
      <path id="Trazado_194613" data-name="Trazado 194613" d="M775.187,522.79a4.651,4.651,0,0,0,.5-1.829c.093-1.183.71-1.152.9-.225a7.536,7.536,0,0,1-.921,4.528" transform="translate(-621.968 -417.265)" fill="#f7b897"/>
      <path id="Trazado_194614" data-name="Trazado 194614" d="M755.192,538.34a6.143,6.143,0,0,0,1.138-2.449c.144-1.17.338-1.86.663-1.868s.762,3.279.1,4.711" transform="translate(-605.925 -428.471)" fill="none" stroke="#de8759" stroke-linecap="round" stroke-linejoin="round" stroke-width="1.242"/>
      <path id="Trazado_194615" data-name="Trazado 194615" d="M766.507,530.449a3.417,3.417,0,0,0,.639-2.012c-.089-1.027,0-1.4.252-1.476s.718.375.862,1.631a6.587,6.587,0,0,1-.935,3.726" transform="translate(-615.004 -422.798)" fill="none" stroke="#de8759" stroke-linecap="round" stroke-linejoin="round" stroke-width="1.242"/>
      <path id="Trazado_194616" data-name="Trazado 194616" d="M775.187,522.79a4.651,4.651,0,0,0,.5-1.829c.093-1.183.71-1.152.9-.225a7.536,7.536,0,0,1-.921,4.528" transform="translate(-621.968 -417.265)" fill="none" stroke="#de8759" stroke-linecap="round" stroke-linejoin="round" stroke-width="1.242"/>
      <path id="Trazado_194617" data-name="Trazado 194617" d="M530.289,482.561a8.807,8.807,0,0,0-.879-.09,3.376,3.376,0,0,0-.529.076,2.413,2.413,0,0,0-.416-.076c-.231,0-1,.09-1,.09s.267,1.482,1.412,1.482,1.413-1.482,1.413-1.482" transform="translate(-423.209 -387.109)" fill="#dd5850"/>
      <path id="Trazado_194618" data-name="Trazado 194618" d="M528.959,483.316a5.542,5.542,0,0,1-1.383-.254,1.744,1.744,0,0,0,1.383.886,1.768,1.768,0,0,0,1.4-.886,5.745,5.745,0,0,1-1.4.254" transform="translate(-423.298 -387.583)" fill="#fff"/>
      <path id="Trazado_194619" data-name="Trazado 194619" d="M501.976,510.945s-.109-1.9.878-1.83c1.1.073,7.717.759,8.921,1.007,1.156.238.567,1.947.567,1.947l-5.309.827Z" transform="translate(-402.755 -408.484)" fill="#e58e91"/>
      <path id="Trazado_194620" data-name="Trazado 194620" d="M474.832,403.195a3.981,3.981,0,1,1-5.839-1.272,4.243,4.243,0,0,1,5.839,1.272" transform="translate(-375.102 -321.925)" fill="#3e3b42"/>
      <path id="Trazado_194621" data-name="Trazado 194621" d="M387.327,476.035s4.985,1.372,6.533-2.076,4.37-4.658,8.184-3.962c3.979.727,5.635-1.993,6.228-4.854" transform="translate(-310.77 -373.205)" fill="none" stroke="#7e718f" stroke-linecap="round" stroke-linejoin="round" stroke-width="0.927"/>
      <path id="Trazado_194622" data-name="Trazado 194622" d="M475.92,406.211s.731,4.3,6.291,4.6" transform="translate(-381.853 -325.922)" fill="none" stroke="#7e718f" stroke-linecap="round" stroke-linejoin="round" stroke-width="0.927"/>
      <path id="Trazado_194623" data-name="Trazado 194623" d="M468.417,417.84s.984,3.163,7.622,2.694" transform="translate(-375.833 -335.252)" fill="none" stroke="#7e718f" stroke-linecap="round" stroke-linejoin="round" stroke-width="0.927"/>
      <path id="Trazado_194624" data-name="Trazado 194624" d="M393.266,508.961a5.133,5.133,0,0,0,4.029-2.99c1.335-2.818,3.519-3.168,7.161-3.479,3.837-.328,4.455-2.873,4.455-2.873" transform="translate(-315.535 -400.867)" fill="none" stroke="#7e718f" stroke-linecap="round" stroke-linejoin="round" stroke-width="0.927"/>
      <path id="Trazado_194625" data-name="Trazado 194625" d="M473.3,415.658s-3.019,1.384-5.2-.272a4.361,4.361,0,0,1-.748-6.581" transform="translate(-374.025 -328.004)" fill="none" stroke="#3e3b42" stroke-miterlimit="10" stroke-width="0.464"/>
      <path id="Trazado_194626" data-name="Trazado 194626" d="M473.3,414.225a4.864,4.864,0,0,1-4.929-.612c-2.175-1.879-1.977-5.245-.1-6.4" transform="translate(-374.534 -326.725)" fill="none" stroke="#3e3b42" stroke-miterlimit="10" stroke-width="0.464"/>
      <path id="Trazado_194627" data-name="Trazado 194627" d="M411.023,618.582c.275-.676-6.119-3.453-6.119-3.453.66.134,5.94,1.97,6.173,1.389.162-.4-.9-.875-2.642-1.694-2.176-1.021-4.276-1.463-4.145-1.838.25-.714,3.6-.681,3.642-1.1.074-.692-1.37-.774-2.121-.775a28.681,28.681,0,0,0-4.332.067,6.392,6.392,0,0,1-3.406-.3,97.413,97.413,0,0,1-8.873-4.07c-5.239-2.643-7.913-4.056-8.035-4.108l0,.006a5.579,5.579,0,1,0-3.243,10.52l.009,0c2.5.513,15.72,2.657,17.319,3.123a33.368,33.368,0,0,1,5.153,1.924c.857.422,6.015,2.481,6.4,2.209.491-.344-4.07-2.966-4.07-2.966s6.538,2.621,6.628,2.454c.378-.7-4.386-2.783-5.566-3.587,0,0,7,2.767,7.229,2.2" transform="translate(-299.345 -483.107)" fill="#f7b897"/>
      <path id="Trazado_194628" data-name="Trazado 194628" d="M411.61,522.413s6.338,6.883,10.052,7.477c0,0,6.457-7.923,7.809-10.1s-.445-7.3-4.639-7.983-5.3.8-6.818,2.355-6.4,8.252-6.4,8.252" transform="translate(-330.254 -410.509)" fill="#e58e91"/>
      <path id="Trazado_194629" data-name="Trazado 194629" d="M1051.365,13.1h.145a.426.426,0,0,0,.317-.139,1.739,1.739,0,0,1,2.331-.473,1.76,1.76,0,0,1-.309,3.044.44.44,0,0,0-.243.387v2.1" transform="translate(-843.559 -9.779)" fill="none" stroke="#86ddf9" stroke-miterlimit="10" stroke-width="1.952"/>
      <path id="Trazado_194630" data-name="Trazado 194630" d="M1007.878,42.914l-.606-.855a.937.937,0,0,0-.764-.4h-3.02a.937.937,0,0,0-.764.4l-.606.855a.937.937,0,0,1-.44.338l-10,3.684a1.363,1.363,0,0,0,.471,2.641h25.706a1.363,1.363,0,0,0,.471-2.641l-10-3.684A.937.937,0,0,1,1007.878,42.914Z" transform="translate(-794.95 -33.428)" fill="none" stroke="#86ddf9" stroke-miterlimit="10" stroke-width="1.952"/>
    </g>
  </g>
</svg>
