<svg xmlns="http://www.w3.org/2000/svg" xmlns:xlink="http://www.w3.org/1999/xlink" width="533" height="495" viewBox="0 0 533 495">
  <defs>
    <clipPath id="clip-path">
      <rect id="Rectángulo_45731" data-name="Rectángulo 45731" width="533" height="495" transform="translate(0.195 0.37)" fill="#2194e5"/>
    </clipPath>
    <linearGradient id="linear-gradient" x1="0.5" y1="0.516" x2="0.5" y2="1" gradientUnits="objectBoundingBox">
      <stop offset="0" stop-color="#116eb9"/>
      <stop offset="1" stop-color="#1894f6"/>
    </linearGradient>
    <linearGradient id="linear-gradient-2" x1="0.5" x2="0.5" y2="1" gradientUnits="objectBoundingBox">
      <stop offset="0" stop-color="#7e53c5"/>
      <stop offset="1" stop-color="#080383"/>
    </linearGradient>
    <clipPath id="clip-path-2">
      <rect id="Rectángulo_45729" data-name="Rectángulo 45729" width="35.509" height="35.512" transform="translate(0 0)" fill="#fff"/>
    </clipPath>
    <clipPath id="clip-path-3">
      <rect id="Rectángulo_45728" data-name="Rectángulo 45728" width="41.18" height="41.162" fill="#fff"/>
    </clipPath>
    <clipPath id="clip-path-4">
      <rect id="Rectángulo_45730" data-name="Rectángulo 45730" width="38.581" height="38.507" fill="#fff"/>
    </clipPath>
  </defs>
  <g id="Grupo_153170" data-name="Grupo 153170" transform="translate(-496.195 -4359.37)">
    <g id="Grupo_153166" data-name="Grupo 153166" transform="translate(496 4359)">
      <g id="Grupo_153165" data-name="Grupo 153165" transform="translate(0 0)" clip-path="url(#clip-path)">
        <path id="Unión_36" data-name="Unión 36" d="M0,192.914C0,117.564,51.648,54.79,120.071,40.9L110.124,0l11.927,6.8,38.534,21.967L185.015,42.7l26.029,14.839-31.221,50.33L171.9,120.631l-8.873,14.3L148.6,158.2l-6.035-24.809C113.7,136.561,91.2,162,91.2,192.914c0,33.066,25.727,59.868,57.464,59.868,28.683,0,52.452-21.9,56.759-50.519h29.444a159,159,0,0,0,16.287,61.743l.381,4.852,2.6,33.214c-26.931,28.243-64.239,45.734-105.469,45.734C66.561,347.806,0,278.459,0,192.914Z" transform="translate(0.953 148.696)" fill="#3cafff" stroke="rgba(0,0,0,0)" stroke-miterlimit="10" stroke-width="1"/>
        <path id="Unión_35" data-name="Unión 35" d="M207.866,199.8l-.718-1.207q3.425-1.395,6.933-2.617-3.506,1.22-6.932,2.616l-8.468-14.233a61.288,61.288,0,0,0,7.254-24.711,61.285,61.285,0,0,1-7.255,24.71l-17.746-29.826,25,5.116c.119-1.573.2-3.157.2-4.761,0-33.065-25.726-59.868-57.462-59.868s-57.463,26.8-57.463,59.868c0,10.681,9.195,29.914,9.195,29.914s-9.094,16.075-12.446,24.572L62.988,192.689,38.557,178.762.024,156.794c-.008-.635-.024-1.267-.024-1.9C0,69.347,66.562,0,148.669,0S297.336,69.347,297.336,154.891a162.538,162.538,0,0,1-1.651,23.126l-46.453-9.5-21.65-4.43,21.649,4.43,46.453,9.5q-.3,2.069-.647,4.118.35-2.049.648-4.117l21.847,4.47-15.227,11.519-.782-.231.781.231L289.889,203.4,276.166,213.78,234.8,245.071Zm87.322-7.718q-1.029-.25-2.064-.485a143.473,143.473,0,0,0-31.881-3.582h0a143.434,143.434,0,0,1,31.881,3.582h0Q294.159,191.836,295.188,192.086Z" transform="translate(122.981 -1.298)" fill="#cdb8f1" stroke="rgba(0,0,0,0)" stroke-miterlimit="10" stroke-width="1"/>
        <path id="Trazado_196153" data-name="Trazado 196153" d="M462.328,216.688l-12.417,9.393-13.722,10.38L395.75,267.05a254.41,254.41,0,0,1,13.468,24.568c-.119.115-.235.234-.354.348a137.777,137.777,0,0,1,7.746,13.957q2.3-.2,4.655-.2c31.736,0,57.462,26.8,57.462,59.868S453,425.459,421.265,425.459c-14.82,0-36.663-17.375-48.154-28.77l19.635-22.378-42.276.364-19.03.164-10.958.095-50.349.433,4.6,58.81.38,4.853,2.6,33.212,2.382,30.451,24.147-27.519,6.59-7.511-1.282,1.586c26.681,26.52,71.926,51.231,111.713,51.231,82.107,0,148.668-69.347,148.668-154.892,0-70.7-45.471-130.338-107.606-148.9m-14,14.143c-.057.162-.12.321-.178.482.058-.161.121-.32.178-.482" transform="translate(-37.041 -23.98)" fill="#fffad8"/>
      </g>
    </g>
    <path id="Polígono_135" data-name="Polígono 135" d="M164.5,0,329,275H0Z" transform="translate(601.195 4453.37)" fill="url(#linear-gradient)"/>
    <path id="Trazado_196176" data-name="Trazado 196176" d="M30.73,15.684l3.363,1.066a7.544,7.544,0,0,1-2.572,4.178,7.337,7.337,0,0,1-4.564,1.365,7.39,7.39,0,0,1-5.625-2.338,8.946,8.946,0,0,1-2.2-6.393A9.391,9.391,0,0,1,21.344,6.9a7.594,7.594,0,0,1,5.824-2.373,7.146,7.146,0,0,1,5.121,1.863,6.776,6.776,0,0,1,1.758,3.164l-3.434.82a3.549,3.549,0,0,0-3.621-2.883,3.909,3.909,0,0,0-3.1,1.371A6.721,6.721,0,0,0,22.7,13.3q0,3.258,1.172,4.641a3.805,3.805,0,0,0,3.047,1.383,3.475,3.475,0,0,0,2.379-.879A5.105,5.105,0,0,0,30.73,15.684ZM37.047,22V4.82H40.34V22ZM43.715,7.867V4.82h3.293V7.867Zm0,14.133V9.555h3.293V22ZM57.59,18.039l3.281.551a5.382,5.382,0,0,1-2,2.748,5.87,5.87,0,0,1-3.416.943,5.568,5.568,0,0,1-4.8-2.121,7.126,7.126,0,0,1-1.23-4.289,6.872,6.872,0,0,1,1.617-4.846,5.326,5.326,0,0,1,4.09-1.752,5.524,5.524,0,0,1,4.383,1.834q1.605,1.834,1.535,5.619H52.8a3.332,3.332,0,0,0,.8,2.279,2.492,2.492,0,0,0,1.9.814,2.016,2.016,0,0,0,1.3-.422A2.605,2.605,0,0,0,57.59,18.039Zm.188-3.328a3.17,3.17,0,0,0-.738-2.174,2.376,2.376,0,0,0-3.492.041,3.038,3.038,0,0,0-.691,2.133ZM75.051,22H71.758V15.648a9.817,9.817,0,0,0-.211-2.607,1.829,1.829,0,0,0-.686-.92,1.959,1.959,0,0,0-1.143-.328,2.64,2.64,0,0,0-1.535.469,2.362,2.362,0,0,0-.932,1.242A10.737,10.737,0,0,0,67,16.363V22H63.707V9.555h3.059v1.828a5.1,5.1,0,0,1,6.094-1.717,3.338,3.338,0,0,1,1.365,1,3.63,3.63,0,0,1,.645,1.383,10.285,10.285,0,0,1,.182,2.215ZM84.1,9.555V12.18h-2.25V17.2a12.475,12.475,0,0,0,.064,1.775.723.723,0,0,0,.293.416.929.929,0,0,0,.557.164,4.26,4.26,0,0,0,1.324-.316l.281,2.555a6.546,6.546,0,0,1-2.6.492,4.126,4.126,0,0,1-1.605-.3,2.343,2.343,0,0,1-1.049-.773,3.053,3.053,0,0,1-.463-1.283,15.962,15.962,0,0,1-.105-2.32V12.18H77.031V9.555h1.512V7.082l3.3-1.922V9.555Zm9.492,8.484,3.281.551a5.382,5.382,0,0,1-2,2.748,5.87,5.87,0,0,1-3.416.943,5.568,5.568,0,0,1-4.8-2.121,7.126,7.126,0,0,1-1.23-4.289,6.872,6.872,0,0,1,1.617-4.846,5.326,5.326,0,0,1,4.09-1.752,5.524,5.524,0,0,1,4.383,1.834q1.605,1.834,1.535,5.619H88.8a3.332,3.332,0,0,0,.8,2.279,2.492,2.492,0,0,0,1.9.814,2.016,2.016,0,0,0,1.3-.422A2.605,2.605,0,0,0,93.59,18.039Zm.188-3.328a3.17,3.17,0,0,0-.738-2.174,2.376,2.376,0,0,0-3.492.041,3.038,3.038,0,0,0-.691,2.133Zm-73.6,26.641-2.988-.539a4.654,4.654,0,0,1,1.734-2.672,6.347,6.347,0,0,1,3.656-.867,7.88,7.88,0,0,1,3.281.521,3.273,3.273,0,0,1,1.518,1.324,6.791,6.791,0,0,1,.439,2.947l-.035,3.844a13.345,13.345,0,0,0,.158,2.42A7.063,7.063,0,0,0,28.533,50H25.275q-.129-.328-.316-.973-.082-.293-.117-.387a5.937,5.937,0,0,1-1.8,1.23,5.169,5.169,0,0,1-2.051.41,4.241,4.241,0,0,1-3.029-1.043A3.467,3.467,0,0,1,16.85,46.6a3.539,3.539,0,0,1,.5-1.881,3.292,3.292,0,0,1,1.412-1.266,11.036,11.036,0,0,1,2.619-.768,17.941,17.941,0,0,0,3.2-.809v-.328a1.705,1.705,0,0,0-.469-1.354,2.809,2.809,0,0,0-1.77-.4,2.356,2.356,0,0,0-1.371.346A2.4,2.4,0,0,0,20.178,41.352Zm4.406,2.672a20.583,20.583,0,0,1-2,.5,6.036,6.036,0,0,0-1.793.574,1.373,1.373,0,0,0-.645,1.16,1.615,1.615,0,0,0,.516,1.2,1.8,1.8,0,0,0,1.313.5,2.852,2.852,0,0,0,1.7-.586,2.063,2.063,0,0,0,.785-1.09,6.5,6.5,0,0,0,.129-1.605ZM45.865,54.734V48.477a4.669,4.669,0,0,1-1.605,1.318,4.528,4.528,0,0,1-2.074.486,4.4,4.4,0,0,1-3.492-1.594,7.442,7.442,0,0,1-1.617-5.051,6.738,6.738,0,0,1,1.518-4.682,4.87,4.87,0,0,1,3.768-1.682,4.208,4.208,0,0,1,2.15.527,4.922,4.922,0,0,1,1.611,1.594v-1.84h3.035v17.18Zm.105-11.109a4.36,4.36,0,0,0-.779-2.842,2.441,2.441,0,0,0-1.951-.932,2.513,2.513,0,0,0-2,.949,4.621,4.621,0,0,0-.8,3.012,4.545,4.545,0,0,0,.773,2.959,2.413,2.413,0,0,0,1.91.908,2.542,2.542,0,0,0,1.992-1.02A4.626,4.626,0,0,0,45.971,43.625ZM60.584,50V48.137a4.8,4.8,0,0,1-1.787,1.57,5.01,5.01,0,0,1-2.338.574,4.571,4.571,0,0,1-2.25-.551,3.252,3.252,0,0,1-1.441-1.547,6.9,6.9,0,0,1-.445-2.754V37.555h3.293v5.719A15.859,15.859,0,0,0,55.8,46.49a1.754,1.754,0,0,0,.662.938,2.035,2.035,0,0,0,1.219.346,2.591,2.591,0,0,0,1.512-.463,2.355,2.355,0,0,0,.914-1.148A13.33,13.33,0,0,0,60.35,42.8v-5.25h3.293V50Zm6.469-14.133V32.82h3.293v3.047Zm0,14.133V37.555h3.293V50Zm13.875-3.961,3.281.551a5.382,5.382,0,0,1-2,2.748,5.87,5.87,0,0,1-3.416.943,5.568,5.568,0,0,1-4.8-2.121,7.126,7.126,0,0,1-1.23-4.289,6.872,6.872,0,0,1,1.617-4.846,5.326,5.326,0,0,1,4.09-1.752,5.524,5.524,0,0,1,4.383,1.834q1.605,1.834,1.535,5.619h-8.25a3.332,3.332,0,0,0,.8,2.279,2.492,2.492,0,0,0,1.9.814,2.016,2.016,0,0,0,1.3-.422A2.605,2.605,0,0,0,80.928,46.039Zm.188-3.328a3.17,3.17,0,0,0-.738-2.174,2.376,2.376,0,0,0-3.492.041,3.038,3.038,0,0,0-.691,2.133Zm-4.207-6.68,1.617-3.5h3.691l-3.223,3.5ZM98.389,50H95.1V43.648a9.817,9.817,0,0,0-.211-2.607,1.829,1.829,0,0,0-.686-.92,1.959,1.959,0,0,0-1.143-.328,2.64,2.64,0,0,0-1.535.469A2.362,2.362,0,0,0,90.59,41.5a10.737,10.737,0,0,0-.252,2.859V50H87.045V37.555H90.1v1.828A5.1,5.1,0,0,1,96.2,37.666a3.338,3.338,0,0,1,1.365,1,3.63,3.63,0,0,1,.645,1.383,10.285,10.285,0,0,1,.182,2.215Z" transform="translate(709.195 4605.37)" fill="#fff"/>
    <ellipse id="Elipse_5708" data-name="Elipse 5708" cx="65" cy="64.5" rx="65" ry="64.5" transform="translate(807.195 4635.37)" fill="#fff"/>
    <ellipse id="Elipse_5711" data-name="Elipse 5711" cx="65" cy="64.5" rx="65" ry="64.5" transform="translate(704.195 4444.37)" fill="#fff"/>
    <ellipse id="Elipse_5710" data-name="Elipse 5710" cx="65" cy="64.5" rx="65" ry="64.5" transform="translate(588.195 4635.37)" fill="#fff"/>
    <g id="Grupo_153169" data-name="Grupo 153169" transform="translate(619.711 4660.208)">
      <g id="Grupo_153156" data-name="Grupo 153156" transform="translate(0 10.102)">
        <path id="Trazado_196138" data-name="Trazado 196138" d="M34.064,0A34.064,34.064,0,1,1,0,34.064,34.064,34.064,0,0,1,34.064,0Z" transform="translate(0 0)" fill="url(#linear-gradient-2)"/>
        <g id="Grupo_153155" data-name="Grupo 153155" transform="translate(16.701 16.308)">
          <g id="Grupo_153154" data-name="Grupo 153154" transform="translate(0 0)" clip-path="url(#clip-path-2)">
            <path id="Trazado_196123" data-name="Trazado 196123" d="M0,28.716a18.446,18.446,0,0,1,.43-2.165,10.725,10.725,0,0,1,9.047-7.828c.735-.121,1.491-.114,2.248-.167.091-.265,0-.436-.244-.617a6.1,6.1,0,0,1-2.6-4.967c-.027-1,0-2.007,0-3.013-.284-.068-.542-.122-.795-.193-.278-.078-.515-.26-.511-.546A19.094,19.094,0,0,1,7.72,6.048a4.189,4.189,0,0,1,3.511-3.214.64.64,0,0,0,.413-.232A5.11,5.11,0,0,1,17.229.113a6.906,6.906,0,0,1,5.707,6.894c0,.694,0,1.387,0,2.08,0,.665-.24.9-.893.907-.217,0-.433,0-.735,0V14.3h.479c1.213,0,2.427-.005,3.64,0a.7.7,0,1,1,.031,1.385c-.659,0-1.317,0-1.976,0H15.717a2.363,2.363,0,0,0-2.571,2.564q0,4.993,0,9.985a2.359,2.359,0,0,0,2.572,2.56H31.561a2.361,2.361,0,0,0,2.557-2.542q0-5.027,0-10.055a2.355,2.355,0,0,0-2.313-2.512.7.7,0,0,1-.726-.717.723.723,0,0,1,.815-.665A3.735,3.735,0,0,1,35.5,18.084q.016,4.455,0,8.91a15.52,15.52,0,0,1-.07,2.074,3.672,3.672,0,0,1-3.482,3.106c-.588.021-1.177,0-1.7,0l-.944,1.935c.427.059,1.06-.149,1.23.581.092.393-.166.614-.442.818H3.606a2.2,2.2,0,0,0-.222-.072,4.025,4.025,0,0,1-2.8-2A10.656,10.656,0,0,1,0,31.906v-3.19m11.839.971c-.028-.864-.074-1.69-.078-2.517-.011-2.253,0-4.507,0-6.76v-.375c-.585,0-1.118-.034-1.645.005A9.563,9.563,0,0,0,1.65,27.3a16.609,16.609,0,0,0-.263,3.861,2.779,2.779,0,0,0,2.943,2.96q3.519,0,7.037,0c.121,0,.243-.011.369-.016V31.074H7.289c-.642,0-.964-.224-.976-.676s.325-.71.976-.71h4.55m9.706-21.1c0-.626.018-1.214,0-1.8A5.516,5.516,0,0,0,15.879,1.4a3.6,3.6,0,0,0,.16,7.206c1.744.016,3.488,0,5.232,0,.079,0,.157-.011.274-.019M10.263,9.94c0,.959-.014,1.894.006,2.828a6.233,6.233,0,0,0,.143,1.268,4.654,4.654,0,0,0,1.611,2.575c.07-.13.122-.232.177-.332a3.634,3.634,0,0,1,2.523-1.887A6.537,6.537,0,0,1,16,14.3c1.247-.011,2.493,0,3.768,0A21.621,21.621,0,0,0,19.983,10h-.428c-1.19,0-2.381.006-3.57,0A4.892,4.892,0,0,1,13.051,9c-.08-.059-.166-.112-.248-.168A5.321,5.321,0,0,1,10.263,9.94m1.625-2.147a5.149,5.149,0,0,1-.815-3.483A2.806,2.806,0,0,0,9.031,6.453,18.549,18.549,0,0,0,8.9,8.539a3.834,3.834,0,0,0,2.984-.746M20.914,32.2H16.571l.408,1.9h3.936Zm1.419,1.9h2.6v-1.9h-2.6Zm-9.158-1.9v1.894h2.29c.209-1.326-.691-2.07-2.29-1.894m13.185,1.873a2.547,2.547,0,0,0,2.3-1.878h-2.3Z" transform="translate(0 0)" fill="#fff"/>
            <path id="Trazado_196124" data-name="Trazado 196124" d="M64.631,66.064a2.576,2.576,0,1,1,2.577-2.58,2.569,2.569,0,0,1-2.577,2.58m.012-3.765a1.189,1.189,0,1,0,1.178,1.2,1.18,1.18,0,0,0-1.178-1.2" transform="translate(-40.996 -40.244)" fill="#fff"/>
            <path id="Trazado_196125" data-name="Trazado 196125" d="M83.07,42.16a.705.705,0,0,1,.687.715.691.691,0,0,1-1.382-.042.708.708,0,0,1,.695-.673" transform="translate(-54.425 -27.855)" fill="#fff"/>
            <path id="Trazado_196126" data-name="Trazado 196126" d="M36.359,34.326a.673.673,0,0,1,.707-.652A.684.684,0,1,1,37,35.041a.676.676,0,0,1-.645-.715" transform="translate(-24.022 -22.248)" fill="#fff"/>
            <path id="Trazado_196127" data-name="Trazado 196127" d="M49.031,34.324a.673.673,0,0,1,.708-.651.684.684,0,1,1-.064,1.367.676.676,0,0,1-.644-.716" transform="translate(-32.394 -22.248)" fill="#fff"/>
          </g>
        </g>
      </g>
      <g id="Grupo_152892" data-name="Grupo 152892" transform="translate(23.91 0)">
        <ellipse id="Elipse_5702" data-name="Elipse 5702" cx="10.519" cy="10.115" rx="10.519" ry="10.115" transform="translate(0)" fill="#2194e5"/>
        <path id="Trazado_196180" data-name="Trazado 196180" d="M3.489,9.362h1.4A1.453,1.453,0,0,0,6.548,7.736a1.406,1.406,0,0,0-.4-1.033,1.5,1.5,0,0,0-1.116-.4,1.606,1.606,0,0,0-1.024.343,1.046,1.046,0,0,0-.435.853H.615a3.032,3.032,0,0,1,.563-1.8,3.715,3.715,0,0,1,1.56-1.235,5.334,5.334,0,0,1,2.193-.444,5.241,5.241,0,0,1,3.357.976A3.243,3.243,0,0,1,9.51,7.675,2.7,2.7,0,0,1,9,9.235a3.6,3.6,0,0,1-1.472,1.191,3.441,3.441,0,0,1,1.6,1.121,2.951,2.951,0,0,1,.58,1.859,3.3,3.3,0,0,1-1.318,2.742,5.472,5.472,0,0,1-3.463,1.028A5.675,5.675,0,0,1,2.6,16.7,3.656,3.656,0,0,1,.967,15.37,3.45,3.45,0,0,1,.413,13.44H3.393a1.334,1.334,0,0,0,.475,1.02,1.676,1.676,0,0,0,1.169.431,1.755,1.755,0,0,0,1.248-.435,1.454,1.454,0,0,0,.466-1.112,1.7,1.7,0,0,0-.483-1.371,2.021,2.021,0,0,0-1.336-.4H3.489Z" transform="translate(5.473 0.428)" fill="#fff"/>
      </g>
    </g>
    <g id="Grupo_153167" data-name="Grupo 153167" transform="translate(836.653 4660.208)">
      <g id="Grupo_153153" data-name="Grupo 153153" transform="translate(0 8.068)">
        <ellipse id="Elipse_5704" data-name="Elipse 5704" cx="35" cy="35.5" rx="35" ry="35.5" transform="translate(-0.458 0.093)" fill="url(#linear-gradient-2)"/>
        <g id="Grupo_153152" data-name="Grupo 153152" transform="translate(14.235 14.577)" clip-path="url(#clip-path-3)">
          <path id="Trazado_196120" data-name="Trazado 196120" d="M39.771,74.584h1.35v1.342H19.2V77.8a2.072,2.072,0,0,1-1.866,2.259,2.047,2.047,0,0,1-.4,0H2.288A2.079,2.079,0,0,1,.012,77.763q0-7.711-.006-15.421A2.429,2.429,0,0,1,.76,60.506q2.21-2.182,4.393-4.391a2.384,2.384,0,0,1,1.8-.742c3.241.012,6.484.057,9.724-.016a2.252,2.252,0,0,1,2.509,2.731H17.854c-.006-.132-.018-.268-.02-.406-.007-.723-.217-.931-.954-.932H6.867v3.109A2.1,2.1,0,0,1,4.5,62.234q-1.5,0-3,.007a.533.533,0,0,0-.12.047v15.39c0,.816.192,1.006,1.008,1.006H16.827c.816,0,1.007-.191,1.008-1.007V75.983c-.417-.06-.757-.146-1.024.358a1.953,1.953,0,0,1-2.294.884,2.05,2.05,0,0,1,.063-3.956,2,2,0,0,1,2.274.947.6.6,0,0,0,.626.358c1.469-.018,2.939-.008,4.473-.008V70.625c0-.616.24-.854.855-.856h3.257V67.056c0-1.355.044-1.4,1.385-1.4q1.306,0,2.613-.008c.025,0,.049-.021.116-.049V62.544c0-.812.191-1,1.013-1h3.1v-.428c0-.971-.005-1.942,0-2.913a.685.685,0,0,1,.768-.769q1.968-.011,3.941,0c.547,0,.772.273.772.894V74.584ZM35.689,58.828V74.559h2.684V58.828Zm-4.115,4.1V74.547h2.683V62.93Zm-1.415,4.135h-2.69v7.487h2.69Zm-4.115,7.492V71.174H23.353v3.385ZM5.5,57.854l-3,3.005c.782,0,1.59.023,2.395-.01a.616.616,0,0,0,.605-.627c0-.011,0-.022,0-.033.01-.782,0-1.564,0-2.335Zm9.607,16.728a.683.683,0,1,0,.674.692v-.012a.69.69,0,0,0-.683-.684Z" transform="translate(0 -38.903)" fill="#fff"/>
          <path id="Trazado_196121" data-name="Trazado 196121" d="M57.281,16.829l-2.713,2.719c-.454.454-.9.914-1.364,1.362-1.324,1.287-.7,1.021-2.553,1.048-.716.011-1.431,0-2.187,0V34.272H47.087V21.965c-.48,0-.931-.021-1.378.015-.1.008-.207.2-.28.324a2.057,2.057,0,1,1-2.539-2.936,2.019,2.019,0,0,1,2.54.909.506.506,0,0,0,.517.321c1.77-.015,3.542,0,5.312-.015a.759.759,0,0,0,.489-.17c1.424-1.4,2.834-2.82,4.246-4.235a1.044,1.044,0,0,0,.09-.126,8.886,8.886,0,0,1-3.519-7.1A8.682,8.682,0,0,1,54.83,2.964a8.938,8.938,0,1,1,2.449,13.865Zm3.5-15.35C58.063,1.4,55.047,3.9,54.2,6.9a7.572,7.572,0,0,0,3.54,8.593,7.384,7.384,0,0,0,8.158-.537c-1.573-1.77-3.14-3.547-4.725-5.306a1.475,1.475,0,0,1-.4-1.073c.016-2.212.007-4.424.007-6.636ZM62.17,8.224h6.776a7.4,7.4,0,0,0-6.781-6.74Zm4.788,5.855a6.956,6.956,0,0,0,1.95-4.42h-5.88ZM44.327,21.272a.683.683,0,1,0-.681.684h.009a.69.69,0,0,0,.672-.681Z" transform="translate(-29.236 0)" fill="#fff"/>
          <path id="Trazado_196122" data-name="Trazado 196122" d="M15.453,17.327c1.044-.895,2.067-1.76,3.07-2.649A.585.585,0,0,0,18.6,14.2a2.048,2.048,0,1,1,3.742.594,1.985,1.985,0,0,1-2.257.894.789.789,0,0,0-.865.2c-1.047.927-2.122,1.822-3.175,2.743a1.341,1.341,0,0,0-.338.514,2.027,2.027,0,0,1-1.771,1.413A1.937,1.937,0,0,1,11.948,19.5a.473.473,0,0,0-.488-.3q-1.156.023-2.312,0a.439.439,0,0,0-.456.277,1.982,1.982,0,0,1-2.394,1,.469.469,0,0,0-.552.15c-.5.513-1,1.021-1.515,1.511a.568.568,0,0,0-.173.664,1.9,1.9,0,0,1-.683,2.1,1.916,1.916,0,0,1-2.2.242A1.959,1.959,0,0,1,.038,23.236a2.026,2.026,0,0,1,2.574-1.887.569.569,0,0,0,.662-.179c.5-.526,1.035-1.024,1.531-1.556a.582.582,0,0,0,.113-.466A2.066,2.066,0,0,1,8.724,17.58a.581.581,0,0,0,.414.243c.785.023,1.57.018,2.354,0a.514.514,0,0,0,.374-.17c.934-1.463,2.321-1.6,3.586-.326m5.831-3.618a.683.683,0,1,0-.672.693h.01a.687.687,0,0,0,.662-.693ZM6.209,18.485a.682.682,0,1,0,.714-.649h-.01a.69.69,0,0,0-.7.648Zm7.545-.649a.683.683,0,1,0,.674.69v-.01a.687.687,0,0,0-.674-.677ZM2.09,22.634a.683.683,0,1,0,.686.679V23.3a.687.687,0,0,0-.686-.669Z" transform="translate(-0.024 -8.208)" fill="#fff"/>
          <rect id="Rectángulo_45723" data-name="Rectángulo 45723" width="8.172" height="1.318" transform="translate(7.588 28.162)" fill="#fff"/>
          <rect id="Rectángulo_45724" data-name="Rectángulo 45724" width="6.798" height="1.318" transform="translate(3.459 31.582)" fill="#fff"/>
          <rect id="Rectángulo_45725" data-name="Rectángulo 45725" width="4.065" height="1.317" transform="translate(11.694 31.583)" fill="#fff"/>
          <rect id="Rectángulo_45726" data-name="Rectángulo 45726" width="2.69" height="1.324" transform="translate(3.469 28.162)" fill="#fff"/>
          <rect id="Rectángulo_45727" data-name="Rectángulo 45727" width="2.683" height="1.334" transform="translate(3.474 35.003)" fill="#fff"/>
        </g>
      </g>
      <g id="Grupo_152891" data-name="Grupo 152891" transform="translate(25.101 0)">
        <circle id="Elipse_5702-2" data-name="Elipse 5702" cx="10" cy="10" r="10" transform="translate(0.441 0.161)" fill="#2194e5"/>
        <path id="Trazado_196181" data-name="Trazado 196181" d="M9.712,17H.782V15.066L4.9,10.742A4.909,4.909,0,0,0,6.416,7.991a1.913,1.913,0,0,0-.36-1.257A1.287,1.287,0,0,0,5.01,6.3a1.3,1.3,0,0,0-1.1.576,2.366,2.366,0,0,0-.422,1.437H.519a4.2,4.2,0,0,1,.589-2.175,4.129,4.129,0,0,1,1.635-1.56A4.856,4.856,0,0,1,5.08,4.019a4.777,4.777,0,0,1,3.195.958A3.42,3.42,0,0,1,9.4,7.728,4,4,0,0,1,9.114,9.2a6.456,6.456,0,0,1-.875,1.5,22.029,22.029,0,0,1-1.912,2.1L4.676,14.715H9.712Z" transform="translate(5.441 0.161)" fill="#fff"/>
      </g>
    </g>
    <g id="Grupo_153168" data-name="Grupo 153168" transform="translate(733.561 4468.367)">
      <g id="Grupo_153159" data-name="Grupo 153159" transform="translate(0 10.757)">
        <circle id="Elipse_5705" data-name="Elipse 5705" cx="35.5" cy="35.5" r="35.5" transform="translate(-0.365 0.245)" fill="url(#linear-gradient-2)"/>
        <g id="Grupo_153158" data-name="Grupo 153158" transform="translate(16.441 16.308)">
          <g id="Grupo_153157" data-name="Grupo 153157" clip-path="url(#clip-path-4)">
            <path id="Trazado_196128" data-name="Trazado 196128" d="M4.514,17.983H5.985a4.132,4.132,0,0,0-.082-.624,1.925,1.925,0,1,1,3.736-.58,5.835,5.835,0,0,1-.142.661c-.03.17-.038.345-.059.551h1.49c0-.306,0-.594,0-.881a.67.67,0,0,1,.559-.722,2.539,2.539,0,0,1,1.872-.044c.148.072.485-.091.648-.241A.482.482,0,0,0,14,15.381c-.165-.146-.5-.3-.655-.224a2.5,2.5,0,0,1-1.833-.046.686.686,0,0,1-.582-.744c.006-.481,0-.962,0-1.507H9.255c-.627,0-.766-.113-.929-.7a2.347,2.347,0,0,1-.009-1.717c.071-.153-.087-.487-.236-.65a.483.483,0,0,0-.722,0c-.148.164-.3.5-.231.652a2.516,2.516,0,0,1-.052,1.872.656.656,0,0,1-.693.544c-.815,0-1.631.007-2.446,0a.638.638,0,0,1-.7-.7c-.01-.44,0-.881,0-1.419a4.637,4.637,0,0,0-.641.089,1.893,1.893,0,0,1-2.082-.549A1.8,1.8,0,0,1,.2,8.194a1.832,1.832,0,0,1,1.8-1.1,2.062,2.062,0,0,1,.622.131c.509.174.6.114.6-.432,0-.308-.006-.615,0-.923a.639.639,0,0,1,.692-.706c.815-.01,1.631-.009,2.446,0A.645.645,0,1,1,6.35,6.442c-.6.006-1.2,0-1.835,0,0,.419,0,.8,0,1.187a.687.687,0,0,1-.584.744A2.4,2.4,0,0,1,2.1,8.407a.489.489,0,0,0-.678.261.994.994,0,0,0,.01.7.493.493,0,0,0,.687.239,2.461,2.461,0,0,1,1.905.063.623.623,0,0,1,.485.655c0,.4,0,.8,0,1.223H6a4.063,4.063,0,0,0-.094-.6A1.955,1.955,0,0,1,6.6,8.731,1.925,1.925,0,0,1,9.5,11.021a2.5,2.5,0,0,0-.066.54H10.9V6.441c-.617,0-1.241.012-1.863,0a.611.611,0,0,1-.588-.905.883.883,0,0,1,.6-.358c.813-.041,1.63-.022,2.445-.013a.645.645,0,0,1,.714.725c.007.854,0,1.709,0,2.585.762-.324,1.487-.653,2.229-.942.5-.194,1.01-.344,1.523-.491A.644.644,0,1,1,16.3,8.274,17.454,17.454,0,0,0,12.524,9.8a.509.509,0,0,0-.317.524c.018,1.2.008,2.4.008,3.7a5.7,5.7,0,0,0,.654-.1,1.9,1.9,0,0,1,2.077.567,1.917,1.917,0,0,1-1.538,3.174,5.039,5.039,0,0,1-.66-.146c-.167-.029-.339-.026-.534-.04,0,.426.009.773,0,1.12a.633.633,0,0,1-.681.676c-.829.011-1.658.006-2.486,0a.637.637,0,0,1-.668-.522,2.576,2.576,0,0,1-.056-1.911c.072-.146-.1-.484-.247-.645a.483.483,0,0,0-.721.015c-.145.166-.294.5-.22.656a2.532,2.532,0,0,1-.058,1.872.655.655,0,0,1-.7.535c-.468,0-.936.011-1.4,0a.312.312,0,0,0-.364.264,16.054,16.054,0,0,0-.681,6.057c.085.968.284,1.926.447,2.886.079.464-.071.8-.445.889s-.681-.13-.8-.589a17.64,17.64,0,0,1,.145-9.227,2.314,2.314,0,0,0,.007-.757c-.054-1.387-.043-2.777-.016-4.166a.586.586,0,0,1,.686-.479.638.638,0,0,1,.561.673c.01.882,0,1.765,0,2.647v.513" transform="translate(0 -3.876)" fill="#fff"/>
            <path id="Trazado_196129" data-name="Trazado 196129" d="M41.521,66.575c.244.444,1.026.652.687,1.428-.548,1.254-.541,1.257-1.919,1.354V71.91c.788-.065,1.394-.036,1.78.9a1.349,1.349,0,0,1-.56,1.819l1.81,1.811c.427-.226.646-1.053,1.429-.672.392.191.905.293,1.139.6s.175.824.255,1.307c.158,0,.368-.012.576,0a.635.635,0,0,1,.626.65.626.626,0,0,1-.612.621c-.44.02-.882.019-1.323,0a.621.621,0,0,1-.624-.65c-.014-.307,0-.615-.012-.922,0-.079-.055-.206-.11-.221a.341.341,0,0,0-.275.062c-.211.184-.4.4-.6.589a.639.639,0,0,1-1.018.021q-1.33-1.307-2.639-2.636a.63.63,0,0,1,0-.988c.2-.215.422-.41.616-.631a.341.341,0,0,0,.06-.275c-.016-.055-.141-.108-.22-.112-.293-.013-.588,0-.882-.008a.64.64,0,0,1-.695-.7q-.012-1.865,0-3.73a.638.638,0,0,1,.7-.7c.294-.008.588.007.882-.006.078,0,.2-.059.219-.114a.344.344,0,0,0-.064-.275c-.185-.21-.4-.4-.59-.6a.641.641,0,0,1-.02-1.018q1.308-1.33,2.637-2.637a.632.632,0,0,1,.989,0c.216.2.412.421.629.619.058.053.186.1.236.073a.34.34,0,0,0,.146-.239c.017-.293,0-.588.007-.882a.629.629,0,0,1,.663-.693q1.9-.015,3.81,0a.624.624,0,0,1,.657.659c.013.28-.007.562.009.842.006.1.067.284.118.29a.493.493,0,0,0,.332-.118c.194-.163.36-.358.544-.532a.64.64,0,0,1,1.018-.014q1.329,1.308,2.635,2.64a.63.63,0,0,1,0,.989c-.172.186-.367.353-.533.544a1.433,1.433,0,0,0-.163.329,1.536,1.536,0,0,0,.374.135c.252.022.508,0,.761.011a.632.632,0,0,1,.683.675q.015,1.885,0,3.77a.637.637,0,0,1-.713.686c-.281.008-.562-.008-.842.008a.329.329,0,0,0-.25.129.323.323,0,0,0,.079.27c.2.219.419.413.618.629a.621.621,0,0,1,0,.96q-1.319,1.347-2.665,2.666a.63.63,0,0,1-.989-.014c-.185-.174-.35-.369-.541-.535a1.335,1.335,0,0,0-.33-.156,1.175,1.175,0,0,0-.135.334c-.02.279,0,.562-.011.842a.634.634,0,0,1-.633.644.627.627,0,0,1-.64-.634,10.55,10.55,0,0,1,.015-1.562,1.3,1.3,0,0,1,.416-.612c.091-.1.283-.086.4-.167a1.146,1.146,0,0,1,1.778.345.785.785,0,0,0,.147.132l1.8-1.8c-.505-.47-1-.889-.574-1.842a1.386,1.386,0,0,1,1.751-.889V69.332c-.749.05-1.369.051-1.746-.9a1.323,1.323,0,0,1,.559-1.807l-1.829-1.83a1.37,1.37,0,0,1-1.828.544c-.915-.394-.971-.963-.882-1.751h-2.6c.094.788.021,1.372-.905,1.756a1.349,1.349,0,0,1-1.815-.576l-1.807,1.81" transform="translate(-29.359 -46.875)" fill="#fff"/>
            <path id="Trazado_196130" data-name="Trazado 196130" d="M94.938,51.777c-.308-1.01.187-1.5,1.02-1.792a1.179,1.179,0,0,0,.325-.231.687.687,0,0,1,.853-.062c.218.126.439.248.666.376.05-.073.092-.125.125-.182.167-.288.332-.578.519-.9-.236-.142-.46-.278-.686-.413a.717.717,0,0,1-.361-.777,3.549,3.549,0,0,0,.007-.955.766.766,0,0,1,.429-.894c.2-.106.388-.224.61-.352l-.628-1.1c-.243.135-.472.259-.7.388a.707.707,0,0,1-.822-.053,4.688,4.688,0,0,0-.858-.5.786.786,0,0,1-.557-.863c.015-.209,0-.42,0-.65H93.6c0,.225-.011.447,0,.668a.775.775,0,0,1-.54.836,3.529,3.529,0,0,0-.793.457.786.786,0,0,1-1.027.046c-.176-.118-.368-.211-.577-.329l-.63,1.091c.237.142.464.273.686.414a.643.643,0,1,1-.633,1.115c-.41-.223-.814-.459-1.212-.7a.625.625,0,0,1-.256-.924q.6-1.086,1.238-2.153a.631.631,0,0,1,.958-.24,3.735,3.735,0,0,1,.485.28.56.56,0,0,0,.748.015.472.472,0,0,0,.269-.468,6.02,6.02,0,0,1,0-.762.616.616,0,0,1,.635-.638q1.283-.022,2.566,0a.624.624,0,0,1,.641.635,2.677,2.677,0,0,1,0,.6.578.578,0,0,0,.447.717.6.6,0,0,0,.389,0c.243-.108.461-.268.7-.392a.609.609,0,0,1,.9.221q.662,1.1,1.281,2.22a.619.619,0,0,1-.231.872c-.166.112-.345.2-.518.3-.581.337-.586.848-.01,1.186,1.04.611,1.058.682.453,1.731-.294.509-.585,1.019-.882,1.526-.307.524-.588.6-1.124.294a2.765,2.765,0,0,1-.345-.2A.633.633,0,0,0,96.4,51.2c-.287.173-.228.388-.229.612-.005,1.184-.069,1.251-1.239,1.251-.227,0-.455.009-.682,0a.638.638,0,1,1-.012-1.276c.2-.013.4,0,.7,0" transform="translate(-66.628 -31.24)" fill="#fff"/>
            <path id="Trazado_196131" data-name="Trazado 196131" d="M112.418,30.105a19.951,19.951,0,0,1-.97,5.594c-.163.5-.557.7-.946.5-.309-.155-.386-.46-.28-.906a30.353,30.353,0,0,0,.692-3.119A16.665,16.665,0,0,0,98.889,13.988a2.07,2.07,0,0,1-.452-.157.629.629,0,0,1,.328-1.185,1.937,1.937,0,0,1,.468.1c7.158,2.288,11.491,7.1,12.884,14.5.177.94.2,1.908.3,2.864" transform="translate(-73.837 -9.518)" fill="#fff"/>
            <path id="Trazado_196132" data-name="Trazado 196132" d="M15.645,110.629a2.423,2.423,0,0,1,1.154,1.737,21.218,21.218,0,0,1,.044,2.477.572.572,0,0,1-.635.543q-2.543.01-5.087,0a.587.587,0,0,1-.656-.567,19.172,19.172,0,0,1,.023-2.36,2.425,2.425,0,0,1,1.2-1.829,2.646,2.646,0,0,1-.533-2.231,2.5,2.5,0,0,1,.927-1.454,2.55,2.55,0,0,1,3.277.108c1.006.89,1.112,2.159.285,3.573m-3.911,3.478h3.843c0-.5.019-.936,0-1.374a1.267,1.267,0,0,0-1.237-1.187c-.453-.017-.908-.017-1.361,0a1.258,1.258,0,0,0-1.235,1.186c-.024.438,0,.878,0,1.376m1.914-3.853a1.281,1.281,0,1,0-1.274-1.279,1.286,1.286,0,0,0,1.274,1.279" transform="translate(-7.858 -80.095)" fill="#fff"/>
            <path id="Trazado_196133" data-name="Trazado 196133" d="M129.831,113.125a2.763,2.763,0,0,1,1.228,2.637c-.023.453,0,.909-.005,1.363s-.268.761-.65.755-.628-.3-.632-.772c0-.575,0-1.149,0-1.724a1.273,1.273,0,0,0-1.326-1.345c-.428-.008-.856-.012-1.283,0a1.246,1.246,0,0,0-1.229,1.147c-.031.451-.006.9-.006,1.417.644,0,1.27-.031,1.889.017a.83.83,0,0,1,.584.372.784.784,0,0,1-.092.648.7.7,0,0,1-.516.234c-.814.025-1.63.022-2.445.01a.652.652,0,0,1-.707-.738c-.007-.628-.015-1.257,0-1.884a2.578,2.578,0,0,1,1.213-2.133c-.84-1.556-.707-2.809.381-3.688a2.582,2.582,0,0,1,3.286.06c1.036.908,1.155,2.2.308,3.624m-1.99-2.938a1.273,1.273,0,0,0-1.276,1.269,1.282,1.282,0,1,0,2.563-.009,1.277,1.277,0,0,0-1.287-1.26" transform="translate(-93.817 -81.96)" fill="#fff"/>
            <path id="Trazado_196134" data-name="Trazado 196134" d="M71.395,4.232c-.848-1.476-.712-2.79.362-3.654a2.561,2.561,0,0,1,3.312.061,2.6,2.6,0,0,1,.293,3.573c.094.078.193.159.29.242a2.527,2.527,0,0,1,.927,1.881.641.641,0,0,1-.592.721A.65.65,0,0,1,75.3,6.42a1.293,1.293,0,0,0-1.431-1.287c-.374,0-.748-.008-1.122,0a1.28,1.28,0,0,0-1.3,1.3c-.01.4,0,.8,0,1.268h1.191c.441,0,.881-.007,1.322,0a.641.641,0,1,1-.012,1.278c-1.028.008-2.056,0-3.085,0-.369,0-.665-.179-.677-.543a19.9,19.9,0,0,1,.041-2.477,2.368,2.368,0,0,1,1.163-1.73m3.261-1.667a1.28,1.28,0,1,0-1.27,1.28,1.285,1.285,0,0,0,1.27-1.28" transform="translate(-52.822 0)" fill="#fff"/>
            <path id="Trazado_196135" data-name="Trazado 196135" d="M57.182,84.3a3.851,3.851,0,1,1,3.8,3.859,3.858,3.858,0,0,1-3.8-3.859m1.286-.008a2.565,2.565,0,1,0,2.591-2.549,2.569,2.569,0,0,0-2.591,2.549" transform="translate(-43.043 -60.559)" fill="#fff"/>
            <path id="Trazado_196136" data-name="Trazado 196136" d="M51.727,142.945A17.91,17.91,0,0,1,41.991,140c-.424-.276-.536-.639-.311-.972s.6-.377,1.021-.1a16.366,16.366,0,0,0,6.679,2.547,16.555,16.555,0,0,0,10.142-1.687c.131-.067.257-.144.391-.2a.629.629,0,0,1,.855.275.6.6,0,0,1-.277.852c-.726.364-1.456.73-2.211,1.028a17.747,17.747,0,0,1-6.553,1.206" transform="translate(-31.289 -104.438)" fill="#fff"/>
            <path id="Trazado_196137" data-name="Trazado 196137" d="M107.749,59.041a1.924,1.924,0,1,1-1.894-1.934,1.933,1.933,0,0,1,1.894,1.934m-1.285-.015a.639.639,0,1,0-.625.643.643.643,0,0,0,.625-.643" transform="translate(-78.212 -42.987)" fill="#fff"/>
          </g>
        </g>
      </g>
      <g id="Grupo_152890" data-name="Grupo 152890" transform="translate(25.101 0)">
        <circle id="Elipse_5702-3" data-name="Elipse 5702" cx="11" cy="11" r="11" transform="translate(-0.467 0.002)" fill="#2194e5"/>
        <path id="Trazado_196179" data-name="Trazado 196179" d="M7.348,17H4.377V7.543L1.459,8.4V6.146L7.075,4.2h.272Z" transform="translate(5.534 1.002)" fill="#fff"/>
      </g>
    </g>
    <path id="Trazado_196178" data-name="Trazado 196178" d="M4.8,8.563A6.172,6.172,0,0,1,2.342,7.371a2.279,2.279,0,0,1-.769-1.747,2.408,2.408,0,0,1,.94-1.945A3.736,3.736,0,0,1,4.957,2.91a4.078,4.078,0,0,1,1.829.4A3.007,3.007,0,0,1,8.03,4.4a2.8,2.8,0,0,1,.441,1.524H7.151A1.82,1.82,0,0,0,6.577,4.5a2.335,2.335,0,0,0-1.62-.518,2.391,2.391,0,0,0-1.514.428A1.428,1.428,0,0,0,2.9,5.6,1.285,1.285,0,0,0,3.416,6.63a5.062,5.062,0,0,0,1.757.77,8.152,8.152,0,0,1,1.941.77,2.946,2.946,0,0,1,1.039.981,2.5,2.5,0,0,1,.338,1.319,2.326,2.326,0,0,1-.943,1.938,4.022,4.022,0,0,1-2.522.728,4.678,4.678,0,0,1-1.914-.393,3.221,3.221,0,0,1-1.371-1.077,2.627,2.627,0,0,1-.482-1.552H2.578a1.714,1.714,0,0,0,.667,1.425,2.806,2.806,0,0,0,1.781.523,2.58,2.58,0,0,0,1.593-.424,1.377,1.377,0,0,0,.554-1.155,1.351,1.351,0,0,0-.513-1.131A5.911,5.911,0,0,0,4.8,8.563ZM11.349,13H10.084V5.6h1.265ZM9.981,3.642a.755.755,0,0,1,.188-.52.706.706,0,0,1,.557-.212.717.717,0,0,1,.561.212.747.747,0,0,1,.191.52.722.722,0,0,1-.191.513.73.73,0,0,1-.561.205.718.718,0,0,1-.557-.205A.73.73,0,0,1,9.981,3.642Zm7.7,7.4a.931.931,0,0,0-.386-.8,3.718,3.718,0,0,0-1.347-.489,6.367,6.367,0,0,1-1.524-.492,2.169,2.169,0,0,1-.834-.684,1.635,1.635,0,0,1-.27-.943A1.919,1.919,0,0,1,14.086,6.1a3,3,0,0,1,1.965-.629,3.091,3.091,0,0,1,2.041.649,2.063,2.063,0,0,1,.783,1.661H17.6a1.142,1.142,0,0,0-.441-.9,1.652,1.652,0,0,0-1.111-.376,1.729,1.729,0,0,0-1.08.3.947.947,0,0,0-.39.786.767.767,0,0,0,.362.69,4.458,4.458,0,0,0,1.309.444,6.821,6.821,0,0,1,1.535.506,2.239,2.239,0,0,1,.872.708,1.74,1.74,0,0,1,.284,1.008,1.893,1.893,0,0,1-.793,1.589,3.326,3.326,0,0,1-2.058.6,3.725,3.725,0,0,1-1.572-.314,2.557,2.557,0,0,1-1.07-.878,2.117,2.117,0,0,1-.386-1.22h1.265a1.309,1.309,0,0,0,.509,1.008,1.976,1.976,0,0,0,1.254.373,2.039,2.039,0,0,0,1.152-.291A.893.893,0,0,0,17.679,11.038Zm4.628-7.226V5.6h1.381v.978H22.307v4.593a1.027,1.027,0,0,0,.185.667.777.777,0,0,0,.629.222,3.062,3.062,0,0,0,.6-.082V13a3.688,3.688,0,0,1-.971.136,1.575,1.575,0,0,1-1.278-.513,2.2,2.2,0,0,1-.431-1.456V6.581H19.7V5.6h1.347V3.813Zm5.927,9.324a3.232,3.232,0,0,1-2.447-.988,3.666,3.666,0,0,1-.943-2.642V9.274a4.438,4.438,0,0,1,.42-1.965,3.28,3.28,0,0,1,1.176-1.354,2.956,2.956,0,0,1,1.637-.489,2.77,2.77,0,0,1,2.242.95,4.114,4.114,0,0,1,.8,2.721v.526H26.107a2.629,2.629,0,0,0,.639,1.767A2.009,2.009,0,0,0,28.3,12.1a2.2,2.2,0,0,0,1.135-.273,2.851,2.851,0,0,0,.813-.725l.772.6A3.106,3.106,0,0,1,28.233,13.137Zm-.157-6.631a1.687,1.687,0,0,0-1.285.557,2.708,2.708,0,0,0-.643,1.562h3.705v-.1a2.409,2.409,0,0,0-.52-1.494A1.588,1.588,0,0,0,28.076,6.506Zm5.694-.9.034.82A2.732,2.732,0,0,1,36,5.467a2.115,2.115,0,0,1,2.112,1.189,2.8,2.8,0,0,1,.96-.861,2.837,2.837,0,0,1,1.4-.328q2.434,0,2.475,2.577V13H41.68V8.119a1.7,1.7,0,0,0-.362-1.186A1.6,1.6,0,0,0,40.1,6.54a1.677,1.677,0,0,0-1.169.42,1.706,1.706,0,0,0-.54,1.131V13H37.12V8.153A1.411,1.411,0,0,0,35.541,6.54a1.692,1.692,0,0,0-1.7,1.06V13H32.574V5.6ZM49.418,13a2.657,2.657,0,0,1-.178-.779,2.822,2.822,0,0,1-2.105.916,2.611,2.611,0,0,1-1.794-.619,2,2,0,0,1-.7-1.569,2.091,2.091,0,0,1,.878-1.794,4.142,4.142,0,0,1,2.471-.639h1.23V7.935a1.42,1.42,0,0,0-.4-1.056,1.593,1.593,0,0,0-1.169-.393,1.844,1.844,0,0,0-1.135.342,1.007,1.007,0,0,0-.458.827H44.79a1.745,1.745,0,0,1,.393-1.07,2.683,2.683,0,0,1,1.066-.817,3.588,3.588,0,0,1,1.48-.3,2.924,2.924,0,0,1,2,.639,2.306,2.306,0,0,1,.752,1.76v3.4a4.162,4.162,0,0,0,.26,1.62V13Zm-2.1-.964a2.223,2.223,0,0,0,1.128-.308,1.861,1.861,0,0,0,.772-.8V9.411h-.991q-2.324,0-2.324,1.36a1.151,1.151,0,0,0,.4.93A1.524,1.524,0,0,0,47.319,12.036Zm8.306-2.8A4.333,4.333,0,0,1,56.432,6.5a2.745,2.745,0,0,1,4.17-.147V2.5h1.265V13H60.7l-.062-.793a2.575,2.575,0,0,1-2.112.93,2.526,2.526,0,0,1-2.1-1.053,4.382,4.382,0,0,1-.81-2.748Zm1.265.144a3.281,3.281,0,0,0,.52,1.969,1.68,1.68,0,0,0,1.436.711,1.845,1.845,0,0,0,1.757-1.08v-3.4A1.859,1.859,0,0,0,58.858,6.54a1.687,1.687,0,0,0-1.449.718A3.612,3.612,0,0,0,56.89,9.384ZM66.9,13.137a3.232,3.232,0,0,1-2.447-.988,3.666,3.666,0,0,1-.943-2.642V9.274a4.438,4.438,0,0,1,.42-1.965A3.28,3.28,0,0,1,65.1,5.956a2.956,2.956,0,0,1,1.637-.489,2.77,2.77,0,0,1,2.242.95,4.114,4.114,0,0,1,.8,2.721v.526H64.771a2.629,2.629,0,0,0,.639,1.767,2.009,2.009,0,0,0,1.555.673,2.2,2.2,0,0,0,1.135-.273,2.851,2.851,0,0,0,.813-.725l.772.6A3.106,3.106,0,0,1,66.9,13.137ZM66.74,6.506a1.687,1.687,0,0,0-1.285.557,2.708,2.708,0,0,0-.643,1.562h3.705v-.1A2.409,2.409,0,0,0,68,7.036,1.588,1.588,0,0,0,66.74,6.506ZM16.571,28.038a.931.931,0,0,0-.386-.8,3.718,3.718,0,0,0-1.347-.489,6.367,6.367,0,0,1-1.524-.492,2.169,2.169,0,0,1-.834-.684,1.635,1.635,0,0,1-.27-.943,1.919,1.919,0,0,1,.769-1.538,3,3,0,0,1,1.965-.629,3.091,3.091,0,0,1,2.041.649,2.063,2.063,0,0,1,.783,1.661H16.5a1.142,1.142,0,0,0-.441-.9,1.652,1.652,0,0,0-1.111-.376,1.729,1.729,0,0,0-1.08.3.947.947,0,0,0-.39.786.767.767,0,0,0,.362.69,4.458,4.458,0,0,0,1.309.444,6.821,6.821,0,0,1,1.535.506,2.239,2.239,0,0,1,.872.708,1.74,1.74,0,0,1,.284,1.008,1.893,1.893,0,0,1-.793,1.589,3.326,3.326,0,0,1-2.058.6,3.725,3.725,0,0,1-1.572-.314,2.557,2.557,0,0,1-1.07-.878,2.117,2.117,0,0,1-.386-1.22h1.265a1.309,1.309,0,0,0,.509,1.008,1.976,1.976,0,0,0,1.254.373,2.039,2.039,0,0,0,1.152-.291A.893.893,0,0,0,16.571,28.038Zm5.981,2.1a3.232,3.232,0,0,1-2.447-.988,3.666,3.666,0,0,1-.943-2.642v-.232a4.438,4.438,0,0,1,.42-1.965,3.28,3.28,0,0,1,1.176-1.354,2.956,2.956,0,0,1,1.637-.489,2.77,2.77,0,0,1,2.242.95,4.114,4.114,0,0,1,.8,2.721v.526H20.427a2.629,2.629,0,0,0,.639,1.767,2.009,2.009,0,0,0,1.555.673,2.2,2.2,0,0,0,1.135-.273,2.851,2.851,0,0,0,.813-.725l.772.6A3.106,3.106,0,0,1,22.553,30.137ZM22.4,23.506a1.687,1.687,0,0,0-1.285.557,2.708,2.708,0,0,0-.643,1.562h3.705v-.1a2.409,2.409,0,0,0-.52-1.494A1.588,1.588,0,0,0,22.4,23.506Zm8.08.232a3.79,3.79,0,0,0-.622-.048,1.667,1.667,0,0,0-1.688,1.06V30H26.9V22.6h1.23l.021.854a1.969,1.969,0,0,1,1.764-.991,1.292,1.292,0,0,1,.561.1ZM34.2,28.284,36.033,22.6h1.292L34.673,30h-.964l-2.68-7.4h1.292ZM39.916,30H38.651V22.6h1.265Zm-1.367-9.358a.755.755,0,0,1,.188-.52.706.706,0,0,1,.557-.212.717.717,0,0,1,.561.212.747.747,0,0,1,.191.52.722.722,0,0,1-.191.513.73.73,0,0,1-.561.205.718.718,0,0,1-.557-.205A.73.73,0,0,1,38.549,20.642ZM44.906,29.1a1.822,1.822,0,0,0,1.183-.41,1.443,1.443,0,0,0,.561-1.025h1.2a2.293,2.293,0,0,1-.437,1.21,2.881,2.881,0,0,1-1.077.916,3.107,3.107,0,0,1-1.425.342,3.047,3.047,0,0,1-2.4-1.008,4.016,4.016,0,0,1-.892-2.758v-.212a4.453,4.453,0,0,1,.4-1.921,3.02,3.02,0,0,1,1.138-1.306,3.233,3.233,0,0,1,1.753-.465,2.966,2.966,0,0,1,2.068.745,2.663,2.663,0,0,1,.878,1.935h-1.2a1.743,1.743,0,0,0-.543-1.179,1.691,1.691,0,0,0-1.207-.461,1.77,1.77,0,0,0-1.494.694,3.259,3.259,0,0,0-.53,2.006v.239a3.194,3.194,0,0,0,.526,1.969A1.779,1.779,0,0,0,44.906,29.1Zm5.735.9H49.377V22.6h1.265Zm-1.367-9.358a.755.755,0,0,1,.188-.52.706.706,0,0,1,.557-.212.717.717,0,0,1,.561.212.747.747,0,0,1,.191.52.722.722,0,0,1-.191.513.73.73,0,0,1-.561.205.718.718,0,0,1-.557-.205A.73.73,0,0,1,49.274,20.642Zm3.056,5.592a4.369,4.369,0,0,1,.427-1.955,3.187,3.187,0,0,1,1.189-1.34,3.238,3.238,0,0,1,1.74-.472,3.119,3.119,0,0,1,2.444,1.046,4.024,4.024,0,0,1,.933,2.782v.089a4.407,4.407,0,0,1-.414,1.938,3.14,3.14,0,0,1-1.183,1.336,3.275,3.275,0,0,1-1.767.479,3.111,3.111,0,0,1-2.437-1.046,4,4,0,0,1-.933-2.769Zm1.271.15a3.164,3.164,0,0,0,.571,1.976,1.934,1.934,0,0,0,3.059-.01,3.46,3.46,0,0,0,.567-2.116,3.159,3.159,0,0,0-.578-1.972,1.836,1.836,0,0,0-1.535-.755,1.816,1.816,0,0,0-1.511.745A3.434,3.434,0,0,0,53.6,26.384Z" transform="translate(946.195 4694.37)" fill="#12263f"/>
    <path id="Trazado_196177" data-name="Trazado 196177" d="M13.51,12.667a4.673,4.673,0,0,1-.721,2.36,4.35,4.35,0,0,1-1.85,1.586,6.3,6.3,0,0,1-2.72.563,5.025,5.025,0,0,1-3.973-1.644A6.786,6.786,0,0,1,2.8,10.892v-.633a7.746,7.746,0,0,1,.655-3.292,4.961,4.961,0,0,1,1.885-2.18,5.26,5.26,0,0,1,2.848-.769,5.516,5.516,0,0,1,3.744,1.226,4.844,4.844,0,0,1,1.608,3.379H10.46a2.292,2.292,0,0,0-.589-1.679,2.422,2.422,0,0,0-1.687-.51A1.843,1.843,0,0,0,6.5,7.3a5.536,5.536,0,0,0-.562,2.751v.905a6.125,6.125,0,0,0,.514,2.927,1.882,1.882,0,0,0,1.771.879,2.369,2.369,0,0,0,1.626-.5,2.126,2.126,0,0,0,.6-1.591Zm.949-.51a5.613,5.613,0,0,1,.554-2.536A3.96,3.96,0,0,1,16.6,7.912a4.791,4.791,0,0,1,2.435-.6A4.373,4.373,0,0,1,22.4,8.637a5.076,5.076,0,0,1,1.23,3.6v.105A4.925,4.925,0,0,1,22.4,15.871a4.384,4.384,0,0,1-3.344,1.305,4.434,4.434,0,0,1-3.261-1.217,4.761,4.761,0,0,1-1.327-3.3Zm2.962.185a3.538,3.538,0,0,0,.413,1.934,1.376,1.376,0,0,0,1.222.615q1.582,0,1.617-2.435v-.3q0-2.558-1.635-2.558-1.485,0-1.608,2.206ZM27.66,7.49l.1,1.116a3.225,3.225,0,0,1,2.716-1.292,2.713,2.713,0,0,1,2.219.888,4.226,4.226,0,0,1,.76,2.672V17H30.481V11a1.6,1.6,0,0,0-.29-1.059A1.342,1.342,0,0,0,29.137,9.6a1.413,1.413,0,0,0-1.292.686V17H24.883V7.49ZM39.2,12.148A5.709,5.709,0,0,1,40.185,8.6,3.233,3.233,0,0,1,42.9,7.314a2.761,2.761,0,0,1,2.338,1.2l.211-1.02h2.566V20.656H45.045V16.209a2.757,2.757,0,0,1-2.162.967A3.2,3.2,0,0,1,40.2,15.871,6.027,6.027,0,0,1,39.2,12.148Zm2.962.185q0,2.558,1.477,2.558a1.43,1.43,0,0,0,1.406-.773V10.355A1.4,1.4,0,0,0,43.656,9.6q-1.38,0-1.485,2.206Zm13.192,3.639a3.054,3.054,0,0,1-2.54,1.2,3,3,0,0,1-2.369-.91,3.826,3.826,0,0,1-.8-2.615V7.49H52.6v6.179a1.065,1.065,0,0,0,1.187,1.222,1.548,1.548,0,0,0,1.45-.729V7.49H58.22V17H55.442Zm9.088,1.2A4.889,4.889,0,0,1,60.9,15.871a4.507,4.507,0,0,1-1.354-3.4v-.246a5.84,5.84,0,0,1,.541-2.575,3.955,3.955,0,0,1,1.578-1.727,4.763,4.763,0,0,1,2.461-.611A4.117,4.117,0,0,1,67.29,8.558a4.887,4.887,0,0,1,1.16,3.467v1.151H62.562a2.135,2.135,0,0,0,.694,1.257,2.066,2.066,0,0,0,1.389.457,2.662,2.662,0,0,0,2.2-.984l1.354,1.6a3.784,3.784,0,0,1-1.569,1.217A5.3,5.3,0,0,1,64.442,17.176ZM64.108,9.6q-1.3,0-1.547,1.723H65.55v-.229a1.467,1.467,0,0,0-.36-1.1A1.434,1.434,0,0,0,64.108,9.6Zm-.035-6.108H67.2l-2.443,2.76-2.417,0Z" transform="translate(946.195 4667.37)" fill="#12263f"/>
    <path id="Trazado_196172" data-name="Trazado 196172" d="M4.706,11.927H9.422V13H3.386V3.047H4.706ZM15.288,13a2.657,2.657,0,0,1-.178-.779A2.822,2.822,0,0,1,13,13.137a2.611,2.611,0,0,1-1.794-.619,2,2,0,0,1-.7-1.569,2.091,2.091,0,0,1,.878-1.794,4.142,4.142,0,0,1,2.471-.639h1.23V7.935a1.42,1.42,0,0,0-.4-1.056,1.593,1.593,0,0,0-1.169-.393,1.844,1.844,0,0,0-1.135.342,1.007,1.007,0,0,0-.458.827H10.66a1.745,1.745,0,0,1,.393-1.07,2.683,2.683,0,0,1,1.066-.817,3.588,3.588,0,0,1,1.48-.3,2.924,2.924,0,0,1,2,.639,2.306,2.306,0,0,1,.752,1.76v3.4a4.162,4.162,0,0,0,.26,1.62V13Zm-2.1-.964a2.223,2.223,0,0,0,1.128-.308,1.861,1.861,0,0,0,.772-.8V9.411H14.1q-2.324,0-2.324,1.36a1.151,1.151,0,0,0,.4.93A1.524,1.524,0,0,0,13.189,12.036Zm11.683,1.1a3.232,3.232,0,0,1-2.447-.988,3.666,3.666,0,0,1-.943-2.642V9.274a4.438,4.438,0,0,1,.42-1.965,3.28,3.28,0,0,1,1.176-1.354,2.956,2.956,0,0,1,1.637-.489,2.77,2.77,0,0,1,2.242.95,4.114,4.114,0,0,1,.8,2.721v.526H22.746a2.629,2.629,0,0,0,.639,1.767,2.009,2.009,0,0,0,1.555.673,2.2,2.2,0,0,0,1.135-.273,2.851,2.851,0,0,0,.813-.725l.772.6A3.106,3.106,0,0,1,24.872,13.137Zm-.157-6.631a1.687,1.687,0,0,0-1.285.557,2.708,2.708,0,0,0-.643,1.562h3.705v-.1a2.409,2.409,0,0,0-.52-1.494A1.588,1.588,0,0,0,24.714,6.506Zm8.812,4.532a.931.931,0,0,0-.386-.8,3.718,3.718,0,0,0-1.347-.489,6.367,6.367,0,0,1-1.524-.492,2.169,2.169,0,0,1-.834-.684,1.635,1.635,0,0,1-.27-.943A1.919,1.919,0,0,1,29.934,6.1,3,3,0,0,1,31.9,5.467a3.091,3.091,0,0,1,2.041.649,2.063,2.063,0,0,1,.783,1.661H33.451a1.142,1.142,0,0,0-.441-.9A1.652,1.652,0,0,0,31.9,6.506a1.729,1.729,0,0,0-1.08.3.947.947,0,0,0-.39.786.767.767,0,0,0,.362.69,4.458,4.458,0,0,0,1.309.444,6.821,6.821,0,0,1,1.535.506,2.239,2.239,0,0,1,.872.708,1.74,1.74,0,0,1,.284,1.008A1.893,1.893,0,0,1,34,12.539a3.326,3.326,0,0,1-2.058.6,3.725,3.725,0,0,1-1.572-.314,2.557,2.557,0,0,1-1.07-.878,2.117,2.117,0,0,1-.386-1.22h1.265a1.309,1.309,0,0,0,.509,1.008,1.976,1.976,0,0,0,1.254.373,2.039,2.039,0,0,0,1.152-.291A.893.893,0,0,0,33.526,11.038Zm4.628-7.226V5.6h1.381v.978H38.154v4.593a1.027,1.027,0,0,0,.185.667.777.777,0,0,0,.629.222,3.062,3.062,0,0,0,.6-.082V13a3.688,3.688,0,0,1-.971.136,1.575,1.575,0,0,1-1.278-.513,2.2,2.2,0,0,1-.431-1.456V6.581H35.542V5.6h1.347V3.813Zm6.433,2.926a3.79,3.79,0,0,0-.622-.048,1.667,1.667,0,0,0-1.688,1.06V13H41.011V5.6h1.23l.021.854a1.969,1.969,0,0,1,1.764-.991,1.292,1.292,0,0,1,.561.1ZM50.042,13a2.657,2.657,0,0,1-.178-.779,2.822,2.822,0,0,1-2.105.916,2.611,2.611,0,0,1-1.794-.619,2,2,0,0,1-.7-1.569,2.091,2.091,0,0,1,.878-1.794,4.142,4.142,0,0,1,2.471-.639h1.23V7.935a1.42,1.42,0,0,0-.4-1.056,1.593,1.593,0,0,0-1.169-.393,1.844,1.844,0,0,0-1.135.342,1.007,1.007,0,0,0-.458.827H45.414a1.745,1.745,0,0,1,.393-1.07,2.683,2.683,0,0,1,1.066-.817,3.588,3.588,0,0,1,1.48-.3,2.924,2.924,0,0,1,2,.639,2.306,2.306,0,0,1,.752,1.76v3.4a4.162,4.162,0,0,0,.26,1.62V13Zm-2.1-.964a2.223,2.223,0,0,0,1.128-.308,1.861,1.861,0,0,0,.772-.8V9.411h-.991q-2.324,0-2.324,1.36a1.151,1.151,0,0,0,.4.93A1.524,1.524,0,0,0,47.943,12.036Zm6.863-8.224V5.6h1.381v.978H54.806v4.593a1.027,1.027,0,0,0,.185.667.777.777,0,0,0,.629.222,3.062,3.062,0,0,0,.6-.082V13a3.688,3.688,0,0,1-.971.136,1.575,1.575,0,0,1-1.278-.513,2.2,2.2,0,0,1-.431-1.456V6.581H52.195V5.6h1.347V3.813Zm5.927,9.324a3.232,3.232,0,0,1-2.447-.988,3.666,3.666,0,0,1-.943-2.642V9.274a4.438,4.438,0,0,1,.42-1.965,3.28,3.28,0,0,1,1.176-1.354,2.956,2.956,0,0,1,1.637-.489,2.77,2.77,0,0,1,2.242.95,4.114,4.114,0,0,1,.8,2.721v.526H58.607a2.629,2.629,0,0,0,.639,1.767A2.009,2.009,0,0,0,60.8,12.1a2.2,2.2,0,0,0,1.135-.273,2.851,2.851,0,0,0,.813-.725l.772.6A3.106,3.106,0,0,1,60.733,13.137Zm-.157-6.631a1.687,1.687,0,0,0-1.285.557,2.708,2.708,0,0,0-.643,1.562h3.705v-.1a2.409,2.409,0,0,0-.52-1.494A1.588,1.588,0,0,0,60.576,6.506Zm4.2,2.734a4.347,4.347,0,0,1,.8-2.751,2.757,2.757,0,0,1,4.231-.065l.062-.82h1.155v7.219a3.009,3.009,0,0,1-.851,2.263,3.141,3.141,0,0,1-2.287.827,3.8,3.8,0,0,1-1.565-.342,2.7,2.7,0,0,1-1.169-.937l.656-.759a2.473,2.473,0,0,0,1.989,1,1.938,1.938,0,0,0,1.439-.52,1.986,1.986,0,0,0,.516-1.463v-.636a2.6,2.6,0,0,1-2.071.875,2.527,2.527,0,0,1-2.1-1.046A4.571,4.571,0,0,1,64.78,9.24Zm1.271.144a3.316,3.316,0,0,0,.513,1.965A1.666,1.666,0,0,0,68,12.063a1.852,1.852,0,0,0,1.757-1.087V7.6a1.874,1.874,0,0,0-1.743-1.06,1.681,1.681,0,0,0-1.442.718A3.612,3.612,0,0,0,66.051,9.384ZM74.309,13H73.044V5.6h1.265ZM72.942,3.642a.755.755,0,0,1,.188-.52.706.706,0,0,1,.557-.212.717.717,0,0,1,.561.212.747.747,0,0,1,.191.52.722.722,0,0,1-.191.513.73.73,0,0,1-.561.205.718.718,0,0,1-.557-.205A.73.73,0,0,1,72.942,3.642ZM80.9,13a2.657,2.657,0,0,1-.178-.779,2.822,2.822,0,0,1-2.105.916,2.611,2.611,0,0,1-1.794-.619,2,2,0,0,1-.7-1.569A2.091,2.091,0,0,1,77,9.155a4.141,4.141,0,0,1,2.471-.639H80.7V7.935a1.42,1.42,0,0,0-.4-1.056,1.593,1.593,0,0,0-1.169-.393A1.844,1.844,0,0,0,78,6.827a1.007,1.007,0,0,0-.458.827H76.271a1.745,1.745,0,0,1,.393-1.07,2.683,2.683,0,0,1,1.066-.817,3.588,3.588,0,0,1,1.48-.3,2.924,2.924,0,0,1,2,.639,2.306,2.306,0,0,1,.752,1.76v3.4a4.162,4.162,0,0,0,.26,1.62V13Zm-2.1-.964a2.223,2.223,0,0,0,1.128-.308,1.861,1.861,0,0,0,.772-.8V9.411h-.991q-2.324,0-2.324,1.36a1.151,1.151,0,0,0,.4.93A1.524,1.524,0,0,0,78.8,12.036Zm8.306-2.8A4.333,4.333,0,0,1,87.913,6.5a2.745,2.745,0,0,1,4.17-.147V2.5h1.265V13H92.185l-.062-.793a2.575,2.575,0,0,1-2.112.93,2.526,2.526,0,0,1-2.1-1.053,4.382,4.382,0,0,1-.81-2.748Zm1.265.144a3.281,3.281,0,0,0,.52,1.969,1.68,1.68,0,0,0,1.436.711,1.845,1.845,0,0,0,1.757-1.08v-3.4A1.859,1.859,0,0,0,90.339,6.54a1.687,1.687,0,0,0-1.449.718A3.612,3.612,0,0,0,88.371,9.384Zm10.008,3.753a3.232,3.232,0,0,1-2.447-.988,3.666,3.666,0,0,1-.943-2.642V9.274a4.438,4.438,0,0,1,.42-1.965,3.28,3.28,0,0,1,1.176-1.354,2.956,2.956,0,0,1,1.637-.489,2.77,2.77,0,0,1,2.242.95,4.114,4.114,0,0,1,.8,2.721v.526H96.252a2.629,2.629,0,0,0,.639,1.767,2.009,2.009,0,0,0,1.555.673,2.2,2.2,0,0,0,1.135-.273,2.851,2.851,0,0,0,.813-.725l.772.6A3.106,3.106,0,0,1,98.378,13.137Zm-.157-6.631a1.687,1.687,0,0,0-1.285.557,2.708,2.708,0,0,0-.643,1.562H100v-.1a2.409,2.409,0,0,0-.52-1.494A1.588,1.588,0,0,0,98.221,6.506ZM33.071,28.038a.931.931,0,0,0-.386-.8,3.718,3.718,0,0,0-1.347-.489,6.367,6.367,0,0,1-1.524-.492,2.169,2.169,0,0,1-.834-.684,1.635,1.635,0,0,1-.27-.943,1.919,1.919,0,0,1,.769-1.538,3,3,0,0,1,1.965-.629,3.091,3.091,0,0,1,2.041.649,2.063,2.063,0,0,1,.783,1.661H33a1.142,1.142,0,0,0-.441-.9,1.652,1.652,0,0,0-1.111-.376,1.729,1.729,0,0,0-1.08.3.947.947,0,0,0-.39.786.767.767,0,0,0,.362.69,4.458,4.458,0,0,0,1.309.444,6.821,6.821,0,0,1,1.535.506,2.239,2.239,0,0,1,.872.708,1.74,1.74,0,0,1,.284,1.008,1.893,1.893,0,0,1-.793,1.589,3.326,3.326,0,0,1-2.058.6,3.725,3.725,0,0,1-1.572-.314,2.557,2.557,0,0,1-1.07-.878,2.117,2.117,0,0,1-.386-1.22h1.265a1.309,1.309,0,0,0,.509,1.008,1.976,1.976,0,0,0,1.254.373,2.039,2.039,0,0,0,1.152-.291A.893.893,0,0,0,33.071,28.038Zm5.981,2.1a3.232,3.232,0,0,1-2.447-.988,3.666,3.666,0,0,1-.943-2.642v-.232a4.438,4.438,0,0,1,.42-1.965,3.279,3.279,0,0,1,1.176-1.354,2.956,2.956,0,0,1,1.637-.489,2.77,2.77,0,0,1,2.242.95,4.114,4.114,0,0,1,.8,2.721v.526H36.927a2.629,2.629,0,0,0,.639,1.767,2.009,2.009,0,0,0,1.555.673,2.2,2.2,0,0,0,1.135-.273,2.851,2.851,0,0,0,.813-.725l.772.6A3.106,3.106,0,0,1,39.053,30.137ZM38.9,23.506a1.687,1.687,0,0,0-1.285.557,2.708,2.708,0,0,0-.643,1.562h3.705v-.1a2.409,2.409,0,0,0-.52-1.494A1.588,1.588,0,0,0,38.9,23.506Zm8.08.232a3.79,3.79,0,0,0-.622-.048,1.667,1.667,0,0,0-1.688,1.06V30H43.4V22.6h1.23l.021.854a1.969,1.969,0,0,1,1.764-.991,1.292,1.292,0,0,1,.561.1ZM50.7,28.284,52.533,22.6h1.292L51.173,30h-.964l-2.68-7.4h1.292ZM56.416,30H55.151V22.6h1.265Zm-1.367-9.358a.755.755,0,0,1,.188-.52.706.706,0,0,1,.557-.212.717.717,0,0,1,.561.212.747.747,0,0,1,.191.52.722.722,0,0,1-.191.513.73.73,0,0,1-.561.205.718.718,0,0,1-.557-.205A.73.73,0,0,1,55.049,20.642ZM61.406,29.1a1.822,1.822,0,0,0,1.183-.41,1.443,1.443,0,0,0,.561-1.025h1.2a2.293,2.293,0,0,1-.437,1.21,2.881,2.881,0,0,1-1.077.916,3.107,3.107,0,0,1-1.425.342A3.047,3.047,0,0,1,59,29.128a4.016,4.016,0,0,1-.892-2.758v-.212a4.453,4.453,0,0,1,.4-1.921,3.02,3.02,0,0,1,1.138-1.306,3.233,3.233,0,0,1,1.753-.465,2.966,2.966,0,0,1,2.068.745,2.663,2.663,0,0,1,.878,1.935h-1.2a1.743,1.743,0,0,0-.543-1.179,1.691,1.691,0,0,0-1.207-.461,1.77,1.77,0,0,0-1.494.694,3.259,3.259,0,0,0-.53,2.006v.239a3.194,3.194,0,0,0,.526,1.969A1.779,1.779,0,0,0,61.406,29.1Zm5.735.9H65.877V22.6h1.265Zm-1.367-9.358a.755.755,0,0,1,.188-.52.706.706,0,0,1,.557-.212.717.717,0,0,1,.561.212.747.747,0,0,1,.191.52.722.722,0,0,1-.191.513.73.73,0,0,1-.561.205.718.718,0,0,1-.557-.205A.73.73,0,0,1,65.774,20.642Zm3.056,5.592a4.369,4.369,0,0,1,.427-1.955,3.187,3.187,0,0,1,1.189-1.34,3.238,3.238,0,0,1,1.74-.472,3.119,3.119,0,0,1,2.444,1.046,4.024,4.024,0,0,1,.933,2.782v.089a4.407,4.407,0,0,1-.414,1.938,3.14,3.14,0,0,1-1.183,1.336,3.275,3.275,0,0,1-1.767.479,3.111,3.111,0,0,1-2.437-1.046,4,4,0,0,1-.933-2.769Zm1.271.15a3.164,3.164,0,0,0,.571,1.976,1.934,1.934,0,0,0,3.059-.01,3.46,3.46,0,0,0,.567-2.116,3.159,3.159,0,0,0-.578-1.972,1.836,1.836,0,0,0-1.535-.755,1.816,1.816,0,0,0-1.511.745A3.434,3.434,0,0,0,70.1,26.384Z" transform="translate(715.195 4403.37)" fill="#12263f"/>
    <path id="Trazado_196173" data-name="Trazado 196173" d="M11.821,10.865a7.562,7.562,0,0,1-.589,3.1,5.385,5.385,0,0,1-1.626,2.123l2.065,1.635L9.765,19.338,7.014,17.123a5.718,5.718,0,0,1-.773.053,5.547,5.547,0,0,1-2.9-.756,5.141,5.141,0,0,1-1.973-2.162,7.343,7.343,0,0,1-.734-3.234v-.677a7.572,7.572,0,0,1,.69-3.322A5.142,5.142,0,0,1,3.292,4.81a5.5,5.5,0,0,1,2.931-.782,5.479,5.479,0,0,1,2.9.773A5.211,5.211,0,0,1,11.1,7a7.362,7.362,0,0,1,.716,3.274Zm-3.138-.536a5.381,5.381,0,0,0-.637-2.9,2.044,2.044,0,0,0-1.824-.989,2.03,2.03,0,0,0-1.837.976,5.451,5.451,0,0,0-.624,2.856v.589a5.531,5.531,0,0,0,.624,2.9A2.043,2.043,0,0,0,6.24,14.768a2.014,2.014,0,0,0,1.806-.993,5.414,5.414,0,0,0,.637-2.856Zm10.239,5.643a3.054,3.054,0,0,1-2.54,1.2,3,3,0,0,1-2.369-.91,3.826,3.826,0,0,1-.8-2.615V7.49h2.962v6.179a1.065,1.065,0,0,0,1.187,1.222,1.548,1.548,0,0,0,1.45-.729V7.49h2.979V17H19.011Zm9.088,1.2a4.889,4.889,0,0,1-3.542-1.305,4.507,4.507,0,0,1-1.354-3.4v-.246a5.84,5.84,0,0,1,.541-2.575,3.955,3.955,0,0,1,1.578-1.727,4.763,4.763,0,0,1,2.461-.611,4.117,4.117,0,0,1,3.164,1.244,4.887,4.887,0,0,1,1.16,3.467v1.151H26.13a2.135,2.135,0,0,0,.694,1.257,2.066,2.066,0,0,0,1.389.457,2.662,2.662,0,0,0,2.2-.984l1.354,1.6a3.784,3.784,0,0,1-1.569,1.217A5.3,5.3,0,0,1,28.011,17.176ZM27.677,9.6q-1.3,0-1.547,1.723h2.988v-.229a1.467,1.467,0,0,0-.36-1.1A1.434,1.434,0,0,0,27.677,9.6Zm-.035-6.108h3.129l-2.443,2.76-2.417,0Z" transform="translate(750.195 4379.37)" fill="#12263f"/>
    <path id="Trazado_196175" data-name="Trazado 196175" d="M3.522,9.1V13H2.21V3.047H5.881a3.688,3.688,0,0,1,2.56.834,2.827,2.827,0,0,1,.926,2.208,2.79,2.79,0,0,1-.906,2.232A3.853,3.853,0,0,1,5.867,9.1Zm0-1.073H5.881a2.358,2.358,0,0,0,1.613-.5A1.815,1.815,0,0,0,8.055,6.1a1.876,1.876,0,0,0-.561-1.424A2.209,2.209,0,0,0,5.956,4.12H3.522Zm10.3,5.106a3.232,3.232,0,0,1-2.447-.988,3.666,3.666,0,0,1-.943-2.642V9.274a4.438,4.438,0,0,1,.42-1.965A3.28,3.28,0,0,1,12.03,5.956a2.956,2.956,0,0,1,1.637-.489,2.77,2.77,0,0,1,2.242.95,4.114,4.114,0,0,1,.8,2.721v.526H11.7a2.629,2.629,0,0,0,.639,1.767,2.009,2.009,0,0,0,1.555.673,2.2,2.2,0,0,0,1.135-.273,2.851,2.851,0,0,0,.813-.725l.772.6A3.106,3.106,0,0,1,13.824,13.137Zm-.157-6.631a1.687,1.687,0,0,0-1.285.557,2.708,2.708,0,0,0-.643,1.562h3.705v-.1a2.409,2.409,0,0,0-.52-1.494A1.588,1.588,0,0,0,13.667,6.506Zm8.08.232a3.79,3.79,0,0,0-.622-.048,1.667,1.667,0,0,0-1.688,1.06V13H18.172V5.6H19.4l.021.854a1.969,1.969,0,0,1,1.764-.991,1.292,1.292,0,0,1,.561.1Zm5.469,4.3a.931.931,0,0,0-.386-.8,3.718,3.718,0,0,0-1.347-.489,6.367,6.367,0,0,1-1.524-.492,2.169,2.169,0,0,1-.834-.684,1.635,1.635,0,0,1-.27-.943A1.919,1.919,0,0,1,23.624,6.1a3,3,0,0,1,1.965-.629,3.091,3.091,0,0,1,2.041.649,2.063,2.063,0,0,1,.783,1.661H27.141a1.142,1.142,0,0,0-.441-.9,1.652,1.652,0,0,0-1.111-.376,1.729,1.729,0,0,0-1.08.3.947.947,0,0,0-.39.786.767.767,0,0,0,.362.69,4.458,4.458,0,0,0,1.309.444,6.821,6.821,0,0,1,1.535.506,2.239,2.239,0,0,1,.872.708,1.74,1.74,0,0,1,.284,1.008,1.893,1.893,0,0,1-.793,1.589,3.326,3.326,0,0,1-2.058.6,3.725,3.725,0,0,1-1.572-.314,2.557,2.557,0,0,1-1.07-.878,2.117,2.117,0,0,1-.386-1.22h1.265a1.309,1.309,0,0,0,.509,1.008,1.976,1.976,0,0,0,1.254.373,2.039,2.039,0,0,0,1.152-.291A.893.893,0,0,0,27.216,11.038Zm2.577-1.8a4.369,4.369,0,0,1,.427-1.955,3.187,3.187,0,0,1,1.189-1.34,3.238,3.238,0,0,1,1.74-.472,3.119,3.119,0,0,1,2.444,1.046,4.024,4.024,0,0,1,.933,2.782v.089a4.407,4.407,0,0,1-.414,1.938,3.14,3.14,0,0,1-1.183,1.336,3.275,3.275,0,0,1-1.767.479,3.111,3.111,0,0,1-2.437-1.046,4,4,0,0,1-.933-2.769Zm1.271.15a3.164,3.164,0,0,0,.571,1.976,1.934,1.934,0,0,0,3.059-.01,3.46,3.46,0,0,0,.567-2.116,3.159,3.159,0,0,0-.578-1.972,1.836,1.836,0,0,0-1.535-.755,1.816,1.816,0,0,0-1.511.745A3.435,3.435,0,0,0,31.064,9.384ZM39.309,5.6l.041.93a2.7,2.7,0,0,1,2.215-1.066q2.345,0,2.365,2.646V13H42.665V8.105A1.7,1.7,0,0,0,42.3,6.923a1.466,1.466,0,0,0-1.118-.383,1.825,1.825,0,0,0-1.08.328,2.228,2.228,0,0,0-.725.861V13H38.112V5.6ZM50.4,13a2.657,2.657,0,0,1-.178-.779,2.822,2.822,0,0,1-2.105.916,2.611,2.611,0,0,1-1.794-.619,2,2,0,0,1-.7-1.569A2.091,2.091,0,0,1,46.5,9.155a4.142,4.142,0,0,1,2.471-.639h1.23V7.935a1.42,1.42,0,0,0-.4-1.056,1.593,1.593,0,0,0-1.169-.393,1.844,1.844,0,0,0-1.135.342,1.007,1.007,0,0,0-.458.827H45.775a1.745,1.745,0,0,1,.393-1.07,2.683,2.683,0,0,1,1.066-.817,3.588,3.588,0,0,1,1.48-.3,2.924,2.924,0,0,1,2,.639,2.306,2.306,0,0,1,.752,1.76v3.4a4.162,4.162,0,0,0,.26,1.62V13Zm-2.1-.964a2.223,2.223,0,0,0,1.128-.308,1.861,1.861,0,0,0,.772-.8V9.411h-.991q-2.324,0-2.324,1.36a1.151,1.151,0,0,0,.4.93A1.524,1.524,0,0,0,48.3,12.036Zm8.278-2.8a4.369,4.369,0,0,1,.427-1.955A3.187,3.187,0,0,1,58.2,5.938a3.238,3.238,0,0,1,1.74-.472,3.119,3.119,0,0,1,2.444,1.046,4.024,4.024,0,0,1,.933,2.782v.089a4.407,4.407,0,0,1-.414,1.938,3.14,3.14,0,0,1-1.183,1.336,3.275,3.275,0,0,1-1.767.479,3.111,3.111,0,0,1-2.437-1.046,4,4,0,0,1-.933-2.769Zm1.271.15a3.164,3.164,0,0,0,.571,1.976,1.934,1.934,0,0,0,3.059-.01,3.46,3.46,0,0,0,.567-2.116,3.159,3.159,0,0,0-.578-1.972,1.836,1.836,0,0,0-1.535-.755,1.816,1.816,0,0,0-1.511.745A3.435,3.435,0,0,0,57.854,9.384Zm-45.4,17a4.429,4.429,0,0,1-.772,2.721,2.476,2.476,0,0,1-2.092,1.032,2.713,2.713,0,0,1-2.119-.854v3.562H6.209V22.6H7.364l.062.82a2.605,2.605,0,0,1,2.146-.957,2.522,2.522,0,0,1,2.109,1,4.477,4.477,0,0,1,.776,2.8Zm-1.265-.144a3.268,3.268,0,0,0-.533-1.976A1.718,1.718,0,0,0,9.2,23.54a1.859,1.859,0,0,0-1.723,1.019v3.534A1.863,1.863,0,0,0,9.21,29.1a1.71,1.71,0,0,0,1.446-.721A3.567,3.567,0,0,0,11.192,26.24Zm7.438,3.028a2.686,2.686,0,0,1-2.167.868,2.3,2.3,0,0,1-1.8-.687,2.974,2.974,0,0,1-.625-2.034V22.6H15.3v4.778q0,1.682,1.367,1.682a1.893,1.893,0,0,0,1.928-1.08V22.6H19.86V30h-1.2ZM22.978,22.6l.041.93a2.7,2.7,0,0,1,2.215-1.066q2.345,0,2.365,2.646V30H26.334V25.105a1.7,1.7,0,0,0-.366-1.183,1.466,1.466,0,0,0-1.118-.383,1.825,1.825,0,0,0-1.08.328,2.228,2.228,0,0,0-.725.861V30H21.781V22.6Zm8.244-1.791V22.6H32.6v.978H31.222v4.593a1.027,1.027,0,0,0,.185.667.777.777,0,0,0,.629.222,3.062,3.062,0,0,0,.6-.082V30a3.688,3.688,0,0,1-.971.136,1.575,1.575,0,0,1-1.278-.513,2.2,2.2,0,0,1-.431-1.456V23.581H28.61V22.6h1.347V20.813Zm2.386,5.421a4.369,4.369,0,0,1,.427-1.955,3.187,3.187,0,0,1,1.189-1.34,3.238,3.238,0,0,1,1.74-.472,3.119,3.119,0,0,1,2.444,1.046,4.024,4.024,0,0,1,.933,2.782v.089a4.407,4.407,0,0,1-.414,1.938,3.14,3.14,0,0,1-1.183,1.336,3.275,3.275,0,0,1-1.767.479,3.111,3.111,0,0,1-2.437-1.046,4,4,0,0,1-.933-2.769Zm1.271.15a3.164,3.164,0,0,0,.571,1.976,1.934,1.934,0,0,0,3.059-.01,3.46,3.46,0,0,0,.567-2.116,3.159,3.159,0,0,0-.578-1.972,1.836,1.836,0,0,0-1.535-.755,1.816,1.816,0,0,0-1.511.745A3.434,3.434,0,0,0,34.879,26.384Zm10.206-.144a4.333,4.333,0,0,1,.807-2.738,2.745,2.745,0,0,1,4.17-.147V19.5h1.265V30H50.164l-.062-.793a2.575,2.575,0,0,1-2.112.93,2.526,2.526,0,0,1-2.1-1.053,4.382,4.382,0,0,1-.81-2.748Zm1.265.144a3.281,3.281,0,0,0,.52,1.969,1.68,1.68,0,0,0,1.436.711,1.845,1.845,0,0,0,1.757-1.08v-3.4a1.859,1.859,0,0,0-1.743-1.046,1.687,1.687,0,0,0-1.449.718A3.612,3.612,0,0,0,46.35,26.384Zm10.008,3.753a3.232,3.232,0,0,1-2.447-.988,3.666,3.666,0,0,1-.943-2.642v-.232a4.438,4.438,0,0,1,.42-1.965,3.279,3.279,0,0,1,1.176-1.354,2.956,2.956,0,0,1,1.637-.489,2.77,2.77,0,0,1,2.242.95,4.114,4.114,0,0,1,.8,2.721v.526H54.231a2.629,2.629,0,0,0,.639,1.767,2.009,2.009,0,0,0,1.555.673,2.2,2.2,0,0,0,1.135-.273,2.851,2.851,0,0,0,.813-.725l.772.6A3.106,3.106,0,0,1,56.357,30.137ZM56.2,23.506a1.687,1.687,0,0,0-1.285.557,2.708,2.708,0,0,0-.643,1.562h3.705v-.1a2.409,2.409,0,0,0-.52-1.494A1.588,1.588,0,0,0,56.2,23.506ZM8.937,46.1a1.822,1.822,0,0,0,1.183-.41,1.443,1.443,0,0,0,.561-1.025h1.2a2.293,2.293,0,0,1-.437,1.21,2.881,2.881,0,0,1-1.077.916,3.107,3.107,0,0,1-1.425.342,3.047,3.047,0,0,1-2.4-1.008,4.016,4.016,0,0,1-.892-2.758v-.212a4.453,4.453,0,0,1,.4-1.921,3.02,3.02,0,0,1,1.138-1.306,3.233,3.233,0,0,1,1.753-.465A2.966,2.966,0,0,1,11,40.212a2.663,2.663,0,0,1,.878,1.935h-1.2a1.743,1.743,0,0,0-.543-1.179,1.691,1.691,0,0,0-1.207-.461,1.77,1.77,0,0,0-1.494.694,3.259,3.259,0,0,0-.53,2.006v.239a3.194,3.194,0,0,0,.526,1.969A1.779,1.779,0,0,0,8.937,46.1Zm4.026-2.871a4.369,4.369,0,0,1,.427-1.955,3.187,3.187,0,0,1,1.189-1.34,3.238,3.238,0,0,1,1.74-.472,3.119,3.119,0,0,1,2.444,1.046,4.024,4.024,0,0,1,.933,2.782v.089a4.407,4.407,0,0,1-.414,1.938A3.14,3.14,0,0,1,18.1,46.658a3.275,3.275,0,0,1-1.767.479A3.111,3.111,0,0,1,13.9,46.091a4,4,0,0,1-.933-2.769Zm1.271.15a3.164,3.164,0,0,0,.571,1.976,1.934,1.934,0,0,0,3.059-.01,3.46,3.46,0,0,0,.567-2.116,3.159,3.159,0,0,0-.578-1.972,1.836,1.836,0,0,0-1.535-.755,1.816,1.816,0,0,0-1.511.745A3.435,3.435,0,0,0,14.234,43.384Zm8.244-3.78.041.93a2.7,2.7,0,0,1,2.215-1.066q2.345,0,2.365,2.646V47H25.835V42.105a1.7,1.7,0,0,0-.366-1.183,1.466,1.466,0,0,0-1.118-.383,1.825,1.825,0,0,0-1.08.328,2.228,2.228,0,0,0-.725.861V47H21.282V39.6Zm8.244-1.791V39.6H32.1v.978H30.723v4.593a1.027,1.027,0,0,0,.185.667.777.777,0,0,0,.629.222,3.062,3.062,0,0,0,.6-.082V47a3.688,3.688,0,0,1-.971.136,1.575,1.575,0,0,1-1.278-.513,2.2,2.2,0,0,1-.431-1.456V40.581H28.111V39.6h1.347V37.813ZM38.146,47a2.657,2.657,0,0,1-.178-.779,2.822,2.822,0,0,1-2.105.916,2.611,2.611,0,0,1-1.794-.619,2,2,0,0,1-.7-1.569,2.091,2.091,0,0,1,.878-1.794,4.142,4.142,0,0,1,2.471-.639h1.23v-.581a1.42,1.42,0,0,0-.4-1.056,1.593,1.593,0,0,0-1.169-.393,1.844,1.844,0,0,0-1.135.342,1.007,1.007,0,0,0-.458.827H33.519a1.745,1.745,0,0,1,.393-1.07,2.683,2.683,0,0,1,1.066-.817,3.588,3.588,0,0,1,1.48-.3,2.924,2.924,0,0,1,2,.639,2.306,2.306,0,0,1,.752,1.76v3.4a4.162,4.162,0,0,0,.26,1.62V47Zm-2.1-.964a2.223,2.223,0,0,0,1.128-.308,1.861,1.861,0,0,0,.772-.8V43.411h-.991q-2.324,0-2.324,1.36a1.151,1.151,0,0,0,.4.93A1.524,1.524,0,0,0,36.048,46.036Zm8.114.068a1.822,1.822,0,0,0,1.183-.41,1.443,1.443,0,0,0,.561-1.025h1.2a2.293,2.293,0,0,1-.437,1.21,2.881,2.881,0,0,1-1.077.916,3.107,3.107,0,0,1-1.425.342,3.047,3.047,0,0,1-2.4-1.008,4.016,4.016,0,0,1-.892-2.758v-.212a4.453,4.453,0,0,1,.4-1.921A3.02,3.02,0,0,1,42.4,39.932a3.233,3.233,0,0,1,1.753-.465,2.966,2.966,0,0,1,2.068.745,2.663,2.663,0,0,1,.878,1.935h-1.2a1.743,1.743,0,0,0-.543-1.179,1.691,1.691,0,0,0-1.207-.461,1.77,1.77,0,0,0-1.494.694,3.259,3.259,0,0,0-.53,2.006v.239a3.194,3.194,0,0,0,.526,1.969A1.779,1.779,0,0,0,44.162,46.1Zm6.077-8.292V39.6H51.62v.978H50.239v4.593a1.027,1.027,0,0,0,.185.667.777.777,0,0,0,.629.222,3.062,3.062,0,0,0,.6-.082V47a3.688,3.688,0,0,1-.971.136,1.575,1.575,0,0,1-1.278-.513,2.2,2.2,0,0,1-.431-1.456V40.581H47.628V39.6h1.347V37.813Zm2.386,5.421a4.369,4.369,0,0,1,.427-1.955,3.187,3.187,0,0,1,1.189-1.34,3.238,3.238,0,0,1,1.74-.472,3.119,3.119,0,0,1,2.444,1.046,4.024,4.024,0,0,1,.933,2.782v.089a4.407,4.407,0,0,1-.414,1.938,3.14,3.14,0,0,1-1.183,1.336A3.275,3.275,0,0,1,56,47.137a3.111,3.111,0,0,1-2.437-1.046,4,4,0,0,1-.933-2.769Zm1.271.15a3.164,3.164,0,0,0,.571,1.976,1.934,1.934,0,0,0,3.059-.01,3.46,3.46,0,0,0,.567-2.116,3.159,3.159,0,0,0-.578-1.972,1.836,1.836,0,0,0-1.535-.755,1.816,1.816,0,0,0-1.511.745A3.435,3.435,0,0,0,53.9,43.384Z" transform="translate(514.195 4686.37)" fill="#12263f"/>
    <path id="Trazado_196174" data-name="Trazado 196174" d="M11.96,12.667a4.673,4.673,0,0,1-.721,2.36,4.35,4.35,0,0,1-1.85,1.586,6.3,6.3,0,0,1-2.72.563A5.025,5.025,0,0,1,2.7,15.532a6.786,6.786,0,0,1-1.45-4.641v-.633A7.746,7.746,0,0,1,1.9,6.967a4.961,4.961,0,0,1,1.885-2.18,5.26,5.26,0,0,1,2.848-.769,5.516,5.516,0,0,1,3.744,1.226,4.844,4.844,0,0,1,1.608,3.379H8.91a2.292,2.292,0,0,0-.589-1.679,2.422,2.422,0,0,0-1.687-.51A1.843,1.843,0,0,0,4.946,7.3a5.536,5.536,0,0,0-.562,2.751v.905A6.125,6.125,0,0,0,4.9,13.88a1.882,1.882,0,0,0,1.771.879,2.369,2.369,0,0,0,1.626-.5,2.126,2.126,0,0,0,.6-1.591Zm.949-.51a5.613,5.613,0,0,1,.554-2.536,3.96,3.96,0,0,1,1.591-1.709,4.791,4.791,0,0,1,2.435-.6,4.373,4.373,0,0,1,3.366,1.323,5.076,5.076,0,0,1,1.23,3.6v.105a4.925,4.925,0,0,1-1.235,3.529,4.384,4.384,0,0,1-3.344,1.305,4.434,4.434,0,0,1-3.261-1.217,4.761,4.761,0,0,1-1.327-3.3Zm2.962.185a3.538,3.538,0,0,0,.413,1.934,1.376,1.376,0,0,0,1.222.615q1.582,0,1.617-2.435v-.3q0-2.558-1.635-2.558Q16,9.6,15.88,11.806ZM26.11,7.49l.1,1.116a3.225,3.225,0,0,1,2.716-1.292,2.713,2.713,0,0,1,2.219.888,4.226,4.226,0,0,1,.76,2.672V17H28.932V11a1.6,1.6,0,0,0-.29-1.059A1.342,1.342,0,0,0,27.587,9.6a1.413,1.413,0,0,0-1.292.686V17H23.333V7.49Zm11.54,4.658A5.709,5.709,0,0,1,38.635,8.6a3.233,3.233,0,0,1,2.716-1.283,2.761,2.761,0,0,1,2.338,1.2L43.9,7.49h2.566V20.656H43.5V16.209a2.757,2.757,0,0,1-2.162.967,3.2,3.2,0,0,1-2.685-1.305A6.027,6.027,0,0,1,37.65,12.148Zm2.962.185q0,2.558,1.477,2.558a1.43,1.43,0,0,0,1.406-.773V10.355A1.4,1.4,0,0,0,42.106,9.6q-1.38,0-1.485,2.206ZM53.8,15.972a3.054,3.054,0,0,1-2.54,1.2,3,3,0,0,1-2.369-.91,3.826,3.826,0,0,1-.8-2.615V7.49h2.962v6.179a1.065,1.065,0,0,0,1.187,1.222,1.548,1.548,0,0,0,1.45-.729V7.49H56.67V17H53.893ZM61.416,17H58.445V7.49h2.971ZM58.27,5.029a1.334,1.334,0,0,1,.457-1.043,1.934,1.934,0,0,1,2.373,0,1.334,1.334,0,0,1,.457,1.043A1.334,1.334,0,0,1,61.1,6.073a1.934,1.934,0,0,1-2.373,0A1.334,1.334,0,0,1,58.27,5.029Zm9.571,12.146A4.889,4.889,0,0,1,64.3,15.871a4.507,4.507,0,0,1-1.354-3.4v-.246a5.84,5.84,0,0,1,.541-2.575,3.955,3.955,0,0,1,1.578-1.727,4.763,4.763,0,0,1,2.461-.611,4.117,4.117,0,0,1,3.164,1.244,4.887,4.887,0,0,1,1.16,3.467v1.151H65.96a2.135,2.135,0,0,0,.694,1.257,2.066,2.066,0,0,0,1.389.457,2.662,2.662,0,0,0,2.2-.984l1.354,1.6a3.784,3.784,0,0,1-1.569,1.217A5.3,5.3,0,0,1,67.841,17.176ZM67.507,9.6q-1.3,0-1.547,1.723h2.988v-.229a1.467,1.467,0,0,0-.36-1.1A1.434,1.434,0,0,0,67.507,9.6Zm-.035-6.108H70.6l-2.443,2.76-2.417,0Zm8.288,4,.1,1.116a3.225,3.225,0,0,1,2.716-1.292,2.713,2.713,0,0,1,2.219.888,4.226,4.226,0,0,1,.76,2.672V17H78.581V11a1.6,1.6,0,0,0-.29-1.059A1.342,1.342,0,0,0,77.236,9.6a1.413,1.413,0,0,0-1.292.686V17H72.982V7.49Z" transform="translate(505.195 4662.37)" fill="#12263f"/>
  </g>
</svg>
