<svg id="Grupo_89216" data-name="Grupo 89216" xmlns="http://www.w3.org/2000/svg" xmlns:xlink="http://www.w3.org/1999/xlink" width="63" height="63" viewBox="0 0 63 63">
  <defs>
    <clipPath id="clip-path">
      <rect id="Rectángulo_45584" data-name="Rectángulo 45584" width="38.389" height="38.381" fill="#fff"/>
    </clipPath>
  </defs>
  <path id="Trazado_113533" data-name="Trazado 113533" d="M31.5,0A31.5,31.5,0,1,1,0,31.5,31.5,31.5,0,0,1,31.5,0Z" fill="#7f4fc7"/>
  <g id="Grupo_152917" data-name="Grupo 152917" transform="translate(14 11.837)">
    <g id="Grupo_152917-2" data-name="Grupo 152917" clip-path="url(#clip-path)">
      <path id="Trazado_195610" data-name="Trazado 195610" d="M4.962,8.666H1.8c-.374,0-.748.008-1.121,0a.606.606,0,0,1-.66-.648C.009,6.3-.024,4.584.029,2.871A3.055,3.055,0,0,1,2.954,0c.1,0,.206,0,.309,0q11.6,0,23.2,0a4.3,4.3,0,0,1,4.358,3.339,5.389,5.389,0,0,1,.125,1.225q.014,5.377,0,10.754a1.139,1.139,0,0,0,.381.9c1.018.987,2.012,2,3.013,3,.448.449.445.722-.007,1.178q-.736.741-1.476,1.477c-.522.521-.688.533-1.288.089l-.461.507c.065.068.156.17.252.266l6.645,6.647c.508.509.51.758.009,1.26q-.587.589-1.176,1.176c-.5.5-.748.5-1.259-.014l-4.267-4.267c-.1-.1-.2-.186-.337-.316v6.2c.547,0,1.1,0,1.644,0,.6,0,.81.206.809.815a10.813,10.813,0,0,1-.031,1.429,3.072,3.072,0,0,1-3.155,2.706q-7.1.006-14.193,0-3.887,0-7.773,0a3.108,3.108,0,0,1-3.315-3.311q0-12.939,0-25.878V8.666m23.18,16.686c.467.62.454.788-.072,1.315s-1.035,1.044-1.56,1.557a.623.623,0,0,1-1.01,0q-2.1-2.087-4.185-4.185a.631.631,0,0,1,0-1.037c.5-.506,1-1,1.5-1.506.571-.572.686-.584,1.293-.17l3.412-3.419c-.415-.552-.4-.714.124-1.24.474-.474.942-.954,1.425-1.42.18-.174.393-.313.643-.508v-.228q0-5.029,0-10.058A3.089,3.089,0,0,0,26.5,1.239q-10.269,0-20.537,0c-.109,0-.217.01-.384.019a3.887,3.887,0,0,1,.627,2.507Q6.192,19.334,6.2,34.905c0,.142,0,.284,0,.426a1.855,1.855,0,0,0,3.708.012c.012-.335,0-.67,0-1.006,0-.739.171-.91.908-.91H29.694a1.834,1.834,0,0,0,.022-.185q0-3.54,0-7.08a.409.409,0,0,0-.052-.254c-.329-.355-.671-.7-1.018-1.054l-.5.5m4.022,9.341H11.135a3.572,3.572,0,0,1-.586,2.448H22.871q3.694,0,7.388,0a1.839,1.839,0,0,0,1.9-1.536,5.561,5.561,0,0,0,.008-.912M4.962,7.413c0-1.431,0-2.82,0-4.208a1.859,1.859,0,1,0-3.712.008q0,1.93,0,3.861c0,.111.014.222.022.339ZM27.213,24.4l3.352-3.346-2.094-2.094-3.346,3.352L27.213,24.4m2.382-.49,6.645,6.644.55-.471-6.668-6.676-.526.5m3.482-4.071L29.7,16.463l-.888.84L32.2,20.7l.875-.856M22.662,23.466l3.363,3.367.879-.795-3.4-3.394-.845.822" transform="translate(0 0.001)" fill="#fff"/>
      <path id="Trazado_195611" data-name="Trazado 195611" d="M28.412,64.585a5.571,5.571,0,1,1-5.588,5.532,5.579,5.579,0,0,1,5.588-5.532m-.024,1.239a4.332,4.332,0,1,0,4.337,4.326,4.344,4.344,0,0,0-4.337-4.326" transform="translate(-15.386 -43.538)" fill="#fff"/>
      <rect id="Rectángulo_45577" data-name="Rectángulo 45577" width="20.387" height="1.189" transform="translate(8.073 3.736)" fill="#fff"/>
      <rect id="Rectángulo_45578" data-name="Rectángulo 45578" width="20.374" height="1.193" transform="translate(8.075 6.21)" fill="#fff"/>
      <rect id="Rectángulo_45579" data-name="Rectángulo 45579" width="20.36" height="1.205" transform="translate(8.089 8.673)" fill="#fff"/>
      <rect id="Rectángulo_45580" data-name="Rectángulo 45580" width="20.368" height="1.205" transform="translate(8.088 11.169)" fill="#fff"/>
      <rect id="Rectángulo_45581" data-name="Rectángulo 45581" width="20.374" height="1.192" transform="translate(8.088 13.645)" fill="#fff"/>
      <rect id="Rectángulo_45582" data-name="Rectángulo 45582" width="17.898" height="1.192" transform="translate(8.075 16.114)" fill="#fff"/>
      <rect id="Rectángulo_45583" data-name="Rectángulo 45583" width="16.674" height="1.189" transform="translate(8.075 18.599)" fill="#fff"/>
      <path id="Trazado_195612" data-name="Trazado 195612" d="M60.86,92.442V91.168c.246-.045.5-.074.741-.14a2.862,2.862,0,0,0,1.707-1.306c.183-.294.407-.521.783-.418.349.095.446.368.476.71a1.221,1.221,0,0,0,1.258,1.119c.8.009,1.594,0,2.418,0v1.212c-.941,0-1.879.046-2.811-.015a2.282,2.282,0,0,1-1.7-1.051,11.587,11.587,0,0,1-1.37.776,10.993,10.993,0,0,1-1.506.386" transform="translate(-41.027 -60.184)" fill="#fff"/>
      <path id="Trazado_195613" data-name="Trazado 195613" d="M36.61,75.3a3.093,3.093,0,1,1-3.086-3.111A3.1,3.1,0,0,1,36.61,75.3m-3.088-1.873a1.856,1.856,0,1,0,1.85,1.879,1.863,1.863,0,0,0-1.85-1.879" transform="translate(-20.509 -48.662)" fill="#fff"/>
    </g>
  </g>
</svg>
