<svg xmlns="http://www.w3.org/2000/svg" xmlns:xlink="http://www.w3.org/1999/xlink" width="210.197" height="95.268" viewBox="0 0 210.197 95.268">
  <defs>
    <clipPath id="clip-path">
      <rect id="Rectángulo_45468" data-name="Rectángulo 45468" width="100.217" height="95.268" fill="#fff"/>
    </clipPath>
  </defs>
  <g id="Grupo_153178" data-name="Grupo 153178" transform="translate(-228.033 -794.732)">
    <path id="Trazado_196197" data-name="Trazado 196197" d="M3.779,12.491V17H1.143V4.2H6.135A5.776,5.776,0,0,1,8.67,4.73a3.886,3.886,0,0,1,1.683,1.5,4.178,4.178,0,0,1,.589,2.21,3.674,3.674,0,0,1-1.288,2.966,5.363,5.363,0,0,1-3.564,1.085Zm0-2.136H6.135a2.316,2.316,0,0,0,1.6-.492,1.79,1.79,0,0,0,.549-1.406,2.111,2.111,0,0,0-.554-1.521,2.068,2.068,0,0,0-1.529-.6H3.779Zm14.15-.483a6.9,6.9,0,0,0-.914-.07,1.86,1.86,0,0,0-1.89.976V17h-2.54V7.49h2.4l.07,1.134a2.354,2.354,0,0,1,2.118-1.31,2.662,2.662,0,0,1,.791.114Zm.51,2.285a5.64,5.64,0,0,1,.545-2.522,3.989,3.989,0,0,1,1.569-1.714,4.577,4.577,0,0,1,2.377-.606,4.33,4.33,0,0,1,3.142,1.178,4.727,4.727,0,0,1,1.358,3.2l.018.65a4.97,4.97,0,0,1-1.222,3.511,4.247,4.247,0,0,1-3.278,1.323,4.268,4.268,0,0,1-3.283-1.318,5.058,5.058,0,0,1-1.226-3.586Zm2.54.18a3.555,3.555,0,0,0,.51,2.073,1.831,1.831,0,0,0,2.9.009,3.89,3.89,0,0,0,.519-2.267,3.519,3.519,0,0,0-.519-2.06,1.686,1.686,0,0,0-1.459-.731,1.658,1.658,0,0,0-1.441.726A3.955,3.955,0,0,0,20.979,12.338Zm7.638-.163a5.731,5.731,0,0,1,1-3.542,3.237,3.237,0,0,1,2.729-1.318,2.913,2.913,0,0,1,2.294,1.037V3.5h2.549V17H34.893l-.123-1.011a2.989,2.989,0,0,1-2.443,1.187,3.228,3.228,0,0,1-2.694-1.323A5.916,5.916,0,0,1,28.617,12.175Zm2.54.181a3.775,3.775,0,0,0,.466,2.057,1.516,1.516,0,0,0,1.354.715,1.7,1.7,0,0,0,1.661-1V10.36a1.675,1.675,0,0,0-1.644-1Q31.157,9.362,31.157,12.356Zm13.693,3.678a3.185,3.185,0,0,1-2.6,1.143,3,3,0,0,1-2.333-.879,3.752,3.752,0,0,1-.822-2.575V7.49h2.54v6.151q0,1.487,1.354,1.487a1.834,1.834,0,0,0,1.775-.9V7.49h2.549V17H44.921Zm8.332-.905a1.666,1.666,0,0,0,1.143-.387,1.355,1.355,0,0,0,.457-1.028h2.382a3.258,3.258,0,0,1-.527,1.771,3.48,3.48,0,0,1-1.419,1.248,4.442,4.442,0,0,1-1.991.444,4.129,4.129,0,0,1-3.217-1.3A5.13,5.13,0,0,1,48.832,12.3v-.167A5.071,5.071,0,0,1,50,8.624a4.08,4.08,0,0,1,3.208-1.31A4,4,0,0,1,56.07,8.33a3.594,3.594,0,0,1,1.094,2.7H54.782a1.745,1.745,0,0,0-.457-1.206,1.7,1.7,0,0,0-2.5.183,3.749,3.749,0,0,0-.453,2.1v.264a3.8,3.8,0,0,0,.448,2.113A1.549,1.549,0,0,0,53.183,15.128Zm8.473-9.976V7.49h1.626V9.354H61.655V14.1a1.133,1.133,0,0,0,.2.756,1.015,1.015,0,0,0,.773.229,4.051,4.051,0,0,0,.747-.062v1.925a5.229,5.229,0,0,1-1.538.229,2.425,2.425,0,0,1-2.725-2.7V9.354H57.727V7.49h1.389V5.152Zm2.382,7a5.64,5.64,0,0,1,.545-2.522,3.989,3.989,0,0,1,1.569-1.714,4.577,4.577,0,0,1,2.377-.606A4.33,4.33,0,0,1,71.67,8.492a4.727,4.727,0,0,1,1.358,3.2l.018.65a4.97,4.97,0,0,1-1.222,3.511,4.735,4.735,0,0,1-6.561,0,5.058,5.058,0,0,1-1.226-3.586Zm2.54.18a3.555,3.555,0,0,0,.51,2.073,1.831,1.831,0,0,0,2.9.009,3.89,3.89,0,0,0,.519-2.267,3.519,3.519,0,0,0-.519-2.06,1.686,1.686,0,0,0-1.459-.731,1.658,1.658,0,0,0-1.441.726A3.955,3.955,0,0,0,66.577,12.338Zm13.184,2.035a.818.818,0,0,0-.461-.734,5.241,5.241,0,0,0-1.481-.479q-3.393-.712-3.393-2.883a2.613,2.613,0,0,1,1.05-2.114,4.237,4.237,0,0,1,2.747-.848,4.56,4.56,0,0,1,2.9.853A2.687,2.687,0,0,1,82.2,10.382h-2.54a1.229,1.229,0,0,0-.352-.9,1.488,1.488,0,0,0-1.1-.356,1.52,1.52,0,0,0-.993.29.916.916,0,0,0-.352.738.783.783,0,0,0,.4.681,4.114,4.114,0,0,0,1.349.448,11.019,11.019,0,0,1,1.6.426,2.628,2.628,0,0,1,2.013,2.558,2.481,2.481,0,0,1-1.116,2.1,4.815,4.815,0,0,1-2.883.8,5.029,5.029,0,0,1-2.123-.426,3.561,3.561,0,0,1-1.455-1.169,2.716,2.716,0,0,1-.527-1.6h2.408a1.326,1.326,0,0,0,.5,1.037,1.987,1.987,0,0,0,1.248.36,1.839,1.839,0,0,0,1.1-.277A.861.861,0,0,0,79.761,14.372Z" transform="translate(356 869)" fill="#3cffe9"/>
    <g id="Grupo_152596" data-name="Grupo 152596">
      <g id="Grupo_152595" data-name="Grupo 152595" transform="translate(352.142 860.284) rotate(180)">
        <rect id="Rectángulo_45221" data-name="Rectángulo 45221" width="5.578" height="5.578" transform="translate(118.531 23.706)" fill="#1894f6"/>
        <rect id="Rectángulo_45222" data-name="Rectángulo 45222" width="5.578" height="5.578" transform="translate(106.678 23.706)" fill="#1894f6"/>
        <rect id="Rectángulo_45223" data-name="Rectángulo 45223" width="5.578" height="5.578" transform="translate(94.825 23.706)" fill="#1894f6"/>
        <rect id="Rectángulo_45232" data-name="Rectángulo 45232" width="5.578" height="5.578" transform="translate(118.531 11.853)" fill="#1894f6"/>
        <rect id="Rectángulo_45233" data-name="Rectángulo 45233" width="5.578" height="5.578" transform="translate(106.678 11.853)" fill="#1894f6"/>
        <rect id="Rectángulo_45234" data-name="Rectángulo 45234" width="5.578" height="5.578" transform="translate(94.825 11.853)" fill="#1894f6"/>
        <rect id="Rectángulo_45243" data-name="Rectángulo 45243" width="5.578" height="5.578" transform="translate(118.531)" fill="#1894f6"/>
        <rect id="Rectángulo_45244" data-name="Rectángulo 45244" width="5.578" height="5.578" transform="translate(106.678)" fill="#1894f6"/>
        <rect id="Rectángulo_45245" data-name="Rectángulo 45245" width="5.578" height="5.578" transform="translate(94.825)" fill="#1894f6"/>
      </g>
      <g id="Grupo_152763" data-name="Grupo 152763" transform="translate(229.766 794.732)">
        <g id="Grupo_152763-2" data-name="Grupo 152763" clip-path="url(#clip-path)">
          <path id="Trazado_194661" data-name="Trazado 194661" d="M36.06,79.667c.088.176.124.273.179.357,1.5,2.273,1.448,2.568-.745,4.1q-7.483,5.24-14.97,10.476c-1.462,1.021-2.2.888-3.219-.572Q8.987,82.166.675,70.3c-1.03-1.471-.906-2.213.546-3.231Q8.959,61.64,16.7,56.222c1.527-1.065,2.193-.937,3.288.616.483.685.953,1.37,1.5,2.14l.888-.563c3.124-1.991,6.259-3.964,9.351-6a1.618,1.618,0,0,0,.492-1.2c.029-7.074.021-14.15.021-21.224V5.618A5.095,5.095,0,0,1,37.862.033H90.5A5.106,5.106,0,0,1,96.142,5.7q0,22.486-.01,44.971A1.618,1.618,0,0,0,97,52.335a6.258,6.258,0,0,1,3.134,6.5,6.4,6.4,0,0,1-4.425,5.5c-4.456,1.656-8.935,3.255-13.4,4.883-6.8,2.48-13.608,4.926-20.39,7.442a24.356,24.356,0,0,1-13.841.814A15.179,15.179,0,0,0,36.649,79.27c-.182.109-.35.235-.588.4M35.644,50.8l.809-.243a33.883,33.883,0,0,1,15.457-1.35c5.152.8,10.278,1.728,15.406,2.656a20.182,20.182,0,0,1,4.845,1.227,7.029,7.029,0,0,0,3.37.754,18.78,18.78,0,0,1,1.891,0,26.722,26.722,0,0,0,13.8-2.153,8.1,8.1,0,0,1,1.5-.42V13.551H72.6v8.04a1.754,1.754,0,0,1-1.095,1.845,1.718,1.718,0,0,1-1.983-.549q-2.076-2.084-4.154-4.166c-.382-.382-.775-.764-1.2-1.184-1.857,1.868-3.595,3.643-5.364,5.387a1.641,1.641,0,0,1-2.7-.107,2.891,2.891,0,0,1-.311-1.395c-.029-2.616-.013-5.233-.013-7.875H35.644Zm14.712,8.3c2.637.466,5.152.912,7.664,1.351,3.549.62,7.091,1.279,10.65,1.835a3.257,3.257,0,0,0,3.765-2.653c.009-.048.016-.1.022-.146A3.328,3.328,0,0,0,69.772,55.7c-.272-.065-.547-.12-.822-.168-5.028-.89-10.067-1.718-15.075-2.672-11.64-2.2-21.489,1.527-30.319,9.04L34,76.827a1.434,1.434,0,0,0,.321-.078A18.559,18.559,0,0,1,48.7,74.188,20.942,20.942,0,0,0,60.784,73.5c3.359-1.294,6.763-2.481,10.146-3.7q11.776-4.288,23.547-8.588a3.3,3.3,0,0,0,2.253-4.085q-.041-.141-.093-.276a3.35,3.35,0,0,0-4.288-2.013c-.064.024-.128.049-.191.076Q84.217,57.772,76.3,60.7a1.714,1.714,0,0,0-.878.763,6.811,6.811,0,0,1-7.987,4.061c-3.026-.559-6.061-1.074-9.091-1.614-2.814-.5-5.63-1.007-8.532-1.527ZM19.443,91.255,33.209,81.6,17.79,59.557,4.022,69.212ZM55.727,3.393h-18.3c-.969,0-1.717.469-1.773,1.429-.1,1.733-.031,3.475-.031,5.219h20.1Zm16.917,6.648H92.772c0-1.612.013-3.15,0-4.688-.015-1.354-.637-1.959-2.027-1.96q-8.721-.012-17.441,0c-.2,0-.4.021-.653.034ZM59.181,17.887c1.011-1.051,1.8-1.889,2.61-2.712,2.29-2.332,2.492-2.326,4.825.029.813.821,1.633,1.634,2.557,2.557V3.449H59.187Z" transform="translate(0 0)" fill="#fff"/>
        </g>
      </g>
    </g>
  </g>
</svg>
