<svg xmlns="http://www.w3.org/2000/svg" width="215.32" height="89.201" viewBox="0 0 215.32 89.201">
  <g id="Grupo_153179" data-name="Grupo 153179" transform="translate(-849 -801)">
    <path id="Trazado_196198" data-name="Trazado 196198" d="M7.778,13.643A1.353,1.353,0,0,0,7.251,12.5a6.917,6.917,0,0,0-1.9-.844,13.458,13.458,0,0,1-2.171-.875A3.547,3.547,0,0,1,1,7.6a3.09,3.09,0,0,1,.584-1.85,3.812,3.812,0,0,1,1.679-1.27,6.318,6.318,0,0,1,2.457-.457,5.751,5.751,0,0,1,2.443.5,3.891,3.891,0,0,1,1.666,1.4,3.668,3.668,0,0,1,.593,2.057H7.787a1.726,1.726,0,0,0-.554-1.367,2.276,2.276,0,0,0-1.556-.488,2.432,2.432,0,0,0-1.5.409,1.289,1.289,0,0,0-.536,1.077,1.235,1.235,0,0,0,.628,1.046,7.1,7.1,0,0,0,1.85.791A7.994,7.994,0,0,1,9.4,11.129a3.343,3.343,0,0,1,1.028,2.5,3.08,3.08,0,0,1-1.257,2.606,5.5,5.5,0,0,1-3.384.945,6.534,6.534,0,0,1-2.689-.541,4.256,4.256,0,0,1-1.85-1.481,3.793,3.793,0,0,1-.637-2.18H3.252q0,2.118,2.531,2.118a2.462,2.462,0,0,0,1.468-.382A1.244,1.244,0,0,0,7.778,13.643Zm8.64,3.533a4.668,4.668,0,0,1-3.406-1.283A4.561,4.561,0,0,1,11.7,12.474v-.246a5.745,5.745,0,0,1,.554-2.562,4.064,4.064,0,0,1,1.569-1.74,4.4,4.4,0,0,1,2.316-.611,3.947,3.947,0,0,1,3.072,1.23,5,5,0,0,1,1.121,3.489v1.037H14.273a2.36,2.36,0,0,0,.743,1.494,2.245,2.245,0,0,0,1.569.563,2.742,2.742,0,0,0,2.294-1.063l1.248,1.4a3.813,3.813,0,0,1-1.547,1.261A5.075,5.075,0,0,1,16.418,17.176Zm-.29-7.813a1.587,1.587,0,0,0-1.226.512,2.651,2.651,0,0,0-.6,1.466h3.533v-.2a1.891,1.891,0,0,0-.457-1.311A1.638,1.638,0,0,0,16.128,9.362Zm10.986.51A6.9,6.9,0,0,0,26.2,9.8a1.86,1.86,0,0,0-1.89.976V17h-2.54V7.49h2.4l.07,1.134a2.354,2.354,0,0,1,2.118-1.31,2.662,2.662,0,0,1,.791.114ZM32.054,13.9,33.82,7.49h2.654L33.267,17H30.841L27.633,7.49h2.654ZM40.271,17H37.723V7.49h2.549Zm-2.7-11.971a1.251,1.251,0,0,1,.382-.94,1.648,1.648,0,0,1,2.079,0,1.244,1.244,0,0,1,.387.94,1.247,1.247,0,0,1-.391.949,1.629,1.629,0,0,1-2.065,0A1.247,1.247,0,0,1,37.573,5.029Zm8.745,10.1a1.666,1.666,0,0,0,1.143-.387,1.355,1.355,0,0,0,.457-1.028H50.3a3.258,3.258,0,0,1-.527,1.771,3.48,3.48,0,0,1-1.419,1.248,4.442,4.442,0,0,1-1.991.444,4.129,4.129,0,0,1-3.217-1.3A5.13,5.13,0,0,1,41.968,12.3v-.167a5.071,5.071,0,0,1,1.169-3.507,4.08,4.08,0,0,1,3.208-1.31A4,4,0,0,1,49.206,8.33a3.594,3.594,0,0,1,1.094,2.7H47.918a1.745,1.745,0,0,0-.457-1.206,1.7,1.7,0,0,0-2.5.183,3.749,3.749,0,0,0-.453,2.1v.264a3.8,3.8,0,0,0,.448,2.113A1.549,1.549,0,0,0,46.318,15.128ZM54.431,17H51.882V7.49h2.549Zm-2.7-11.971a1.251,1.251,0,0,1,.382-.94,1.648,1.648,0,0,1,2.079,0,1.244,1.244,0,0,1,.387.94,1.247,1.247,0,0,1-.391.949,1.629,1.629,0,0,1-2.065,0A1.247,1.247,0,0,1,51.732,5.029Zm4.395,7.128a5.64,5.64,0,0,1,.545-2.522,3.989,3.989,0,0,1,1.569-1.714,4.577,4.577,0,0,1,2.377-.606A4.33,4.33,0,0,1,63.76,8.492a4.727,4.727,0,0,1,1.358,3.2l.018.65a4.97,4.97,0,0,1-1.222,3.511,4.735,4.735,0,0,1-6.561,0,5.058,5.058,0,0,1-1.226-3.586Zm2.54.18a3.555,3.555,0,0,0,.51,2.073,1.831,1.831,0,0,0,2.9.009,3.89,3.89,0,0,0,.519-2.267,3.519,3.519,0,0,0-.519-2.06,1.686,1.686,0,0,0-1.459-.731,1.658,1.658,0,0,0-1.441.726A3.955,3.955,0,0,0,58.667,12.338Zm13.184,2.035a.818.818,0,0,0-.461-.734,5.241,5.241,0,0,0-1.481-.479q-3.393-.712-3.393-2.883a2.613,2.613,0,0,1,1.05-2.114,4.237,4.237,0,0,1,2.747-.848,4.56,4.56,0,0,1,2.9.853,2.687,2.687,0,0,1,1.085,2.215h-2.54a1.229,1.229,0,0,0-.352-.9,1.488,1.488,0,0,0-1.1-.356,1.52,1.52,0,0,0-.993.29.916.916,0,0,0-.352.738.783.783,0,0,0,.4.681,4.114,4.114,0,0,0,1.349.448,11.019,11.019,0,0,1,1.6.426,2.628,2.628,0,0,1,2.013,2.558,2.481,2.481,0,0,1-1.116,2.1,4.815,4.815,0,0,1-2.883.8A5.029,5.029,0,0,1,68.2,16.75a3.561,3.561,0,0,1-1.455-1.169,2.716,2.716,0,0,1-.527-1.6h2.408a1.326,1.326,0,0,0,.5,1.037,1.987,1.987,0,0,0,1.248.36,1.839,1.839,0,0,0,1.1-.277A.861.861,0,0,0,71.851,14.372Z" transform="translate(990 869)" fill="#3cffe9"/>
    <g id="Grupo_152594" data-name="Grupo 152594">
      <g id="Grupo_152593" data-name="Grupo 152593" transform="translate(973.108 860.284) rotate(180)">
        <rect id="Rectángulo_45221" data-name="Rectángulo 45221" width="5.578" height="5.578" transform="translate(118.531 23.706)" fill="#1894f6"/>
        <rect id="Rectángulo_45222" data-name="Rectángulo 45222" width="5.578" height="5.578" transform="translate(106.678 23.706)" fill="#1894f6"/>
        <rect id="Rectángulo_45223" data-name="Rectángulo 45223" width="5.578" height="5.578" transform="translate(94.825 23.706)" fill="#1894f6"/>
        <rect id="Rectángulo_45232" data-name="Rectángulo 45232" width="5.578" height="5.578" transform="translate(118.531 11.853)" fill="#1894f6"/>
        <rect id="Rectángulo_45233" data-name="Rectángulo 45233" width="5.578" height="5.578" transform="translate(106.678 11.853)" fill="#1894f6"/>
        <rect id="Rectángulo_45234" data-name="Rectángulo 45234" width="5.578" height="5.578" transform="translate(94.825 11.853)" fill="#1894f6"/>
        <rect id="Rectángulo_45243" data-name="Rectángulo 45243" width="5.578" height="5.578" transform="translate(118.531)" fill="#1894f6"/>
        <rect id="Rectángulo_45244" data-name="Rectángulo 45244" width="5.578" height="5.578" transform="translate(106.678)" fill="#1894f6"/>
        <rect id="Rectángulo_45245" data-name="Rectángulo 45245" width="5.578" height="5.578" transform="translate(94.825)" fill="#1894f6"/>
      </g>
      <g id="Grupo_89327" data-name="Grupo 89327" transform="translate(-9.062 -2257.899)">
        <g id="fid3r8" transform="translate(-2375.491 1146.71)">
          <g id="Grupo_89211" data-name="Grupo 89211" transform="translate(3250.552 1912.189)">
            <path id="Trazado_122301" data-name="Trazado 122301" d="M3315.951,1955.27a12.792,12.792,0,0,0,12.076-10.688,55.667,55.667,0,0,0,.2-6.637.915.915,0,0,0-.471-.635,4.135,4.135,0,0,1,.081-7.521.942.942,0,0,0,.407-.671,5.762,5.762,0,0,1,11.51.569c.011,4.226.021,8.451,0,12.677a27.316,27.316,0,0,1-22.475,26.925c-2.049.377-4.161.408-6.323.607l-.537,2.656c.4.037.754.042,1.1.109a2.927,2.927,0,0,1,2.344,3.074q.009,8.407,0,16.813c0,1.049.016,2.1-.006,3.147a5.708,5.708,0,0,1-5.678,5.676q-12.99.044-25.98,0a5.688,5.688,0,0,1-5.724-5.717c-.028-6.683-.016-13.366,0-20.049a2.861,2.861,0,0,1,2.913-3l.523-.034c-.1-.507-.187-.965-.278-1.422-.087-.438-.175-.876-.268-1.342-1.451-.08-2.88-.119-4.3-.242a27.324,27.324,0,0,1-23.926-21.8,37.45,37.45,0,0,1-.535-5.892c-.078-4.194-.052-8.391-.009-12.587a5.694,5.694,0,0,1,4.784-5.5,5.473,5.473,0,0,1,6.173,3.387,8.334,8.334,0,0,0,2.346,3.771c1.918,1.734,1.258,4.87-1.055,6.176a1.229,1.229,0,0,0-.77,1.313,53.864,53.864,0,0,0,.41,6.882,12.729,12.729,0,0,0,11.62,9.986.658.658,0,0,0,.191-.029,15.12,15.12,0,0,1-.665-2.4,4.973,4.973,0,0,1,1.747-4.238c1.483-1.441,1.476-2.363.057-3.794-2.462-2.482-2.486-5.244-.03-7.717a3.526,3.526,0,0,0,1.076-2.654,30.472,30.472,0,0,1,.665-8.565,18.66,18.66,0,0,1,36.358,1.619,42.754,42.754,0,0,1,.341,6.713,4.046,4.046,0,0,0,1.236,3.045,4.895,4.895,0,0,1-.013,7.394l-.254.254c-1.272,1.286-1.26,2.255-.032,3.552a9.151,9.151,0,0,1,1.429,1.825C3317.014,1951.78,3316.91,1953.012,3315.951,1955.27Zm-25.14-34.413c.446,3.756,2.66,5.718,6.385,5.72,1.228,0,2.457-.011,3.685,0a7.184,7.184,0,0,1,7.226,7.176c.026,1.977.017,3.955,0,5.932a12.64,12.64,0,0,1-1.217,5.3,13.253,13.253,0,0,1-5.229,5.743,6.728,6.728,0,0,0,5.056,4.414c1.2.212,2.447.1,3.663.224a2.748,2.748,0,0,0,2.49-1.027c1.3-1.418,1.351-2.337.014-3.687-2.543-2.567-2.549-5.3-.018-7.848,1.351-1.36,1.365-2.315,0-3.67a6.193,6.193,0,0,1-1.891-4.594,47.933,47.933,0,0,0-.16-5.651,15.736,15.736,0,0,0-14.277-13.769,15.906,15.906,0,0,0-16.348,10.653,21.447,21.447,0,0,0-.829,7.99,6.962,6.962,0,0,1-2.229,5.726,1.94,1.94,0,0,0-.02,2.952c.3.331.64.632.939.967a4.874,4.874,0,0,1,0,6.621c-.278.313-.584.6-.877.9a1.818,1.818,0,0,0-.518,2.276c.558.945,1.142,2.029,2.433,2.125a30,30,0,0,0,3.323,0c2.806-.1,5.639-2.207,6.239-4.621l-.359-.239a12.3,12.3,0,0,1-5.921-9.389c-.262-2.853-.133-5.744-.145-8.618a7.209,7.209,0,0,1,5.07-7.347c.491-.185.973-.39,1.458-.586-.211-.668-.432-1.228-.559-1.809-.13-.6-.169-1.211-.254-1.867Zm20.111,71.858v-17.184H3279.4v17.184Zm-31.49-25.881,1.458-3.524,2.672,1.356c-1.764,2.574-1.512,5.213-.587,7.944h6.827c5.6,0,11.207.005,16.811-.014.3,0,.821-.149.872-.33.579-2.094,1.031-4.206,0-6.307-.209-.426-.4-.859-.631-1.344l2.612-1.3,1.441,3.529a24.1,24.1,0,0,0,8.148-.954l-1.713-7.665c-2.225,0-4.29.038-6.352-.011s-4.094-.183-6.227-.283a9.749,9.749,0,0,1-2.763,6.047,9.425,9.425,0,0,1-6.316,2.858,9.213,9.213,0,0,1-5.712-1.533,9.746,9.746,0,0,1-4.424-7.583c-4.191.927-8.325.346-12.549.49l-1.708,7.687A24.046,24.046,0,0,0,3279.432,1966.833Zm5.669-30.863-.074,0c.076,1.733.015,3.485.255,5.195a10,10,0,0,0,19.752.006,60.669,60.669,0,0,0,.19-7.354,4.275,4.275,0,0,0-4.4-4.364c-1.468-.016-2.936.011-4.4-.013a6.347,6.347,0,0,1-4.3-1.326c-1.325-1.224-2.5-.973-3.833-.305-.16.08-.337.125-.5.2a4.25,4.25,0,0,0-2.687,4C3285.071,1933.333,3285.1,1934.652,3285.1,1935.971Zm-25.893-3.636c0-.922,0-1.727,0-2.531-.007-1.916-1.168-3.225-2.859-3.225a2.925,2.925,0,0,0-2.893,3.2c0,4.225-.03,8.449.005,12.674a24.038,24.038,0,0,0,6.965,17.016,23.5,23.5,0,0,0,8.113,5.5l1.641-7.4c-.115-.119-.132-.149-.157-.16-.137-.059-.276-.115-.415-.17-5.447-2.161-8.958-6.056-10.031-11.83-.454-2.443-.178-5.014-.4-7.512-.141-1.583.235-2.643,1.857-3.061.141-.036.331-.1.387-.21.23-.446.653-.974.556-1.356s-.689-.753-1.14-.906A5.606,5.606,0,0,0,3259.208,1932.335Zm62.583,32.611c.244-.082.361-.108.467-.159,9.016-4.345,14-11.49,14.569-21.494.259-4.57.061-9.166.048-13.75a2.875,2.875,0,1,0-5.745.05c-.011.89,0,1.779,0,2.741-.6,0-1.1-.009-1.608,0-.652.015-1.186.367-1.194.979a2.017,2.017,0,0,0,.654,1.32,4.822,4.822,0,0,0,1.5.781.981.981,0,0,1,.658,1.1c-.034,2.037.026,4.075-.024,6.112a15.6,15.6,0,0,1-5.11,11.393,16.254,16.254,0,0,1-5.876,3.459Zm-42.395,30.718a2.8,2.8,0,0,0,3.058,2.837q9.169.011,18.338,0c2.427,0,4.854.018,7.281-.007a2.762,2.762,0,0,0,2.853-2.833Zm19.275-43.59a30.109,30.109,0,0,1-3.5.364,31.811,31.811,0,0,1-3.607-.374,39.576,39.576,0,0,1-2.6,3.368,1.781,1.781,0,0,0-.572,1.8c.073.31.116.628.172.937h13.223a8.8,8.8,0,0,0,.178-1.2,1.875,1.875,0,0,0-.165-1.079C3300.81,1954.613,3299.751,1953.38,3298.671,1952.074Zm1.86,9.108h-10.726A6.58,6.58,0,0,0,3300.531,1961.183Z" transform="translate(-3250.552 -1912.189)" fill="#fff"/>
            <path id="Trazado_122302" data-name="Trazado 122302" d="M3629.509,2315.71c-2.756,0-5.513,0-8.269,0a2.9,2.9,0,0,1-3.192-3.168q-.01-6.921,0-13.843a2.893,2.893,0,0,1,3.143-3.125q8.358-.009,16.717,0a2.883,2.883,0,0,1,3.148,3.121q.013,6.966,0,13.933a2.876,2.876,0,0,1-3.1,3.081C3635.142,2315.718,3632.325,2315.71,3629.509,2315.71Zm-8.536-11.469v2.781h17.144v-2.781Zm17.189,5.789h-17.178v2.736h17.178Zm-.019-11.521H3632.5v2.768h5.641Zm-14.4,2.771v-2.766h-2.772v2.766Zm3-2.8v2.8h2.759v-2.8Z" transform="translate(-3551.855 -2226.518)" fill="#fff"/>
            <path id="Trazado_122303" data-name="Trazado 122303" d="M3256.355,2314.429c.417-2.069,1.386-2.879,3.361-2.88q5.344,0,10.688,0a2.923,2.923,0,0,1,3.267,3.272c0,2.216.014,4.432,0,6.648a7.2,7.2,0,0,1-7.331,7.341c-.868.008-1.737.015-2.6,0a7.183,7.183,0,0,1-6.631-4.142,1.79,1.79,0,0,0-.953-.74c-.674-.229-1.4-.29-2.094-.481a4.585,4.585,0,0,1,1.092-9.014C3255.533,2314.419,3255.921,2314.429,3256.355,2314.429Zm2.97.019c0,2.637-.122,5.213.038,7.771a4.155,4.155,0,0,0,4.183,3.709c.958.023,1.918.018,2.876,0a4.3,4.3,0,0,0,4.368-4.4c.02-2.157.006-4.315,0-6.473a5.059,5.059,0,0,0-.073-.607Zm-2.947,2.926c-1.809-.2-2.759.339-2.836,1.549-.078,1.231.934,1.943,2.836,1.972Z" transform="translate(-3250.633 -2239.619)" fill="#fff"/>
            <path id="Trazado_122304" data-name="Trazado 122304" d="M3298.7,2247.867h2.863a6.672,6.672,0,0,0,1.538,4.025,7.73,7.73,0,0,1,1.318,4.517h-2.86a6.534,6.534,0,0,0-1.491-3.938A7.788,7.788,0,0,1,3298.7,2247.867Z" transform="translate(-3290.029 -2187.408)" fill="#fff"/>
            <path id="Trazado_122305" data-name="Trazado 122305" d="M3330.648,2247.869h2.863a6.67,6.67,0,0,0,1.538,4.026,7.724,7.724,0,0,1,1.317,4.516h-2.86a6.53,6.53,0,0,0-1.491-3.939A7.784,7.784,0,0,1,3330.648,2247.869Z" transform="translate(-3316.221 -2187.41)" fill="#fff"/>
            <path id="Trazado_122306" data-name="Trazado 122306" d="M3482.948,2283.944a4.312,4.312,0,1,1-4.256-4.323A4.332,4.332,0,0,1,3482.948,2283.944Zm-2.881,0a1.431,1.431,0,1,0-1.441,1.421A1.446,1.446,0,0,0,3480.067,2283.943Z" transform="translate(-3434.021 -2213.443)" fill="#fff"/>
            <path id="Trazado_122307" data-name="Trazado 122307" d="M3472.628,2056.321a7.315,7.315,0,0,1-7.088,8.567c-3.744.029-7.794-3.084-7.186-8.567Zm-11.1,2.839A4.187,4.187,0,0,0,3465.9,2062a3.894,3.894,0,0,0,3.482-2.836Z" transform="translate(-3420.877 -2030.362)" fill="#fff"/>
            <path id="Trazado_122308" data-name="Trazado 122308" d="M3461.237,2025.477a1.431,1.431,0,1,1-1.441-1.421A1.448,1.448,0,0,1,3461.237,2025.477Z" transform="translate(-3420.945 -2003.908)" fill="#fff"/>
            <path id="Trazado_122309" data-name="Trazado 122309" d="M3525.126,2025.456a1.431,1.431,0,1,1-1.461-1.4A1.449,1.449,0,0,1,3525.126,2025.456Z" transform="translate(-3473.327 -2003.906)" fill="#fff"/>
          </g>
        </g>
      </g>
    </g>
  </g>
</svg>
