<svg xmlns="http://www.w3.org/2000/svg" xmlns:xlink="http://www.w3.org/1999/xlink" width="346.702" height="260.068" viewBox="0 0 346.702 260.068">
  <defs>
    <filter id="Trazado_194403" x="96.761" y="196.893" width="249.94" height="63.175" filterUnits="userSpaceOnUse">
      <feOffset dy="3" input="SourceAlpha"/>
      <feGaussianBlur stdDeviation="3" result="blur"/>
      <feFlood flood-opacity="0.161"/>
      <feComposite operator="in" in2="blur"/>
      <feComposite in="SourceGraphic"/>
    </filter>
  </defs>
  <g id="Grupo_152752" data-name="Grupo 152752" transform="translate(-1026.545 -3510.966)">
    <g id="Grupo_152576" data-name="Grupo 152576" transform="translate(975.141 3511.966)">
      <g transform="matrix(1, 0, 0, 1, 51.4, -1)" filter="url(#Trazado_194403)">
        <path id="Trazado_194403-2" data-name="Trazado 194403" d="M13,0H32.175a13,13,0,0,1,13,13V218.94a13,13,0,0,1-13,13H13a13,13,0,0,1-13-13V13A13,13,0,0,1,13,0Z" transform="translate(337.7 202.89) rotate(90)" fill="#12263f"/>
      </g>
    </g>
    <g id="Grupo_126331" data-name="Grupo 126331" transform="translate(642.684 3319.129)">
      <g id="Grupo_126317" data-name="Grupo 126317" transform="translate(383.861 238.398)">
        <g id="Grupo_126301" data-name="Grupo 126301" transform="translate(0 0)">
          <g id="Grupo_126295" data-name="Grupo 126295" transform="translate(39.825)">
            <path id="Trazado_194404" data-name="Trazado 194404" d="M11.865,0H256.2a11.865,11.865,0,0,1,11.865,11.865V155.628A11.865,11.865,0,0,1,256.2,167.494H11.865A11.865,11.865,0,0,1,0,155.628V11.865A11.865,11.865,0,0,1,11.865,0Z" fill="#636363"/>
          </g>
          <g id="Grupo_126299" data-name="Grupo 126299" transform="translate(46.496 6.418)">
            <g id="Grupo_126296" data-name="Grupo 126296" opacity="0.95">
              <path id="Trazado_145609" data-name="Trazado 145609" d="M433.68,227.684a13.341,13.341,0,0,0-13.342,13.342v72.58L523.8,227.684Z" transform="translate(-420.338 -227.684)" fill="#fff"/>
            </g>
            <g id="Grupo_126297" data-name="Grupo 126297" transform="translate(0 76.568)" opacity="0.95">
              <path id="Trazado_145610" data-name="Trazado 145610" d="M420.338,343.53V357a13.342,13.342,0,0,0,13.342,13.342H661.714A13.343,13.343,0,0,0,675.057,357V287.753Z" transform="translate(-420.338 -287.753)" fill="#fff"/>
            </g>
            <g id="Grupo_126298" data-name="Grupo 126298" opacity="0.99">
              <path id="Trazado_145611" data-name="Trazado 145611" d="M675.057,241.026a13.343,13.343,0,0,0-13.343-13.342H523.8L420.338,313.606v46.422l254.719-55.777Z" transform="translate(-420.338 -227.684)" fill="#fff"/>
            </g>
          </g>
          <g id="Grupo_126300" data-name="Grupo 126300" transform="translate(0 156.268)">
            <path id="Trazado_145612" data-name="Trazado 145612" d="M704.483,367.079H405.693a21.833,21.833,0,0,1-21.832-21.834H726.316A21.834,21.834,0,0,1,704.483,367.079Z" transform="translate(-383.861 -345.245)" fill="#636363"/>
          </g>
        </g>
        <g id="Grupo_126311" data-name="Grupo 126311" transform="translate(63.444 15.105)">
          <g id="Grupo_126302" data-name="Grupo 126302" opacity="0.43">
            <rect id="Rectángulo_34521" data-name="Rectángulo 34521" width="120.119" height="13.707" fill="#b0c0f9"/>
          </g>
          <g id="Grupo_126303" data-name="Grupo 126303" transform="translate(146.312)" opacity="0.43">
            <rect id="Rectángulo_34522" data-name="Rectángulo 34522" width="76.096" height="13.707" fill="#b0c0f9"/>
          </g>
          <g id="Grupo_126304" data-name="Grupo 126304" transform="translate(4.549 27.468)" opacity="0.43">
            <rect id="Rectángulo_34523" data-name="Rectángulo 34523" width="75.56" height="58.513" fill="#b0c0f9"/>
          </g>
          <g id="Grupo_126305" data-name="Grupo 126305" transform="translate(146.814 27.468)" opacity="0.43">
            <rect id="Rectángulo_34524" data-name="Rectángulo 34524" width="75.56" height="58.513" fill="#b0c0f9"/>
          </g>
          <g id="Grupo_126306" data-name="Grupo 126306" transform="translate(1.835 97.69)" opacity="0.43">
            <circle id="Elipse_4878" data-name="Elipse 4878" cx="13.417" cy="13.417" r="13.417" transform="matrix(0.229, -0.973, 0.973, 0.229, 0, 26.124)" fill="#b0c0f9"/>
          </g>
          <g id="Grupo_126307" data-name="Grupo 126307" transform="translate(41.085 94.845)" opacity="0.43">
            <circle id="Elipse_4879" data-name="Elipse 4879" cx="13.417" cy="13.417" r="13.417" transform="translate(0 18.975) rotate(-45)" fill="#b0c0f9"/>
          </g>
          <g id="Grupo_126310" data-name="Grupo 126310" transform="translate(17.602 77.177)">
            <g id="Grupo_126308" data-name="Grupo 126308">
              <path id="Rectángulo_34525" data-name="Rectángulo 34525" d="M7.411,0H38.316A7.588,7.588,0,0,1,45.9,7.588v0a7.588,7.588,0,0,1-7.588,7.588H7.588A7.588,7.588,0,0,1,0,7.588V7.411A7.411,7.411,0,0,1,7.411,0Z" fill="#b0c0f9"/>
            </g>
          </g>
        </g>
        <g id="Grupo_126316" data-name="Grupo 126316" transform="translate(42.846 0.447)">
          <g id="Grupo_126312" data-name="Grupo 126312" transform="translate(0 29.487)">
            <path id="Trazado_145623" data-name="Trazado 145623" d="M456.807,246.133l-39.332,15.43L431.851,310.2,480.4,290.777Zm-18.484,12.513a1.6,1.6,0,1,1,1.6-1.6A1.6,1.6,0,0,1,438.323,258.646Z" transform="translate(-417.475 -246.133)" fill="#7f4fc7"/>
          </g>
          <g id="Grupo_126314" data-name="Grupo 126314" transform="translate(18.347)">
            <g id="Grupo_126313" data-name="Grupo 126313">
              <path id="Trazado_145624" data-name="Trazado 145624" d="M435.3,262.618a30.556,30.556,0,0,1-1.68-16.409,33.165,33.165,0,0,1,2.554-7.951,15.506,15.506,0,0,0,1.742-7.568,13.128,13.128,0,0,0-2.988-7.471c-.533-.646-1.448.279-.919.92a11.66,11.66,0,0,1,2.627,6.933c.108,2.837-1.031,5.216-2.136,7.755a31.6,31.6,0,0,0-.455,24.136c.3.77,1.561.435,1.254-.345Z" transform="translate(-431.869 -223)" fill="#3e0793"/>
            </g>
          </g>
          <g id="Grupo_126315" data-name="Grupo 126315" transform="translate(10.588 50.558)">
            <path id="Trazado_145625" data-name="Trazado 145625" d="M434.282,276.949a2.935,2.935,0,0,1,.231,1.191,2.672,2.672,0,0,1-.286,1.138,3.27,3.27,0,0,1-.8,1,4.664,4.664,0,0,1-1.3.776,4.009,4.009,0,0,1-1.463.321,3.848,3.848,0,0,1-1.262-.177,2.852,2.852,0,0,1-.941-.5,1.66,1.66,0,0,1-.511-.631.791.791,0,0,1-.014-.668.872.872,0,0,1,.484-.432.882.882,0,0,1,.6-.051,1.081,1.081,0,0,1,.475.291,5.183,5.183,0,0,0,.4.37,2,2,0,0,0,.528.316,1.929,1.929,0,0,0,.627.148,1.756,1.756,0,0,0,1.634-1,1.6,1.6,0,0,0-.043-1.191,1.572,1.572,0,0,0-.75-.858,3.343,3.343,0,0,0-1.128-.324,12.75,12.75,0,0,0-1.331-.085,6.992,6.992,0,0,1-1.358-.156,3.567,3.567,0,0,1-1.2-.5,2.432,2.432,0,0,1-.869-1.152,2.749,2.749,0,0,1-.219-1.221,2.666,2.666,0,0,1,.314-1.11,3.209,3.209,0,0,1,.77-.924,4.346,4.346,0,0,1,1.157-.687,3.938,3.938,0,0,1,1.406-.325,3.576,3.576,0,0,1,1.133.14,2.262,2.262,0,0,1,.8.422,1.426,1.426,0,0,1,.409.5.771.771,0,0,1,.014.642.855.855,0,0,1-.468.418.734.734,0,0,1-.519.036,1.258,1.258,0,0,1-.452-.269,3.143,3.143,0,0,0-.368-.31,2.155,2.155,0,0,0-.449-.245,1.546,1.546,0,0,0-.52-.1,1.474,1.474,0,0,0-.6.122,1.567,1.567,0,0,0-.89.809,1.521,1.521,0,0,0,.041,1.222,1.3,1.3,0,0,0,.71.744,3.591,3.591,0,0,0,1.117.254c.418.034.864.052,1.335.06a6.132,6.132,0,0,1,1.38.17,3.533,3.533,0,0,1,1.245.565A2.807,2.807,0,0,1,434.282,276.949Z" transform="translate(-425.781 -260.512)" fill="#f2f3f7"/>
            <path id="Trazado_145626" data-name="Trazado 145626" d="M442.545,276.066a.224.224,0,0,1-.138.331l-1.247.512a.332.332,0,0,1-.4-.111l-2.039-2.287-3.338,1.373.157,3.059a.5.5,0,0,1-.033.215.3.3,0,0,1-.176.145l-1.011.414a.224.224,0,0,1-.331-.138.4.4,0,0,1-.029-.111.819.819,0,0,1-.006-.134l-.408-10.452a.545.545,0,0,1,.033-.215.324.324,0,0,1,.189-.15l1.165-.478a.341.341,0,0,1,.413.1l7.057,7.722A.628.628,0,0,1,442.545,276.066Zm-6.626-4.9a5.38,5.38,0,0,1-.437-.533q-.209-.287-.371-.526c-.12-.187-.238-.372-.356-.551l-.027.012c.043.21.087.423.134.641.034.191.071.4.107.635s.062.461.078.682l.2,3.25,2.8-1.148Z" transform="translate(-423.65 -261.195)" fill="#f2f3f7"/>
            <path id="Trazado_145627" data-name="Trazado 145627" d="M447.511,274.029a.224.224,0,0,1-.139.331l-4.626,1.9a.226.226,0,0,1-.333-.139l-3.823-9.308a.226.226,0,0,1,.139-.333l1.247-.511a.225.225,0,0,1,.333.138l3.453,8.409,3.143-1.292a.227.227,0,0,1,.333.139Z" transform="translate(-422.271 -261.764)" fill="#f2f3f7"/>
            <path id="Trazado_145628" data-name="Trazado 145628" d="M452.891,272.136a.23.23,0,0,1-.153.337l-4.819,1.981a.225.225,0,0,1-.333-.139l-3.823-9.308a.225.225,0,0,1,.139-.333l4.82-1.98a.232.232,0,0,1,.345.131l.259.628a.238.238,0,0,1-.148.349l-3.338,1.37,1.25,3.046,2.826-1.16a.228.228,0,0,1,.334.141l.252.617a.234.234,0,0,1-.133.351l-2.823,1.161,1.387,3.379,3.34-1.372a.231.231,0,0,1,.344.133Z" transform="translate(-420.85 -262.664)" fill="#f2f3f7"/>
          </g>
        </g>
      </g>
      <g id="Grupo_126330" data-name="Grupo 126330" transform="translate(522.124 265.661)">
        <path id="Trazado_145629" data-name="Trazado 145629" d="M598.29,362.49a9.608,9.608,0,0,1,.9,2.769,1.5,1.5,0,0,1-.155,1.171,1.635,1.635,0,0,1-.887.463c-3.876,1.089-12.094,2.869-11.211,4.433a1.976,1.976,0,0,0,1.684.661,80.149,80.149,0,0,0,14.922-.677,2.881,2.881,0,0,0,2.111-.951c.566-.846.115-1.971-.3-2.9a27.758,27.758,0,0,1-2.071-7.283" transform="translate(-466.364 -212.14)" fill="#afafaf"/>
        <path id="Trazado_145630" data-name="Trazado 145630" d="M574.966,362.381a9.626,9.626,0,0,1,.877,2.778,1.5,1.5,0,0,1-.167,1.169,1.63,1.63,0,0,1-.892.454c-3.886,1.052-12.122,2.748-11.255,4.321a1.981,1.981,0,0,0,1.678.679,80.177,80.177,0,0,0,14.929-.528,2.887,2.887,0,0,0,2.121-.93c.574-.84.134-1.969-.266-2.9-1-2.328-.238-5.739-.567-8.248" transform="translate(-472.793 -212.416)" fill="#afafaf"/>
        <path id="Trazado_145631" data-name="Trazado 145631" d="M608.626,376.792q-1.5-9.332-2.992-18.665c-.8-4.993-1.6-9.993-1.962-15.037-.3-4.215-.294-8.447-.287-12.674q.017-9.761.036-19.521c.005-3.026-.006-6.144-1.161-8.942l-11.313,1.2H578.434c-.955,7.681-3.142,15.151-4.63,22.746a126.508,126.508,0,0,0-2.334,26.451c.047,2.7.18,5.4.313,8.1l.929,18.8a1.035,1.035,0,0,0,1.259,1.2l6.05.194c1.28-12.836-.775-26.086,2.733-38.5a81.681,81.681,0,0,1,3.972-10.447c.525-1.2,1.265-2.817,2.13-4.67,2.427,12.939,5.6,25.746,8.854,38.507,1.1,4.317,2.215,8.638,3.711,12.836a4.2,4.2,0,0,0,.909,1.667c1.284,1.245,3.4.487,4.992-.333a2.145,2.145,0,0,0,1.3-2.909Z" transform="translate(-470.6 -228.131)" fill="#101e29"/>
        <g id="Grupo_126322" data-name="Grupo 126322" transform="translate(106.405 0)">
          <path id="Trazado_145632" data-name="Trazado 145632" d="M581.869,263.858a26.016,26.016,0,0,1-.99,8.81,3.9,3.9,0,0,0-.244,1.974,2.683,2.683,0,0,0,1.341,1.574,5.087,5.087,0,0,0,7.528-3.252c.451-1.962-.283-3.973-.625-5.956a19.041,19.041,0,0,1,.63-6.526" transform="translate(-574.498 -239.521)" fill="#e28171"/>
          <g id="Grupo_126321" data-name="Grupo 126321">
            <path id="Trazado_145633" data-name="Trazado 145633" d="M581.5,251.529c-1.637,2.027-3.338,4.2-3.646,6.786-.117.981-.024,1.986-.212,2.956-.1.523-.282,1.029-.364,1.555-.31,1.946.729,3.825,1.731,5.523a2.9,2.9,0,0,0,1.171,1.291,2.577,2.577,0,0,0,1.365.116,11.944,11.944,0,0,0,10.573-12.441" transform="translate(-575.421 -241.981)" fill="#f49987"/>
            <path id="Trazado_145634" data-name="Trazado 145634" d="M590.465,264.642c.338-.937.08-2.85-.757-3.391a7.5,7.5,0,0,0-2.841-.855q-1.96-.336-3.884-.857a10.715,10.715,0,0,1-2.487-.927c-1.847-1.038-3.016-2.934-4.107-4.751a6.67,6.67,0,0,0,3.989.468,2.965,2.965,0,0,1-1.628-1.147,12.659,12.659,0,0,1-2.9-9.144c2.111,2.653,4.863,5.087,8.22,5.55a9.839,9.839,0,0,1-1.441-3.552c.6.031,1.031.562,1.528.9a4.862,4.862,0,0,0,1.409.586c2.644.767,5.415,1.242,7.82,2.581s3.9,2.967,3.683,5.71c-.088,1.119.219,2.407.083,3.521a15.564,15.564,0,0,1-.325,2.235,11.173,11.173,0,0,1-2.171,4.164c-2.038,2.329-2,1.945-4.562,3.851" transform="translate(-575.809 -244.038)" fill="#231f20"/>
            <g id="Grupo_126320" data-name="Grupo 126320" transform="translate(2.359 15.309)">
              <path id="Trazado_145635" data-name="Trazado 145635" d="M587.154,260.682a2,2,0,0,1,.967-1.437,1.8,1.8,0,0,1,.786-.32.86.86,0,0,1,1,1.036,1.859,1.859,0,0,1-.335.76,3.671,3.671,0,0,1-1.787,1.368,1.03,1.03,0,0,1-1.143-.141" transform="translate(-575.192 -255.26)" fill="#f49987"/>
              <g id="Grupo_126319" data-name="Grupo 126319">
                <g id="Grupo_126318" data-name="Grupo 126318" transform="translate(1.886 1.163)">
                  <path id="Trazado_145636" data-name="Trazado 145636" d="M580.93,257.2a6,6,0,0,1-1.7,3.494.328.328,0,0,0,0,.459,3.4,3.4,0,0,0,2.011.874.326.326,0,0,0,.325-.325.332.332,0,0,0-.325-.325,3.068,3.068,0,0,1-1.19-.41,1.354,1.354,0,0,1-.361-.273v.459a5.8,5.8,0,0,0,1.486-2.38,7.6,7.6,0,0,0,.378-1.4.337.337,0,0,0-.227-.4.329.329,0,0,0-.4.228Z" transform="translate(-579.138 -256.961)" fill="#e28171"/>
                </g>
                <path id="Trazado_145637" data-name="Trazado 145637" d="M578.943,258.17c-.075.367-.314.63-.534.585s-.339-.38-.265-.747.314-.63.534-.585S579.017,257.8,578.943,258.17Z" transform="translate(-577.532 -255.672)" fill="#231f20"/>
                <path id="Trazado_145638" data-name="Trazado 145638" d="M583.56,258.919c-.074.368-.313.63-.534.585s-.339-.379-.264-.747.313-.63.534-.584S583.635,258.552,583.56,258.919Z" transform="translate(-576.264 -255.466)" fill="#231f20"/>
                <path id="Trazado_145639" data-name="Trazado 145639" d="M582.786,256.726s3.255.278,3.494,1.219a15.8,15.8,0,0,0-3.258-.4C581.875,257.6,582.286,256.712,582.786,256.726Z" transform="translate(-576.388 -255.862)" fill="#231f20"/>
                <path id="Trazado_145640" data-name="Trazado 145640" d="M580.862,256.353s-2.677-.732-3.2.074a11.463,11.463,0,0,1,2.721.621C581.271,257.446,581.264,256.493,580.862,256.353Z" transform="translate(-577.659 -256.048)" fill="#231f20"/>
                <path id="Trazado_145641" data-name="Trazado 145641" d="M578.842,261.87l4.246.506S580.257,265.345,578.842,261.87Z" transform="translate(-577.334 -254.449)" fill="#fff"/>
              </g>
            </g>
          </g>
        </g>
        <path id="Trazado_145642" data-name="Trazado 145642" d="M578.885,282.871c-1.446,1.569-3.363,2.6-4.948,4.022-1.175,1.057-1.083,1.272-1.787,1.327-1.206.094-2.466-1.221-3.459-1.913-4.285-2.986-7.844-4.516-12.6-6.679-.985-.449-3.087-1.853-4.7-2.678a19.183,19.183,0,0,0-1.857-2.377,9.946,9.946,0,0,0-1.549-1.2l-4.32-2.9a3.405,3.405,0,0,0-2.328-.825,38.264,38.264,0,0,0,3.634,3.453,12.094,12.094,0,0,1-1.474-.247c-.5-.038-1.106.265-1.076.764a1.948,1.948,0,0,0,.282.664c.384.822-.064,1.925.506,2.631a2.249,2.249,0,0,0,1.086.611c1.527.51,4.271,1.688,5.806,2.177,1.225,1.233,2.966,2.7,4.372,3.866,5.586,4.622,9.343,8.538,16.084,11.207a7.648,7.648,0,0,0,2.368.849,6.371,6.371,0,0,0,2.22-1.472l10.893-9.825Z" transform="translate(-478.871 -237.01)" fill="#f49987"/>
        <path id="Trazado_145643" data-name="Trazado 145643" d="M603.441,291.609a67.845,67.845,0,0,0,6.607-7.629,2.382,2.382,0,0,0,.574-1.2c.051-.764-.593-1.368-1.14-1.9-1.881-1.842-3.17-4.187-4.655-6.362s-3.295-4.28-5.745-5.247a15.984,15.984,0,0,0-4.792-.826,2.879,2.879,0,0,0-.85.027,3.193,3.193,0,0,0-.927.458,13.176,13.176,0,0,1-4.581,1.754c-1.236.223-2.839.06-3.268-1.119a18.929,18.929,0,0,0-7.914,4.876c-1.973,2.148-3.656,4.551-5.639,6.688a31.8,31.8,0,0,1-3.574,3.308.834.834,0,0,0-.146,1.178,25.428,25.428,0,0,0,9.082,7.031c.191.087.565-.219,1-.7.344,2.955.846,5.9.979,8.873.19,4.233-.372,8.535.523,12.678a1.106,1.106,0,0,0,.2.493c.27.319.769.249,1.177.162,7.584-1.618,15.655.5,23.144-1.509a1.313,1.313,0,0,0,.846-.493,1.372,1.372,0,0,0-.014-1.064c-1.986-6.939-1.963-15.876-2.892-21.5C602.024,290.417,602.758,292.1,603.441,291.609Z" transform="translate(-471.765 -237.341)" fill="#fbc50a"/>
        <g id="Grupo_126329" data-name="Grupo 126329" transform="translate(0 68.299)">
          <path id="Trazado_145644" data-name="Trazado 145644" d="M492.373,319.554l10.91,44.334a2.335,2.335,0,0,0,2.266,1.776H586.1l-.744,5.461H505.533v2.358H587.41l1.066-7.819h0l.133-1,0-.015h0l7.156-54.09,2.874-9.821,4.837-.519a2.356,2.356,0,0,0,2.093-2.594h0l-8.751.937L593.71,309.2l-100.078,8.6A1.422,1.422,0,0,0,492.373,319.554Zm18.3,10.683,10.661-.631.532,8.236-10.039.236Zm-1.221,7.9-10.024.236-1.81-7.359,10.693-.632Zm52.3,12.242H550.413l.392-10.854,11.938-.28Zm3.361-11.189,10.989-.259-1.05,11.448H564.121Zm-13.89-11.348,12.6-.746-.87,9.786-12.065.283Zm-2.7,9.379-11.184.263-.166-8.811,11.682-.691Zm-.473,13.158H537.588l-.2-10.539,11.055-.259Zm-12.827,0H525.04l-.66-10.233,10.651-.25Zm-11-12.588-.537-8.318,11.13-.659.164,8.725Zm-13.9-9.889L509,318.844l11.578-.994.607,9.4Zm12.6-10.248,11.666-1,.185,9.8-11.24.665Zm14.02-1.2,12.367-1.062-.368,10.228-11.812.7Zm14.733-1.264,13.3-1.143-.95,10.682-12.725.753Zm15.69-1.349,11.123-.955-1.013,11.045-11.065.655Zm9.893,12.465-.942,10.267-11,.258.878-9.871Zm2.381-.141,11.778-.7-1.428,10.785-11.3.265Zm10.038,12.453-1.556,11.766h-10.7l1.055-11.5Zm-1.869,14.124-1.4,10.573H576.237l.969-10.573Zm-13.945,10.573h-10.9l.941-10.573h10.928Zm-13.264,0H549.948l.381-10.573h11.214Zm-13.015,0h-9.758l-.2-10.573H547.97Zm-12.116,0h-9.6l-.683-10.573h10.081Zm-11.961,0H515.54l-1.555-10.573h8.845Zm-9.874-12.932-1.463-9.946,9.845-.232.656,10.178Zm-2.384,0h-8.869l-2.377-9.661,9.792-.231Zm-16.33-30.32,11.722-1.007,1.323,8.989-10.921.646Zm98.329-8.445-1.517,11.468-11.876.7,1.02-11.11Zm-87.685,51.7-2.6-10.573H511.6l1.555,10.573Z" transform="translate(-492.331 -297.62)" fill="#3c3b3b"/>
          <g id="Grupo_126325" data-name="Grupo 126325" transform="translate(11.134 73.86)">
            <g id="Grupo_126323" data-name="Grupo 126323">
              <path id="Trazado_145645" data-name="Trazado 145645" d="M501.066,365.273a9.708,9.708,0,1,1,9.708,9.708A9.72,9.72,0,0,1,501.066,365.273Zm2.358,0a7.35,7.35,0,1,0,7.35-7.351A7.36,7.36,0,0,0,503.424,365.273Z" transform="translate(-501.066 -355.565)" fill="#3c3b3b"/>
            </g>
            <g id="Grupo_126324" data-name="Grupo 126324" transform="translate(4.791 4.791)">
              <path id="Trazado_145646" data-name="Trazado 145646" d="M514.658,364.24a4.916,4.916,0,1,1-4.917-4.916A4.917,4.917,0,0,1,514.658,364.24Z" transform="translate(-504.825 -359.324)" fill="#3c3b3b"/>
            </g>
          </g>
          <g id="Grupo_126328" data-name="Grupo 126328" transform="translate(77.757 73.86)">
            <g id="Grupo_126326" data-name="Grupo 126326">
              <path id="Trazado_145647" data-name="Trazado 145647" d="M553.333,365.273a9.708,9.708,0,1,1,9.708,9.708A9.72,9.72,0,0,1,553.333,365.273Zm2.358,0a7.35,7.35,0,1,0,7.35-7.351A7.36,7.36,0,0,0,555.691,365.273Z" transform="translate(-553.333 -355.565)" fill="#3c3b3b"/>
            </g>
            <g id="Grupo_126327" data-name="Grupo 126327" transform="translate(4.791 4.791)">
              <path id="Trazado_145648" data-name="Trazado 145648" d="M566.925,364.24a4.916,4.916,0,1,1-4.917-4.916A4.917,4.917,0,0,1,566.925,364.24Z" transform="translate(-557.092 -359.324)" fill="#3c3b3b"/>
            </g>
          </g>
        </g>
        <path id="Trazado_145649" data-name="Trazado 145649" d="M602.364,286.735a11.348,11.348,0,0,1,1.809,3.774.946.946,0,0,1,.025.82,1.023,1.023,0,0,1-.677.338,17.532,17.532,0,0,0-4.442,1.908l-7.166,3.9a13.578,13.578,0,0,1-2.1.992,20.6,20.6,0,0,1-5.42.548,19.519,19.519,0,0,0-7.538,2.017c-.605.3-1.272.758-1.285,1.435-.019.985,1.351,1.378,2.283,1.057s1.749-1.026,2.734-1.078c1.513-.08,2.655,1.374,4.111,1.791,1.991.569,3.92-.872,5.8-1.739a19.809,19.809,0,0,1,3.634-1.161c5.569-1.354,11.32-2.24,16.5-4.683a3.266,3.266,0,0,0,1.964-1.793,3.356,3.356,0,0,0-.21-1.888c-1.663-5.234-2.244-7.262-4.92-12.057" transform="translate(-469.469 -233.91)" fill="#f49987"/>
      </g>
      <g id="Grupo_126294" data-name="Grupo 126294" transform="translate(495.736 227.312)">
        <g id="Grupo_126287" data-name="Grupo 126287" transform="translate(0 31.552)">
          <g id="Grupo_126285" data-name="Grupo 126285" transform="translate(0 0)">
            <path id="Trazado_145650" data-name="Trazado 145650" d="M13.492,0A13.492,13.492,0,1,1,0,13.492,13.492,13.492,0,0,1,13.492,0Z" transform="matrix(0.53, -0.848, 0.848, 0.53, 0, 22.877)" fill="#3cafff"/>
          </g>
          <g id="Grupo_126286" data-name="Grupo 126286" transform="translate(13.746 11.603)" opacity="0.99">
            <path id="Trazado_145604" data-name="Trazado 145604" d="M488.274,203.758a6.335,6.335,0,0,1-.765,1.5,3.686,3.686,0,0,1-.918.923,2.345,2.345,0,0,1-.988.393,2.049,2.049,0,0,1-1.795-.665,2.333,2.333,0,0,1-.495-.942,3.8,3.8,0,0,1-.1-1.3,6.1,6.1,0,0,1,.391-1.639,6.2,6.2,0,0,1,.775-1.507,3.948,3.948,0,0,1,.93-.936,2.3,2.3,0,0,1,.993-.4,2.055,2.055,0,0,1,1.793.665,2.285,2.285,0,0,1,.492.948,3.772,3.772,0,0,1,.088,1.314A6.469,6.469,0,0,1,488.274,203.758Zm5.9-1.4a.262.262,0,0,1-.073.1,1.4,1.4,0,0,0-.111.107l-9.039,8.077a.712.712,0,0,1-.228.143.4.4,0,0,1-.252-.024l-.352-.13a.253.253,0,0,1-.178-.363.243.243,0,0,1,.073-.1,1.4,1.4,0,0,0,.111-.107l9.023-8.083a.439.439,0,0,1,.495-.112L494,202A.255.255,0,0,1,494.177,202.357Zm-7.111.9a5.519,5.519,0,0,0,.474-2.237c-.054-.5-.237-.811-.554-.928a.978.978,0,0,0-1.024.343,5.479,5.479,0,0,0-1.1,2,8.791,8.791,0,0,0-.388,1.3,3.836,3.836,0,0,0-.084.936,1.171,1.171,0,0,0,.177.605.8.8,0,0,0,.38.307.806.806,0,0,0,.492.017,1.181,1.181,0,0,0,.528-.344,3.841,3.841,0,0,0,.545-.765A8.631,8.631,0,0,0,487.065,203.258Zm7.447,7.359a6.246,6.246,0,0,1-.776,1.507,3.81,3.81,0,0,1-.929.928,2.336,2.336,0,0,1-.988.391,2.032,2.032,0,0,1-.98-.111,1.991,1.991,0,0,1-.811-.554,2.32,2.32,0,0,1-.5-.941,3.683,3.683,0,0,1-.091-1.305,7.344,7.344,0,0,1,1.169-3.155,3.676,3.676,0,0,1,.92-.932,2.331,2.331,0,0,1,.992-.39,2.007,2.007,0,0,1,.977.11,2.029,2.029,0,0,1,.814.555,2.3,2.3,0,0,1,.495.942,3.761,3.761,0,0,1,.1,1.308A6.164,6.164,0,0,1,494.512,210.617Zm-1.23-.491a5.478,5.478,0,0,0,.472-2.237q-.077-.751-.552-.928a.989.989,0,0,0-1.026.343,5.52,5.52,0,0,0-1.1,2,8.589,8.589,0,0,0-.388,1.3,3.775,3.775,0,0,0-.085.934,1.2,1.2,0,0,0,.176.605.777.777,0,0,0,.875.324,1.187,1.187,0,0,0,.528-.344,3.768,3.768,0,0,0,.544-.765A8.569,8.569,0,0,0,493.282,210.126Z" transform="translate(-483.198 -199.168)" fill="#fff"/>
          </g>
        </g>
        <g id="Grupo_126290" data-name="Grupo 126290" transform="translate(52.549 12.717)">
          <g id="Grupo_126288" data-name="Grupo 126288">
            <path id="Trazado_145605" data-name="Trazado 145605" d="M547.941,185.2a18.136,18.136,0,1,1-24.391-7.933A18.136,18.136,0,0,1,547.941,185.2Z" transform="translate(-513.639 -175.289)" fill="#3cafff"/>
          </g>
          <g id="Grupo_126289" data-name="Grupo 126289" transform="translate(9.445 11.264)" opacity="0.99">
            <path id="Trazado_145606" data-name="Trazado 145606" d="M535.052,189.9a4.048,4.048,0,0,1,1.044,1.346,4.2,4.2,0,0,1,.4,1.6,4.753,4.753,0,0,1-.26,1.732,6.1,6.1,0,0,1-.937,1.728l1.416,1.217a.388.388,0,0,1,.015.621.377.377,0,0,1-.6.061l-1.416-1.217a6.11,6.11,0,0,1-1.686,1.272,5.683,5.683,0,0,1-1.688.548,4.051,4.051,0,0,1-1.472-.037,2.411,2.411,0,0,1-1.049-.482,1.122,1.122,0,0,1-.428-.732,1,1,0,0,1,.282-.784,1.087,1.087,0,0,1,.663-.4,1.643,1.643,0,0,1,.746.076,5.35,5.35,0,0,0,.852.24,3.449,3.449,0,0,0,.86.06,2.7,2.7,0,0,0,1.74-.778l-4.362-3.75q-.765.415-1.559.8a6.455,6.455,0,0,1-1.609.542,4.14,4.14,0,0,1-1.637-.018,3.744,3.744,0,0,1-1.656-.887,4.285,4.285,0,0,1-1-1.24,3.473,3.473,0,0,1-.409-1.5,4.531,4.531,0,0,1,.256-1.662,6.238,6.238,0,0,1,.974-1.754l-1.314-1.131a.377.377,0,0,1-.03-.6.389.389,0,0,1,.617-.078l1.314,1.129a5.6,5.6,0,0,1,1.6-1.2,5.133,5.133,0,0,1,1.489-.47,3.178,3.178,0,0,1,1.219.048,2,2,0,0,1,.783.353.96.96,0,0,1,.388.711,1.056,1.056,0,0,1-.28.714.986.986,0,0,1-.6.356,1.507,1.507,0,0,1-.7-.055,4.8,4.8,0,0,0-1.426-.212,2.339,2.339,0,0,0-1.423.659l4.13,3.55q.763-.415,1.589-.82a6.45,6.45,0,0,1,1.67-.562,4.321,4.321,0,0,1,1.723.033A4.116,4.116,0,0,1,535.052,189.9Zm-11.524-2.525a3.011,3.011,0,0,0-.655,1.855,2.318,2.318,0,0,0,.924,1.705,2.028,2.028,0,0,0,.869.472,2.431,2.431,0,0,0,.9.034,3.9,3.9,0,0,0,.929-.257c.312-.128.634-.27.965-.431Zm10.387,4.355a2.517,2.517,0,0,0-.945-.537,2.658,2.658,0,0,0-.964-.09,3.768,3.768,0,0,0-.979.229c-.329.122-.668.265-1.02.427l4.162,3.578a2.933,2.933,0,0,0,.655-1.955A2.411,2.411,0,0,0,533.915,191.732Z" transform="translate(-521.049 -184.126)" fill="#fff"/>
          </g>
        </g>
        <g id="Grupo_126293" data-name="Grupo 126293" transform="translate(11.683)">
          <g id="Grupo_126291" data-name="Grupo 126291">
            <path id="Trazado_145607" data-name="Trazado 145607" d="M493.677,180.375a8.069,8.069,0,1,1,2.965-11.019A8.07,8.07,0,0,1,493.677,180.375Z" transform="translate(-481.579 -165.312)" fill="#3cafff"/>
          </g>
          <g id="Grupo_126292" data-name="Grupo 126292" transform="translate(4.614 4.026)" opacity="0.99">
            <path id="Trazado_145608" data-name="Trazado 145608" d="M489.284,174.8a1.828,1.828,0,0,1-.575.5,1.877,1.877,0,0,1-.7.214,2.125,2.125,0,0,1-.776-.074,2.714,2.714,0,0,1-.789-.379l-.509.658a.173.173,0,0,1-.275.022.171.171,0,0,1-.042-.268l.51-.656a2.7,2.7,0,0,1-.605-.72,2.556,2.556,0,0,1-.283-.736,1.792,1.792,0,0,1-.015-.656,1.072,1.072,0,0,1,.189-.478.508.508,0,0,1,.315-.206.457.457,0,0,1,.356.107.5.5,0,0,1,.194.286.712.712,0,0,1-.018.334,2.342,2.342,0,0,0-.087.382,1.5,1.5,0,0,0-.006.385,1.223,1.223,0,0,0,.107.38,1.279,1.279,0,0,0,.278.375l1.565-2.024c-.134-.219-.265-.444-.391-.674a2.818,2.818,0,0,1-.278-.7,1.883,1.883,0,0,1-.03-.727,1.675,1.675,0,0,1,.357-.757,1.91,1.91,0,0,1,.528-.473,1.527,1.527,0,0,1,.655-.215,1.928,1.928,0,0,1,.744.075,2.694,2.694,0,0,1,.8.391l.474-.609a.167.167,0,0,1,.268-.028c.107.084.125.173.048.272l-.473.612a2.427,2.427,0,0,1,.572.683,2.3,2.3,0,0,1,.243.649,1.469,1.469,0,0,1,.005.543.873.873,0,0,1-.139.357.429.429,0,0,1-.307.187.464.464,0,0,1-.324-.107.445.445,0,0,1-.171-.257.64.64,0,0,1,.009-.314,2.152,2.152,0,0,0,.06-.639,1.034,1.034,0,0,0-.325-.618l-1.483,1.916c.135.221.268.45.4.688a2.954,2.954,0,0,1,.288.729,1.955,1.955,0,0,1,.023.766A1.829,1.829,0,0,1,489.284,174.8Zm-.839-.464a1.125,1.125,0,0,0,.217-.431,1.225,1.225,0,0,0,.018-.431,1.705,1.705,0,0,0-.125-.43c-.062-.143-.133-.292-.213-.445l-1.5,1.932a1.3,1.3,0,0,0,.885.246A1.071,1.071,0,0,0,488.446,174.34Zm1.7-4.715a1.333,1.333,0,0,0-.839-.249,1.045,1.045,0,0,0-.737.45.921.921,0,0,0-.19.4,1.114,1.114,0,0,0,.006.4,1.738,1.738,0,0,0,.136.409c.062.134.134.274.214.416Z" transform="translate(-485.199 -168.471)" fill="#fff"/>
          </g>
        </g>
      </g>
      <g id="Grupo_152751" data-name="Grupo 152751" transform="translate(674.06 191.837)">
        <g id="Grupo_152551" data-name="Grupo 152551" transform="translate(0 135.881) rotate(-90)">
          <rect id="Rectángulo_45220" data-name="Rectángulo 45220" width="98.134" height="29.222" transform="translate(135.881 29.222) rotate(180)" fill="#e8e8e8"/>
          <g id="Grupo_152556" data-name="Grupo 152556" transform="translate(0 16.187)">
            <rect id="Rectángulo_45221" data-name="Rectángulo 45221" width="4.966" height="4.966" transform="translate(105.519 21.104)" fill="#7f4fc7"/>
            <rect id="Rectángulo_45222" data-name="Rectángulo 45222" width="4.966" height="4.966" transform="translate(94.968 21.104)" fill="#7f4fc7"/>
            <rect id="Rectángulo_45223" data-name="Rectángulo 45223" width="4.966" height="4.966" transform="translate(84.416 21.104)" fill="#7f4fc7"/>
            <rect id="Rectángulo_45224" data-name="Rectángulo 45224" width="4.966" height="4.966" transform="translate(73.864 21.104)" fill="#7f4fc7"/>
            <rect id="Rectángulo_45225" data-name="Rectángulo 45225" width="4.966" height="4.966" transform="translate(63.312 21.104)" fill="#7f4fc7"/>
            <rect id="Rectángulo_45226" data-name="Rectángulo 45226" width="4.966" height="4.966" transform="translate(52.76 21.104)" fill="#7f4fc7"/>
            <rect id="Rectángulo_45227" data-name="Rectángulo 45227" width="4.966" height="4.966" transform="translate(42.208 21.104)" fill="#7f4fc7"/>
            <rect id="Rectángulo_45228" data-name="Rectángulo 45228" width="4.966" height="4.966" transform="translate(31.656 21.104)" fill="#7f4fc7"/>
            <rect id="Rectángulo_45229" data-name="Rectángulo 45229" width="4.966" height="4.966" transform="translate(21.104 21.104)" fill="#7f4fc7"/>
            <rect id="Rectángulo_45230" data-name="Rectángulo 45230" width="4.966" height="4.966" transform="translate(10.552 21.104)" fill="#7f4fc7"/>
            <rect id="Rectángulo_45231" data-name="Rectángulo 45231" width="4.966" height="4.966" transform="translate(0 21.104)" fill="#7f4fc7"/>
            <rect id="Rectángulo_45232" data-name="Rectángulo 45232" width="4.966" height="4.966" transform="translate(105.519 10.552)" fill="#7f4fc7"/>
            <rect id="Rectángulo_45233" data-name="Rectángulo 45233" width="4.966" height="4.966" transform="translate(94.968 10.552)" fill="#7f4fc7"/>
            <rect id="Rectángulo_45234" data-name="Rectángulo 45234" width="4.966" height="4.966" transform="translate(84.416 10.552)" fill="#7f4fc7"/>
            <rect id="Rectángulo_45235" data-name="Rectángulo 45235" width="4.966" height="4.966" transform="translate(73.864 10.552)" fill="#7f4fc7"/>
            <rect id="Rectángulo_45236" data-name="Rectángulo 45236" width="4.966" height="4.966" transform="translate(63.312 10.552)" fill="#7f4fc7"/>
            <rect id="Rectángulo_45237" data-name="Rectángulo 45237" width="4.966" height="4.966" transform="translate(52.76 10.552)" fill="#7f4fc7"/>
            <rect id="Rectángulo_45238" data-name="Rectángulo 45238" width="4.966" height="4.966" transform="translate(42.208 10.552)" fill="#7f4fc7"/>
            <rect id="Rectángulo_45239" data-name="Rectángulo 45239" width="4.966" height="4.966" transform="translate(31.656 10.552)" fill="#7f4fc7"/>
            <rect id="Rectángulo_45240" data-name="Rectángulo 45240" width="4.966" height="4.966" transform="translate(21.104 10.552)" fill="#7f4fc7"/>
            <rect id="Rectángulo_45241" data-name="Rectángulo 45241" width="4.966" height="4.966" transform="translate(10.552 10.552)" fill="#7f4fc7"/>
            <rect id="Rectángulo_45242" data-name="Rectángulo 45242" width="4.966" height="4.966" transform="translate(0 10.552)" fill="#7f4fc7"/>
            <rect id="Rectángulo_45243" data-name="Rectángulo 45243" width="4.966" height="4.966" transform="translate(105.519 0)" fill="#7f4fc7"/>
            <rect id="Rectángulo_45244" data-name="Rectángulo 45244" width="4.966" height="4.966" transform="translate(94.968 0)" fill="#7f4fc7"/>
            <rect id="Rectángulo_45245" data-name="Rectángulo 45245" width="4.966" height="4.966" transform="translate(84.416 0)" fill="#7f4fc7"/>
            <rect id="Rectángulo_45246" data-name="Rectángulo 45246" width="4.966" height="4.966" transform="translate(73.864 0)" fill="#7f4fc7"/>
            <rect id="Rectángulo_45247" data-name="Rectángulo 45247" width="4.966" height="4.966" transform="translate(63.312 0)" fill="#7f4fc7"/>
            <rect id="Rectángulo_45248" data-name="Rectángulo 45248" width="4.966" height="4.966" transform="translate(52.76 0)" fill="#7f4fc7"/>
            <rect id="Rectángulo_45249" data-name="Rectángulo 45249" width="4.966" height="4.966" transform="translate(42.208 0)" fill="#7f4fc7"/>
            <rect id="Rectángulo_45250" data-name="Rectángulo 45250" width="4.966" height="4.966" transform="translate(31.656 0)" fill="#7f4fc7"/>
            <rect id="Rectángulo_45251" data-name="Rectángulo 45251" width="4.966" height="4.966" transform="translate(21.104 0)" fill="#7f4fc7"/>
            <rect id="Rectángulo_45252" data-name="Rectángulo 45252" width="4.966" height="4.966" transform="translate(10.552 0)" fill="#7f4fc7"/>
            <rect id="Rectángulo_45253" data-name="Rectángulo 45253" width="4.966" height="4.966" transform="translate(0 0)" fill="#7f4fc7"/>
          </g>
        </g>
      </g>
    </g>
  </g>
</svg>
